<?xml version="1.0" standalone="no"?>
<!DOCTYPE svg PUBLIC "-//W3C//DTD SVG 1.1//EN" "http://www.w3.org/Graphics/SVG/1.1/DTD/svg11.dtd" >
<svg xmlns="http://www.w3.org/2000/svg">
<metadata></metadata>
<defs>
<font id="letter_twobold_italic" horiz-adv-x="609" >
<font-face units-per-em="1000" ascent="800" descent="-200" />
<missing-glyph horiz-adv-x="270" />
<glyph unicode="ff" horiz-adv-x="677" d="M733 627q-8 3 -24 6.5t-36 3.5q-34 0 -51.5 -14t-25.5 -47l-12 -61h115l-19 -87h-116l-90 -428h-109l90 428h-210l-90 -428h-109l91 428h-85l18 87h85l13 61q17 81 66.5 115t124.5 34q23 0 48 -3.5t40 -8.5l-33 -86q-8 3 -24 6.5t-36 3.5q-34 0 -51.5 -14t-24.5 -47 l-13 -61h209l13 61q17 81 66 115t124 34q23 0 48.5 -3.5t39.5 -8.5z" />
<glyph unicode="fi" horiz-adv-x="601" d="M170 583q31 142 183 142q28 0 53.5 -6t39.5 -12l-34 -86q-11 7 -29.5 11.5t-35.5 4.5q-31 0 -47 -16t-22 -45l-13 -61h115l-19 -87h-116l-90 -428h-109l91 428h-85l18 87h85zM487 618l20 96h109l-20 -96h-109zM356 0l109 515h109l-109 -515h-109z" />
<glyph unicode="fl" horiz-adv-x="600" d="M170 583q31 142 183 142q28 0 53.5 -6t39.5 -12l-34 -86q-11 7 -29.5 11.5t-35.5 4.5q-31 0 -47 -16t-22 -45l-13 -61h115l-19 -87h-116l-90 -428h-109l91 428h-85l18 87h85zM356 0l152 714h109l-151 -714h-110z" />
<glyph horiz-adv-x="0" />
<glyph horiz-adv-x="270" />
<glyph unicode=" "  horiz-adv-x="270" />
<glyph unicode="&#x09;" horiz-adv-x="270" />
<glyph unicode="&#xa0;" horiz-adv-x="270" />
<glyph unicode="!" horiz-adv-x="282" d="M148 209h-50l31 296l12 66l28 129h121l-32 -151zM20 0l26 125h121l-26 -125h-121z" />
<glyph unicode="&#x22;" horiz-adv-x="418" d="M365 440h-50l11 222l9 38h121l-8 -38zM165 440h-50l10 222l8 38h123l-8 -38z" />
<glyph unicode="#" horiz-adv-x="683" d="M532 439l-68 -177h117l-14 -66h-128l-76 -196h-73l77 196h-149l-75 -196h-73l76 196h-116l14 66h127l69 177h-117l14 66h128l77 195h71l-76 -195h148l76 195h73l-76 -195h115l-13 -66h-128zM312 439l-68 -177h148l68 177h-148z" />
<glyph unicode="$" d="M198 -101l20 96q-73 12 -129.5 51t-85.5 98l90 49q23 -45 61.5 -71t83.5 -35l48 228q-44 18 -78.5 37t-58.5 42t-36.5 52.5t-12.5 67.5q0 47 19 84t51 63t75.5 39.5t93.5 13.5q8 0 15.5 -0.5t15.5 -1.5l15 69h58l-18 -79q55 -15 98 -46.5t70 -75.5l-84 -51q-18 27 -44 47 t-60 31l-44 -203q42 -17 76.5 -36.5t59.5 -43.5t38.5 -54.5t13.5 -69.5q0 -45 -18 -84t-52 -67.5t-82.5 -44.5t-109.5 -16h-14l-19 -89h-56zM441 192q0 34 -25.5 56t-77.5 46l-46 -214q64 0 106.5 28.5t42.5 83.5zM207 526q0 -38 26.5 -59t75.5 -43l41 194q-3 1 -6.5 1h-6.5 q-27 0 -50.5 -6t-41 -17.5t-28 -29t-10.5 -40.5z" />
<glyph unicode="%" horiz-adv-x="811" d="M216 0h-86l491 700h86zM735 172q0 -36 -12.5 -69t-35.5 -58t-54.5 -39.5t-70.5 -14.5q-33 0 -60 12t-46 33t-29.5 49t-10.5 60q0 37 12.5 69.5t35 57.5t54.5 39.5t70 14.5q34 0 61.5 -12t46.5 -32.5t29 -48.5t10 -61zM659 169q0 37 -19 60.5t-55 23.5q-42 0 -67 -30.5 t-25 -74.5q0 -36 18.5 -60t54.5 -24q42 0 67.5 31t25.5 74zM421 555q0 -37 -12.5 -70t-35.5 -57.5t-54.5 -39t-69.5 -14.5q-34 0 -61.5 12t-46.5 33t-29.5 49t-10.5 60q0 36 12.5 69t35.5 58t54.5 39.5t70.5 14.5q34 0 61 -12t46 -33t29.5 -49t10.5 -60zM344 552 q0 37 -19 60.5t-55 23.5q-42 0 -66.5 -31t-24.5 -74q0 -36 18 -60t55 -24q42 0 67 30.5t25 74.5z" />
<glyph unicode="&#x26;" horiz-adv-x="705" d="M14 192q0 31 9 60.5t30.5 56.5t56.5 50.5t87 40.5q-16 32 -25.5 65t-9.5 65q0 40 14.5 74t41 58t62.5 37.5t79 13.5q37 0 70.5 -10t58.5 -30t40 -49.5t15 -67.5q0 -37 -14.5 -67t-41.5 -54t-65 -43.5t-85 -35.5q12 -20 27 -45.5t30.5 -51t30.5 -49.5t26 -40 q34 38 58 82.5t38 89.5l91 -28q-5 -17 -15 -42t-25.5 -54t-37 -59.5t-49.5 -58.5q15 -15 30.5 -21t33.5 -6q30 0 52 16l20 -79q-19 -12 -44 -17.5t-49 -5.5q-78 0 -128 50q-36 -21 -83.5 -35.5t-98.5 -14.5q-46 0 -88 13t-73.5 38.5t-50 64t-18.5 89.5zM262 78q27 0 53.5 8 t49.5 22q-14 21 -31 48.5t-34.5 57t-34 58t-29.5 51.5q-60 -22 -84 -55t-24 -73q0 -54 37 -85.5t97 -31.5zM265 535q0 -43 34 -108q42 13 70.5 27.5t45 30t23.5 32t7 34.5q0 35 -23.5 56.5t-63.5 21.5q-41 0 -67 -24.5t-26 -69.5z" />
<glyph unicode="'" horiz-adv-x="218" d="M164 440h-49l10 222l9 38h122l-8 -38z" />
<glyph unicode="(" horiz-adv-x="328" d="M201 -125q-33 32 -63 71.5t-52.5 87t-36 102.5t-13.5 118q0 84 23 159t65.5 140t104 117.5t138.5 91.5l38 -73q-66 -35 -117 -82t-86.5 -103.5t-54 -120t-18.5 -132.5q0 -52 11 -97.5t29.5 -84.5t42.5 -71t51 -57z" />
<glyph unicode=")" horiz-adv-x="333" d="M-67 -52q66 35 117 82t86.5 103t54 120t18.5 133q0 52 -11 97.5t-29.5 84t-42.5 70.5t-51 58l62 66q33 -32 63 -71.5t52.5 -87t36 -102.5t13.5 -118q0 -84 -23 -159t-65.5 -140t-104 -117.5t-138.5 -91.5z" />
<glyph unicode="*" horiz-adv-x="506" d="M325 499q15 -24 25.5 -42.5t18.5 -34.5t14.5 -32.5t12.5 -37.5l-76 -25q-7 21 -11.5 38t-7.5 35t-5.5 38.5t-4.5 49.5q-13 -25 -23.5 -43.5t-20.5 -33.5t-21 -28.5t-26 -29.5l-59 53q14 16 26.5 29t26.5 24.5t31 23.5t41 28q-29 -1 -50 -1t-39 1.5t-35.5 4.5t-38.5 8 l16 77q21 -5 38 -9.5t34.5 -10.5t36.5 -14.5t45 -21.5q-15 25 -25.5 43t-18.5 34.5t-14.5 33t-12.5 37.5l75 24q7 -21 11.5 -38t8 -35t5.5 -39t4 -49q13 25 24 43.5t21 33.5t21 28.5t26 29.5l59 -52q-15 -17 -27.5 -29.5t-26 -24t-30.5 -24t-41 -28.5q29 1 50 1t39 -1.5 t35.5 -4.5t38.5 -7l-17 -77q-21 4 -38 8.5t-34 10.5t-36 15t-45 21z" />
<glyph unicode="+" d="M341 258l-42 -199h-93l42 199h-194l20 92h194l43 199h93l-43 -199h195l-20 -92h-195z" />
<glyph unicode="," horiz-adv-x="262" d="M135 7q-12 -60 -43 -99t-88 -68l-25 49q33 16 54.5 40t28.5 52l4 19h-57l26 124h125z" />
<glyph unicode="-" horiz-adv-x="399" d="M48 233l21 96h277l-20 -96h-278z" />
<glyph unicode="." horiz-adv-x="262" d="M9 0l26 124h125l-26 -124h-125z" />
<glyph unicode="/" horiz-adv-x="394" d="M52 -108h-91l389 822h91z" />
<glyph unicode="0" d="M470 455q0 30 -5 58.5t-18 51.5t-34 37t-54 14q-41 0 -71.5 -20.5t-52.5 -53.5t-36.5 -74t-23.5 -82.5t-12.5 -78.5t-3.5 -62q0 -30 5 -58.5t18 -51.5t34.5 -37t54.5 -14q40 0 70.5 21t53 54t37 74.5t23 82.5t12 78t3.5 61zM362 713q61 0 103.5 -23t68.5 -61.5t38 -88 t12 -102.5q0 -40 -6.5 -89t-22 -99t-39.5 -97.5t-59 -84t-81.5 -59t-106.5 -22.5q-62 0 -104.5 23t-69 61.5t-38.5 88.5t-12 103q0 40 7 89.5t22 99.5t39.5 97t60 83.5t82 58.5t106.5 22z" />
<glyph unicode="1" d="M40 0l20 95h170l100 475q-12 -6 -31.5 -13t-44 -14t-51.5 -13t-52 -9l-8 88q81 13 141 35t102 56h86l-128 -605h160l-20 -95h-444z" />
<glyph unicode="2" d="M14 0l18 85q116 85 194.5 146t126.5 108t69 84.5t21 75.5q0 27 -9.5 48t-25.5 34.5t-38 20.5t-46 7q-42 0 -80.5 -22t-69.5 -72l-90 55q47 69 110.5 106t143.5 37q51 0 93 -15t72 -42.5t46.5 -65.5t16.5 -84q0 -50 -21 -96t-64.5 -93.5t-110.5 -99.5t-158 -113h316 l-22 -104h-492z" />
<glyph unicode="3" d="M421 204q0 53 -38 81.5t-100 28.5h-47l20 94h82q51 0 84 27t33 75q0 26 -10 45t-27 32t-39.5 19t-46.5 6q-51 0 -90.5 -21.5t-63.5 -50.5l-80 65q19 22 43.5 41.5t54.5 34.5t66 23.5t77 8.5q50 0 93 -14t74.5 -39.5t49 -60t17.5 -76.5q0 -64 -38.5 -107t-97.5 -60 q19 -9 37 -24t32.5 -35.5t23 -46t8.5 -55.5q0 -45 -19 -83t-53.5 -66t-82 -43.5t-104.5 -15.5q-98 0 -168.5 44t-103.5 118l99 49q26 -57 73 -83.5t101 -26.5q63 0 102 31t39 85z" />
<glyph unicode="4" d="M449 159l-34 -159h-114l34 159h-331l19 91q64 59 113.5 122t82.5 123t50.5 113t19.5 92h118q-1 -39 -21 -95t-55 -117.5t-82 -122.5t-101 -108h209q14 52 29.5 112t25.5 107h105l-48 -219h99l-21 -98h-98z" />
<glyph unicode="5" d="M108 202q10 -29 27 -50.5t38.5 -35t46 -20t50.5 -6.5q32 0 60.5 9.5t50.5 28t34.5 45.5t12.5 61q0 58 -37 95t-104 37q-43 0 -78 -15.5t-60 -42.5q-15 11 -30.5 21t-31.5 21l93 350h420q-5 -26 -11 -52t-11 -52h-325l-52 -179q21 18 55.5 28.5t72.5 10.5q46 0 86 -17 t69.5 -46.5t46 -70t16.5 -86.5q0 -51 -20 -96.5t-56 -79t-87 -53.5t-112 -20q-48 0 -90 12.5t-76 35.5t-59 54.5t-39 69.5z" />
<glyph unicode="6" d="M542 700q-46 -25 -97 -58.5t-97.5 -70.5t-84.5 -76.5t-57 -76.5q25 22 58 34t74 12q46 0 86.5 -16t70.5 -45t47 -70t17 -92q0 -53 -19 -99.5t-54 -81t-83.5 -54t-108.5 -19.5q-56 0 -103 17.5t-80.5 50.5t-52 80.5t-18.5 107.5q0 72 26.5 138t71.5 124t103.5 107 t122.5 88h178zM307 374q-33 0 -60.5 -10.5t-48 -30.5t-31.5 -48t-11 -62q0 -64 36.5 -99.5t97.5 -35.5q37 0 64.5 13t46.5 34.5t28.5 50t9.5 59.5q0 62 -35.5 95.5t-96.5 33.5z" />
<glyph unicode="7" d="M601 612q-44 -41 -99.5 -105.5t-108 -145.5t-94 -173t-56.5 -188h-128q18 91 57.5 180t88.5 167t101.5 142t96.5 107h-370l23 104h508z" />
<glyph unicode="8" d="M445 361q18 -10 35.5 -25.5t31.5 -36.5t22.5 -48t8.5 -59q0 -43 -16.5 -80.5t-49 -65t-79.5 -43.5t-108 -16q-58 0 -106.5 15t-84 42t-55 65.5t-19.5 86.5q0 37 12 68.5t34 56t52 41t65 24.5q-32 20 -55.5 56t-23.5 88q0 41 17 75t47.5 58t72.5 37t92 13q52 0 95.5 -14 t75.5 -39t50 -59.5t18 -76.5q0 -63 -37.5 -104t-94.5 -59zM462 515q0 27 -11 46.5t-28 32t-39 18t-44 5.5q-51 0 -84 -26t-33 -75q0 -26 10.5 -45.5t27.5 -32t39 -18.5t45 -6q50 0 83.5 25.5t33.5 75.5zM426 205q0 32 -11.5 55t-31 37.5t-45 21.5t-54.5 7q-63 0 -102.5 -32 t-39.5 -91q0 -31 11.5 -53.5t31 -37t45.5 -21.5t55 -7q63 0 102 30.5t39 90.5z" />
<glyph unicode="9" d="M86 0q46 25 97.5 58.5t98 70.5t84 76.5t57.5 76.5q-25 -22 -58 -34t-74 -12q-47 0 -87 16t-70 45t-47 70t-17 92q0 53 19 99.5t53.5 81t84 54t109.5 19.5q55 0 101.5 -17.5t80.5 -50.5t52.5 -80.5t18.5 -107.5q0 -72 -26.5 -138t-71.5 -124t-103.5 -107t-122.5 -88h-179z M321 326q33 0 60.5 10.5t48 30.5t31.5 47.5t11 62.5q0 64 -36 99.5t-97 35.5q-37 0 -65 -13t-46.5 -34.5t-28 -50t-9.5 -59.5q0 -62 35.5 -95.5t95.5 -33.5z" />
<glyph unicode=":" horiz-adv-x="312" d="M32 0l27 124h125l-27 -124h-125zM115 391l26 123h126l-27 -123h-125z" />
<glyph unicode=";" horiz-adv-x="307" d="M115 391l26 123h126l-27 -123h-125zM159 7q-13 -60 -43.5 -99t-87.5 -68l-25 49q33 16 54.5 40t28.5 52l4 19h-58l27 124h125z" />
<glyph unicode="&#x3c;" d="M509 522l-269 -228q44 -55 86.5 -109.5t85.5 -110.5l-72 -57l-227 290l335 285z" />
<glyph unicode="=" d="M75 359l20 92h481l-19 -92h-482zM32 157l20 93h482l-20 -93h-482z" />
<glyph unicode="&#x3e;" d="M102 87l269 228l-173 220l73 57l227 -290l-335 -285z" />
<glyph unicode="?" horiz-adv-x="558" d="M304 299q-4 -18 -9.5 -44.5t-10.5 -45.5h-107l39 182q14 -3 25 -4t22 -1q34 0 63.5 10t51.5 27.5t34.5 42t12.5 54.5q0 42 -27.5 67t-80.5 25q-39 0 -76 -15t-72 -47l-56 74q50 43 105.5 65.5t119.5 22.5q43 0 81 -12.5t66 -36.5t44 -58t16 -76q0 -48 -18.5 -88t-51 -70 t-76.5 -48.5t-95 -23.5zM130 0l26 124h120l-26 -124h-120z" />
<glyph unicode="@" horiz-adv-x="919" d="M559 177q-31 -39 -68 -55t-74 -16q-38 0 -67.5 14t-49.5 38.5t-30 58t-10 71.5q0 48 15 90.5t42 74t64 50t81 18.5q45 0 76.5 -18.5t48.5 -47.5l13 58h89l-59 -279q-3 -12 -3 -24q0 -19 11 -30.5t37 -11.5q30 0 54.5 16.5t41.5 44.5t26 64.5t9 76.5q0 61 -20.5 112 t-59 88.5t-93.5 58.5t-124 21q-84 0 -153 -31t-117.5 -82.5t-75 -119t-26.5 -140.5q0 -62 19.5 -115.5t57 -93.5t92.5 -62.5t127 -22.5q46 0 94 10.5t86 33.5l24 -56q-47 -24 -99 -37.5t-110 -13.5q-83 0 -150.5 27t-115.5 74.5t-74 112.5t-26 142q0 87 33.5 166.5t93 139.5 t142 95.5t180.5 35.5q85 0 152.5 -26.5t114.5 -73t72 -108.5t25 -134q0 -57 -15.5 -105t-43 -83t-65.5 -55t-84 -20q-35 0 -66 15t-42 54zM562 338q0 20 -5 39t-16.5 34t-29 24.5t-41.5 9.5q-29 0 -51 -12.5t-37 -33.5t-22.5 -48t-7.5 -55q0 -23 5 -43t16 -36t28 -25t40 -9 q28 0 50.5 13.5t38 35t24 49.5t8.5 57z" />
<glyph unicode="A" horiz-adv-x="682" d="M497 0l-28 184h-289l-107 -184h-130l419 700h136l120 -700h-121zM413 597l-181 -316h225z" />
<glyph unicode="B" horiz-adv-x="695" d="M370 102q63 0 101 30.5t38 81.5t-37 77.5t-100 26.5h-165l-47 -216h210zM266 598l-39 -183h198q50 0 85 24t35 71q0 44 -30.5 66t-81.5 22h-167zM24 0l149 700h269q49 0 89.5 -12.5t69.5 -36t45.5 -56t16.5 -71.5q0 -64 -39 -104.5t-96 -57.5q20 -9 38 -24.5t32 -35.5 t22.5 -45.5t8.5 -53.5q0 -44 -19 -81t-53 -64t-81.5 -42.5t-104.5 -15.5h-347z" />
<glyph unicode="C" horiz-adv-x="700" d="M611 499q-24 49 -68.5 79.5t-110.5 30.5q-58 0 -105 -23t-80.5 -63t-51.5 -92.5t-18 -112.5q0 -50 13 -91.5t38 -71.5t61 -47t83 -17q61 0 107 26.5t77 70.5l84 -65q-50 -64 -118 -100t-155 -36q-73 0 -130.5 25.5t-97.5 70.5t-61 105.5t-21 130.5q0 81 28 153 t78.5 125.5t119.5 84.5t150 31q51 0 94 -12.5t77 -34t60 -50t43 -60.5z" />
<glyph unicode="D" horiz-adv-x="754" d="M344 104q60 0 107 22.5t79.5 61t49 90t16.5 109.5q0 46 -11.5 84.5t-36 66t-62 43t-89.5 15.5h-131l-105 -492h183zM24 0l148 700h227q79 0 138.5 -24.5t99 -66.5t59.5 -98.5t20 -120.5q0 -80 -26 -151t-74.5 -124t-119 -84t-159.5 -31h-313z" />
<glyph unicode="E" horiz-adv-x="647" d="M24 0l149 700h507l-23 -104h-391l-39 -179h332l-20 -97h-332l-46 -216h391l-22 -104h-506z" />
<glyph unicode="F" horiz-adv-x="626" d="M266 596l-40 -186h331l-20 -97h-331l-67 -313h-115l149 700h506l-22 -104h-391z" />
<glyph unicode="G" horiz-adv-x="763" d="M434 609q-59 0 -106.5 -22.5t-81.5 -62t-52 -92.5t-18 -113q0 -50 13 -92t39 -73t64.5 -48.5t89.5 -17.5q45 0 83 14.5t66.5 39t46 57t23.5 69.5h-199l21 98h293q2 -8 4 -22t2 -31q0 -53 -22 -110.5t-65.5 -105.5t-108 -79t-149.5 -31q-78 0 -138 27t-100.5 72.5 t-61.5 106.5t-21 130q0 82 28.5 153t79 123.5t120 83t151.5 30.5q101 0 169 -43t107 -111l-95 -57q-25 50 -71 78.5t-111 28.5z" />
<glyph unicode="H" horiz-adv-x="756" d="M486 0l68 318h-347l-68 -318h-115l149 700h114l-59 -279h348l60 279h114l-148 -700h-116z" />
<glyph unicode="I" horiz-adv-x="292" d="M24 0l149 700h114l-148 -700h-115z" />
<glyph unicode="J" horiz-adv-x="515" d="M414 208q-11 -49 -30 -89.5t-49 -70t-71 -45.5t-95 -16q-77 0 -128.5 32.5t-74.5 86.5l94 54q14 -33 42.5 -52.5t68.5 -19.5q31 0 53.5 11.5t38 30.5t25 44.5t15.5 54.5l100 471h115z" />
<glyph unicode="K" horiz-adv-x="673" d="M490 0l-165 323l-147 -135l-39 -188h-115l149 700h114l-75 -353l379 353h146l-326 -304l207 -396h-128z" />
<glyph unicode="L" horiz-adv-x="585" d="M24 0l149 700h114l-127 -596h372l-22 -104h-486z" />
<glyph unicode="M" horiz-adv-x="915" d="M649 0l124 580l-332 -580h-97l-85 580l-123 -580h-112l149 700h165l80 -556l320 556h172l-149 -700h-112z" />
<glyph unicode="N" horiz-adv-x="756" d="M474 0l-223 552l-117 -552h-110l149 700h134l220 -539l114 539h110l-148 -700h-129z" />
<glyph unicode="O" horiz-adv-x="784" d="M746 380q0 -81 -28 -153t-78 -125t-119 -84t-150 -31q-75 0 -133.5 26t-99 71t-61.5 105.5t-21 130.5q0 81 28 153t77.5 125t118.5 84t150 31q75 0 133.5 -25.5t99 -70.5t62 -106t21.5 -131zM625 383q0 49 -12.5 90.5t-37 71.5t-61.5 46.5t-85 16.5q-57 0 -103.5 -23 t-79.5 -62.5t-51 -93t-18 -113.5q0 -49 12.5 -90t37 -71t61 -46.5t84.5 -16.5q57 0 103.5 23t79.5 62.5t51.5 92.5t18.5 113z" />
<glyph unicode="P" horiz-adv-x="664" d="M407 360q37 0 65 10t46 28t27 42t9 51q0 50 -31 77.5t-96 27.5h-161l-51 -236h192zM193 256l-54 -256h-115l149 700h263q58 0 102.5 -14.5t75 -41.5t46 -65t15.5 -84q0 -51 -18.5 -95t-54.5 -76t-88 -50t-118 -18h-203z" />
<glyph unicode="Q" horiz-adv-x="784" d="M746 380q0 -96 -38 -176.5t-105 -134.5l62 -88l-84 -59l-65 96q-67 -31 -145 -31q-75 0 -133.5 26t-99 71t-61.5 105.5t-21 130.5q0 81 28 153t77.5 125t118.5 84t150 31q75 0 133.5 -25.5t99 -70.5t62 -106t21.5 -131zM625 383q0 49 -12.5 90.5t-37 71.5t-61.5 46.5 t-85 16.5q-57 0 -103.5 -23t-79.5 -62.5t-51 -93t-18 -113.5q0 -49 12.5 -90.5t37 -71.5t61 -46.5t84.5 -16.5q45 0 82 17l-59 90l79 54l63 -91q42 39 65 96.5t23 125.5z" />
<glyph unicode="R" horiz-adv-x="697" d="M460 700q50 0 90 -14t68.5 -40t44 -63t15.5 -82q0 -81 -53 -137t-142 -76l124 -288h-123l-114 272h-174l-57 -272h-115l149 700h287zM266 596l-48 -225h195q31 0 57.5 9t45.5 25.5t30 39t11 49.5q0 48 -29 75t-81 27h-181z" />
<glyph unicode="S" horiz-adv-x="623" d="M215 525q0 -21 9.5 -36.5t27 -27.5t42 -23t54.5 -23q47 -19 87 -38.5t69 -44t45 -57.5t16 -78q0 -43 -18.5 -81t-54 -66.5t-85.5 -45.5t-113 -17q-100 0 -175 42.5t-113 116.5l94 53q15 -30 37.5 -51.5t50 -35t58 -20t60.5 -6.5q62 0 102.5 28t40.5 78q0 23 -10 39.5 t-29.5 29.5t-47.5 25t-64 26q-42 16 -78 34t-62.5 41.5t-42 54.5t-15.5 73q0 46 19 82.5t52.5 62t78.5 39.5t97 14q86 0 153 -36t109 -100l-91 -56q-25 43 -69.5 67.5t-104.5 24.5q-27 0 -50.5 -5.5t-41 -16t-27.5 -27.5t-10 -39z" />
<glyph unicode="T" horiz-adv-x="610" d="M423 596l-128 -596h-113l126 596h-228l23 104h569l-22 -104h-227z" />
<glyph unicode="U" horiz-adv-x="735" d="M643 250q-27 -126 -110 -194.5t-214 -68.5q-56 0 -102 15t-80 42.5t-52.5 67.5t-18.5 90q0 37 10 81l90 417h115l-92 -428q-3 -16 -5 -29t-2 -24q0 -57 38.5 -91.5t107.5 -34.5q81 0 133 43t71 130l92 434h115z" />
<glyph unicode="V" horiz-adv-x="650" d="M725 700l-406 -700h-127l-110 700h123l75 -571l319 571h126z" />
<glyph unicode="W" horiz-adv-x="986" d="M703 0h-129l-33 539l-261 -539h-131l-37 700h116l18 -553l270 553h111l36 -554l250 554h130z" />
<glyph unicode="X" horiz-adv-x="673" d="M482 0l-145 279l-252 -279h-146l339 368l-176 332h128l129 -257l232 257h146l-317 -340l190 -360h-128z" />
<glyph unicode="Y" horiz-adv-x="639" d="M369 279l-59 -279h-116l60 283l-180 417h127l128 -313l253 313h140z" />
<glyph unicode="Z" horiz-adv-x="626" d="M-26 0l20 95l482 501h-360l21 104h522l-19 -92l-487 -504h389l-23 -104h-545z" />
<glyph unicode="[" horiz-adv-x="319" d="M-11 -114l184 864h226l-16 -79h-132l-150 -705h132l-18 -80h-226z" />
<glyph unicode="\" horiz-adv-x="394" d="M180 -108l-47 822h83l47 -822h-83z" />
<glyph unicode="]" horiz-adv-x="319" d="M-76 -114l17 80h132l151 705h-133l17 79h227l-184 -864h-227z" />
<glyph unicode="^" d="M535 405l-156 205l-245 -205l-58 71l267 224h82l183 -238z" />
<glyph unicode="_" horiz-adv-x="583" d="M-90 -125l11 50h585l-11 -50h-585z" />
<glyph unicode="`" horiz-adv-x="317" d="M263 583q-22 12 -45 29.5t-43.5 37t-36.5 40t-24 39.5l99 18q15 -31 41.5 -68t51.5 -65z" />
<glyph unicode="a" horiz-adv-x="669" d="M450 282q0 31 -8 58t-24.5 47t-41 31.5t-57.5 11.5q-41 0 -72.5 -16.5t-53 -44t-32.5 -63t-11 -72.5q0 -30 7.5 -57.5t22.5 -48t39 -32.5t57 -12q42 0 74 17.5t54.5 45.5t34 63.5t11.5 71.5zM531 148q-2 -8 -4 -18t-2 -18q0 -14 8.5 -23t27.5 -9q22 0 37 12l18 -83 q-13 -8 -34.5 -13t-47.5 -5q-21 0 -40.5 5t-34.5 15t-24.5 25t-9.5 35q-34 -42 -78.5 -62.5t-95.5 -20.5t-91.5 18.5t-68 50.5t-42 76.5t-14.5 96.5q0 60 20.5 114t56.5 94.5t86 64.5t109 24q52 0 98.5 -23.5t77.5 -79.5l19 91h108z" />
<glyph unicode="b" horiz-adv-x="637" d="M215 452q32 35 72.5 55t91.5 20q48 0 86.5 -18t66 -50t42 -75.5t14.5 -94.5q0 -61 -20.5 -115.5t-57 -96t-86.5 -65.5t-109 -24q-52 0 -99 22.5t-77 76.5l-18 -87h-109l151 714h110zM172 229q0 -30 8 -56.5t24.5 -46t40.5 -30.5t57 -11q41 0 72.5 17t53.5 45t33 64t11 74 q0 30 -7 56.5t-22.5 46.5t-39.5 31.5t-57 11.5q-41 0 -73.5 -17.5t-55 -46t-34 -65t-11.5 -73.5z" />
<glyph unicode="c" horiz-adv-x="544" d="M482 91q-15 -18 -34.5 -36t-45.5 -33t-58.5 -24.5t-72.5 -9.5q-54 0 -97.5 18.5t-74 51t-47 77.5t-16.5 98q0 60 21 113.5t59 93.5t90 63.5t114 23.5q41 0 74.5 -10t59.5 -27t45 -38.5t32 -44.5l-88 -52q-39 76 -121 76q-40 0 -71.5 -16t-53.5 -43.5t-34 -63.5t-12 -75 q0 -32 8 -59.5t24 -47.5t40 -31.5t56 -11.5q42 0 74 19.5t58 53.5z" />
<glyph unicode="d" horiz-adv-x="638" d="M545 714h109l-152 -714h-109l14 64q-32 -36 -73 -56t-90 -20q-48 0 -86.5 18t-65.5 50t-42 76t-15 95q0 61 20.5 115.5t57 95.5t86.5 65t110 24q51 0 97.5 -22t76.5 -76zM451 287q0 30 -8 56t-24 45.5t-40.5 30.5t-57.5 11q-41 0 -72.5 -17t-53.5 -44.5t-33 -63.5 t-11 -74q0 -30 7.5 -56.5t22.5 -46.5t39 -31.5t57 -11.5q41 0 73.5 17.5t55 46t34 65t11.5 73.5z" />
<glyph unicode="e" horiz-adv-x="597" d="M556 314q0 -27 -5 -49.5t-10 -33.5h-390q0 -4 -0.5 -9t-0.5 -11q0 -59 36.5 -93.5t102.5 -34.5q44 0 81 17t67 48l66 -67q-48 -47 -102.5 -70t-121.5 -23q-60 0 -105.5 18t-77 49.5t-47.5 74.5t-16 94q0 61 21.5 116t60.5 96.5t93.5 66t120.5 24.5q54 0 96 -16.5 t71.5 -45.5t44.5 -68t15 -83zM447 306q1 5 1 17q0 54 -34 82.5t-88 28.5q-61 1 -104 -33.5t-57 -94.5h282z" />
<glyph unicode="f" horiz-adv-x="358" d="M170 583q31 142 183 142q28 0 53.5 -6t39.5 -12l-34 -86q-11 7 -29.5 11.5t-35.5 4.5q-31 0 -47 -16t-22 -45l-13 -61h115l-19 -87h-116l-90 -428h-109l91 428h-85l18 87h85z" />
<glyph unicode="g" horiz-adv-x="639" d="M520 79q-11 -54 -29.5 -100.5t-55.5 -84.5q-40 -42 -94 -60t-120 -18q-72 0 -128.5 20.5t-101.5 58.5l66 80q26 -26 72 -45.5t101 -19.5q69 0 116 37.5t63 114.5l6 33q-29 -34 -71.5 -51.5t-90.5 -17.5q-50 0 -89.5 17t-68 47t-43.5 71t-15 88q0 58 20.5 108.5t57 88 t85.5 59.5t106 22q54 0 102 -23t78 -73l18 84h108zM454 300q0 27 -8.5 51.5t-25.5 42.5t-42 28.5t-59 10.5q-41 0 -72 -14.5t-52 -39t-31.5 -56t-10.5 -65.5q0 -29 8 -54t24 -44t40.5 -30t57.5 -11q40 0 71.5 15t53.5 40t34 57.5t12 68.5z" />
<glyph unicode="h" horiz-adv-x="597" d="M215 445q75 82 175 82q37 0 65.5 -12t47.5 -32.5t29 -47.5t10 -57q0 -14 -2.5 -29.5t-5.5 -29.5l-68 -319h-109l65 303l4 24t2 21q0 37 -21.5 59t-65.5 22q-29 0 -55 -10.5t-47 -29.5t-36 -46t-22 -59l-60 -284h-109l151 714h110z" />
<glyph unicode="i" horiz-adv-x="256" d="M143 618l20 96h109l-20 -96h-109zM12 0l109 515h109l-109 -515h-109z" />
<glyph unicode="j" horiz-adv-x="257" d="M115 -29q-17 -83 -60 -118.5t-105 -35.5q-40 0 -69 11.5t-49 31.5l54 72q8 -10 21.5 -17.5t30.5 -7.5q32 0 48.5 25t24.5 63l111 520h108zM144 618l20 96h109l-20 -96h-109z" />
<glyph unicode="k" horiz-adv-x="573" d="M461 515h136l-251 -216l168 -299h-124l-129 232l-111 -95l-29 -137h-109l152 714h108l-94 -442z" />
<glyph unicode="l" horiz-adv-x="255" d="M11 0l152 714h109l-151 -714h-110z" />
<glyph unicode="m" horiz-adv-x="915" d="M675 0l65 303q6 24 6 45q0 37 -21 58.5t-63 21.5q-54 0 -95 -39.5t-54 -105.5l-60 -283h-110l65 303q6 24 6 45q0 37 -21 58.5t-63 21.5q-54 0 -95 -39.5t-54 -105.5l-60 -283h-109l109 515h109l-15 -71q36 42 78 62.5t89 20.5q57 0 91.5 -27.5t46.5 -69.5q81 97 189 97 q37 0 65.5 -12t47.5 -32.5t28.5 -47.5t9.5 -57q0 -14 -2 -29.5t-5 -29.5l-69 -319h-109z" />
<glyph unicode="n" horiz-adv-x="597" d="M215 445q75 82 175 82q37 0 65.5 -12t47.5 -32.5t29 -47.5t10 -57q0 -14 -2.5 -29.5t-5.5 -29.5l-68 -319h-109l65 303l4 24t2 21q0 37 -21.5 59t-65.5 22q-29 0 -55 -10.5t-47 -29.5t-36 -46t-22 -59l-60 -284h-109l109 515h109z" />
<glyph unicode="o" horiz-adv-x="613" d="M565 284q0 -62 -21 -115.5t-59 -94t-91.5 -63.5t-117.5 -23q-57 0 -101.5 18t-75 50t-47 76.5t-16.5 97.5q0 62 21 116t59 94.5t91 63.5t118 23q57 0 101.5 -18t75 -50t47 -76.5t16.5 -98.5zM450 287q0 30 -8 56.5t-23.5 46t-39.5 31t-55 11.5q-40 0 -71.5 -17t-54 -45.5 t-34.5 -65t-12 -74.5q0 -31 7.5 -58t23 -46.5t39.5 -31t56 -11.5q40 0 71.5 17.5t54 46t34.5 65t12 75.5z" />
<glyph unicode="p" horiz-adv-x="637" d="M84 -174h-109l146 689h109l-14 -64q32 36 73.5 56t90.5 20q48 0 86.5 -18t65.5 -50t42 -76t15 -95q0 -61 -20.5 -115.5t-57 -95.5t-87 -65t-109.5 -24q-52 0 -98.5 22t-76.5 76zM172 228q0 -30 8 -56t24.5 -45.5t40.5 -30.5t57 -11q41 0 73 17t53.5 44.5t33 63.5t11.5 74 q0 30 -7.5 56.5t-22.5 46.5t-39 31.5t-57 11.5q-42 0 -74.5 -17.5t-55 -46t-34 -65t-11.5 -73.5z" />
<glyph unicode="q" horiz-adv-x="637" d="M408 63q-32 -35 -72.5 -55t-90.5 -20q-48 0 -87 18t-66 50t-42 75.5t-15 94.5q0 61 20.5 115.5t57 96t87 65.5t109.5 24q52 0 98.5 -22.5t76.5 -76.5l18 87h109l-146 -689h-109zM452 286q0 30 -8 56t-24.5 45.5t-41 31t-57.5 11.5q-41 0 -72.5 -17t-53.5 -45t-33 -64 t-11 -74q0 -30 7.5 -56.5t22.5 -46.5t39 -31.5t57 -11.5q41 0 73.5 17.5t55 46t34.5 65t12 73.5z" />
<glyph unicode="r" horiz-adv-x="403" d="M387 402q-11 6 -25 10.5t-31 4.5q-53 0 -96.5 -42.5t-59.5 -117.5l-55 -257h-108l109 515h109l-17 -82q29 42 67.5 66.5t82.5 24.5q24 0 44 -5.5t31 -12.5z" />
<glyph unicode="s" horiz-adv-x="523" d="M459 152q0 -35 -15 -65t-43 -52t-69.5 -34.5t-93.5 -12.5q-81 0 -144 29.5t-101 86.5l80 47q27 -39 70 -58.5t93 -19.5q48 0 80 17t32 51q0 15 -7.5 25.5t-22 18.5t-35.5 16t-49 17q-30 10 -59 21.5t-52.5 29t-38 42.5t-14.5 61q0 39 16.5 68t45 48.5t66 29t78.5 9.5 q38 0 71.5 -7.5t61.5 -20t50.5 -28.5t39.5 -33l-73 -57q-25 26 -64 43.5t-85 17.5q-18 0 -36 -3.5t-31.5 -10t-22 -17.5t-8.5 -26q0 -28 26.5 -43t69.5 -29q31 -10 63.5 -21.5t59.5 -29.5t44 -44.5t17 -65.5z" />
<glyph unicode="t" horiz-adv-x="420" d="M360 30q-59 -42 -134 -42q-64 0 -106 30t-42 92q0 17 8 55l56 265h-106l18 85h106l39 185h108l-39 -185h160l-19 -85h-159l-56 -265q-2 -9 -3 -17t-1 -14q0 -25 15.5 -37.5t41.5 -12.5q22 0 42 7.5t34 18.5z" />
<glyph unicode="u" horiz-adv-x="597" d="M367 71q-37 -42 -81.5 -62.5t-92.5 -20.5q-38 0 -66.5 12t-47.5 32.5t-29 47.5t-10 57q0 14 2.5 30t5.5 30l68 318h109l-64 -303q-3 -12 -5 -23.5t-2 -21.5q0 -37 21.5 -58.5t65.5 -21.5q28 0 54.5 10.5t47.5 29.5t36.5 45.5t22.5 59.5l59 283h109l-109 -515h-109z" />
<glyph unicode="v" horiz-adv-x="534" d="M260 0h-114l-93 515h115l57 -389l222 389h125z" />
<glyph unicode="w" horiz-adv-x="793" d="M564 0h-115l-31 383l-195 -383h-114l-32 515h110l8 -387l197 387h99l31 -385l173 385h122z" />
<glyph unicode="x" horiz-adv-x="545" d="M351 0l-92 194l-172 -194h-137l252 273l-126 242h122l84 -177l152 177h134l-229 -249l135 -266h-123z" />
<glyph unicode="y" horiz-adv-x="598" d="M377 108q-32 -40 -78.5 -60t-95.5 -20q-38 0 -66 12t-47.5 32.5t-29 47.5t-9.5 57q0 14 2 29.5t5 29.5l59 279h109l-57 -264q-2 -12 -4 -23.5t-2 -21.5q0 -37 21.5 -58.5t66.5 -21.5q66 0 107 45.5t58 120.5l48 223h107l-88 -414q-14 -65 -35 -117.5t-55.5 -89.5 t-85 -57.5t-121.5 -20.5q-62 0 -114.5 19t-84.5 51l64 77q26 -26 63.5 -39.5t76.5 -13.5q64 0 111 33.5t64 113.5z" />
<glyph unicode="z" horiz-adv-x="509" d="M-24 0l18 84l345 335h-262l20 96h412l-18 -83l-344 -337h282l-21 -95h-432z" />
<glyph unicode="{" horiz-adv-x="374" d="M218 -118q-67 0 -104.5 33t-37.5 90q0 27 8 54l25 121q2 11 3.5 22t1.5 21q0 25 -15.5 41t-50.5 16h-40l16 78h46q45 0 66.5 27t31.5 71l28 139q18 85 71 122.5t130 37.5h61l-16 -79h-41q-51 0 -76 -24t-37 -78l-26 -123q-12 -59 -41.5 -89.5t-77.5 -44.5 q29 -12 46.5 -38t17.5 -65q0 -12 -2 -25t-5 -27l-20 -98q-2 -12 -4.5 -23t-2.5 -22q0 -59 75 -59h41l-17 -78h-54z" />
<glyph unicode="|" horiz-adv-x="233" d="M-10 -108l176 822h82l-176 -822h-82z" />
<glyph unicode="}" horiz-adv-x="372" d="M161 755q67 0 104 -33t37 -90q0 -13 -2 -27l-4 -28l-25 -120l-4 -22t-2 -21q0 -25 15.5 -40.5t50.5 -15.5h40l-17 -78h-45q-45 0 -66.5 -27.5t-31.5 -72.5l-29 -138q-18 -85 -70.5 -122.5t-129.5 -37.5h-62l17 78h40q51 0 77 24.5t37 78.5l25 122q13 59 43 90t76 45 q-29 12 -45.5 38t-16.5 65q0 12 1 25t4 28l21 97q2 12 4 23t2 22q0 29 -18 43.5t-57 14.5h-41l17 79h55z" />
<glyph unicode="~" d="M213 296q-27 0 -54.5 -17t-54.5 -55l-55 39q38 62 80 95.5t96 33.5q19 0 39 -6t50 -25q19 -13 32.5 -21t23 -12.5t16.5 -6t15 -1.5q26 0 53.5 17.5t54.5 55.5l55 -39q-37 -62 -79.5 -95.5t-96.5 -33.5q-20 0 -39 5.5t-49 25.5q-20 12 -33 20t-22.5 12.5t-17 6t-14.5 1.5z " />
<glyph unicode="&#xa1;" horiz-adv-x="284" d="M121 306h50l-31 -298l-8 -48l-29 -134h-121l32 151zM249 515l-26 -125h-122l27 125h121z" />
<glyph unicode="&#xa2;" d="M498 93q-15 -18 -34.5 -37t-45.5 -34t-58.5 -24.5t-71.5 -9.5h-7l-17 -82h-56l19 89q-81 19 -127 84t-46 157q0 63 21.5 117.5t60 95.5t91 64.5t115.5 23.5l17 81h56l-19 -88q57 -12 94 -44.5t58 -70.5l-87 -51q-31 59 -84 73l-76 -354q40 2 71 21.5t57 52.5zM164 237 q0 -53 20.5 -92.5t62.5 -54.5l75 351q-37 -3 -66 -21t-49.5 -46t-31.5 -63.5t-11 -73.5z" />
<glyph unicode="&#xa3;" d="M162 108q20 9 46 14t43 5q21 0 41 -5.5t38.5 -11.5t35.5 -11.5t33 -5.5q25 0 42 15t28 56l92 -42q-25 -71 -64.5 -103t-93.5 -32q-28 0 -53 7t-50 15.5t-51.5 15.5t-56.5 7q-26 0 -64.5 -8.5t-86.5 -36.5l-44 79q71 42 107 85t36 96q0 8 -1 21.5t-4 24.5h-111l17 75h77 q-8 30 -13 59t-5 57q0 52 20 94.5t55 72.5t81 46t99 16q81 0 141.5 -37t103.5 -97l-88 -65q-23 36 -62.5 64.5t-95.5 28.5q-28 0 -53 -8.5t-43.5 -25.5t-29.5 -43t-11 -60q0 -21 4.5 -49t11.5 -53h203l-15 -75h-174q2 -17 0.5 -33t-7.5 -31q-3 -34 -23 -65.5t-55 -55.5z" />
<glyph unicode="&#xa4;" d="M418 316q0 44 -26 74t-74 30q-28 0 -51.5 -10.5t-40 -28.5t-26 -41.5t-9.5 -49.5q0 -44 26 -73.5t74 -29.5q28 0 51.5 10.5t40 28t26 41t9.5 49.5zM34 137l91 77q-15 31 -15 72q0 37 12 71t35 61l-50 66l72 56l50 -64q20 10 42.5 15.5t48.5 5.5q32 0 58 -8.5t47 -23.5 l91 76l60 -70l-93 -78q15 -33 15 -74q0 -75 -47 -131l51 -65l-73 -57l-50 64q-20 -10 -43.5 -15.5t-47.5 -5.5q-32 0 -59 8.5t-47 23.5l-89 -75z" />
<glyph unicode="&#xa5;" d="M418 368h135l-13 -58h-165l-21 -27l-12 -59h180l-12 -60h-181l-35 -164h-114l35 164h-182l12 60h183l12 58l-10 28h-166l12 58h136l-106 332h126l84 -311l213 311h138z" />
<glyph unicode="&#xa6;" horiz-adv-x="228" d="M101 398l67 316h72l-67 -316h-72zM-7 -108l68 316h71l-67 -316h-72z" />
<glyph unicode="&#xa7;" horiz-adv-x="592" d="M227 -2q43 0 75.5 15t54.5 41l-64 48q-101 78 -152 156.5t-51 168.5q0 58 20.5 110t58 91t90.5 62t118 23q126 0 213 -89l-61 -72q-69 68 -157 68q-43 0 -75 -15.5t-54 -41.5l63 -47q103 -78 153.5 -156.5t50.5 -169.5q0 -58 -20.5 -110t-58 -91t-90.5 -61.5t-118 -22.5 q-125 0 -214 89l62 72q69 -68 156 -68zM198 491q-9 -29 -9 -62q0 -44 14.5 -81.5t38.5 -69.5t54 -60.5t61 -55.5l45 -36q4 14 6.5 29.5t2.5 32.5q0 45 -14.5 82.5t-38.5 69.5t-54 60.5t-61 54.5z" />
<glyph unicode="&#xa8;" horiz-adv-x="318" d="M80 598l19 93h91l-20 -93h-90zM290 598l20 93h91l-21 -93h-90z" />
<glyph unicode="&#xa9;" horiz-adv-x="861" d="M810 350q0 -76 -29 -143t-79.5 -117.5t-117.5 -79.5t-143 -29q-77 0 -144 29t-117.5 79.5t-79.5 117.5t-29 143t29 143.5t79.5 117.5t117.5 79t144 29q76 0 143 -29t117.5 -79t79.5 -117.5t29 -143.5zM747 350q0 64 -24 120t-65.5 98t-97.5 66t-119 24t-119 -24t-98 -66 t-66.5 -98t-24.5 -120q0 -63 24 -119t66 -98t98 -66.5t120 -24.5q63 0 119 24.5t97.5 66.5t65.5 98t24 119zM628 245q-31 -53 -80.5 -80.5t-106.5 -27.5q-44 0 -83 16.5t-68 45.5t-46 68t-17 83q0 45 17 84t46 68t68 45.5t83 16.5q57 0 105.5 -27t80.5 -80l-67 -45 q-20 34 -51.5 52t-66.5 18q-27 0 -51 -10.5t-41.5 -28.5t-28 -42t-10.5 -51t10.5 -51t28 -42t41.5 -28.5t51 -10.5q37 0 67.5 18.5t50.5 52.5z" />
<glyph unicode="&#xaa;" horiz-adv-x="440" d="M403 618q0 -13 -2.5 -25t-4.5 -24l-24 -111q-1 -6 -2 -11.5t-1 -10.5q0 -18 19 -18q12 0 21 6l8 -55q-7 -5 -20 -8t-30 -3q-22 0 -40 9t-24 26q-5 6 -6 14q-22 -29 -51.5 -40.5t-58.5 -11.5q-48 0 -78 24.5t-30 73.5q0 39 18 60.5t44.5 31.5t58 13t58 6.5t44.5 11.5 t18 28q0 22 -19.5 29t-39.5 7q-55 0 -106 -33l-28 58q31 20 66.5 31.5t77.5 11.5q25 0 49 -5t42 -15.5t29.5 -27.5t11.5 -42zM308 536q-17 -15 -42 -19t-48 -8t-39.5 -13.5t-16.5 -35.5q0 -23 15 -32.5t35 -9.5q31 0 54.5 18.5t31.5 57.5z" />
<glyph unicode="&#xab;" horiz-adv-x="487" d="M35 284l171 193l53 -49l-141 -176l86 -169l-66 -36l-111 198zM231 284l188 193l51 -51l-156 -174l80 -169l-66 -36l-105 198z" />
<glyph unicode="&#xac;" d="M401 59l42 199h-389l19 92h482l-62 -291h-92z" />
<glyph unicode="&#xad;" horiz-adv-x="399" d="M48 233l21 96h277l-20 -96h-278z" />
<glyph unicode="&#xae;" horiz-adv-x="861" d="M810 350q0 -76 -29 -143t-79.5 -117.5t-117.5 -79.5t-143 -29q-77 0 -144 29t-117.5 79.5t-79.5 117.5t-29 143t29 143.5t79.5 117.5t117.5 79t144 29q76 0 143 -29t117.5 -79t79.5 -117.5t29 -143.5zM748 350q0 64 -24 120t-66 98t-98 66t-119 24t-119 -24t-98 -66 t-66.5 -98t-24.5 -120q0 -63 24 -119t66 -98t98 -66.5t120 -24.5q63 0 119 24.5t98 66.5t66 98t24 119zM530 149l-72 146h-88v-146h-85v404h178q71 0 110 -35t39 -92q0 -42 -22.5 -71.5t-55.5 -42.5l87 -163h-91zM525 423q0 29 -16.5 46.5t-47.5 17.5h-91v-126h91 q32 0 48 17.5t16 44.5z" />
<glyph unicode="&#xaf;" horiz-adv-x="326" d="M77 615l14 67h309l-14 -67h-309z" />
<glyph unicode="&#xb0;" horiz-adv-x="392" d="M404 557q0 -32 -12 -60t-33 -49t-49 -33t-60 -12t-60 12t-49 33t-33 49t-12 60t12 60t33 49t49 33.5t60 12.5t60 -12.5t49 -33.5t33 -49t12 -60zM334 557q0 35 -24.5 59.5t-59.5 24.5t-59.5 -24.5t-24.5 -59.5q0 -34 24.5 -58.5t59.5 -24.5t59.5 24.5t24.5 58.5z" />
<glyph unicode="&#xb1;" d="M3 0l20 92h481l-20 -92h-481zM362 341l-40 -186h-93l40 186h-194l19 92h194l40 186h93l-40 -186h195l-20 -92h-194z" />
<glyph unicode="&#xb2;" horiz-adv-x="382" d="M57 334l13 62q69 49 116 84t75 61.5t40 48t12 42.5q0 30 -19 45t-45 15q-24 0 -46 -13t-40 -43l-65 38q30 45 70.5 68.5t91.5 23.5q63 0 103 -35t40 -93q0 -30 -12 -57.5t-36.5 -54.5t-61.5 -55t-88 -60h177l-17 -77h-308z" />
<glyph unicode="&#xb3;" horiz-adv-x="388" d="M302 460q0 28 -19.5 43t-54.5 15h-29l14 68h49q27 0 44.5 15t17.5 39q0 26 -19 40t-47 14q-29 0 -51.5 -12t-37.5 -31l-59 45q26 31 64.5 50.5t90.5 19.5q30 0 57 -8.5t46.5 -23.5t31 -36.5t11.5 -47.5q0 -39 -24 -64.5t-60 -35.5q25 -11 42.5 -36.5t17.5 -60.5 q0 -27 -11.5 -50t-33 -40.5t-51 -27t-65.5 -9.5q-61 0 -105 27t-65 75l72 33q14 -32 39.5 -47t57.5 -15q36 0 56.5 17t20.5 44z" />
<glyph unicode="&#xb4;" horiz-adv-x="318" d="M158 615q31 31 61.5 67.5t50.5 64.5l96 -29q-11 -19 -30 -39t-43 -38t-50.5 -33t-51.5 -25z" />
<glyph unicode="&#xb5;" d="M-30 -174l146 689h109l-66 -308q-2 -12 -4 -23.5t-2 -22.5q0 -61 56 -75q20 -5 42 0q53 6 88.5 49.5t49.5 109.5l57 270h109l-83 -386q-2 -8 -3 -15t-1 -12q0 -27 30 -27q15 0 27 10l-4 -81q-11 -5 -26 -9t-32 -4q-26 0 -46 12t-25 36q-17 10 -21 29q-24 -33 -62.5 -56.5 t-90.5 -23.5q-32 0 -55.5 12t-39.5 32l-44 -206h-109z" />
<glyph unicode="&#xb6;" horiz-adv-x="589" d="M363 -91l154 723h-61l-155 -723h-75l80 372h-40q-38 0 -70 13.5t-56 37.5t-37.5 58t-13.5 75q0 54 20 97t53.5 74t78 47.5t93.5 16.5h248l-169 -791h-50z" />
<glyph unicode="&#xb7;" horiz-adv-x="270" d="M62 305q0 30 22 52t53 22q30 0 52 -22t22 -52q0 -31 -22 -53t-52 -22q-31 0 -53 22t-22 53z" />
<glyph unicode="&#xb8;" horiz-adv-x="317" d="M-9 -77q11 -14 28.5 -23t35.5 -9q20 0 34 12.5t14 36.5q0 40 -43 85h43q29 -18 53 -46t24 -64q0 -21 -8.5 -37t-23.5 -27t-34 -16.5t-40 -5.5q-36 0 -66.5 15.5t-50.5 41.5z" />
<glyph unicode="&#xb9;" horiz-adv-x="331" d="M51 334l15 70h101l55 262q-16 -6 -46 -14t-59 -12l-5 64q102 15 152 55h63l-75 -355h95l-16 -70h-280z" />
<glyph unicode="&#xba;" horiz-adv-x="430" d="M437 546q0 -40 -13.5 -75t-37.5 -60.5t-58 -40.5t-76 -15q-38 0 -68 12t-51 33.5t-32 52t-11 66.5q0 40 13.5 74.5t37.5 60t58.5 40t76.5 14.5q75 0 118 -45t43 -117zM351 549q0 38 -18.5 63.5t-56.5 25.5q-24 0 -42 -10.5t-31 -28t-19.5 -39.5t-6.5 -44q0 -38 18.5 -64 t56.5 -26q24 0 42 10.5t31 28t19.5 39.5t6.5 45z" />
<glyph unicode="&#xbb;" horiz-adv-x="486" d="M440 241l-171 -194l-53 49l140 177l-86 169l67 35l111 -197zM244 241l-189 -194l-50 52l156 174l-81 169l66 35l106 -197z" />
<glyph unicode="&#xbc;" horiz-adv-x="980" d="M75 275l15 70h101l55 262q-17 -6 -46.5 -14t-58.5 -12l-6 64q102 15 152 55h64l-76 -355h95l-15 -70h-280zM833 91l-20 -91h-84l20 91h-198l13 65q36 34 63.5 71t47 73t29.5 68.5t11 56.5h87q0 -23 -11.5 -56.5t-31.5 -70t-46.5 -72.5t-57.5 -64h110q4 15 9 32t10 34.5 t9 33.5t7 29h75l-27 -129h56l-15 -71h-56zM273 0h-86l554 700h86z" />
<glyph unicode="&#xbd;" horiz-adv-x="980" d="M69 275l15 70h100l56 262q-17 -6 -46.5 -14t-58.5 -12l-6 64q102 15 152 55h64l-76 -355h95l-15 -70h-280zM561 0l14 62q69 49 115.5 84t75 61.5t40.5 48t12 42.5q0 31 -19.5 45.5t-45.5 14.5q-24 0 -46 -13t-40 -43l-64 38q30 45 70 69t91 24q64 0 104 -35.5t40 -93.5 q0 -60 -48.5 -113t-149.5 -114h177l-17 -77h-309zM266 0h-85l554 700h86z" />
<glyph unicode="&#xbe;" horiz-adv-x="980" d="M319 401q0 28 -20 43t-54 15h-29l14 68h48q28 0 45.5 15t17.5 39q0 26 -19 40t-48 14t-51 -12t-38 -31l-58 45q26 31 64.5 50.5t89.5 19.5q30 0 57 -8.5t47 -23.5t31.5 -36.5t11.5 -47.5q0 -39 -24.5 -64.5t-59.5 -35.5q25 -11 42.5 -36.5t17.5 -60.5q0 -27 -11.5 -50 t-33 -40.5t-51 -27t-65.5 -9.5q-62 0 -106 27t-65 75l73 33q14 -32 39.5 -47t57.5 -15q35 0 56 17t21 44zM836 91l-19 -91h-85l20 91h-198l14 65q35 34 62.5 71t47 73t29.5 68.5t11 56.5h87q0 -23 -11.5 -56.5t-31.5 -70t-46.5 -72.5t-57.5 -64h110q4 15 9 32t10 34.5 t9.5 33.5t7.5 29h74l-27 -129h57l-15 -71h-57zM276 0h-86l554 700h87z" />
<glyph unicode="&#xbf;" horiz-adv-x="565" d="M260 229q3 17 7.5 38t7.5 38h107l-34 -167q-14 2 -25.5 3.5t-21.5 1.5q-34 0 -63.5 -10t-51.5 -27.5t-34.5 -42.5t-12.5 -55q0 -42 27.5 -67t80.5 -25q77 0 148 62l56 -73q-50 -43 -106 -66t-119 -23q-43 0 -81 12.5t-66 36.5t-44 58t-16 77q0 48 18.5 88t51 70t76.5 48 t95 23zM284 391l26 124h120l-26 -124h-120z" />
<glyph unicode="&#xc0;" horiz-adv-x="682" d="M497 0l-28 184h-289l-107 -184h-130l419 700h136l120 -700h-121zM413 597l-181 -316h225zM461 745q-22 12 -45 29.5t-43.5 37t-36.5 40t-24 39.5l99 18q15 -31 41.5 -68t51.5 -65z" />
<glyph unicode="&#xc1;" horiz-adv-x="682" d="M497 0l-28 184h-289l-107 -184h-130l419 700h136l120 -700h-121zM413 597l-181 -316h225zM399 777q31 31 61.5 67.5t50.5 64.5l96 -29q-11 -19 -30 -39t-43 -38t-50.5 -33t-51.5 -25z" />
<glyph unicode="&#xc2;" horiz-adv-x="682" d="M497 0l-28 184h-289l-107 -184h-130l419 700h136l120 -700h-121zM413 597l-181 -316h225zM515 904q14 -22 41.5 -55.5t61.5 -58.5l-31 -41q-38 14 -72.5 37.5t-52.5 43.5q-10 -10 -27.5 -21t-39 -22t-46 -21t-48.5 -17l-22 45q38 23 77 51.5t75 58.5h84z" />
<glyph unicode="&#xc3;" horiz-adv-x="682" d="M497 0l-28 184h-289l-107 -184h-130l419 700h136l120 -700h-121zM413 597l-181 -316h225zM634 854q-19 -39 -49 -65t-68 -26q-18 0 -37 6t-37 13.5t-35 14t-33 6.5q-17 0 -36.5 -10.5t-36.5 -31.5l-41 30q18 40 48.5 66.5t68.5 26.5q18 0 37 -6.5t37 -14t35 -14t33 -6.5 q17 0 36 10t36 33z" />
<glyph unicode="&#xc4;" horiz-adv-x="682" d="M497 0l-28 184h-289l-107 -184h-130l419 700h136l120 -700h-121zM413 597l-181 -316h225zM287 760l19 93h91l-20 -93h-90zM497 760l20 93h91l-21 -93h-90z" />
<glyph unicode="&#xc5;" horiz-adv-x="682" d="M410 597l-180 -316h225zM490 760q0 23 -15 40.5t-39 17.5q-26 0 -42.5 -18.5t-16.5 -44.5q0 -23 15.5 -39t39.5 -16q25 0 41.5 17.5t16.5 42.5zM548 760q0 -28 -13.5 -50t-35.5 -35l117 -675h-122l-28 184h-289l-106 -184h-131l410 685q-14 13 -22.5 31.5t-8.5 39.5 q0 23 9 43.5t25 35.5t37.5 24t45.5 9t44.5 -8.5t35.5 -23.5t23.5 -34.5t8.5 -41.5z" />
<glyph unicode="&#xc6;" horiz-adv-x="949" d="M380 0l39 184h-237l-130 -184h-128l500 700h558l-23 -104h-336l-38 -179h278l-20 -97h-279l-46 -216h338l-23 -104h-453zM508 603h-35l-224 -322h191z" />
<glyph unicode="&#xc7;" horiz-adv-x="700" d="M180 -81q11 -14 30.5 -24t38.5 -10q21 0 35.5 13t14.5 38q0 29 -22 64q-52 14 -93 43.5t-69 71.5t-42.5 93.5t-14.5 110.5q0 81 28 153t78.5 125.5t119.5 84.5t150 31q51 0 94 -12.5t77.5 -34.5t60.5 -51t43 -63l-99 -52q-23 49 -67.5 79t-110.5 30q-57 0 -104 -23 t-80.5 -63t-51.5 -92.5t-18 -112.5q0 -50 13 -91.5t38 -71.5t61 -47t83 -17q61 0 107 26.5t77 70.5l84 -65q-49 -64 -117.5 -100t-154.5 -36h-13.5t-12.5 2q15 -17 24.5 -36.5t9.5 -41.5q0 -21 -9 -38t-24 -28.5t-35 -17.5t-42 -6q-37 0 -69 16t-53 44z" />
<glyph unicode="&#xc8;" horiz-adv-x="647" d="M24 0l149 700h507l-23 -104h-391l-39 -179h332l-20 -97h-332l-46 -216h391l-22 -104h-506zM435 745q-22 12 -45 29.5t-43.5 37t-36.5 40t-24 39.5l99 18q15 -31 41.5 -68t51.5 -65z" />
<glyph unicode="&#xc9;" horiz-adv-x="647" d="M24 0l149 700h507l-23 -104h-391l-39 -179h332l-20 -97h-332l-46 -216h391l-22 -104h-506zM375 777q31 31 61.5 67.5t50.5 64.5l96 -29q-11 -19 -30 -39t-43 -38t-50.5 -33t-51.5 -25z" />
<glyph unicode="&#xca;" horiz-adv-x="647" d="M24 0l149 700h507l-23 -104h-391l-39 -179h332l-20 -97h-332l-46 -216h391l-22 -104h-506zM510 904q14 -22 41.5 -55.5t61.5 -58.5l-31 -41q-38 14 -72.5 37.5t-52.5 43.5q-10 -10 -27.5 -21t-39 -22t-46 -21t-48.5 -17l-22 45q38 23 77 51.5t75 58.5h84z" />
<glyph unicode="&#xcb;" horiz-adv-x="647" d="M24 0l149 700h507l-23 -104h-391l-39 -179h332l-20 -97h-332l-46 -216h391l-22 -104h-506zM285 760l19 93h91l-20 -93h-90zM495 760l20 93h91l-21 -93h-90z" />
<glyph unicode="&#xcc;" horiz-adv-x="292" d="M24 0l149 700h114l-148 -700h-115zM268 745q-22 12 -45 29.5t-43.5 37t-36.5 40t-24 39.5l99 18q15 -31 41.5 -68t51.5 -65z" />
<glyph unicode="&#xcd;" horiz-adv-x="292" d="M24 0l149 700h114l-148 -700h-115zM188 777q31 31 61.5 67.5t50.5 64.5l96 -29q-11 -19 -30 -39t-43 -38t-50.5 -33t-51.5 -25z" />
<glyph unicode="&#xce;" horiz-adv-x="292" d="M24 0l149 700h114l-148 -700h-115zM310 900q14 -22 41.5 -55.5t61.5 -58.5l-31 -41q-38 14 -72.5 37.5t-52.5 43.5q-10 -10 -27.5 -21t-39 -22t-46 -21t-48.5 -17l-22 45q38 23 77 51.5t75 58.5h84z" />
<glyph unicode="&#xcf;" horiz-adv-x="292" d="M24 0l149 700h114l-148 -700h-115zM95 760l19 93h91l-20 -93h-90zM305 760l20 93h91l-21 -93h-90z" />
<glyph unicode="&#xd0;" horiz-adv-x="790" d="M61 0l66 312h-109l19 93h109l64 295h226q79 0 138.5 -24.5t99 -66.5t59.5 -98.5t20 -120.5q0 -80 -26 -151t-74.5 -124t-119 -84t-159.5 -31h-313zM382 104q60 0 107 22.5t79 61t48.5 90t16.5 109.5q0 46 -11.5 84.5t-36 66t-62 43t-89.5 15.5h-130l-42 -191h180l-19 -93 h-180l-45 -208h184z" />
<glyph unicode="&#xd1;" horiz-adv-x="756" d="M474 0l-223 552l-117 -552h-110l149 700h134l220 -539l114 539h110l-148 -700h-129zM673 854q-19 -39 -49 -65t-68 -26q-18 0 -37 6t-37 13.5t-35 14t-33 6.5q-17 0 -36.5 -10.5t-36.5 -31.5l-41 30q18 40 48.5 66.5t68.5 26.5q18 0 37 -6.5t37 -14t35 -14t33 -6.5 q17 0 36 10t36 33z" />
<glyph unicode="&#xd2;" horiz-adv-x="784" d="M746 380q0 -81 -28 -153t-78 -125t-119 -84t-150 -31q-75 0 -133.5 26t-99 71t-61.5 105.5t-21 130.5q0 81 28 153t77.5 125t118.5 84t150 31q75 0 133.5 -25.5t99 -70.5t62 -106t21.5 -131zM625 383q0 49 -12.5 90.5t-37 71.5t-61.5 46.5t-85 16.5q-57 0 -103.5 -23 t-79.5 -62.5t-51 -93t-18 -113.5q0 -49 12.5 -90t37 -71t61 -46.5t84.5 -16.5q57 0 103.5 23t79.5 62.5t51.5 92.5t18.5 113zM471 745q-22 12 -45 29.5t-43.5 37t-36.5 40t-24 39.5l99 18q15 -31 41.5 -68t51.5 -65z" />
<glyph unicode="&#xd3;" horiz-adv-x="784" d="M746 380q0 -81 -28 -153t-78 -125t-119 -84t-150 -31q-75 0 -133.5 26t-99 71t-61.5 105.5t-21 130.5q0 81 28 153t77.5 125t118.5 84t150 31q75 0 133.5 -25.5t99 -70.5t62 -106t21.5 -131zM625 383q0 49 -12.5 90.5t-37 71.5t-61.5 46.5t-85 16.5q-57 0 -103.5 -23 t-79.5 -62.5t-51 -93t-18 -113.5q0 -49 12.5 -90t37 -71t61 -46.5t84.5 -16.5q57 0 103.5 23t79.5 62.5t51.5 92.5t18.5 113zM410 777q31 31 61.5 67.5t50.5 64.5l96 -29q-11 -19 -30 -39t-43 -38t-50.5 -33t-51.5 -25z" />
<glyph unicode="&#xd4;" horiz-adv-x="784" d="M746 380q0 -81 -28 -153t-78 -125t-119 -84t-150 -31q-75 0 -133.5 26t-99 71t-61.5 105.5t-21 130.5q0 81 28 153t77.5 125t118.5 84t150 31q75 0 133.5 -25.5t99 -70.5t62 -106t21.5 -131zM625 383q0 49 -12.5 90.5t-37 71.5t-61.5 46.5t-85 16.5q-57 0 -103.5 -23 t-79.5 -62.5t-51 -93t-18 -113.5q0 -49 12.5 -90t37 -71t61 -46.5t84.5 -16.5q57 0 103.5 23t79.5 62.5t51.5 92.5t18.5 113zM524 904q14 -22 41.5 -55.5t61.5 -58.5l-31 -41q-38 14 -72.5 37.5t-52.5 43.5q-10 -10 -27.5 -21t-39 -22t-46 -21t-48.5 -17l-22 45 q38 23 77 51.5t75 58.5h84z" />
<glyph unicode="&#xd5;" horiz-adv-x="784" d="M746 380q0 -81 -28 -153t-78 -125t-119 -84t-150 -31q-75 0 -133.5 26t-99 71t-61.5 105.5t-21 130.5q0 81 28 153t77.5 125t118.5 84t150 31q75 0 133.5 -25.5t99 -70.5t62 -106t21.5 -131zM625 383q0 49 -12.5 90.5t-37 71.5t-61.5 46.5t-85 16.5q-57 0 -103.5 -23 t-79.5 -62.5t-51 -93t-18 -113.5q0 -49 12.5 -90t37 -71t61 -46.5t84.5 -16.5q57 0 103.5 23t79.5 62.5t51.5 92.5t18.5 113zM653 854q-19 -39 -49 -65t-68 -26q-18 0 -37 6t-37 13.5t-35 14t-33 6.5q-17 0 -36.5 -10.5t-36.5 -31.5l-41 30q18 40 48.5 66.5t68.5 26.5 q18 0 37 -6.5t37 -14t35 -14t33 -6.5q17 0 36 10t36 33z" />
<glyph unicode="&#xd6;" horiz-adv-x="784" d="M746 380q0 -81 -28 -153t-78 -125t-119 -84t-150 -31q-75 0 -133.5 26t-99 71t-61.5 105.5t-21 130.5q0 81 28 153t77.5 125t118.5 84t150 31q75 0 133.5 -25.5t99 -70.5t62 -106t21.5 -131zM625 383q0 49 -12.5 90.5t-37 71.5t-61.5 46.5t-85 16.5q-57 0 -103.5 -23 t-79.5 -62.5t-51 -93t-18 -113.5q0 -49 12.5 -90t37 -71t61 -46.5t84.5 -16.5q57 0 103.5 23t79.5 62.5t51.5 92.5t18.5 113zM298 760l19 93h91l-20 -93h-90zM508 760l20 93h91l-21 -93h-90z" />
<glyph unicode="&#xd7;" d="M35 138l206 173l-133 173l73 57l131 -171l206 172l59 -71l-209 -174l135 -174l-73 -56l-132 171l-204 -171z" />
<glyph unicode="&#xd8;" horiz-adv-x="784" d="M105 25l41 51q-44 46 -66.5 108.5t-22.5 135.5q0 81 28 153t77.5 125t118.5 84t150 31q54 0 99 -13.5t82 -39.5l40 49l45 -35l-40 -51q43 -45 66 -107.5t23 -135.5q0 -81 -28 -153t-77.5 -125t-118.5 -84t-150 -31q-55 0 -101 13.5t-82 39.5l-40 -49zM626 383 q0 91 -43 151l-325 -409q23 -16 51.5 -24.5t63.5 -8.5q57 0 103.5 23t79.5 62.5t51.5 92.5t18.5 113zM177 316q0 -92 42 -149l325 408q-23 15 -51.5 24t-63.5 9q-57 0 -103.5 -23t-79.5 -62.5t-51 -93t-18 -113.5z" />
<glyph unicode="&#xd9;" horiz-adv-x="735" d="M644 250q-27 -126 -110 -194.5t-214 -68.5q-56 0 -102 15t-80 42.5t-52.5 67.5t-18.5 90q0 37 10 81l90 417h115l-92 -428q-3 -16 -5 -29t-2 -24q0 -57 38.5 -91.5t107.5 -34.5q81 0 133 43t71 130l92 434h115zM469 745q-22 12 -45 29.5t-43.5 37t-36.5 40t-24 39.5 l99 18q15 -31 41.5 -68t51.5 -65z" />
<glyph unicode="&#xda;" horiz-adv-x="735" d="M643 250q-27 -126 -110 -194.5t-214 -68.5q-56 0 -102 15t-80 42.5t-52.5 67.5t-18.5 90q0 37 10 81l90 417h115l-92 -428q-3 -16 -5 -29t-2 -24q0 -57 38.5 -91.5t107.5 -34.5q81 0 133 43t71 130l92 434h115zM397 741q31 31 61.5 67.5t50.5 64.5l96 -29 q-11 -19 -30 -39t-43 -38t-50.5 -33t-51.5 -25z" />
<glyph unicode="&#xdb;" horiz-adv-x="735" d="M643 250q-27 -126 -110 -194.5t-214 -68.5q-56 0 -102 15t-80 42.5t-52.5 67.5t-18.5 90q0 37 10 81l90 417h115l-92 -428q-3 -16 -5 -29t-2 -24q0 -57 38.5 -91.5t107.5 -34.5q81 0 133 43t71 130l92 434h115zM527 904q14 -22 41.5 -55.5t61.5 -58.5l-31 -41 q-38 14 -72.5 37.5t-52.5 43.5q-10 -10 -27.5 -21t-39 -22t-46 -21t-48.5 -17l-22 45q38 23 77 51.5t75 58.5h84z" />
<glyph unicode="&#xdc;" horiz-adv-x="735" d="M644 250q-27 -126 -110 -194.5t-214 -68.5q-56 0 -102 15t-80 42.5t-52.5 67.5t-18.5 90q0 37 10 81l90 417h115l-92 -428q-3 -16 -5 -29t-2 -24q0 -57 38.5 -91.5t107.5 -34.5q81 0 133 43t71 130l92 434h115zM318 760l19 93h91l-20 -93h-90zM528 760l20 93h91l-21 -93 h-90z" />
<glyph unicode="&#xdd;" horiz-adv-x="639" d="M369 279l-59 -279h-116l60 283l-180 417h127l128 -313l253 313h140zM356 777q31 31 61.5 67.5t50.5 64.5l96 -29q-11 -19 -30 -39t-43 -38t-50.5 -33t-51.5 -25z" />
<glyph unicode="&#xde;" horiz-adv-x="663" d="M172 155l-33 -155h-115l149 700h114l-21 -101h149q115 0 176.5 -56t61.5 -149q0 -51 -18.5 -95t-54 -76t-87.5 -50t-119 -18h-202zM386 260q75 0 110.5 37.5t35.5 92.5q0 50 -30.5 77t-96.5 27h-161l-50 -234h192z" />
<glyph unicode="&#xdf;" horiz-adv-x="629" d="M375 726q49 0 90 -13.5t71 -38.5t47 -59t17 -76q0 -32 -11 -59.5t-30 -49t-44.5 -37t-54.5 -23.5q45 -20 76 -62.5t31 -104.5q0 -47 -19 -86.5t-53.5 -68t-82 -44.5t-104.5 -16q-70 0 -125 26l32 93q43 -22 95 -22q65 0 104.5 34t39.5 92q0 57 -37.5 89.5t-101.5 32.5 h-37l19 92h69q52 0 86.5 26.5t34.5 77.5q0 26 -9.5 46t-26 33t-38.5 19.5t-46 6.5q-57 0 -90.5 -28.5t-44.5 -82.5l-111 -523h-108l113 537q20 92 82 140.5t167 48.5z" />
<glyph unicode="&#xe0;" horiz-adv-x="669" d="M450 282q0 31 -8 58t-24.5 47t-41 31.5t-57.5 11.5q-41 0 -72.5 -16.5t-53 -44t-32.5 -63t-11 -72.5q0 -30 7.5 -57.5t22.5 -48t39 -32.5t57 -12q42 0 74 17.5t54.5 45.5t34 63.5t11.5 71.5zM531 148q-2 -8 -4 -18t-2 -18q0 -14 8.5 -23t27.5 -9q22 0 37 12l18 -83 q-13 -8 -34.5 -13t-47.5 -5q-21 0 -40.5 5t-34.5 15t-24.5 25t-9.5 35q-34 -42 -78.5 -62.5t-95.5 -20.5t-91.5 18.5t-68 50.5t-42 76.5t-14.5 96.5q0 60 20.5 114t56.5 94.5t86 64.5t109 24q52 0 98.5 -23.5t77.5 -79.5l19 91h108zM353 583q-22 12 -45 29.5t-43.5 37 t-36.5 40t-24 39.5l99 18q15 -31 41.5 -68t51.5 -65z" />
<glyph unicode="&#xe1;" horiz-adv-x="669" d="M450 282q0 31 -8 58t-24.5 47t-41 31.5t-57.5 11.5q-41 0 -72.5 -16.5t-53 -44t-32.5 -63t-11 -72.5q0 -30 7.5 -57.5t22.5 -48t39 -32.5t57 -12q42 0 74 17.5t54.5 45.5t34 63.5t11.5 71.5zM531 148q-2 -8 -4 -18t-2 -18q0 -14 8.5 -23t27.5 -9q22 0 37 12l18 -83 q-13 -8 -34.5 -13t-47.5 -5q-21 0 -40.5 5t-34.5 15t-24.5 25t-9.5 35q-34 -42 -78.5 -62.5t-95.5 -20.5t-91.5 18.5t-68 50.5t-42 76.5t-14.5 96.5q0 60 20.5 114t56.5 94.5t86 64.5t109 24q52 0 98.5 -23.5t77.5 -79.5l19 91h108zM236 615q31 31 61.5 67.5t50.5 64.5 l96 -29q-11 -19 -30 -39t-43 -38t-50.5 -33t-51.5 -25z" />
<glyph unicode="&#xe2;" horiz-adv-x="669" d="M450 282q0 31 -8 58t-24.5 47t-41 31.5t-57.5 11.5q-41 0 -72.5 -16.5t-53 -44t-32.5 -63t-11 -72.5q0 -30 7.5 -57.5t22.5 -48t39 -32.5t57 -12q42 0 74 17.5t54.5 45.5t34 63.5t11.5 71.5zM531 148q-2 -8 -4 -18t-2 -18q0 -14 8.5 -23t27.5 -9q22 0 37 12l18 -83 q-13 -8 -34.5 -13t-47.5 -5q-21 0 -40.5 5t-34.5 15t-24.5 25t-9.5 35q-34 -42 -78.5 -62.5t-95.5 -20.5t-91.5 18.5t-68 50.5t-42 76.5t-14.5 96.5q0 60 20.5 114t56.5 94.5t86 64.5t109 24q52 0 98.5 -23.5t77.5 -79.5l19 91h108zM418 742q14 -22 41.5 -55.5t61.5 -58.5 l-31 -41q-38 14 -72.5 37.5t-52.5 43.5q-10 -10 -27.5 -21t-39 -22t-46 -21t-48.5 -17l-22 45q38 23 77 51.5t75 58.5h84z" />
<glyph unicode="&#xe3;" horiz-adv-x="669" d="M450 282q0 31 -8 58t-24.5 47t-41 31.5t-57.5 11.5q-41 0 -72.5 -16.5t-53 -44t-32.5 -63t-11 -72.5q0 -30 7.5 -57.5t22.5 -48t39 -32.5t57 -12q42 0 74 17.5t54.5 45.5t34 63.5t11.5 71.5zM531 148q-2 -8 -4 -18t-2 -18q0 -14 8.5 -23t27.5 -9q22 0 37 12l18 -83 q-13 -8 -34.5 -13t-47.5 -5q-21 0 -40.5 5t-34.5 15t-24.5 25t-9.5 35q-34 -42 -78.5 -62.5t-95.5 -20.5t-91.5 18.5t-68 50.5t-42 76.5t-14.5 96.5q0 60 20.5 114t56.5 94.5t86 64.5t109 24q52 0 98.5 -23.5t77.5 -79.5l19 91h108zM533 692q-19 -39 -49 -65t-68 -26 q-18 0 -37 6t-37 13.5t-35 14t-33 6.5q-17 0 -36.5 -10.5t-36.5 -31.5l-41 30q18 40 48.5 66.5t68.5 26.5q18 0 37 -6.5t37 -14t35 -14t33 -6.5q17 0 36 10t36 33z" />
<glyph unicode="&#xe4;" horiz-adv-x="669" d="M450 282q0 31 -8 58t-24.5 47t-41 31.5t-57.5 11.5q-41 0 -72.5 -16.5t-53 -44t-32.5 -63t-11 -72.5q0 -30 7.5 -57.5t22.5 -48t39 -32.5t57 -12q42 0 74 17.5t54.5 45.5t34 63.5t11.5 71.5zM531 148q-2 -8 -4 -18t-2 -18q0 -14 8.5 -23t27.5 -9q22 0 37 12l18 -83 q-13 -8 -34.5 -13t-47.5 -5q-21 0 -40.5 5t-34.5 15t-24.5 25t-9.5 35q-34 -42 -78.5 -62.5t-95.5 -20.5t-91.5 18.5t-68 50.5t-42 76.5t-14.5 96.5q0 60 20.5 114t56.5 94.5t86 64.5t109 24q52 0 98.5 -23.5t77.5 -79.5l19 91h108zM209 598l19 93h91l-20 -93h-90zM419 598 l20 93h91l-21 -93h-90z" />
<glyph unicode="&#xe5;" horiz-adv-x="669" d="M450 282q0 31 -8 58t-24.5 47t-41 31.5t-57.5 11.5q-41 0 -72.5 -16.5t-53 -44t-32.5 -63t-11 -72.5q0 -30 7.5 -57.5t22.5 -48t39 -32.5t57 -12q42 0 74 17.5t54.5 45.5t34 63.5t11.5 71.5zM531 148q-2 -8 -4 -18t-2 -18q0 -14 8.5 -23t27.5 -9q22 0 37 12l18 -83 q-13 -8 -34.5 -13t-47.5 -5q-21 0 -40.5 5t-34.5 15t-24.5 25t-9.5 35q-34 -42 -78.5 -62.5t-95.5 -20.5t-91.5 18.5t-68 50.5t-42 76.5t-14.5 96.5q0 60 20.5 114t56.5 94.5t86 64.5t109 24q52 0 98.5 -23.5t77.5 -79.5l19 91h108zM477 680q0 -22 -8.5 -41t-24 -33.5 t-36 -23t-44.5 -8.5q-48 0 -77.5 29.5t-29.5 71.5q0 22 8.5 41.5t24 34t36 23t44.5 8.5t43.5 -8t33.5 -22t22 -32.5t8 -39.5zM420 680q0 22 -14 37.5t-37 15.5q-24 0 -39.5 -17.5t-15.5 -40.5q0 -22 14 -37t37 -15q24 0 39.5 17t15.5 40z" />
<glyph unicode="&#xe6;" horiz-adv-x="1000" d="M748 526q48 0 87 -17t66.5 -45.5t42.5 -67.5t15 -82q0 -26 -4 -46.5t-8 -31.5h-391v-16q0 -63 38.5 -100t104.5 -37q45 0 84 17t68 49l66 -66q-92 -95 -225 -95q-81 0 -135 32t-79 86q-38 -54 -94 -86t-128 -32q-53 0 -94 18.5t-69.5 51t-43 76.5t-14.5 96q0 60 20.5 114 t56.5 94.5t86 64.5t109 24q53 0 99.5 -23.5t76.5 -79.5l19 91h108l-11 -50q23 25 60.5 43t88.5 18zM450 282q0 31 -8 58t-24.5 47t-41 31.5t-57.5 11.5q-41 0 -72.5 -16.5t-53 -44t-32.5 -63t-11 -72.5q0 -30 7.5 -57.5t22.5 -48t39 -32.5t57 -12q42 0 74 17.5t54.5 45.5 t34 63.5t11.5 71.5zM851 312q1 3 1 6.5v6.5q0 53 -36 84t-92 31q-61 0 -102.5 -35.5t-54.5 -92.5h284z" />
<glyph unicode="&#xe7;" horiz-adv-x="546" d="M111 -78q11 -13 28.5 -22t35.5 -9q20 0 34 12.5t14 35.5q0 29 -20 58q-78 21 -122 84t-44 152q0 60 21 113.5t59 93.5t90 63.5t114 23.5q41 0 74.5 -10t59.5 -27t45 -38.5t32 -44.5l-88 -51q-40 75 -121 75q-40 0 -71.5 -16.5t-53.5 -43.5t-34 -63t-12 -75q0 -32 8 -59.5 t24 -47.5t40 -31.5t56 -11.5q42 0 74 19.5t58 53.5l71 -65q-14 -16 -31 -32.5t-39 -30t-49 -23.5t-59 -13q-18 -3 -37 -3q14 -16 23 -35.5t9 -40.5q0 -41 -32 -62.5t-74 -21.5q-36 0 -66.5 15t-50.5 41z" />
<glyph unicode="&#xe8;" horiz-adv-x="596" d="M556 314q0 -27 -5 -49.5t-10 -33.5h-390q0 -4 -0.5 -9t-0.5 -11q0 -59 36.5 -93.5t102.5 -34.5q44 0 81 17t67 48l66 -67q-48 -47 -102.5 -70t-121.5 -23q-60 0 -105.5 18t-77 49.5t-47.5 74.5t-16 94q0 61 21.5 116t60.5 96.5t93.5 66t120.5 24.5q54 0 96 -16.5 t71.5 -45.5t44.5 -68t15 -83zM447 306q1 5 1 17q0 54 -34 82.5t-88 28.5q-61 1 -104 -33.5t-57 -94.5h282zM364 583q-22 12 -45 29.5t-43.5 37t-36.5 40t-24 39.5l99 18q15 -31 41.5 -68t51.5 -65z" />
<glyph unicode="&#xe9;" horiz-adv-x="596" d="M556 314q0 -27 -5 -49.5t-10 -33.5h-390q0 -4 -0.5 -9t-0.5 -11q0 -59 36.5 -93.5t102.5 -34.5q44 0 81 17t67 48l66 -67q-48 -47 -102.5 -70t-121.5 -23q-60 0 -105.5 18t-77 49.5t-47.5 74.5t-16 94q0 61 21.5 116t60.5 96.5t93.5 66t120.5 24.5q54 0 96 -16.5 t71.5 -45.5t44.5 -68t15 -83zM447 306q1 5 1 17q0 54 -34 82.5t-88 28.5q-61 1 -104 -33.5t-57 -94.5h282zM289 615q31 31 61.5 67.5t50.5 64.5l96 -29q-11 -19 -30 -39t-43 -38t-50.5 -33t-51.5 -25z" />
<glyph unicode="&#xea;" horiz-adv-x="596" d="M556 314q0 -27 -5 -49.5t-10 -33.5h-390q0 -4 -0.5 -9t-0.5 -11q0 -59 36.5 -93.5t102.5 -34.5q44 0 81 17t67 48l66 -67q-48 -47 -102.5 -70t-121.5 -23q-60 0 -105.5 18t-77 49.5t-47.5 74.5t-16 94q0 61 21.5 116t60.5 96.5t93.5 66t120.5 24.5q54 0 96 -16.5 t71.5 -45.5t44.5 -68t15 -83zM447 306q1 5 1 17q0 54 -34 82.5t-88 28.5q-61 1 -104 -33.5t-57 -94.5h282zM404 742q14 -22 41.5 -55.5t61.5 -58.5l-31 -41q-38 14 -72.5 37.5t-52.5 43.5q-10 -10 -27.5 -21t-39 -22t-46 -21t-48.5 -17l-22 45q38 23 77 51.5t75 58.5h84z " />
<glyph unicode="&#xeb;" horiz-adv-x="596" d="M556 314q0 -27 -5 -49.5t-10 -33.5h-390q0 -4 -0.5 -9t-0.5 -11q0 -59 36.5 -93.5t102.5 -34.5q44 0 81 17t67 48l66 -67q-48 -47 -102.5 -70t-121.5 -23q-60 0 -105.5 18t-77 49.5t-47.5 74.5t-16 94q0 61 21.5 116t60.5 96.5t93.5 66t120.5 24.5q54 0 96 -16.5 t71.5 -45.5t44.5 -68t15 -83zM447 306q1 5 1 17q0 54 -34 82.5t-88 28.5q-61 1 -104 -33.5t-57 -94.5h282zM192 598l19 93h91l-20 -93h-90zM402 598l20 93h91l-21 -93h-90z" />
<glyph unicode="&#xec;" horiz-adv-x="256" d="M12 0l109 515h109l-109 -515h-109zM218 583q-22 12 -45 29.5t-43.5 37t-36.5 40t-24 39.5l99 18q15 -31 41.5 -68t51.5 -65z" />
<glyph unicode="&#xed;" horiz-adv-x="256" d="M12 0l109 515h109l-109 -515h-109zM151 615q31 31 61.5 67.5t50.5 64.5l96 -29q-11 -19 -30 -39t-43 -38t-50.5 -33t-51.5 -25z" />
<glyph unicode="&#xee;" horiz-adv-x="256" d="M12 0l109 515h109l-109 -515h-109zM261 742q14 -22 41.5 -55.5t61.5 -58.5l-31 -41q-38 14 -72.5 37.5t-52.5 43.5q-10 -10 -27.5 -21t-39 -22t-46 -21t-48.5 -17l-22 45q38 23 77 51.5t75 58.5h84z" />
<glyph unicode="&#xef;" horiz-adv-x="256" d="M12 0l109 515h109l-109 -515h-109zM44 598l19 93h91l-20 -93h-90zM254 598l20 93h91l-21 -93h-90z" />
<glyph unicode="&#xf0;" horiz-adv-x="615" d="M290 496q47 0 88 -16t64 -44q-28 77 -86 137l-119 -53l-20 47l93 43q-35 28 -74 48l76 67q28 -16 53 -34t48 -39l127 56l20 -47l-106 -48q55 -63 84 -140t29 -168q0 -73 -21.5 -131.5t-60 -100t-91.5 -63.5t-115 -22q-57 0 -102 18.5t-77 50.5t-49 76.5t-17 96.5 q0 56 19.5 104.5t54 84.5t81.5 56.5t101 20.5zM450 262q0 30 -8.5 56t-25.5 46t-43 31.5t-61 11.5q-41 0 -71 -15.5t-50.5 -40.5t-30.5 -57t-10 -66q0 -60 33.5 -101t101.5 -41q40 0 71 14.5t52 39t31.5 56.5t10.5 66z" />
<glyph unicode="&#xf1;" horiz-adv-x="597" d="M215 445q75 82 175 82q37 0 65.5 -12t47.5 -32.5t29 -47.5t10 -57q0 -14 -2.5 -29.5t-5.5 -29.5l-68 -319h-109l65 303l4 24t2 21q0 37 -21.5 59t-65.5 22q-29 0 -55 -10.5t-47 -29.5t-36 -46t-22 -59l-60 -284h-109l109 515h109zM574 692q-19 -39 -49 -65t-68 -26 q-18 0 -37 6t-37 13.5t-35 14t-33 6.5q-17 0 -36.5 -10.5t-36.5 -31.5l-41 30q18 40 48.5 66.5t68.5 26.5q18 0 37 -6.5t37 -14t35 -14t33 -6.5q17 0 36 10t36 33z" />
<glyph unicode="&#xf2;" horiz-adv-x="611" d="M376 583q-22 12 -45 29.5t-43.5 37t-36.5 40t-24 39.5l99 18q15 -31 41.5 -68t51.5 -65zM565 284q0 -62 -21 -115.5t-59 -94t-91.5 -63.5t-117.5 -23q-57 0 -101.5 18t-75 50t-47 76.5t-16.5 97.5q0 62 21 116t59 94.5t91 63.5t118 23q57 0 101.5 -18t75 -50t47 -76.5 t16.5 -98.5zM450 287q0 30 -8 56.5t-23.5 46t-39.5 31t-55 11.5q-40 0 -71.5 -17t-54 -45.5t-34.5 -65t-12 -74.5q0 -31 7.5 -58t23 -46.5t39.5 -31t56 -11.5q40 0 71.5 17.5t54 46t34.5 65t12 75.5z" />
<glyph unicode="&#xf3;" horiz-adv-x="611" d="M299 615q31 31 61.5 67.5t50.5 64.5l96 -29q-11 -19 -30 -39t-43 -38t-50.5 -33t-51.5 -25zM565 284q0 -62 -21 -115.5t-59 -94t-91.5 -63.5t-117.5 -23q-57 0 -101.5 18t-75 50t-47 76.5t-16.5 97.5q0 62 21 116t59 94.5t91 63.5t118 23q57 0 101.5 -18t75 -50t47 -76.5 t16.5 -98.5zM450 287q0 30 -8 56.5t-23.5 46t-39.5 31t-55 11.5q-40 0 -71.5 -17t-54 -45.5t-34.5 -65t-12 -74.5q0 -31 7.5 -58t23 -46.5t39.5 -31t56 -11.5q40 0 71.5 17.5t54 46t34.5 65t12 75.5z" />
<glyph unicode="&#xf4;" horiz-adv-x="611" d="M414 742q14 -22 41.5 -55.5t61.5 -58.5l-31 -41q-38 14 -72.5 37.5t-52.5 43.5q-10 -10 -27.5 -21t-39 -22t-46 -21t-48.5 -17l-22 45q38 23 77 51.5t75 58.5h84zM565 284q0 -62 -21 -115.5t-59 -94t-91.5 -63.5t-117.5 -23q-57 0 -101.5 18t-75 50t-47 76.5t-16.5 97.5 q0 62 21 116t59 94.5t91 63.5t118 23q57 0 101.5 -18t75 -50t47 -76.5t16.5 -98.5zM450 287q0 30 -8 56.5t-23.5 46t-39.5 31t-55 11.5q-40 0 -71.5 -17t-54 -45.5t-34.5 -65t-12 -74.5q0 -31 7.5 -58t23 -46.5t39.5 -31t56 -11.5q40 0 71.5 17.5t54 46t34.5 65t12 75.5z " />
<glyph unicode="&#xf5;" horiz-adv-x="611" d="M548 692q-19 -39 -49 -65t-68 -26q-18 0 -37 6t-37 13.5t-35 14t-33 6.5q-17 0 -36.5 -10.5t-36.5 -31.5l-41 30q18 40 48.5 66.5t68.5 26.5q18 0 37 -6.5t37 -14t35 -14t33 -6.5q17 0 36 10t36 33zM565 284q0 -62 -21 -115.5t-59 -94t-91.5 -63.5t-117.5 -23 q-57 0 -101.5 18t-75 50t-47 76.5t-16.5 97.5q0 62 21 116t59 94.5t91 63.5t118 23q57 0 101.5 -18t75 -50t47 -76.5t16.5 -98.5zM450 287q0 30 -8 56.5t-23.5 46t-39.5 31t-55 11.5q-40 0 -71.5 -17t-54 -45.5t-34.5 -65t-12 -74.5q0 -31 7.5 -58t23 -46.5t39.5 -31 t56 -11.5q40 0 71.5 17.5t54 46t34.5 65t12 75.5z" />
<glyph unicode="&#xf6;" horiz-adv-x="611" d="M194 598l19 93h91l-20 -93h-90zM404 598l20 93h91l-21 -93h-90zM565 284q0 -62 -21 -115.5t-59 -94t-91.5 -63.5t-117.5 -23q-57 0 -101.5 18t-75 50t-47 76.5t-16.5 97.5q0 62 21 116t59 94.5t91 63.5t118 23q57 0 101.5 -18t75 -50t47 -76.5t16.5 -98.5zM450 287 q0 30 -8 56.5t-23.5 46t-39.5 31t-55 11.5q-40 0 -71.5 -17t-54 -45.5t-34.5 -65t-12 -74.5q0 -31 7.5 -58t23 -46.5t39.5 -31t56 -11.5q40 0 71.5 17.5t54 46t34.5 65t12 75.5z" />
<glyph unicode="&#xf7;" d="M54 258l19 92h482l-20 -92h-481zM274 496q0 29 21 50t50 21t49.5 -21t20.5 -50t-20.5 -50t-49.5 -21t-50 21t-21 50zM193 112q0 29 21 50t50 21t49.5 -21t20.5 -50t-20.5 -49.5t-49.5 -20.5t-50 20.5t-21 49.5z" />
<glyph unicode="&#xf8;" horiz-adv-x="613" d="M77 25l25 31q-65 67 -65 179q0 61 20.5 114.5t57.5 93t89 62t116 22.5q41 0 74.5 -9t62.5 -26l26 32l41 -33l-26 -32q32 -33 49 -78.5t17 -101.5q0 -61 -20.5 -114t-57.5 -92.5t-89 -62t-116 -22.5q-81 0 -137 35l-26 -32zM450 284q0 50 -23 87l-219 -269 q14 -9 32.5 -14.5t40.5 -5.5q39 0 70.5 17t53 45.5t33.5 64.5t12 75zM151 232q0 -50 22 -88l220 268q-31 20 -72 20q-40 0 -71.5 -17t-53.5 -45t-33.5 -64t-11.5 -74z" />
<glyph unicode="&#xf9;" horiz-adv-x="597" d="M367 71q-37 -42 -81.5 -62.5t-92.5 -20.5q-38 0 -66.5 12t-47.5 32.5t-29 47.5t-10 57q0 14 2.5 30t5.5 30l68 318h109l-64 -303q-3 -12 -5 -23.5t-2 -21.5q0 -37 21.5 -58.5t65.5 -21.5q28 0 54.5 10.5t47.5 29.5t36.5 45.5t22.5 59.5l59 283h109l-109 -515h-109z M364 583q-22 12 -45 29.5t-43.5 37t-36.5 40t-24 39.5l99 18q15 -31 41.5 -68t51.5 -65z" />
<glyph unicode="&#xfa;" horiz-adv-x="597" d="M367 71q-37 -42 -81.5 -62.5t-92.5 -20.5q-38 0 -66.5 12t-47.5 32.5t-29 47.5t-10 57q0 14 2.5 30t5.5 30l68 318h109l-64 -303q-3 -12 -5 -23.5t-2 -21.5q0 -37 21.5 -58.5t65.5 -21.5q28 0 54.5 10.5t47.5 29.5t36.5 45.5t22.5 59.5l59 283h109l-109 -515h-109z M312 615q31 31 61.5 67.5t50.5 64.5l96 -29q-11 -19 -30 -39t-43 -38t-50.5 -33t-51.5 -25z" />
<glyph unicode="&#xfb;" horiz-adv-x="597" d="M367 71q-37 -42 -81.5 -62.5t-92.5 -20.5q-38 0 -66.5 12t-47.5 32.5t-29 47.5t-10 57q0 14 2.5 30t5.5 30l68 318h109l-64 -303q-3 -12 -5 -23.5t-2 -21.5q0 -37 21.5 -58.5t65.5 -21.5q28 0 54.5 10.5t47.5 29.5t36.5 45.5t22.5 59.5l59 283h109l-109 -515h-109z M430 742q14 -22 41.5 -55.5t61.5 -58.5l-31 -41q-38 14 -72.5 37.5t-52.5 43.5q-10 -10 -27.5 -21t-39 -22t-46 -21t-48.5 -17l-22 45q38 23 77 51.5t75 58.5h84z" />
<glyph unicode="&#xfc;" horiz-adv-x="597" d="M367 71q-37 -42 -81.5 -62.5t-92.5 -20.5q-38 0 -66.5 12t-47.5 32.5t-29 47.5t-10 57q0 14 2.5 30t5.5 30l68 318h109l-64 -303q-3 -12 -5 -23.5t-2 -21.5q0 -37 21.5 -58.5t65.5 -21.5q28 0 54.5 10.5t47.5 29.5t36.5 45.5t22.5 59.5l59 283h109l-109 -515h-109z M215 598l19 93h91l-20 -93h-90zM425 598l20 93h91l-21 -93h-90z" />
<glyph unicode="&#xfd;" horiz-adv-x="598" d="M377 108q-32 -40 -78.5 -60t-95.5 -20q-38 0 -66 12t-47.5 32.5t-29 47.5t-9.5 57q0 14 2 29.5t5 29.5l59 279h109l-57 -264q-2 -12 -4 -23.5t-2 -21.5q0 -37 21.5 -58.5t66.5 -21.5q66 0 107 45.5t58 120.5l48 223h107l-88 -414q-14 -65 -35 -117.5t-55.5 -89.5 t-85 -57.5t-121.5 -20.5q-62 0 -114.5 19t-84.5 51l64 77q26 -26 63.5 -39.5t76.5 -13.5q64 0 111 33.5t64 113.5zM316 615q31 31 61.5 67.5t50.5 64.5l96 -29q-11 -19 -30 -39t-43 -38t-50.5 -33t-51.5 -25z" />
<glyph unicode="&#xfe;" horiz-adv-x="638" d="M85 -174h-109l188 888h109l-54 -255q32 37 73.5 57.5t90.5 20.5q47 0 85.5 -18.5t65.5 -51t42 -77t15 -96.5q0 -62 -21 -117.5t-57.5 -97.5t-87 -66.5t-109.5 -24.5q-52 0 -98.5 23t-76.5 79zM174 232q0 -31 8 -57.5t24.5 -46.5t40.5 -31.5t57 -11.5q41 0 73 17.5 t53.5 46t33 65.5t11.5 76q0 30 -7.5 57.5t-22.5 48t-39 32.5t-57 12q-41 0 -73.5 -18t-55 -47.5t-34.5 -67t-12 -75.5z" />
<glyph unicode="&#xff;" horiz-adv-x="598" d="M377 108q-32 -40 -78.5 -60t-95.5 -20q-38 0 -66 12t-47.5 32.5t-29 47.5t-9.5 57q0 14 2 29.5t5 29.5l59 279h109l-57 -264q-2 -12 -4 -23.5t-2 -21.5q0 -37 21.5 -58.5t66.5 -21.5q66 0 107 45.5t58 120.5l48 223h107l-88 -414q-14 -65 -35 -117.5t-55.5 -89.5 t-85 -57.5t-121.5 -20.5q-62 0 -114.5 19t-84.5 51l64 77q26 -26 63.5 -39.5t76.5 -13.5q64 0 111 33.5t64 113.5zM209 598l19 93h91l-20 -93h-90zM419 598l20 93h91l-21 -93h-90z" />
<glyph unicode="&#x100;" horiz-adv-x="682" d="M497 0l-28 184h-289l-107 -184h-130l419 700h136l120 -700h-121zM413 597l-181 -316h225zM282 777l14 67h309l-14 -67h-309z" />
<glyph unicode="&#x101;" horiz-adv-x="669" d="M450 282q0 31 -8 58t-24.5 47t-41 31.5t-57.5 11.5q-41 0 -72.5 -16.5t-53 -44t-32.5 -63t-11 -72.5q0 -30 7.5 -57.5t22.5 -48t39 -32.5t57 -12q42 0 74 17.5t54.5 45.5t34 63.5t11.5 71.5zM531 148q-2 -8 -4 -18t-2 -18q0 -14 8.5 -23t27.5 -9q22 0 37 12l18 -83 q-13 -8 -34.5 -13t-47.5 -5q-21 0 -40.5 5t-34.5 15t-24.5 25t-9.5 35q-34 -42 -78.5 -62.5t-95.5 -20.5t-91.5 18.5t-68 50.5t-42 76.5t-14.5 96.5q0 60 20.5 114t56.5 94.5t86 64.5t109 24q52 0 98.5 -23.5t77.5 -79.5l19 91h108zM211 615l14 67h309l-14 -67h-309z" />
<glyph unicode="&#x102;" horiz-adv-x="682" d="M497 0l-28 184h-289l-107 -184h-130l419 700h136l120 -700h-121zM413 597l-181 -316h225zM440 756q-66 0 -107 30t-45 81q-1 5 -0.5 8.5t0.5 8.5l60 15q3 -30 27 -49.5t66 -19.5q51 0 83.5 20.5t46.5 49.5l59 -21q-8 -25 -24.5 -47.5t-40.5 -39t-56 -26.5t-69 -10z" />
<glyph unicode="&#x103;" horiz-adv-x="669" d="M450 282q0 31 -8 58t-24.5 47t-41 31.5t-57.5 11.5q-41 0 -72.5 -16.5t-53 -44t-32.5 -63t-11 -72.5q0 -30 7.5 -57.5t22.5 -48t39 -32.5t57 -12q42 0 74 17.5t54.5 45.5t34 63.5t11.5 71.5zM531 148q-2 -8 -4 -18t-2 -18q0 -14 8.5 -23t27.5 -9q22 0 37 12l18 -83 q-13 -8 -34.5 -13t-47.5 -5q-21 0 -40.5 5t-34.5 15t-24.5 25t-9.5 35q-34 -42 -78.5 -62.5t-95.5 -20.5t-91.5 18.5t-68 50.5t-42 76.5t-14.5 96.5q0 60 20.5 114t56.5 94.5t86 64.5t109 24q52 0 98.5 -23.5t77.5 -79.5l19 91h108zM349 594q-66 0 -107 30t-45 81 q-1 5 -0.5 8.5t0.5 8.5l60 15q3 -30 27 -49.5t66 -19.5q51 0 83.5 20.5t46.5 49.5l59 -21q-8 -25 -24.5 -47.5t-40.5 -39t-56 -26.5t-69 -10z" />
<glyph unicode="&#x104;" horiz-adv-x="682" d="M618 -150q-15 -12 -39 -23t-56 -11q-19 0 -37.5 4.5t-33 14.5t-23.5 25t-9 35q0 35 24 61t53 44l-28 184h-289l-107 -184h-130l419 700h136l120 -700q-21 -2 -41 -10t-35.5 -20t-25 -26.5t-9.5 -29.5q0 -20 14.5 -29t33.5 -9q17 0 31.5 6.5t23.5 15.5zM413 597l-181 -316 h225z" />
<glyph unicode="&#x105;" horiz-adv-x="667" d="M472 3q-20 9 -32.5 28.5t-14.5 39.5q-34 -42 -78.5 -62.5t-95.5 -20.5t-91.5 18.5t-68 50.5t-42 76.5t-14.5 96.5q0 60 20.5 114t56.5 94.5t86 64.5t109 24q53 0 99 -23.5t77 -79.5l19 91h108l-69 -319q-5 -20 -10.5 -43t-5.5 -41q0 -14 8.5 -23t27.5 -9q22 0 37 12 l18 -83q-21 -10 -44.5 -14.5t-43.5 -4.5q-21 -14 -36.5 -33t-15.5 -38t14 -28t31 -9t29 6.5t20 12.5l24 -35q-14 -14 -39.5 -28t-63.5 -14q-18 0 -35.5 4.5t-31.5 13.5t-22.5 23t-8.5 34q0 32 22.5 59t56.5 45zM450 282q0 31 -8 58t-24.5 47t-41 31.5t-57.5 11.5 q-41 0 -72.5 -16.5t-53 -44t-32.5 -63t-11 -72.5q0 -30 7.5 -57.5t22.5 -48t39 -32.5t57 -12q42 0 74 17.5t54.5 45.5t34 63.5t11.5 71.5z" />
<glyph unicode="&#x106;" horiz-adv-x="700" d="M611 499q-24 49 -68.5 79.5t-110.5 30.5q-58 0 -105 -23t-80.5 -63t-51.5 -92.5t-18 -112.5q0 -50 13 -91.5t38 -71.5t61 -47t83 -17q61 0 107 26.5t77 70.5l84 -65q-50 -64 -118 -100t-155 -36q-73 0 -130.5 25.5t-97.5 70.5t-61 105.5t-21 130.5q0 81 28 153 t78.5 125.5t119.5 84.5t150 31q51 0 94 -12.5t77 -34t60 -50t43 -60.5zM406 777q31 31 61.5 67.5t50.5 64.5l96 -29q-11 -19 -30 -39t-43 -38t-50.5 -33t-51.5 -25z" />
<glyph unicode="&#x107;" horiz-adv-x="544" d="M482 91q-15 -18 -34.5 -36t-45.5 -33t-58.5 -24.5t-72.5 -9.5q-54 0 -97.5 18.5t-74 51t-47 77.5t-16.5 98q0 60 21 113.5t59 93.5t90 63.5t114 23.5q41 0 74.5 -10t59.5 -27t45 -38.5t32 -44.5l-88 -52q-39 76 -121 76q-40 0 -71.5 -16t-53.5 -43.5t-34 -63.5t-12 -75 q0 -32 8 -59.5t24 -47.5t40 -31.5t56 -11.5q42 0 74 19.5t58 53.5zM286 615q25 28 51.5 64.5t43.5 67.5l98 -19q-9 -18 -25 -38t-37 -39.5t-45 -37t-47 -30.5z" />
<glyph unicode="&#x108;" horiz-adv-x="700" d="M611 499q-24 49 -68.5 79.5t-110.5 30.5q-58 0 -105 -23t-80.5 -63t-51.5 -92.5t-18 -112.5q0 -50 13 -91.5t38 -71.5t61 -47t83 -17q61 0 107 26.5t77 70.5l84 -65q-50 -64 -118 -100t-155 -36q-73 0 -130.5 25.5t-97.5 70.5t-61 105.5t-21 130.5q0 81 28 153 t78.5 125.5t119.5 84.5t150 31q51 0 94 -12.5t77 -34t60 -50t43 -60.5zM524 904q14 -22 41.5 -55.5t61.5 -58.5l-31 -41q-38 14 -72.5 37.5t-52.5 43.5q-10 -10 -27.5 -21t-39 -22t-46 -21t-48.5 -17l-22 45q38 23 77 51.5t75 58.5h84z" />
<glyph unicode="&#x109;" horiz-adv-x="544" d="M482 91q-15 -18 -34.5 -36t-45.5 -33t-58.5 -24.5t-72.5 -9.5q-54 0 -97.5 18.5t-74 51t-47 77.5t-16.5 98q0 60 21 113.5t59 93.5t90 63.5t114 23.5q41 0 74.5 -10t59.5 -27t45 -38.5t32 -44.5l-88 -52q-39 76 -121 76q-40 0 -71.5 -16t-53.5 -43.5t-34 -63.5t-12 -75 q0 -32 8 -59.5t24 -47.5t40 -31.5t56 -11.5q42 0 74 19.5t58 53.5zM411 742q14 -22 41.5 -55.5t61.5 -58.5l-31 -41q-38 14 -72.5 37.5t-52.5 43.5q-10 -10 -27.5 -21t-39 -22t-46 -21t-48.5 -17l-22 45q38 23 77 51.5t75 58.5h84z" />
<glyph unicode="&#x10a;" horiz-adv-x="700" d="M611 499q-24 49 -68.5 79.5t-110.5 30.5q-58 0 -105 -23t-80.5 -63t-51.5 -92.5t-18 -112.5q0 -50 13 -91.5t38 -71.5t61 -47t83 -17q61 0 107 26.5t77 70.5l84 -65q-50 -64 -118 -100t-155 -36q-73 0 -130.5 25.5t-97.5 70.5t-61 105.5t-21 130.5q0 81 28 153 t78.5 125.5t119.5 84.5t150 31q51 0 94 -12.5t77 -34t60 -50t43 -60.5zM404 760l20 93h91l-21 -93h-90z" />
<glyph unicode="&#x10b;" horiz-adv-x="544" d="M482 91q-15 -18 -34.5 -36t-45.5 -33t-58.5 -24.5t-72.5 -9.5q-54 0 -97.5 18.5t-74 51t-47 77.5t-16.5 98q0 60 21 113.5t59 93.5t90 63.5t114 23.5q41 0 74.5 -10t59.5 -27t45 -38.5t32 -44.5l-88 -52q-39 76 -121 76q-40 0 -71.5 -16t-53.5 -43.5t-34 -63.5t-12 -75 q0 -32 8 -59.5t24 -47.5t40 -31.5t56 -11.5q42 0 74 19.5t58 53.5zM318 598l20 93h91l-21 -93h-90z" />
<glyph unicode="&#x10c;" horiz-adv-x="700" d="M611 499q-24 49 -68.5 79.5t-110.5 30.5q-58 0 -105 -23t-80.5 -63t-51.5 -92.5t-18 -112.5q0 -50 13 -91.5t38 -71.5t61 -47t83 -17q61 0 107 26.5t77 70.5l84 -65q-50 -64 -118 -100t-155 -36q-73 0 -130.5 25.5t-97.5 70.5t-61 105.5t-21 130.5q0 81 28 153 t78.5 125.5t119.5 84.5t150 31q51 0 94 -12.5t77 -34t60 -50t43 -60.5zM413 751q-14 23 -41 56t-62 59l30 40q40 -14 74 -37.5t52 -43.5q10 10 27.5 21.5t39.5 22.5t46.5 20.5t48.5 16.5l21 -46q-38 -21 -77 -50t-75 -59h-84z" />
<glyph unicode="&#x10d;" horiz-adv-x="544" d="M482 91q-15 -18 -34.5 -36t-45.5 -33t-58.5 -24.5t-72.5 -9.5q-54 0 -97.5 18.5t-74 51t-47 77.5t-16.5 98q0 60 21 113.5t59 93.5t90 63.5t114 23.5q41 0 74.5 -10t59.5 -27t45 -38.5t32 -44.5l-88 -52q-39 76 -121 76q-40 0 -71.5 -16t-53.5 -43.5t-34 -63.5t-12 -75 q0 -32 8 -59.5t24 -47.5t40 -31.5t56 -11.5q42 0 74 19.5t58 53.5zM296 589q-14 23 -41 56t-62 59l30 40q40 -14 74 -37.5t52 -43.5q10 10 27.5 21.5t39.5 22.5t46.5 20.5t48.5 16.5l21 -46q-38 -21 -77 -50t-75 -59h-84z" />
<glyph unicode="&#x10e;" horiz-adv-x="754" d="M344 104q60 0 107 22.5t79.5 61t49 90t16.5 109.5q0 46 -11.5 84.5t-36 66t-62 43t-89.5 15.5h-131l-105 -492h183zM24 0l148 700h227q79 0 138.5 -24.5t99 -66.5t59.5 -98.5t20 -120.5q0 -80 -26 -151t-74.5 -124t-119 -84t-159.5 -31h-313zM391 751q-14 23 -41 56 t-62 59l30 40q40 -14 74 -37.5t52 -43.5q10 10 27.5 21.5t39.5 22.5t46.5 20.5t48.5 16.5l21 -46q-38 -21 -77 -50t-75 -59h-84z" />
<glyph unicode="&#x10f;" horiz-adv-x="715" d="M545 714h109l-152 -714h-109l14 64q-32 -36 -73 -56t-90 -20q-48 0 -86.5 18t-65.5 50t-42 76t-15 95q0 61 20.5 115.5t57 95.5t86.5 65t110 24q51 0 97.5 -22t76.5 -76zM451 287q0 30 -8 56t-24 45.5t-40.5 30.5t-57.5 11q-41 0 -72.5 -17t-53.5 -44.5t-33 -63.5 t-11 -74q0 -30 7.5 -56.5t22.5 -46.5t39 -31.5t57 -11.5q41 0 73.5 17.5t55 46t34 65t11.5 73.5zM836 627q-12 -55 -44 -97.5t-91 -71.5l-23 47q30 20 50.5 48t20.5 60q0 17 -5 31.5t-5 32.5q0 5 1 15t6 22h108z" />
<glyph unicode="&#x110;" horiz-adv-x="790" d="M60 0l66 312h-109l20 93h109l64 295h226q79 0 138 -24.5t98.5 -66.5t59.5 -98.5t20 -120.5q0 -80 -25.5 -151t-74.5 -124t-119 -84t-160 -31h-313zM381 104q61 0 107.5 22.5t78.5 61t48.5 90t16.5 109.5q0 46 -11.5 84.5t-36 66t-62 43t-88.5 15.5h-131l-41 -191h180 l-20 -93h-180l-45 -208h184z" />
<glyph unicode="&#x111;" horiz-adv-x="637" d="M519 599h-128l14 67h129l10 48h109l-10 -48h68l-14 -67h-69l-126 -599h-109l14 66q-32 -37 -72.5 -57.5t-90.5 -20.5q-48 0 -86.5 18.5t-66 50.5t-42 76.5t-14.5 96.5q0 62 20.5 118t57.5 98t87.5 66.5t109.5 24.5q52 0 98.5 -23t76.5 -79zM452 292q0 31 -8 58t-24.5 47 t-40.5 31.5t-57 11.5q-41 0 -73 -17.5t-54 -46t-33 -66t-11 -76.5q0 -30 7.5 -57.5t22.5 -47.5t39 -32t57 -12q41 0 73.5 18t55 47t34.5 66.5t12 75.5z" />
<glyph unicode="&#x112;" horiz-adv-x="647" d="M24 0l149 700h507l-23 -104h-391l-39 -179h332l-20 -97h-332l-46 -216h391l-22 -104h-506zM284 777l14 67h309l-14 -67h-309z" />
<glyph unicode="&#x113;" horiz-adv-x="596" d="M556 314q0 -27 -5 -49.5t-10 -33.5h-390q0 -4 -0.5 -9t-0.5 -11q0 -59 36.5 -93.5t102.5 -34.5q44 0 81 17t67 48l66 -67q-48 -47 -102.5 -70t-121.5 -23q-60 0 -105.5 18t-77 49.5t-47.5 74.5t-16 94q0 61 21.5 116t60.5 96.5t93.5 66t120.5 24.5q54 0 96 -16.5 t71.5 -45.5t44.5 -68t15 -83zM447 306q1 5 1 17q0 54 -34 82.5t-88 28.5q-61 1 -104 -33.5t-57 -94.5h282zM178 615l14 67h309l-14 -67h-309z" />
<glyph unicode="&#x114;" horiz-adv-x="647" d="M24 0l149 700h507l-23 -104h-391l-39 -179h332l-20 -97h-332l-46 -216h391l-22 -104h-506zM427 756q-66 0 -107 30t-45 81q-1 5 -0.5 8.5t0.5 8.5l60 15q3 -30 27 -49.5t66 -19.5q51 0 83.5 20.5t46.5 49.5l59 -21q-8 -25 -24.5 -47.5t-40.5 -39t-56 -26.5t-69 -10z" />
<glyph unicode="&#x115;" horiz-adv-x="596" d="M556 314q0 -27 -5 -49.5t-10 -33.5h-390q0 -4 -0.5 -9t-0.5 -11q0 -59 36.5 -93.5t102.5 -34.5q44 0 81 17t67 48l66 -67q-48 -47 -102.5 -70t-121.5 -23q-60 0 -105.5 18t-77 49.5t-47.5 74.5t-16 94q0 61 21.5 116t60.5 96.5t93.5 66t120.5 24.5q54 0 96 -16.5 t71.5 -45.5t44.5 -68t15 -83zM447 306q1 5 1 17q0 54 -34 82.5t-88 28.5q-61 1 -104 -33.5t-57 -94.5h282zM347 594q-66 0 -107 30t-45 81q-1 5 -0.5 8.5t0.5 8.5l60 15q3 -30 27 -49.5t66 -19.5q51 0 83.5 20.5t46.5 49.5l59 -21q-8 -25 -24.5 -47.5t-40.5 -39t-56 -26.5 t-69 -10z" />
<glyph unicode="&#x116;" horiz-adv-x="647" d="M24 0l149 700h507l-23 -104h-391l-39 -179h332l-20 -97h-332l-46 -216h391l-22 -104h-506zM376 760l20 93h91l-21 -93h-90z" />
<glyph unicode="&#x117;" horiz-adv-x="596" d="M556 314q0 -27 -5 -49.5t-10 -33.5h-390q0 -4 -0.5 -9t-0.5 -11q0 -59 36.5 -93.5t102.5 -34.5q44 0 81 17t67 48l66 -67q-48 -47 -102.5 -70t-121.5 -23q-60 0 -105.5 18t-77 49.5t-47.5 74.5t-16 94q0 61 21.5 116t60.5 96.5t93.5 66t120.5 24.5q54 0 96 -16.5 t71.5 -45.5t44.5 -68t15 -83zM447 306q1 5 1 17q0 54 -34 82.5t-88 28.5q-61 1 -104 -33.5t-57 -94.5h282zM301 598l20 93h91l-21 -93h-90z" />
<glyph unicode="&#x118;" horiz-adv-x="647" d="M502 -134q-14 -14 -39.5 -28t-62.5 -14q-18 0 -36 4.5t-32 13.5t-22.5 23t-8.5 33q0 31 21.5 56.5t53.5 45.5h-353l142 666h485l-22 -104h-370l-35 -164h314l-21 -96h-313l-42 -198h370l-23 -104h-61q-25 -17 -43.5 -38.5t-18.5 -43.5q0 -18 13.5 -26.5t30.5 -8.5t29 6 t20 12z" />
<glyph unicode="&#x119;" horiz-adv-x="597" d="M448 -134q-15 -14 -41 -28t-64 -14q-18 0 -35.5 4.5t-31 13.5t-21.5 22.5t-8 31.5q0 28 17 51t44 43q-7 -1 -13.5 -1.5t-14.5 -0.5q-59 0 -104.5 18t-76.5 50.5t-47 76.5t-16 96q0 62 21.5 118t60.5 98t93.5 67t120.5 25q54 0 96 -17t71 -46.5t44 -69t15 -84.5 q0 -28 -5 -50.5t-9 -33.5h-390q-1 -5 -1 -9v-11q0 -60 36.5 -96.5t101.5 -36.5q45 0 84.5 17.5t68.5 49.5l66 -67q-21 -22 -38.5 -34.5t-37.5 -23.5q-18 -11 -36.5 -22.5t-33 -25t-24 -28t-9.5 -30.5q0 -19 13.5 -27.5t30.5 -8.5q16 0 28.5 6t20.5 12zM449 312q1 5 1 17 q0 55 -34 87.5t-88 32.5q-61 0 -104 -37.5t-57 -99.5h282z" />
<glyph unicode="&#x11a;" horiz-adv-x="647" d="M24 0l149 700h507l-23 -104h-391l-39 -179h332l-20 -97h-332l-46 -216h391l-22 -104h-506zM380 751q-14 23 -41 56t-62 59l30 40q40 -14 74 -37.5t52 -43.5q10 10 27.5 21.5t39.5 22.5t46.5 20.5t48.5 16.5l21 -46q-38 -21 -77 -50t-75 -59h-84z" />
<glyph unicode="&#x11b;" horiz-adv-x="596" d="M556 314q0 -27 -5 -49.5t-10 -33.5h-390q0 -4 -0.5 -9t-0.5 -11q0 -59 36.5 -93.5t102.5 -34.5q44 0 81 17t67 48l66 -67q-48 -47 -102.5 -70t-121.5 -23q-60 0 -105.5 18t-77 49.5t-47.5 74.5t-16 94q0 61 21.5 116t60.5 96.5t93.5 66t120.5 24.5q54 0 96 -16.5 t71.5 -45.5t44.5 -68t15 -83zM447 306q1 5 1 17q0 54 -34 82.5t-88 28.5q-61 1 -104 -33.5t-57 -94.5h282zM303 589q-14 23 -41 56t-62 59l30 40q40 -14 74 -37.5t52 -43.5q10 10 27.5 21.5t39.5 22.5t46.5 20.5t48.5 16.5l21 -46q-38 -21 -77 -50t-75 -59h-84z" />
<glyph unicode="&#x11c;" horiz-adv-x="763" d="M434 609q-59 0 -106.5 -22.5t-81.5 -62t-52 -92.5t-18 -113q0 -50 13 -92t39 -73t64.5 -48.5t89.5 -17.5q45 0 83 14.5t66.5 39t46 57t23.5 69.5h-199l21 98h293q2 -8 4 -22t2 -31q0 -53 -22 -110.5t-65.5 -105.5t-108 -79t-149.5 -31q-78 0 -138 27t-100.5 72.5 t-61.5 106.5t-21 130q0 82 28.5 153t79 123.5t120 83t151.5 30.5q101 0 169 -43t107 -111l-95 -57q-25 50 -71 78.5t-111 28.5zM520 904q14 -22 41.5 -55.5t61.5 -58.5l-31 -41q-38 14 -72.5 37.5t-52.5 43.5q-10 -10 -27.5 -21t-39 -22t-46 -21t-48.5 -17l-22 45 q38 23 77 51.5t75 58.5h84z" />
<glyph unicode="&#x11d;" horiz-adv-x="639" d="M520 79q-11 -54 -29.5 -100.5t-55.5 -84.5q-40 -42 -94 -60t-120 -18q-72 0 -128.5 20.5t-101.5 58.5l66 80q26 -26 72 -45.5t101 -19.5q69 0 116 37.5t63 114.5l6 33q-29 -34 -71.5 -51.5t-90.5 -17.5q-50 0 -89.5 17t-68 47t-43.5 71t-15 88q0 58 20.5 108.5t57 88 t85.5 59.5t106 22q54 0 102 -23t78 -73l18 84h108zM454 300q0 27 -8.5 51.5t-25.5 42.5t-42 28.5t-59 10.5q-41 0 -72 -14.5t-52 -39t-31.5 -56t-10.5 -65.5q0 -29 8 -54t24 -44t40.5 -30t57.5 -11q40 0 71.5 15t53.5 40t34 57.5t12 68.5zM438 742q14 -22 41.5 -55.5 t61.5 -58.5l-31 -41q-38 14 -72.5 37.5t-52.5 43.5q-10 -10 -27.5 -21t-39 -22t-46 -21t-48.5 -17l-22 45q38 23 77 51.5t75 58.5h84z" />
<glyph unicode="&#x11e;" horiz-adv-x="763" d="M434 609q-59 0 -106.5 -22.5t-81.5 -62t-52 -92.5t-18 -113q0 -50 13 -92t39 -73t64.5 -48.5t89.5 -17.5q45 0 83 14.5t66.5 39t46 57t23.5 69.5h-199l21 98h293q2 -8 4 -22t2 -31q0 -53 -22 -110.5t-65.5 -105.5t-108 -79t-149.5 -31q-78 0 -138 27t-100.5 72.5 t-61.5 106.5t-21 130q0 82 28.5 153t79 123.5t120 83t151.5 30.5q101 0 169 -43t107 -111l-95 -57q-25 50 -71 78.5t-111 28.5zM456 756q-66 0 -107 30t-45 81q-1 5 -0.5 8.5t0.5 8.5l60 15q3 -30 27 -49.5t66 -19.5q51 0 83.5 20.5t46.5 49.5l59 -21q-8 -25 -24.5 -47.5 t-40.5 -39t-56 -26.5t-69 -10z" />
<glyph unicode="&#x11f;" horiz-adv-x="639" d="M520 79q-11 -54 -29.5 -100.5t-55.5 -84.5q-40 -42 -94 -60t-120 -18q-72 0 -128.5 20.5t-101.5 58.5l66 80q26 -26 72 -45.5t101 -19.5q69 0 116 37.5t63 114.5l6 33q-29 -34 -71.5 -51.5t-90.5 -17.5q-50 0 -89.5 17t-68 47t-43.5 71t-15 88q0 58 20.5 108.5t57 88 t85.5 59.5t106 22q54 0 102 -23t78 -73l18 84h108zM454 300q0 27 -8.5 51.5t-25.5 42.5t-42 28.5t-59 10.5q-41 0 -72 -14.5t-52 -39t-31.5 -56t-10.5 -65.5q0 -29 8 -54t24 -44t40.5 -30t57.5 -11q40 0 71.5 15t53.5 40t34 57.5t12 68.5zM363 594q-66 0 -107 30t-45 81 q-1 5 -0.5 8.5t0.5 8.5l60 15q3 -30 27 -49.5t66 -19.5q51 0 83.5 20.5t46.5 49.5l59 -21q-8 -25 -24.5 -47.5t-40.5 -39t-56 -26.5t-69 -10z" />
<glyph unicode="&#x120;" horiz-adv-x="763" d="M434 609q-59 0 -106.5 -22.5t-81.5 -62t-52 -92.5t-18 -113q0 -50 13 -92t39 -73t64.5 -48.5t89.5 -17.5q45 0 83 14.5t66.5 39t46 57t23.5 69.5h-199l21 98h293q2 -8 4 -22t2 -31q0 -53 -22 -110.5t-65.5 -105.5t-108 -79t-149.5 -31q-78 0 -138 27t-100.5 72.5 t-61.5 106.5t-21 130q0 82 28.5 153t79 123.5t120 83t151.5 30.5q101 0 169 -43t107 -111l-95 -57q-25 50 -71 78.5t-111 28.5zM396 760l20 93h91l-21 -93h-90z" />
<glyph unicode="&#x121;" horiz-adv-x="639" d="M520 79q-11 -54 -29.5 -100.5t-55.5 -84.5q-40 -42 -94 -60t-120 -18q-72 0 -128.5 20.5t-101.5 58.5l66 80q26 -26 72 -45.5t101 -19.5q69 0 116 37.5t63 114.5l6 33q-29 -34 -71.5 -51.5t-90.5 -17.5q-50 0 -89.5 17t-68 47t-43.5 71t-15 88q0 58 20.5 108.5t57 88 t85.5 59.5t106 22q54 0 102 -23t78 -73l18 84h108zM454 300q0 27 -8.5 51.5t-25.5 42.5t-42 28.5t-59 10.5q-41 0 -72 -14.5t-52 -39t-31.5 -56t-10.5 -65.5q0 -29 8 -54t24 -44t40.5 -30t57.5 -11q40 0 71.5 15t53.5 40t34 57.5t12 68.5zM321 598l20 93h91l-21 -93h-90z " />
<glyph unicode="&#x122;" horiz-adv-x="763" d="M434 609q-59 0 -106.5 -22.5t-81.5 -62t-52 -92.5t-18 -113q0 -50 13 -92t39 -73t64.5 -48.5t89.5 -17.5q45 0 83 14.5t66.5 39t46 57t23.5 69.5h-199l21 98h293q2 -8 4 -22t2 -31q0 -53 -22 -110.5t-65.5 -105.5t-108 -79t-149.5 -31q-78 0 -138 27t-100.5 72.5 t-61.5 106.5t-21 130q0 82 28.5 153t79 123.5t120 83t151.5 30.5q101 0 169 -43t107 -111l-95 -57q-25 50 -71 78.5t-111 28.5zM169 -166q28 29 54.5 63t44.5 61l96 -20q-10 -19 -28 -38.5t-40.5 -38t-46.5 -33.5t-46 -25z" />
<glyph unicode="&#x123;" horiz-adv-x="639" d="M495 700q-28 -29 -54.5 -63t-44.5 -61l-96 20q10 19 28 39t40.5 38t46.5 33.5t46 24.5zM520 79q-11 -54 -29.5 -100.5t-55.5 -84.5q-40 -42 -94 -60t-120 -18q-72 0 -128.5 20.5t-101.5 58.5l66 80q26 -26 72 -45.5t101 -19.5q69 0 116 37.5t63 114.5l6 33 q-29 -34 -71.5 -51.5t-90.5 -17.5q-50 0 -89.5 17t-68 47t-43.5 71t-15 88q0 58 20.5 108.5t57 88t85.5 59.5t106 22q54 0 102 -23t78 -73l18 84h108zM454 300q0 27 -8.5 51.5t-25.5 42.5t-42 28.5t-59 10.5q-41 0 -72 -14.5t-52 -39t-31.5 -56t-10.5 -65.5q0 -29 8 -54 t24 -44t40.5 -30t57.5 -11q40 0 71.5 15t53.5 40t34 57.5t12 68.5z" />
<glyph unicode="&#x124;" horiz-adv-x="756" d="M486 0l68 318h-347l-68 -318h-115l149 700h114l-59 -279h348l60 279h114l-148 -700h-116zM540 904q14 -22 41.5 -55.5t61.5 -58.5l-31 -41q-38 14 -72.5 37.5t-52.5 43.5q-10 -10 -27.5 -21t-39 -22t-46 -21t-48.5 -17l-22 45q38 23 77 51.5t75 58.5h84z" />
<glyph unicode="&#x125;" horiz-adv-x="583" d="M215 445q75 82 175 82q37 0 65.5 -12t47.5 -32.5t29 -47.5t10 -57q0 -14 -2.5 -29.5t-5.5 -29.5l-68 -319h-109l65 303l4 24t2 21q0 37 -21.5 59t-65.5 22q-29 0 -55 -10.5t-47 -29.5t-36 -46t-22 -59l-60 -284h-109l151 714h110zM296 904q14 -22 41.5 -55.5t61.5 -58.5 l-31 -41q-38 14 -72.5 37.5t-52.5 43.5q-10 -10 -27.5 -21t-39 -22t-46 -21t-48.5 -17l-22 45q38 23 77 51.5t75 58.5h84z" />
<glyph unicode="&#x126;" horiz-adv-x="756" d="M487 0l68 318h-348l-67 -318h-116l117 548h-53l13 65h53l19 87h115l-18 -87h347l20 87h114l-18 -87h54l-14 -65h-54l-116 -548h-116zM577 421l27 127h-348l-27 -127h348z" />
<glyph unicode="&#x127;" horiz-adv-x="598" d="M262 666h130l-14 -66h-129l-31 -146q39 42 84.5 62.5t93.5 20.5q38 0 66.5 -11.5t47 -31.5t27.5 -47t9 -58q0 -18 -3.5 -37.5t-7.5 -36.5l-68 -315h-109l67 316q2 8 3 16t1 15q2 41 -17 66t-67 25q-65 0 -106.5 -45t-59.5 -121l-58 -272h-108l126 600h-67l14 66h68l10 48 h109z" />
<glyph unicode="&#x128;" horiz-adv-x="292" d="M24 0l149 700h114l-148 -700h-115zM440 854q-19 -39 -49 -65t-68 -26q-18 0 -37 6t-37 13.5t-35 14t-33 6.5q-17 0 -36.5 -10.5t-36.5 -31.5l-41 30q18 40 48.5 66.5t68.5 26.5q18 0 37 -6.5t37 -14t35 -14t33 -6.5q17 0 36 10t36 33z" />
<glyph unicode="&#x129;" horiz-adv-x="256" d="M12 0l109 515h109l-109 -515h-109zM390 692q-19 -39 -49 -65t-68 -26q-18 0 -37 6t-37 13.5t-35 14t-33 6.5q-17 0 -36.5 -10.5t-36.5 -31.5l-41 30q18 40 48.5 66.5t68.5 26.5q18 0 37 -6.5t37 -14t35 -14t33 -6.5q17 0 36 10t36 33z" />
<glyph unicode="&#x12a;" horiz-adv-x="292" d="M24 0l149 700h114l-148 -700h-115zM92.8428 777l13.6074 67h300.344l-13.6074 -67h-300.344z" />
<glyph unicode="&#x12b;" horiz-adv-x="256" d="M12 0l109 515h109l-109 -515h-109zM48.8613 615l13.6113 67h300.419l-13.6113 -67h-300.419z" />
<glyph unicode="&#x12c;" horiz-adv-x="292" d="M24 0l149 700h114l-148 -700h-115zM244 756q-66 0 -107 30t-45 81q-1 5 -0.5 8.5t0.5 8.5l60 15q3 -30 27 -49.5t66 -19.5q51 0 83.5 20.5t46.5 49.5l59 -21q-8 -25 -24.5 -47.5t-40.5 -39t-56 -26.5t-69 -10z" />
<glyph unicode="&#x12d;" horiz-adv-x="256" d="M12 0l109 515h109l-109 -515h-109zM202 594q-66 0 -107 30t-45 81q-1 5 -0.5 8.5t0.5 8.5l60 15q3 -30 27 -49.5t66 -19.5q51 0 83.5 20.5t46.5 49.5l59 -21q-8 -25 -24.5 -47.5t-40.5 -39t-56 -26.5t-69 -10z" />
<glyph unicode="&#x12e;" horiz-adv-x="296" d="M137 0q-42 -11 -70 -36t-28 -51q0 -20 14 -28.5t34 -8.5q17 0 30 6t22 13l25 -36q-15 -14 -42.5 -28.5t-68.5 -14.5q-19 0 -37 4.5t-32.5 14t-23.5 24t-9 34.5q0 32 22 59.5t50 47.5l150 700h113z" />
<glyph unicode="&#x12f;" horiz-adv-x="256" d="M148 -134q-14 -14 -40.5 -28t-63.5 -14q-18 0 -36 4.5t-32 13.5t-22.5 23t-8.5 33q0 31 20.5 57.5t46.5 44.5l111 525h109l-111 -525q-40 -12 -65.5 -34.5t-25.5 -47.5q0 -18 13.5 -26.5t31.5 -8.5q17 0 29 6t20 12zM143 619l20 95h109l-20 -95h-109z" />
<glyph unicode="&#x130;" horiz-adv-x="292" d="M24 0l149 700h114l-148 -700h-115zM199 760l20 93h91l-21 -93h-90z" />
<glyph unicode="&#x131;" horiz-adv-x="256" d="M12 0l109 515h109l-109 -515h-109z" />
<glyph unicode="&#x134;" horiz-adv-x="515" d="M414 208q-11 -49 -30 -89.5t-49 -70t-71 -45.5t-95 -16q-77 0 -128.5 32.5t-74.5 86.5l94 54q14 -33 42.5 -52.5t68.5 -19.5q31 0 53.5 11.5t38 30.5t25 44.5t15.5 54.5l100 471h115zM539 904q14 -22 41.5 -55.5t61.5 -58.5l-31 -41q-38 14 -72.5 37.5t-52.5 43.5 q-10 -10 -27.5 -21t-39 -22t-46 -21t-48.5 -17l-22 45q38 23 77 51.5t75 58.5h84z" />
<glyph unicode="&#x135;" horiz-adv-x="254" d="M263 742q14 -22 41.5 -55.5t61.5 -58.5l-31 -41q-38 14 -72.5 37.5t-52.5 43.5q-10 -10 -27.5 -21t-39 -22t-46 -21t-48.5 -17l-22 45q38 23 77 51.5t75 58.5h84zM115 -29q-17 -83 -60 -118.5t-105 -35.5q-40 0 -69 11.5t-49 31.5l54 72q8 -10 21.5 -17.5t30.5 -7.5 q32 0 48.5 25t24.5 63l111 520h108z" />
<glyph unicode="&#x136;" horiz-adv-x="673" d="M490 0l-165 323l-147 -135l-39 -188h-115l149 700h114l-75 -353l379 353h146l-326 -304l207 -396h-128zM149 -166q28 29 54.5 63t44.5 61l96 -20q-10 -19 -28 -38.5t-40.5 -38t-46.5 -33.5t-46 -25z" />
<glyph unicode="&#x137;" horiz-adv-x="572" d="M461 515h136l-251 -216l168 -299h-124l-129 232l-111 -95l-29 -137h-109l152 714h108l-94 -442zM112 -166q28 29 54.5 63t44.5 61l96 -20q-10 -19 -28 -38.5t-40.5 -38t-46.5 -33.5t-46 -25z" />
<glyph unicode="&#x138;" horiz-adv-x="573" d="M464 525h136l-252 -221l166 -304h-124l-128 237l-112 -96l-29 -141h-109l112 525h108l-52 -249z" />
<glyph unicode="&#x139;" horiz-adv-x="585" d="M24 0l149 700h114l-127 -596h372l-22 -104h-486zM189 777q31 31 61.5 67.5t50.5 64.5l96 -29q-11 -19 -30 -39t-43 -38t-50.5 -33t-51.5 -25z" />
<glyph unicode="&#x13a;" horiz-adv-x="255" d="M11 0l152 714h109l-151 -714h-110zM174 777q31 31 61.5 67.5t50.5 64.5l96 -29q-11 -19 -30 -39t-43 -38t-50.5 -33t-51.5 -25z" />
<glyph unicode="&#x13b;" horiz-adv-x="585" d="M24 0l149 700h114l-127 -596h372l-22 -104h-486zM128 -166q28 29 54.5 63t44.5 61l96 -20q-10 -19 -28 -38.5t-40.5 -38t-46.5 -33.5t-46 -25z" />
<glyph unicode="&#x13c;" horiz-adv-x="255" d="M11 0l152 714h109l-151 -714h-110zM-84 -166q28 29 54.5 63t44.5 61l96 -20q-10 -19 -28 -38.5t-40.5 -38t-46.5 -33.5t-46 -25z" />
<glyph unicode="&#x13d;" horiz-adv-x="585" d="M24 0l149 700h114l-127 -596h372l-22 -104h-486zM459 613q-12 -55 -44 -97.5t-91 -71.5l-23 47q30 20 50.5 48t20.5 60q0 17 -5 31.5t-5 32.5q0 5 1 15t6 22h108z" />
<glyph unicode="&#x13e;" horiz-adv-x="343" d="M11 0l152 714h109l-151 -714h-110zM458 627q-12 -55 -44 -97.5t-91 -71.5l-23 47q30 20 50.5 48t20.5 60q0 17 -5 31.5t-5 32.5q0 5 1 15t6 22h108z" />
<glyph unicode="&#x13f;" horiz-adv-x="585" d="M24 0l149 700h114l-127 -596h372l-22 -104h-486zM373 367q0 30 22 52t53 22q30 0 52 -22t22 -52q0 -31 -22 -53t-52 -22q-31 0 -53 22t-22 53z" />
<glyph unicode="&#x140;" horiz-adv-x="486" d="M11 0l152 714h109l-151 -714h-110zM296 305q0 30 22 52t53 22q30 0 52 -22t22 -52q0 -31 -22 -53t-52 -22q-31 0 -53 22t-22 53z" />
<glyph unicode="&#x141;" horiz-adv-x="607" d="M45 0l59 275l-121 -42l20 95l121 40l70 332h115l-62 -289l237 83l-20 -94l-236 -82l-46 -214h372l-22 -104h-487z" />
<glyph unicode="&#x142;" horiz-adv-x="335" d="M244 392l-83 -392h-109l75 355l-112 -37l19 91l113 36l57 269h109l-49 -232l113 36l-19 -90z" />
<glyph unicode="&#x143;" horiz-adv-x="756" d="M474 0l-223 552l-117 -552h-110l149 700h134l220 -539l114 539h110l-148 -700h-129zM384 777q31 31 61.5 67.5t50.5 64.5l96 -29q-11 -19 -30 -39t-43 -38t-50.5 -33t-51.5 -25z" />
<glyph unicode="&#x144;" horiz-adv-x="603" d="M215 445q75 82 175 82q37 0 65.5 -12t47.5 -32.5t29 -47.5t10 -57q0 -14 -2.5 -29.5t-5.5 -29.5l-68 -319h-109l65 303l4 24t2 21q0 37 -21.5 59t-65.5 22q-29 0 -55 -10.5t-47 -29.5t-36 -46t-22 -59l-60 -284h-109l109 515h109zM317 615q25 28 51.5 64.5t43.5 67.5 l98 -19q-9 -18 -25 -38t-37 -39.5t-45 -37t-47 -30.5z" />
<glyph unicode="&#x145;" horiz-adv-x="756" d="M474 0l-223 552l-117 -552h-110l149 700h134l220 -539l114 539h110l-148 -700h-129zM158 -166q28 29 54.5 63t44.5 61l96 -20q-10 -19 -28 -38.5t-40.5 -38t-46.5 -33.5t-46 -25z" />
<glyph unicode="&#x146;" horiz-adv-x="597" d="M215 445q75 82 175 82q37 0 65.5 -12t47.5 -32.5t29 -47.5t10 -57q0 -14 -2.5 -29.5t-5.5 -29.5l-68 -319h-109l65 303l4 24t2 21q0 37 -21.5 59t-65.5 22q-29 0 -55 -10.5t-47 -29.5t-36 -46t-22 -59l-60 -284h-109l109 515h109zM90 -166q28 29 54.5 63t44.5 61l96 -20 q-10 -19 -28 -38.5t-40.5 -38t-46.5 -33.5t-46 -25z" />
<glyph unicode="&#x147;" horiz-adv-x="756" d="M474 0l-223 552l-117 -552h-110l149 700h134l220 -539l114 539h110l-148 -700h-129zM415 751q-14 23 -41 56t-62 59l30 40q40 -14 74 -37.5t52 -43.5q10 10 27.5 21.5t39.5 22.5t46.5 20.5t48.5 16.5l21 -46q-38 -21 -77 -50t-75 -59h-84z" />
<glyph unicode="&#x148;" horiz-adv-x="597" d="M215 445q75 82 175 82q37 0 65.5 -12t47.5 -32.5t29 -47.5t10 -57q0 -14 -2.5 -29.5t-5.5 -29.5l-68 -319h-109l65 303l4 24t2 21q0 37 -21.5 59t-65.5 22q-29 0 -55 -10.5t-47 -29.5t-36 -46t-22 -59l-60 -284h-109l109 515h109zM328 589q-14 23 -41 56t-62 59l30 40 q40 -14 74 -37.5t52 -43.5q10 10 27.5 21.5t39.5 22.5t46.5 20.5t48.5 16.5l21 -46q-38 -21 -77 -50t-75 -59h-84z" />
<glyph unicode="&#x14a;" horiz-adv-x="756" d="M376 -74q45 0 70.5 21t41.5 53l-237 554l-117 -554h-110l149 700h132l226 -525l110 525h110l-140 -660q-23 -107 -81 -159.5t-157 -52.5q-85 0 -140 50l59 82q16 -16 37.5 -25t46.5 -9z" />
<glyph unicode="&#x14b;" horiz-adv-x="597" d="M463 -16q-20 -91 -64 -128.5t-112 -37.5q-40 0 -68 10t-46 26l50 75q18 -20 53 -20q39 0 56.5 28.5t26.5 70.5l63 295q3 12 4.5 24t1.5 21q0 37 -21.5 59t-64.5 22q-29 0 -55 -10.5t-47 -29.5t-36.5 -46t-22.5 -59l-60 -284h-109l109 515h110l-16 -70q76 82 175 82 q37 0 65.5 -12t48 -32.5t29 -47.5t9.5 -57q0 -14 -2 -29.5t-5 -29.5z" />
<glyph unicode="&#x14c;" horiz-adv-x="784" d="M746 380q0 -81 -28 -153t-78 -125t-119 -84t-150 -31q-75 0 -133.5 26t-99 71t-61.5 105.5t-21 130.5q0 81 28 153t77.5 125t118.5 84t150 31q75 0 133.5 -25.5t99 -70.5t62 -106t21.5 -131zM625 383q0 49 -12.5 90.5t-37 71.5t-61.5 46.5t-85 16.5q-57 0 -103.5 -23 t-79.5 -62.5t-51 -93t-18 -113.5q0 -49 12.5 -90t37 -71t61 -46.5t84.5 -16.5q57 0 103.5 23t79.5 62.5t51.5 92.5t18.5 113zM301 777l14 67h309l-14 -67h-309z" />
<glyph unicode="&#x14d;" horiz-adv-x="613" d="M565 284q0 -62 -21 -115.5t-59 -94t-91.5 -63.5t-117.5 -23q-57 0 -101.5 18t-75 50t-47 76.5t-16.5 97.5q0 62 21 116t59 94.5t91 63.5t118 23q57 0 101.5 -18t75 -50t47 -76.5t16.5 -98.5zM450 287q0 30 -8 56.5t-23.5 46t-39.5 31t-55 11.5q-40 0 -71.5 -17t-54 -45.5 t-34.5 -65t-12 -74.5q0 -31 7.5 -58t23 -46.5t39.5 -31t56 -11.5q40 0 71.5 17.5t54 46t34.5 65t12 75.5zM179 615l14 67h309l-14 -67h-309z" />
<glyph unicode="&#x14e;" horiz-adv-x="784" d="M746 380q0 -81 -28 -153t-78 -125t-119 -84t-150 -31q-75 0 -133.5 26t-99 71t-61.5 105.5t-21 130.5q0 81 28 153t77.5 125t118.5 84t150 31q75 0 133.5 -25.5t99 -70.5t62 -106t21.5 -131zM625 383q0 49 -12.5 90.5t-37 71.5t-61.5 46.5t-85 16.5q-57 0 -103.5 -23 t-79.5 -62.5t-51 -93t-18 -113.5q0 -49 12.5 -90t37 -71t61 -46.5t84.5 -16.5q57 0 103.5 23t79.5 62.5t51.5 92.5t18.5 113zM461 756q-66 0 -107 30t-45 81q-1 5 -0.5 8.5t0.5 8.5l60 15q3 -30 27 -49.5t66 -19.5q51 0 83.5 20.5t46.5 49.5l59 -21q-8 -25 -24.5 -47.5 t-40.5 -39t-56 -26.5t-69 -10z" />
<glyph unicode="&#x14f;" horiz-adv-x="613" d="M565 284q0 -62 -21 -115.5t-59 -94t-91.5 -63.5t-117.5 -23q-57 0 -101.5 18t-75 50t-47 76.5t-16.5 97.5q0 62 21 116t59 94.5t91 63.5t118 23q57 0 101.5 -18t75 -50t47 -76.5t16.5 -98.5zM450 287q0 30 -8 56.5t-23.5 46t-39.5 31t-55 11.5q-40 0 -71.5 -17t-54 -45.5 t-34.5 -65t-12 -74.5q0 -31 7.5 -58t23 -46.5t39.5 -31t56 -11.5q40 0 71.5 17.5t54 46t34.5 65t12 75.5zM342 594q-66 0 -107 30t-45 81q-1 5 -0.5 8.5t0.5 8.5l60 15q3 -30 27 -49.5t66 -19.5q51 0 83.5 20.5t46.5 49.5l59 -21q-8 -25 -24.5 -47.5t-40.5 -39t-56 -26.5 t-69 -10z" />
<glyph unicode="&#x150;" horiz-adv-x="784" d="M746 380q0 -81 -28 -153t-78 -125t-119 -84t-150 -31q-75 0 -133.5 26t-99 71t-61.5 105.5t-21 130.5q0 81 28 153t77.5 125t118.5 84t150 31q75 0 133.5 -25.5t99 -70.5t62 -106t21.5 -131zM625 383q0 49 -12.5 90.5t-37 71.5t-61.5 46.5t-85 16.5q-57 0 -103.5 -23 t-79.5 -62.5t-51 -93t-18 -113.5q0 -49 12.5 -90t37 -71t61 -46.5t84.5 -16.5q57 0 103.5 23t79.5 62.5t51.5 92.5t18.5 113zM321 776q33 31 60 65t49 68l83 -33q-11 -18 -29.5 -37.5t-40 -37.5t-45 -33t-43.5 -23zM497 776q32 31 59 65t50 68l82 -33q-11 -18 -29 -37.5 t-40 -37.5t-45 -33t-43 -23z" />
<glyph unicode="&#x151;" horiz-adv-x="613" d="M565 284q0 -62 -21 -115.5t-59 -94t-91.5 -63.5t-117.5 -23q-57 0 -101.5 18t-75 50t-47 76.5t-16.5 97.5q0 62 21 116t59 94.5t91 63.5t118 23q57 0 101.5 -18t75 -50t47 -76.5t16.5 -98.5zM450 287q0 30 -8 56.5t-23.5 46t-39.5 31t-55 11.5q-40 0 -71.5 -17t-54 -45.5 t-34.5 -65t-12 -74.5q0 -31 7.5 -58t23 -46.5t39.5 -31t56 -11.5q40 0 71.5 17.5t54 46t34.5 65t12 75.5zM205 614q33 31 60 65t49 68l83 -33q-11 -18 -29.5 -37.5t-40 -37.5t-45 -33t-43.5 -23zM381 614q32 31 59 65t50 68l82 -33q-11 -18 -29 -37.5t-40 -37.5t-45 -33 t-43 -23z" />
<glyph unicode="&#x152;" horiz-adv-x="1037" d="M429 596q-61 0 -108 -22.5t-79 -61t-48.5 -90t-16.5 -109.5q0 -46 11.5 -84.5t36 -66t62 -43t89.5 -15.5h90l105 492h-142zM1069 700l-22 -104h-361l-38 -179h302l-21 -97h-303l-44 -216h361l-23 -104h-546q-79 0 -138.5 24.5t-99 66.5t-59.5 98.5t-20 120.5 q0 80 25.5 151t74.5 124t119.5 84t159.5 31h633z" />
<glyph unicode="&#x153;" horiz-adv-x="1000" d="M961 304q0 -23 -4 -43t-8 -30h-390q-1 -4 -1 -8v-8q0 -60 37 -96t102 -36q44 0 83.5 17.5t68.5 47.5l67 -67q-92 -93 -225 -93q-72 0 -122.5 26.5t-78.5 72.5q-31 -38 -73 -62t-95 -32q-35 -6 -73 -1q-50 4 -89.5 23.5t-67 51.5t-42 74.5t-14.5 93.5q0 61 20.5 114 t58 92.5t90 62.5t116.5 23q69 0 117.5 -27t77.5 -75q36 46 90 74t122 28q55 0 98.5 -17t73.5 -47t45.5 -70.5t15.5 -88.5zM449 284q0 31 -8 58t-24 47t-40 31.5t-56 11.5q-39 0 -70.5 -17t-53.5 -45t-33.5 -64.5t-11.5 -74.5q0 -31 8 -58t24 -47t40 -31.5t56 -11.5 q39 0 70.5 17t53.5 45t33.5 64.5t11.5 74.5zM852 306q1 24 -5 47q-10 41 -42 64t-78 23q-61 0 -103 -37t-54 -97h282z" />
<glyph unicode="&#x154;" horiz-adv-x="697" d="M460 700q50 0 90 -14t68.5 -40t44 -63t15.5 -82q0 -81 -53 -137t-142 -76l124 -288h-123l-114 272h-174l-57 -272h-115l149 700h287zM266 596l-48 -225h195q31 0 57.5 9t45.5 25.5t30 39t11 49.5q0 48 -29 75t-81 27h-181zM337 777q31 31 61.5 67.5t50.5 64.5l96 -29 q-11 -19 -30 -39t-43 -38t-50.5 -33t-51.5 -25z" />
<glyph unicode="&#x155;" horiz-adv-x="403" d="M387 402q-11 6 -25 10.5t-31 4.5q-53 0 -96.5 -42.5t-59.5 -117.5l-55 -257h-108l109 515h109l-17 -82q29 42 67.5 66.5t82.5 24.5q24 0 44 -5.5t31 -12.5zM229 615q31 31 61.5 67.5t50.5 64.5l96 -29q-11 -19 -30 -39t-43 -38t-50.5 -33t-51.5 -25z" />
<glyph unicode="&#x156;" horiz-adv-x="697" d="M460 700q50 0 90 -14t68.5 -40t44 -63t15.5 -82q0 -81 -53 -137t-142 -76l124 -288h-123l-114 272h-174l-57 -272h-115l149 700h287zM266 596l-48 -225h195q31 0 57.5 9t45.5 25.5t30 39t11 49.5q0 48 -29 75t-81 27h-181zM135 -166q28 29 54.5 63t44.5 61l96 -20 q-10 -19 -28 -38.5t-40.5 -38t-46.5 -33.5t-46 -25z" />
<glyph unicode="&#x157;" horiz-adv-x="403" d="M387 402q-11 6 -25 10.5t-31 4.5q-53 0 -96.5 -42.5t-59.5 -117.5l-55 -257h-108l109 515h109l-17 -82q29 42 67.5 66.5t82.5 24.5q24 0 44 -5.5t31 -12.5zM-85 -166q28 29 54.5 63t44.5 61l96 -20q-10 -19 -28 -38.5t-40.5 -38t-46.5 -33.5t-46 -25z" />
<glyph unicode="&#x158;" horiz-adv-x="697" d="M460 700q50 0 90 -14t68.5 -40t44 -63t15.5 -82q0 -81 -53 -137t-142 -76l124 -288h-123l-114 272h-174l-57 -272h-115l149 700h287zM266 596l-48 -225h195q31 0 57.5 9t45.5 25.5t30 39t11 49.5q0 48 -29 75t-81 27h-181zM360 751q-14 23 -41 56t-62 59l30 40 q40 -14 74 -37.5t52 -43.5q10 10 27.5 21.5t39.5 22.5t46.5 20.5t48.5 16.5l21 -46q-38 -21 -77 -50t-75 -59h-84z" />
<glyph unicode="&#x159;" horiz-adv-x="403" d="M387 402q-11 6 -25 10.5t-31 4.5q-53 0 -96.5 -42.5t-59.5 -117.5l-55 -257h-108l109 515h109l-17 -82q29 42 67.5 66.5t82.5 24.5q24 0 44 -5.5t31 -12.5zM255 589q-14 23 -41 56t-62 59l30 40q40 -14 74 -37.5t52 -43.5q10 10 27.5 21.5t39.5 22.5t46.5 20.5t48.5 16.5 l21 -46q-38 -21 -77 -50t-75 -59h-84z" />
<glyph unicode="&#x15a;" horiz-adv-x="623" d="M215 525q0 -21 9.5 -36.5t27 -27.5t42 -23t54.5 -23q47 -19 87 -38.5t69 -44t45 -57.5t16 -78q0 -43 -18.5 -81t-54 -66.5t-85.5 -45.5t-113 -17q-100 0 -175 42.5t-113 116.5l94 53q15 -30 37.5 -51.5t50 -35t58 -20t60.5 -6.5q62 0 102.5 28t40.5 78q0 23 -10 39.5 t-29.5 29.5t-47.5 25t-64 26q-42 16 -78 34t-62.5 41.5t-42 54.5t-15.5 73q0 46 19 82.5t52.5 62t78.5 39.5t97 14q86 0 153 -36t109 -100l-91 -56q-25 43 -69.5 67.5t-104.5 24.5q-27 0 -50.5 -5.5t-41 -16t-27.5 -27.5t-10 -39zM324 777q31 31 61.5 67.5t50.5 64.5l96 -29 q-11 -19 -30 -39t-43 -38t-50.5 -33t-51.5 -25z" />
<glyph unicode="&#x15b;" horiz-adv-x="524" d="M459 152q0 -35 -15 -65t-43 -52t-69.5 -34.5t-93.5 -12.5q-81 0 -144 29.5t-101 86.5l80 47q27 -39 70 -58.5t93 -19.5q48 0 80 17t32 51q0 15 -7.5 25.5t-22 18.5t-35.5 16t-49 17q-30 10 -59 21.5t-52.5 29t-38 42.5t-14.5 61q0 39 16.5 68t45 48.5t66 29t78.5 9.5 q38 0 71.5 -7.5t61.5 -20t50.5 -28.5t39.5 -33l-73 -57q-25 26 -64 43.5t-85 17.5q-18 0 -36 -3.5t-31.5 -10t-22 -17.5t-8.5 -26q0 -28 26.5 -43t69.5 -29q31 -10 63.5 -21.5t59.5 -29.5t44 -44.5t17 -65.5zM260 615q25 28 51.5 64.5t43.5 67.5l98 -19q-9 -18 -25 -38 t-37 -39.5t-45 -37t-47 -30.5z" />
<glyph unicode="&#x15c;" horiz-adv-x="623" d="M215 525q0 -21 9.5 -36.5t27 -27.5t42 -23t54.5 -23q47 -19 87 -38.5t69 -44t45 -57.5t16 -78q0 -43 -18.5 -81t-54 -66.5t-85.5 -45.5t-113 -17q-100 0 -175 42.5t-113 116.5l94 53q15 -30 37.5 -51.5t50 -35t58 -20t60.5 -6.5q62 0 102.5 28t40.5 78q0 23 -10 39.5 t-29.5 29.5t-47.5 25t-64 26q-42 16 -78 34t-62.5 41.5t-42 54.5t-15.5 73q0 46 19 82.5t52.5 62t78.5 39.5t97 14q86 0 153 -36t109 -100l-91 -56q-25 43 -69.5 67.5t-104.5 24.5q-27 0 -50.5 -5.5t-41 -16t-27.5 -27.5t-10 -39zM449 904q14 -22 41.5 -55.5t61.5 -58.5 l-31 -41q-38 14 -72.5 37.5t-52.5 43.5q-10 -10 -27.5 -21t-39 -22t-46 -21t-48.5 -17l-22 45q38 23 77 51.5t75 58.5h84z" />
<glyph unicode="&#x15d;" horiz-adv-x="524" d="M459 152q0 -35 -15 -65t-43 -52t-69.5 -34.5t-93.5 -12.5q-81 0 -144 29.5t-101 86.5l80 47q27 -39 70 -58.5t93 -19.5q48 0 80 17t32 51q0 15 -7.5 25.5t-22 18.5t-35.5 16t-49 17q-30 10 -59 21.5t-52.5 29t-38 42.5t-14.5 61q0 39 16.5 68t45 48.5t66 29t78.5 9.5 q38 0 71.5 -7.5t61.5 -20t50.5 -28.5t39.5 -33l-73 -57q-25 26 -64 43.5t-85 17.5q-18 0 -36 -3.5t-31.5 -10t-22 -17.5t-8.5 -26q0 -28 26.5 -43t69.5 -29q31 -10 63.5 -21.5t59.5 -29.5t44 -44.5t17 -65.5zM386 742q14 -22 41.5 -55.5t61.5 -58.5l-31 -41 q-38 14 -72.5 37.5t-52.5 43.5q-10 -10 -27.5 -21t-39 -22t-46 -21t-48.5 -17l-22 45q38 23 77 51.5t75 58.5h84z" />
<glyph unicode="&#x15e;" horiz-adv-x="623" d="M132 -81q11 -14 30.5 -24t38.5 -10q21 0 35.5 13t14.5 38q0 27 -18 56q-79 11 -137 51.5t-90 102.5l94 53q15 -30 37.5 -51.5t50 -35t58 -20t60.5 -6.5q63 0 103 28t40 78q0 23 -10 39.5t-29.5 29.5t-47.5 24.5t-63 26.5q-42 16 -78.5 33.5t-63 41t-42 55t-15.5 73.5 q0 46 19 82.5t52.5 62t78.5 39.5t97 14q86 0 153 -36t109 -100l-90 -56q-25 43 -70 67.5t-105 24.5q-27 0 -50.5 -5.5t-41 -16t-27.5 -27.5t-10 -39q0 -21 9.5 -36.5t27 -27.5t42 -23t54.5 -23q47 -19 87 -38.5t69 -44t45 -57.5t16 -78q0 -43 -18.5 -81t-53.5 -66.5 t-84.5 -45.5t-112.5 -17q14 -17 23.5 -35.5t9.5 -40.5q0 -21 -9 -38t-24 -28.5t-35 -17.5t-42 -6q-38 0 -69.5 16t-52.5 44z" />
<glyph unicode="&#x15f;" horiz-adv-x="524" d="M90 -78q11 -13 28.5 -22t35.5 -9q20 0 34 12t14 36q0 25 -17 53q-63 8 -112.5 36t-78.5 76l83 47q26 -39 68.5 -58.5t92.5 -19.5q48 0 79.5 17t31.5 51q0 15 -7.5 25.5t-22 18.5t-36 16t-48.5 17q-30 10 -59 21.5t-52.5 29t-38 42.5t-14.5 61q0 39 17 68t45.5 48.5t66 29 t78.5 9.5q38 0 71.5 -7.5t61 -20t50 -28.5t38.5 -33l-75 -57q-25 26 -63.5 43.5t-83.5 17.5q-19 0 -36.5 -3.5t-31 -10t-22 -17.5t-8.5 -26q0 -28 26.5 -43t70.5 -29q30 -9 62.5 -21t59.5 -30t44 -44.5t17 -65.5q0 -34 -14.5 -63.5t-41.5 -51.5t-66.5 -35t-89.5 -14 q14 -16 23 -35t9 -40q0 -20 -8.5 -35.5t-23.5 -26.5t-34 -16.5t-40 -5.5q-36 0 -66.5 15t-50.5 41z" />
<glyph unicode="&#x160;" horiz-adv-x="623" d="M215 525q0 -21 9.5 -36.5t27 -27.5t42 -23t54.5 -23q47 -19 87 -38.5t69 -44t45 -57.5t16 -78q0 -43 -18.5 -81t-54 -66.5t-85.5 -45.5t-113 -17q-100 0 -175 42.5t-113 116.5l94 53q15 -30 37.5 -51.5t50 -35t58 -20t60.5 -6.5q62 0 102.5 28t40.5 78q0 23 -10 39.5 t-29.5 29.5t-47.5 25t-64 26q-42 16 -78 34t-62.5 41.5t-42 54.5t-15.5 73q0 46 19 82.5t52.5 62t78.5 39.5t97 14q86 0 153 -36t109 -100l-91 -56q-25 43 -69.5 67.5t-104.5 24.5q-27 0 -50.5 -5.5t-41 -16t-27.5 -27.5t-10 -39zM344 751q-14 23 -41 56t-62 59l30 40 q40 -14 74 -37.5t52 -43.5q10 10 27.5 21.5t39.5 22.5t46.5 20.5t48.5 16.5l21 -46q-38 -21 -77 -50t-75 -59h-84z" />
<glyph unicode="&#x161;" horiz-adv-x="535" d="M264 589q-14 23 -41 56t-62 59l30 40q40 -14 74 -37.5t52 -43.5q10 10 27.5 21.5t39.5 22.5t46.5 20.5t48.5 16.5l21 -46q-38 -21 -77 -50t-75 -59h-84zM459 152q0 -35 -15 -65t-43 -52t-69.5 -34.5t-93.5 -12.5q-81 0 -144 29.5t-101 86.5l80 47q27 -39 70 -58.5 t93 -19.5q48 0 80 17t32 51q0 15 -7.5 25.5t-22 18.5t-35.5 16t-49 17q-30 10 -59 21.5t-52.5 29t-38 42.5t-14.5 61q0 39 16.5 68t45 48.5t66 29t78.5 9.5q38 0 71.5 -7.5t61.5 -20t50.5 -28.5t39.5 -33l-73 -57q-25 26 -64 43.5t-85 17.5q-18 0 -36 -3.5t-31.5 -10 t-22 -17.5t-8.5 -26q0 -28 26.5 -43t69.5 -29q31 -10 63.5 -21.5t59.5 -29.5t44 -44.5t17 -65.5z" />
<glyph unicode="&#x162;" horiz-adv-x="610" d="M115 -77q11 -14 28.5 -23t35.5 -9q20 0 34 12.5t14 36.5q0 35 -44 60l126 596h-228l23 104h569l-22 -104h-227l-128 -596h-36q10 -10 20 -21q24 -28 24 -64q0 -21 -8.5 -37t-23.5 -27t-34 -16.5t-40 -5.5q-36 0 -66.5 15.5t-50.5 41.5z" />
<glyph unicode="&#x163;" horiz-adv-x="420" d="M39 -166q28 29 54.5 63t44.5 61l96 -20q-10 -19 -28 -38.5t-40.5 -38t-46.5 -33.5t-46 -25zM360 30q-59 -42 -134 -42q-64 0 -106 30t-42 92q0 17 8 55l56 265h-106l18 85h106l39 185h108l-39 -185h160l-19 -85h-159l-56 -265q-2 -9 -3 -17t-1 -14q0 -25 15.5 -37.5 t41.5 -12.5q22 0 42 7.5t34 18.5z" />
<glyph unicode="&#x164;" horiz-adv-x="610" d="M423 596l-128 -596h-113l126 596h-228l23 104h569l-22 -104h-227zM341 751q-14 23 -41 56t-62 59l30 40q40 -14 74 -37.5t52 -43.5q10 10 27.5 21.5t39.5 22.5t46.5 20.5t48.5 16.5l21 -46q-38 -21 -77 -50t-75 -59h-84z" />
<glyph unicode="&#x165;" horiz-adv-x="420" d="M360 30q-59 -42 -134 -42q-64 0 -106 30t-42 92q0 17 8 55l56 265h-106l18 85h106l39 185h108l-39 -185h160l-19 -85h-159l-56 -265q-2 -9 -3 -17t-1 -14q0 -25 15.5 -37.5t41.5 -12.5q22 0 42 7.5t34 18.5zM440.592 664.355q-10.0439 -43.0098 -36.8271 -76.2432 q-26.7832 -33.2344 -76.165 -55.9121l-19.25 36.7529q25.1094 15.6396 42.2676 37.5352q17.1572 21.8955 17.1572 46.9189q0 13.2939 -4.18457 24.6328t-4.18457 25.4141q0 3.91016 0.836914 11.7295q0.836914 7.82031 5.02148 17.2041h90.3936z" />
<glyph unicode="&#x166;" horiz-adv-x="610" d="M365 319l-69 -319h-114l67 319h-108l14 64h108l45 213h-227l22 104h570l-22 -104h-228l-45 -213h108l-13 -64h-108z" />
<glyph unicode="&#x167;" horiz-adv-x="431" d="M371 30q-59 -42 -134 -42q-64 0 -106 30t-42 92q0 17 8 55l20 96h-85l13 63h85l23 106h-106l18 85h106l39 185h108l-39 -185h160l-19 -85h-159l-23 -106h114l-13 -63h-114l-20 -96q-2 -9 -3 -17t-1 -14q0 -25 15.5 -37.5t41.5 -12.5q22 0 42 7.5t34 18.5z" />
<glyph unicode="&#x168;" horiz-adv-x="735" d="M644 250q-27 -126 -110 -194.5t-214 -68.5q-56 0 -102 15t-80 42.5t-52.5 67.5t-18.5 90q0 37 10 81l90 417h115l-92 -428q-3 -16 -5 -29t-2 -24q0 -57 38.5 -91.5t107.5 -34.5q81 0 133 43t71 130l92 434h115zM659 854q-19 -39 -49 -65t-68 -26q-18 0 -37 6t-37 13.5 t-35 14t-33 6.5q-17 0 -36.5 -10.5t-36.5 -31.5l-41 30q18 40 48.5 66.5t68.5 26.5q18 0 37 -6.5t37 -14t35 -14t33 -6.5q17 0 36 10t36 33z" />
<glyph unicode="&#x169;" horiz-adv-x="597" d="M367 71q-37 -42 -81.5 -62.5t-92.5 -20.5q-38 0 -66.5 12t-47.5 32.5t-29 47.5t-10 57q0 14 2.5 30t5.5 30l68 318h109l-64 -303q-3 -12 -5 -23.5t-2 -21.5q0 -37 21.5 -58.5t65.5 -21.5q28 0 54.5 10.5t47.5 29.5t36.5 45.5t22.5 59.5l59 283h109l-109 -515h-109z M556 692q-19 -39 -49 -65t-68 -26q-18 0 -37 6t-37 13.5t-35 14t-33 6.5q-17 0 -36.5 -10.5t-36.5 -31.5l-41 30q18 40 48.5 66.5t68.5 26.5q18 0 37 -6.5t37 -14t35 -14t33 -6.5q17 0 36 10t36 33z" />
<glyph unicode="&#x16a;" horiz-adv-x="735" d="M644 250q-27 -126 -110 -194.5t-214 -68.5q-56 0 -102 15t-80 42.5t-52.5 67.5t-18.5 90q0 37 10 81l90 417h115l-92 -428q-3 -16 -5 -29t-2 -24q0 -57 38.5 -91.5t107.5 -34.5q81 0 133 43t71 130l92 434h115zM309 777l14 67h309l-14 -67h-309z" />
<glyph unicode="&#x16b;" horiz-adv-x="597" d="M367 71q-37 -42 -81.5 -62.5t-92.5 -20.5q-38 0 -66.5 12t-47.5 32.5t-29 47.5t-10 57q0 14 2.5 30t5.5 30l68 318h109l-64 -303q-3 -12 -5 -23.5t-2 -21.5q0 -37 21.5 -58.5t65.5 -21.5q28 0 54.5 10.5t47.5 29.5t36.5 45.5t22.5 59.5l59 283h109l-109 -515h-109z M209 615l14 67h309l-14 -67h-309z" />
<glyph unicode="&#x16c;" horiz-adv-x="735" d="M644 250q-27 -126 -110 -194.5t-214 -68.5q-56 0 -102 15t-80 42.5t-52.5 67.5t-18.5 90q0 37 10 81l90 417h115l-92 -428q-3 -16 -5 -29t-2 -24q0 -57 38.5 -91.5t107.5 -34.5q81 0 133 43t71 130l92 434h115zM466 756q-66 0 -107 30t-45 81q-1 5 -0.5 8.5t0.5 8.5 l60 15q3 -30 27 -49.5t66 -19.5q51 0 83.5 20.5t46.5 49.5l59 -21q-8 -25 -24.5 -47.5t-40.5 -39t-56 -26.5t-69 -10z" />
<glyph unicode="&#x16d;" horiz-adv-x="597" d="M367 71q-37 -42 -81.5 -62.5t-92.5 -20.5q-38 0 -66.5 12t-47.5 32.5t-29 47.5t-10 57q0 14 2.5 30t5.5 30l68 318h109l-64 -303q-3 -12 -5 -23.5t-2 -21.5q0 -37 21.5 -58.5t65.5 -21.5q28 0 54.5 10.5t47.5 29.5t36.5 45.5t22.5 59.5l59 283h109l-109 -515h-109z M360 594q-66 0 -107 30t-45 81q-1 5 -0.5 8.5t0.5 8.5l60 15q3 -30 27 -49.5t66 -19.5q51 0 83.5 20.5t46.5 49.5l59 -21q-8 -25 -24.5 -47.5t-40.5 -39t-56 -26.5t-69 -10z" />
<glyph unicode="&#x16e;" horiz-adv-x="735" d="M644 250q-27 -126 -110 -194.5t-214 -68.5q-56 0 -102 15t-80 42.5t-52.5 67.5t-18.5 90q0 37 10 81l90 417h115l-92 -428q-3 -16 -5 -29t-2 -24q0 -57 38.5 -91.5t107.5 -34.5q81 0 133 43t71 130l92 434h115zM575 822q0 -22 -8.5 -41t-24 -33.5t-36 -23t-44.5 -8.5 q-48 0 -77.5 29.5t-29.5 71.5q0 22 8.5 41.5t24 34t36 23t44.5 8.5t43.5 -8t33.5 -22t22 -32.5t8 -39.5zM518 822q0 22 -14 37.5t-37 15.5q-24 0 -39.5 -17.5t-15.5 -40.5q0 -22 14 -37t37 -15q24 0 39.5 17t15.5 40z" />
<glyph unicode="&#x16f;" horiz-adv-x="597" d="M367 71q-37 -42 -81.5 -62.5t-92.5 -20.5q-38 0 -66.5 12t-47.5 32.5t-29 47.5t-10 57q0 14 2.5 30t5.5 30l68 318h109l-64 -303q-3 -12 -5 -23.5t-2 -21.5q0 -37 21.5 -58.5t65.5 -21.5q28 0 54.5 10.5t47.5 29.5t36.5 45.5t22.5 59.5l59 283h109l-109 -515h-109z M476 680q0 -22 -8.5 -41t-24 -33.5t-36 -23t-44.5 -8.5q-48 0 -77.5 29.5t-29.5 71.5q0 22 8.5 41.5t24 34t36 23t44.5 8.5t43.5 -8t33.5 -22t22 -32.5t8 -39.5zM419 680q0 22 -14 37.5t-37 15.5q-24 0 -39.5 -17.5t-15.5 -40.5q0 -22 14 -37t37 -15q24 0 39.5 17t15.5 40z " />
<glyph unicode="&#x170;" horiz-adv-x="735" d="M644 250q-27 -126 -110 -194.5t-214 -68.5q-56 0 -102 15t-80 42.5t-52.5 67.5t-18.5 90q0 37 10 81l90 417h115l-92 -428q-3 -16 -5 -29t-2 -24q0 -57 38.5 -91.5t107.5 -34.5q81 0 133 43t71 130l92 434h115zM326 776q33 31 60 65t49 68l83 -33q-11 -18 -29.5 -37.5 t-40 -37.5t-45 -33t-43.5 -23zM502 776q32 31 59 65t50 68l82 -33q-11 -18 -29 -37.5t-40 -37.5t-45 -33t-43 -23z" />
<glyph unicode="&#x171;" horiz-adv-x="597" d="M367 71q-37 -42 -81.5 -62.5t-92.5 -20.5q-38 0 -66.5 12t-47.5 32.5t-29 47.5t-10 57q0 14 2.5 30t5.5 30l68 318h109l-64 -303q-3 -12 -5 -23.5t-2 -21.5q0 -37 21.5 -58.5t65.5 -21.5q28 0 54.5 10.5t47.5 29.5t36.5 45.5t22.5 59.5l59 283h109l-109 -515h-109z M229 614q33 31 60 65t49 68l83 -33q-11 -18 -29.5 -37.5t-40 -37.5t-45 -33t-43.5 -23zM405 614q32 31 59 65t50 68l82 -33q-11 -18 -29 -37.5t-40 -37.5t-45 -33t-43 -23z" />
<glyph unicode="&#x172;" horiz-adv-x="735" d="M505 -141q-14 -14 -41 -28.5t-66 -14.5q-18 0 -36.5 4.5t-32.5 14t-23 24t-9 34.5q0 28 18 52.5t46 45.5q-11 -2 -21.5 -3t-20.5 -1q-55 0 -101.5 15t-80 42.5t-52.5 67t-19 89.5q0 18 2.5 38.5t8.5 43.5l89 417h115l-92 -428q-3 -16 -5 -29t-2 -24q0 -57 38.5 -91.5 t108.5 -34.5q81 0 132.5 43t70.5 130l92 434h115l-96 -450q-17 -81 -56.5 -135.5t-98.5 -88.5q-19 -11 -38 -23.5t-34.5 -26.5t-25 -30t-9.5 -32q0 -19 14 -28.5t33 -9.5q17 0 30.5 6t21.5 13z" />
<glyph unicode="&#x173;" horiz-adv-x="597" d="M461 0q-45 -11 -69.5 -34.5t-24.5 -47.5q0 -18 13.5 -26.5t30.5 -8.5t29 6t20 12l24 -35q-14 -14 -39.5 -28t-62.5 -14q-18 0 -36 4.5t-32 13.5t-22.5 23.5t-8.5 34.5q0 29 19.5 54.5t49.5 45.5l15 71q-38 -42 -82.5 -62.5t-93.5 -20.5q-38 0 -66 12t-47 32t-28.5 46.5 t-9.5 56.5q0 14 2 28t4 26l70 326h109l-64 -303q-3 -12 -5 -23.5t-2 -21.5q0 -37 21.5 -58.5t65.5 -21.5q28 0 54.5 10.5t47.5 29.5t36.5 45.5t22.5 59.5l59 283h109z" />
<glyph unicode="&#x174;" horiz-adv-x="986" d="M703 0h-129l-33 539l-261 -539h-131l-37 700h116l18 -553l270 553h111l36 -554l250 554h130zM649 904q14 -22 41.5 -55.5t61.5 -58.5l-31 -41q-38 14 -72.5 37.5t-52.5 43.5q-10 -10 -27.5 -21t-39 -22t-46 -21t-48.5 -17l-22 45q38 23 77 51.5t75 58.5h84z" />
<glyph unicode="&#x175;" horiz-adv-x="793" d="M564 0h-115l-31 383l-195 -383h-114l-32 515h110l8 -387l197 387h99l31 -385l173 385h122zM523 742q14 -22 41.5 -55.5t61.5 -58.5l-31 -41q-38 14 -72.5 37.5t-52.5 43.5q-10 -10 -27.5 -21t-39 -22t-46 -21t-48.5 -17l-22 45q38 23 77 51.5t75 58.5h84z" />
<glyph unicode="&#x176;" horiz-adv-x="639" d="M369 279l-59 -279h-116l60 283l-180 417h127l128 -313l253 313h140zM471 904q14 -22 41.5 -55.5t61.5 -58.5l-31 -41q-38 14 -72.5 37.5t-52.5 43.5q-10 -10 -27.5 -21t-39 -22t-46 -21t-48.5 -17l-22 45q38 23 77 51.5t75 58.5h84z" />
<glyph unicode="&#x177;" horiz-adv-x="598" d="M377 108q-32 -40 -78.5 -60t-95.5 -20q-38 0 -66 12t-47.5 32.5t-29 47.5t-9.5 57q0 14 2 29.5t5 29.5l59 279h109l-57 -264q-2 -12 -4 -23.5t-2 -21.5q0 -37 21.5 -58.5t66.5 -21.5q66 0 107 45.5t58 120.5l48 223h107l-88 -414q-14 -65 -35 -117.5t-55.5 -89.5 t-85 -57.5t-121.5 -20.5q-62 0 -114.5 19t-84.5 51l64 77q26 -26 63.5 -39.5t76.5 -13.5q64 0 111 33.5t64 113.5zM433 742q14 -22 41.5 -55.5t61.5 -58.5l-31 -41q-38 14 -72.5 37.5t-52.5 43.5q-10 -10 -27.5 -21t-39 -22t-46 -21t-48.5 -17l-22 45q38 23 77 51.5t75 58.5 h84z" />
<glyph unicode="&#x178;" horiz-adv-x="639" d="M369 279l-59 -279h-116l60 283l-180 417h127l128 -313l253 313h140zM255 760l19 93h91l-20 -93h-90zM465 760l20 93h91l-21 -93h-90z" />
<glyph unicode="&#x179;" horiz-adv-x="626" d="M-26 0l20 95l482 501h-360l21 104h522l-19 -92l-487 -504h389l-23 -104h-545zM339 777q31 31 61.5 67.5t50.5 64.5l96 -29q-11 -19 -30 -39t-43 -38t-50.5 -33t-51.5 -25z" />
<glyph unicode="&#x17a;" horiz-adv-x="509" d="M-24 0l18 84l345 335h-262l20 96h412l-18 -83l-344 -337h282l-21 -95h-432zM268 615q25 28 51.5 64.5t43.5 67.5l98 -19q-9 -18 -25 -38t-37 -39.5t-45 -37t-47 -30.5z" />
<glyph unicode="&#x17b;" horiz-adv-x="626" d="M-26 0l20 95l482 501h-360l21 104h522l-19 -92l-487 -504h389l-23 -104h-545zM341 760l20 93h91l-21 -93h-90z" />
<glyph unicode="&#x17c;" horiz-adv-x="509" d="M-24 0l18 84l345 335h-262l20 96h412l-18 -83l-344 -337h282l-21 -95h-432zM266 598l20 93h91l-21 -93h-90z" />
<glyph unicode="&#x17d;" horiz-adv-x="626" d="M-26 0l20 95l482 501h-360l21 104h522l-19 -92l-487 -504h389l-23 -104h-545zM341 751q-14 23 -41 56t-62 59l30 40q40 -14 74 -37.5t52 -43.5q10 10 27.5 21.5t39.5 22.5t46.5 20.5t48.5 16.5l21 -46q-38 -21 -77 -50t-75 -59h-84z" />
<glyph unicode="&#x17e;" horiz-adv-x="509" d="M-24 0l18 84l345 335h-262l20 96h412l-18 -83l-344 -337h282l-21 -95h-432zM268 589q-14 23 -41 56t-62 59l30 40q40 -14 74 -37.5t52 -43.5q10 10 27.5 21.5t39.5 22.5t46.5 20.5t48.5 16.5l21 -46q-38 -21 -77 -50t-75 -59h-84z" />
<glyph unicode="&#x192;" d="M246 47q-31 -83 -80 -126t-125 -43q-38 0 -64 9t-44 21l52 82q11 -8 25.5 -14.5t36.5 -6.5q38 0 59.5 23.5t36.5 64.5l112 296h-98l18 87h115l39 105q31 83 80 126t125 43q37 0 62.5 -9.5t44.5 -21.5l-52 -81q-11 8 -25.5 14t-35.5 6q-40 0 -61 -23t-36 -64l-36 -95h124 l-19 -87h-138z" />
<glyph unicode="&#x1fa;" horiz-adv-x="682" d="M401 872l117 128h143l-173 -128h-87zM410 597l-180 -316h225zM490 760q0 23 -15 40.5t-39 17.5q-26 0 -42.5 -18.5t-16.5 -44.5q0 -23 15.5 -39t39.5 -16q25 0 41.5 17.5t16.5 42.5zM548 760q0 -28 -13.5 -50t-35.5 -35l117 -675h-122l-28 184h-289l-106 -184h-131 l410 685q-14 13 -22.5 31.5t-8.5 39.5q0 23 9 43.5t25 35.5t37.5 24t45.5 9t44.5 -8.5t35.5 -23.5t23.5 -34.5t8.5 -41.5z" />
<glyph unicode="&#x1fb;" horiz-adv-x="669" d="M450 282q0 31 -8 58t-24.5 47t-41 31.5t-57.5 11.5q-41 0 -72.5 -16.5t-53 -44t-32.5 -63t-11 -72.5q0 -30 7.5 -57.5t22.5 -48t39 -32.5t57 -12q42 0 74 17.5t54.5 45.5t34 63.5t11.5 71.5zM531 148q-2 -8 -4 -18t-2 -18q0 -14 8.5 -23t27.5 -9q22 0 37 12l18 -83 q-13 -8 -34.5 -13t-47.5 -5q-21 0 -40.5 5t-34.5 15t-24.5 25t-9.5 35q-34 -42 -78.5 -62.5t-95.5 -20.5t-91.5 18.5t-68 50.5t-42 76.5t-14.5 96.5q0 60 20.5 114t56.5 94.5t86 64.5t109 24q52 0 98.5 -23.5t77.5 -79.5l19 91h108zM447 666q0 -22 -8.5 -41t-24 -33.5 t-36 -23t-44.5 -8.5q-48 0 -77.5 29.5t-29.5 71.5q0 22 8.5 41.5t24 34t36 23t44.5 8.5t43.5 -8t33.5 -22t22 -32.5t8 -39.5zM390 666q0 22 -14 37.5t-37 15.5q-24 0 -39.5 -17.5t-15.5 -40.5q0 -22 14 -37t37 -15q24 0 39.5 17t15.5 40zM296 823q31 31 61.5 67.5t50.5 64.5 l96 -29q-11 -19 -30 -39t-43 -38t-50.5 -33t-51.5 -25z" />
<glyph unicode="&#x1fc;" horiz-adv-x="897" d="M380 0l39 184h-237l-130 -184h-128l500 700h558l-23 -104h-336l-38 -179h278l-20 -97h-279l-46 -216h338l-23 -104h-453zM508 603h-35l-224 -322h191zM552 777q31 31 61.5 67.5t50.5 64.5l96 -29q-11 -19 -30 -39t-43 -38t-50.5 -33t-51.5 -25z" />
<glyph unicode="&#x1fd;" horiz-adv-x="1000" d="M748 526q48 0 87 -17t66.5 -45.5t42.5 -67.5t15 -82q0 -26 -4 -46.5t-8 -31.5h-391v-16q0 -63 38.5 -100t104.5 -37q45 0 84 17t68 49l66 -66q-92 -95 -225 -95q-81 0 -135 32t-79 86q-38 -54 -94 -86t-128 -32q-53 0 -94 18.5t-69.5 51t-43 76.5t-14.5 96q0 60 20.5 114 t56.5 94.5t86 64.5t109 24q53 0 99.5 -23.5t76.5 -79.5l19 91h108l-11 -50q23 25 60.5 43t88.5 18zM450 282q0 31 -8 58t-24.5 47t-41 31.5t-57.5 11.5q-41 0 -72.5 -16.5t-53 -44t-32.5 -63t-11 -72.5q0 -30 7.5 -57.5t22.5 -48t39 -32.5t57 -12q42 0 74 17.5t54.5 45.5 t34 63.5t11.5 71.5zM851 312q1 3 1 6.5v6.5q0 53 -36 84t-92 31q-61 0 -102.5 -35.5t-54.5 -92.5h284zM525 615q31 31 61.5 67.5t50.5 64.5l96 -29q-11 -19 -30 -39t-43 -38t-50.5 -33t-51.5 -25z" />
<glyph unicode="&#x1fe;" horiz-adv-x="784" d="M398 777q31 31 61.5 67.5t50.5 64.5l96 -29q-11 -19 -30 -39t-43 -38t-50.5 -33t-51.5 -25zM105 25l41 51q-44 46 -66.5 108.5t-22.5 135.5q0 81 28 153t77.5 125t118.5 84t150 31q54 0 99 -13.5t82 -39.5l40 49l45 -35l-40 -51q43 -45 66 -107.5t23 -135.5 q0 -81 -28 -153t-77.5 -125t-118.5 -84t-150 -31q-55 0 -101 13.5t-82 39.5l-40 -49zM626 383q0 91 -43 151l-325 -409q23 -16 51.5 -24.5t63.5 -8.5q57 0 103.5 23t79.5 62.5t51.5 92.5t18.5 113zM177 316q0 -92 42 -149l325 408q-23 15 -51.5 24t-63.5 9q-57 0 -103.5 -23 t-79.5 -62.5t-51 -93t-18 -113.5z" />
<glyph unicode="&#x1ff;" horiz-adv-x="613" d="M281 615q31 31 61.5 67.5t50.5 64.5l96 -29q-11 -19 -30 -39t-43 -38t-50.5 -33t-51.5 -25zM77 25l25 31q-65 67 -65 179q0 61 20.5 114.5t57.5 93t89 62t116 22.5q41 0 74.5 -9t62.5 -26l26 32l41 -33l-26 -32q32 -33 49 -78.5t17 -101.5q0 -61 -20.5 -114t-57.5 -92.5 t-89 -62t-116 -22.5q-81 0 -137 35l-26 -32zM450 284q0 50 -23 87l-219 -269q14 -9 32.5 -14.5t40.5 -5.5q39 0 70.5 17t53 45.5t33.5 64.5t12 75zM151 232q0 -50 22 -88l220 268q-31 20 -72 20q-40 0 -71.5 -17t-53.5 -45t-33.5 -64t-11.5 -74z" />
<glyph unicode="&#x218;" horiz-adv-x="623" d="M215 525q0 -21 9.5 -36.5t27 -27.5t42 -23t54.5 -23q47 -19 87 -38.5t69 -44t45 -57.5t16 -78q0 -43 -18.5 -81t-54 -66.5t-85.5 -45.5t-113 -17q-100 0 -175 42.5t-113 116.5l94 53q15 -30 37.5 -51.5t50 -35t58 -20t60.5 -6.5q62 0 102.5 28t40.5 78q0 23 -10 39.5 t-29.5 29.5t-47.5 25t-64 26q-42 16 -78 34t-62.5 41.5t-42 54.5t-15.5 73q0 46 19 82.5t52.5 62t78.5 39.5t97 14q86 0 153 -36t109 -100l-91 -56q-25 43 -69.5 67.5t-104.5 24.5q-27 0 -50.5 -5.5t-41 -16t-27.5 -27.5t-10 -39zM107 -166q28 29 54.5 63t44.5 61l96 -20 q-10 -19 -28 -38.5t-40.5 -38t-46.5 -33.5t-46 -25z" />
<glyph unicode="&#x219;" horiz-adv-x="523" d="M459 152q0 -35 -15 -65t-43 -52t-69.5 -34.5t-93.5 -12.5q-81 0 -144 29.5t-101 86.5l80 47q27 -39 70 -58.5t93 -19.5q48 0 80 17t32 51q0 15 -7.5 25.5t-22 18.5t-35.5 16t-49 17q-30 10 -59 21.5t-52.5 29t-38 42.5t-14.5 61q0 39 16.5 68t45 48.5t66 29t78.5 9.5 q38 0 71.5 -7.5t61.5 -20t50.5 -28.5t39.5 -33l-73 -57q-25 26 -64 43.5t-85 17.5q-18 0 -36 -3.5t-31.5 -10t-22 -17.5t-8.5 -26q0 -28 26.5 -43t69.5 -29q31 -10 63.5 -21.5t59.5 -29.5t44 -44.5t17 -65.5zM68 -166q28 29 54.5 63t44.5 61l96 -20q-10 -19 -28 -38.5 t-40.5 -38t-46.5 -33.5t-46 -25z" />
<glyph unicode="&#x21a;" horiz-adv-x="610" d="M424 596l-128 -596h-113l126 596h-228l23 104h569l-22 -104h-227zM76 -166q28 29 54.5 63t44.5 61l96 -20q-10 -19 -28 -38.5t-40.5 -38t-46.5 -33.5t-46 -25z" />
<glyph unicode="&#x237;" horiz-adv-x="257" d="M115 -29q-17 -83 -60 -118.5t-105 -35.5q-40 0 -69 11.5t-49 31.5l54 72q8 -10 21.5 -17.5t30.5 -7.5q32 0 48.5 25t24.5 63l111 520h108z" />
<glyph unicode="&#x259;" horiz-adv-x="593" d="M26 215q0 23 4 43.5t8 30.5h390q1 5 1 15q0 63 -37 100.5t-103 37.5q-44 0 -83 -17.5t-69 -48.5l-66 66q92 95 225 95q61 0 108 -19t78.5 -52t47.5 -78.5t16 -98.5q0 -61 -21 -115.5t-58.5 -96t-90.5 -65.5t-117 -24q-56 0 -99 17.5t-73 48t-45.5 72t-15.5 89.5zM135 213 q-4 -68 32 -102.5t92 -34.5q60 0 102.5 37.5t55.5 99.5h-282z" />
<glyph unicode="&#x2c6;" horiz-adv-x="326" d="M301 742q14 -22 41.5 -55.5t61.5 -58.5l-31 -41q-38 14 -72.5 37.5t-52.5 43.5q-10 -10 -27.5 -21t-39 -22t-46 -21t-48.5 -17l-22 45q38 23 77 51.5t75 58.5h84z" />
<glyph unicode="&#x2c7;" horiz-adv-x="326" d="M196 589q-14 23 -41 56t-62 59l30 40q40 -14 74 -37.5t52 -43.5q10 10 27.5 21.5t39.5 22.5t46.5 20.5t48.5 16.5l21 -46q-38 -21 -77 -50t-75 -59h-84z" />
<glyph unicode="&#x2d8;" horiz-adv-x="327" d="M239 594q-66 0 -107 30t-45 81q-1 5 -0.5 8.5t0.5 8.5l60 15q3 -30 27 -49.5t66 -19.5q51 0 83.5 20.5t46.5 49.5l59 -21q-8 -25 -24.5 -47.5t-40.5 -39t-56 -26.5t-69 -10z" />
<glyph unicode="&#x2d9;" horiz-adv-x="317" d="M182 598l20 93h91l-21 -93h-90z" />
<glyph unicode="&#x2da;" horiz-adv-x="320" d="M355 680q0 -22 -8.5 -41t-24 -33.5t-36 -23t-44.5 -8.5q-48 0 -77.5 29.5t-29.5 71.5q0 22 8.5 41.5t24 34t36 23t44.5 8.5t43.5 -8t33.5 -22t22 -32.5t8 -39.5zM298 680q0 22 -14 37.5t-37 15.5q-24 0 -39.5 -17.5t-15.5 -40.5q0 -22 14 -37t37 -15q24 0 39.5 17 t15.5 40z" />
<glyph unicode="&#x2db;" horiz-adv-x="317" d="M222 -134q-14 -14 -39.5 -28t-62.5 -14q-18 0 -36 4.5t-32 13.5t-22.5 23t-8.5 33q0 22 11 41t29 34.5t40 28.5t44 23h60q-18 -11 -35.5 -23.5t-32 -26t-23.5 -28t-9 -29.5q0 -18 13.5 -26.5t30.5 -8.5t29 6t20 12z" />
<glyph unicode="&#x2dc;" horiz-adv-x="342" d="M431 692q-19 -39 -49 -65t-68 -26q-18 0 -37 6t-37 13.5t-35 14t-33 6.5q-17 0 -36.5 -10.5t-36.5 -31.5l-41 30q18 40 48.5 66.5t68.5 26.5q18 0 37 -6.5t37 -14t35 -14t33 -6.5q17 0 36 10t36 33z" />
<glyph unicode="&#x2dd;" horiz-adv-x="367" d="M103 614q33 31 60 65t49 68l83 -33q-11 -18 -29.5 -37.5t-40 -37.5t-45 -33t-43.5 -23zM279 614q32 31 59 65t50 68l82 -33q-11 -18 -29 -37.5t-40 -37.5t-45 -33t-43 -23z" />
<glyph unicode="&#x3c0;" horiz-adv-x="585" d="M517 436l-94 -436h-78l94 436h-228l-93 -436h-78l93 436h-69l17 79h521l-17 -79h-68z" />
<glyph unicode="&#x1e80;" horiz-adv-x="986" d="M703 0h-129l-33 539l-261 -539h-131l-37 700h116l18 -553l270 553h111l36 -554l250 554h130zM602 745q-22 12 -45 29.5t-43.5 37t-36.5 40t-24 39.5l99 18q15 -31 41.5 -68t51.5 -65z" />
<glyph unicode="&#x1e81;" horiz-adv-x="793" d="M564 0h-115l-31 383l-195 -383h-114l-32 515h110l8 -387l197 387h99l31 -385l173 385h122zM460 583q-22 12 -45 29.5t-43.5 37t-36.5 40t-24 39.5l99 18q15 -31 41.5 -68t51.5 -65z" />
<glyph unicode="&#x1e82;" horiz-adv-x="986" d="M703 0h-129l-33 539l-261 -539h-131l-37 700h116l18 -553l270 553h111l36 -554l250 554h130zM539 777q31 31 61.5 67.5t50.5 64.5l96 -29q-11 -19 -30 -39t-43 -38t-50.5 -33t-51.5 -25z" />
<glyph unicode="&#x1e83;" horiz-adv-x="793" d="M564 0h-115l-31 383l-195 -383h-114l-32 515h110l8 -387l197 387h99l31 -385l173 385h122zM414 615q31 31 61.5 67.5t50.5 64.5l96 -29q-11 -19 -30 -39t-43 -38t-50.5 -33t-51.5 -25z" />
<glyph unicode="&#x1e84;" horiz-adv-x="986" d="M703 0h-129l-33 539l-261 -539h-131l-37 700h116l18 -553l270 553h111l36 -554l250 554h130zM434 760l19 93h91l-20 -93h-90zM644 760l20 93h91l-21 -93h-90z" />
<glyph unicode="&#x1e85;" horiz-adv-x="793" d="M564 0h-115l-31 383l-195 -383h-114l-32 515h110l8 -387l197 387h99l31 -385l173 385h122zM306 598l19 93h91l-20 -93h-90zM516 598l20 93h91l-21 -93h-90z" />
<glyph unicode="&#x1ef2;" horiz-adv-x="639" d="M369 279l-59 -279h-116l60 283l-180 417h127l128 -313l253 313h140zM411 745q-22 12 -45 29.5t-43.5 37t-36.5 40t-24 39.5l99 18q15 -31 41.5 -68t51.5 -65z" />
<glyph unicode="&#x1ef3;" horiz-adv-x="598" d="M377 108q-32 -40 -78.5 -60t-95.5 -20q-38 0 -66 12t-47.5 32.5t-29 47.5t-9.5 57q0 14 2 29.5t5 29.5l59 279h109l-57 -264q-2 -12 -4 -23.5t-2 -21.5q0 -37 21.5 -58.5t66.5 -21.5q66 0 107 45.5t58 120.5l48 223h107l-88 -414q-14 -65 -35 -117.5t-55.5 -89.5 t-85 -57.5t-121.5 -20.5q-62 0 -114.5 19t-84.5 51l64 77q26 -26 63.5 -39.5t76.5 -13.5q64 0 111 33.5t64 113.5zM359 583q-22 12 -45 29.5t-43.5 37t-36.5 40t-24 39.5l99 18q15 -31 41.5 -68t51.5 -65z" />
<glyph unicode="&#x2013;" d="M54 258l20 92h482l-20 -92h-482z" />
<glyph unicode="&#x2014;" horiz-adv-x="915" d="M53 258l20 92h794l-20 -92h-794z" />
<glyph unicode="&#x2018;" horiz-adv-x="240" d="M110 545q13 60 43.5 99.5t87.5 68.5l25 -49q-33 -16 -54 -40.5t-28 -53.5l-6 -25h57l-24 -113h-125z" />
<glyph unicode="&#x2019;" horiz-adv-x="230" d="M244 587q-13 -60 -43.5 -99.5t-88.5 -68.5l-25 50q34 15 55 39.5t28 53.5l6 25h-58l25 113h125z" />
<glyph unicode="&#x201a;" horiz-adv-x="262" d="M135 7q-13 -60 -43.5 -99t-88.5 -68l-25 49q34 16 55 40.5t28 53.5l6 25h-58l25 112h125z" />
<glyph unicode="&#x201c;" horiz-adv-x="442" d="M312 545q13 60 43.5 99.5t87.5 68.5l25 -49q-33 -16 -54 -40.5t-29 -53.5l-6 -25h58l-24 -113h-125zM110 545q13 60 43.5 99.5t87.5 68.5l25 -49q-33 -16 -54 -40.5t-28 -53.5l-6 -25h57l-24 -113h-125z" />
<glyph unicode="&#x201d;" horiz-adv-x="432" d="M349 587q-13 -60 -43.5 -99.5t-87.5 -68.5l-25 50q33 15 54 39.5t28 53.5l6 25h-57l24 113h125zM340 587q-13 -60 -43.5 -99.5t-87.5 -68.5l-25 50q33 15 54 39.5t29 53.5l6 25h-58l24 113h125z" />
<glyph unicode="&#x201e;" horiz-adv-x="463" d="M135 7q-13 -60 -43.5 -99t-88.5 -68l-25 49q34 16 55 40.5t28 53.5l6 25h-58l25 112h125zM336 7q-12 -60 -43 -99t-88 -68l-25 49q33 16 54 40.5t29 53.5l6 25h-58l24 112h125z" />
<glyph unicode="&#x2020;" horiz-adv-x="510" d="M335 423l-91 -423h-104l91 423h-155l20 92h155l39 185h104l-40 -185h155l-19 -92h-155z" />
<glyph unicode="&#x2021;" horiz-adv-x="536" d="M292 155l-34 -155h-104l34 155h-155l20 93h154l44 205h-155l20 92h154l34 155h104l-34 -155h155l-20 -92h-154l-44 -205h155l-19 -93h-155z" />
<glyph unicode="&#x2022;" horiz-adv-x="384" d="M54 333q0 30 11.5 56.5t31 46.5t46 31.5t56.5 11.5t56.5 -11.5t46.5 -31.5t31.5 -46.5t11.5 -56.5t-11.5 -56.5t-31.5 -46t-46.5 -31t-56.5 -11.5t-56.5 11.5t-46 31t-31 46t-11.5 56.5z" />
<glyph unicode="&#x2025;" horiz-adv-x="505" d="M9 0l26 124h125l-26 -124h-125zM251 0l27 124h125l-26 -124h-126z" />
<glyph unicode="&#x2026;" horiz-adv-x="739" d="M9 0l26 124h125l-26 -124h-125zM246 0l27 124h125l-26 -124h-126zM485 0l26 124h125l-26 -124h-125z" />
<glyph unicode="&#x2030;" horiz-adv-x="1163" d="M217 0h-86l491 700h86zM737 172q0 -36 -12.5 -69t-35.5 -58t-54.5 -39.5t-70.5 -14.5q-33 0 -60.5 12t-46.5 33t-29.5 49t-10.5 60q0 37 12.5 69.5t35.5 57.5t55 39.5t70 14.5q34 0 61.5 -12t46.5 -32.5t29 -48.5t10 -61zM660 169q0 37 -18.5 60.5t-55.5 23.5 q-42 0 -66.5 -31t-24.5 -74q0 -36 18.5 -60t54.5 -24q42 0 67 31t25 74zM422 555q0 -37 -12.5 -70t-35 -57.5t-54.5 -39t-70 -14.5q-34 0 -61.5 12t-46.5 33t-29 49t-10 60q0 36 12.5 69t35.5 58t54.5 39.5t70.5 14.5q34 0 61 -12t46 -33t29 -49t10 -60zM346 552 q0 37 -19 60.5t-55 23.5q-42 0 -67 -31t-25 -74q0 -36 18.5 -60t55.5 -24q42 0 67 31t25 74zM1089 172q0 -36 -12.5 -69t-35.5 -58t-54.5 -39.5t-70.5 -14.5q-33 0 -60 12t-46 33t-29.5 49t-10.5 60q0 37 12.5 69.5t35 57.5t54.5 39.5t70 14.5q34 0 61.5 -12t46.5 -32.5 t29 -48.5t10 -61zM1013 169q0 37 -19 60.5t-55 23.5q-42 0 -67 -31t-25 -74q0 -36 18.5 -60t54.5 -24q42 0 67.5 31t25.5 74z" />
<glyph unicode="&#x2039;" horiz-adv-x="287" d="M31 284l188 193l51 -51l-156 -174l80 -169l-66 -36l-105 198z" />
<glyph unicode="&#x203a;" horiz-adv-x="287" d="M244 241l-189 -194l-50 52l156 174l-81 169l66 35l106 -197z" />
<glyph unicode="&#x2044;" horiz-adv-x="225" d="M-109 0h-85l554 700h86z" />
<glyph unicode="&#x20ac;" d="M567 63q-38 -35 -85.5 -55.5t-109.5 -20.5t-112 20t-87 55.5t-60.5 84.5t-32.5 106h-85l12 58h69q0 20 1 39t5 38h-59l13 57h59q18 58 52 107.5t80 85t102.5 55.5t121.5 20q60 0 108.5 -17.5t86.5 -47.5l-68 -85q-24 22 -55.5 34t-72.5 12q-81 0 -140.5 -45t-88.5 -119 h258l-12 -57h-264q-5 -19 -6 -38t-1 -39h255l-14 -58h-235q12 -74 57 -118t119 -44q76 0 130 54z" />
<glyph unicode="&#x2113;" horiz-adv-x="541" d="M444 83q-11 -16 -27.5 -33t-39 -30.5t-51.5 -22.5t-65 -9q-68 0 -107.5 32.5t-39.5 89.5q0 9 1 20t5 29l6 32q-42 -22 -75 -35l-19 79q25 8 55 22t60 31l45 215q6 27 16 57.5t28.5 57t48.5 43.5t75 17q65 0 103 -36.5t38 -96.5q0 -41 -20.5 -82t-56.5 -80t-84.5 -74.5 t-105.5 -65.5l-17 -81q-2 -8 -3.5 -17.5t-1.5 -17.5q0 -26 18.5 -38.5t44.5 -12.5q38 0 64.5 20t41.5 43zM256 350q70 47 110 97t40 94q0 23 -11.5 38t-35.5 15q-17 0 -28.5 -7.5t-19.5 -19.5t-13 -27t-8 -30z" />
<glyph unicode="&#x2117;" horiz-adv-x="861" d="M810 350q0 -76 -29 -143t-79.5 -117.5t-117.5 -79.5t-143 -29q-77 0 -144 29t-117.5 79.5t-79.5 117.5t-29 143t29 143.5t79.5 117.5t117.5 79t144 29q76 0 143 -29t117.5 -79t79.5 -117.5t29 -143.5zM748 350q0 64 -24 120t-66 98t-98 66t-119 24t-119 -24t-98 -66 t-66.5 -98t-24.5 -120q0 -63 24 -119t66 -98t98 -66.5t120 -24.5q63 0 119 24.5t98 66.5t66 98t24 119zM387 290v-143h-85v405h181q70 0 108.5 -37t38.5 -94q0 -27 -9 -50.5t-27.5 -41.5t-46.5 -28.5t-65 -10.5h-95zM544 420q0 35 -22.5 50t-64.5 15h-70v-130h70q43 0 65 15 t22 50z" />
<glyph unicode="&#x2122;" horiz-adv-x="739" d="M630 412l46 218l-117 -218h-55l-24 218l-45 -218h-59l61 288h87l23 -221l118 221h85l-61 -288h-59zM287 642l-49 -230h-61l49 230h-92l12 58h247l-12 -58h-94z" />
<glyph unicode="&#x2126;" horiz-adv-x="682" d="M403 713q56 0 101 -19t76.5 -52.5t48 -80.5t16.5 -104q0 -66 -22 -122.5t-56 -104t-74 -85.5t-76 -68h142l-17 -77h-221l-2 73q59 53 104.5 99.5t76.5 92t47 92t16 98.5q0 82 -42.5 132.5t-121.5 50.5q-50 0 -93.5 -20.5t-75.5 -57t-50.5 -86t-18.5 -107.5 q0 -72 25.5 -144t73.5 -150l-33 -73h-208l16 77h140q-15 25 -32 56t-31 67t-23 77.5t-9 88.5q0 67 24 130t66.5 111t102 77t130.5 29z" />
<glyph unicode="&#x212e;" horiz-adv-x="655" d="M181 273v-187q31 -30 68 -45.5t82 -15.5q65 0 113 29t86 95l36 -22q-24 -37 -48.5 -63t-52.5 -43t-61 -25t-73 -8q-61 0 -110 22t-83.5 60.5t-53.5 90.5t-19 112t19 112t53.5 90.5t83.5 60.5t110 22q60 0 109 -21t84 -59t54.5 -90t19.5 -115h-417zM482 310v150 q-67 62 -152 62q-45 0 -81.5 -16t-67.5 -46v-150h301z" />
<glyph unicode="&#x2139;" horiz-adv-x="918" d="M419 554q-3 -23 -5.5 -40t-5.5 -33h95q34 0 57.5 24t23.5 59q0 34 -22.5 57t-60.5 23q-28 0 -51.5 -18.5t-30.5 -71.5zM463 34q35 0 72 10t69 28l-19 41q-20 -11 -36.5 -15t-31.5 -4q-30 0 -50.5 16t-20.5 52q0 18 5 41t11 43l52 174h-122l-34 -132q-11 -44 -19 -79 t-8 -61q0 -55 36 -84.5t96 -29.5zM40 333q0 87 33 163t90 133t133 90t163 33t163 -33t133 -90t90 -133t33 -163t-33 -163t-90 -133t-133 -90t-163 -33t-163 33t-133 90t-90 133t-33 163z" />
<glyph unicode="&#x2190;" horiz-adv-x="918" d="M88 333l334 335l64 -64l-225 -225h556v-92h-556l225 -225l-64 -64z" />
<glyph unicode="&#x2191;" horiz-adv-x="918" d="M459 729l347 -347l-63 -64l-238 237v-555h-92v555l-238 -237l-63 64z" />
<glyph unicode="&#x2192;" horiz-adv-x="918" d="M496 -2l-64 64l224 225h-555v92h555l-224 225l64 64l334 -335z" />
<glyph unicode="&#x2193;" horiz-adv-x="918" d="M112 332l63 63l238 -237v556h92v-556l238 237l63 -63l-347 -347z" />
<glyph unicode="&#x2196;" horiz-adv-x="918" d="M682 512h-336l394 -393l-66 -66l-394 393v-336h-89v491h491v-89z" />
<glyph unicode="&#x2197;" horiz-adv-x="918" d="M236 601h491v-491h-89v336l-394 -393l-66 66l394 393h-336v89z" />
<glyph unicode="&#x2198;" horiz-adv-x="918" d="M236 155h336l-394 393l66 66l394 -394v336h89v-491h-491v90z" />
<glyph unicode="&#x2199;" horiz-adv-x="918" d="M682 65h-491v491h89v-336l394 394l66 -66l-394 -393h336v-90z" />
<glyph unicode="&#x2202;" horiz-adv-x="636" d="M299 496q47 0 88 -16t64 -44q-13 36 -34.5 69.5t-48.5 62t-58.5 51.5t-64.5 39l76 67q121 -67 188 -174t67 -246q0 -73 -21.5 -131.5t-60 -100t-91.5 -63.5t-115 -22q-57 0 -102 18.5t-77 50.5t-49 76.5t-17 96.5q0 56 19.5 104.5t54 84.5t81.5 56.5t101 20.5zM459 262 q0 30 -8.5 56t-25.5 46t-43 31.5t-61 11.5q-41 0 -71 -15.5t-50.5 -40.5t-30.5 -57t-10 -66q0 -60 33.5 -101t101.5 -41q40 0 71 14.5t52 39t31.5 56.5t10.5 66z" />
<glyph unicode="&#x2206;" horiz-adv-x="624" d="M523 0h-539l3 14l412 700h12l115 -700zM114 79h322l-69 433z" />
<glyph unicode="&#x220f;" horiz-adv-x="660" d="M599 619l-132 -619h-80l132 619h-244l-131 -619h-79l132 619h-73l18 81h546l-17 -81h-72z" />
<glyph unicode="&#x2211;" horiz-adv-x="616" d="M487 0h-501l5 25l374 337l-236 313l6 25h501l-18 -81h-345l201 -269l-305 -270h336z" />
<glyph unicode="&#x2212;" d="M53 258l19 92h482l-20 -92h-481z" />
<glyph unicode="&#x221a;" horiz-adv-x="573" d="M671 699l-523 -753h-12l-124 391l76 25l80 -251l439 633z" />
<glyph unicode="&#x221e;" horiz-adv-x="829" d="M760 275q0 -35 -13 -65.5t-36 -53.5t-53.5 -36t-64.5 -13t-62.5 11t-54.5 37l-66 65l-65 -65q-26 -26 -54 -37t-63 -11t-65.5 13t-53.5 36t-36 53.5t-13 65.5t13 65.5t36 53.5t53.5 36t65.5 13t63 -11t54 -37l65 -65l66 65q26 26 54.5 37t62.5 11t64.5 -13t53.5 -36 t36 -53.5t13 -65.5zM681 275q0 18 -7 34.5t-19 28.5t-28 19t-34 7q-20 0 -37 -9t-32.5 -22t-30 -29t-27.5 -29l62 -61q27 -28 65 -28q18 0 34 7t28 19t19 28.5t7 34.5zM293 337q-27 27 -65 27q-37 0 -63 -26t-26 -63t26 -63t63 -26q20 0 37.5 9t32.5 22t29 28.5t28 29.5z " />
<glyph unicode="&#x222b;" horiz-adv-x="320" d="M121 298q4 34 9 79.5t10.5 90t11 82.5t9.5 57q12 59 46.5 88.5t83.5 29.5q33 0 54.5 -11.5t35.5 -27.5l-50 -50q-14 20 -39 20q-40 0 -52 -57q-3 -17 -7.5 -48t-9 -70.5t-9.5 -86t-10 -92.5q-14 -125 -23.5 -199t-16.5 -110q-12 -59 -46.5 -88.5t-83.5 -29.5 q-33 0 -54.5 11.5t-35.5 27.5l50 50q14 -20 39 -20q23 0 34.5 17t16.5 40q2 10 5 30t7.5 54.5t10.5 86.5t14 126z" />
<glyph unicode="&#x2248;" d="M29 192q13 15 31 31t38.5 29.5t43.5 22.5t47 9q28 0 51.5 -9t56.5 -25q32 -15 55 -23.5t47 -8.5q29 0 58 13t57 35l27 -39q-14 -15 -31.5 -31t-37.5 -29.5t-43 -22.5t-48 -9q-29 0 -52 9t-56 25q-32 16 -55 24.5t-46 8.5q-30 0 -59.5 -14t-56.5 -34zM70 383 q13 15 30.5 31t38 29.5t43.5 22t47 8.5q28 0 51.5 -9t57.5 -25q32 -15 54.5 -23.5t46.5 -8.5q29 0 58.5 13t57.5 35l27 -38q-14 -15 -32 -31.5t-38 -30t-43 -22.5t-48 -9q-28 0 -51 9t-57 25q-32 16 -54.5 24.5t-46.5 8.5q-29 0 -58.5 -14t-57.5 -34z" />
<glyph unicode="&#x2260;" d="M268 151l-87 -161h-71l86 161h-183l17 83h210l47 85h-239l18 84h266l87 161h71l-86 -161h183l-18 -84h-211l-46 -85h239l-18 -83h-265z" />
<glyph unicode="&#x2264;" d="M2 0l19 87h481l-18 -87h-482zM582 565l-323 -179l247 -177l-53 -76l-363 260l447 253z" />
<glyph unicode="&#x2265;" d="M5 0l18 87h482l-19 -87h-481zM70 214l323 180l-247 176l53 76l364 -260l-447 -252z" />
<glyph unicode="&#x229b;" horiz-adv-x="918" d="M878 333q0 -87 -33 -163t-90 -133t-133 -90t-163 -33t-163 33t-133 90t-90 133t-33 163t33 163t90 133t133 90t163 33t163 -33t133 -90t90 -133t33 -163zM828 333q0 76 -29 143t-79.5 117.5t-117.5 79.5t-143 29t-143 -29t-117.5 -79.5t-79.5 -117.5t-29 -143t29 -143 t79.5 -117.5t117.5 -79.5t143 -29t143 29t117.5 79.5t79.5 117.5t29 143zM430 202q5 20 9 47.5t5 58.5q-22 -14 -43 -30t-41 -36q-22 -22 -40 -42.5t-35 -29.5q-13 -7 -27 -7q-29 0 -46 27q-8 14 -8 29q0 29 27 45q18 11 44 16t56 13q31 8 52 17t47 23q-26 14 -51.5 24 t-47.5 16q-29 8 -55.5 13t-44.5 16q-14 8 -20.5 19.5t-6.5 25.5q0 15 8 29q17 27 46 27q14 0 27 -7q17 -9 33.5 -28t41.5 -44q36 -36 84 -66q-1 56 -14 106q-8 29 -16.5 54.5t-8.5 45.5q0 25 15.5 39.5t38.5 14.5t38.5 -14.5t15.5 -39.5q0 -20 -8.5 -45.5t-16.5 -54.5 q-5 -20 -9 -48t-6 -58q48 29 85 66q23 23 40.5 42.5t34.5 29.5q13 7 27 7q29 0 46 -27q8 -14 8 -29q0 -14 -6.5 -25.5t-20.5 -19.5q-18 -11 -45.5 -16t-54.5 -13q-47 -13 -100 -40q26 -14 49.5 -23.5t50.5 -16.5q37 -10 60 -14.5t40 -14.5q27 -16 27 -45q0 -15 -8 -29 q-17 -27 -46 -27q-14 0 -27 7q-17 9 -33.5 28t-41.5 44q-19 19 -39.5 34.5t-45.5 31.5q3 -58 15 -106q9 -34 17 -56.5t8 -42.5q0 -26 -15.5 -40.5t-38.5 -14.5t-38.5 14.5t-15.5 40.5q0 20 8 42.5t17 56.5z" />
<glyph unicode="&#x25a0;" horiz-adv-x="766" d="M716 666v-666h-666v666h666z" />
<glyph unicode="&#x25a1;" horiz-adv-x="766" d="M716 666v-666h-666v666h666zM100 616v-566h566v566h-566z" />
<glyph unicode="&#x25b2;" horiz-adv-x="532" d="M500 0h-468l234 720z" />
<glyph unicode="&#x25b6;" horiz-adv-x="469" d="M70 686l353 -353l-353 -353v706z" />
<glyph unicode="&#x25b7;" horiz-adv-x="469" d="M70 686l353 -353l-353 -353v706zM114 86l247 247l-247 247v-494z" />
<glyph unicode="&#x25ba;" horiz-adv-x="830" d="M70 99v468l720 -234z" />
<glyph unicode="&#x25bb;" horiz-adv-x="830" d="M70 99v468l720 -234zM662 333l-552 179v-358z" />
<glyph unicode="&#x25bc;" horiz-adv-x="532" d="M32 666h468l-234 -720z" />
<glyph unicode="&#x25c0;" horiz-adv-x="469" d="M399 -20l-353 353l353 353v-706z" />
<glyph unicode="&#x25c1;" horiz-adv-x="469" d="M399 -20l-353 353l353 353v-706zM355 580l-247 -247l247 -247v494z" />
<glyph unicode="&#x25c4;" horiz-adv-x="830" d="M760 567v-468l-720 234z" />
<glyph unicode="&#x25c5;" horiz-adv-x="830" d="M760 567v-468l-720 234zM168 333l552 -179v358z" />
<glyph unicode="&#x25ca;" horiz-adv-x="595" d="M232 -48h-11l-173 381l335 381h11l173 -381zM475 341l-108 243l-227 -260l108 -243z" />
<glyph unicode="&#x25cb;" horiz-adv-x="766" d="M30 333q0 73 27.5 137.5t75.5 112.5t112.5 75.5t137.5 27.5t137.5 -27.5t112.5 -75.5t75.5 -112.5t27.5 -137.5t-27.5 -137.5t-75.5 -112.5t-112.5 -75.5t-137.5 -27.5t-137.5 27.5t-112.5 75.5t-75.5 112.5t-27.5 137.5zM80 333q0 -63 24 -118t65 -96t96 -65t118 -24 t118 24t96 65t65 96t24 118t-24 118t-65 96t-96 65t-118 24t-118 -24t-96 -65t-65 -96t-24 -118z" />
<glyph unicode="&#x25cf;" horiz-adv-x="766" d="M30 333q0 73 27.5 137.5t75.5 112.5t112.5 75.5t137.5 27.5t137.5 -27.5t112.5 -75.5t75.5 -112.5t27.5 -137.5t-27.5 -137.5t-75.5 -112.5t-112.5 -75.5t-137.5 -27.5t-137.5 27.5t-112.5 75.5t-75.5 112.5t-27.5 137.5z" />
<glyph unicode="&#x2605;" horiz-adv-x="846" d="M814 434l-241 -175l92 -285l-242 175l-242 -175l92 285l-241 175h298l93 284l93 -284h298z" />
<glyph unicode="&#x2606;" horiz-adv-x="846" d="M814 434l-241 -175l92 -285l-242 175l-242 -175l92 285l-241 175h298l93 284l93 -284h298zM505 418l-82 251v-500l212 -154l-81 250l211 153h-260z" />
<glyph unicode="&#x271a;" horiz-adv-x="766" d="M272 222h-222v222h222v222h222v-222h222v-222h-222v-222h-222v222z" />
<glyph unicode="&#x2765;" horiz-adv-x="552" d="M339 332q36 0 67.5 -13.5t55 -36.5t37 -54t13.5 -67t-13.5 -67.5t-37 -55t-55 -37t-67.5 -13.5t-67.5 14t-54.5 37q-25 25 -43 59t-39 76q-35 70 -69.5 112t-65.5 42v10q31 0 65.5 42t69.5 112q20 38 38 73.5t44 61.5q23 23 54.5 37t67.5 14t67.5 -13.5t55 -37t37 -55 t13.5 -67.5t-13.5 -67t-37 -54t-55 -36.5t-67.5 -13.5v-2z" />
<glyph unicode="&#x3008;" horiz-adv-x="308" d="M204 -43l-190 372v8l190 372l82 -41l-171 -335l171 -335z" />
<glyph unicode="&#x3009;" horiz-adv-x="307" d="M103 709l190 -372v-8l-190 -372l-81 41l171 335l-171 335z" />
<glyph unicode="&#x300a;" horiz-adv-x="498" d="M286 668l-171 -335l171 -335l-82 -41l-190 372v8l190 372zM476 668l-171 -335l171 -335l-82 -41l-190 372v8l190 372z" />
<glyph unicode="&#x300b;" horiz-adv-x="498" d="M294 709l190 -372v-8l-190 -372l-82 41l172 335l-172 335zM104 709l190 -372v-8l-190 -372l-82 41l171 335l-171 335z" />
<glyph unicode="&#xe000;" horiz-adv-x="515" d="M0 515h515v-515h-515v515z" />
<glyph unicode="&#xf6c3;" horiz-adv-x="236" d="M-80 -166q28 29 54.5 63t44.5 61l96 -20q-10 -19 -28 -38.5t-40.5 -38t-46.5 -33.5t-46 -25z" />
<glyph unicode="&#x1f4d5;" horiz-adv-x="876" d="M682 374q0 79 -44 126.5t-126 47.5q-41 0 -74 -13.5t-56 -37t-35 -55.5t-12 -70t12 -70t35 -55t56.5 -36.5t77.5 -13.5q52 0 90.5 17t70.5 46l-63 57q-42 -39 -92 -39q-36 0 -59 19t-25 53h243q1 5 1 12v12zM762 -8q-12 19 -12 44q0 24 12 44h-458q-18 0 -31 -13t-13 -31 t13 -31t31 -13h458zM439 410q2 32 22.5 49t51.5 17t51 -16.5t23 -49.5h-148zM798 666v-714h-494q-35 0 -59.5 24.5t-24.5 59.5v505q0 26 10 48.5t27 39.5t39.5 27t48.5 10h453zM345 706q-34 0 -64 -13t-52.5 -35.5t-35.5 -52.5t-13 -64h-40q0 42 16 79.5t44 65.5t65.5 44 t79.5 16v-40zM345 786q-51 0 -95.5 -19.5t-77.5 -52.5t-52.5 -77.5t-19.5 -95.5h-40q0 59 22.5 111t61 90.5t90.5 61t111 22.5v-40z" />
<glyph unicode="&#x1f4d6;" horiz-adv-x="918" d="M449 418q0 15 -14.5 37.5t-44 43.5t-75.5 36t-109 15v-342q61 0 105 -15t72.5 -36t42 -43.5t13.5 -37.5h10v342zM469 76h10q0 15 13.5 37.5t42 43.5t72.5 36t105 15v342q-63 0 -109 -15t-75.5 -36t-44 -43.5t-14.5 -37.5v-342zM78 586q0 27 10 50t27.5 40.5t40.5 27.5 t50 10h506q27 0 50 -10t40.5 -27.5t27.5 -40.5t10 -50v-506q0 -27 -10 -50t-27.5 -40.5t-40.5 -27.5t-50 -10h-506q-27 0 -50 10t-40.5 27.5t-27.5 40.5t-10 50v506z" />
<glyph unicode="&#x1f50c;" horiz-adv-x="918" d="M459 633q-30 0 -57 -6v-116h-169v-117h169v-122h-169v-117h169v-117q14 -2 28 -3.5t29 -1.5q54 0 103 18t87.5 50t65 76t37.5 95h121q-11 -76 -47.5 -141.5t-91.5 -113.5t-125.5 -75.5t-149.5 -27.5q-87 0 -163 33t-133 90t-90 133t-33 163t33 163t90 133t133 90t163 33 q79 0 149.5 -27.5t125.5 -75.5t91.5 -113.5t47.5 -141.5h-121q-11 51 -37.5 94.5t-65 76t-87.5 50.5t-103 18z" />
<glyph unicode="&#x1f697;" horiz-adv-x="1272" d="M168 78q-65 0 -91.5 48.5t-26.5 131.5q0 110 38.5 196.5t105 146.5t154.5 92t187 32q152 0 257.5 -73.5t147.5 -211.5q63 -7 116.5 -25t92.5 -47t61 -68.5t22 -90.5q0 -58 -27.5 -94.5t-75.5 -36.5h-15q-13 -42 -47.5 -68t-79.5 -26t-79.5 26t-47.5 68h-438 q-13 -42 -47.5 -68t-79.5 -26t-79.5 26t-47.5 68zM666 412q88 0 131.5 10t43.5 42q0 10 -3 19t-7 16q-19 37 -50.5 66t-70.5 49t-84 30.5t-91 10.5t-91 -10.5t-84 -30.5t-70.5 -49t-50.5 -66q-4 -7 -7 -16t-3 -19q0 -32 43.5 -42t131.5 -10h262z" />
<glyph unicode="&#x1f698;" horiz-adv-x="962" d="M303 47q0 -35 -21.5 -47t-63.5 -12t-63 12t-21 47v31q-15 13 -29 29t-24.5 39.5t-16.5 56.5t-6 79q0 107 32 189.5t88.5 139t134 85.5t168.5 29t168.5 -29t134 -85.5t88.5 -139t32 -189.5q0 -46 -6 -79t-16.5 -56.5t-24.5 -39.5t-29 -29v-31q0 -35 -21 -47t-63 -12 t-63.5 12t-21.5 47v31h-356v-31zM612 412q88 0 131.5 10t43.5 42q0 10 -3 19t-7 16q-19 37 -50.5 66t-70.5 49t-84 30.5t-91 10.5t-91 -10.5t-84 -30.5t-70.5 -49t-50.5 -66q-4 -7 -7 -16t-3 -19q0 -32 43.5 -42t131.5 -10h262zM808 264q0 30 -21 51t-51 21t-51 -21t-21 -51 t21 -51t51 -21t51 21t21 51zM154 264q0 -30 21 -51t51 -21t51 21t21 51t-21 51t-51 21t-51 -21t-21 -51z" />
<glyph horiz-adv-x="245" d="M254 613q-12 -55 -44 -97.5t-91 -71.5l-23 47q30 20 50.5 48t20.5 60q0 17 -5 31.5t-5 32.5q0 5 1 15t6 22h108z" />
<glyph horiz-adv-x="330" d="M168 615q25 28 51.5 64.5t43.5 67.5l98 -19q-9 -18 -25 -38t-37 -39.5t-45 -37t-47 -30.5z" />
<glyph horiz-adv-x="939" d="M284 227q12 0 14.5 -5.5t2.5 -10.5q0 -16 -22 -16h-9t-7 1v31h21zM180 226l15 -50h-30zM662 227q18 0 18 -16q0 -6 -4 -11.5t-18 -5.5h-7t-7 1v32h18zM470 254q-2 10 -4.5 19.5t-8.5 17.5l13 9l12 -9q-5 -8 -8.5 -17.5t-3.5 -19.5zM455 369q5 0 8 -3q-4 -8 -4 -15 q0 -15 11 -15q10 0 10 15q0 7 -4 15q3 3 8 3q6 0 9 -3.5t3 -8.5q0 -20 -26 -44q-26 23 -26 44q0 5 2.5 8.5t8.5 3.5zM546 299q0 -5 -6 -9t-14 -4t-15.5 2.5t-14.5 5.5q13 16 32 16q7 0 12.5 -2.5t5.5 -8.5zM470 725q211 -106 320 -231.5t109 -262.5q0 -56 -17 -100.5 t-48 -76.5t-73.5 -49t-94.5 -17q-39 0 -73.5 12t-59.5 33.5t-39.5 50t-14.5 61.5v105q0 19 11 36q18 -9 36 -9q13 0 21.5 6t8.5 16q0 9 -8 15t-20 6q-22 0 -40 -21l-6 4t-5 4q28 26 28 50q0 10 -6 16t-15 6q-8 0 -14 -6q-8 6 -15 6q-9 0 -15 -6t-6 -16q0 -24 28 -50l-10 -8 q-19 21 -40 21q-13 0 -20.5 -6t-7.5 -15q0 -10 8 -16t21 -6q18 0 36 9q11 -17 11 -36v-105q0 -34 -14 -62.5t-39 -49.5t-59.5 -33t-74.5 -12q-51 0 -94 17.5t-74 49t-48 76.5t-17 100q0 137 109 262.5t321 231.5zM226 140l-35 103h-23l-35 -103h20l7 20h40l6 -20h20z M324 140q-6 11 -11 20q-5 8 -8.5 14.5t-4.5 8.5q21 6 21 28q0 15 -9.5 23.5t-26.5 8.5h-41v-103h19v39h18q1 -1 4 -7t7 -13q4 -9 10 -19h22zM415 226q-14 19 -38 19q-15 0 -25 -8t-10 -21q0 -15 9 -21t20 -9t20 -6t9 -11q0 -9 -7 -11.5t-12 -2.5q-18 0 -31 16l-14 -11 q4 -6 15 -13.5t31 -7.5q16 0 26 8.5t10 22.5q0 15 -9 21t-20 9t-20 6t-9 11q0 6 5.5 9t10.5 3q16 0 26 -13zM569 184q0 1 6 10t14 20q9 12 19 29h-21l-27 -41l-27 41h-22q10 -16 19 -29q8 -11 13.5 -20.5t6.5 -9.5v-44h19v44zM663 178q17 0 26.5 9t9.5 24q0 32 -36 32h-38 v-103h19v38h19zM795 158h-56v27h35v17h-35v24h54v17h-73v-103h75v18zM393 299q0 6 6 8.5t13 2.5q18 0 31 -16q-7 -3 -14.5 -5.5t-15.5 -2.5t-14 4t-6 9z" />
<glyph horiz-adv-x="918" d="M205 280h325l-124 -125l72 -71l248 249l-248 249l-72 -71l124 -125h-325v-106zM878 333q0 -87 -33 -163t-90 -133t-133 -90t-163 -33t-163 33t-133 90t-90 133t-33 163t33 163t90 133t133 90t163 33t163 -33t133 -90t90 -133t33 -163z" />
<glyph horiz-adv-x="918" d="M878 333q0 -87 -33 -163t-90 -133t-133 -90t-163 -33t-163 33t-133 90t-90 133t-33 163t33 163t90 133t133 90t163 33t163 -33t133 -90t90 -133t33 -163zM648 170v352h-352v-101h176l-230 -230l75 -75l230 230v-176h101z" />
<glyph horiz-adv-x="918" d="M878 333q0 -87 -33 -163t-90 -133t-133 -90t-163 -33t-163 33t-133 90t-90 133t-33 163t33 163t90 133t133 90t163 33t163 -33t133 -90t90 -133t33 -163zM512 79v325l125 -124l71 72l-249 248l-249 -248l71 -72l125 124v-325h106z" />
<glyph horiz-adv-x="918" d="M40 333q0 87 33 163t90 133t133 90t163 33t163 -33t133 -90t90 -133t33 -163t-33 -163t-90 -133t-133 -90t-163 -33t-163 33t-133 90t-90 133t-33 163zM371 170v176l230 -230l75 75l-230 230h176v101h-352v-352h101z" />
<glyph horiz-adv-x="918" d="M878 333q0 -87 -33 -163t-90 -133t-133 -90t-163 -33t-163 33t-133 90t-90 133t-33 163t33 163t90 133t133 90t163 33t163 -33t133 -90t90 -133t33 -163zM713 386h-326l125 125l-72 71l-248 -249l248 -249l72 71l-125 125h326v106z" />
<glyph horiz-adv-x="918" d="M40 333q0 87 33 163t90 133t133 90t163 33t163 -33t133 -90t90 -133t33 -163t-33 -163t-90 -133t-133 -90t-163 -33t-163 33t-133 90t-90 133t-33 163zM270 496v-352h352v101h-176l230 230l-75 75l-230 -230v176h-101z" />
<glyph horiz-adv-x="918" d="M40 333q0 87 33 163t90 133t133 90t163 33t163 -33t133 -90t90 -133t33 -163t-33 -163t-90 -133t-133 -90t-163 -33t-163 33t-133 90t-90 133t-33 163zM406 587v-326l-125 125l-71 -72l249 -248l249 248l-71 72l-125 -125v326h-106z" />
<glyph horiz-adv-x="918" d="M878 333q0 -87 -33 -163t-90 -133t-133 -90t-163 -33t-163 33t-133 90t-90 133t-33 163t33 163t90 133t133 90t163 33t163 -33t133 -90t90 -133t33 -163zM547 496v-176l-230 230l-75 -75l230 -230h-176v-101h352v352h-101z" />
<glyph horiz-adv-x="918" d="M205 386h325l-124 125l72 71l248 -249l-248 -249l-72 71l124 125h-325v106zM878 333q0 -87 -33 -163t-90 -133t-133 -90t-163 -33t-163 33t-133 90t-90 133t-33 163t33 163t90 133t133 90t163 33t163 -33t133 -90t90 -133t33 -163zM828 333q0 76 -29 143t-79.5 117.5 t-117.5 79.5t-143 29t-143 -29t-117.5 -79.5t-79.5 -117.5t-29 -143t29 -143t79.5 -117.5t117.5 -79.5t143 -29t143 29t117.5 79.5t79.5 117.5t29 143z" />
<glyph horiz-adv-x="918" d="M878 333q0 -87 -33 -163t-90 -133t-133 -90t-163 -33t-163 33t-133 90t-90 133t-33 163t33 163t90 133t133 90t163 33t163 -33t133 -90t90 -133t33 -163zM547 170v176l-230 -230l-75 75l230 230h-176v101h352v-352h-101zM828 333q0 76 -29 143t-79.5 117.5t-117.5 79.5 t-143 29t-143 -29t-117.5 -79.5t-79.5 -117.5t-29 -143t29 -143t79.5 -117.5t117.5 -79.5t143 -29t143 29t117.5 79.5t79.5 117.5t29 143z" />
<glyph horiz-adv-x="918" d="M878 333q0 -87 -33 -163t-90 -133t-133 -90t-163 -33t-163 33t-133 90t-90 133t-33 163t33 163t90 133t133 90t163 33t163 -33t133 -90t90 -133t33 -163zM406 79v325l-125 -124l-71 72l249 248l249 -248l-71 -72l-125 124v-325h-106zM828 333q0 76 -29 143t-79.5 117.5 t-117.5 79.5t-143 29t-143 -29t-117.5 -79.5t-79.5 -117.5t-29 -143t29 -143t79.5 -117.5t117.5 -79.5t143 -29t143 29t117.5 79.5t79.5 117.5t29 143z" />
<glyph horiz-adv-x="918" d="M270 170v352h352v-101h-176l230 -230l-75 -75l-230 230v-176h-101zM40 333q0 87 33 163t90 133t133 90t163 33t163 -33t133 -90t90 -133t33 -163t-33 -163t-90 -133t-133 -90t-163 -33t-163 33t-133 90t-90 133t-33 163zM90 333q0 -76 29 -143t79.5 -117.5t117.5 -79.5 t143 -29t143 29t117.5 79.5t79.5 117.5t29 143t-29 143t-79.5 117.5t-117.5 79.5t-143 29t-143 -29t-117.5 -79.5t-79.5 -117.5t-29 -143z" />
<glyph horiz-adv-x="918" d="M878 333q0 -87 -33 -163t-90 -133t-133 -90t-163 -33t-163 33t-133 90t-90 133t-33 163t33 163t90 133t133 90t163 33t163 -33t133 -90t90 -133t33 -163zM713 280h-326l125 -125l-72 -71l-248 249l248 249l72 -71l-125 -125h326v-106zM828 333q0 76 -29 143t-79.5 117.5 t-117.5 79.5t-143 29t-143 -29t-117.5 -79.5t-79.5 -117.5t-29 -143t29 -143t79.5 -117.5t117.5 -79.5t143 -29t143 29t117.5 79.5t79.5 117.5t29 143z" />
<glyph horiz-adv-x="918" d="M40 333q0 87 33 163t90 133t133 90t163 33t163 -33t133 -90t90 -133t33 -163t-33 -163t-90 -133t-133 -90t-163 -33t-163 33t-133 90t-90 133t-33 163zM371 496v-176l230 230l75 -75l-230 -230h176v-101h-352v352h101zM90 333q0 -76 29 -143t79.5 -117.5t117.5 -79.5 t143 -29t143 29t117.5 79.5t79.5 117.5t29 143t-29 143t-79.5 117.5t-117.5 79.5t-143 29t-143 -29t-117.5 -79.5t-79.5 -117.5t-29 -143z" />
<glyph horiz-adv-x="918" d="M40 333q0 87 33 163t90 133t133 90t163 33t163 -33t133 -90t90 -133t33 -163t-33 -163t-90 -133t-133 -90t-163 -33t-163 33t-133 90t-90 133t-33 163zM512 587v-326l125 125l71 -72l-249 -248l-249 248l71 72l125 -125v326h106zM90 333q0 -76 29 -143t79.5 -117.5 t117.5 -79.5t143 -29t143 29t117.5 79.5t79.5 117.5t29 143t-29 143t-79.5 117.5t-117.5 79.5t-143 29t-143 -29t-117.5 -79.5t-79.5 -117.5t-29 -143z" />
<glyph horiz-adv-x="918" d="M878 333q0 -87 -33 -163t-90 -133t-133 -90t-163 -33t-163 33t-133 90t-90 133t-33 163t33 163t90 133t133 90t163 33t163 -33t133 -90t90 -133t33 -163zM648 496v-352h-352v101h176l-230 230l75 75l230 -230v176h101zM828 333q0 76 -29 143t-79.5 117.5t-117.5 79.5 t-143 29t-143 -29t-117.5 -79.5t-79.5 -117.5t-29 -143t29 -143t79.5 -117.5t117.5 -79.5t143 -29t143 29t117.5 79.5t79.5 117.5t29 143z" />
<glyph horiz-adv-x="766" d="M736 321l-195 1l193 -26l-194 15l191 -39l-193 28l187 -52l-190 41l184 -65l-187 55l178 -78l-183 68l173 -91l-177 81l166 -103l-172 93l159 -113l-165 104l150 -124l-157 115l141 -134l-148 126l131 -144l-139 136l121 -152l-130 145l110 -161l-119 155l99 -168 l-108 162l87 -175l-97 170l75 -181l-85 176l62 -185l-72 181l48 -188l-59 185l35 -191l-46 189l22 -194l-33 193l9 -195l-20 194l-5 -195l-6 195l-19 -194l8 195l-32 -193l21 194l-45 -189l35 191l-59 -185l48 188l-72 -181l62 185l-85 -176l75 181l-97 -170l87 175 l-108 -162l98 168l-119 -155l111 161l-130 -145l121 152l-139 -136l131 144l-148 -126l141 134l-157 -115l150 124l-165 -104l159 113l-172 -93l166 103l-177 -81l172 91l-182 -68l178 78l-187 -55l184 65l-191 -41l188 52l-193 -28l191 39l-194 -15l193 26l-195 -1l195 12 l-195 12l195 -1l-193 26l194 -15l-191 39l193 -28l-188 52l191 -41l-184 65l187 -55l-178 78l182 -68l-172 91l177 -81l-166 102l172 -92l-159 113l165 -104l-150 124l157 -115l-141 134l148 -126l-131 144l139 -136l-121 152l130 -145l-111 161l119 -155l-98 168l108 -162 l-87 175l97 -170l-75 180l85 -175l-62 185l72 -182l-48 189l59 -186l-35 192l45 -189l-21 194l32 -193l-8 195l19 -194l6 195l5 -195l20 194l-9 -195l33 193l-22 -194l46 189l-35 -192l59 186l-48 -189l72 182l-62 -185l85 175l-75 -180l97 170l-87 -175l108 162l-99 -168 l119 155l-110 -161l130 145l-121 -152l139 136l-131 -144l148 126l-141 -134l157 115l-150 -124l165 104l-159 -113l172 92l-166 -102l177 81l-173 -91l183 68l-178 -78l187 55l-184 -65l190 41l-187 -52l193 28l-191 -39l194 15l-193 -26l195 1l-195 -12z" />
<glyph horiz-adv-x="1068" d="M16 499q100 100 232.5 157.5t285.5 57.5q152 0 285 -57.5t233 -157.5l-92 -92q-82 82 -191.5 129.5t-234.5 47.5q-126 0 -235.5 -47.5t-190.5 -129.5zM534 454q98 0 184 -37t150 -102l-92 -92q-47 47 -109 74t-133 27q-72 0 -134 -27t-109 -74l-92 92q65 65 150.5 102 t184.5 37zM534 -20l-151 151q29 29 67.5 46t83.5 17t83.5 -16.5t67.5 -45.5z" />
<glyph horiz-adv-x="918" d="M592 206q27 -45 64 -64t81 -19q33 0 60.5 11t45.5 31q-24 -56 -63 -102t-89 -79t-109 -51.5t-123 -18.5q-87 0 -163 33t-133 90t-90 133t-33 163t33 163t90 133t133 90t162 33q87 0 163.5 -34t133.5 -90.5t90 -130t33 -153.5q0 -27 -6 -50.5t-19.5 -41t-34.5 -27.5 t-52 -10q-45 0 -75 29t-30 89v202h-111v-48q-25 29 -57 42.5t-70 13.5q-45 0 -80.5 -16t-60 -44t-38 -66.5t-13.5 -83.5t13.5 -83t39 -66.5t63 -44.5t85.5 -16t90 19.5t70 63.5zM550 333q0 -48 -25 -80.5t-74 -32.5q-26 0 -45.5 9t-32 24.5t-18.5 36t-6 43.5t6 44t18.5 36.5 t32 24.5t45.5 9q49 0 74 -33t25 -81z" />
<glyph horiz-adv-x="1246" d="M838 525q0 -21 9.5 -36.5t27 -27.5t42 -23t54.5 -23q47 -19 87 -38.5t69 -44t45 -57.5t16 -78q0 -43 -18.5 -81t-54 -66.5t-85.5 -45.5t-113 -17q-100 0 -175 42.5t-113 116.5l94 53q15 -30 37.5 -51.5t50 -35t58 -20t60.5 -6.5q62 0 102.5 28t40.5 78q0 23 -10 39.5 t-29.5 29.5t-47.5 25t-64 26q-42 16 -78 34t-62.5 41.5t-42 54.5t-15.5 73q0 46 19 82.5t52.5 62t78.5 39.5t97 14q86 0 153 -36t109 -100l-91 -56q-25 43 -69.5 67.5t-104.5 24.5q-27 0 -50.5 -5.5t-41 -16t-27.5 -27.5t-10 -39zM215 525q0 -21 9.5 -36.5t27 -27.5t42 -23 t54.5 -23q47 -19 87 -38.5t69 -44t45 -57.5t16 -78q0 -43 -18.5 -81t-54 -66.5t-85.5 -45.5t-113 -17q-100 0 -175 42.5t-113 116.5l94 53q15 -30 37.5 -51.5t50 -35t58 -20t60.5 -6.5q62 0 102.5 28t40.5 78q0 23 -10 39.5t-29.5 29.5t-47.5 25t-64 26q-42 16 -78 34 t-62.5 41.5t-42 54.5t-15.5 73q0 46 19 82.5t52.5 62t78.5 39.5t97 14q86 0 153 -36t109 -100l-91 -56q-25 43 -69.5 67.5t-104.5 24.5q-27 0 -50.5 -5.5t-41 -16t-27.5 -27.5t-10 -39z" />
</font>
</defs>
</svg>
