<?xml version="1.0" standalone="no"?>
<!DOCTYPE svg PUBLIC "-//W3C//DTD SVG 1.1//EN" "http://www.w3.org/Graphics/SVG/1.1/DTD/svg11.dtd" >
<svg xmlns="http://www.w3.org/2000/svg">
<metadata></metadata>
<defs>
<font id="letter_onebold" horiz-adv-x="918" >
<font-face units-per-em="1000" ascent="800" descent="-200" />
<missing-glyph horiz-adv-x="270" />
<glyph unicode="ff" horiz-adv-x="714" d="M708 605q-10 3 -25.5 7t-35.5 4q-31 0 -46 -11.5t-15 -40.5v-49h113v-109h-113v-406h-141v406h-203v-406h-140v406h-85v109h85v46q0 73 47 118.5t139 45.5q25 0 48 -2.5t43 -8.5l-14 -109q-10 3 -26 7t-36 4q-30 0 -45.5 -11.5t-15.5 -40.5v-49h203v46q0 73 47 118.5 t139 45.5q26 0 49 -2.5t43 -8.5z" />
<glyph unicode="fi" horiz-adv-x="640" d="M365 605q-10 3 -26 7t-36 4q-30 0 -45.5 -11.5t-15.5 -40.5v-49h113v-107h-113v-408h-140v408h-85v107h85v46q0 74 46.5 119t139.5 45q25 0 48 -2.5t43 -8.5zM438 0v515h142v-515h-142zM438 600v114h142v-114h-142z" />
<glyph unicode="fl" horiz-adv-x="643" d="M365 605q-10 3 -26 7t-36 4q-30 0 -45.5 -11.5t-15.5 -40.5v-49h113v-107h-113v-408h-140v408h-85v107h85v46q0 74 46.5 119t139.5 45q25 0 48 -2.5t43 -8.5zM440 0v714h142v-714h-142z" />
<glyph horiz-adv-x="0" />
<glyph horiz-adv-x="270" />
<glyph unicode=" "  horiz-adv-x="270" />
<glyph unicode="&#x09;" horiz-adv-x="270" />
<glyph unicode="&#xa0;" horiz-adv-x="270" />
<glyph unicode="!" horiz-adv-x="284" d="M179 219h-74l-39 321v160h152v-160zM66 0v143h152v-143h-152z" />
<glyph unicode="&#x22;" horiz-adv-x="446" d="M371 420h-70l-42 236v44h154v-44zM145 420h-71l-42 236v44h154v-44z" />
<glyph unicode="#" horiz-adv-x="662" d="M500 428l-27 -155h116v-81h-131l-35 -192h-91l35 192h-129l-35 -192h-90l33 192h-115v81h130l28 155h-116v82h131l35 190h91l-34 -190h128l35 190h91l-35 -190h116v-82h-131zM281 428l-28 -155h129l28 155h-129z" />
<glyph unicode="$" horiz-adv-x="608" d="M281 -100v88q-94 6 -163 49.5t-105 115.5l113 57q27 -53 68 -77.5t87 -30.5v192q-36 7 -77 21t-75.5 38.5t-57 62t-22.5 92.5q0 46 16.5 83t47 63.5t73.5 41.5t95 17v61h61v-64q66 -8 123 -40t97 -93l-101 -61q-26 32 -54 50.5t-65 27.5v-173q41 -10 82.5 -25t75.5 -40 t55 -61.5t21 -88.5q0 -43 -16 -80.5t-46 -66t-73.5 -47t-98.5 -23.5v-89h-61zM444 192q0 40 -28 58.5t-74 29.5v-179q51 5 76.5 29t25.5 62zM182 520q0 -38 27 -55.5t72 -29.5v164q-39 -2 -69 -20t-30 -59z" />
<glyph unicode="%" horiz-adv-x="817" d="M383 530q0 -38 -13.5 -71t-37.5 -57.5t-56.5 -38.5t-69.5 -14q-38 0 -70.5 14t-56.5 38.5t-37.5 57.5t-13.5 71q0 37 13.5 70t37.5 57t56.5 38t70.5 14q37 0 69.5 -14t56.5 -38t37.5 -57t13.5 -70zM277 0h-108l371 700h108zM790 171q0 -38 -13.5 -71t-37 -57t-56 -38 t-71.5 -14q-38 0 -70 14t-56 38t-37.5 57t-13.5 71t13.5 71t37.5 57t56 38t70 14q39 0 71.5 -14t56 -38t37 -57t13.5 -71zM289 530q0 36 -23.5 61t-59.5 25q-38 0 -61 -25t-23 -61q0 -37 23 -62.5t61 -25.5q37 0 60 25.5t23 62.5zM697 171q0 37 -24 61.5t-61 24.5 q-36 0 -59.5 -24.5t-23.5 -61.5q0 -36 23.5 -61.5t59.5 -25.5q38 0 61.5 25.5t23.5 61.5z" />
<glyph unicode="&#x26;" horiz-adv-x="719" d="M673 316q-14 -49 -38 -94.5t-53 -80.5l138 -141h-184l-53 54q-45 -32 -97 -49.5t-112 -17.5q-53 0 -99.5 13.5t-81 39.5t-55 64t-20.5 87q0 37 11.5 67t32 53.5t48.5 41t60 31.5q-35 40 -52.5 74.5t-17.5 78.5q0 43 16 76t44.5 55.5t67.5 33.5t85 11q43 0 81 -10.5 t66.5 -31t45 -52t16.5 -73.5q0 -34 -11.5 -61.5t-32 -50t-48.5 -41t-62 -34.5l130 -133q17 25 32.5 55.5t24.5 62.5zM291 101q59 0 112 38l-165 172q-34 -17 -57 -41.5t-23 -62.5q0 -47 36 -76.5t97 -29.5zM402 540q0 35 -24.5 54t-60.5 19q-35 0 -61 -18t-26 -55 q0 -31 18.5 -56t48.5 -54q47 22 76 47.5t29 62.5z" />
<glyph unicode="'" horiz-adv-x="218" d="M145 420h-71l-42 236v44h154v-44z" />
<glyph unicode="(" horiz-adv-x="301" d="M209 -130q-52 58 -87 116t-56 114t-30 111t-9 107t9 107t30 111.5t56 114.5t87 116l85 -57q-42 -51 -70 -100.5t-45.5 -98t-24.5 -96.5t-7 -97q0 -48 7 -96t24.5 -96.5t45.5 -98t70 -100.5z" />
<glyph unicode=")" horiz-adv-x="301" d="M92 767q52 -58 87 -116t56.5 -114.5t30.5 -111.5t9 -107t-9 -107t-30.5 -111t-56.5 -114t-87 -116l-85 57q42 51 70 100.5t45.5 98t24.5 96.5t7 96q0 49 -7 97t-24.5 96.5t-45.5 98t-70 100.5z" />
<glyph unicode="*" horiz-adv-x="478" d="M258 462q9 -29 15.5 -50.5t10 -40.5t5 -38t1.5 -43h-102q0 24 1.5 43t5 38t9.5 40.5t15 50.5q-20 -22 -35.5 -38t-30.5 -29t-30.5 -23.5t-35.5 -22.5l-51 88q20 12 37 20.5t35.5 15t40 12t51.5 11.5q-30 6 -51.5 11.5t-40 12t-35.5 14.5t-37 20l51 89q20 -12 35.5 -22.5 t30.5 -23.5t30.5 -29.5t35.5 -38.5q-9 29 -15 50.5t-9.5 41t-5 38.5t-1.5 42h102q0 -23 -1.5 -42t-5 -38.5t-10 -41t-15.5 -50.5q20 22 36 38.5t30.5 29.5t30.5 23.5t36 22.5l51 -89q-20 -12 -37 -20t-35.5 -14.5t-40.5 -12t-52 -11.5q30 -6 52 -11.5t40.5 -12t35.5 -15 t37 -20.5l-51 -88q-20 12 -36 22.5t-30.5 23.5t-30.5 29t-36 38z" />
<glyph unicode="+" horiz-adv-x="586" d="M352 245v-196h-118v196h-197v118h197v197h118v-197h196v-118h-196z" />
<glyph unicode="," horiz-adv-x="265" d="M210 36q0 -65 -25.5 -114t-85.5 -95l-45 56q32 21 51.5 49.5t19.5 57.5v10h-70v152h155v-116z" />
<glyph unicode="-" horiz-adv-x="401" d="M49 218v126h303v-126h-303z" />
<glyph unicode="." horiz-adv-x="266" d="M55 0v152h155v-152h-155z" />
<glyph unicode="/" horiz-adv-x="388" d="M144 -108h-117l220 822h117z" />
<glyph unicode="0" horiz-adv-x="608" d="M575 351q0 -68 -13.5 -133.5t-45 -116.5t-83.5 -82.5t-130 -31.5t-130 31.5t-83 82.5t-44 116.5t-13 133.5t13 133t44 116t83 82.5t130 31.5t130 -31.5t83.5 -82.5t45 -116t13.5 -133zM424 351q0 49 -5 93t-18.5 77t-37 52.5t-60.5 19.5t-60.5 -19.5t-37 -52.5t-18.5 -77 t-5 -93t5 -93t18.5 -77.5t37 -53t60.5 -19.5t60.5 19.5t37 53t18.5 77.5t5 93z" />
<glyph unicode="1" horiz-adv-x="608" d="M85 0v122h168v419q-29 -12 -75 -24t-91 -17l-18 111q79 14 133 35t89 54h109v-578h160v-122h-475z" />
<glyph unicode="2" horiz-adv-x="608" d="M47 0v107q96 73 161 128t104.5 98t57 78t17.5 70q0 50 -30.5 76.5t-75.5 26.5t-80 -24.5t-57 -67.5l-116 66q42 69 108 112t158 43q54 0 99.5 -15.5t79 -44t52 -70.5t18.5 -94q0 -86 -66.5 -170.5t-212.5 -185.5h305v-133h-522z" />
<glyph unicode="3" horiz-adv-x="608" d="M231 300v118h60q56 0 82 24.5t26 62.5q0 39 -27.5 60t-76.5 21t-88.5 -21t-65.5 -64l-109 62q48 74 115.5 112t156.5 38q55 0 99.5 -14t76 -39.5t49 -60t17.5 -76.5q0 -55 -27.5 -92.5t-72.5 -60.5q59 -21 90.5 -65t31.5 -101q0 -44 -18 -83.5t-52.5 -69t-85 -47 t-114.5 -17.5q-107 0 -176 46t-107 124l124 54q22 -48 62.5 -73t97.5 -25q59 0 88.5 27t29.5 70q0 42 -31.5 66t-94.5 24h-60z" />
<glyph unicode="4" horiz-adv-x="608" d="M494 148v-148h-146v148h-328v111q31 57 55 116.5t40.5 117t25 110.5t8.5 97h144q0 -91 -36 -204.5t-99 -225.5h193v261h143v-261h95v-122h-95z" />
<glyph unicode="5" horiz-adv-x="608" d="M290 115q55 0 91.5 31.5t36.5 86.5q0 53 -34.5 84.5t-94.5 31.5q-83 0 -133 -61l-88 37l25 375h437v-133h-320l-14 -142q29 21 64.5 29.5t67.5 8.5q50 0 94 -15.5t76.5 -45t51 -72t18.5 -95.5q0 -47 -17 -92t-51 -79.5t-85 -55.5t-119 -21q-90 0 -157 35.5t-111 110.5 l119 66q23 -43 59.5 -63.5t83.5 -20.5z" />
<glyph unicode="6" horiz-adv-x="608" d="M475 700q-39 -29 -76 -61.5t-68 -66t-56 -67t-40 -65.5q11 11 26 18.5t31 12t32.5 6.5t31.5 2q48 0 89.5 -16.5t72 -47t47.5 -74.5t17 -98q0 -57 -19.5 -104t-55 -81t-85.5 -52.5t-111 -18.5q-62 0 -112 17.5t-85 52t-54.5 85t-19.5 115.5q0 66 17.5 125.5t48.5 114.5 t73 105.5t91 97.5h205zM191 241q0 -57 30.5 -92.5t89.5 -35.5t88.5 35.5t29.5 92.5t-29.5 91.5t-88.5 34.5t-89.5 -35t-30.5 -91z" />
<glyph unicode="7" horiz-adv-x="608" d="M568 594q-24 -32 -53 -73t-58.5 -88t-58 -99.5t-50.5 -107.5t-35 -112t-13 -114h-163q2 87 30 170t67.5 156.5t83 135t77.5 105.5h-359v133h532v-106z" />
<glyph unicode="8" horiz-adv-x="608" d="M304 102q55 0 88 26t33 80q0 52 -32 79t-89 27t-89.5 -27t-32.5 -79q0 -53 33.5 -79.5t88.5 -26.5zM303 422q45 0 73.5 21.5t28.5 66.5q0 43 -28.5 65.5t-72.5 22.5q-45 0 -73 -22.5t-28 -65.5q0 -45 27.5 -66.5t72.5 -21.5zM304 -13q-66 0 -117 16.5t-86 45.5t-53 67.5 t-18 83.5q0 60 31.5 106t88.5 68q-42 20 -69 57t-27 94q0 44 20 79t54 59t79.5 37t96.5 13t96.5 -13t79 -37t53.5 -59t20 -79q0 -57 -27 -94t-69 -57q57 -22 88.5 -68t31.5 -106q0 -45 -18 -83.5t-52.5 -67.5t-85.5 -45.5t-117 -16.5z" />
<glyph unicode="9" horiz-adv-x="608" d="M133 0q79 59 144 127.5t97 132.5q-24 -22 -59 -30.5t-64 -8.5q-48 0 -89 16.5t-71.5 47t-47.5 74.5t-17 98q0 57 19.5 104t55 80.5t85.5 52.5t111 19q62 0 112 -17.5t85.5 -52t55 -85t19.5 -115.5q0 -66 -18 -126t-49 -114.5t-72.5 -105t-89.5 -97.5h-207zM417 459 q0 57 -30 92.5t-90 35.5q-59 0 -88.5 -35.5t-29.5 -92.5t29.5 -91.5t88.5 -34.5q60 0 90 35t30 91z" />
<glyph unicode=":" horiz-adv-x="314" d="M80 0v152h155v-152h-155zM80 380v152h155v-152h-155z" />
<glyph unicode=";" horiz-adv-x="302" d="M235 36q0 -65 -25.5 -114t-85.5 -95l-46 56q32 21 51.5 49.5t19.5 57.5v10h-69v152h155v-116zM80 380v152h155v-152h-155z" />
<glyph unicode="&#x3c;" horiz-adv-x="586" d="M388 4l-300 301l300 301l83 -82l-218 -219l218 -218z" />
<glyph unicode="=" horiz-adv-x="586" d="M37 350v118h511v-118h-511zM37 140v118h511v-118h-511z" />
<glyph unicode="&#x3e;" horiz-adv-x="586" d="M196 4l-82 83l219 218l-219 219l82 82l301 -301z" />
<glyph unicode="?" horiz-adv-x="546" d="M507 501q0 -46 -16.5 -82t-44 -63t-63.5 -45t-75 -27v-65h-142v184q13 -3 28.5 -4.5t25.5 -1.5q59 0 97 24.5t38 74.5q0 44 -29.5 67.5t-76.5 23.5q-40 0 -77 -14t-69 -46l-79 94q51 45 109 68.5t131 23.5q53 0 97.5 -14.5t77 -41.5t50.5 -66.5t18 -89.5zM163 0v143h152 v-143h-152z" />
<glyph unicode="@" horiz-adv-x="882" d="M548 171q-23 -37 -58 -54t-77 -17q-43 0 -77 16.5t-58 45t-36.5 67.5t-12.5 84q0 46 13 85t37 67.5t58 45t76 16.5q65 0 111 -53v45h110v-286q0 -26 12 -45.5t45 -19.5q44 0 66 42.5t22 105.5q0 72 -22 132.5t-64 105t-103 69t-139 24.5t-139.5 -26.5t-104 -71.5 t-65.5 -105.5t-23 -127.5q0 -68 23 -128t66 -105t104.5 -71t138.5 -26q45 0 89 11.5t79 35.5l32 -60q-44 -25 -95.5 -39t-109.5 -14q-93 0 -169 30t-130 83.5t-83 126t-29 156.5t29 156.5t83 126t130.5 84.5t170.5 31q92 0 166.5 -31t127.5 -84t82 -125t29 -154 q0 -49 -12.5 -89t-36 -69t-56.5 -45t-75 -16q-34 0 -69.5 15t-55.5 55zM524 313q0 25 -6 47t-17.5 38.5t-28.5 26t-40 9.5q-22 0 -38.5 -9.5t-27.5 -26t-16.5 -38.5t-5.5 -47q0 -49 22 -84t67 -35q23 0 40 9.5t28.5 25.5t17 38t5.5 46z" />
<glyph unicode="A" horiz-adv-x="698" d="M537 0l-55 162h-270l-56 -162h-161l266 700h176l265 -700h-165zM347 574l-98 -292h196z" />
<glyph unicode="B" horiz-adv-x="689" d="M655 204q0 -45 -15.5 -82.5t-46 -64.5t-75.5 -42t-103 -15h-342v700h322q113 0 174.5 -47t61.5 -129q0 -50 -24.5 -89t-67.5 -62q58 -23 87 -67.5t29 -101.5zM481 501q0 37 -25 53.5t-72 16.5h-163v-148h167q44 0 68.5 20t24.5 58zM504 215q0 39 -24.5 63.5t-71.5 24.5 h-187v-174h184q47 0 73 22.5t26 63.5z" />
<glyph unicode="C" horiz-adv-x="700" d="M562 478q-32 54 -76.5 79.5t-101.5 25.5q-46 0 -83 -17t-62.5 -48t-39.5 -73t-14 -93t14 -94.5t39.5 -74.5t62 -48.5t81.5 -17.5q61 0 104 29t72 82l124 -65q-48 -82 -123 -129t-179 -47q-78 0 -142 26.5t-110 74.5t-71.5 115t-25.5 148t25.5 147.5t71.5 114t110 74 t142 26.5q92 0 169 -39.5t129 -125.5z" />
<glyph unicode="D" horiz-adv-x="744" d="M358 133q98 0 149 58.5t51 158.5t-51 158.5t-149 58.5h-137v-434h137zM73 0v700h285q85 0 151 -26.5t111 -73.5t68 -111t23 -139t-23 -139t-68 -111t-111 -73.5t-151 -26.5h-285z" />
<glyph unicode="E" horiz-adv-x="648" d="M73 0v700h534v-133h-386v-141h327v-120h-327v-173h386v-133h-534z" />
<glyph unicode="F" horiz-adv-x="625" d="M221 567v-154h326v-120h-326v-293h-148v700h533v-133h-385z" />
<glyph unicode="G" horiz-adv-x="744" d="M385 713q99 0 174 -43t121 -119l-124 -67q-29 51 -72.5 75t-100.5 24q-48 0 -85 -17.5t-62 -48t-38 -73t-13 -92.5q0 -112 53.5 -176.5t148.5 -64.5q36 0 67 10t55 29t39 46t19 61h-179v120h327q2 -13 3.5 -29.5t1.5 -29.5q0 -68 -21.5 -128t-64 -105t-105.5 -71.5 t-145 -26.5q-80 0 -145 26.5t-111 75t-71.5 115.5t-25.5 148t25.5 148t72 114t111.5 73t145 26z" />
<glyph unicode="H" horiz-adv-x="757" d="M535 0v302h-314v-302h-148v700h148v-266h314v266h149v-700h-149z" />
<glyph unicode="I" horiz-adv-x="293" d="M73 0v700h147v-700h-147z" />
<glyph unicode="J" horiz-adv-x="546" d="M480 237q0 -62 -18 -108.5t-50.5 -78t-78 -47.5t-101.5 -16q-78 0 -138.5 33.5t-95.5 104.5l125 61q17 -35 44 -51t62 -16q54 0 79 30t25 84v467h147v-463v0z" />
<glyph unicode="K" horiz-adv-x="698" d="M531 0l-203 306l-108 -122v-184h-147v700h147v-324l284 324h179l-252 -285l279 -415h-179z" />
<glyph unicode="L" horiz-adv-x="599" d="M73 0v700h147v-567h364v-133h-511z" />
<glyph unicode="M" horiz-adv-x="926" d="M710 0v544l-187 -544h-121l-186 542v-542h-143v700h215l177 -515l178 515h211v-700h-144z" />
<glyph unicode="N" horiz-adv-x="755" d="M503 0l-288 504v-504h-142v700h188l279 -493v493h142v-700h-179z" />
<glyph unicode="O" horiz-adv-x="769" d="M738 350q0 -77 -24.5 -143t-70 -115t-111.5 -77t-148 -28q-83 0 -148 28t-111 77t-70 115t-24 143q0 76 24 142.5t70 115.5t111 77t148 28q82 0 148 -28t111.5 -77t70 -115.5t24.5 -142.5zM584 350q0 48 -13.5 89.5t-39 72t-62.5 48t-85 17.5t-85.5 -17.5t-62.5 -48 t-38 -72t-13 -89.5t13 -89.5t38 -72t62.5 -48t85.5 -17.5t85 17.5t62.5 48t39 72t13.5 89.5z" />
<glyph unicode="P" horiz-adv-x="664" d="M650 467q0 -53 -17.5 -96t-51.5 -73t-82.5 -46.5t-110.5 -16.5h-167v-235h-148v700h315q62 0 110.5 -16.5t82.5 -47t51.5 -73.5t17.5 -96zM387 368q54 0 83 25.5t29 74.5q0 48 -29 73.5t-83 25.5h-166v-199h166z" />
<glyph unicode="Q" horiz-adv-x="769" d="M738 351q0 -80 -26.5 -148.5t-76.5 -118.5l77 -89l-97 -79l-83 101q-32 -14 -69 -22t-79 -8q-83 0 -148 28.5t-111 77.5t-70 115.5t-24 142.5t24 142t70 115t111 77t148 28q82 0 148 -28t111.5 -77t70 -115t24.5 -142zM584 351q0 48 -13.5 89.5t-39 71.5t-62.5 47.5 t-85 17.5t-85.5 -17.5t-62.5 -47.5t-38 -71.5t-13 -89.5t13 -89.5t38 -72.5t62.5 -48.5t85.5 -17.5q30 0 54 11l-65 81l88 71l75 -88q48 60 48 153z" />
<glyph unicode="R" horiz-adv-x="692" d="M505 0l-133 254h-151v-254h-148v700h322q62 0 109.5 -16t80 -44.5t49 -69t16.5 -88.5q0 -38 -11 -70t-29.5 -57t-43 -43t-50.5 -29l154 -283h-165zM499 471q0 46 -30 71t-77 25h-171v-193h173q46 0 75.5 26t29.5 71z" />
<glyph unicode="S" horiz-adv-x="644" d="M316 713q41 0 81.5 -8t77.5 -24.5t69.5 -42.5t58.5 -62l-113 -69q-32 43 -78 63.5t-99 20.5q-48 0 -80 -18t-32 -58q0 -22 12 -36.5t32 -24t46.5 -15.5t56.5 -12q54 -11 102.5 -25t85 -37.5t58 -59.5t21.5 -90q0 -49 -19 -91t-55.5 -72.5t-90 -47.5t-121.5 -17 q-111 0 -191.5 44.5t-122.5 122.5l118 65q35 -60 89 -85t114 -25q61 0 97 23.5t36 65.5q0 25 -14 40.5t-37 25t-52 15.5t-59 12q-48 9 -93.5 23t-81.5 38t-58 60.5t-22 90.5q0 49 19.5 88t54.5 66t83.5 41.5t106.5 14.5z" />
<glyph unicode="T" horiz-adv-x="630" d="M389 567v-567h-148v567h-223v133h594v-133h-223z" />
<glyph unicode="U" horiz-adv-x="732" d="M666 269q0 -67 -21.5 -119.5t-61 -88.5t-95 -55t-122.5 -19q-68 0 -123 19t-95 55t-61.5 88.5t-21.5 119.5v431h148v-431q0 -70 39 -108t114 -38q73 0 113 38t40 108v431h147v-431z" />
<glyph unicode="V" horiz-adv-x="675" d="M680 700l-262 -700h-159l-264 700h161l182 -527l180 527h162z" />
<glyph unicode="W" horiz-adv-x="993" d="M787 0h-161l-131 477l-131 -477h-163l-188 700h160l117 -495l140 495h134l140 -497l117 497h161z" />
<glyph unicode="X" horiz-adv-x="700" d="M528 0l-179 259l-179 -259h-178l263 365l-240 335h177l159 -236l159 236h175l-240 -335l263 -365h-180z" />
<glyph unicode="Y" horiz-adv-x="671" d="M409 274v-274h-147v273l-270 427h173l171 -293l173 293h171z" />
<glyph unicode="Z" horiz-adv-x="643" d="M31 0v115l365 452h-350v133h553v-109l-369 -458h378v-133h-577z" />
<glyph unicode="[" horiz-adv-x="317" d="M64 -114v864h251v-92h-131v-679h131v-93h-251z" />
<glyph unicode="\" horiz-adv-x="388" d="M244 -108l-220 822h117l220 -822h-117z" />
<glyph unicode="]" horiz-adv-x="317" d="M2 -114v93h131v679h-131v92h251v-864h-251z" />
<glyph unicode="^" horiz-adv-x="586" d="M493 352l-199 199l-199 -199l-82 83l231 231h100l231 -231z" />
<glyph unicode="_" horiz-adv-x="575" d="M-11 -125v50h597v-50h-597z" />
<glyph unicode="`" horiz-adv-x="312" d="M199 578q-21 11 -45 28t-46 37t-39 41.5t-27 44.5l124 20q15 -33 40.5 -71.5t48.5 -68.5z" />
<glyph unicode="a" horiz-adv-x="661" d="M273 527q50 0 92 -19t75 -59v66h141v-386q0 -38 29 -38q20 0 28 7l15 -90q-15 -8 -37.5 -12t-39.5 -4q-39 0 -73.5 16t-51.5 61q-32 -45 -77 -63t-98 -18q-59 0 -104.5 20.5t-77 57t-48 86t-16.5 106.5q0 58 17 107t48.5 85t76.5 56.5t101 20.5zM440 258q0 30 -8.5 57 t-25 47t-41.5 31.5t-58 11.5t-57 -11.5t-40 -32t-24 -47t-8 -56.5t8 -57t23.5 -47.5t40 -32t57.5 -11.5t58 11.5t41.5 32t25 47.5t8.5 57z" />
<glyph unicode="b" horiz-adv-x="641" d="M202 714v-260q33 38 75.5 55.5t91.5 17.5q56 0 101 -20.5t76.5 -56.5t48.5 -85.5t17 -107.5q0 -57 -17 -106t-48.5 -85.5t-76.5 -57t-101 -20.5q-101 0 -167 73v-61h-142v714h142zM202 256q0 -30 8.5 -57t25 -46.5t41 -31t57.5 -11.5t57 11.5t39.5 31.5t23.5 46.5t8 56.5 t-8 57.5t-23.5 47.5t-39.5 32t-57 12t-57.5 -12t-41 -32t-25 -47t-8.5 -58z" />
<glyph unicode="c" horiz-adv-x="550" d="M533 111q-33 -53 -90.5 -88t-142.5 -35q-63 0 -113 20.5t-85.5 56.5t-54.5 85t-19 107t19 107.5t54.5 85.5t85.5 56.5t112 20.5q84 0 141 -36.5t91 -92.5l-105 -66q-20 35 -49.5 54.5t-70.5 19.5q-61 0 -94.5 -42t-33.5 -106q0 -66 34.5 -108t95.5 -42q43 0 74.5 20.5 t51.5 52.5z" />
<glyph unicode="d" horiz-adv-x="641" d="M440 0v61q-34 -38 -76 -55.5t-92 -17.5q-56 0 -101 20.5t-76.5 57t-48 85.5t-16.5 106q0 58 17 107.5t48.5 85.5t76 56.5t100.5 20.5q101 0 168 -73v260h141v-714h-141zM440 257q0 30 -8.5 57t-25.5 47.5t-41.5 32t-57.5 11.5t-57 -12t-39.5 -32t-23.5 -47t-8 -57 t8 -56.5t23.5 -47t39.5 -32t57 -11.5t58 11.5t41.5 31.5t25 47t8.5 57z" />
<glyph unicode="e" horiz-adv-x="598" d="M571 267q0 -12 -0.5 -22.5t-1.5 -18.5h-389q0 -21 8.5 -42t21.5 -35q19 -21 47.5 -31t64.5 -10q46 0 83.5 15t68.5 43l86 -84q-40 -41 -101 -67.5t-144 -26.5q-70 0 -123.5 20.5t-90 56.5t-55 85.5t-18.5 106.5q0 58 19 107.5t54.5 85.5t86.5 56.5t116 20.5 q63 0 112.5 -19t84 -53.5t52.5 -82t18 -105.5zM431 316q0 13 -4.5 26.5t-10.5 24.5q-16 29 -44.5 43t-65.5 14q-54 0 -87 -28.5t-38 -79.5h250z" />
<glyph unicode="f" horiz-adv-x="371" d="M365 605q-10 3 -26 7t-36 4q-30 0 -45.5 -11.5t-15.5 -40.5v-49h113v-107h-113v-408h-140v408h-85v107h85v46q0 74 46.5 119t139.5 45q25 0 48 -2.5t43 -8.5z" />
<glyph unicode="g" horiz-adv-x="642" d="M583 97q0 -62 -12.5 -110.5t-47.5 -86.5q-42 -46 -106 -65t-138 -19q-68 0 -124 14t-105 43l53 108q36 -22 79.5 -34t94.5 -12q34 0 64 7t52.5 22t35 39t12.5 59v38q-31 -36 -74.5 -54.5t-94.5 -18.5q-55 0 -99.5 19t-76 53t-48.5 79t-17 98q0 52 17.5 98t49 80 t76.5 53.5t100 19.5q51 0 93.5 -19t73.5 -56v63h142v-418zM442 277q0 58 -34 97t-99 39t-97 -38.5t-32 -97.5q0 -29 8 -54t24 -43.5t40.5 -29t56.5 -10.5q31 0 56 10.5t42 29.5t26 43.5t9 53.5z" />
<glyph unicode="h" horiz-adv-x="601" d="M60 0v714h142v-264q32 37 73.5 57t89.5 20q45 0 78.5 -14.5t56 -40t34 -61t11.5 -76.5v-335h-141v302q0 18 -3.5 35.5t-13.5 32t-27 23t-45 8.5q-48 0 -80.5 -30t-32.5 -86v-285h-142z" />
<glyph unicode="i" horiz-adv-x="262" d="M60 0v515h142v-515h-142zM60 600v114h142v-114h-142z" />
<glyph unicode="j" horiz-adv-x="262" d="M202 12q0 -50 -13.5 -86.5t-38.5 -60.5t-59.5 -35.5t-77.5 -11.5q-29 0 -58.5 7t-50.5 19l39 105q11 -6 24 -10t29 -4q35 0 49.5 19.5t14.5 55.5v505h142v-503zM60 600v114h142v-114h-142z" />
<glyph unicode="k" horiz-adv-x="600" d="M414 515h168l-199 -202l223 -313h-170l-150 219l-84 -86v-133h-142v714h142v-420z" />
<glyph unicode="l" horiz-adv-x="264" d="M61 0v714h142v-714h-142z" />
<glyph unicode="m" horiz-adv-x="919" d="M60 0v515h142v-64q31 37 70 56.5t86 19.5q58 0 95 -24.5t54 -67.5q36 49 83.5 70.5t96.5 21.5q45 0 78 -14.5t54.5 -40t32.5 -60.5t11 -76v-336h-141v303q0 19 -3.5 36.5t-12.5 31t-25.5 22t-43.5 8.5q-45 0 -75 -30t-30 -85v-286h-141v303q0 19 -3 36.5t-12.5 31t-26 22 t-43.5 8.5q-45 0 -74.5 -30t-29.5 -85v-286h-142z" />
<glyph unicode="n" horiz-adv-x="601" d="M60 0v515h142v-65q32 37 73.5 57t89.5 20q45 0 78.5 -14.5t56 -40t34 -61t11.5 -76.5v-335h-141v302q0 18 -3.5 35.5t-13.5 32t-27 23t-45 8.5q-48 0 -80.5 -30t-32.5 -86v-285h-142z" />
<glyph unicode="o" horiz-adv-x="614" d="M586 257q0 -60 -19.5 -109.5t-56 -84.5t-88 -54.5t-115.5 -19.5t-115.5 19.5t-88 54.5t-56 84.5t-19.5 109.5t19.5 110t56 85.5t88 55t115.5 19.5t115.5 -19.5t88 -55t56 -85.5t19.5 -110zM435 258q0 33 -8 60.5t-24.5 47.5t-40.5 31.5t-55 11.5t-55 -11.5t-40.5 -31.5 t-25 -47.5t-8.5 -60.5q0 -66 33 -108.5t96 -42.5t95.5 42.5t32.5 108.5z" />
<glyph unicode="p" horiz-adv-x="641" d="M202 515v-61q33 38 75.5 55.5t91.5 17.5q56 0 101 -20.5t76.5 -57t48.5 -85.5t17 -106q0 -58 -17 -107.5t-48.5 -85.5t-76.5 -56.5t-101 -20.5q-101 0 -167 72v-234h-142v689h142zM202 258q0 -30 8.5 -57t25 -47.5t41 -32t57.5 -11.5t57 12t39.5 32.5t23.5 47t8 56.5 t-8 56.5t-23.5 47t-39.5 32t-57 11.5t-58 -11.5t-41.5 -31.5t-24.5 -47t-8 -57z" />
<glyph unicode="q" horiz-adv-x="641" d="M440 -174v235q-67 -73 -168 -73q-56 0 -101 20.5t-76.5 56.5t-48 85.5t-16.5 107.5q0 57 17 106t48.5 85.5t76 57t100.5 20.5q50 0 92 -17.5t76 -55.5v61h141v-689h-141zM440 259q0 30 -8.5 57t-25 46.5t-41.5 31t-58 11.5t-57 -11.5t-39.5 -31.5t-23.5 -46.5t-8 -56.5 t8 -57t23.5 -47.5t39.5 -32.5t57 -12t57.5 12t41.5 32t25.5 47.5t8.5 57.5z" />
<glyph unicode="r" horiz-adv-x="419" d="M377 367q-13 7 -27.5 11.5t-32.5 4.5q-49 0 -82 -37.5t-33 -102.5v-243h-142v515h142v-82q26 42 62.5 67t80.5 25q20 0 39 -5t30 -12z" />
<glyph unicode="s" horiz-adv-x="546" d="M517 162q0 -40 -16.5 -72t-47.5 -54.5t-75.5 -35t-99.5 -12.5q-86 0 -151.5 27.5t-107.5 83.5l83 73q31 -40 78.5 -60.5t101.5 -20.5q41 0 70 13.5t29 42.5q0 28 -30.5 39.5t-96.5 22.5q-39 7 -76 16t-66 25.5t-47 44t-18 70.5q0 42 17.5 72.5t47.5 50.5t69.5 29.5 t84.5 9.5q43 0 80 -7.5t67 -20t53.5 -29t41.5 -33.5l-84 -74q-29 32 -70.5 46.5t-86.5 14.5q-36 0 -62 -10.5t-26 -35.5q0 -15 9.5 -24t26 -15.5t38 -10.5t45.5 -8q47 -8 87 -18.5t69.5 -28.5t46 -44.5t16.5 -66.5z" />
<glyph unicode="t" horiz-adv-x="431" d="M427 33q-27 -21 -61.5 -33t-79.5 -12q-50 0 -88 16t-61 51q-15 23 -22 51t-7 68v234h-102v107h102v185h141v-185h155v-107h-155v-235q0 -34 16 -48.5t44 -14.5q21 0 37.5 7t27.5 17z" />
<glyph unicode="u" horiz-adv-x="599" d="M539 515v-515h-141v65q-32 -37 -73.5 -57t-89.5 -20q-45 0 -78.5 14.5t-56 40.5t-34 61t-11.5 77v334h140v-302q0 -18 3.5 -35.5t13.5 -32t27.5 -23t45.5 -8.5q47 0 80 30t33 86v285h141z" />
<glyph unicode="v" horiz-adv-x="558" d="M351 0h-144l-208 515h158l124 -350l122 350h156z" />
<glyph unicode="w" horiz-adv-x="812" d="M650 0h-144l-100 336l-102 -336h-144l-146 515h154l78 -338l102 338h118l102 -338l78 338h152z" />
<glyph unicode="x" horiz-adv-x="572" d="M399 0l-114 178l-114 -178h-170l191 268l-174 247h167l103 -160l101 160h166l-175 -247l190 -268h-171z" />
<glyph unicode="y" horiz-adv-x="599" d="M399 108q-32 -37 -73.5 -57t-90.5 -20q-45 0 -78.5 14.5t-56 40.5t-34 61t-11.5 77v291h140v-259q0 -18 3.5 -35.5t13 -32t27 -23t45.5 -8.5q48 0 81.5 30t33.5 86v242h140v-433q0 -55 -13 -104.5t-51 -87.5q-36 -36 -91 -55t-126 -19q-60 0 -114.5 15t-96.5 43l53 104 q35 -23 75.5 -33.5t80.5 -10.5q64 0 103.5 27.5t39.5 87.5v59z" />
<glyph unicode="z" horiz-adv-x="524" d="M30 0v102l254 290h-242v123h440v-98l-257 -295h266v-122h-461z" />
<glyph unicode="{" horiz-adv-x="383" d="M309 -116q-78 0 -127 45t-49 130v126q0 19 -3.5 35t-12.5 28t-24.5 18.5t-39.5 6.5h-44v91h44q47 0 63.5 25t16.5 63v126q0 85 49 130t127 45h75v-92h-45q-48 0 -67 -26t-19 -70v-93q0 -118 -97 -154q49 -17 73 -56t24 -96v-94q0 -44 19 -70t67 -26h45v-92h-75z" />
<glyph unicode="|" horiz-adv-x="232" d="M62 -108v822h108v-822h-108z" />
<glyph unicode="}" horiz-adv-x="383" d="M330 273q-46 0 -62.5 -25t-16.5 -63v-126q0 -85 -49 -130t-127 -45h-76v92h45q49 0 68 26t19 70v93q0 58 23.5 97t73.5 56q-50 17 -73.5 56.5t-23.5 96.5v94q0 44 -19 70t-68 26h-45v92h76q78 0 127 -45t49 -130v-126q0 -38 16.5 -63t62.5 -25h44v-91h-44z" />
<glyph unicode="~" horiz-adv-x="591" d="M26 257q43 70 86.5 107.5t100.5 37.5q17 0 35.5 -4.5t41.5 -18.5q27 -15 42.5 -24.5t25.5 -15t17.5 -8t18.5 -2.5q25 0 48.5 17t52.5 55l71 -44q-42 -70 -85.5 -107.5t-100.5 -37.5q-18 0 -36 4.5t-41 18.5q-28 14 -43.5 23.5t-25.5 15t-17 8t-18 2.5q-26 0 -49.5 -17 t-52.5 -55z" />
<glyph unicode="&#xa1;" horiz-adv-x="290" d="M69 -174v160l39 308h74l39 -308v-160h-152zM69 371v144h152v-144h-152z" />
<glyph unicode="&#xa2;" horiz-adv-x="586" d="M544 133q-26 -59 -78 -97.5t-126 -46.5v-83h-59v83q-57 5 -102 27.5t-75.5 59.5t-47 85t-16.5 104t16.5 104.5t47 85t75.5 59.5t102 28v82h59v-82q71 -7 123.5 -43.5t79.5 -95.5l-119 -49q-12 26 -33.5 44t-50.5 24v-312q31 6 51.5 24.5t32.5 45.5zM180 266 q0 -58 25 -101t76 -54v311q-25 -5 -44 -19t-31.5 -35t-19 -47.5t-6.5 -54.5z" />
<glyph unicode="&#xa3;" horiz-adv-x="608" d="M612 118q-30 -69 -74 -100t-93 -31q-28 0 -53.5 7.5t-51 16.5t-52 16.5t-55.5 7.5q-32 0 -77 -11t-87 -37l-50 111q60 29 84.5 62.5t24.5 69.5q0 25 -11 58h-109v90h76q-13 35 -20 60.5t-7 55.5q0 51 19.5 92t54 69t81.5 43t103 15q91 0 156.5 -39.5t110.5 -116.5 l-123 -62q-20 35 -51 59.5t-82 24.5q-48 0 -80.5 -25t-32.5 -75q0 -27 9 -52.5t18 -48.5h186v-90h-163q2 -17 1 -35.5t-6 -35.5q-3 -17 -12 -37t-29 -42q20 9 36 13t34 4q22 0 40.5 -4.5t35.5 -9.5t33 -9.5t32 -4.5q49 0 71 56l113 -65v0z" />
<glyph unicode="&#xa4;" horiz-adv-x="586" d="M187 303q0 -22 8 -41t22.5 -33.5t33.5 -22.5t41 -8t41 8t33.5 22.5t22.5 33.5t8 41q0 45 -30 75t-75 30q-22 0 -41 -8t-33.5 -22.5t-22.5 -33.5t-8 -41zM90 303q0 26 6.5 50.5t17.5 45.5l-77 78l83 83l79 -78q20 11 43.5 17.5t49.5 6.5t50 -7t44 -18l80 79l83 -83 l-79 -79q11 -21 18 -45t7 -50t-6.5 -49.5t-17.5 -43.5l78 -79l-83 -83l-78 77q-21 -11 -45.5 -17.5t-50.5 -6.5t-50 6.5t-45 17.5l-77 -77l-83 83l77 77q-11 21 -17.5 45t-6.5 50z" />
<glyph unicode="&#xa5;" horiz-adv-x="609" d="M428 371h129v-65h-164l-15 -26v-51h179v-67h-179v-162h-148v162h-181v67h181v50l-15 27h-166v65h132l-176 329h170l131 -282l130 282h168z" />
<glyph unicode="&#xa6;" horiz-adv-x="218" d="M65 395v319h88v-319h-88zM65 -108v319h88v-319h-88z" />
<glyph unicode="&#xa7;" horiz-adv-x="582" d="M543 145q0 -58 -19.5 -108t-56 -87t-88.5 -58t-117 -21q-64 0 -120.5 21t-102.5 63l76 97q29 -29 65.5 -45.5t81.5 -16.5q68 0 107 43q-17 9 -32.5 19t-31.5 20l-44 27q-39 24 -79 53.5t-72 66.5t-52 83t-20 103q0 58 19.5 108t56 86.5t89 57.5t117.5 21q64 0 120.5 -21 t102.5 -63l-76 -97q-29 29 -65.5 46t-81.5 17q-69 0 -107 -44q15 -10 31 -20t32 -19l47 -28q41 -25 80.5 -55t70.5 -66.5t50 -81.5t19 -101zM421 150q0 38 -12 68.5t-34.5 57t-55.5 52t-74 54.5l-80 56q-3 -18 -3 -30q-1 -7 -0.5 -13.5t1.5 -11.5q3 -35 15.5 -63t35 -53 t53.5 -49t70 -51l80 -55q4 20 4 38z" />
<glyph unicode="&#xa8;" horiz-adv-x="312" d="M-18 587v113h111v-113h-111zM219 587v113h111v-113h-111z" />
<glyph unicode="&#xa9;" horiz-adv-x="802" d="M770 350q0 -76 -29 -143t-79.5 -117.5t-117.5 -79.5t-143 -29t-143 29t-117.5 79.5t-79.5 117.5t-29 143t29 143.5t79.5 117.5t117.5 79t143 29t143 -29t117.5 -79t79.5 -117.5t29 -143.5zM699 350q0 62 -23.5 116.5t-64 95t-95 64t-115.5 23.5q-62 0 -116.5 -23.5 t-95.5 -64t-64.5 -95t-23.5 -116.5t23.5 -116.5t64.5 -95t95.5 -64t116.5 -23.5t116 23.5t94.5 64t64 95t23.5 116.5zM598 247q-35 -58 -86.5 -86.5t-109.5 -28.5q-45 0 -85 17t-70 46.5t-47.5 69.5t-17.5 85q0 46 17.5 86t47.5 69.5t70 46.5t85 17q58 0 107.5 -27.5 t86.5 -87.5l-87 -57q-19 35 -46.5 51t-59.5 16q-23 0 -43.5 -9t-36 -24.5t-24.5 -36t-9 -44.5q0 -23 9 -44t24.5 -37t36 -25t43.5 -9q68 0 108 69z" />
<glyph unicode="&#xaa;" horiz-adv-x="433" d="M403 328q-11 -6 -29.5 -9t-29.5 -3q-26 0 -47.5 10.5t-29.5 35.5q-20 -27 -49.5 -38t-61.5 -11q-53 0 -88.5 28.5t-35.5 81.5q0 36 16 55.5t40 29.5t51.5 13.5t51.5 7t40 10t16 22.5q0 20 -19.5 26t-38.5 6q-26 0 -55.5 -8.5t-55.5 -25.5l-35 73q34 22 76.5 31.5 t81.5 9.5q72 0 112 -30t40 -99v-133q0 -19 17 -19q2 0 8 1t11 4zM248 482q-11 -8 -25.5 -10t-34.5 -6q-23 -5 -39 -11t-16 -28q0 -20 13.5 -28t32.5 -8q29 0 49 14.5t20 46.5v30z" />
<glyph unicode="&#xab;" horiz-adv-x="492" d="M16 291l159 201l70 -52l-114 -175l114 -175l-70 -52l-159 202v51zM230 291l159 201l70 -52l-113 -175l113 -175l-70 -52l-159 202v51z" />
<glyph unicode="&#xac;" horiz-adv-x="611" d="M440 49v196h-394v118h511v-314h-117z" />
<glyph unicode="&#xad;" horiz-adv-x="401" d="M49 218v126h303v-126h-303z" />
<glyph unicode="&#xae;" horiz-adv-x="802" d="M770 350q0 -76 -29 -143t-79.5 -117.5t-117.5 -79.5t-143 -29t-143 29t-117.5 79.5t-79.5 117.5t-29 143t29 143.5t79.5 117.5t117.5 79t143 29t143 -29t117.5 -79t79.5 -117.5t29 -143.5zM700 350q0 62 -23.5 116.5t-64.5 95t-95.5 64t-115.5 23.5q-62 0 -116.5 -23.5 t-95.5 -64t-64.5 -95t-23.5 -116.5t23.5 -116.5t64.5 -95t95.5 -64t116.5 -23.5t116.5 23.5t95 64t64 95t23.5 116.5zM474 148l-61 138h-70v-138h-107v408h184q80 0 119.5 -37t39.5 -96q0 -42 -21 -71.5t-52 -43.5l80 -160h-112zM469 419q0 26 -13.5 41t-38.5 15h-74v-110 h74q26 0 39 14.5t13 39.5z" />
<glyph unicode="&#xaf;" horiz-adv-x="327" d="M1 607v78h326v-78h-326z" />
<glyph unicode="&#xb0;" horiz-adv-x="370" d="M344 518q0 -33 -12.5 -61.5t-34.5 -50.5t-50.5 -34.5t-61.5 -12.5t-62 12.5t-50.5 34.5t-34 50.5t-12.5 61.5t12.5 62t34 51t50.5 34.5t62 12.5t61.5 -12.5t50.5 -34.5t34.5 -51t12.5 -62zM259 518q0 31 -21.5 53t-52.5 22t-53 -22t-22 -53q0 -30 22 -52t53 -22t52.5 22 t21.5 52z" />
<glyph unicode="&#xb1;" horiz-adv-x="586" d="M37 0v118h511v-118h-511zM352 344v-174h-119v174h-196v117h196v175h119v-175h196v-117h-196z" />
<glyph unicode="&#xb2;" horiz-adv-x="391" d="M28 331v77q60 43 100.5 75t65 56.5t35 43.5t10.5 38q0 25 -17.5 38.5t-42.5 13.5q-24 0 -45 -14.5t-35 -40.5l-86 46q29 46 72.5 74.5t102.5 28.5q72 0 118.5 -37t46.5 -103q0 -25 -8 -48t-26.5 -47t-47.5 -50t-71 -56h168v-95h-340z" />
<glyph unicode="&#xb3;" horiz-adv-x="396" d="M372 458q0 -29 -12 -53.5t-34.5 -42.5t-54.5 -28.5t-72 -10.5q-136 0 -185 115l91 29q15 -31 41.5 -41t53.5 -10q29 0 45.5 13t16.5 33t-16.5 30t-42.5 10h-56v89h54q17 0 34 9.5t17 31.5t-18 31.5t-41 9.5q-28 0 -51 -10.5t-38 -35.5l-83 38q32 53 75.5 77.5t102.5 24.5 q32 0 61 -7.5t50.5 -23.5t34.5 -39.5t13 -54.5q0 -29 -11 -51t-35 -36q32 -14 46 -41t14 -56z" />
<glyph unicode="&#xb4;" horiz-adv-x="312" d="M71 609q23 30 48.5 68.5t40.5 71.5l124 -20q-10 -23 -27 -44.5t-38.5 -41.5t-45.5 -37t-46 -28z" />
<glyph unicode="&#xb5;" horiz-adv-x="586" d="M41 -174v689h141v-305q0 -45 18.5 -73.5t66.5 -28.5q42 0 73 28.5t31 87.5v291h141v-386q0 -37 26 -37q16 0 24 6l11 -93q-14 -7 -34.5 -10t-35.5 -3q-38 0 -68 17.5t-41 54.5q-25 -39 -62.5 -57.5t-72.5 -18.5q-26 0 -45.5 9t-31.5 23v-194h-141z" />
<glyph unicode="&#xb6;" horiz-adv-x="563" d="M441 -91v671h-59v-671h-94v323h-42q-46 0 -85.5 15.5t-69 43.5t-46 68t-16.5 90t17 90t46.5 68.5t69 43.5t84.5 15h248v-757h-53z" />
<glyph unicode="&#xb7;" horiz-adv-x="266" d="M222 304q0 -18 -7 -34t-19 -28.5t-28.5 -19.5t-34.5 -7t-34 7t-28.5 19.5t-19.5 28.5t-7 34t7 34.5t19.5 28.5t28.5 19t34 7q37 0 63 -26t26 -63z" />
<glyph unicode="&#xb8;" horiz-adv-x="312" d="M30 -63q13 -13 32 -23.5t45 -10.5q23 0 38 10.5t15 30.5t-14 36t-34 27l36 20q44 -16 71 -45.5t27 -64.5q0 -20 -9.5 -37.5t-26 -30t-39.5 -19.5t-50 -7q-32 0 -56 8.5t-35 18.5v87z" />
<glyph unicode="&#xb9;" horiz-adv-x="335" d="M136 422v223q-20 -7 -47.5 -12.5t-55.5 -8.5l-13 82q51 8 85.5 20.5t57.5 32.5h80v-337h86v-91h-296v91h103z" />
<glyph unicode="&#xba;" horiz-adv-x="429" d="M403 494q0 -40 -13.5 -73t-38 -57t-59.5 -37t-78 -13t-78 13t-59.5 37t-37.5 57t-13 73t13 73t37.5 56.5t59.5 36.5t78 13t78 -13t59.5 -36.5t38 -56.5t13.5 -73zM293 494q0 40 -20 66t-59 26q-38 0 -58 -26t-20 -66t20 -65.5t58 -25.5q39 0 59 25.5t20 65.5z" />
<glyph unicode="&#xbb;" horiz-adv-x="492" d="M475 240l-158 -202l-70 52l113 175l-113 175l70 52l158 -201v-51zM261 240l-158 -202l-70 52l113 175l-113 175l70 52l158 -201v-51z" />
<glyph unicode="&#xbc;" horiz-adv-x="1007" d="M914 87v-87h-103v87h-208v77q17 31 31 65t24.5 68.5t16.5 68t6 62.5h105q-1 -59 -21.5 -124.5t-53.5 -127.5h102v151h101v-151h58v-89h-58zM326 0h-104l454 700h105zM160 363v223q-20 -7 -47.5 -12.5t-54.5 -8.5l-14 82q52 8 86 20.5t57 32.5h80v-337h86v-91h-295v91h102 z" />
<glyph unicode="&#xbd;" horiz-adv-x="1007" d="M323 0h-104l455 700h104zM157 363v223q-20 -7 -47.5 -12.5t-54.5 -8.5l-14 82q52 8 86 20.5t57 32.5h80v-337h86v-91h-295v91h102zM629 0v77q60 43 100.5 75t64.5 56.5t34.5 44t10.5 37.5q0 25 -17.5 38.5t-42.5 13.5q-24 0 -45 -14t-35 -40l-86 46q29 45 72.5 73.5 t102.5 28.5q72 0 118.5 -36.5t46.5 -103.5q0 -25 -8 -48t-26.5 -47t-47.5 -50t-71 -56h169v-95h-340z" />
<glyph unicode="&#xbe;" horiz-adv-x="1007" d="M386 399q0 -29 -12 -53.5t-34.5 -42.5t-54.5 -28.5t-72 -10.5q-135 0 -184 115l91 29q15 -31 41 -41t54 -10q29 0 45 13t16 33t-16 30t-42 10h-57v89h54q17 0 34 9.5t17 31.5t-18 31.5t-40 9.5q-28 0 -51.5 -10.5t-38.5 -35.5l-82 38q31 53 74.5 77.5t102.5 24.5 q32 0 61 -7.5t51 -23.5t35 -39.5t13 -54.5q0 -59 -47 -87q33 -14 46.5 -41t13.5 -56zM925 87v-87h-103v87h-208v77q17 31 31 65t24.5 68.5t16.5 68t6 62.5h105q-1 -59 -22 -124.5t-54 -127.5h102v151h102v-151h57v-89h-57zM337 0h-105l455 700h105z" />
<glyph unicode="&#xbf;" horiz-adv-x="546" d="M47 29q0 46 16.5 82t44 63t63.5 45.5t75 27.5v48h142v-168q-13 3 -28.5 4.5t-25.5 1.5q-59 0 -97 -24t-38 -75q0 -43 29.5 -67t77.5 -24q39 0 76 14t69 46l79 -94q-51 -45 -109 -68t-131 -23q-53 0 -97.5 14.5t-77 41.5t-50.5 66t-18 89zM239 371v144h152v-144h-152z" />
<glyph unicode="&#xc0;" horiz-adv-x="698" d="M537 0l-55 162h-270l-56 -162h-161l266 700h176l265 -700h-165zM347 574l-98 -292h196zM368 740q-21 11 -45 28t-46 37t-39 41.5t-27 44.5l124 20q15 -33 40.5 -71.5t48.5 -68.5z" />
<glyph unicode="&#xc1;" horiz-adv-x="698" d="M537 0l-55 162h-270l-56 -162h-161l266 700h176l265 -700h-165zM347 574l-98 -292h196zM269 771q23 30 48.5 68.5t40.5 71.5l124 -20q-10 -23 -27 -44.5t-38.5 -41.5t-45.5 -37t-46 -28z" />
<glyph unicode="&#xc2;" horiz-adv-x="698" d="M537 0l-55 162h-270l-56 -162h-161l266 700h176l265 -700h-165zM347 574l-98 -292h196zM401 903q28 -25 61 -50.5t76 -52.5l-35 -58q-44 10 -85 30t-71 44q-29 -24 -70.5 -44t-85.5 -30l-35 58q43 27 76.5 52.5t61.5 50.5h107z" />
<glyph unicode="&#xc3;" horiz-adv-x="698" d="M537 0l-55 162h-270l-56 -162h-161l266 700h176l265 -700h-165zM347 574l-98 -292h196zM546 858q-18 -42 -50.5 -72t-77.5 -30q-21 0 -39.5 6.5t-35.5 14.5t-33 14t-32 6q-20 0 -40 -11t-37 -33l-53 38q18 41 50 71.5t77 30.5q21 0 39.5 -7t35.5 -15t33.5 -14.5 t32.5 -6.5q20 0 40 11.5t36 33.5z" />
<glyph unicode="&#xc4;" horiz-adv-x="698" d="M537 0l-55 162h-270l-56 -162h-161l266 700h176l265 -700h-165zM347 574l-98 -292h196zM173 749v113h111v-113h-111zM410 749v113h111v-113h-111z" />
<glyph unicode="&#xc5;" horiz-adv-x="698" d="M206 740q0 26 11 49t30.5 40.5t45.5 27.5t56 10t56 -10t45.5 -27.5t31 -40.5t11.5 -49q0 -25 -11 -46.5t-28 -36.5l248 -657h-165l-55 162h-270l-56 -162h-161l250 657q-17 15 -28 36.5t-11 46.5zM347 574l-98 -292h196zM406 740q0 25 -16 41.5t-41 16.5t-41.5 -16.5 t-16.5 -41.5t16.5 -41t41.5 -16t41 16t16 41z" />
<glyph unicode="&#xc6;" horiz-adv-x="988" d="M461 0v162h-234l-80 -162h-162l356 700h606v-133h-339v-141h281v-120h-281v-173h339v-133h-486zM461 581h-36l-141 -299h177v299z" />
<glyph unicode="&#xc7;" horiz-adv-x="700" d="M242 -69q14 -14 34 -24.5t46 -10.5q24 0 39.5 11t15.5 32q0 26 -27 51q-71 5 -130 33t-101 75t-65 111.5t-23 141.5q0 81 25.5 147.5t71.5 114t110 74t142 26.5q92 0 169 -39.5t129 -125.5l-116 -70q-32 54 -76.5 79.5t-101.5 25.5q-46 0 -83 -17t-62.5 -48t-39.5 -73 t-14 -93t14 -94.5t39.5 -74.5t62 -48.5t81.5 -17.5q61 0 104 29t72 82l124 -65q-42 -73 -106 -118t-151 -54q18 -17 28.5 -36.5t10.5 -41.5q0 -43 -35.5 -70.5t-92.5 -27.5q-32 0 -56.5 8.5t-37.5 19.5v88z" />
<glyph unicode="&#xc8;" horiz-adv-x="648" d="M73 0v700h534v-133h-386v-141h327v-120h-327v-173h386v-133h-534zM352 740q-21 11 -45 28t-46 37t-39 41.5t-27 44.5l124 20q15 -33 40.5 -71.5t48.5 -68.5z" />
<glyph unicode="&#xc9;" horiz-adv-x="648" d="M73 0v700h534v-133h-386v-141h327v-120h-327v-173h386v-133h-534zM263 771q23 30 48.5 68.5t40.5 71.5l124 -20q-10 -23 -27 -44.5t-38.5 -41.5t-45.5 -37t-46 -28z" />
<glyph unicode="&#xca;" horiz-adv-x="648" d="M73 0v700h534v-133h-386v-141h327v-120h-327v-173h386v-133h-534zM396 903q28 -25 61 -50.5t76 -52.5l-35 -58q-44 10 -85 30t-71 44q-29 -24 -70.5 -44t-85.5 -30l-35 58q43 27 76.5 52.5t61.5 50.5h107z" />
<glyph unicode="&#xcb;" horiz-adv-x="648" d="M73 0v700h534v-133h-386v-141h327v-120h-327v-173h386v-133h-534zM168 749v113h111v-113h-111zM405 749v113h111v-113h-111z" />
<glyph unicode="&#xcc;" horiz-adv-x="293" d="M73 0v700h147v-700h-147zM171 740q-21 11 -45 28t-46 37t-39 41.5t-27 44.5l124 20q15 -33 40.5 -71.5t48.5 -68.5z" />
<glyph unicode="&#xcd;" horiz-adv-x="293" d="M73 0v700h147v-700h-147zM62 771q23 30 48.5 68.5t40.5 71.5l124 -20q-10 -23 -27 -44.5t-38.5 -41.5t-45.5 -37t-46 -28z" />
<glyph unicode="&#xce;" horiz-adv-x="293" d="M73 0v700h147v-700h-147zM202 903q28 -25 61 -50.5t76 -52.5l-35 -58q-44 10 -85 30t-71 44q-29 -24 -70.5 -44t-85.5 -30l-35 58q43 27 76.5 52.5t61.5 50.5h107z" />
<glyph unicode="&#xcf;" horiz-adv-x="293" d="M73 0v700h147v-700h-147zM-26 749v113h111v-113h-111zM211 749v113h111v-113h-111z" />
<glyph unicode="&#xd0;" horiz-adv-x="776" d="M743 350q0 -75 -22.5 -139t-67 -111t-110 -73.5t-150.5 -26.5h-289v296h-106v117h106v287h289q85 0 150.5 -26.5t110 -73t67 -111t22.5 -139.5zM590 350q0 103 -51.5 160t-145.5 57h-139v-154h167v-117h-167v-163h139q94 0 145.5 57t51.5 160z" />
<glyph unicode="&#xd1;" horiz-adv-x="755" d="M503 0l-288 504v-504h-142v700h188l279 -493v493h142v-700h-179zM572 822q-18 -42 -50.5 -72t-77.5 -30q-21 0 -39.5 6.5t-35.5 14.5t-33 14t-32 6q-20 0 -40 -11t-37 -33l-53 38q18 41 50 71.5t77 30.5q21 0 39.5 -7t35.5 -15t33.5 -14.5t32.5 -6.5q20 0 40 11.5 t36 33.5z" />
<glyph unicode="&#xd2;" horiz-adv-x="769" d="M738 350q0 -77 -24.5 -143t-70 -115t-111.5 -77t-148 -28q-83 0 -148 28t-111 77t-70 115t-24 143q0 76 24 142.5t70 115.5t111 77t148 28q82 0 148 -28t111.5 -77t70 -115.5t24.5 -142.5zM584 350q0 48 -13.5 89.5t-39 72t-62.5 48t-85 17.5t-85.5 -17.5t-62.5 -48 t-38 -72t-13 -89.5t13 -89.5t38 -72t62.5 -48t85.5 -17.5t85 17.5t62.5 48t39 72t13.5 89.5zM402 740q-21 11 -45 28t-46 37t-39 41.5t-27 44.5l124 20q15 -33 40.5 -71.5t48.5 -68.5z" />
<glyph unicode="&#xd3;" horiz-adv-x="769" d="M738 350q0 -77 -24.5 -143t-70 -115t-111.5 -77t-148 -28q-83 0 -148 28t-111 77t-70 115t-24 143q0 76 24 142.5t70 115.5t111 77t148 28q82 0 148 -28t111.5 -77t70 -115.5t24.5 -142.5zM584 350q0 48 -13.5 89.5t-39 72t-62.5 48t-85 17.5t-85.5 -17.5t-62.5 -48 t-38 -72t-13 -89.5t13 -89.5t38 -72t62.5 -48t85.5 -17.5t85 17.5t62.5 48t39 72t13.5 89.5zM315 771q23 30 48.5 68.5t40.5 71.5l124 -20q-10 -23 -27 -44.5t-38.5 -41.5t-45.5 -37t-46 -28z" />
<glyph unicode="&#xd4;" horiz-adv-x="769" d="M738 350q0 -77 -24.5 -143t-70 -115t-111.5 -77t-148 -28q-83 0 -148 28t-111 77t-70 115t-24 143q0 76 24 142.5t70 115.5t111 77t148 28q82 0 148 -28t111.5 -77t70 -115.5t24.5 -142.5zM584 350q0 48 -13.5 89.5t-39 72t-62.5 48t-85 17.5t-85.5 -17.5t-62.5 -48 t-38 -72t-13 -89.5t13 -89.5t38 -72t62.5 -48t85.5 -17.5t85 17.5t62.5 48t39 72t13.5 89.5zM439 903q28 -25 61 -50.5t76 -52.5l-35 -58q-44 10 -85 30t-71 44q-29 -24 -70.5 -44t-85.5 -30l-35 58q43 27 76.5 52.5t61.5 50.5h107z" />
<glyph unicode="&#xd5;" horiz-adv-x="769" d="M738 350q0 -77 -24.5 -143t-70 -115t-111.5 -77t-148 -28q-83 0 -148 28t-111 77t-70 115t-24 143q0 76 24 142.5t70 115.5t111 77t148 28q82 0 148 -28t111.5 -77t70 -115.5t24.5 -142.5zM584 350q0 48 -13.5 89.5t-39 72t-62.5 48t-85 17.5t-85.5 -17.5t-62.5 -48 t-38 -72t-13 -89.5t13 -89.5t38 -72t62.5 -48t85.5 -17.5t85 17.5t62.5 48t39 72t13.5 89.5zM579 858q-18 -42 -50.5 -72t-77.5 -30q-21 0 -39.5 6.5t-35.5 14.5t-33 14t-32 6q-20 0 -40 -11t-37 -33l-53 38q18 41 50 71.5t77 30.5q21 0 39.5 -7t35.5 -15t33.5 -14.5 t32.5 -6.5q20 0 40 11.5t36 33.5z" />
<glyph unicode="&#xd6;" horiz-adv-x="769" d="M738 350q0 -77 -24.5 -143t-70 -115t-111.5 -77t-148 -28q-83 0 -148 28t-111 77t-70 115t-24 143q0 76 24 142.5t70 115.5t111 77t148 28q82 0 148 -28t111.5 -77t70 -115.5t24.5 -142.5zM584 350q0 48 -13.5 89.5t-39 72t-62.5 48t-85 17.5t-85.5 -17.5t-62.5 -48 t-38 -72t-13 -89.5t13 -89.5t38 -72t62.5 -48t85.5 -17.5t85 17.5t62.5 48t39 72t13.5 89.5zM207 749v113h111v-113h-111zM444 749v113h111v-113h-111z" />
<glyph unicode="&#xd7;" horiz-adv-x="586" d="M466 48l-173 173l-173 -173l-83 83l173 173l-173 173l83 83l173 -172l173 172l83 -83l-172 -173l172 -173z" />
<glyph unicode="&#xd8;" horiz-adv-x="769" d="M112 28l32 44q-55 51 -84 122t-29 156q0 76 24 142.5t70 115.5t111 77t148 28q51 0 95 -11.5t82 -31.5l34 46l62 -44l-33 -46q55 -50 84.5 -120.5t29.5 -155.5q0 -77 -24.5 -143t-70 -115t-111.5 -77t-148 -28q-100 0 -178 43l-32 -46zM584 350q0 92 -46 152l-250 -355 q40 -24 96 -24q48 0 85 17.5t62.5 48t39 72t13.5 89.5zM185 350q0 -46 11 -85t34 -68l250 356q-21 11 -45 17.5t-51 6.5q-48 0 -85.5 -17.5t-62.5 -48t-38 -72t-13 -89.5z" />
<glyph unicode="&#xd9;" horiz-adv-x="732" d="M666 269q0 -67 -21.5 -119.5t-61 -88.5t-95 -55t-122.5 -19q-68 0 -123 19t-95 55t-61.5 88.5t-21.5 119.5v431h148v-431q0 -70 39 -108t114 -38q73 0 113 38t40 108v431h147v-431zM385 740q-21 11 -45 28t-46 37t-39 41.5t-27 44.5l124 20q15 -33 40.5 -71.5t48.5 -68.5 z" />
<glyph unicode="&#xda;" horiz-adv-x="732" d="M666 269q0 -67 -21.5 -119.5t-61 -88.5t-95 -55t-122.5 -19q-68 0 -123 19t-95 55t-61.5 88.5t-21.5 119.5v431h148v-431q0 -70 39 -108t114 -38q73 0 113 38t40 108v431h147v-431zM299 771q23 30 48.5 68.5t40.5 71.5l124 -20q-10 -23 -27 -44.5t-38.5 -41.5t-45.5 -37 t-46 -28z" />
<glyph unicode="&#xdb;" horiz-adv-x="732" d="M666 269q0 -67 -21.5 -119.5t-61 -88.5t-95 -55t-122.5 -19q-68 0 -123 19t-95 55t-61.5 88.5t-21.5 119.5v431h148v-431q0 -70 39 -108t114 -38q73 0 113 38t40 108v431h147v-431zM418 903q28 -25 61 -50.5t76 -52.5l-35 -58q-44 10 -85 30t-71 44q-29 -24 -70.5 -44 t-85.5 -30l-35 58q43 27 76.5 52.5t61.5 50.5h107z" />
<glyph unicode="&#xdc;" horiz-adv-x="732" d="M666 269q0 -67 -21.5 -119.5t-61 -88.5t-95 -55t-122.5 -19q-68 0 -123 19t-95 55t-61.5 88.5t-21.5 119.5v431h148v-431q0 -70 39 -108t114 -38q73 0 113 38t40 108v431h147v-431zM190 749v113h111v-113h-111zM427 749v113h111v-113h-111z" />
<glyph unicode="&#xdd;" horiz-adv-x="671" d="M409 274v-274h-147v273l-270 427h173l171 -293l173 293h171zM268 771q23 30 48.5 68.5t40.5 71.5l124 -20q-10 -23 -27 -44.5t-38.5 -41.5t-45.5 -37t-46 -28z" />
<glyph unicode="&#xde;" horiz-adv-x="668" d="M650 376q0 -53 -17.5 -95.5t-51.5 -73t-82.5 -47t-110.5 -16.5h-167v-144h-148v700h148v-90h167q62 0 110.5 -16.5t82.5 -47.5t51.5 -74t17.5 -96zM387 278q54 0 83 25.5t29 73.5t-29 73.5t-83 25.5h-166v-198h166z" />
<glyph unicode="&#xdf;" horiz-adv-x="645" d="M617 204q0 -51 -17.5 -91t-49.5 -67.5t-76.5 -42.5t-97.5 -15q-34 0 -68.5 5t-60.5 15l26 122q16 -8 37 -13t43 -5q51 0 83 27t32 78q0 55 -36 77t-93 22h-61v117h46q45 0 75 21t30 65q0 24 -9 41t-24.5 27.5t-36 15.5t-43.5 5q-53 0 -84 -25t-31 -73v-510h-141v512 q0 100 67 157t192 57q55 0 101 -12.5t80 -36.5t53 -59.5t19 -82.5q0 -100 -93 -149q66 -20 102 -65t36 -117z" />
<glyph unicode="&#xe0;" horiz-adv-x="661" d="M273 527q50 0 92 -19t75 -59v66h141v-386q0 -38 29 -38q20 0 28 7l15 -90q-15 -8 -37.5 -12t-39.5 -4q-39 0 -73.5 16t-51.5 61q-32 -45 -77 -63t-98 -18q-59 0 -104.5 20.5t-77 57t-48 86t-16.5 106.5q0 58 17 107t48.5 85t76.5 56.5t101 20.5zM440 258q0 30 -8.5 57 t-25 47t-41.5 31.5t-58 11.5t-57 -11.5t-40 -32t-24 -47t-8 -56.5t8 -57t23.5 -47.5t40 -32t57.5 -11.5t58 11.5t41.5 32t25 47.5t8.5 57zM323 578q-21 11 -45 28t-46 37t-39 41.5t-27 44.5l124 20q15 -33 40.5 -71.5t48.5 -68.5z" />
<glyph unicode="&#xe1;" horiz-adv-x="661" d="M273 527q50 0 92 -19t75 -59v66h141v-386q0 -38 29 -38q20 0 28 7l15 -90q-15 -8 -37.5 -12t-39.5 -4q-39 0 -73.5 16t-51.5 61q-32 -45 -77 -63t-98 -18q-59 0 -104.5 20.5t-77 57t-48 86t-16.5 106.5q0 58 17 107t48.5 85t76.5 56.5t101 20.5zM440 258q0 30 -8.5 57 t-25 47t-41.5 31.5t-58 11.5t-57 -11.5t-40 -32t-24 -47t-8 -56.5t8 -57t23.5 -47.5t40 -32t57.5 -11.5t58 11.5t41.5 32t25 47.5t8.5 57zM230 609q23 30 48.5 68.5t40.5 71.5l124 -20q-10 -23 -27 -44.5t-38.5 -41.5t-45.5 -37t-46 -28z" />
<glyph unicode="&#xe2;" horiz-adv-x="661" d="M273 527q50 0 92 -19t75 -59v66h141v-386q0 -38 29 -38q20 0 28 7l15 -90q-15 -8 -37.5 -12t-39.5 -4q-39 0 -73.5 16t-51.5 61q-32 -45 -77 -63t-98 -18q-59 0 -104.5 20.5t-77 57t-48 86t-16.5 106.5q0 58 17 107t48.5 85t76.5 56.5t101 20.5zM440 258q0 30 -8.5 57 t-25 47t-41.5 31.5t-58 11.5t-57 -11.5t-40 -32t-24 -47t-8 -56.5t8 -57t23.5 -47.5t40 -32t57.5 -11.5t58 11.5t41.5 32t25 47.5t8.5 57zM352 741q28 -25 61 -50.5t76 -52.5l-35 -58q-44 10 -85 30t-71 44q-29 -24 -70.5 -44t-85.5 -30l-35 58q43 27 76.5 52.5t61.5 50.5 h107z" />
<glyph unicode="&#xe3;" horiz-adv-x="661" d="M273 527q50 0 92 -19t75 -59v66h141v-386q0 -38 29 -38q20 0 28 7l15 -90q-15 -8 -37.5 -12t-39.5 -4q-39 0 -73.5 16t-51.5 61q-32 -45 -77 -63t-98 -18q-59 0 -104.5 20.5t-77 57t-48 86t-16.5 106.5q0 58 17 107t48.5 85t76.5 56.5t101 20.5zM440 258q0 30 -8.5 57 t-25 47t-41.5 31.5t-58 11.5t-57 -11.5t-40 -32t-24 -47t-8 -56.5t8 -57t23.5 -47.5t40 -32t57.5 -11.5t58 11.5t41.5 32t25 47.5t8.5 57zM502 696q-18 -42 -50.5 -72t-77.5 -30q-21 0 -39.5 6.5t-35.5 14.5t-33 14t-32 6q-20 0 -40 -11t-37 -33l-53 38q18 41 50 71.5 t77 30.5q21 0 39.5 -7t35.5 -15t33.5 -14.5t32.5 -6.5q20 0 40 11.5t36 33.5z" />
<glyph unicode="&#xe4;" horiz-adv-x="661" d="M273 527q50 0 92 -19t75 -59v66h141v-386q0 -38 29 -38q20 0 28 7l15 -90q-15 -8 -37.5 -12t-39.5 -4q-39 0 -73.5 16t-51.5 61q-32 -45 -77 -63t-98 -18q-59 0 -104.5 20.5t-77 57t-48 86t-16.5 106.5q0 58 17 107t48.5 85t76.5 56.5t101 20.5zM440 258q0 30 -8.5 57 t-25 47t-41.5 31.5t-58 11.5t-57 -11.5t-40 -32t-24 -47t-8 -56.5t8 -57t23.5 -47.5t40 -32t57.5 -11.5t58 11.5t41.5 32t25 47.5t8.5 57zM129 587v113h111v-113h-111zM366 587v113h111v-113h-111z" />
<glyph unicode="&#xe5;" horiz-adv-x="661" d="M273 527q50 0 92 -19t75 -59v66h141v-386q0 -38 29 -38q20 0 28 7l15 -90q-15 -8 -37.5 -12t-39.5 -4q-39 0 -73.5 16t-51.5 61q-32 -45 -77 -63t-98 -18q-59 0 -104.5 20.5t-77 57t-48 86t-16.5 106.5q0 58 17 107t48.5 85t76.5 56.5t101 20.5zM440 258q0 30 -8.5 57 t-25 47t-41.5 31.5t-58 11.5t-57 -11.5t-40 -32t-24 -47t-8 -56.5t8 -57t23.5 -47.5t40 -32t57.5 -11.5t58 11.5t41.5 32t25 47.5t8.5 57zM422 675q0 -45 -33.5 -75.5t-87.5 -30.5q-26 0 -48.5 8.5t-38.5 22.5t-25 33.5t-9 41.5t9 41.5t25 34t38.5 23t48.5 8.5q27 0 49 -8.5 t38 -23t25 -34t9 -41.5zM353 674q0 22 -15.5 37.5t-36.5 15.5t-36.5 -15.5t-15.5 -37.5q0 -21 15.5 -36t36.5 -15t36.5 15t15.5 36z" />
<glyph unicode="&#xe6;" horiz-adv-x="999" d="M440 258q0 30 -8.5 57t-25 47t-41.5 31.5t-58 11.5t-57 -11.5t-40 -32t-24 -47t-8 -56.5t8 -57t23.5 -47.5t40 -32t57.5 -11.5t58 11.5t41.5 32t25 47.5t8.5 57zM734 527q55 0 99 -19.5t75 -55t47.5 -84.5t16.5 -108q0 -10 -0.5 -20.5t-1.5 -18.5h-389q3 -56 41.5 -85.5 t100.5 -29.5q46 0 82.5 17.5t64.5 46.5l91 -83q-43 -45 -102 -72t-143 -27q-75 0 -129 25t-87 70q-32 -44 -84.5 -69.5t-118.5 -25.5q-62 0 -111.5 20t-84 55.5t-53 85t-18.5 109.5q0 57 17 106.5t48.5 85.5t76.5 56.5t101 20.5q50 0 92 -19t75 -59v66h141v-53q29 29 67 47 t86 18zM833 312q-5 55 -40 82t-86 27q-54 0 -87.5 -29t-38.5 -80h252z" />
<glyph unicode="&#xe7;" horiz-adv-x="550" d="M170 -61q13 -13 32.5 -23.5t44.5 -10.5q23 0 38 10t15 30q0 24 -24 43q-57 4 -103 25.5t-78.5 57.5t-49.5 83.5t-17 102.5q0 58 19 107.5t54.5 85.5t85.5 56.5t112 20.5q84 0 141 -36.5t91 -92.5l-105 -65q-20 34 -49.5 54t-70.5 20q-30 0 -54 -11.5t-40.5 -31.5t-25 -47 t-8.5 -59q0 -66 34.5 -108.5t95.5 -42.5q43 0 74.5 21t51.5 53l99 -71q-29 -45 -74.5 -77t-110.5 -41q38 -33 38 -74q0 -40 -35 -66t-90 -26q-32 0 -56 8t-35 18v87z" />
<glyph unicode="&#xe8;" horiz-adv-x="598" d="M571 267q0 -12 -0.5 -22.5t-1.5 -18.5h-389q0 -21 8.5 -42t21.5 -35q19 -21 47.5 -31t64.5 -10q46 0 83.5 15t68.5 43l86 -84q-40 -41 -101 -67.5t-144 -26.5q-70 0 -123.5 20.5t-90 56.5t-55 85.5t-18.5 106.5q0 58 19 107.5t54.5 85.5t86.5 56.5t116 20.5 q63 0 112.5 -19t84 -53.5t52.5 -82t18 -105.5zM431 316q0 13 -4.5 26.5t-10.5 24.5q-16 29 -44.5 43t-65.5 14q-54 0 -87 -28.5t-38 -79.5h250zM321 578q-21 11 -45 28t-46 37t-39 41.5t-27 44.5l124 20q15 -33 40.5 -71.5t48.5 -68.5z" />
<glyph unicode="&#xe9;" horiz-adv-x="598" d="M571 267q0 -12 -0.5 -22.5t-1.5 -18.5h-389q0 -21 8.5 -42t21.5 -35q19 -21 47.5 -31t64.5 -10q46 0 83.5 15t68.5 43l86 -84q-40 -41 -101 -67.5t-144 -26.5q-70 0 -123.5 20.5t-90 56.5t-55 85.5t-18.5 106.5q0 58 19 107.5t54.5 85.5t86.5 56.5t116 20.5 q63 0 112.5 -19t84 -53.5t52.5 -82t18 -105.5zM431 316q0 13 -4.5 26.5t-10.5 24.5q-16 29 -44.5 43t-65.5 14q-54 0 -87 -28.5t-38 -79.5h250zM230 609q23 30 48.5 68.5t40.5 71.5l124 -20q-10 -23 -27 -44.5t-38.5 -41.5t-45.5 -37t-46 -28z" />
<glyph unicode="&#xea;" horiz-adv-x="598" d="M571 267q0 -12 -0.5 -22.5t-1.5 -18.5h-389q0 -21 8.5 -42t21.5 -35q19 -21 47.5 -31t64.5 -10q46 0 83.5 15t68.5 43l86 -84q-40 -41 -101 -67.5t-144 -26.5q-70 0 -123.5 20.5t-90 56.5t-55 85.5t-18.5 106.5q0 58 19 107.5t54.5 85.5t86.5 56.5t116 20.5 q63 0 112.5 -19t84 -53.5t52.5 -82t18 -105.5zM431 316q0 13 -4.5 26.5t-10.5 24.5q-16 29 -44.5 43t-65.5 14q-54 0 -87 -28.5t-38 -79.5h250zM357 741q28 -25 61 -50.5t76 -52.5l-35 -58q-44 10 -85 30t-71 44q-29 -24 -70.5 -44t-85.5 -30l-35 58q43 27 76.5 52.5 t61.5 50.5h107z" />
<glyph unicode="&#xeb;" horiz-adv-x="598" d="M571 267q0 -12 -0.5 -22.5t-1.5 -18.5h-389q0 -21 8.5 -42t21.5 -35q19 -21 47.5 -31t64.5 -10q46 0 83.5 15t68.5 43l86 -84q-40 -41 -101 -67.5t-144 -26.5q-70 0 -123.5 20.5t-90 56.5t-55 85.5t-18.5 106.5q0 58 19 107.5t54.5 85.5t86.5 56.5t116 20.5 q63 0 112.5 -19t84 -53.5t52.5 -82t18 -105.5zM431 316q0 13 -4.5 26.5t-10.5 24.5q-16 29 -44.5 43t-65.5 14q-54 0 -87 -28.5t-38 -79.5h250zM131 587v113h111v-113h-111zM368 587v113h111v-113h-111z" />
<glyph unicode="&#xec;" horiz-adv-x="262" d="M60 0v515h142v-515h-142zM161 578q-21 11 -45 28t-46 37t-39 41.5t-27 44.5l124 20q15 -33 40.5 -71.5t48.5 -68.5z" />
<glyph unicode="&#xed;" horiz-adv-x="262" d="M60 0v515h142v-515h-142zM48 609q23 30 48.5 68.5t40.5 71.5l124 -20q-10 -23 -27 -44.5t-38.5 -41.5t-45.5 -37t-46 -28z" />
<glyph unicode="&#xee;" horiz-adv-x="262" d="M60 0v515h142v-515h-142zM186 741q28 -25 61 -50.5t76 -52.5l-35 -58q-44 10 -85 30t-71 44q-29 -24 -70.5 -44t-85.5 -30l-35 58q43 27 76.5 52.5t61.5 50.5h107z" />
<glyph unicode="&#xef;" horiz-adv-x="262" d="M-19 593v107h105v-107h-105zM176 593v107h105v-107h-105zM60 0v515h142v-515h-142z" />
<glyph unicode="&#xf0;" horiz-adv-x="622" d="M272 500q36 0 70 -10.5t61 -31.5q-17 31 -40.5 58.5t-52.5 51.5l-121 -50l-22 55l85 36q-20 13 -39.5 23.5t-39.5 20.5l116 73q26 -14 51.5 -30t48.5 -34l123 49l22 -54l-94 -39q62 -62 99.5 -140t42.5 -169q1 -15 0.5 -30t-1.5 -30q-5 -57 -24 -105.5t-55 -83.5 t-85.5 -53.5t-111.5 -18.5q-60 0 -110.5 18t-87 52t-56.5 82t-20 108q0 52 17 98t48.5 80t76 54t99.5 20zM441 244q0 29 -9 54.5t-26 44.5t-41.5 30t-56.5 11t-56 -11t-40 -30t-24 -44.5t-8 -54.5t8 -54.5t24 -44t40 -29t56 -10.5q33 0 57.5 10.5t41.5 29.5t25.5 44t8.5 54z " />
<glyph unicode="&#xf1;" horiz-adv-x="601" d="M60 0v515h142v-65q32 37 73.5 57t89.5 20q45 0 78.5 -14.5t56 -40t34 -61t11.5 -76.5v-335h-141v302q0 18 -3.5 35.5t-13.5 32t-27 23t-45 8.5q-48 0 -80.5 -30t-32.5 -86v-285h-142zM517 696q-18 -42 -50.5 -72t-77.5 -30q-21 0 -39.5 6.5t-35.5 14.5t-33 14t-32 6 q-20 0 -40 -11t-37 -33l-53 38q18 41 50 71.5t77 30.5q21 0 39.5 -7t35.5 -15t33.5 -14.5t32.5 -6.5q20 0 40 11.5t36 33.5z" />
<glyph unicode="&#xf2;" horiz-adv-x="614" d="M317 578q-21 11 -45 28t-46 37t-39 41.5t-27 44.5l124 20q15 -33 40.5 -71.5t48.5 -68.5zM586 257q0 -60 -19.5 -109.5t-56 -84.5t-88 -54.5t-115.5 -19.5t-115.5 19.5t-88 54.5t-56 84.5t-19.5 109.5t19.5 110t56 85.5t88 55t115.5 19.5t115.5 -19.5t88 -55t56 -85.5 t19.5 -110zM435 258q0 33 -8 60.5t-24.5 47.5t-40.5 31.5t-55 11.5t-55 -11.5t-40.5 -31.5t-25 -47.5t-8.5 -60.5q0 -66 33 -108.5t96 -42.5t95.5 42.5t32.5 108.5z" />
<glyph unicode="&#xf3;" horiz-adv-x="614" d="M234 609q23 30 48.5 68.5t40.5 71.5l124 -20q-10 -23 -27 -44.5t-38.5 -41.5t-45.5 -37t-46 -28zM586 257q0 -60 -19.5 -109.5t-56 -84.5t-88 -54.5t-115.5 -19.5t-115.5 19.5t-88 54.5t-56 84.5t-19.5 109.5t19.5 110t56 85.5t88 55t115.5 19.5t115.5 -19.5t88 -55 t56 -85.5t19.5 -110zM435 258q0 33 -8 60.5t-24.5 47.5t-40.5 31.5t-55 11.5t-55 -11.5t-40.5 -31.5t-25 -47.5t-8.5 -60.5q0 -66 33 -108.5t96 -42.5t95.5 42.5t32.5 108.5z" />
<glyph unicode="&#xf4;" horiz-adv-x="614" d="M361 741q28 -25 61 -50.5t76 -52.5l-35 -58q-44 10 -85 30t-71 44q-29 -24 -70.5 -44t-85.5 -30l-35 58q43 27 76.5 52.5t61.5 50.5h107zM586 257q0 -60 -19.5 -109.5t-56 -84.5t-88 -54.5t-115.5 -19.5t-115.5 19.5t-88 54.5t-56 84.5t-19.5 109.5t19.5 110t56 85.5 t88 55t115.5 19.5t115.5 -19.5t88 -55t56 -85.5t19.5 -110zM435 258q0 33 -8 60.5t-24.5 47.5t-40.5 31.5t-55 11.5t-55 -11.5t-40.5 -31.5t-25 -47.5t-8.5 -60.5q0 -66 33 -108.5t96 -42.5t95.5 42.5t32.5 108.5z" />
<glyph unicode="&#xf5;" horiz-adv-x="614" d="M505 696q-18 -42 -50.5 -72t-77.5 -30q-21 0 -39.5 6.5t-35.5 14.5t-33 14t-32 6q-20 0 -40 -11t-37 -33l-53 38q18 41 50 71.5t77 30.5q21 0 39.5 -7t35.5 -15t33.5 -14.5t32.5 -6.5q20 0 40 11.5t36 33.5zM586 257q0 -60 -19.5 -109.5t-56 -84.5t-88 -54.5 t-115.5 -19.5t-115.5 19.5t-88 54.5t-56 84.5t-19.5 109.5t19.5 110t56 85.5t88 55t115.5 19.5t115.5 -19.5t88 -55t56 -85.5t19.5 -110zM435 258q0 33 -8 60.5t-24.5 47.5t-40.5 31.5t-55 11.5t-55 -11.5t-40.5 -31.5t-25 -47.5t-8.5 -60.5q0 -66 33 -108.5t96 -42.5 t95.5 42.5t32.5 108.5z" />
<glyph unicode="&#xf6;" horiz-adv-x="614" d="M134 587v113h111v-113h-111zM371 587v113h111v-113h-111zM586 257q0 -60 -19.5 -109.5t-56 -84.5t-88 -54.5t-115.5 -19.5t-115.5 19.5t-88 54.5t-56 84.5t-19.5 109.5t19.5 110t56 85.5t88 55t115.5 19.5t115.5 -19.5t88 -55t56 -85.5t19.5 -110zM435 258q0 33 -8 60.5 t-24.5 47.5t-40.5 31.5t-55 11.5t-55 -11.5t-40.5 -31.5t-25 -47.5t-8.5 -60.5q0 -66 33 -108.5t96 -42.5t95.5 42.5t32.5 108.5z" />
<glyph unicode="&#xf7;" horiz-adv-x="586" d="M375 503q0 -34 -24 -58t-58 -24q-35 0 -58.5 24t-23.5 58t23.5 58t58.5 24q34 0 58 -24t24 -58zM37 245v118h511v-118h-511zM375 105q0 -34 -24 -58t-58 -24q-35 0 -58.5 24t-23.5 58t23.5 58t58.5 24q34 0 58 -24t24 -58z" />
<glyph unicode="&#xf8;" horiz-adv-x="614" d="M586 257q0 -60 -19.5 -109.5t-56 -84.5t-88 -54.5t-115.5 -19.5t-116 19q-12 5 -24 11l-25 -33l-54 38l24 31q-5 4 -9 8q-36 35 -55.5 84.5t-19.5 109.5t19.5 110t56 85.5t88 55t115.5 19.5t115 -20q13 -5 26 -11l25 33l53 -38l-24 -31l8 -8q37 -35 56.5 -85t19.5 -110z M362 397q-24 12 -55 12t-55 -11.5t-40.5 -31.5t-25 -47.5t-8.5 -60.5q0 -52 20 -90l172 225zM435 258q0 33 -8 60q-5 15 -11 28l-172 -225q27 -14 63 -14q63 0 95.5 42.5t32.5 108.5z" />
<glyph unicode="&#xf9;" horiz-adv-x="599" d="M539 515v-515h-141v65q-32 -37 -73.5 -57t-89.5 -20q-45 0 -78.5 14.5t-56 40.5t-34 61t-11.5 77v334h140v-302q0 -18 3.5 -35.5t13.5 -32t27.5 -23t45.5 -8.5q47 0 80 30t33 86v285h141zM308 578q-21 11 -45 28t-46 37t-39 41.5t-27 44.5l124 20q15 -33 40.5 -71.5 t48.5 -68.5z" />
<glyph unicode="&#xfa;" horiz-adv-x="599" d="M539 515v-515h-141v65q-32 -37 -73.5 -57t-89.5 -20q-45 0 -78.5 14.5t-56 40.5t-34 61t-11.5 77v334h140v-302q0 -18 3.5 -35.5t13.5 -32t27.5 -23t45.5 -8.5q47 0 80 30t33 86v285h141zM240 609q23 30 48.5 68.5t40.5 71.5l124 -20q-10 -23 -27 -44.5t-38.5 -41.5 t-45.5 -37t-46 -28z" />
<glyph unicode="&#xfb;" horiz-adv-x="599" d="M539 515v-515h-141v65q-32 -37 -73.5 -57t-89.5 -20q-45 0 -78.5 14.5t-56 40.5t-34 61t-11.5 77v334h140v-302q0 -18 3.5 -35.5t13.5 -32t27.5 -23t45.5 -8.5q47 0 80 30t33 86v285h141zM353 741q28 -25 61 -50.5t76 -52.5l-35 -58q-44 10 -85 30t-71 44 q-29 -24 -70.5 -44t-85.5 -30l-35 58q43 27 76.5 52.5t61.5 50.5h107z" />
<glyph unicode="&#xfc;" horiz-adv-x="599" d="M539 515v-515h-141v65q-32 -37 -73.5 -57t-89.5 -20q-45 0 -78.5 14.5t-56 40.5t-34 61t-11.5 77v334h140v-302q0 -18 3.5 -35.5t13.5 -32t27.5 -23t45.5 -8.5q47 0 80 30t33 86v285h141zM123 587v113h111v-113h-111zM360 587v113h111v-113h-111z" />
<glyph unicode="&#xfd;" horiz-adv-x="599" d="M399 108q-32 -37 -73.5 -57t-90.5 -20q-45 0 -78.5 14.5t-56 40.5t-34 61t-11.5 77v291h140v-259q0 -18 3.5 -35.5t13 -32t27 -23t45.5 -8.5q48 0 81.5 30t33.5 86v242h140v-433q0 -55 -13 -104.5t-51 -87.5q-36 -36 -91 -55t-126 -19q-60 0 -114.5 15t-96.5 43l53 104 q35 -23 75.5 -33.5t80.5 -10.5q64 0 103.5 27.5t39.5 87.5v59zM246 609q23 30 48.5 68.5t40.5 71.5l124 -20q-10 -23 -27 -44.5t-38.5 -41.5t-45.5 -37t-46 -28z" />
<glyph unicode="&#xfe;" horiz-adv-x="641" d="M202 714v-261q33 38 75.5 56t91.5 18q56 0 101 -21t76.5 -57t48.5 -85.5t17 -106.5t-17 -106.5t-48.5 -85.5t-76.5 -56.5t-101 -20.5q-49 0 -91.5 18t-75.5 54v-234h-142v888h142zM202 258q0 -30 8.5 -57t25 -47.5t41.5 -32t58 -11.5q32 0 56 12t39.5 32t23.5 47t8 57 t-8 56.5t-23.5 47t-39.5 32t-56 11.5q-33 0 -58 -11.5t-41.5 -31.5t-25 -47t-8.5 -57z" />
<glyph unicode="&#xff;" horiz-adv-x="599" d="M399 108q-32 -37 -73.5 -57t-90.5 -20q-45 0 -78.5 14.5t-56 40.5t-34 61t-11.5 77v291h140v-259q0 -18 3.5 -35.5t13 -32t27 -23t45.5 -8.5q48 0 81.5 30t33.5 86v242h140v-433q0 -55 -13 -104.5t-51 -87.5q-36 -36 -91 -55t-126 -19q-60 0 -114.5 15t-96.5 43l53 104 q35 -23 75.5 -33.5t80.5 -10.5q64 0 103.5 27.5t39.5 87.5v59zM123 587v113h111v-113h-111zM360 587v113h111v-113h-111z" />
<glyph unicode="&#x100;" horiz-adv-x="698" d="M537 0l-55 162h-270l-56 -162h-161l266 700h176l265 -700h-165zM347 574l-98 -292h196zM184 769v78h326v-78h-326z" />
<glyph unicode="&#x101;" horiz-adv-x="661" d="M273 527q50 0 92 -19t75 -59v66h141v-386q0 -38 29 -38q20 0 28 7l15 -90q-15 -8 -37.5 -12t-39.5 -4q-39 0 -73.5 16t-51.5 61q-32 -45 -77 -63t-98 -18q-59 0 -104.5 20.5t-77 57t-48 86t-16.5 106.5q0 58 17 107t48.5 85t76.5 56.5t101 20.5zM440 258q0 30 -8.5 57 t-25 47t-41.5 31.5t-58 11.5t-57 -11.5t-40 -32t-24 -47t-8 -56.5t8 -57t23.5 -47.5t40 -32t57.5 -11.5t58 11.5t41.5 32t25 47.5t8.5 57zM144 607v78h326v-78h-326z" />
<glyph unicode="&#x102;" horiz-adv-x="698" d="M537 0l-55 162h-270l-56 -162h-161l266 700h176l265 -700h-165zM347 574l-98 -292h196zM348 750q-81 0 -127.5 37.5t-56.5 92.5l72 21q12 -29 39.5 -45.5t72.5 -17.5q46 0 73.5 17t38.5 46l72 -21q-10 -55 -56.5 -92.5t-127.5 -37.5z" />
<glyph unicode="&#x103;" horiz-adv-x="661" d="M273 527q50 0 92 -19t75 -59v66h141v-386q0 -38 29 -38q20 0 28 7l15 -90q-15 -8 -37.5 -12t-39.5 -4q-39 0 -73.5 16t-51.5 61q-32 -45 -77 -63t-98 -18q-59 0 -104.5 20.5t-77 57t-48 86t-16.5 106.5q0 58 17 107t48.5 85t76.5 56.5t101 20.5zM440 258q0 30 -8.5 57 t-25 47t-41.5 31.5t-58 11.5t-57 -11.5t-40 -32t-24 -47t-8 -56.5t8 -57t23.5 -47.5t40 -32t57.5 -11.5t58 11.5t41.5 32t25 47.5t8.5 57zM304 588q-81 0 -127.5 37.5t-56.5 92.5l72 21q12 -29 39.5 -45.5t72.5 -17.5q46 0 73.5 17t38.5 46l72 -21q-10 -55 -56.5 -92.5 t-127.5 -37.5z" />
<glyph unicode="&#x104;" horiz-adv-x="698" d="M702 0q-72 -4 -104.5 -20t-32.5 -42q0 -20 15.5 -31.5t41.5 -11.5q24 0 44 9.5t35 23.5v-88q-13 -11 -37.5 -20.5t-57.5 -9.5q-57 0 -93 27t-36 71q0 24 14 48t46 46l-56 160h-268l-57 -162h-161l266 700h176zM347 574l-98 -292h196z" />
<glyph unicode="&#x105;" horiz-adv-x="661" d="M580 128q0 -20 7.5 -28.5t23.5 -8.5q17 0 27 7l15 -90q-15 -8 -35 -11.5t-35 -3.5q-3 0 -6.5 0.5t-6.5 0.5q-16 -12 -23.5 -25.5t-7.5 -25.5q0 -18 14 -27.5t37 -9.5q22 0 38 7t26 16v-85q-11 -8 -30.5 -14.5t-47.5 -6.5q-54 0 -89 25.5t-35 68.5q0 28 16.5 49.5 t44.5 36.5q-21 9 -36.5 24t-25.5 41q-32 -44 -77 -62t-99 -18q-58 0 -103.5 20.5t-77 57t-48 86t-16.5 106.5t17 106.5t48.5 85.5t76 56.5t100.5 20.5q50 0 92 -19t76 -59v66h140v-387zM440 257q0 31 -8.5 58t-25.5 47t-41.5 31.5t-57.5 11.5t-57.5 -11.5t-40.5 -32 t-24 -47.5t-8 -57t8 -57t24 -47.5t40.5 -32t57.5 -11.5t58 11.5t41.5 32t25 47.5t8.5 57z" />
<glyph unicode="&#x106;" horiz-adv-x="700" d="M562 478q-32 54 -76.5 79.5t-101.5 25.5q-46 0 -83 -17t-62.5 -48t-39.5 -73t-14 -93t14 -94.5t39.5 -74.5t62 -48.5t81.5 -17.5q61 0 104 29t72 82l124 -65q-48 -82 -123 -129t-179 -47q-78 0 -142 26.5t-110 74.5t-71.5 115t-25.5 148t25.5 147.5t71.5 114t110 74 t142 26.5q92 0 169 -39.5t129 -125.5zM284 771q23 30 48.5 68.5t40.5 71.5l124 -20q-10 -23 -27 -44.5t-38.5 -41.5t-45.5 -37t-46 -28z" />
<glyph unicode="&#x107;" horiz-adv-x="550" d="M533 111q-33 -53 -90.5 -88t-142.5 -35q-63 0 -113 20.5t-85.5 56.5t-54.5 85t-19 107t19 107.5t54.5 85.5t85.5 56.5t112 20.5q84 0 141 -36.5t91 -92.5l-105 -66q-20 35 -49.5 54.5t-70.5 19.5q-61 0 -94.5 -42t-33.5 -106q0 -66 34.5 -108t95.5 -42q43 0 74.5 20.5 t51.5 52.5zM234 608q21 31 45 69t38 72l124 -20q-10 -23 -27 -44.5t-37.5 -41t-42.5 -36.5t-44 -29z" />
<glyph unicode="&#x108;" horiz-adv-x="700" d="M562 478q-32 54 -76.5 79.5t-101.5 25.5q-46 0 -83 -17t-62.5 -48t-39.5 -73t-14 -93t14 -94.5t39.5 -74.5t62 -48.5t81.5 -17.5q61 0 104 29t72 82l124 -65q-48 -82 -123 -129t-179 -47q-78 0 -142 26.5t-110 74.5t-71.5 115t-25.5 148t25.5 147.5t71.5 114t110 74 t142 26.5q92 0 169 -39.5t129 -125.5zM433 903q28 -25 61 -50.5t76 -52.5l-35 -58q-44 10 -85 30t-71 44q-29 -24 -70.5 -44t-85.5 -30l-35 58q43 27 76.5 52.5t61.5 50.5h107z" />
<glyph unicode="&#x109;" horiz-adv-x="550" d="M533 111q-33 -53 -90.5 -88t-142.5 -35q-63 0 -113 20.5t-85.5 56.5t-54.5 85t-19 107t19 107.5t54.5 85.5t85.5 56.5t112 20.5q84 0 141 -36.5t91 -92.5l-105 -66q-20 35 -49.5 54.5t-70.5 19.5q-61 0 -94.5 -42t-33.5 -106q0 -66 34.5 -108t95.5 -42q43 0 74.5 20.5 t51.5 52.5zM354 741q28 -25 61 -50.5t76 -52.5l-35 -58q-44 10 -85 30t-71 44q-29 -24 -70.5 -44t-85.5 -30l-35 58q43 27 76.5 52.5t61.5 50.5h107z" />
<glyph unicode="&#x10a;" horiz-adv-x="700" d="M562 478q-32 54 -76.5 79.5t-101.5 25.5q-46 0 -83 -17t-62.5 -48t-39.5 -73t-14 -93t14 -94.5t39.5 -74.5t62 -48.5t81.5 -17.5q61 0 104 29t72 82l124 -65q-48 -82 -123 -129t-179 -47q-78 0 -142 26.5t-110 74.5t-71.5 115t-25.5 148t25.5 147.5t71.5 114t110 74 t142 26.5q92 0 169 -39.5t129 -125.5zM320 752v110h118v-110h-118z" />
<glyph unicode="&#x10b;" horiz-adv-x="550" d="M533 111q-33 -53 -90.5 -88t-142.5 -35q-63 0 -113 20.5t-85.5 56.5t-54.5 85t-19 107t19 107.5t54.5 85.5t85.5 56.5t112 20.5q84 0 141 -36.5t91 -92.5l-105 -66q-20 35 -49.5 54.5t-70.5 19.5q-61 0 -94.5 -42t-33.5 -106q0 -66 34.5 -108t95.5 -42q43 0 74.5 20.5 t51.5 52.5zM237 590v110h118v-110h-118z" />
<glyph unicode="&#x10c;" horiz-adv-x="700" d="M562 478q-32 54 -76.5 79.5t-101.5 25.5q-46 0 -83 -17t-62.5 -48t-39.5 -73t-14 -93t14 -94.5t39.5 -74.5t62 -48.5t81.5 -17.5q61 0 104 29t72 82l124 -65q-48 -82 -123 -129t-179 -47q-78 0 -142 26.5t-110 74.5t-71.5 115t-25.5 148t25.5 147.5t71.5 114t110 74 t142 26.5q92 0 169 -39.5t129 -125.5zM326 749q-28 25 -61.5 50.5t-76.5 52.5l35 58q44 -10 85.5 -30t70.5 -44q30 24 71 44t85 30l35 -58q-43 -27 -76 -52.5t-61 -50.5h-107z" />
<glyph unicode="&#x10d;" horiz-adv-x="550" d="M533 111q-33 -53 -90.5 -88t-142.5 -35q-63 0 -113 20.5t-85.5 56.5t-54.5 85t-19 107t19 107.5t54.5 85.5t85.5 56.5t112 20.5q84 0 141 -36.5t91 -92.5l-105 -66q-20 35 -49.5 54.5t-70.5 19.5q-61 0 -94.5 -42t-33.5 -106q0 -66 34.5 -108t95.5 -42q43 0 74.5 20.5 t51.5 52.5zM245 587q-28 25 -61.5 50.5t-76.5 52.5l35 58q44 -10 85.5 -30t70.5 -44q30 24 71 44t85 30l35 -58q-43 -27 -76 -52.5t-61 -50.5h-107z" />
<glyph unicode="&#x10e;" horiz-adv-x="744" d="M358 133q98 0 149 58.5t51 158.5t-51 158.5t-149 58.5h-137v-434h137zM73 0v700h285q85 0 151 -26.5t111 -73.5t68 -111t23 -139t-23 -139t-68 -111t-111 -73.5t-151 -26.5h-285zM303 749q-28 25 -61.5 50.5t-76.5 52.5l35 58q44 -10 85.5 -30t70.5 -44q30 24 71 44 t85 30l35 -58q-43 -27 -76 -52.5t-61 -50.5h-107z" />
<glyph unicode="&#x10f;" horiz-adv-x="741" d="M440 0v61q-34 -38 -76 -55.5t-92 -17.5q-56 0 -101 20.5t-76.5 57t-48 85.5t-16.5 106q0 58 17 107.5t48.5 85.5t76 56.5t100.5 20.5q101 0 168 -73v260h141v-714h-141zM440 257q0 30 -8.5 57t-25.5 47.5t-41.5 32t-57.5 11.5t-57 -12t-39.5 -32t-23.5 -47t-8 -57 t8 -56.5t23.5 -47t39.5 -32t57 -11.5t58 11.5t41.5 31.5t25 47t8.5 57zM800 630q0 -65 -26 -113t-85 -95l-44 53q24 21 40 47t16 58q0 16 -4.5 28t-10.5 23.5t-10.5 25.5t-4.5 35v22h129v-84z" />
<glyph unicode="&#x110;" horiz-adv-x="780" d="M108 0v297h-106v117h106v286h285q86 0 152 -26.5t111 -73.5t68 -111t23 -139q0 -74 -23 -138t-68 -111t-111 -74t-152 -27h-285zM393 133q99 0 150 58.5t51 158.5t-51 158.5t-150 58.5h-136v-153h168v-117h-168v-164h136z" />
<glyph unicode="&#x111;" horiz-adv-x="641" d="M440 0v61q-34 -38 -76 -55.5t-91 -17.5q-57 0 -102 20.5t-76.5 57t-48 85.5t-16.5 106q0 58 16.5 107.5t48 85.5t76.5 56.5t102 20.5q49 0 91 -17.5t76 -55.5v135h-123v77h123v48h141v-48h62v-77h-62v-589h-141zM440 257q0 30 -8.5 57t-25.5 47.5t-41.5 32t-57.5 11.5 t-57 -11.5t-39.5 -32t-23.5 -47.5t-8 -57t8 -56.5t23.5 -47t39.5 -32t57 -11.5t58 11.5t41.5 31.5t25 47t8.5 57z" />
<glyph unicode="&#x112;" horiz-adv-x="648" d="M73 0v700h534v-133h-386v-141h327v-120h-327v-173h386v-133h-534zM182 769v78h326v-78h-326z" />
<glyph unicode="&#x113;" horiz-adv-x="598" d="M571 267q0 -12 -0.5 -22.5t-1.5 -18.5h-389q0 -21 8.5 -42t21.5 -35q19 -21 47.5 -31t64.5 -10q46 0 83.5 15t68.5 43l86 -84q-40 -41 -101 -67.5t-144 -26.5q-70 0 -123.5 20.5t-90 56.5t-55 85.5t-18.5 106.5q0 58 19 107.5t54.5 85.5t86.5 56.5t116 20.5 q63 0 112.5 -19t84 -53.5t52.5 -82t18 -105.5zM431 316q0 13 -4.5 26.5t-10.5 24.5q-16 29 -44.5 43t-65.5 14q-54 0 -87 -28.5t-38 -79.5h250zM142 607v78h326v-78h-326z" />
<glyph unicode="&#x114;" horiz-adv-x="648" d="M73 0v700h534v-133h-386v-141h327v-120h-327v-173h386v-133h-534zM342 750q-81 0 -127.5 37.5t-56.5 92.5l72 21q12 -29 39.5 -45.5t72.5 -17.5q46 0 73.5 17t38.5 46l72 -21q-10 -55 -56.5 -92.5t-127.5 -37.5z" />
<glyph unicode="&#x115;" horiz-adv-x="598" d="M571 267q0 -12 -0.5 -22.5t-1.5 -18.5h-389q0 -21 8.5 -42t21.5 -35q19 -21 47.5 -31t64.5 -10q46 0 83.5 15t68.5 43l86 -84q-40 -41 -101 -67.5t-144 -26.5q-70 0 -123.5 20.5t-90 56.5t-55 85.5t-18.5 106.5q0 58 19 107.5t54.5 85.5t86.5 56.5t116 20.5 q63 0 112.5 -19t84 -53.5t52.5 -82t18 -105.5zM431 316q0 13 -4.5 26.5t-10.5 24.5q-16 29 -44.5 43t-65.5 14q-54 0 -87 -28.5t-38 -79.5h250zM302 588q-81 0 -127.5 37.5t-56.5 92.5l72 21q12 -29 39.5 -45.5t72.5 -17.5q46 0 73.5 17t38.5 46l72 -21q-10 -55 -56.5 -92.5 t-127.5 -37.5z" />
<glyph unicode="&#x116;" horiz-adv-x="648" d="M73 0v700h534v-133h-386v-141h327v-120h-327v-173h386v-133h-534zM282 752v110h118v-110h-118z" />
<glyph unicode="&#x117;" horiz-adv-x="598" d="M571 267q0 -12 -0.5 -22.5t-1.5 -18.5h-389q0 -21 8.5 -42t21.5 -35q19 -21 47.5 -31t64.5 -10q46 0 83.5 15t68.5 43l86 -84q-40 -41 -101 -67.5t-144 -26.5q-70 0 -123.5 20.5t-90 56.5t-55 85.5t-18.5 106.5q0 58 19 107.5t54.5 85.5t86.5 56.5t116 20.5 q63 0 112.5 -19t84 -53.5t52.5 -82t18 -105.5zM431 316q0 13 -4.5 26.5t-10.5 24.5q-16 29 -44.5 43t-65.5 14q-54 0 -87 -28.5t-38 -79.5h250zM243 590v110h118v-110h-118z" />
<glyph unicode="&#x118;" horiz-adv-x="648" d="M476 0q-26 -26 -26 -54q0 -20 15.5 -31.5t39.5 -11.5q26 0 46 11t31 22v-84q-12 -11 -36 -20t-57 -9q-54 0 -89.5 26t-35.5 68q0 44 40 83h-334v666h512v-132h-364v-127h308v-119h-308v-156h364v-132h-106z" />
<glyph unicode="&#x119;" horiz-adv-x="599" d="M572 265q0 -12 -0.5 -23t-1.5 -19h-389q3 -57 41.5 -86.5t99.5 -29.5q47 0 83.5 16.5t63.5 44.5l93 -83q-14 -14 -26 -24t-23.5 -17.5t-23.5 -13.5t-26 -12q-22 -12 -39.5 -29t-17.5 -40q0 -20 15 -30.5t38 -10.5q27 0 46 11t32 25v-90q-11 -10 -34.5 -19t-58.5 -9 q-54 0 -89 25t-35 67q0 43 38 73q-15 -3 -46 -3q-69 0 -121.5 20.5t-88.5 56.5t-54.5 85t-18.5 106q0 58 18.5 108t54 86.5t87 57t116.5 20.5q63 0 112.5 -19.5t84 -54.5t52.5 -83t18 -106zM431 314q-5 54 -39 81t-85 27q-54 0 -87 -28.5t-38 -79.5h249z" />
<glyph unicode="&#x11a;" horiz-adv-x="648" d="M73 0v700h534v-133h-386v-141h327v-120h-327v-173h386v-133h-534zM289 749q-28 25 -61.5 50.5t-76.5 52.5l35 58q44 -10 85.5 -30t70.5 -44q30 24 71 44t85 30l35 -58q-43 -27 -76 -52.5t-61 -50.5h-107z" />
<glyph unicode="&#x11b;" horiz-adv-x="598" d="M571 267q0 -12 -0.5 -22.5t-1.5 -18.5h-389q0 -21 8.5 -42t21.5 -35q19 -21 47.5 -31t64.5 -10q46 0 83.5 15t68.5 43l86 -84q-40 -41 -101 -67.5t-144 -26.5q-70 0 -123.5 20.5t-90 56.5t-55 85.5t-18.5 106.5q0 58 19 107.5t54.5 85.5t86.5 56.5t116 20.5 q63 0 112.5 -19t84 -53.5t52.5 -82t18 -105.5zM431 316q0 13 -4.5 26.5t-10.5 24.5q-16 29 -44.5 43t-65.5 14q-54 0 -87 -28.5t-38 -79.5h250zM251 587q-28 25 -61.5 50.5t-76.5 52.5l35 58q44 -10 85.5 -30t70.5 -44q30 24 71 44t85 30l35 -58q-43 -27 -76 -52.5 t-61 -50.5h-107z" />
<glyph unicode="&#x11c;" horiz-adv-x="744" d="M385 713q99 0 174 -43t121 -119l-124 -67q-29 51 -72.5 75t-100.5 24q-48 0 -85 -17.5t-62 -48t-38 -73t-13 -92.5q0 -112 53.5 -176.5t148.5 -64.5q36 0 67 10t55 29t39 46t19 61h-179v120h327q2 -13 3.5 -29.5t1.5 -29.5q0 -68 -21.5 -128t-64 -105t-105.5 -71.5 t-145 -26.5q-80 0 -145 26.5t-111 75t-71.5 115.5t-25.5 148t25.5 148t72 114t111.5 73t145 26zM436 903q28 -25 61 -50.5t76 -52.5l-35 -58q-44 10 -85 30t-71 44q-29 -24 -70.5 -44t-85.5 -30l-35 58q43 27 76.5 52.5t61.5 50.5h107z" />
<glyph unicode="&#x11d;" horiz-adv-x="642" d="M583 97q0 -62 -12.5 -110.5t-47.5 -86.5q-42 -46 -106 -65t-138 -19q-68 0 -124 14t-105 43l53 108q36 -22 79.5 -34t94.5 -12q34 0 64 7t52.5 22t35 39t12.5 59v38q-31 -36 -74.5 -54.5t-94.5 -18.5q-55 0 -99.5 19t-76 53t-48.5 79t-17 98q0 52 17.5 98t49 80 t76.5 53.5t100 19.5q51 0 93.5 -19t73.5 -56v63h142v-418zM442 277q0 58 -34 97t-99 39t-97 -38.5t-32 -97.5q0 -29 8 -54t24 -43.5t40.5 -29t56.5 -10.5q31 0 56 10.5t42 29.5t26 43.5t9 53.5zM361 741q28 -25 61 -50.5t76 -52.5l-35 -58q-44 10 -85 30t-71 44 q-29 -24 -70.5 -44t-85.5 -30l-35 58q43 27 76.5 52.5t61.5 50.5h107z" />
<glyph unicode="&#x11e;" horiz-adv-x="744" d="M385 713q99 0 174 -43t121 -119l-124 -67q-29 51 -72.5 75t-100.5 24q-48 0 -85 -17.5t-62 -48t-38 -73t-13 -92.5q0 -112 53.5 -176.5t148.5 -64.5q36 0 67 10t55 29t39 46t19 61h-179v120h327q2 -13 3.5 -29.5t1.5 -29.5q0 -68 -21.5 -128t-64 -105t-105.5 -71.5 t-145 -26.5q-80 0 -145 26.5t-111 75t-71.5 115.5t-25.5 148t25.5 148t72 114t111.5 73t145 26zM380 750q-81 0 -127.5 37.5t-56.5 92.5l72 21q12 -29 39.5 -45.5t72.5 -17.5q46 0 73.5 17t38.5 46l72 -21q-10 -55 -56.5 -92.5t-127.5 -37.5z" />
<glyph unicode="&#x11f;" horiz-adv-x="642" d="M583 97q0 -62 -12.5 -110.5t-47.5 -86.5q-42 -46 -106 -65t-138 -19q-68 0 -124 14t-105 43l53 108q36 -22 79.5 -34t94.5 -12q34 0 64 7t52.5 22t35 39t12.5 59v38q-31 -36 -74.5 -54.5t-94.5 -18.5q-55 0 -99.5 19t-76 53t-48.5 79t-17 98q0 52 17.5 98t49 80 t76.5 53.5t100 19.5q51 0 93.5 -19t73.5 -56v63h142v-418zM442 277q0 58 -34 97t-99 39t-97 -38.5t-32 -97.5q0 -29 8 -54t24 -43.5t40.5 -29t56.5 -10.5q31 0 56 10.5t42 29.5t26 43.5t9 53.5zM301 588q-81 0 -127.5 37.5t-56.5 92.5l72 21q12 -29 39.5 -45.5t72.5 -17.5 q46 0 73.5 17t38.5 46l72 -21q-10 -55 -56.5 -92.5t-127.5 -37.5z" />
<glyph unicode="&#x120;" horiz-adv-x="744" d="M385 713q99 0 174 -43t121 -119l-124 -67q-29 51 -72.5 75t-100.5 24q-48 0 -85 -17.5t-62 -48t-38 -73t-13 -92.5q0 -112 53.5 -176.5t148.5 -64.5q36 0 67 10t55 29t39 46t19 61h-179v120h327q2 -13 3.5 -29.5t1.5 -29.5q0 -68 -21.5 -128t-64 -105t-105.5 -71.5 t-145 -26.5q-80 0 -145 26.5t-111 75t-71.5 115.5t-25.5 148t25.5 148t72 114t111.5 73t145 26zM321 752v110h118v-110h-118z" />
<glyph unicode="&#x121;" horiz-adv-x="642" d="M583 97q0 -62 -12.5 -110.5t-47.5 -86.5q-42 -46 -106 -65t-138 -19q-68 0 -124 14t-105 43l53 108q36 -22 79.5 -34t94.5 -12q34 0 64 7t52.5 22t35 39t12.5 59v38q-31 -36 -74.5 -54.5t-94.5 -18.5q-55 0 -99.5 19t-76 53t-48.5 79t-17 98q0 52 17.5 98t49 80 t76.5 53.5t100 19.5q51 0 93.5 -19t73.5 -56v63h142v-418zM442 277q0 58 -34 97t-99 39t-97 -38.5t-32 -97.5q0 -29 8 -54t24 -43.5t40.5 -29t56.5 -10.5q31 0 56 10.5t42 29.5t26 43.5t9 53.5zM242 590v110h118v-110h-118z" />
<glyph unicode="&#x122;" horiz-adv-x="744" d="M385 713q99 0 174 -43t121 -119l-124 -67q-29 51 -72.5 75t-100.5 24q-48 0 -85 -17.5t-62 -48t-38 -73t-13 -92.5q0 -112 53.5 -176.5t148.5 -64.5q36 0 67 10t55 29t39 46t19 61h-179v120h327q2 -13 3.5 -29.5t1.5 -29.5q0 -68 -21.5 -128t-64 -105t-105.5 -71.5 t-145 -26.5q-80 0 -145 26.5t-111 75t-71.5 115.5t-25.5 148t25.5 148t72 114t111.5 73t145 26zM243 -172q21 29 42.5 64t33.5 67l118 -13q-8 -21 -23.5 -42t-35 -40.5t-41 -36t-41.5 -27.5z" />
<glyph unicode="&#x123;" horiz-adv-x="642" d="M419 705q-20 -28 -41.5 -63t-33.5 -67l-118 13q8 21 23.5 42t35 40t40.5 35.5t41 27.5zM583 97q0 -62 -12.5 -110.5t-47.5 -86.5q-42 -46 -106 -65t-138 -19q-68 0 -124 14t-105 43l53 108q36 -22 79.5 -34t94.5 -12q34 0 64 7t52.5 22t35 39t12.5 59v38 q-31 -36 -74.5 -54.5t-94.5 -18.5q-55 0 -99.5 19t-76 53t-48.5 79t-17 98q0 52 17.5 98t49 80t76.5 53.5t100 19.5q51 0 93.5 -19t73.5 -56v63h142v-418zM442 277q0 58 -34 97t-99 39t-97 -38.5t-32 -97.5q0 -29 8 -54t24 -43.5t40.5 -29t56.5 -10.5q31 0 56 10.5t42 29.5 t26 43.5t9 53.5z" />
<glyph unicode="&#x124;" horiz-adv-x="757" d="M535 0v302h-314v-302h-148v700h148v-266h314v266h149v-700h-149zM432 903q28 -25 61 -50.5t76 -52.5l-35 -58q-44 10 -85 30t-71 44q-29 -24 -70.5 -44t-85.5 -30l-35 58q43 27 76.5 52.5t61.5 50.5h107z" />
<glyph unicode="&#x125;" horiz-adv-x="601" d="M60 0v714h142v-264q32 37 73.5 57t89.5 20q45 0 78.5 -14.5t56 -40t34 -61t11.5 -76.5v-335h-141v302q0 18 -3.5 35.5t-13.5 32t-27 23t-45 8.5q-48 0 -80.5 -30t-32.5 -86v-285h-142zM187 903q28 -25 61 -50.5t76 -52.5l-35 -58q-44 10 -85 30t-71 44q-29 -24 -70.5 -44 t-85.5 -30l-35 58q43 27 76.5 52.5t61.5 50.5h107z" />
<glyph unicode="&#x126;" horiz-adv-x="757" d="M535 0v302h-314v-302h-148v538h-55v76h55v86h148v-86h314v86h149v-86h55v-76h-55v-538h-149zM535 434v104h-314v-104h314z" />
<glyph unicode="&#x127;" horiz-adv-x="601" d="M60 0v588h-62v78h62v48h142v-48h123v-78h-123v-138q65 77 163 77q45 0 78.5 -14.5t56 -40t34 -61t11.5 -76.5v-335h-141v303q0 18 -3.5 35.5t-13.5 31.5t-27 23t-45 9q-48 0 -80.5 -30.5t-32.5 -86.5v-285h-142z" />
<glyph unicode="&#x128;" horiz-adv-x="293" d="M73 0v700h147v-700h-147zM346 858q-18 -42 -50.5 -72t-77.5 -30q-21 0 -39.5 6.5t-35.5 14.5t-33 14t-32 6q-20 0 -40 -11t-37 -33l-53 38q18 41 50 71.5t77 30.5q21 0 39.5 -7t35.5 -15t33.5 -14.5t32.5 -6.5q20 0 40 11.5t36 33.5z" />
<glyph unicode="&#x129;" horiz-adv-x="262" d="M60 0v515h142v-515h-142zM331 696q-18 -42 -50.5 -72t-77.5 -30q-21 0 -39.5 6.5t-35.5 14.5t-33 14t-32 6q-20 0 -40 -11t-37 -33l-53 38q18 41 50 71.5t77 30.5q21 0 39.5 -7t35.5 -15t33.5 -14.5t32.5 -6.5q20 0 40 11.5t36 33.5z" />
<glyph unicode="&#x12a;" horiz-adv-x="293" d="M73 0v700h147v-700h-147zM-0.0976562 769v78h294.044v-78h-294.044z" />
<glyph unicode="&#x12b;" horiz-adv-x="262" d="M60 0v515h142v-515h-142zM-14.0977 607v78h294.224v-78h-294.224z" />
<glyph unicode="&#x12c;" horiz-adv-x="293" d="M73 0v700h147v-700h-147zM148 750q-81 0 -127.5 37.5t-56.5 92.5l72 21q12 -29 39.5 -45.5t72.5 -17.5q46 0 73.5 17t38.5 46l72 -21q-10 -55 -56.5 -92.5t-127.5 -37.5z" />
<glyph unicode="&#x12d;" horiz-adv-x="262" d="M60 0v515h142v-515h-142zM132 588q-81 0 -127.5 37.5t-56.5 92.5l72 21q12 -29 39.5 -45.5t72.5 -17.5q46 0 73.5 17t38.5 46l72 -21q-10 -55 -56.5 -92.5t-127.5 -37.5z" />
<glyph unicode="&#x12e;" horiz-adv-x="293" d="M73 700h147v-700q-18 -1 -36.5 -4t-33.5 -9.5t-25 -17t-10 -26.5q0 -26 27 -32q18 -5 39 -2q14 2 27.5 7.5t21.5 12.5v-86q-11 -8 -31 -14t-44 -6q-57 0 -91 26t-34 68q0 27 13.5 49.5t29.5 33.5v700z" />
<glyph unicode="&#x12f;" horiz-adv-x="262" d="M60 515h142v-515q-17 -1 -36 -4t-34.5 -9.5t-25.5 -17t-10 -26.5q0 -25 28 -32q18 -5 38 -2q15 2 28.5 7.5t20.5 12.5v-86q-11 -8 -30.5 -14t-43.5 -6q-46 0 -77.5 18.5t-41.5 48.5q-7 17 -4 38q2 25 18 43t28 29v515zM60 604v110h142v-110h-142z" />
<glyph unicode="&#x130;" horiz-adv-x="293" d="M73 0v700h147v-700h-147zM86 752v110h118v-110h-118z" />
<glyph unicode="&#x131;" horiz-adv-x="262" d="M60 0v515h142v-515h-142z" />
<glyph unicode="&#x134;" horiz-adv-x="531" d="M480 237q0 -62 -18 -108.5t-50.5 -78t-78 -47.5t-101.5 -16q-78 0 -138.5 33.5t-95.5 104.5l125 61q17 -35 44 -51t62 -16q54 0 79 30t25 84v467h147v-463v0zM462 903q28 -25 61 -50.5t76 -52.5l-35 -58q-44 10 -85 30t-71 44q-29 -24 -70.5 -44t-85.5 -30l-35 58 q43 27 76.5 52.5t61.5 50.5h107z" />
<glyph unicode="&#x135;" horiz-adv-x="262" d="M185 741q28 -25 61 -50.5t76 -52.5l-35 -58q-44 10 -85 30t-71 44q-29 -24 -70.5 -44t-85.5 -30l-35 58q43 27 76.5 52.5t61.5 50.5h107zM202 12q0 -99 -52 -146.5t-138 -47.5q-28 0 -57.5 7t-50.5 19l39 105q11 -6 24 -10t28 -4q35 0 50 19t15 56v505h142v-503z" />
<glyph unicode="&#x136;" horiz-adv-x="698" d="M531 0l-203 306l-108 -122v-184h-147v700h147v-324l284 324h179l-252 -285l279 -415h-179zM241 -172q21 29 42.5 64t33.5 67l118 -13q-8 -21 -23.5 -42t-35 -40.5t-41 -36t-41.5 -27.5z" />
<glyph unicode="&#x137;" horiz-adv-x="600" d="M414 515h168l-199 -202l223 -313h-170l-150 219l-84 -86v-133h-142v714h142v-420zM206 -172q21 29 42.5 64t33.5 67l118 -13q-8 -21 -23.5 -42t-35 -40.5t-41 -36t-41.5 -27.5z" />
<glyph unicode="&#x138;" horiz-adv-x="600" d="M414 515h168l-199 -202l223 -313h-170l-150 219l-84 -86v-133h-142v515h142v-221z" />
<glyph unicode="&#x139;" horiz-adv-x="599" d="M73 0v700h147v-567h364v-133h-511zM66 771q23 30 48.5 68.5t40.5 71.5l124 -20q-10 -23 -27 -44.5t-38.5 -41.5t-45.5 -37t-46 -28z" />
<glyph unicode="&#x13a;" horiz-adv-x="264" d="M61 0v714h142v-714h-142zM51 771q23 30 48.5 68.5t40.5 71.5l124 -20q-10 -23 -27 -44.5t-38.5 -41.5t-45.5 -37t-46 -28z" />
<glyph unicode="&#x13b;" horiz-adv-x="599" d="M73 0v700h147v-567h364v-133h-511zM210 -172q21 29 42.5 64t33.5 67l118 -13q-8 -21 -23.5 -42t-35 -40.5t-41 -36t-41.5 -27.5z" />
<glyph unicode="&#x13c;" horiz-adv-x="264" d="M61 0v714h142v-714h-142zM2 -172q21 29 42.5 64t33.5 67l118 -13q-8 -21 -23.5 -42t-35 -40.5t-41 -36t-41.5 -27.5z" />
<glyph unicode="&#x13d;" horiz-adv-x="599" d="M73 0v700h147v-567h364v-133h-511zM447 616q0 -65 -26 -113t-85 -95l-44 53q24 21 40 47t16 58q0 16 -4.5 28t-10.5 23.5t-10.5 25.5t-4.5 35v22h129v-84z" />
<glyph unicode="&#x13e;" horiz-adv-x="370" d="M61 0v714h142v-714h-142zM428 630q0 -65 -26 -113t-85 -95l-44 53q24 21 40 47t16 58q0 16 -4.5 28t-10.5 23.5t-10.5 25.5t-4.5 35v22h129v-84z" />
<glyph unicode="&#x13f;" horiz-adv-x="599" d="M73 0v700h147v-567h364v-133h-511zM534 336q0 -18 -7 -34t-19 -28.5t-28.5 -19.5t-34.5 -7t-34 7t-28.5 19.5t-19.5 28.5t-7 34t7 34.5t19.5 28.5t28.5 19t34 7q37 0 63 -26t26 -63z" />
<glyph unicode="&#x140;" horiz-adv-x="519" d="M61 0v714h142v-714h-142zM485 304q0 -18 -7 -34t-19 -28.5t-28.5 -19.5t-34.5 -7t-34 7t-28.5 19.5t-19.5 28.5t-7 34t7 34.5t19.5 28.5t28.5 19t34 7q37 0 63 -26t26 -63z" />
<glyph unicode="&#x141;" horiz-adv-x="623" d="M104 0v265l-109 -45v118l109 46v316h147v-258l214 89v-119l-214 -90v-189h363v-133h-510z" />
<glyph unicode="&#x142;" horiz-adv-x="346" d="M246 380v-380h-141v330l-101 -40v113l101 40v271h141v-221l101 41v-114z" />
<glyph unicode="&#x143;" horiz-adv-x="725" d="M503 0l-288 504v-504h-142v700h188l279 -493v493h142v-700h-179zM313 771q23 30 48.5 68.5t40.5 71.5l124 -20q-10 -23 -27 -44.5t-38.5 -41.5t-45.5 -37t-46 -28z" />
<glyph unicode="&#x144;" horiz-adv-x="601" d="M60 0v515h142v-65q32 37 73.5 57t89.5 20q45 0 78.5 -14.5t56 -40t34 -61t11.5 -76.5v-335h-141v302q0 18 -3.5 35.5t-13.5 32t-27 23t-45 8.5q-48 0 -80.5 -30t-32.5 -86v-285h-142zM241 608q21 31 45 69t38 72l124 -20q-10 -23 -27 -44.5t-37.5 -41t-42.5 -36.5 t-44 -29z" />
<glyph unicode="&#x145;" horiz-adv-x="755" d="M503 0l-288 504v-504h-142v700h188l279 -493v493h142v-700h-179zM247 -172q21 29 42.5 64t33.5 67l118 -13q-8 -21 -23.5 -42t-35 -40.5t-41 -36t-41.5 -27.5z" />
<glyph unicode="&#x146;" horiz-adv-x="601" d="M60 0v515h142v-65q32 37 73.5 57t89.5 20q45 0 78.5 -14.5t56 -40t34 -61t11.5 -76.5v-335h-141v302q0 18 -3.5 35.5t-13.5 32t-27 23t-45 8.5q-48 0 -80.5 -30t-32.5 -86v-285h-142zM187 -172q21 29 42.5 64t33.5 67l118 -13q-8 -21 -23.5 -42t-35 -40.5t-41 -36 t-41.5 -27.5z" />
<glyph unicode="&#x147;" horiz-adv-x="755" d="M503 0l-288 504v-504h-142v700h188l279 -493v493h142v-700h-179zM331 749q-28 25 -61.5 50.5t-76.5 52.5l35 58q44 -10 85.5 -30t70.5 -44q30 24 71 44t85 30l35 -58q-43 -27 -76 -52.5t-61 -50.5h-107z" />
<glyph unicode="&#x148;" horiz-adv-x="601" d="M60 0v515h142v-65q32 37 73.5 57t89.5 20q45 0 78.5 -14.5t56 -40t34 -61t11.5 -76.5v-335h-141v302q0 18 -3.5 35.5t-13.5 32t-27 23t-45 8.5q-48 0 -80.5 -30t-32.5 -86v-285h-142zM250 587q-28 25 -61.5 50.5t-76.5 52.5l35 58q44 -10 85.5 -30t70.5 -44q30 24 71 44 t85 30l35 -58q-43 -27 -76 -52.5t-61 -50.5h-107z" />
<glyph unicode="&#x14a;" horiz-adv-x="755" d="M682 56q0 -62 -17.5 -108.5t-47.5 -76t-77 -42t-101 -12.5q-65 0 -113 25l45 115q14 -7 30.5 -10.5t30.5 -3.5q42 0 64.5 13.5t30.5 45.5l-312 501v-503h-142v700h188l279 -448v448h142v-644z" />
<glyph unicode="&#x14b;" horiz-adv-x="601" d="M545 12q0 -88 -45.5 -141t-137.5 -53q-29 0 -59.5 6t-54.5 20l39 105q11 -6 24 -10t28 -4q35 0 50 18t15 49v300q0 18 -3.5 35.5t-13.5 32t-27 23t-45 8.5q-48 0 -80.5 -30t-32.5 -86v-285h-142v515h142v-65q32 37 73.5 57t89.5 20q45 0 78.5 -14.5t56 -40t34 -61 t11.5 -76.5v-323z" />
<glyph unicode="&#x14c;" horiz-adv-x="769" d="M738 350q0 -77 -24.5 -143t-70 -115t-111.5 -77t-148 -28q-83 0 -148 28t-111 77t-70 115t-24 143q0 76 24 142.5t70 115.5t111 77t148 28q82 0 148 -28t111.5 -77t70 -115.5t24.5 -142.5zM584 350q0 48 -13.5 89.5t-39 72t-62.5 48t-85 17.5t-85.5 -17.5t-62.5 -48 t-38 -72t-13 -89.5t13 -89.5t38 -72t62.5 -48t85.5 -17.5t85 17.5t62.5 48t39 72t13.5 89.5zM217 769v78h326v-78h-326z" />
<glyph unicode="&#x14d;" horiz-adv-x="614" d="M586 257q0 -60 -19.5 -109.5t-56 -84.5t-88 -54.5t-115.5 -19.5t-115.5 19.5t-88 54.5t-56 84.5t-19.5 109.5t19.5 110t56 85.5t88 55t115.5 19.5t115.5 -19.5t88 -55t56 -85.5t19.5 -110zM435 258q0 33 -8 60.5t-24.5 47.5t-40.5 31.5t-55 11.5t-55 -11.5t-40.5 -31.5 t-25 -47.5t-8.5 -60.5q0 -66 33 -108.5t96 -42.5t95.5 42.5t32.5 108.5zM144 607v78h326v-78h-326z" />
<glyph unicode="&#x14e;" horiz-adv-x="769" d="M738 350q0 -77 -24.5 -143t-70 -115t-111.5 -77t-148 -28q-83 0 -148 28t-111 77t-70 115t-24 143q0 76 24 142.5t70 115.5t111 77t148 28q82 0 148 -28t111.5 -77t70 -115.5t24.5 -142.5zM584 350q0 48 -13.5 89.5t-39 72t-62.5 48t-85 17.5t-85.5 -17.5t-62.5 -48 t-38 -72t-13 -89.5t13 -89.5t38 -72t62.5 -48t85.5 -17.5t85 17.5t62.5 48t39 72t13.5 89.5zM382 750q-81 0 -127.5 37.5t-56.5 92.5l72 21q12 -29 39.5 -45.5t72.5 -17.5q46 0 73.5 17t38.5 46l72 -21q-10 -55 -56.5 -92.5t-127.5 -37.5z" />
<glyph unicode="&#x14f;" horiz-adv-x="614" d="M586 257q0 -60 -19.5 -109.5t-56 -84.5t-88 -54.5t-115.5 -19.5t-115.5 19.5t-88 54.5t-56 84.5t-19.5 109.5t19.5 110t56 85.5t88 55t115.5 19.5t115.5 -19.5t88 -55t56 -85.5t19.5 -110zM435 258q0 33 -8 60.5t-24.5 47.5t-40.5 31.5t-55 11.5t-55 -11.5t-40.5 -31.5 t-25 -47.5t-8.5 -60.5q0 -66 33 -108.5t96 -42.5t95.5 42.5t32.5 108.5zM307 588q-81 0 -127.5 37.5t-56.5 92.5l72 21q12 -29 39.5 -45.5t72.5 -17.5q46 0 73.5 17t38.5 46l72 -21q-10 -55 -56.5 -92.5t-127.5 -37.5z" />
<glyph unicode="&#x150;" horiz-adv-x="769" d="M738 350q0 -77 -24.5 -143t-70 -115t-111.5 -77t-148 -28q-83 0 -148 28t-111 77t-70 115t-24 143q0 76 24 142.5t70 115.5t111 77t148 28q82 0 148 -28t111.5 -77t70 -115.5t24.5 -142.5zM584 350q0 48 -13.5 89.5t-39 72t-62.5 48t-85 17.5t-85.5 -17.5t-62.5 -48 t-38 -72t-13 -89.5t13 -89.5t38 -72t62.5 -48t85.5 -17.5t85 17.5t62.5 48t39 72t13.5 89.5zM233 771q23 30 48.5 68.5t40.5 71.5l115 -20q-9 -23 -26.5 -44.5t-38.5 -41.5t-45 -37t-46 -28zM422 771q23 30 48.5 68.5t40.5 71.5l115 -20q-9 -23 -26.5 -44.5t-39 -41.5 t-45 -37t-46.5 -28z" />
<glyph unicode="&#x151;" horiz-adv-x="614" d="M586 257q0 -60 -19.5 -109.5t-56 -84.5t-88 -54.5t-115.5 -19.5t-115.5 19.5t-88 54.5t-56 84.5t-19.5 109.5t19.5 110t56 85.5t88 55t115.5 19.5t115.5 -19.5t88 -55t56 -85.5t19.5 -110zM435 258q0 33 -8 60.5t-24.5 47.5t-40.5 31.5t-55 11.5t-55 -11.5t-40.5 -31.5 t-25 -47.5t-8.5 -60.5q0 -66 33 -108.5t96 -42.5t95.5 42.5t32.5 108.5zM161 609q23 30 48.5 68.5t40.5 71.5l115 -20q-9 -23 -26.5 -44.5t-38.5 -41.5t-45 -37t-46 -28zM350 609q23 30 48.5 68.5t40.5 71.5l115 -20q-9 -23 -26.5 -44.5t-39 -41.5t-45 -37t-46.5 -28z" />
<glyph unicode="&#x152;" horiz-adv-x="1031" d="M386 0q-86 0 -151.5 26.5t-110.5 73.5t-68 111t-23 139t23 139t68 111t110.5 73.5t151.5 26.5h604v-133h-354v-141h295v-120h-295v-173h354v-133h-604zM187 350q0 -100 50.5 -158.5t148.5 -58.5h102v434h-102q-98 0 -148.5 -58.5t-50.5 -158.5z" />
<glyph unicode="&#x153;" horiz-adv-x="989" d="M962 261q0 -9 -0.5 -19.5t-1.5 -18.5h-389q3 -57 41.5 -86.5t100.5 -29.5q47 0 83 16.5t62 43.5l94 -82q-44 -44 -103.5 -70.5t-142.5 -26.5q-72 0 -123.5 24t-83.5 69q-33 -45 -84.5 -69t-117.5 -24q-62 0 -112 20.5t-85 56.5t-53.5 85t-18.5 106q0 58 18.5 108t53.5 86 t85 56.5t112 20.5q66 0 117.5 -25t83.5 -70q32 45 83 70t117 25q61 0 110 -19.5t83.5 -54.5t52.5 -84t18 -108zM426 257q0 66 -31.5 109t-92.5 43q-60 0 -92 -43t-32 -109q0 -33 8 -60.5t24 -47.5t39 -31t53 -11q61 0 92.5 42t31.5 108zM822 313q-5 54 -39.5 81t-85.5 27 q-54 0 -87 -28.5t-38 -79.5h250z" />
<glyph unicode="&#x154;" horiz-adv-x="665" d="M505 0l-133 254h-151v-254h-148v700h322q62 0 109.5 -16t80 -44.5t49 -69t16.5 -88.5q0 -38 -11 -70t-29.5 -57t-43 -43t-50.5 -29l154 -283h-165zM499 471q0 46 -30 71t-77 25h-171v-193h173q46 0 75.5 26t29.5 71zM254 771q23 30 48.5 68.5t40.5 71.5l124 -20 q-10 -23 -27 -44.5t-38.5 -41.5t-45.5 -37t-46 -28z" />
<glyph unicode="&#x155;" horiz-adv-x="411" d="M377 367q-13 7 -27.5 11.5t-32.5 4.5q-49 0 -82 -37.5t-33 -102.5v-243h-142v515h142v-82q26 42 62.5 67t80.5 25q20 0 39 -5t30 -12zM123 609q23 30 48.5 68.5t40.5 71.5l124 -20q-10 -23 -27 -44.5t-38.5 -41.5t-45.5 -37t-46 -28z" />
<glyph unicode="&#x156;" horiz-adv-x="665" d="M505 0l-133 254h-151v-254h-148v700h322q62 0 109.5 -16t80 -44.5t49 -69t16.5 -88.5q0 -38 -11 -70t-29.5 -57t-43 -43t-50.5 -29l154 -283h-165zM499 471q0 46 -30 71t-77 25h-171v-193h173q46 0 75.5 26t29.5 71zM218 -172q21 29 42.5 64t33.5 67l118 -13 q-8 -21 -23.5 -42t-35 -40.5t-41 -36t-41.5 -27.5z" />
<glyph unicode="&#x157;" horiz-adv-x="411" d="M377 367q-13 7 -27.5 11.5t-32.5 4.5q-49 0 -82 -37.5t-33 -102.5v-243h-142v515h142v-82q26 42 62.5 67t80.5 25q20 0 39 -5t30 -12zM0 -172q21 29 42.5 64t33.5 67l118 -13q-8 -21 -23.5 -42t-35 -40.5t-41 -36t-41.5 -27.5z" />
<glyph unicode="&#x158;" horiz-adv-x="665" d="M505 0l-133 254h-151v-254h-148v700h322q62 0 109.5 -16t80 -44.5t49 -69t16.5 -88.5q0 -38 -11 -70t-29.5 -57t-43 -43t-50.5 -29l154 -283h-165zM499 471q0 46 -30 71t-77 25h-171v-193h173q46 0 75.5 26t29.5 71zM275 749q-28 25 -61.5 50.5t-76.5 52.5l35 58 q44 -10 85.5 -30t70.5 -44q30 24 71 44t85 30l35 -58q-43 -27 -76 -52.5t-61 -50.5h-107z" />
<glyph unicode="&#x159;" horiz-adv-x="411" d="M377 367q-13 7 -27.5 11.5t-32.5 4.5q-49 0 -82 -37.5t-33 -102.5v-243h-142v515h142v-82q26 42 62.5 67t80.5 25q20 0 39 -5t30 -12zM176 587q-28 25 -61.5 50.5t-76.5 52.5l35 58q44 -10 85.5 -30t70.5 -44q30 24 71 44t85 30l35 -58q-43 -27 -76 -52.5t-61 -50.5h-107 z" />
<glyph unicode="&#x15a;" horiz-adv-x="644" d="M316 713q41 0 81.5 -8t77.5 -24.5t69.5 -42.5t58.5 -62l-113 -69q-32 43 -78 63.5t-99 20.5q-48 0 -80 -18t-32 -58q0 -22 12 -36.5t32 -24t46.5 -15.5t56.5 -12q54 -11 102.5 -25t85 -37.5t58 -59.5t21.5 -90q0 -49 -19 -91t-55.5 -72.5t-90 -47.5t-121.5 -17 q-111 0 -191.5 44.5t-122.5 122.5l118 65q35 -60 89 -85t114 -25q61 0 97 23.5t36 65.5q0 25 -14 40.5t-37 25t-52 15.5t-59 12q-48 9 -93.5 23t-81.5 38t-58 60.5t-22 90.5q0 49 19.5 88t54.5 66t83.5 41.5t106.5 14.5zM243 771q23 30 48.5 68.5t40.5 71.5l124 -20 q-10 -23 -27 -44.5t-38.5 -41.5t-45.5 -37t-46 -28z" />
<glyph unicode="&#x15b;" horiz-adv-x="546" d="M517 162q0 -40 -16.5 -72t-47.5 -54.5t-75.5 -35t-99.5 -12.5q-86 0 -151.5 27.5t-107.5 83.5l83 73q31 -40 78.5 -60.5t101.5 -20.5q41 0 70 13.5t29 42.5q0 28 -30.5 39.5t-96.5 22.5q-39 7 -76 16t-66 25.5t-47 44t-18 70.5q0 42 17.5 72.5t47.5 50.5t69.5 29.5 t84.5 9.5q43 0 80 -7.5t67 -20t53.5 -29t41.5 -33.5l-84 -74q-29 32 -70.5 46.5t-86.5 14.5q-36 0 -62 -10.5t-26 -35.5q0 -15 9.5 -24t26 -15.5t38 -10.5t45.5 -8q47 -8 87 -18.5t69.5 -28.5t46 -44.5t16.5 -66.5zM204 608q21 31 45 69t38 72l124 -20q-10 -23 -27 -44.5 t-37.5 -41t-42.5 -36.5t-44 -29z" />
<glyph unicode="&#x15c;" horiz-adv-x="644" d="M316 713q41 0 81.5 -8t77.5 -24.5t69.5 -42.5t58.5 -62l-113 -69q-32 43 -78 63.5t-99 20.5q-48 0 -80 -18t-32 -58q0 -22 12 -36.5t32 -24t46.5 -15.5t56.5 -12q54 -11 102.5 -25t85 -37.5t58 -59.5t21.5 -90q0 -49 -19 -91t-55.5 -72.5t-90 -47.5t-121.5 -17 q-111 0 -191.5 44.5t-122.5 122.5l118 65q35 -60 89 -85t114 -25q61 0 97 23.5t36 65.5q0 25 -14 40.5t-37 25t-52 15.5t-59 12q-48 9 -93.5 23t-81.5 38t-58 60.5t-22 90.5q0 49 19.5 88t54.5 66t83.5 41.5t106.5 14.5zM371 903q28 -25 61 -50.5t76 -52.5l-35 -58 q-44 10 -85 30t-71 44q-29 -24 -70.5 -44t-85.5 -30l-35 58q43 27 76.5 52.5t61.5 50.5h107z" />
<glyph unicode="&#x15d;" horiz-adv-x="546" d="M517 162q0 -40 -16.5 -72t-47.5 -54.5t-75.5 -35t-99.5 -12.5q-86 0 -151.5 27.5t-107.5 83.5l83 73q31 -40 78.5 -60.5t101.5 -20.5q41 0 70 13.5t29 42.5q0 28 -30.5 39.5t-96.5 22.5q-39 7 -76 16t-66 25.5t-47 44t-18 70.5q0 42 17.5 72.5t47.5 50.5t69.5 29.5 t84.5 9.5q43 0 80 -7.5t67 -20t53.5 -29t41.5 -33.5l-84 -74q-29 32 -70.5 46.5t-86.5 14.5q-36 0 -62 -10.5t-26 -35.5q0 -15 9.5 -24t26 -15.5t38 -10.5t45.5 -8q47 -8 87 -18.5t69.5 -28.5t46 -44.5t16.5 -66.5zM325 741q28 -25 61 -50.5t76 -52.5l-35 -58q-44 10 -85 30 t-71 44q-29 -24 -70.5 -44t-85.5 -30l-35 58q43 27 76.5 52.5t61.5 50.5h107z" />
<glyph unicode="&#x15e;" horiz-adv-x="644" d="M186 -69q14 -14 34 -24.5t45 -10.5q24 0 39.5 11t15.5 32q0 27 -25 50q-99 7 -170.5 50t-109.5 115l118 65q35 -60 89 -85t114 -25q61 0 97 23.5t36 65.5q0 25 -14 40.5t-37.5 25t-52.5 15.5t-59 12q-48 9 -93.5 23t-81.5 38t-58 60.5t-22 90.5q0 49 19.5 88t54 66 t83 41.5t107.5 14.5q83 0 159.5 -32t127.5 -105l-112 -69q-32 43 -78.5 63.5t-100.5 20.5q-48 0 -79.5 -18t-31.5 -58q0 -22 12 -36.5t32 -24t46.5 -15.5t56.5 -12q54 -11 102.5 -25t85.5 -37.5t58.5 -59.5t21.5 -90q0 -45 -16.5 -84.5t-48 -69t-76.5 -48.5t-103 -24 q17 -17 27 -36t10 -40q0 -43 -36 -70.5t-92 -27.5q-32 0 -56.5 8.5t-37.5 19.5v88z" />
<glyph unicode="&#x15f;" horiz-adv-x="546" d="M517 162q0 -40 -16.5 -72t-47.5 -54.5t-76 -35.5q-26 -7 -55 -10q16 -15 25.5 -34t9.5 -39q0 -41 -35 -67.5t-89 -26.5q-32 0 -56 8.5t-36 18.5v87q14 -13 33 -23.5t44 -10.5q23 0 38 10.5t15 30.5q0 25 -23 45q-68 4 -122 26q-65 28 -107 84l83 73q31 -40 78.5 -60.5 t101.5 -20.5q41 0 70 13.5t29 42.5q0 28 -30.5 39.5t-96.5 22.5q-39 7 -76 16t-66 25.5t-47 44t-18 70.5q0 42 17.5 72.5t47.5 50.5t69.5 29.5t84.5 9.5q43 0 80 -7.5t67 -20t53.5 -29t41.5 -33.5l-84 -74q-29 32 -70.5 46.5t-86.5 14.5q-36 0 -62 -10.5t-26 -35.5 q0 -15 9.5 -24t26 -15.5t38 -10.5t45.5 -8q47 -8 87 -18.5t69.5 -28.5t46 -44.5t16.5 -66.5z" />
<glyph unicode="&#x160;" horiz-adv-x="644" d="M316 713q41 0 81.5 -8t77.5 -24.5t69.5 -42.5t58.5 -62l-113 -69q-32 43 -78 63.5t-99 20.5q-48 0 -80 -18t-32 -58q0 -22 12 -36.5t32 -24t46.5 -15.5t56.5 -12q54 -11 102.5 -25t85 -37.5t58 -59.5t21.5 -90q0 -49 -19 -91t-55.5 -72.5t-90 -47.5t-121.5 -17 q-111 0 -191.5 44.5t-122.5 122.5l118 65q35 -60 89 -85t114 -25q61 0 97 23.5t36 65.5q0 25 -14 40.5t-37 25t-52 15.5t-59 12q-48 9 -93.5 23t-81.5 38t-58 60.5t-22 90.5q0 49 19.5 88t54.5 66t83.5 41.5t106.5 14.5zM268 749q-28 25 -61.5 50.5t-76.5 52.5l35 58 q44 -10 85.5 -30t70.5 -44q30 24 71 44t85 30l35 -58q-43 -27 -76 -52.5t-61 -50.5h-107z" />
<glyph unicode="&#x161;" horiz-adv-x="546" d="M215 587q-28 25 -61.5 50.5t-76.5 52.5l35 58q44 -10 85.5 -30t70.5 -44q30 24 71 44t85 30l35 -58q-43 -27 -76 -52.5t-61 -50.5h-107zM517 162q0 -40 -16.5 -72t-47.5 -54.5t-75.5 -35t-99.5 -12.5q-86 0 -151.5 27.5t-107.5 83.5l83 73q31 -40 78.5 -60.5t101.5 -20.5 q41 0 70 13.5t29 42.5q0 28 -30.5 39.5t-96.5 22.5q-39 7 -76 16t-66 25.5t-47 44t-18 70.5q0 42 17.5 72.5t47.5 50.5t69.5 29.5t84.5 9.5q43 0 80 -7.5t67 -20t53.5 -29t41.5 -33.5l-84 -74q-29 32 -70.5 46.5t-86.5 14.5q-36 0 -62 -10.5t-26 -35.5q0 -15 9.5 -24 t26 -15.5t38 -10.5t45.5 -8q47 -8 87 -18.5t69.5 -28.5t46 -44.5t16.5 -66.5z" />
<glyph unicode="&#x162;" horiz-adv-x="608" d="M190 -63q13 -13 32 -23.5t45 -10.5q23 0 38 10.5t15 30.5q0 26 -25 41t-54 15v567h-223v133h594v-133h-223v-567h-43q19 -7 33 -19q27 -29 27 -64q0 -20 -9.5 -37.5t-26 -30t-39.5 -19.5t-50 -7q-32 0 -56 8.5t-35 18.5v87z" />
<glyph unicode="&#x163;" horiz-adv-x="431" d="M112 -64q14 -13 32.5 -23t43.5 -10q23 0 38 11t15 33q0 24 -14 37t-28 20q-21 11 -35 22t-27 29q-15 23 -22 51t-7 68v234h-102v107h102v185h141v-185h155v-107h-155v-235q0 -34 16 -48.5t44 -14.5q21 0 37.5 7t27.5 17l53 -101q-53 -42 -133 -45q15 -15 24 -33t9 -38 q0 -42 -35 -68t-89 -26q-32 0 -56 8.5t-35 18.5v86z" />
<glyph unicode="&#x164;" horiz-adv-x="608" d="M389 567v-567h-148v567h-223v133h594v-133h-223zM263 749q-28 25 -61.5 50.5t-76.5 52.5l35 58q44 -10 85.5 -30t70.5 -44q30 24 71 44t85 30l35 -58q-43 -27 -76 -52.5t-61 -50.5h-107z" />
<glyph unicode="&#x165;" horiz-adv-x="431" d="M419 723q0 -46 -19.5 -80t-64.5 -67l-34 38q18 14 30.5 32.5t12.5 41.5q0 11 -3.5 19.5t-8 17t-8 18t-3.5 24.5v16h98v-60zM427 33q-27 -21 -61.5 -33t-79.5 -12q-50 0 -88 16t-61 51q-15 23 -22 51t-7 68v234h-102v107h102v185h141v-185h155v-107h-155v-235 q0 -34 16 -48.5t44 -14.5q21 0 37.5 7t27.5 17z" />
<glyph unicode="&#x166;" horiz-adv-x="630" d="M389 290v-290h-148v290h-107v80h107v197h-223v133h594v-133h-223v-197h106v-80h-106z" />
<glyph unicode="&#x167;" horiz-adv-x="431" d="M427 33q-27 -21 -61.5 -33t-79.5 -12q-51 0 -88.5 16t-60.5 51q-16 23 -22.5 51t-6.5 68v70h-85v76h85v88h-102v107h102v185h140v-185h156v-107h-156v-88h104v-76h-104v-71q0 -34 16 -48.5t44 -14.5q21 0 37.5 7t28.5 17z" />
<glyph unicode="&#x168;" horiz-adv-x="732" d="M666 269q0 -67 -21.5 -119.5t-61 -88.5t-95 -55t-122.5 -19q-68 0 -123 19t-95 55t-61.5 88.5t-21.5 119.5v431h148v-431q0 -70 39 -108t114 -38q73 0 113 38t40 108v431h147v-431zM567 858q-18 -42 -50.5 -72t-77.5 -30q-21 0 -39.5 6.5t-35.5 14.5t-33 14t-32 6 q-20 0 -40 -11t-37 -33l-53 38q18 41 50 71.5t77 30.5q21 0 39.5 -7t35.5 -15t33.5 -14.5t32.5 -6.5q20 0 40 11.5t36 33.5z" />
<glyph unicode="&#x169;" horiz-adv-x="599" d="M539 515v-515h-141v65q-32 -37 -73.5 -57t-89.5 -20q-45 0 -78.5 14.5t-56 40.5t-34 61t-11.5 77v334h140v-302q0 -18 3.5 -35.5t13.5 -32t27.5 -23t45.5 -8.5q47 0 80 30t33 86v285h141zM500 696q-18 -42 -50.5 -72t-77.5 -30q-21 0 -39.5 6.5t-35.5 14.5t-33 14t-32 6 q-20 0 -40 -11t-37 -33l-53 38q18 41 50 71.5t77 30.5q21 0 39.5 -7t35.5 -15t33.5 -14.5t32.5 -6.5q20 0 40 11.5t36 33.5z" />
<glyph unicode="&#x16a;" horiz-adv-x="732" d="M666 269q0 -67 -21.5 -119.5t-61 -88.5t-95 -55t-122.5 -19q-68 0 -123 19t-95 55t-61.5 88.5t-21.5 119.5v431h148v-431q0 -70 39 -108t114 -38q73 0 113 38t40 108v431h147v-431zM203 769v78h326v-78h-326z" />
<glyph unicode="&#x16b;" horiz-adv-x="599" d="M539 515v-515h-141v65q-32 -37 -73.5 -57t-89.5 -20q-45 0 -78.5 14.5t-56 40.5t-34 61t-11.5 77v334h140v-302q0 -18 3.5 -35.5t13.5 -32t27.5 -23t45.5 -8.5q47 0 80 30t33 86v285h141zM137 607v78h326v-78h-326z" />
<glyph unicode="&#x16c;" horiz-adv-x="732" d="M666 269q0 -67 -21.5 -119.5t-61 -88.5t-95 -55t-122.5 -19q-68 0 -123 19t-95 55t-61.5 88.5t-21.5 119.5v431h148v-431q0 -70 39 -108t114 -38q73 0 113 38t40 108v431h147v-431zM370 750q-81 0 -127.5 37.5t-56.5 92.5l72 21q12 -29 39.5 -45.5t72.5 -17.5 q46 0 73.5 17t38.5 46l72 -21q-10 -55 -56.5 -92.5t-127.5 -37.5z" />
<glyph unicode="&#x16d;" horiz-adv-x="599" d="M539 515v-515h-141v65q-32 -37 -73.5 -57t-89.5 -20q-45 0 -78.5 14.5t-56 40.5t-34 61t-11.5 77v334h140v-302q0 -18 3.5 -35.5t13.5 -32t27.5 -23t45.5 -8.5q47 0 80 30t33 86v285h141zM298 588q-81 0 -127.5 37.5t-56.5 92.5l72 21q12 -29 39.5 -45.5t72.5 -17.5 q46 0 73.5 17t38.5 46l72 -21q-10 -55 -56.5 -92.5t-127.5 -37.5z" />
<glyph unicode="&#x16e;" horiz-adv-x="732" d="M666 269q0 -67 -21.5 -119.5t-61 -88.5t-95 -55t-122.5 -19q-68 0 -123 19t-95 55t-61.5 88.5t-21.5 119.5v431h148v-431q0 -70 39 -108t114 -38q73 0 113 38t40 108v431h147v-431zM486 817q0 -45 -33.5 -75.5t-87.5 -30.5q-26 0 -48.5 8.5t-38.5 22.5t-25 33.5t-9 41.5 t9 41.5t25 34t38.5 23t48.5 8.5q27 0 49 -8.5t38 -23t25 -34t9 -41.5zM417 816q0 22 -15.5 37.5t-36.5 15.5t-36.5 -15.5t-15.5 -37.5q0 -21 15.5 -36t36.5 -15t36.5 15t15.5 36z" />
<glyph unicode="&#x16f;" horiz-adv-x="599" d="M539 515v-515h-141v65q-32 -37 -73.5 -57t-89.5 -20q-45 0 -78.5 14.5t-56 40.5t-34 61t-11.5 77v334h140v-302q0 -18 3.5 -35.5t13.5 -32t27.5 -23t45.5 -8.5q47 0 80 30t33 86v285h141zM419 675q0 -45 -33.5 -75.5t-87.5 -30.5q-26 0 -48.5 8.5t-38.5 22.5t-25 33.5 t-9 41.5t9 41.5t25 34t38.5 23t48.5 8.5q27 0 49 -8.5t38 -23t25 -34t9 -41.5zM350 674q0 22 -15.5 37.5t-36.5 15.5t-36.5 -15.5t-15.5 -37.5q0 -21 15.5 -36t36.5 -15t36.5 15t15.5 36z" />
<glyph unicode="&#x170;" horiz-adv-x="732" d="M666 269q0 -67 -21.5 -119.5t-61 -88.5t-95 -55t-122.5 -19q-68 0 -123 19t-95 55t-61.5 88.5t-21.5 119.5v431h148v-431q0 -70 39 -108t114 -38q73 0 113 38t40 108v431h147v-431zM211 771q23 30 48.5 68.5t40.5 71.5l115 -20q-9 -23 -26.5 -44.5t-38.5 -41.5t-45 -37 t-46 -28zM400 771q23 30 48.5 68.5t40.5 71.5l115 -20q-9 -23 -26.5 -44.5t-39 -41.5t-45 -37t-46.5 -28z" />
<glyph unicode="&#x171;" horiz-adv-x="599" d="M539 515v-515h-141v65q-32 -37 -73.5 -57t-89.5 -20q-45 0 -78.5 14.5t-56 40.5t-34 61t-11.5 77v334h140v-302q0 -18 3.5 -35.5t13.5 -32t27.5 -23t45.5 -8.5q47 0 80 30t33 86v285h141zM144 609q23 30 48.5 68.5t40.5 71.5l115 -20q-9 -23 -26.5 -44.5t-38.5 -41.5 t-45 -37t-46 -28zM333 609q23 30 48.5 68.5t40.5 71.5l115 -20q-9 -23 -26.5 -44.5t-39 -41.5t-45 -37t-46.5 -28z" />
<glyph unicode="&#x172;" horiz-adv-x="732" d="M666 269q0 -50 -10.5 -87.5t-29 -67t-45 -52t-58.5 -40.5q-26 -16 -43.5 -34.5t-17.5 -44.5q0 -22 15.5 -33t39.5 -11q28 0 47.5 12t32.5 26v-92q-11 -11 -36 -21t-60 -10q-54 0 -90.5 26t-36.5 71q0 47 42 80q-13 -1 -24 -2.5t-28 -1.5q-66 0 -121 19t-94.5 55 t-61.5 88.5t-22 119.5v431h148v-431q0 -70 39 -108t114 -38q73 0 113 38t40 108v431h147v-431z" />
<glyph unicode="&#x173;" horiz-adv-x="599" d="M398 65q-32 -37 -73.5 -57t-89.5 -20q-47 0 -80.5 15.5t-56 42t-33 61.5t-10.5 74v334h140v-300q0 -42 19.5 -71.5t70.5 -29.5q47 0 80 30t33 86v285h141v-515q-52 -2 -80.5 -18t-28.5 -39q0 -17 14.5 -27t38.5 -10q20 0 36.5 7t25.5 16v-86q-11 -8 -30.5 -14t-43.5 -6 q-57 0 -91.5 26t-34.5 68q0 27 15 49.5t38 33.5v65z" />
<glyph unicode="&#x174;" horiz-adv-x="993" d="M787 0h-161l-131 477l-131 -477h-163l-188 700h160l117 -495l140 495h134l140 -497l117 497h161zM549 903q28 -25 61 -50.5t76 -52.5l-35 -58q-44 10 -85 30t-71 44q-29 -24 -70.5 -44t-85.5 -30l-35 58q43 27 76.5 52.5t61.5 50.5h107z" />
<glyph unicode="&#x175;" horiz-adv-x="812" d="M650 0h-144l-100 336l-102 -336h-144l-146 515h154l78 -338l102 338h118l102 -338l78 338h152zM459 741q28 -25 61 -50.5t76 -52.5l-35 -58q-44 10 -85 30t-71 44q-29 -24 -70.5 -44t-85.5 -30l-35 58q43 27 76.5 52.5t61.5 50.5h107z" />
<glyph unicode="&#x176;" horiz-adv-x="671" d="M409 274v-274h-147v273l-270 427h173l171 -293l173 293h171zM390 903q28 -25 61 -50.5t76 -52.5l-35 -58q-44 10 -85 30t-71 44q-29 -24 -70.5 -44t-85.5 -30l-35 58q43 27 76.5 52.5t61.5 50.5h107z" />
<glyph unicode="&#x177;" horiz-adv-x="599" d="M399 108q-32 -37 -73.5 -57t-90.5 -20q-45 0 -78.5 14.5t-56 40.5t-34 61t-11.5 77v291h140v-259q0 -18 3.5 -35.5t13 -32t27 -23t45.5 -8.5q48 0 81.5 30t33.5 86v242h140v-433q0 -55 -13 -104.5t-51 -87.5q-36 -36 -91 -55t-126 -19q-60 0 -114.5 15t-96.5 43l53 104 q35 -23 75.5 -33.5t80.5 -10.5q64 0 103.5 27.5t39.5 87.5v59zM350 741q28 -25 61 -50.5t76 -52.5l-35 -58q-44 10 -85 30t-71 44q-29 -24 -70.5 -44t-85.5 -30l-35 58q43 27 76.5 52.5t61.5 50.5h107z" />
<glyph unicode="&#x178;" horiz-adv-x="671" d="M409 274v-274h-147v273l-270 427h173l171 -293l173 293h171zM163 749v113h111v-113h-111zM400 749v113h111v-113h-111z" />
<glyph unicode="&#x179;" horiz-adv-x="643" d="M31 0v115l365 452h-350v133h553v-109l-369 -458h378v-133h-577zM233 771q23 30 48.5 68.5t40.5 71.5l124 -20q-10 -23 -27 -44.5t-38.5 -41.5t-45.5 -37t-46 -28z" />
<glyph unicode="&#x17a;" horiz-adv-x="524" d="M30 0v102l254 290h-242v123h440v-98l-257 -295h266v-122h-461zM192 608q21 31 45 69t38 72l124 -20q-10 -23 -27 -44.5t-37.5 -41t-42.5 -36.5t-44 -29z" />
<glyph unicode="&#x17b;" horiz-adv-x="643" d="M31 0v115l365 452h-350v133h553v-109l-369 -458h378v-133h-577zM249 752v110h118v-110h-118z" />
<glyph unicode="&#x17c;" horiz-adv-x="524" d="M30 0v102l254 290h-242v123h440v-98l-257 -295h266v-122h-461zM200 590v110h118v-110h-118z" />
<glyph unicode="&#x17d;" horiz-adv-x="643" d="M31 0v115l365 452h-350v133h553v-109l-369 -458h378v-133h-577zM258 749q-28 25 -61.5 50.5t-76.5 52.5l35 58q44 -10 85.5 -30t70.5 -44q30 24 71 44t85 30l35 -58q-43 -27 -76 -52.5t-61 -50.5h-107z" />
<glyph unicode="&#x17e;" horiz-adv-x="524" d="M30 0v102l254 290h-242v123h440v-98l-257 -295h266v-122h-461zM203 587q-28 25 -61.5 50.5t-76.5 52.5l35 58q44 -10 85.5 -30t70.5 -44q30 24 71 44t85 30l35 -58q-43 -27 -76 -52.5t-61 -50.5h-107z" />
<glyph unicode="&#x192;" horiz-adv-x="608" d="M546 576q-17 8 -29 12t-32 4q-37 0 -56.5 -17.5t-25.5 -51.5l-13 -78h132l-20 -110h-132l-47 -268q-7 -41 -22 -75.5t-40.5 -60t-61.5 -39.5t-84 -14q-39 0 -67.5 7.5t-51.5 19.5l46 110q15 -8 29.5 -12.5t33.5 -4.5q35 0 55 18.5t25 52.5l47 266h-111l20 110h111l13 80 q6 42 21.5 76.5t41 59.5t62 39t84.5 14q38 0 67 -8t51 -19z" />
<glyph unicode="&#x1fa;" horiz-adv-x="698" d="M292 872l75 128h155l-122 -128h-108zM206 740q0 26 11 49t30.5 40.5t45.5 27.5t56 10t56 -10t45.5 -27.5t31 -40.5t11.5 -49q0 -25 -11 -46.5t-28 -36.5l248 -657h-165l-55 162h-270l-56 -162h-161l250 657q-17 15 -28 36.5t-11 46.5zM347 574l-98 -292h196zM406 740 q0 25 -16 41.5t-41 16.5t-41.5 -16.5t-16.5 -41.5t16.5 -41t41.5 -16t41 16t16 41z" />
<glyph unicode="&#x1fb;" horiz-adv-x="661" d="M273 527q50 0 92 -19t75 -59v66h141v-386q0 -38 29 -38q20 0 28 7l15 -90q-15 -8 -37.5 -12t-39.5 -4q-39 0 -73.5 16t-51.5 61q-32 -45 -77 -63t-98 -18q-59 0 -104.5 20.5t-77 57t-48 86t-16.5 106.5q0 58 17 107t48.5 85t76.5 56.5t101 20.5zM440 258q0 30 -8.5 57 t-25 47t-41.5 31.5t-58 11.5t-57 -11.5t-40 -32t-24 -47t-8 -56.5t8 -57t23.5 -47.5t40 -32t57.5 -11.5t58 11.5t41.5 32t25 47.5t8.5 57zM422 664q0 -45 -33.5 -75.5t-87.5 -30.5q-26 0 -48.5 8.5t-38.5 22.5t-25 33.5t-9 41.5t9 41.5t25 34t38.5 23t48.5 8.5q27 0 49 -8.5 t38 -23t25 -34t9 -41.5zM353 663q0 22 -15.5 37.5t-36.5 15.5t-36.5 -15.5t-15.5 -37.5q0 -21 15.5 -36t36.5 -15t36.5 15t15.5 36zM214 820q23 30 48.5 68.5t40.5 71.5l124 -20q-10 -23 -27 -44.5t-38.5 -41.5t-45.5 -37t-46 -28z" />
<glyph unicode="&#x1fc;" horiz-adv-x="952" d="M461 0v162h-234l-80 -162h-162l356 700h606v-133h-339v-141h281v-120h-281v-173h339v-133h-486zM461 581h-36l-141 -299h177v299zM438 771q23 30 48.5 68.5t40.5 71.5l124 -20q-10 -23 -27 -44.5t-38.5 -41.5t-45.5 -37t-46 -28z" />
<glyph unicode="&#x1fd;" horiz-adv-x="999" d="M440 258q0 30 -8.5 57t-25 47t-41.5 31.5t-58 11.5t-57 -11.5t-40 -32t-24 -47t-8 -56.5t8 -57t23.5 -47.5t40 -32t57.5 -11.5t58 11.5t41.5 32t25 47.5t8.5 57zM734 527q55 0 99 -19.5t75 -55t47.5 -84.5t16.5 -108q0 -10 -0.5 -20.5t-1.5 -18.5h-389q3 -56 41.5 -85.5 t100.5 -29.5q46 0 82.5 17.5t64.5 46.5l91 -83q-43 -45 -102 -72t-143 -27q-75 0 -129 25t-87 70q-32 -44 -84.5 -69.5t-118.5 -25.5q-62 0 -111.5 20t-84 55.5t-53 85t-18.5 109.5q0 57 17 106.5t48.5 85.5t76.5 56.5t101 20.5q50 0 92 -19t75 -59v66h141v-53q29 29 67 47 t86 18zM833 312q-5 55 -40 82t-86 27q-54 0 -87.5 -29t-38.5 -80h252zM451 609q23 30 48.5 68.5t40.5 71.5l124 -20q-10 -23 -27 -44.5t-38.5 -41.5t-45.5 -37t-46 -28z" />
<glyph unicode="&#x1fe;" horiz-adv-x="769" d="M305 771q23 30 48.5 68.5t40.5 71.5l124 -20q-10 -23 -27 -44.5t-38.5 -41.5t-45.5 -37t-46 -28zM112 28l32 44q-55 51 -84 122t-29 156q0 76 24 142.5t70 115.5t111 77t148 28q51 0 95 -11.5t82 -31.5l34 46l62 -44l-33 -46q55 -50 84.5 -120.5t29.5 -155.5 q0 -77 -24.5 -143t-70 -115t-111.5 -77t-148 -28q-100 0 -178 43l-32 -46zM584 350q0 92 -46 152l-250 -355q40 -24 96 -24q48 0 85 17.5t62.5 48t39 72t13.5 89.5zM185 350q0 -46 11 -85t34 -68l250 356q-21 11 -45 17.5t-51 6.5q-48 0 -85.5 -17.5t-62.5 -48t-38 -72 t-13 -89.5z" />
<glyph unicode="&#x1ff;" horiz-adv-x="614" d="M234 609q23 30 48.5 68.5t40.5 71.5l124 -20q-10 -23 -27 -44.5t-38.5 -41.5t-45.5 -37t-46 -28zM586 257q0 -60 -19.5 -109.5t-56 -84.5t-88 -54.5t-115.5 -19.5t-116 19q-12 5 -24 11l-25 -33l-54 38l24 31q-5 4 -9 8q-36 35 -55.5 84.5t-19.5 109.5t19.5 110t56 85.5 t88 55t115.5 19.5t115 -20q13 -5 26 -11l25 33l53 -38l-24 -31l8 -8q37 -35 56.5 -85t19.5 -110zM362 397q-24 12 -55 12t-55 -11.5t-40.5 -31.5t-25 -47.5t-8.5 -60.5q0 -52 20 -90l172 225zM435 258q0 33 -8 60q-5 15 -11 28l-172 -225q27 -14 63 -14q63 0 95.5 42.5 t32.5 108.5z" />
<glyph unicode="&#x218;" horiz-adv-x="644" d="M316 713q41 0 81.5 -8t77.5 -24.5t69.5 -42.5t58.5 -62l-113 -69q-32 43 -78 63.5t-99 20.5q-48 0 -80 -18t-32 -58q0 -22 12 -36.5t32 -24t46.5 -15.5t56.5 -12q54 -11 102.5 -25t85 -37.5t58 -59.5t21.5 -90q0 -49 -19 -91t-55.5 -72.5t-90 -47.5t-121.5 -17 q-111 0 -191.5 44.5t-122.5 122.5l118 65q35 -60 89 -85t114 -25q61 0 97 23.5t36 65.5q0 25 -14 40.5t-37 25t-52 15.5t-59 12q-48 9 -93.5 23t-81.5 38t-58 60.5t-22 90.5q0 49 19.5 88t54.5 66t83.5 41.5t106.5 14.5zM184 -172q21 29 42.5 64t33.5 67l118 -13 q-8 -21 -23.5 -42t-35 -40.5t-41 -36t-41.5 -27.5z" />
<glyph unicode="&#x219;" horiz-adv-x="546" d="M517 162q0 -40 -16.5 -72t-47.5 -54.5t-75.5 -35t-99.5 -12.5q-86 0 -151.5 27.5t-107.5 83.5l83 73q31 -40 78.5 -60.5t101.5 -20.5q41 0 70 13.5t29 42.5q0 28 -30.5 39.5t-96.5 22.5q-39 7 -76 16t-66 25.5t-47 44t-18 70.5q0 42 17.5 72.5t47.5 50.5t69.5 29.5 t84.5 9.5q43 0 80 -7.5t67 -20t53.5 -29t41.5 -33.5l-84 -74q-29 32 -70.5 46.5t-86.5 14.5q-36 0 -62 -10.5t-26 -35.5q0 -15 9.5 -24t26 -15.5t38 -10.5t45.5 -8q47 -8 87 -18.5t69.5 -28.5t46 -44.5t16.5 -66.5zM147 -172q21 29 42.5 64t33.5 67l118 -13 q-8 -21 -23.5 -42t-35 -40.5t-41 -36t-41.5 -27.5z" />
<glyph unicode="&#x21a;" horiz-adv-x="608" d="M389 567v-567h-148v567h-223v133h594v-133h-223zM171 -172q21 29 42.5 64t33.5 67l118 -13q-8 -21 -23.5 -42t-35 -40.5t-41 -36t-41.5 -27.5z" />
<glyph unicode="&#x21b;" horiz-adv-x="422" d="M427 33q-27 -21 -61.5 -33t-79.5 -12q-50 0 -88 16t-61 51q-15 23 -22 51t-7 68v234h-102v107h102v185h141v-185h155v-107h-155v-235q0 -34 16 -48.5t44 -14.5q21 0 37.5 7t27.5 17zM125 -172q21 29 42.5 64t33.5 67l118 -13q-8 -21 -23.5 -42t-35 -40.5t-41 -36 t-41.5 -27.5z" />
<glyph unicode="&#x237;" horiz-adv-x="262" d="M202 12q0 -99 -52 -146.5t-138 -47.5q-28 0 -57.5 7t-50.5 19l39 105q11 -6 24 -10t28 -4q35 0 50 19t15 56v505h142v-503z" />
<glyph unicode="&#x259;" horiz-adv-x="594" d="M283 420q-39 0 -72.5 -16.5t-54.5 -52.5l-114 61q38 63 99.5 97t144.5 34q62 0 113.5 -20t88 -56t57 -87.5t20.5 -114.5q0 -60 -19 -111t-54.5 -88t-87 -57.5t-115.5 -20.5q-65 0 -115 21t-83.5 57t-51 85t-17.5 105q0 11 1 22t4 22h388q-7 58 -41.5 89t-90.5 31zM284 94 q54 0 88 30t42 85h-257q6 -51 39.5 -83t87.5 -32z" />
<glyph unicode="&#x2c6;" horiz-adv-x="327" d="M219 741q28 -25 61 -50.5t76 -52.5l-35 -58q-44 10 -85 30t-71 44q-29 -24 -70.5 -44t-85.5 -30l-35 58q43 27 76.5 52.5t61.5 50.5h107z" />
<glyph unicode="&#x2c7;" horiz-adv-x="327" d="M112 587q-28 25 -61.5 50.5t-76.5 52.5l35 58q44 -10 85.5 -30t70.5 -44q30 24 71 44t85 30l35 -58q-43 -27 -76 -52.5t-61 -50.5h-107z" />
<glyph unicode="&#x2d8;" horiz-adv-x="327" d="M165 588q-81 0 -127.5 37.5t-56.5 92.5l72 21q12 -29 39.5 -45.5t72.5 -17.5q46 0 73.5 17t38.5 46l72 -21q-10 -55 -56.5 -92.5t-127.5 -37.5z" />
<glyph unicode="&#x2d9;" horiz-adv-x="312" d="M98 590v110h118v-110h-118z" />
<glyph unicode="&#x2da;" horiz-adv-x="312" d="M280 675q0 -45 -33.5 -75.5t-87.5 -30.5q-26 0 -48.5 8.5t-38.5 22.5t-25 33.5t-9 41.5t9 41.5t25 34t38.5 23t48.5 8.5q27 0 49 -8.5t38 -23t25 -34t9 -41.5zM211 674q0 22 -15.5 37.5t-36.5 15.5t-36.5 -15.5t-15.5 -37.5q0 -21 15.5 -36t36.5 -15t36.5 15t15.5 36z " />
<glyph unicode="&#x2db;" horiz-adv-x="312" d="M211 33q-32 -17 -53 -39.5t-21 -48.5q0 -22 15 -32.5t41 -10.5q23 0 42 8.5t33 22.5v-86q-11 -11 -35.5 -19.5t-56.5 -8.5q-55 0 -90 26.5t-35 68.5q0 33 24.5 65t73.5 54h62z" />
<glyph unicode="&#x2dc;" horiz-adv-x="353" d="M375 696q-18 -42 -50.5 -72t-77.5 -30q-21 0 -39.5 6.5t-35.5 14.5t-33 14t-32 6q-20 0 -40 -11t-37 -33l-53 38q18 41 50 71.5t77 30.5q21 0 39.5 -7t35.5 -15t33.5 -14.5t32.5 -6.5q20 0 40 11.5t36 33.5z" />
<glyph unicode="&#x2dd;" horiz-adv-x="389" d="M34 609q23 30 48.5 68.5t40.5 71.5l115 -20q-9 -23 -26.5 -44.5t-38.5 -41.5t-45 -37t-46 -28zM223 609q23 30 48.5 68.5t40.5 71.5l115 -20q-9 -23 -26.5 -44.5t-39 -41.5t-45 -37t-46.5 -28z" />
<glyph unicode="&#x3c0;" horiz-adv-x="576" d="M486 439v-439h-93v439h-210v-439h-92v439h-70v93h535v-93h-70z" />
<glyph unicode="&#x1e80;" horiz-adv-x="993" d="M787 0h-161l-131 477l-131 -477h-163l-188 700h160l117 -495l140 495h134l140 -497l117 497h161zM507 740q-21 11 -45 28t-46 37t-39 41.5t-27 44.5l124 20q15 -33 40.5 -71.5t48.5 -68.5z" />
<glyph unicode="&#x1e81;" horiz-adv-x="812" d="M650 0h-144l-100 336l-102 -336h-144l-146 515h154l78 -338l102 338h118l102 -338l78 338h152zM413 578q-21 11 -45 28t-46 37t-39 41.5t-27 44.5l124 20q15 -33 40.5 -71.5t48.5 -68.5z" />
<glyph unicode="&#x1e82;" horiz-adv-x="993" d="M787 0h-161l-131 477l-131 -477h-163l-188 700h160l117 -495l140 495h134l140 -497l117 497h161zM423 771q23 30 48.5 68.5t40.5 71.5l124 -20q-10 -23 -27 -44.5t-38.5 -41.5t-45.5 -37t-46 -28z" />
<glyph unicode="&#x1e83;" horiz-adv-x="812" d="M650 0h-144l-100 336l-102 -336h-144l-146 515h154l78 -338l102 338h118l102 -338l78 338h152zM345 609q23 30 48.5 68.5t40.5 71.5l124 -20q-10 -23 -27 -44.5t-38.5 -41.5t-45.5 -37t-46 -28z" />
<glyph unicode="&#x1e84;" horiz-adv-x="993" d="M787 0h-161l-131 477l-131 -477h-163l-188 700h160l117 -495l140 495h134l140 -497l117 497h161zM321 749v113h111v-113h-111zM558 749v113h111v-113h-111z" />
<glyph unicode="&#x1e85;" horiz-adv-x="812" d="M650 0h-144l-100 336l-102 -336h-144l-146 515h154l78 -338l102 338h118l102 -338l78 338h152zM232 587v113h111v-113h-111zM469 587v113h111v-113h-111z" />
<glyph unicode="&#x1ef2;" horiz-adv-x="671" d="M409 274v-274h-147v273l-270 427h173l171 -293l173 293h171zM346 740q-21 11 -45 28t-46 37t-39 41.5t-27 44.5l124 20q15 -33 40.5 -71.5t48.5 -68.5z" />
<glyph unicode="&#x1ef3;" horiz-adv-x="599" d="M399 108q-32 -37 -73.5 -57t-90.5 -20q-45 0 -78.5 14.5t-56 40.5t-34 61t-11.5 77v291h140v-259q0 -18 3.5 -35.5t13 -32t27 -23t45.5 -8.5q48 0 81.5 30t33.5 86v242h140v-433q0 -55 -13 -104.5t-51 -87.5q-36 -36 -91 -55t-126 -19q-60 0 -114.5 15t-96.5 43l53 104 q35 -23 75.5 -33.5t80.5 -10.5q64 0 103.5 27.5t39.5 87.5v59zM313 578q-21 11 -45 28t-46 37t-39 41.5t-27 44.5l124 20q15 -33 40.5 -71.5t48.5 -68.5z" />
<glyph unicode="&#x2013;" horiz-adv-x="586" d="M37 245v118h511v-118h-511z" />
<glyph unicode="&#x2014;" horiz-adv-x="933" d="M49 245v118h835v-118h-835z" />
<glyph unicode="&#x2018;" horiz-adv-x="247" d="M46 504q0 65 26 113t85 95l46 -56q-32 -21 -52 -49.5t-20 -62.5v-17h70v-137h-155v114z" />
<glyph unicode="&#x2019;" horiz-adv-x="228" d="M197 586q0 -32 -6.5 -60t-20 -53t-34.5 -48.5t-51 -46.5l-45 56q32 21 51.5 49.5t19.5 62.5v17h-69v137h155v-114z" />
<glyph unicode="&#x201a;" horiz-adv-x="265" d="M210 36q0 -65 -26.5 -114t-85.5 -95l-45 56q32 21 51.5 50t19.5 63v16h-69v138h155v-114z" />
<glyph unicode="&#x201c;" horiz-adv-x="479" d="M278 503q0 65 26 113.5t85 95.5l46 -56q-32 -21 -52 -49.5t-20 -62.5v-17h70v-137h-155v113zM46 504q0 65 26 113t85 95l46 -56q-32 -21 -52 -49.5t-20 -62.5v-17h70v-137h-155v114z" />
<glyph unicode="&#x201d;" horiz-adv-x="460" d="M197 586q0 -32 -6.5 -60t-20 -53t-34.5 -48.5t-51 -46.5l-45 56q32 21 51.5 49.5t19.5 62.5v17h-69v137h155v-114zM429 586q0 -32 -6.5 -60t-20 -53t-34.5 -48.5t-51 -46.5l-45 56q32 21 51.5 49.5t19.5 62.5v17h-69v137h155v-114z" />
<glyph unicode="&#x201e;" horiz-adv-x="497" d="M210 36q0 -65 -26.5 -114t-85.5 -95l-45 56q32 21 51.5 50t19.5 63v16h-69v138h155v-114zM442 36q0 -65 -26.5 -114t-85.5 -95l-45 56q32 21 51.5 50t19.5 63v16h-69v138h155v-114z" />
<glyph unicode="&#x2020;" horiz-adv-x="507" d="M321 414v-414h-134v414h-157v118h157v134h134v-134h156v-118h-156z" />
<glyph unicode="&#x2021;" horiz-adv-x="526" d="M330 134v-134h-134v134h-157v118h157v162h-157v118h157v134h134v-134h156v-118h-156v-162h156v-118h-156z" />
<glyph unicode="&#x2022;" horiz-adv-x="400" d="M361 333q0 -33 -12.5 -62t-34.5 -51t-51.5 -34.5t-62.5 -12.5t-62 12.5t-51 34.5t-34.5 51t-12.5 62t12.5 62.5t34.5 51.5t51 34.5t62 12.5t62.5 -12.5t51.5 -34.5t34.5 -51.5t12.5 -62.5z" />
<glyph unicode="&#x2025;" horiz-adv-x="532" d="M55 0v152h155v-152h-155zM322 0v152h155v-152h-155z" />
<glyph unicode="&#x2026;" horiz-adv-x="793" d="M55 0v152h155v-152h-155zM319 0v152h155v-152h-155zM583 0v152h155v-152h-155z" />
<glyph unicode="&#x2030;" horiz-adv-x="1201" d="M383 530q0 -38 -13.5 -71t-37.5 -57.5t-56.5 -38.5t-69.5 -14q-38 0 -70.5 14t-56.5 38.5t-37.5 57.5t-13.5 71q0 37 13.5 70t37.5 57.5t56.5 38.5t70.5 14q37 0 69.5 -14t56.5 -38.5t37.5 -57.5t13.5 -70zM277 0h-107l371 700h108zM790 171q0 -38 -13.5 -71t-37 -57 t-56 -38t-70.5 -14t-70 14t-56 38t-37.5 57t-13.5 71t13.5 71t37.5 57t56 38t70 14t70.5 -14t56 -38t37 -57t13.5 -71zM289 530q0 36 -23 61t-60 25q-38 0 -61 -25t-23 -61q0 -37 23 -62t61 -25q37 0 60 25t23 62zM697 171q0 37 -23.5 61.5t-60.5 24.5t-60 -24.5t-23 -61.5 q0 -36 23 -61.5t60 -25.5t60.5 25.5t23.5 61.5zM1174 171q0 -38 -13.5 -71t-37 -57t-55.5 -38t-70 -14t-70.5 14t-56 38t-37 57t-13.5 71t13.5 71t37 57t56 38t70.5 14t70 -14t55.5 -38t37 -57t13.5 -71zM1081 171q0 37 -23 61.5t-60 24.5t-60.5 -24.5t-23.5 -61.5 q0 -36 23.5 -61.5t60.5 -25.5t60 25.5t23 61.5z" />
<glyph unicode="&#x2039;" horiz-adv-x="278" d="M16 291l159 201l70 -52l-114 -175l114 -175l-70 -52l-159 202v51z" />
<glyph unicode="&#x203a;" horiz-adv-x="278" d="M261 240l-158 -202l-70 52l113 175l-113 175l70 52l158 -201v-51z" />
<glyph unicode="&#x2044;" horiz-adv-x="245" d="M-52 0h-105l455 700h105z" />
<glyph unicode="&#x20ac;" horiz-adv-x="608" d="M404 -13q-61 0 -114 18.5t-95 52.5t-71.5 82.5t-42.5 109.5h-76v65h67q-1 8 -1.5 17t-0.5 18q0 8 0.5 17.5t1.5 15.5h-67v64h76q13 61 42.5 110.5t72 84t96 53t113.5 18.5q64 0 114 -19.5t85 -48.5l-77 -101q-49 40 -114 40q-66 0 -112 -37t-66 -100h223v-64h-236 q-1 -8 -1.5 -16t-0.5 -16q0 -10 0.5 -19t1.5 -17h236v-65h-222q19 -63 65 -98t108 -35q45 0 77.5 16.5t52.5 36.5l77 -99q-38 -38 -90.5 -61t-121.5 -23z" />
<glyph unicode="&#x2113;" horiz-adv-x="535" d="M502 84q-12 -16 -29 -33t-40 -31t-53.5 -23t-68.5 -9q-87 0 -131 45t-44 133v18q-19 -8 -37 -16t-36 -14l-35 96q27 10 54.5 22t53.5 26v170q0 40 8 78t27.5 67.5t52 47t81.5 17.5q69 0 108.5 -35t49.5 -89q4 -24 3 -52q-5 -67 -54 -133.5t-156 -126.5v-71 q0 -39 19 -55.5t48 -16.5q19 0 34.5 6t28 15t22 19.5t15.5 19.5zM256 368q49 37 73 76.5t24 74.5q0 26 -11.5 41.5t-34.5 15.5q-29 0 -40 -22t-11 -52v-134z" />
<glyph unicode="&#x2117;" horiz-adv-x="802" d="M770 350q0 -76 -29 -143t-79.5 -117.5t-117.5 -79.5t-143 -29t-143 29t-117.5 79.5t-79.5 117.5t-29 143t29 143.5t79.5 117.5t117.5 79t143 29t143 -29t117.5 -79t79.5 -117.5t29 -143.5zM700 350q0 62 -23.5 116.5t-64.5 95t-95.5 64t-115.5 23.5q-62 0 -116.5 -23.5 t-95.5 -64t-64.5 -95t-23.5 -116.5t23.5 -116.5t64.5 -95t95.5 -64t116.5 -23.5t116.5 23.5t95 64t64 95t23.5 116.5zM361 278v-132h-107v408h188q39 0 68.5 -11t49 -29.5t29 -44t9.5 -54.5q0 -27 -9.5 -52t-29 -44t-49 -30t-70.5 -11h-79zM489 414q0 60 -70 60h-58v-117h58 q70 0 70 57z" />
<glyph unicode="&#x2122;" horiz-adv-x="733" d="M609 369v210l-69 -210h-56l-68 210v-210h-71v297h101l67 -210l67 210h100v-297h-71zM207 596v-227h-74v227h-94v70h264v-70h-96z" />
<glyph unicode="&#x2126;" horiz-adv-x="640" d="M320 713q63 0 115 -22t88.5 -61t57 -93t20.5 -118q0 -57 -14.5 -104.5t-36.5 -87.5t-48 -74.5t-48 -64.5h133v-88h-222l-17 84q37 48 67 89t50 80t31 79t11 86q0 45 -13 83.5t-37.5 66.5t-59 43.5t-77.5 15.5t-77.5 -15.5t-59 -43.5t-37.5 -66.5t-13 -83.5q0 -46 11 -86 t31 -79t49.5 -80t66.5 -89l-17 -84h-221v88h133q-23 31 -49 65.5t-48 74.5t-36.5 87.5t-14.5 104.5q0 64 20.5 117.5t57.5 92.5t89 61t115 22z" />
<glyph unicode="&#x212e;" horiz-adv-x="605" d="M156 273v-187q31 -30 68 -45.5t82 -15.5q65 0 113 29t86 95l36 -22q-24 -37 -48.5 -63t-52.5 -43t-61 -25t-73 -8q-61 0 -110 22t-83.5 60.5t-53.5 90.5t-19 112t19 112t53.5 90.5t83.5 60.5t110 22q60 0 109 -21t84 -59t54.5 -90t19.5 -115h-417zM457 310v150 q-67 62 -152 62q-45 0 -81.5 -16t-67.5 -46v-150h301z" />
<glyph unicode="&#x2139;" d="M419 554q-4 -31 -6 -44.5t-5 -28.5h95q34 0 57.5 24t23.5 59q0 34 -22.5 57t-60.5 23q-28 0 -51.5 -18.5t-30.5 -71.5zM463 34q35 0 72 10t69 28l-19 41q-20 -11 -36.5 -15t-31.5 -4q-30 0 -50.5 16t-20.5 52q0 18 5 41t11 43l52 174h-122l-34 -132q-11 -44 -19 -79 t-8 -61q0 -55 36 -84.5t96 -29.5zM40 333q0 87 33 163t90 133t133 90t163 33t163 -33t133 -90t90 -133t33 -163t-33 -163t-90 -133t-133 -90t-163 -33t-163 33t-133 90t-90 133t-33 163z" />
<glyph unicode="&#x2190;" d="M88 333l342 343l85 -85l-195 -196h497v-125h-497l195 -195l-85 -85z" />
<glyph unicode="&#x2191;" d="M459 729l348 -347l-85 -86l-201 200v-496h-125v496l-200 -200l-85 86z" />
<glyph unicode="&#x2192;" d="M488 -10l-86 85l195 195h-496v125h496l-195 196l86 85l342 -343z" />
<glyph unicode="&#x2193;" d="M111 332l85 85l200 -200v497h125v-497l201 200l85 -85l-348 -347z" />
<glyph unicode="&#x2196;" d="M682 482h-284l352 -351l-89 -89l-352 352v-284h-119v492h492v-120z" />
<glyph unicode="&#x2197;" d="M236 602h492v-492h-120v284l-351 -352l-89 89l352 351h-284v120z" />
<glyph unicode="&#x2198;" d="M236 184h284l-352 351l89 89l351 -352v284h120v-492h-492v120z" />
<glyph unicode="&#x2199;" d="M682 64h-492v492h119v-284l352 352l89 -89l-352 -351h284v-120z" />
<glyph unicode="&#x2202;" horiz-adv-x="621" d="M271 500q37 0 70.5 -10.5t60.5 -31.5q-38 67 -101 115t-129 80l116 73q63 -32 117 -76.5t93.5 -100.5t62 -122t22.5 -140q0 -69 -19 -124t-55 -94t-88 -60t-118 -21q-60 0 -110 18t-86.5 52t-56.5 82t-20 108q0 52 17 98t48.5 80t76 54t99.5 20zM441 244q0 29 -9 54.5 t-26 44.5t-42 30t-56 11q-32 0 -56.5 -11t-40.5 -30t-24 -44.5t-8 -54.5t8 -54.5t24 -44t40.5 -29t56.5 -10.5t57 10.5t42 29.5t25.5 44t8.5 54z" />
<glyph unicode="&#x2206;" horiz-adv-x="611" d="M585 0h-560v14l274 700h12l274 -700v-14zM156 92h299l-150 386z" />
<glyph unicode="&#x220f;" horiz-adv-x="626" d="M520 605v-605h-94v605h-226v-605h-94v605h-74v95h561v-95h-73z" />
<glyph unicode="&#x2211;" horiz-adv-x="592" d="M550 0h-522v25l301 325l-301 325v25h522v-95h-333l239 -255l-239 -256h333v-94z" />
<glyph unicode="&#x2212;" horiz-adv-x="586" d="M37 245v118h511v-118h-511z" />
<glyph unicode="&#x221a;" horiz-adv-x="561" d="M576 699l-374 -753h-12l-189 372l82 42l112 -221l298 601z" />
<glyph unicode="&#x221e;" horiz-adv-x="789" d="M748 275q0 -36 -13.5 -67.5t-37 -55t-55 -37t-67.5 -13.5q-35 0 -64 10.5t-57 38.5l-60 60l-60 -60q-27 -28 -56 -38.5t-64 -10.5q-36 0 -67.5 13.5t-55 37t-37 55t-13.5 67.5t13.5 67.5t37 55t55 37t67.5 13.5q35 0 64 -10.5t56 -38.5l60 -60l60 60q28 28 57 38.5 t64 10.5q36 0 67.5 -13.5t55 -37t37 -55t13.5 -67.5zM655 275q0 33 -23.5 57t-56.5 24q-18 0 -34 -8t-29.5 -20.5t-26.5 -26.5t-25 -26l56 -55q25 -26 59 -26q33 0 56.5 24t23.5 57zM273 331q-25 25 -59 25q-33 0 -57 -24t-24 -57t24 -57t57 -24q19 0 34.5 8t29.5 20.5 t26.5 27t24.5 26.5z" />
<glyph unicode="&#x222b;" horiz-adv-x="316" d="M259 627q-17 18 -37 18q-40 0 -40 -51q0 -17 2.5 -48t6.5 -71l8.5 -85t9.5 -88q5 -50 9.5 -96.5t8 -86.5t5.5 -71t2 -50q0 -60 -31.5 -91.5t-86.5 -31.5q-37 0 -61.5 11.5t-41.5 27.5l46 58q17 -17 37 -17q41 0 41 51q0 16 -2.5 47.5t-6.5 71.5t-9 84.5t-9 88.5 q-5 49 -9.5 96t-8 87t-5.5 71t-2 50q0 60 31 91.5t86 31.5q37 0 62 -11.5t42 -27.5z" />
<glyph unicode="&#x2248;" horiz-adv-x="586" d="M31 194q11 15 26 32t34 31t41.5 23.5t48.5 9.5q29 0 54.5 -9t63.5 -25q35 -14 59.5 -23t47.5 -9q29 0 56.5 12t53.5 35l40 -48q-11 -15 -26 -32t-34 -31.5t-41.5 -24t-48.5 -9.5q-29 0 -55 9t-63 26q-35 15 -59.5 23.5t-47.5 8.5q-29 0 -56.5 -12.5t-53.5 -34.5zM31 387 q11 15 26 32t34 31t41.5 23.5t48.5 9.5q29 0 54.5 -9t63.5 -25q35 -15 59.5 -23.5t47.5 -8.5q29 0 56.5 12t53.5 35l40 -48q-11 -15 -26 -32t-34 -31.5t-41.5 -24t-48.5 -9.5q-29 0 -55 9t-63 26q-35 15 -59.5 23t-47.5 8q-29 0 -56.5 -12t-53.5 -34z" />
<glyph unicode="&#x2260;" horiz-adv-x="586" d="M291 138l-49 -148h-89l49 148h-175v99h208l26 79h-234v100h268l50 148h88l-49 -148h174v-100h-208l-27 -79h235v-99h-267z" />
<glyph unicode="&#x2264;" horiz-adv-x="586" d="M37 0v109h511v-109h-511zM478 664l53 -104l-281 -155l281 -155l-53 -104l-436 259z" />
<glyph unicode="&#x2265;" horiz-adv-x="586" d="M37 0v109h511v-109h-511zM544 405l-436 -259l-53 104l280 155l-280 155l53 104z" />
<glyph unicode="&#x229b;" d="M878 333q0 -87 -33 -163t-90 -133t-133 -90t-163 -33t-163 33t-133 90t-90 133t-33 163t33 163t90 133t133 90t163 33t163 -33t133 -90t90 -133t33 -163zM828 333q0 76 -29 143t-79.5 117.5t-117.5 79.5t-143 29t-143 -29t-117.5 -79.5t-79.5 -117.5t-29 -143t29 -143 t79.5 -117.5t117.5 -79.5t143 -29t143 29t117.5 79.5t79.5 117.5t29 143zM430 202q5 20 9 47.5t5 58.5q-22 -14 -43 -30t-41 -36q-22 -22 -40 -42.5t-35 -29.5q-13 -7 -27 -7q-29 0 -46 27q-8 14 -8 29q0 29 27 45q18 11 44 16t56 13q31 8 52 17t47 23q-26 14 -51.5 24 t-47.5 16q-29 8 -55.5 13t-44.5 16q-14 8 -20.5 19.5t-6.5 25.5q0 15 8 29q17 27 46 27q14 0 27 -7q17 -9 33.5 -28t41.5 -44q36 -36 84 -66q-1 56 -14 106q-8 29 -16.5 54.5t-8.5 45.5q0 25 15.5 39.5t38.5 14.5t38.5 -14.5t15.5 -39.5q0 -20 -8.5 -45.5t-16.5 -54.5 q-5 -20 -9 -48t-6 -58q48 29 85 66q23 23 40.5 42.5t34.5 29.5q13 7 27 7q29 0 46 -27q8 -14 8 -29q0 -14 -6.5 -25.5t-20.5 -19.5q-18 -11 -45.5 -16t-54.5 -13q-47 -13 -100 -40q26 -14 49.5 -23.5t50.5 -16.5q37 -10 60 -14.5t40 -14.5q27 -16 27 -45q0 -15 -8 -29 q-17 -27 -46 -27q-14 0 -27 7q-17 9 -33.5 28t-41.5 44q-19 19 -39.5 34.5t-45.5 31.5q3 -58 15 -106q9 -34 17 -56.5t8 -42.5q0 -26 -15.5 -40.5t-38.5 -14.5t-38.5 14.5t-15.5 40.5q0 20 8 42.5t17 56.5z" />
<glyph unicode="&#x25a0;" horiz-adv-x="766" d="M716 666v-666h-666v666h666z" />
<glyph unicode="&#x25a1;" horiz-adv-x="766" d="M716 666v-666h-666v666h666zM100 616v-566h566v566h-566z" />
<glyph unicode="&#x25b2;" horiz-adv-x="532" d="M500 0h-468l234 720z" />
<glyph unicode="&#x25b6;" horiz-adv-x="469" d="M70 686l353 -353l-353 -353v706z" />
<glyph unicode="&#x25b7;" horiz-adv-x="469" d="M70 686l353 -353l-353 -353v706zM114 86l247 247l-247 247v-494z" />
<glyph unicode="&#x25ba;" horiz-adv-x="830" d="M70 99v468l720 -234z" />
<glyph unicode="&#x25bb;" horiz-adv-x="830" d="M70 99v468l720 -234zM662 333l-552 179v-358z" />
<glyph unicode="&#x25bc;" horiz-adv-x="532" d="M32 666h468l-234 -720z" />
<glyph unicode="&#x25c0;" horiz-adv-x="469" d="M399 -20l-353 353l353 353v-706z" />
<glyph unicode="&#x25c1;" horiz-adv-x="469" d="M399 -20l-353 353l353 353v-706zM355 580l-247 -247l247 -247v494z" />
<glyph unicode="&#x25c4;" horiz-adv-x="830" d="M760 567v-468l-720 234z" />
<glyph unicode="&#x25c5;" horiz-adv-x="830" d="M760 567v-468l-720 234zM168 333l552 -179v358z" />
<glyph unicode="&#x25ca;" horiz-adv-x="594" d="M301 -48h-12l-264 381l264 381h12l264 -381zM295 561l-157 -228l157 -228l157 228z" />
<glyph unicode="&#x25cb;" horiz-adv-x="766" d="M30 333q0 73 27.5 137.5t75.5 112.5t112.5 75.5t137.5 27.5t137.5 -27.5t112.5 -75.5t75.5 -112.5t27.5 -137.5t-27.5 -137.5t-75.5 -112.5t-112.5 -75.5t-137.5 -27.5t-137.5 27.5t-112.5 75.5t-75.5 112.5t-27.5 137.5zM80 333q0 -63 24 -118t65 -96t96 -65t118 -24 t118 24t96 65t65 96t24 118t-24 118t-65 96t-96 65t-118 24t-118 -24t-96 -65t-65 -96t-24 -118z" />
<glyph unicode="&#x25cf;" horiz-adv-x="766" d="M30 333q0 73 27.5 137.5t75.5 112.5t112.5 75.5t137.5 27.5t137.5 -27.5t112.5 -75.5t75.5 -112.5t27.5 -137.5t-27.5 -137.5t-75.5 -112.5t-112.5 -75.5t-137.5 -27.5t-137.5 27.5t-112.5 75.5t-75.5 112.5t-27.5 137.5z" />
<glyph unicode="&#x2605;" horiz-adv-x="846" d="M814 434l-241 -175l92 -285l-242 175l-242 -175l92 285l-241 175h298l93 284l93 -284h298z" />
<glyph unicode="&#x2606;" horiz-adv-x="846" d="M814 434l-241 -175l92 -285l-242 175l-242 -175l92 285l-241 175h298l93 284l93 -284h298zM505 418l-82 251v-500l212 -154l-81 250l211 153h-260z" />
<glyph unicode="&#x271a;" horiz-adv-x="766" d="M272 222h-222v222h222v222h222v-222h222v-222h-222v-222h-222v222z" />
<glyph unicode="&#x2765;" horiz-adv-x="552" d="M339 332q36 0 67.5 -13.5t55 -36.5t37 -54t13.5 -67t-13.5 -67.5t-37 -55t-55 -37t-67.5 -13.5t-67.5 14t-54.5 37q-24 24 -41.5 57t-40.5 78q-35 69 -69.5 111.5t-65.5 42.5v10q31 0 65.5 42.5t69.5 111.5q22 44 39.5 77t42.5 58q23 23 54.5 37t67.5 14t67.5 -13.5 t55 -37t37 -55t13.5 -67.5t-13.5 -67t-37 -54t-55 -36.5t-67.5 -13.5v-2z" />
<glyph unicode="&#x3008;" horiz-adv-x="327" d="M196 -47l-190 376v8l190 376l113 -56l-164 -324l164 -324z" />
<glyph unicode="&#x3009;" horiz-adv-x="326" d="M130 713l190 -376v-8l-190 -376l-112 56l164 324l-164 324z" />
<glyph unicode="&#x300a;" horiz-adv-x="553" d="M309 657l-164 -324l164 -324l-113 -56l-190 376v8l190 376zM535 657l-164 -324l164 -324l-112 -56l-190 376v8l190 376z" />
<glyph unicode="&#x300b;" horiz-adv-x="553" d="M357 713l190 -376v-8l-190 -376l-112 56l164 324l-164 324zM131 713l190 -376v-8l-190 -376l-113 56l164 324l-164 324z" />
<glyph unicode="&#xe000;" horiz-adv-x="515" d="M0 515h515v-515h-515v515z" />
<glyph unicode="&#xf6c3;" horiz-adv-x="242" d="M2 -172q21 29 42.5 64t33.5 67l118 -13q-8 -21 -23.5 -42t-35 -40.5t-41 -36t-41.5 -27.5z" />
<glyph unicode="&#x1f4d5;" horiz-adv-x="876" d="M682 374q0 79 -44 126.5t-127 47.5q-41 0 -73.5 -13.5t-55.5 -37t-35 -55.5t-12 -70t12 -70t34.5 -55t56 -36.5t77.5 -13.5q53 0 91.5 17t70.5 46l-63 57q-42 -39 -92 -39q-36 0 -59 19t-25 53h243q1 5 1 12v12zM762 -8q-12 19 -12 44q0 24 12 44h-458q-18 0 -31 -13 t-13 -31t13 -31t31 -13h458zM439 410q2 32 22.5 49t51.5 17t51 -16.5t23 -49.5h-148zM798 666v-714h-494q-35 0 -59.5 24.5t-24.5 59.5v505q0 26 10 48.5t27 39.5t39.5 27t48.5 10h453zM345 706q-34 0 -64 -13t-52.5 -35.5t-35.5 -52.5t-13 -64h-40q0 42 16 79.5t44 65.5 t65.5 44t79.5 16v-40zM345 786q-51 0 -95.5 -19.5t-77.5 -52.5t-52.5 -77.5t-19.5 -95.5h-40q0 59 22.5 111t61 90.5t90.5 61t111 22.5v-40z" />
<glyph unicode="&#x1f4d6;" d="M449 418q0 15 -14.5 37.5t-44 43.5t-75.5 36t-109 15v-342q61 0 105 -15t72.5 -36t42 -43.5t13.5 -37.5h10v342zM469 76h10q0 15 13.5 37.5t42 43.5t72.5 36t105 15v342q-63 0 -109 -15t-75.5 -36t-44 -43.5t-14.5 -37.5v-342zM78 586q0 27 10 50t27.5 40.5t40.5 27.5 t50 10h506q27 0 50 -10t40.5 -27.5t27.5 -40.5t10 -50v-506q0 -27 -10 -50t-27.5 -40.5t-40.5 -27.5t-50 -10h-506q-27 0 -50 10t-40.5 27.5t-27.5 40.5t-10 50v506z" />
<glyph unicode="&#x1f50c;" d="M459 633q-30 0 -57 -6v-116h-169v-117h169v-122h-169v-117h169v-117q14 -2 28 -3.5t29 -1.5q54 0 102.5 18t87 50t65 76t37.5 95h122q-11 -76 -47.5 -141.5t-91.5 -113.5t-125.5 -75.5t-149.5 -27.5q-87 0 -163 33t-133 90t-90 133t-33 163t33 163t90 133t133 90t163 33 q79 0 149.5 -27.5t125.5 -75.5t91.5 -113.5t47.5 -141.5h-122q-11 51 -37.5 94.5t-65 76t-87 50.5t-102.5 18z" />
<glyph unicode="&#x1f697;" horiz-adv-x="1272" d="M168 78q-65 0 -91.5 48.5t-26.5 131.5q0 110 38.5 196.5t105 146.5t154.5 92t187 32q152 0 257.5 -73.5t147.5 -211.5q63 -7 116.5 -25t92.5 -47t61 -68.5t22 -90.5q0 -58 -27.5 -94.5t-75.5 -36.5h-15q-13 -42 -47.5 -68t-79.5 -26t-79.5 26t-47.5 68h-438 q-13 -42 -47.5 -68t-79.5 -26t-79.5 26t-47.5 68zM666 412q88 0 131.5 10t43.5 42q0 10 -3 19t-7 16q-19 37 -50.5 66t-70.5 49t-84 30.5t-91 10.5t-91 -10.5t-84 -30.5t-70.5 -49t-50.5 -66q-4 -7 -7 -16t-3 -19q0 -32 43.5 -42t131.5 -10h262z" />
<glyph unicode="&#x1f698;" horiz-adv-x="962" d="M296 47q0 -35 -21.5 -47t-63.5 -12t-63 12t-21 47v31q-12 12 -24.5 28t-22 40t-16 57t-6.5 79q0 107 32 189.5t88.5 139t134 85.5t168.5 29t168.5 -29t134 -85.5t88.5 -139t32 -189.5q0 -46 -6.5 -79t-16 -57t-22 -40t-24.5 -28v-31q0 -35 -21 -47t-63 -12t-63.5 12 t-21.5 47v31h-370v-31zM612 412q88 0 131.5 10t43.5 42q0 10 -3 19t-7 16q-19 37 -50.5 66t-70.5 49t-84 30.5t-91 10.5t-91 -10.5t-84 -30.5t-70.5 -49t-50.5 -66q-4 -7 -7 -16t-3 -19q0 -32 43.5 -42t131.5 -10h262zM808 264q0 30 -21 51t-51 21t-51 -21t-21 -51t21 -51 t51 -21t51 21t21 51zM154 264q0 -30 21 -51t51 -21t51 21t21 51t-21 51t-51 21t-51 -21t-21 -51z" />
<glyph horiz-adv-x="257" d="M208 616q0 -65 -26 -113t-85 -95l-44 53q24 21 40 47t16 58q0 16 -4.5 28t-10.5 23.5t-10.5 25.5t-4.5 35v22h129v-84z" />
<glyph horiz-adv-x="327" d="M92 608q21 31 45 69t38 72l124 -20q-10 -23 -27 -44.5t-37.5 -41t-42.5 -36.5t-44 -29z" />
<glyph horiz-adv-x="929" d="M279 227q12 0 14.5 -5.5t2.5 -10.5q0 -16 -22 -16h-9t-7 1v31h21zM175 226l15 -50h-30zM657 227q18 0 18 -16q0 -6 -4 -11.5t-18 -5.5h-7t-7 1v32h18zM465 254q-2 21 -13 37l13 9l12 -9q-5 -8 -8.5 -17.5t-3.5 -19.5zM450 369q5 0 8 -3q-4 -8 -4 -15q0 -15 11 -15 q10 0 10 15q0 7 -4 15q3 3 8 3q6 0 9 -3.5t3 -8.5q0 -20 -26 -44q-26 23 -26 44q0 5 2.5 8.5t8.5 3.5zM541 299q0 -5 -6 -9t-14 -4t-15.5 2.5t-14.5 5.5q13 16 32 16q7 0 12.5 -2.5t5.5 -8.5zM465 725q211 -106 320 -231.5t109 -262.5q0 -55 -17 -100t-47.5 -76.5t-73.5 -49 t-95 -17.5q-39 0 -73.5 12t-59.5 33.5t-39.5 50t-14.5 61.5v105q0 19 11 36q18 -9 36 -9q13 0 21.5 6t8.5 16q0 9 -8 15t-20 6q-22 0 -40 -21l-6 4t-5 4q28 26 28 50q0 10 -6 16t-15 6q-8 0 -14 -6q-8 6 -15 6q-9 0 -15 -6t-6 -16q0 -24 28 -50l-10 -8q-19 21 -40 21 q-13 0 -20.5 -6t-7.5 -15q0 -10 8 -16t21 -6q18 0 36 9q11 -17 11 -36v-105q0 -34 -14 -62.5t-39 -49.5t-59.5 -33t-74.5 -12q-52 0 -95 17.5t-73.5 49.5t-47.5 76.5t-17 99.5q0 137 109 262.5t321 231.5zM221 140l-35 103h-23l-35 -103h20l7 20h40l6 -20h20zM319 140 q-6 11 -11 20q-5 8 -8.5 14.5t-4.5 8.5q21 6 21 28q0 15 -9.5 23.5t-26.5 8.5h-41v-103h19v39h18q1 -1 4 -7t7 -13q4 -9 10 -19h22zM410 226q-14 19 -38 19q-15 0 -25 -8t-10 -21q0 -15 9 -21t20 -9t20 -5.5t9 -11.5t-7 -11.5t-12 -2.5q-18 0 -31 16l-14 -11q4 -6 15 -13.5 t31 -7.5q16 0 26 8.5t10 22.5q0 15 -9 21.5t-20 9.5t-20 5.5t-9 10.5q0 6 5.5 9t10.5 3q16 0 26 -13zM564 184q0 1 6 10t14 20q9 12 19 29h-21l-27 -41l-27 41h-22q10 -16 19 -29q8 -11 13.5 -20.5t6.5 -9.5v-44h19v44zM658 178q17 0 26.5 9t9.5 24q0 32 -36 32h-38v-103h19 v38h19zM790 158h-56v27h35v17h-35v24h54v17h-73v-103h75v18zM388 299q0 6 6 8.5t13 2.5q18 0 31 -16q-7 -3 -14.5 -5.5t-15.5 -2.5t-14 4t-6 9z" />
<glyph d="M205 280h325l-124 -125l72 -71l248 249l-248 249l-72 -71l124 -125h-325v-106zM878 333q0 -87 -33 -163t-90 -133t-133 -90t-163 -33t-163 33t-133 90t-90 133t-33 163t33 163t90 133t133 90t163 33t163 -33t133 -90t90 -133t33 -163z" />
<glyph d="M878 333q0 -87 -33 -163t-90 -133t-133 -90t-163 -33t-163 33t-133 90t-90 133t-33 163t33 163t90 133t133 90t163 33t163 -33t133 -90t90 -133t33 -163zM648 170v352h-352v-101h176l-230 -230l75 -75l230 230v-176h101z" />
<glyph d="M878 333q0 -87 -33 -163t-90 -133t-133 -90t-163 -33t-163 33t-133 90t-90 133t-33 163t33 163t90 133t133 90t163 33t163 -33t133 -90t90 -133t33 -163zM512 79v325l125 -124l71 72l-249 248l-249 -248l71 -72l125 124v-325h106z" />
<glyph d="M40 333q0 87 33 163t90 133t133 90t163 33t163 -33t133 -90t90 -133t33 -163t-33 -163t-90 -133t-133 -90t-163 -33t-163 33t-133 90t-90 133t-33 163zM371 170v176l230 -230l75 75l-230 230h176v101h-352v-352h101z" />
<glyph d="M878 333q0 -87 -33 -163t-90 -133t-133 -90t-163 -33t-163 33t-133 90t-90 133t-33 163t33 163t90 133t133 90t163 33t163 -33t133 -90t90 -133t33 -163zM713 386h-326l125 125l-72 71l-248 -249l248 -249l72 71l-125 125h326v106z" />
<glyph d="M40 333q0 87 33 163t90 133t133 90t163 33t163 -33t133 -90t90 -133t33 -163t-33 -163t-90 -133t-133 -90t-163 -33t-163 33t-133 90t-90 133t-33 163zM270 496v-352h352v101h-176l230 230l-75 75l-230 -230v176h-101z" />
<glyph d="M40 333q0 87 33 163t90 133t133 90t163 33t163 -33t133 -90t90 -133t33 -163t-33 -163t-90 -133t-133 -90t-163 -33t-163 33t-133 90t-90 133t-33 163zM406 587v-326l-125 125l-71 -72l249 -248l249 248l-71 72l-125 -125v326h-106z" />
<glyph d="M878 333q0 -87 -33 -163t-90 -133t-133 -90t-163 -33t-163 33t-133 90t-90 133t-33 163t33 163t90 133t133 90t163 33t163 -33t133 -90t90 -133t33 -163zM547 496v-176l-230 230l-75 -75l230 -230h-176v-101h352v352h-101z" />
<glyph d="M205 386h325l-124 125l72 71l248 -249l-248 -249l-72 71l124 125h-325v106zM878 333q0 -87 -33 -163t-90 -133t-133 -90t-163 -33t-163 33t-133 90t-90 133t-33 163t33 163t90 133t133 90t163 33t163 -33t133 -90t90 -133t33 -163zM828 333q0 76 -29 143t-79.5 117.5 t-117.5 79.5t-143 29t-143 -29t-117.5 -79.5t-79.5 -117.5t-29 -143t29 -143t79.5 -117.5t117.5 -79.5t143 -29t143 29t117.5 79.5t79.5 117.5t29 143z" />
<glyph d="M878 333q0 -87 -33 -163t-90 -133t-133 -90t-163 -33t-163 33t-133 90t-90 133t-33 163t33 163t90 133t133 90t163 33t163 -33t133 -90t90 -133t33 -163zM547 170v176l-230 -230l-75 75l230 230h-176v101h352v-352h-101zM828 333q0 76 -29 143t-79.5 117.5t-117.5 79.5 t-143 29t-143 -29t-117.5 -79.5t-79.5 -117.5t-29 -143t29 -143t79.5 -117.5t117.5 -79.5t143 -29t143 29t117.5 79.5t79.5 117.5t29 143z" />
<glyph d="M878 333q0 -87 -33 -163t-90 -133t-133 -90t-163 -33t-163 33t-133 90t-90 133t-33 163t33 163t90 133t133 90t163 33t163 -33t133 -90t90 -133t33 -163zM406 79v325l-125 -124l-71 72l249 248l249 -248l-71 -72l-125 124v-325h-106zM828 333q0 76 -29 143t-79.5 117.5 t-117.5 79.5t-143 29t-143 -29t-117.5 -79.5t-79.5 -117.5t-29 -143t29 -143t79.5 -117.5t117.5 -79.5t143 -29t143 29t117.5 79.5t79.5 117.5t29 143z" />
<glyph d="M270 170v352h352v-101h-176l230 -230l-75 -75l-230 230v-176h-101zM40 333q0 87 33 163t90 133t133 90t163 33t163 -33t133 -90t90 -133t33 -163t-33 -163t-90 -133t-133 -90t-163 -33t-163 33t-133 90t-90 133t-33 163zM90 333q0 -76 29 -143t79.5 -117.5t117.5 -79.5 t143 -29t143 29t117.5 79.5t79.5 117.5t29 143t-29 143t-79.5 117.5t-117.5 79.5t-143 29t-143 -29t-117.5 -79.5t-79.5 -117.5t-29 -143z" />
<glyph d="M878 333q0 -87 -33 -163t-90 -133t-133 -90t-163 -33t-163 33t-133 90t-90 133t-33 163t33 163t90 133t133 90t163 33t163 -33t133 -90t90 -133t33 -163zM713 280h-326l125 -125l-72 -71l-248 249l248 249l72 -71l-125 -125h326v-106zM828 333q0 76 -29 143t-79.5 117.5 t-117.5 79.5t-143 29t-143 -29t-117.5 -79.5t-79.5 -117.5t-29 -143t29 -143t79.5 -117.5t117.5 -79.5t143 -29t143 29t117.5 79.5t79.5 117.5t29 143z" />
<glyph d="M40 333q0 87 33 163t90 133t133 90t163 33t163 -33t133 -90t90 -133t33 -163t-33 -163t-90 -133t-133 -90t-163 -33t-163 33t-133 90t-90 133t-33 163zM371 496v-176l230 230l75 -75l-230 -230h176v-101h-352v352h101zM90 333q0 -76 29 -143t79.5 -117.5t117.5 -79.5 t143 -29t143 29t117.5 79.5t79.5 117.5t29 143t-29 143t-79.5 117.5t-117.5 79.5t-143 29t-143 -29t-117.5 -79.5t-79.5 -117.5t-29 -143z" />
<glyph d="M40 333q0 87 33 163t90 133t133 90t163 33t163 -33t133 -90t90 -133t33 -163t-33 -163t-90 -133t-133 -90t-163 -33t-163 33t-133 90t-90 133t-33 163zM512 587v-326l125 125l71 -72l-249 -248l-249 248l71 72l125 -125v326h106zM90 333q0 -76 29 -143t79.5 -117.5 t117.5 -79.5t143 -29t143 29t117.5 79.5t79.5 117.5t29 143t-29 143t-79.5 117.5t-117.5 79.5t-143 29t-143 -29t-117.5 -79.5t-79.5 -117.5t-29 -143z" />
<glyph d="M878 333q0 -87 -33 -163t-90 -133t-133 -90t-163 -33t-163 33t-133 90t-90 133t-33 163t33 163t90 133t133 90t163 33t163 -33t133 -90t90 -133t33 -163zM648 496v-352h-352v101h176l-230 230l75 75l230 -230v176h101zM828 333q0 76 -29 143t-79.5 117.5t-117.5 79.5 t-143 29t-143 -29t-117.5 -79.5t-79.5 -117.5t-29 -143t29 -143t79.5 -117.5t117.5 -79.5t143 -29t143 29t117.5 79.5t79.5 117.5t29 143z" />
<glyph horiz-adv-x="766" d="M736 321l-195 1l193 -26l-194 15l191 -39l-193 28l187 -52l-190 41l184 -65l-187 55l178 -78l-183 68l173 -91l-177 81l166 -103l-172 93l159 -113l-165 104l150 -124l-157 115l141 -134l-148 126l131 -144l-139 136l121 -152l-130 145l110 -161l-119 155l99 -168 l-108 162l87 -175l-97 170l75 -181l-85 176l62 -185l-72 181l48 -188l-59 185l35 -191l-46 189l22 -194l-33 193l9 -195l-20 194l-5 -195l-6 195l-19 -194l8 195l-32 -193l21 194l-45 -189l35 191l-59 -185l48 188l-72 -181l62 185l-85 -176l75 181l-97 -170l87 175 l-108 -162l98 168l-119 -155l111 161l-130 -145l121 152l-139 -136l131 144l-148 -126l141 134l-157 -115l150 124l-165 -104l159 113l-172 -93l166 103l-177 -81l172 91l-182 -68l178 78l-187 -55l184 65l-191 -41l188 52l-193 -28l191 39l-194 -15l193 26l-195 -1l195 12 l-195 12l195 -1l-193 26l194 -15l-191 39l193 -28l-188 52l191 -41l-184 65l187 -55l-178 78l182 -68l-172 91l177 -81l-166 102l172 -92l-159 113l165 -104l-150 124l157 -115l-141 134l148 -126l-131 144l139 -136l-121 152l130 -145l-111 161l119 -155l-98 168l108 -162 l-87 175l97 -170l-75 180l85 -175l-62 185l72 -182l-48 189l59 -186l-35 192l45 -189l-21 194l32 -193l-8 195l19 -194l6 195l5 -195l20 194l-9 -195l33 193l-22 -194l46 189l-35 -192l59 186l-48 -189l72 182l-62 -185l85 175l-75 -180l97 170l-87 -175l108 162l-99 -168 l119 155l-110 -161l130 145l-121 -152l139 136l-131 -144l148 126l-141 -134l157 115l-150 -124l165 104l-159 -113l172 92l-166 -102l177 81l-173 -91l183 68l-178 -78l187 55l-184 -65l190 41l-187 -52l193 28l-191 -39l194 15l-193 -26l195 1l-195 -12z" />
<glyph horiz-adv-x="1068" d="M16 499q100 100 232.5 157.5t285.5 57.5q152 0 285 -57.5t233 -157.5l-92 -92q-82 82 -191.5 129.5t-234.5 47.5q-126 0 -235.5 -47.5t-190.5 -129.5zM534 454q98 0 184 -37t150 -102l-92 -92q-47 47 -109 74t-133 27q-72 0 -134 -27t-109 -74l-92 92q65 65 150.5 102 t184.5 37zM534 -20l-151 151q29 29 67.5 46t83.5 17t83.5 -16.5t67.5 -45.5z" />
<glyph d="M592 206q26 -44 63 -63.5t83 -19.5q32 0 59.5 11t45.5 31q-24 -56 -63 -102t-89 -79t-109 -51.5t-123 -18.5q-87 0 -163 33t-133 90t-90 133t-33 163t33 163t90 133t133 90t162 33q87 0 163.5 -33.5t133.5 -90t90 -132t33 -159.5q0 -23 -6 -45t-19.5 -39t-34.5 -27.5 t-52 -10.5q-45 0 -75 29t-30 89v202h-111v-48q-25 29 -57 42.5t-69 13.5q-45 0 -81 -16t-60.5 -44t-38 -66.5t-13.5 -83.5t13.5 -83t39 -66.5t63.5 -44.5t86 -16t89.5 19.5t69.5 63.5zM550 333q0 -48 -25 -80.5t-74 -32.5q-26 0 -45.5 9t-32 24.5t-18.5 36t-6 43.5t6 44 t18.5 36.5t32 24.5t45.5 9q49 0 74 -33t25 -81z" />
<glyph horiz-adv-x="1288" d="M316 713q41 0 81.5 -8t77.5 -24.5t69.5 -42.5t58.5 -62l-113 -69q-32 43 -78 63.5t-99 20.5q-48 0 -80 -18t-32 -58q0 -22 12 -36.5t32 -24t46.5 -15.5t56.5 -12q54 -11 102.5 -25t85 -37.5t58 -59.5t21.5 -90q0 -49 -19 -91t-55.5 -72.5t-90 -47.5t-121.5 -17 q-111 0 -191.5 44.5t-122.5 122.5l118 65q35 -60 89 -85t114 -25q61 0 97 23.5t36 65.5q0 25 -14 40.5t-37 25t-52 15.5t-59 12q-48 9 -93.5 23t-81.5 38t-58 60.5t-22 90.5q0 49 19.5 88t54.5 66t83.5 41.5t106.5 14.5zM960 713q41 0 81.5 -8t77.5 -24.5t69.5 -42.5 t58.5 -62l-113 -69q-32 43 -78 63.5t-99 20.5q-48 0 -80 -18t-32 -58q0 -22 12 -36.5t32 -24t46.5 -15.5t56.5 -12q54 -11 102.5 -25t85 -37.5t58 -59.5t21.5 -90q0 -49 -19 -91t-55.5 -72.5t-90 -47.5t-121.5 -17q-111 0 -191.5 44.5t-122.5 122.5l118 65q35 -60 89 -85 t114 -25q61 0 97 23.5t36 65.5q0 25 -14 40.5t-37 25t-52 15.5t-59 12q-48 9 -93.5 23t-81.5 38t-58 60.5t-22 90.5q0 49 19.5 88t54.5 66t83.5 41.5t106.5 14.5z" />
</font>
</defs>
</svg>
