<?xml version="1.0" encoding="UTF-8"?>
<svg width="393px" height="224px" viewBox="0 0 393 224" version="1.1" xmlns="http://www.w3.org/2000/svg" xmlns:xlink="http://www.w3.org/1999/xlink">
    <!-- Generator: Sketch 49.2 (51160) - http://www.bohemiancoding.com/sketch -->
    <title>illustration-extra-cover</title>
    <desc>Created with Sketch.</desc>
    <defs></defs>
    <g id="illustration-extra-cover" stroke="none" stroke-width="1" fill="none" fill-rule="evenodd">
        <g id="startrack-cover_rgb-copy" transform="translate(1.000000, 0.000000)">
            <path d="M112.075793,194.526316 C115.865458,194.496416 119.653498,194.43819 123.438286,194.321737 C133.997649,193.997559 140.850261,185.921426 141.424158,173.876468 C141.949281,162.838666 138.839186,153.582271 129.188627,147.493698 C123.043224,143.616146 111.067817,135.094661 105.039469,131.010958 C101.973271,128.933698 98.66971,129.352298 97.0845862,131.870188 C95.4848304,134.411684 96.3318556,137.705399 99.2110907,139.965205 C101.480663,141.745039 109.894012,147.635329 112.181468,149.38841 C112.147327,149.489126 112.11156,149.591415 112.075793,149.692131 L112.075793,194.526316" id="Fill-1" fill="#EABD9B"></path>
            <polygon id="Fill-4" fill="#009FDA" points="137.55 200.421053 393 200.421053 393 139.508772 137.55 139.508772"></polygon>
            <path d="M152.288244,188.631579 C150.660908,188.631579 149.34,189.950941 149.34,191.579691 C149.34,193.206954 150.660908,194.526316 152.288244,194.526316 C153.915579,194.526316 155.235,193.206954 155.235,191.579691 C155.235,189.950941 153.915579,188.631579 152.288244,188.631579" id="Fill-5" fill="#182E46"></path>
            <path d="M108.074212,43.2280702 C106.988934,43.2280702 106.11,42.3235002 106.11,41.2049459 L106.11,2.02312426 C106.11,0.906191076 106.988934,0 108.074212,0 C109.161066,0 110.04,0.906191076 110.04,2.02312426 L110.04,41.2049459 C110.04,42.3235002 109.161066,43.2280702 108.074212,43.2280702" id="Fill-7" fill="#7A858A"></path>
            <path d="M109.058386,159.157895 C107.430041,159.157895 106.11,157.98928 106.11,156.547727 L106.11,39.9435011 C106.11,38.5035167 107.430041,37.3333333 109.058386,37.3333333 C110.684959,37.3333333 112.005,38.5035167 112.005,39.9435011 L112.005,156.547727 C112.005,157.98928 110.684959,159.157895 109.058386,159.157895" id="Fill-8" fill="#7A858A"></path>
            <polygon id="Fill-9" fill="#0C040B" points="110.04 125.754386 112.005 125.754386 112.005 119.859649 110.04 119.859649"></polygon>
            <path d="M113.728686,11.7894737 C134.868554,13.2433185 215.8915,24.3857014 216.15,109.786997 C209.329102,103.966782 200.54329,100.444996 190.939161,100.444996 C181.236707,100.444996 172.363671,104.034478 165.512641,109.964295 C164.759345,110.618686 164.020322,111.290807 163.317774,112 C162.61364,111.290807 161.876203,110.618686 161.121321,109.964295 C154.270291,104.034478 145.398841,100.444996 135.694801,100.444996 C125.992347,100.444996 117.119311,104.034478 110.268281,109.964295 C109.514985,110.617074 108.777548,111.289196 108.075,112 L108.075,11.7894737 L113.728686,11.7894737 Z" id="Fill-10" fill="#00AEA5"></path>
            <path d="M108.075,11.7894737 L102.419811,11.7894737 C81.2818391,13.2433185 0.260081586,24.3857014 0,109.786997 C6.82238404,103.966782 15.606481,100.444996 25.2104693,100.444996 C34.914367,100.444996 43.7856865,104.034478 50.6366161,109.964295 C51.391487,110.618686 52.1289135,111.290807 52.8314509,112 C53.5371601,111.290807 54.2745866,110.618686 55.0294575,109.964295 C61.8788012,104.034478 70.7501207,100.444996 80.4540184,100.444996 C90.1579161,100.444996 99.0292356,104.034478 105.880165,109.964295 C106.63345,110.617074 107.370877,111.289196 108.075,112 L108.075,11.7894737" id="Fill-11" fill="#007A74"></path>
            <path d="M164.206576,108.420189 C168.32709,89.7103989 158.765041,11.7910855 108.075,11.7894737 L108.075,112 C108.774086,111.290807 109.504663,110.618686 110.255708,109.964295 C117.056052,104.034478 125.865482,100.444996 135.498384,100.444996 C145.132862,100.444996 153.942291,104.034478 160.742635,109.964295 C161.358272,110.499413 162.888704,111.96454 162.923343,112 C163.622429,111.290807 164.206576,108.420189 164.206576,108.420189" id="Fill-12" fill="#007A74"></path>
            <path d="M51.9428611,108.420189 C47.8239956,89.7103989 57.3858727,11.7910855 108.075,11.7894737 L108.075,112 C107.375926,111.290807 106.643789,110.618686 105.894332,109.964295 C99.0925352,104.034478 90.2848388,100.444996 80.6521097,100.444996 C71.0162316,100.444996 62.2085352,104.034478 55.4083134,109.964295 C54.7926878,110.499413 54.2006796,111.061932 53.6181184,111.634121 C53.6181184,111.634121 53.2622836,111.96454 53.2260704,112 C52.5269969,111.290807 51.9428611,108.420189 51.9428611,108.420189" id="Fill-13" fill="#00AEA5"></path>
            <path d="M109.058247,208.280702 C107.430958,208.280702 106.11,206.889968 106.11,205.174782 L106.11,158.33399 C106.11,156.618804 107.430958,155.22807 109.058247,155.22807 C110.685536,155.22807 112.005,156.618804 112.005,158.33399 L112.005,205.174782 C112.005,206.889968 110.685536,208.280702 109.058247,208.280702" id="Fill-14" fill="#0C040B"></path>
            <path d="M124.779039,224 C114.485515,224 106.11,215.660377 106.11,205.410611 C106.11,203.739621 107.470771,202.385965 109.147105,202.385965 C110.82344,202.385965 112.182672,203.739621 112.182672,205.410611 C112.182672,212.32606 117.833566,217.953773 124.779039,217.953773 C131.722974,217.953773 137.373868,212.32606 137.373868,205.410611 C137.373868,203.739621 138.733099,202.385965 140.409434,202.385965 C142.085768,202.385965 143.445,203.739621 143.445,205.410611 C143.445,215.660377 135.071025,224 124.779039,224" id="Fill-15" fill="#0C040B"></path>
            <polygon id="Fill-16" fill="#EABD9B" points="98.25 194.526316 115.935 194.526316 115.935 182.736842 98.25 182.736842"></polygon>
            <path d="M97.2667684,194.526316 C99.9794341,194.526316 102.18,191.88723 102.18,188.631579 C102.18,185.375928 99.9794341,182.736842 97.2667684,182.736842 C94.5541028,182.736842 92.355,185.375928 92.355,188.631579 C92.355,191.88723 94.5541028,194.526316 97.2667684,194.526316" id="Fill-17" fill="#EABD9B"></path>
            <path d="M114.9525,194.526316 C117.66557,194.526316 119.865,191.88723 119.865,188.631579 C119.865,185.375928 117.66557,182.736842 114.9525,182.736842 C112.23943,182.736842 110.04,185.375928 110.04,188.631579 C110.04,191.88723 112.23943,194.526316 114.9525,194.526316" id="Fill-18" fill="#EABD9B"></path>
            <polygon id="Fill-19" fill="#EABD9B" points="96.285 182.736842 115.935 182.736842 115.935 170.947368 96.285 170.947368"></polygon>
            <path d="M95.3032316,182.736842 C98.0158972,182.736842 100.215,180.097756 100.215,176.842105 C100.215,173.586454 98.0158972,170.947368 95.3032316,170.947368 C92.5891028,170.947368 90.39,173.586454 90.39,176.842105 C90.39,180.097756 92.5891028,182.736842 95.3032316,182.736842" id="Fill-20" fill="#EABD9B"></path>
            <path d="M114.953232,182.736842 C117.665897,182.736842 119.865,180.097756 119.865,176.842105 C119.865,173.586454 117.665897,170.947368 114.953232,170.947368 C112.240566,170.947368 110.04,173.586454 110.04,176.842105 C110.04,180.097756 112.240566,182.736842 114.953232,182.736842" id="Fill-21" fill="#EABD9B"></path>
            <polygon id="Fill-22" fill="#EABD9B" points="92.355 170.947368 113.97 170.947368 113.97 159.157895 92.355 159.157895"></polygon>
            <path d="M91.3732316,170.947368 C94.0858972,170.947368 96.285,168.308283 96.285,165.052632 C96.285,161.796981 94.0858972,159.157895 91.3732316,159.157895 C88.6591028,159.157895 86.46,161.796981 86.46,165.052632 C86.46,168.308283 88.6591028,170.947368 91.3732316,170.947368" id="Fill-23" fill="#EABD9B"></path>
            <path d="M114.953232,170.947368 C117.665897,170.947368 119.865,168.308283 119.865,165.052632 C119.865,161.796981 117.665897,159.157895 114.953232,159.157895 C112.240566,159.157895 110.04,161.796981 110.04,165.052632 C110.04,168.308283 112.240566,170.947368 114.953232,170.947368" id="Fill-24" fill="#EABD9B"></path>
            <polygon id="Fill-25" fill="#EABD9B" points="96.285 159.157895 115.935 159.157895 115.935 147.368421 96.285 147.368421"></polygon>
            <path d="M95.3032316,159.157895 C98.0158972,159.157895 100.215,156.518809 100.215,153.263158 C100.215,150.007507 98.0158972,147.368421 95.3032316,147.368421 C92.5891028,147.368421 90.39,150.007507 90.39,153.263158 C90.39,156.518809 92.5891028,159.157895 95.3032316,159.157895" id="Fill-26" fill="#EABD9B"></path>
            <path d="M114.953232,159.157895 C117.665897,159.157895 119.865,156.518809 119.865,153.263158 C119.865,150.007507 117.665897,147.368421 114.953232,147.368421 C112.240566,147.368421 110.04,150.007507 110.04,153.263158 C110.04,156.518809 112.240566,159.157895 114.953232,159.157895" id="Fill-27" fill="#EABD9B"></path>
        </g>
    </g>
</svg>