<?xml version="1.0" encoding="UTF-8"?>
<svg width="393px" height="224px" viewBox="0 0 393 224" version="1.1" xmlns="http://www.w3.org/2000/svg" xmlns:xlink="http://www.w3.org/1999/xlink">
    <!-- Generator: Sketch 49.2 (51160) - http://www.bohemiancoding.com/sketch -->
    <title>illustration-safe-drop</title>
    <desc>Created with Sketch.</desc>
    <defs></defs>
    <g id="illustration-safe-drop" stroke="none" stroke-width="1" fill="none" fill-rule="evenodd">
        <g id="Group" fill-rule="nonzero">
            <path d="M217.86848,93.8863453 L217.86848,216.942027 C217.86848,220.340997 215.11217,223.096407 211.707765,223.096407 L19.4575619,223.096407 C16.055093,223.096407 13.2968471,220.342455 13.2968471,216.942027 L13.2968471,94.2007591 L5.30746525,94.2130382 C-0.6465393,94.2221892 -1.68716639,91.2361913 2.9801639,87.5459936 L111.459725,1.77725779 C114.127005,-0.331611853 118.455359,-0.336026732 121.125744,1.76611488 L229.641763,87.1904973 C234.31759,90.8713321 233.283559,93.8626532 227.327416,93.8718074 L217.86848,93.8863453 Z" id="path-3" fill="#FAD477"></path>
            <path d="M106.077544,128.686406 L71.3497408,128.686406 C64.1897859,128.686406 58.3647378,134.511455 58.3647378,141.671411 C58.3647378,148.831367 64.1897859,154.657861 71.3497408,154.657861 L110.830621,154.657861 L110.830621,134.031813 C110.830621,131.270983 108.753137,128.997018 106.077544,128.686406 M41.588831,128.650288 L25.6739677,128.650288 L25.6739677,217.714882 C25.6739677,220.686639 28.0822898,223.096407 31.0540467,223.096407 L105.450542,223.096407 C108.422299,223.096407 110.830621,220.686639 110.830621,217.714882 L110.830621,174.157038 L71.3497408,174.157038 C53.4368513,174.157038 38.8641185,159.584303 38.8641185,141.671411 C38.8641185,137.044022 39.8378493,132.639118 41.588831,128.650288" id="Fill-4" fill="#8A939D"></path>
            <path d="M123.335269,174.157038 L110.816145,174.157038 L110.816145,217.714882 C110.816145,220.686639 108.408233,223.096407 105.436981,223.096407 L117.95466,223.096407 C120.925912,223.096407 123.335269,220.686639 123.335269,217.714882 L123.335269,174.157038 Z M41.5861256,128.650288 L25.6739677,128.650288 L41.5861256,128.650288 Z M115.71575,128.68638 L106.063876,128.686406 C108.739014,128.997018 110.816145,131.270983 110.816145,134.031813 L110.816145,154.639176 L71.4313064,154.639176 C64.2676512,154.639176 58.4395927,148.816868 58.4395927,141.662056 C58.4395927,134.507244 64.2676512,128.68638 71.4313064,128.68638 L115.71575,128.68638 Z M123.335269,154.639176 L123.335269,134.031813 C123.335269,131.276761 121.26536,129.004241 118.596,128.687851 L115.717194,128.687851 L115.717194,128.68638 L115.835562,128.68638 L115.835562,128.650288 L41.6550154,128.650288 C39.9031288,132.636252 38.9288946,137.037992 38.9288946,141.662056 C38.9288946,159.562079 53.5091591,174.124345 71.4313064,174.124345 L123.460316,174.124345 L123.460316,154.639176 L123.335269,154.639176 Z" id="Combined-Shape" fill="#382F2D" opacity="0.2"></path>
            <path d="M118.06782,128.650288 L115.832481,128.650288 L115.832481,128.712538 L118.70855,128.712538 C118.497859,128.671836 118.284283,128.650288 118.06782,128.650288" id="Fill-6" fill="#8A939D"></path>
            <path d="M105.451457,128.650288 L13.1693195,128.650288 L13.1693195,217.714882 C13.1693195,220.686639 15.5786768,223.096407 18.5499285,223.096407 L105.451457,223.096407 C108.422709,223.096407 110.830621,220.686639 110.830621,217.714882 L110.830621,134.031813 C110.830621,131.060056 108.422709,128.650288 105.451457,128.650288" id="Fill-8" fill="#CA8768"></path>
            <polyline id="Fill-7" fill="#FFFFFF" transform="translate(46.514943, 198.946448) rotate(10.000000) translate(-46.514943, -198.946448) " points="72.7693323 211.037019 26.0523694 219.121529 20.2605535 186.8604 66.9729085 178.771367 72.7693323 211.037019"></polyline>
            <polyline id="Fill-8" fill="#D0D5D8" transform="translate(46.484527, 189.606363) rotate(10.000000) translate(-46.484527, -189.606363) " points="66.7420599 188.753577 27.1485239 195.607539 26.2269939 190.463674 65.8205299 183.605187 66.7420599 188.753577"></polyline>
            <polyline id="Fill-9" fill="#D0D5D8" transform="translate(46.514972, 199.238163) rotate(10.000000) translate(-46.514972, -199.238163) " points="66.7748083 198.383114 27.1812724 205.237077 26.2551348 200.093212 65.8486707 193.239249 66.7748083 198.383114"></polyline>
            <polyline id="Fill-10" fill="#D0D5D8" transform="translate(46.545023, 208.872190) rotate(10.000000) translate(-46.545023, -208.872190) " points="66.8025564 208.017142 27.2090206 214.871104 26.2874906 209.727239 65.8810266 202.873276 66.8025564 208.017142"></polyline>
            <ellipse id="Oval" fill="#00AC3E" cx="217.995456" cy="138.473632" rx="33.881015" ry="33.8491099"></ellipse>
            <rect id="Rectangle-3" fill="#535F67" x="213.375317" y="161.55257" width="9.24027682" height="61.5438362"></rect>
            <ellipse id="Oval" fill="#00AC3E" cx="172.564095" cy="166.937656" rx="26.9508073" ry="26.9254284"></ellipse>
            <rect id="Rectangle-3" fill="#535F67" x="168.713979" y="183.092913" width="9.24027682" height="40.0034936"></rect>
            <polygon id="Combined-Shape" fill="#009FDA" points="69.9290281 61.5438362 69.9290281 93.7274598 78.7991143 84.8680161 90.1543855 96.2096627 71.4967172 114.870921 60.1154385 126.212567 48.7731714 114.857933 30.1024993 96.2096627 41.4592151 84.8680161 50.427553 93.8270366 50.427553 61.5438362"></polygon>
        </g>
    </g>
</svg>