<?xml version="1.0" encoding="UTF-8"?>
<svg width="393px" height="224px" viewBox="0 0 393 224" version="1.1" xmlns="http://www.w3.org/2000/svg" xmlns:xlink="http://www.w3.org/1999/xlink">
    <!-- Generator: Sketch 49.2 (51160) - http://www.bohemiancoding.com/sketch -->
    <title>illustration-mypost</title>
    <desc>Created with Sketch.</desc>
    <defs>
        <path d="M0.19484139,25.382183 C-0.117084054,24.610026 0.255019363,23.7315273 1.02502106,23.4203796 L58.3985662,0.236447222 C59.1689859,-0.07486992 60.0462672,0.298386311 60.3583244,1.07087115 L63.6351192,9.1824539 C63.9470446,9.95461074 63.5749393,10.8331095 62.8049395,11.1442574 L5.43139435,34.3281895 C4.66097284,34.6395069 3.78369336,34.2662506 3.47163613,33.4937656 L0.19484139,25.382183 Z" id="path-1"></path>
        <path d="M4.17942104,0.604128341 C6.31917288,-0.260518296 8.75715076,0.0834316037 10.5772116,1.50816302 C12.3972724,2.93289424 13.3204073,5.21808051 13.0007163,7.50745856 C12.6810272,9.79683717 11.1661824,11.7380735 9.02643241,12.6027185 C6.88668057,13.4673653 4.44870081,13.1234162 2.62864186,11.6986844 C0.808581037,10.2739526 -0.114553891,7.98876707 0.205135238,5.69938921 C0.524826249,3.41001116 2.03967108,1.46877498 4.17942104,0.604128341 L4.50989913,1.42221405 C2.66143798,2.16915429 1.3533135,3.8460483 1.07818084,5.82241653 C0.803048187,7.798784 1.60060118,9.77309823 3.17120749,11.0036256 C4.74181381,12.2341549 6.84749128,12.5315732 8.69595432,11.7846345 C10.5444155,11.0376938 11.85254,9.36079984 12.1276726,7.38443142 C12.4028053,5.40806282 11.6052523,3.43374916 10.0346441,2.20322121 C8.46403776,0.972693269 6.35836029,0.675273801 4.50989913,1.42221405 L4.17942104,0.604128341 Z" id="path-3"></path>
        <path d="M4.17853435,0.577499042 C6.31828619,-0.287147595 8.75626407,0.0568024931 10.5763249,1.48153372 C12.3963857,2.90626513 13.3195207,5.1914514 12.9998296,7.48082926 C12.6801405,9.77020731 11.1652957,11.7114435 9.02554573,12.5760901 C6.88579389,13.4407368 4.44781601,13.0967869 2.62775518,11.6720554 C0.80769435,10.247324 -0.115440577,7.96213796 0.204250434,5.67275991 C0.523939563,3.38338186 2.0387844,1.44214568 4.17853435,0.577499042 L4.50901245,1.39558493 C2.66055129,2.14252518 1.35242681,3.81941919 1.07729415,5.79578741 C0.802161501,7.77215564 1.59971449,9.74646912 3.17032081,10.9769971 C4.74092713,12.2075252 6.8466046,12.5049447 8.69506763,11.7580044 C10.5435288,11.0110642 11.8516533,9.33417016 12.1267859,7.35780194 C12.4019186,5.38143371 11.6043656,3.40712004 10.0337593,2.1765921 C8.46315295,0.946064159 6.35747548,0.648644502 4.50901245,1.39558493 L4.17853435,0.577499042 Z" id="path-5"></path>
        <path d="M4.17764767,0.550869932 C6.31739951,-0.313776705 8.75537927,0.0301731942 10.5754382,1.45490461 C12.395499,2.87963583 13.318634,5.1648221 12.9989448,7.45420015 C12.6792538,9.7435782 11.164409,11.6848144 9.02465904,12.549461 C6.8849072,13.4141076 4.44692932,13.0701576 2.62686849,11.6454263 C0.806807663,10.2206949 -0.116327264,7.93550866 0.203363747,5.6461308 C0.523052876,3.35675275 2.03789771,1.41551657 4.17764767,0.550869932 L4.50812576,1.36895564 C2.6596646,2.11589588 1.35154012,3.79278989 1.07640747,5.76915812 C0.801274814,7.74552634 1.5988278,9.71984001 3.169436,10.950368 C4.74004232,12.1808959 6.84571979,12.4783156 8.69418095,11.7313751 C10.5426421,10.9844349 11.8507666,9.30754087 12.1258992,7.33117264 C12.4010319,5.35480441 11.6034789,3.38049093 10.0328726,2.1499628 C8.46226627,0.91943486 6.3565888,0.622015391 4.50812576,1.36895564 L4.17764767,0.550869932 Z" id="path-7"></path>
    </defs>
    <g id="illustration-mypost" stroke="none" stroke-width="1" fill="none" fill-rule="evenodd">
        <g id="be-in-control-of-your-deliveries-while-on-the-go">
            <path d="M162.521085,159.331976 C160.886146,170.099099 152.751905,178.987184 142.963888,178.987184 L113.700324,178.987184 L69.1599413,200.188576 C63.8687093,202.318822 57.7769141,199.571341 55.5366862,194.046163 C53.2808085,188.482391 55.6606228,182.074843 60.9686848,179.93782 L92.9739387,163.783062 C92.9465738,163.701201 54.8848209,178.998513 54.8848209,178.998513 C49.6546498,181.126129 43.3194526,179.431395 40.7151409,172.941293 C38.0938825,166.408968 41.0261195,160.103914 46.2729286,157.96953 L91.6094013,139.526805 L91.6094013,135.253479 L39.2054506,156.383574 C33.9830827,158.489314 27.6573416,154.99972 25.0569137,148.57635 C22.439569,142.11119 24.4594657,134.964822 29.6984434,132.852383 L91.6094013,107.888915 L91.6094013,104.579553 C91.6094013,103.854709 91.639336,103.138654 91.6978836,102.432814 C90.9584435,103.087811 90.1092518,103.61663 89.1600773,103.988594 L20.8894789,131.780099 C15.5992164,133.853257 9.20527573,130.269031 6.59210664,123.761781 C3.96160857,117.21421 6.02635726,110.022849 11.3363038,107.942832 L79.58722,80.1581856 C84.8952482,78.0793606 91.3910524,81.9148834 94.0215505,88.4624541 C94.4993673,89.6523045 94.8167842,90.8568152 94.9841401,92.0435172 C98.5468546,86.0946594 104.59199,82.2302434 111.466037,82.2302434 L142.963888,82.2302434 C153.930152,82.2302434 162.820524,92.1027642 162.820524,104.579553 L162.820524,138.118571 L162.521085,159.331976 Z" id="Combined-Shape" fill="#FAAE7A" fill-rule="nonzero"></path>
            <polygon id="Fill-10" fill="#FAAE7A" fill-rule="nonzero" points="144.358373 83.9894604 144.358373 170.191097 400.513069 170.191097 400.513069 83.9894604"></polygon>
            <path d="M132.116037,83.9894604 C137.881453,83.9894604 142.600073,88.9501202 142.600073,95.0341266 C142.600073,101.155893 137.899857,105.979674 132.116037,105.979674 L106.489159,105.979674 C100.684634,105.979674 96.0051231,101.155893 96.0051231,95.0341266 C96.0051231,88.9501202 100.684634,83.9894604 106.489159,83.9894604 L132.116037,83.9894604 Z" id="Fill-13" fill="#C87D5A" fill-rule="nonzero"></path>
            <path d="M131.306438,108.6185 C137.041819,108.6185 141.720925,113.547057 141.720925,119.61243 C141.720925,125.698986 137.041819,130.608713 131.324689,130.608713 L95.8515569,130.608713 C90.0956428,130.608713 85.4553216,125.698986 85.4553216,119.61243 C85.4553216,113.525874 90.0956428,108.6185 95.8515569,108.6185 L131.306438,108.6185 Z" id="Fill-14" fill="#C87D5A" fill-rule="nonzero"></path>
            <path d="M131.306438,129.729173 C137.041819,129.729173 141.720925,134.636532 141.720925,140.723069 C141.720925,146.790777 137.041819,151.719318 131.324689,151.719318 L95.8515569,151.719318 C90.0956428,151.719318 85.4553216,146.790777 85.4553216,140.723069 C85.4553216,134.636532 90.0956428,129.70799 95.8515569,129.729173 L131.306438,129.729173 Z" id="Fill-15" fill="#C87D5A" fill-rule="nonzero"></path>
            <path d="M71.1538529,218.130485 C72.7418466,222.044443 76.8975022,224.05349 80.4357509,222.615802 L171.571332,185.578987 C175.107412,184.142501 176.688461,179.802621 175.097099,175.887699 L105.745847,5.0218572 C104.155684,1.10910225 100.000029,-0.899945426 96.4617799,0.537742424 L5.32836732,37.5733556 C1.79011862,39.0110434 0.211238445,43.349722 1.8004313,47.2658457 L71.1538529,218.130485 Z" id="Fill-18" fill="#382F2D" fill-rule="nonzero"></path>
            <path d="M53.1915789,33.1818801 C52.6419762,31.8329454 53.2937587,30.2922034 54.6448281,29.7452444 C55.9941506,29.1951308 57.5316351,29.8479352 58.0812378,31.19687 C58.6276871,32.5475543 57.9773109,34.0833922 56.6279885,34.6335057 C55.276919,35.1804648 53.7411834,34.5308149 53.1915789,33.1818801 Z" id="Fill-20" fill="#535F67" fill-rule="nonzero"></path>
            <path d="M110.597263,194.824352 C108.360284,190.788126 109.647955,185.799985 113.470022,183.681057 C117.294095,181.561017 122.205998,183.112156 124.442977,187.148384 C126.679954,191.18461 125.392283,196.172749 121.568211,198.29279 C117.746143,200.411716 112.83424,198.860578 110.597263,194.824352 Z" id="Fill-21" fill="#8A939D" fill-rule="nonzero"></path>
            <path d="M163.178465,84.8690689 C165.181463,87.9659473 166.337125,91.716127 166.337125,95.8055651 L166.337125,129.729105 C147.655784,124.087789 133.88545,106.246928 132.929423,84.8690689 L163.178465,84.8690689 Z" id="Fill-17" fill="#FAAE7A" fill-rule="nonzero"></path>
            <polygon id="Fill-24" fill="#190B12" fill-rule="nonzero" transform="translate(204.140576, 124.891257) scale(-1, 1) rotate(90.000000) translate(-204.140576, -124.891257) " points="249.433546 138.080508 158.847605 138.080508 158.847605 111.702007 249.433546 111.702007"></polygon>
            <polygon id="Fill-25" fill="#382F2D" fill-rule="nonzero" transform="translate(204.140576, 135.446560) scale(-1, 1) rotate(90.000000) translate(-204.140576, -135.446560) " points="239.75932 148.63581 168.521831 148.63581 168.521831 122.25731 239.75932 122.25731"></polygon>
            <path d="M209.986544,130.862985 L198.285181,130.862985 C196.901232,130.862985 195.781835,129.766401 195.781835,128.408725 C195.781835,127.052983 196.901232,125.956399 198.285181,125.956399 L209.986544,125.956399 C211.37049,125.956399 212.491863,127.052983 212.491863,128.408725 C212.491863,129.766401 211.37049,130.862985 209.986544,130.862985" id="Fill-26" fill="#988A89" fill-rule="nonzero" transform="translate(204.136849, 128.409692) scale(-1, 1) rotate(90.000000) translate(-204.136849, -128.409692) "></path>
            <path d="M14.5628906,62.5814558 C14.0563817,61.3276096 14.6617722,59.9006137 15.9158276,59.3938656 L104.494374,23.6003823 C105.748091,23.093771 107.174756,23.6988277 107.681548,24.953371 L161.267883,157.60432 C161.774392,158.858166 161.169001,160.285162 159.914946,160.79191 L71.3363993,196.585394 C70.0826827,197.092004 68.6560171,196.486947 68.1492258,195.232404 L14.5628906,62.5814558 Z" id="Rectangle-15-Copy-6" fill="#F3F1EE" fill-rule="nonzero"></path>
            <g id="input_text" transform="translate(23.138935, 42.550670)">
                <g id="path-1-Clipped">
                    <mask id="mask-2" fill="white">
                        <use xlink:href="#path-1"></use>
                    </mask>
                    <g id="path-1"></g>
                    <path d="M0.19484139,25.382183 C-0.117084054,24.610026 0.255019363,23.7315273 1.02502106,23.4203796 L58.3985662,0.236447222 C59.1689859,-0.07486992 60.0462672,0.298386311 60.3583244,1.07087115 L63.6351192,9.1824539 C63.9470446,9.95461074 63.5749393,10.8331095 62.8049395,11.1442574 L5.43139435,34.3281895 C4.66097284,34.6395069 3.78369336,34.2662506 3.47163613,33.4937656 L0.19484139,25.382183 Z" id="path-1" stroke="#DFDDDB" stroke-width="8" mask="url(#mask-2)"></path>
                </g>
            </g>
            <path d="M86.2896448,42.6949006 C85.9390289,41.8269671 86.3584731,40.8390226 87.2264114,40.4882999 L103.139496,34.0580206 C104.007474,33.7072821 104.995135,34.1260537 105.345951,34.9944852 L108.482636,42.7592298 C108.833252,43.6271633 108.413808,44.615108 107.545869,44.9658307 L91.6327846,51.3961099 C90.7648069,51.7468484 89.7771453,51.3280769 89.4263299,50.4596454 L86.2896448,42.6949006 Z" id="btn_bg" fill="#DC1928" fill-rule="nonzero"></path>
            <path d="M30.1245763,84.7675188 C30.0076222,84.4780013 30.1470937,84.1486305 30.4370138,84.0314769 L111.058495,51.4533445 C111.348004,51.3363573 111.677296,51.4756944 111.794463,51.765738 L120.624317,73.6237037 C120.741271,73.9132213 120.601799,74.2425921 120.311877,74.3597457 L39.6903985,106.937878 C39.4008887,107.054865 39.0715966,106.915528 38.9544279,106.625484 L30.1245763,84.7675188 Z" id="Rectangle-280-Copy-2" fill="#FFFFFF" fill-rule="nonzero"></path>
            <path d="M47.1426176,97.684126 C50.4684248,96.3402083 52.0752309,92.5542383 50.7315166,89.2279251 C49.3878023,85.901612 45.6024071,84.294563 42.276598,85.6384807 C38.9507889,86.9823984 37.3439847,90.7683686 38.687699,94.0946818 C40.0314114,97.4209947 43.8168085,99.0280437 47.1426176,97.684126 Z" id="Oval" fill="#00AC3E" fill-rule="nonzero"></path>
            <path d="M52.6051495,82.4081092 C52.2935328,81.6367149 52.6656984,80.7589098 53.4379441,80.4468557 L104.81825,59.6847157 C105.589807,59.3729397 106.468423,59.7468476 106.779507,60.516928 L107.633913,62.6319768 C107.94553,63.4033711 107.573362,64.2811762 106.801119,64.5932303 L55.4208107,85.3553703 C54.6492559,85.6671463 53.7706398,85.2932384 53.459554,84.5231578 L52.6051495,82.4081092 Z" id="Rectangle-2" fill="#F3F1EE" fill-rule="nonzero"></path>
            <path d="M55.6210965,89.8739721 C55.3473193,89.1962476 55.6737649,88.4252475 56.3514477,88.1514043 L98.5455161,71.101309 C99.2226548,70.8276855 99.9940816,71.1566532 100.267302,71.8329986 C100.541077,72.5107229 100.214633,73.2817229 99.5369485,73.5555661 L57.3428819,90.6056616 C56.6657414,90.8792849 55.8943146,90.5503174 55.6210965,89.8739721 Z" id="Rectangle-2" fill="#F3F1EE" fill-rule="nonzero"></path>
            <path d="M57.053167,93.4190103 C56.7793898,92.7412858 57.1075184,91.9696055 57.7840095,91.6962441 L91.2656399,78.1667356 C91.9430516,77.8930026 92.7146967,78.2218814 92.9879167,78.8982267 C93.2616939,79.5759512 92.9335653,80.3476315 92.2570742,80.6209929 L58.7754438,94.1505014 C58.098034,94.4242345 57.3263869,94.0953556 57.053167,93.4190103 Z" id="Rectangle-2" fill="#F3F1EE" fill-rule="nonzero"></path>
            <path d="M52.6051495,82.4081092 C52.2935328,81.6367149 52.6656984,80.7589098 53.4379441,80.4468557 L104.81825,59.6847157 C105.589807,59.3729397 106.468423,59.7468476 106.779507,60.516928 L107.633913,62.6319768 C107.94553,63.4033711 107.573362,64.2811762 106.801119,64.5932303 L55.4208107,85.3553703 C54.6492559,85.6671463 53.7706398,85.2932384 53.459554,84.5231578 L52.6051495,82.4081092 Z" id="Rectangle-2" fill="#F3F1EE" fill-rule="nonzero"></path>
            <path d="M55.6210965,89.8739721 C55.3473193,89.1962476 55.6737649,88.4252475 56.3514477,88.1514043 L98.5455161,71.101309 C99.2226548,70.8276855 99.9940816,71.1566532 100.267302,71.8329986 C100.541077,72.5107229 100.214633,73.2817229 99.5369485,73.5555661 L57.3428819,90.6056616 C56.6657414,90.8792849 55.8943146,90.5503174 55.6210965,89.8739721 Z" id="Rectangle-2" fill="#F3F1EE" fill-rule="nonzero"></path>
            <path d="M57.053167,93.4190103 C56.7793898,92.7412858 57.1075184,91.9696055 57.7840095,91.6962441 L91.2656399,78.1667356 C91.9430516,77.8930026 92.7146967,78.2218814 92.9879167,78.8982267 C93.2616939,79.5759512 92.9335653,80.3476315 92.2570742,80.6209929 L58.7754438,94.1505014 C58.098034,94.4242345 57.3263869,94.0953556 57.053167,93.4190103 Z" id="Rectangle-2" fill="#F3F1EE" fill-rule="nonzero"></path>
            <path d="M61.1895056,161.66758 C61.0725514,161.378062 61.2120229,161.048691 61.501945,160.931538 L142.123426,128.353405 C142.412935,128.236418 142.742228,128.375755 142.859394,128.665799 L151.689246,150.523765 C151.806202,150.813282 151.666729,151.142653 151.376808,151.259807 L70.7553277,183.837939 C70.465818,183.954926 70.1365259,183.81559 70.019359,183.525545 L61.1895056,161.66758 Z" id="Rectangle-280-Copy-2" fill="#FFFFFF" fill-rule="nonzero"></path>
            <path d="M73.2535476,162.527047 C75.3932976,161.662401 77.8312773,162.006351 79.6513381,163.431082 C81.4713971,164.855813 82.3945339,167.141 82.0748429,169.430378 C81.7551519,171.719756 80.2403089,173.660991 78.1005571,174.525638 C75.9608053,175.390285 73.5228274,175.046335 71.7027665,173.621604 C69.8827057,172.196872 68.9595708,169.911686 69.2792618,167.622308 C69.5989528,165.33293 71.1137958,163.391694 73.2535476,162.527047 L73.5840257,163.345133 C71.7355627,164.092074 70.4274401,165.768968 70.1523055,167.745336 C69.8771729,169.721703 70.6747277,171.696017 72.2453341,172.926545 C73.8159404,174.157074 75.9216178,174.454492 77.770079,173.707552 C79.6185402,172.960613 80.9266646,171.283719 81.2017973,169.307351 C81.4769299,167.330982 80.679377,165.356668 79.1087706,164.12614 C77.5381643,162.895612 75.4324868,162.598193 73.5840257,163.345133 L73.2535476,162.527047 Z" id="Base-plate" fill-opacity="0.002" fill="#455A64" fill-rule="nonzero"></path>
            <g id="Segment-1" transform="translate(69.073445, 161.923194)">
                <g id="path-3-Clipped">
                    <mask id="mask-4" fill="white">
                        <use xlink:href="#path-3"></use>
                    </mask>
                    <g id="path-3"></g>
                    <path d="M4.17942104,0.604128341 C6.31917288,-0.260518296 8.75715076,0.0834316037 10.5772116,1.50816302 C12.3972724,2.93289424 13.3204073,5.21808051 13.0007163,7.50745856 C12.6810272,9.79683717 11.1661824,11.7380735 9.02643241,12.6027185 C6.88668057,13.4673653 4.44870081,13.1234162 2.62864186,11.6986844 C0.808581037,10.2739526 -0.114553891,7.98876707 0.205135238,5.69938921 C0.524826249,3.41001116 2.03967108,1.46877498 4.17942104,0.604128341 L4.50989913,1.42221405 C2.66143798,2.16915429 1.3533135,3.8460483 1.07818084,5.82241653 C0.803048187,7.798784 1.60060118,9.77309823 3.17120749,11.0036256 C4.74181381,12.2341549 6.84749128,12.5315732 8.69595432,11.7846345 C10.5444155,11.0376938 11.85254,9.36079984 12.1276726,7.38443142 C12.4028053,5.40806282 11.6052523,3.43374916 10.0346441,2.20322121 C8.46403776,0.972693269 6.35836029,0.675273801 4.50989913,1.42221405 L4.17942104,0.604128341 Z" id="path-3" stroke="#FFFFFF" stroke-width="0.5" fill="#00AC3E" fill-rule="nonzero" mask="url(#mask-4)"></path>
                </g>
            </g>
            <path d="M77.9241686,174.414226 C81.2499777,173.070308 82.8567819,169.284337 81.5130695,165.958024 C80.1693552,162.631711 76.3839581,161.024662 73.058149,162.36858 C69.7323417,163.712497 68.1255356,167.498468 69.4692499,170.824781 C70.8129643,174.151094 74.5983594,175.758142 77.9241686,174.414226 Z" id="Oval" fill="#5044DE" fill-rule="nonzero"></path>
            <path d="M83.6700788,159.30817 C83.3584621,158.536776 83.7306295,157.658971 84.5028733,157.346917 L135.883181,136.584777 C136.654738,136.273001 137.533352,136.646909 137.844438,137.416989 L138.698844,139.532038 C139.010459,140.303432 138.638293,141.181237 137.86605,141.493291 L86.4857419,162.255431 C85.7141852,162.567207 84.8355691,162.193299 84.5244851,161.423219 L83.6700788,159.30817 Z" id="Rectangle-2" fill="#F3F1EE" fill-rule="nonzero"></path>
            <path d="M86.6860257,166.774033 C86.4122485,166.096308 86.7386942,165.325309 87.4163769,165.051465 L129.610445,148.00137 C130.287584,147.727746 131.059011,148.056714 131.332231,148.733059 C131.606008,149.410784 131.279562,150.181784 130.60188,150.455627 L88.4078112,167.505723 C87.7306725,167.779346 86.9592457,167.450378 86.6860257,166.774033 Z" id="Rectangle-2" fill="#F3F1EE" fill-rule="nonzero"></path>
            <path d="M88.1180962,170.31907 C87.8443209,169.641347 88.1724495,168.869666 88.8489406,168.596305 L122.330571,155.066797 C123.007981,154.793064 123.779628,155.121942 124.052848,155.798288 C124.326625,156.476012 123.998494,157.247693 123.322005,157.521054 L89.840373,171.050562 C89.1629632,171.324296 88.3913162,170.995417 88.1180962,170.31907 Z" id="Rectangle-2" fill="#F3F1EE" fill-rule="nonzero"></path>
            <path d="M83.6700788,159.30817 C83.3584621,158.536776 83.7306295,157.658971 84.5028733,157.346917 L135.883181,136.584777 C136.654738,136.273001 137.533352,136.646909 137.844438,137.416989 L138.698844,139.532038 C139.010459,140.303432 138.638293,141.181237 137.86605,141.493291 L86.4857419,162.255431 C85.7141852,162.567207 84.8355691,162.193299 84.5244851,161.423219 L83.6700788,159.30817 Z" id="Rectangle-2" fill="#F3F1EE" fill-rule="nonzero"></path>
            <path d="M86.6860257,166.774033 C86.4122485,166.096308 86.7386942,165.325309 87.4163769,165.051465 L129.610445,148.00137 C130.287584,147.727746 131.059011,148.056714 131.332231,148.733059 C131.606008,149.410784 131.279562,150.181784 130.60188,150.455627 L88.4078112,167.505723 C87.7306725,167.779346 86.9592457,167.450378 86.6860257,166.774033 Z" id="Rectangle-2" fill="#F3F1EE" fill-rule="nonzero"></path>
            <path d="M88.1180962,170.31907 C87.8443209,169.641347 88.1724495,168.869666 88.8489406,168.596305 L122.330571,155.066797 C123.007981,154.793064 123.779628,155.121942 124.052848,155.798288 C124.326625,156.476012 123.998494,157.247693 123.322005,157.521054 L89.840373,171.050562 C89.1629632,171.324296 88.3913162,170.995417 88.1180962,170.31907 Z" id="Rectangle-2" fill="#F3F1EE" fill-rule="nonzero"></path>
            <path d="M50.8345304,136.034226 C50.7175744,135.744709 50.8570459,135.415338 51.1469679,135.298184 L131.768449,102.720052 C132.057958,102.603064 132.38725,102.742402 132.504417,103.032445 L141.334269,124.890411 C141.451225,125.179928 141.311753,125.509299 141.021831,125.626453 L60.4003507,158.204585 C60.1108409,158.321573 59.7815488,158.182235 59.664382,157.892192 L50.8345304,136.034226 Z" id="Rectangle-280-Copy-2" fill="#FFFFFF" fill-rule="nonzero"></path>
            <path d="M62.8985706,136.893694 C65.0383205,136.029047 67.4763003,136.372997 69.2963611,137.797728 C71.1164219,139.22246 72.0395569,141.507646 71.7198659,143.797024 C71.4001748,146.086402 69.8853319,148.027638 67.74558,148.892285 C65.6058301,149.756932 63.1678503,149.412981 61.3477895,147.98825 C59.5277287,146.563519 58.6045937,144.278333 58.9242848,141.988954 C59.2439758,139.699577 60.7588187,137.75834 62.8985706,136.893694 L63.2290487,137.71178 C61.3805856,138.45872 60.072463,140.135614 59.7973304,142.111982 C59.5221958,144.08835 60.3197507,146.062664 61.890357,147.293192 C63.4609633,148.52372 65.5666408,148.821139 67.415102,148.074199 C69.263565,147.327259 70.5716876,145.650365 70.8468202,143.673997 C71.1219548,141.697628 70.3243999,139.723315 68.7537936,138.492787 C67.1831873,137.262259 65.0775098,136.964839 63.2290487,137.71178 L62.8985706,136.893694 Z" id="Base-plate" fill-opacity="0.002" fill="#455A64" fill-rule="nonzero"></path>
            <g id="Segment-1" transform="translate(58.719355, 136.316470)">
                <g id="path-5-Clipped">
                    <mask id="mask-6" fill="white">
                        <use xlink:href="#path-5"></use>
                    </mask>
                    <g id="path-5"></g>
                    <path d="M4.17853435,0.577499042 C6.31828619,-0.287147595 8.75626407,0.0568024931 10.5763249,1.48153372 C12.3963857,2.90626513 13.3195207,5.1914514 12.9998296,7.48082926 C12.6801405,9.77020731 11.1652957,11.7114435 9.02554573,12.5760901 C6.88579389,13.4407368 4.44781601,13.0967869 2.62775518,11.6720554 C0.80769435,10.247324 -0.115440577,7.96213796 0.204250434,5.67275991 C0.523939563,3.38338186 2.0387844,1.44214568 4.17853435,0.577499042 L4.50901245,1.39558493 C2.66055129,2.14252518 1.35242681,3.81941919 1.07729415,5.79578741 C0.802161501,7.77215564 1.59971449,9.74646912 3.17032081,10.9769971 C4.74092713,12.2075252 6.8466046,12.5049447 8.69506763,11.7580044 C10.5435288,11.0110642 11.8516533,9.33417016 12.1267859,7.35780194 C12.4019186,5.38143371 11.6043656,3.40712004 10.0337593,2.1765921 C8.46315295,0.946064159 6.35747548,0.648644502 4.50901245,1.39558493 L4.17853435,0.577499042 Z" id="path-5" stroke="#FFFFFF" stroke-width="0.5" fill="#00AC3E" fill-rule="nonzero" mask="url(#mask-6)"></path>
                </g>
            </g>
            <path d="M57.4042441,123.389061 C60.7300532,122.045143 62.3368574,118.259173 60.993145,114.93286 C59.6494307,111.606547 55.8640336,109.999498 52.5382245,111.343415 C49.2124172,112.687333 47.6056111,116.473303 48.9493254,119.799616 C50.2930397,123.12593 54.0784349,124.732978 57.4042441,123.389061 Z" id="Oval" fill="#00AC3E" fill-rule="nonzero"></path>
            <path d="M67.7583344,148.995785 C71.0841435,147.651867 72.6909477,143.865897 71.3472353,140.539584 C70.003521,137.213271 66.2181239,135.606222 62.8923148,136.95014 C59.5665076,138.294058 57.9597015,142.080028 59.3034158,145.406341 C60.6471301,148.732654 64.4325253,150.339703 67.7583344,148.995785 Z" id="Oval" fill="#009FDA" fill-rule="nonzero"></path>
            <path d="M73.3151017,133.674817 C73.003485,132.903422 73.3756524,132.025617 74.1478963,131.713563 L125.528204,110.951423 C126.299761,110.639647 127.178375,111.013555 127.489461,111.783635 L128.343867,113.898684 C128.655482,114.670078 128.283316,115.547883 127.511073,115.859938 L76.1307648,136.622078 C75.3592081,136.933854 74.4805939,136.559946 74.1695081,135.789865 L73.3151017,133.674817 Z" id="Rectangle-2" fill="#F3F1EE" fill-rule="nonzero"></path>
            <path d="M76.3310487,141.140679 C76.0572715,140.462955 76.3837171,139.691955 77.0614018,139.418112 L119.255468,122.368016 C119.932607,122.094393 120.704034,122.42336 120.977254,123.099706 C121.251031,123.77743 120.924585,124.54843 120.246903,124.822273 L78.0528341,141.872369 C77.3756955,142.145992 76.6042687,141.817025 76.3310487,141.140679 Z" id="Rectangle-2" fill="#F3F1EE" fill-rule="nonzero"></path>
            <path d="M77.7631211,144.685718 C77.4893438,144.007993 77.8174725,143.236313 78.4939636,142.962951 L111.975594,129.433443 C112.653004,129.15971 113.424651,129.488589 113.697871,130.164934 C113.971648,130.842659 113.643519,131.614339 112.967028,131.8877 L79.4853978,145.417209 C78.8079862,145.690942 78.036341,145.362063 77.7631211,144.685718 Z" id="Rectangle-2" fill="#F3F1EE" fill-rule="nonzero"></path>
            <path d="M73.3151017,133.674817 C73.003485,132.903422 73.3756524,132.025617 74.1478963,131.713563 L125.528204,110.951423 C126.299761,110.639647 127.178375,111.013555 127.489461,111.783635 L128.343867,113.898684 C128.655482,114.670078 128.283316,115.547883 127.511073,115.859938 L76.1307648,136.622078 C75.3592081,136.933854 74.4805939,136.559946 74.1695081,135.789865 L73.3151017,133.674817 Z" id="Rectangle-2" fill="#F3F1EE" fill-rule="nonzero"></path>
            <path d="M76.3310487,141.140679 C76.0572715,140.462955 76.3837171,139.691955 77.0614018,139.418112 L119.255468,122.368016 C119.932607,122.094393 120.704034,122.42336 120.977254,123.099706 C121.251031,123.77743 120.924585,124.54843 120.246903,124.822273 L78.0528341,141.872369 C77.3756955,142.145992 76.6042687,141.817025 76.3310487,141.140679 Z" id="Rectangle-2" fill="#F3F1EE" fill-rule="nonzero"></path>
            <path d="M77.7631211,144.685718 C77.4893438,144.007993 77.8174725,143.236313 78.4939636,142.962951 L111.975594,129.433443 C112.653004,129.15971 113.424651,129.488589 113.697871,130.164934 C113.971648,130.842659 113.643519,131.614339 112.967028,131.8877 L79.4853978,145.417209 C78.8079862,145.690942 78.036341,145.362063 77.7631211,144.685718 Z" id="Rectangle-2" fill="#F3F1EE" fill-rule="nonzero"></path>
            <path d="M40.4795534,110.400872 C40.3625973,110.111355 40.5020707,109.781984 40.7919909,109.664831 L121.413472,77.086698 C121.702981,76.9697109 122.032273,77.109048 122.14944,77.3990918 L130.979294,99.2570573 C131.096248,99.5465748 130.956776,99.8759458 130.666854,99.9930992 L50.0453737,132.571232 C49.7558639,132.688219 49.4265737,132.548882 49.3094049,132.258838 L40.4795534,110.400872 Z" id="Rectangle-280-Copy-2" fill="#FFFFFF" fill-rule="nonzero"></path>
            <path d="M52.5435935,111.26034 C54.6833454,110.395693 57.1213232,110.739644 58.9413841,112.164375 C60.7614449,113.589106 61.6845798,115.874292 61.3648888,118.16367 C61.0451978,120.453048 59.5303548,122.394284 57.390603,123.258931 C55.2508531,124.123578 52.8128733,123.779628 50.9928125,122.354896 C49.1727535,120.930165 48.2496167,118.644979 48.5693077,116.355601 C48.8889987,114.066223 50.4038417,112.124987 52.5435935,111.26034 L52.8740716,112.078426 C51.0256105,112.825366 49.717486,114.50226 49.4423533,116.478628 C49.1672207,118.454997 49.9647737,120.42931 51.53538,121.659838 C53.1059863,122.890366 55.2116638,123.187786 57.0601249,122.440845 C58.908588,121.693905 60.2167106,120.017011 60.4918451,118.040643 C60.7669777,116.064275 59.9694229,114.089961 58.3988166,112.859433 C56.8282102,111.628905 54.7225328,111.331486 52.8740716,112.078426 L52.5435935,111.26034 Z" id="Base-plate" fill-opacity="0.002" fill="#455A64" fill-rule="nonzero"></path>
            <g id="Segment-1" transform="translate(48.365264, 110.709745)">
                <g id="path-7-Clipped">
                    <mask id="mask-8" fill="white">
                        <use xlink:href="#path-7"></use>
                    </mask>
                    <g id="path-7"></g>
                    <path d="M4.17764767,0.550869932 C6.31739951,-0.313776705 8.75537927,0.0301731942 10.5754382,1.45490461 C12.395499,2.87963583 13.318634,5.1648221 12.9989448,7.45420015 C12.6792538,9.7435782 11.164409,11.6848144 9.02465904,12.549461 C6.8849072,13.4141076 4.44692932,13.0701576 2.62686849,11.6454263 C0.806807663,10.2206949 -0.116327264,7.93550866 0.203363747,5.6461308 C0.523052876,3.35675275 2.03789771,1.41551657 4.17764767,0.550869932 L4.50812576,1.36895564 C2.6596646,2.11589588 1.35154012,3.79278989 1.07640747,5.76915812 C0.801274814,7.74552634 1.5988278,9.71984001 3.169436,10.950368 C4.74004232,12.1808959 6.84571979,12.4783156 8.69418095,11.7313751 C10.5426421,10.9844349 11.8507666,9.30754087 12.1258992,7.33117264 C12.4010319,5.35480441 11.6034789,3.38049093 10.0328726,2.1499628 C8.46226627,0.91943486 6.3565888,0.622015391 4.50812576,1.36895564 L4.17764767,0.550869932 Z" id="path-7" stroke="#FFFFFF" stroke-width="0.5" fill="#00AC3E" fill-rule="nonzero" mask="url(#mask-8)"></path>
                </g>
            </g>
            <path d="M57.4042441,123.389061 C60.7300532,122.045143 62.3368574,118.259173 60.993145,114.93286 C59.6494307,111.606547 55.8640336,109.999498 52.5382245,111.343415 C49.2124172,112.687333 47.6056111,116.473303 48.9493254,119.799616 C50.2930397,123.12593 54.0784349,124.732978 57.4042441,123.389061 Z" id="Oval" fill="#00AC3E" fill-rule="nonzero"></path>
            <path d="M62.9601247,108.041463 C62.6485099,107.270069 63.0206754,106.392264 63.7929192,106.080209 L115.173227,85.3180694 C115.944784,85.0062932 116.823398,85.3802013 117.134484,86.1502817 L117.98889,88.2653303 C118.300507,89.0367246 117.928339,89.9145297 117.156096,90.2265838 L65.7757878,110.988724 C65.0042311,111.3005 64.1256169,110.926592 63.814531,110.156512 L62.9601247,108.041463 Z" id="Rectangle-2" fill="#F3F1EE" fill-rule="nonzero"></path>
            <path d="M65.9760717,115.507326 C65.7022963,114.829601 66.028742,114.058601 66.7064247,113.784758 L108.900491,96.7346626 C109.577632,96.4610391 110.349059,96.7900068 110.622277,97.4663521 C110.896054,98.1440766 110.569608,98.9150767 109.891926,99.1889199 L67.6978571,116.239015 C67.0207184,116.512639 66.2492916,116.183671 65.9760717,115.507326 Z" id="Rectangle-2" fill="#F3F1EE" fill-rule="nonzero"></path>
            <path d="M67.408144,119.052364 C67.1343668,118.37464 67.4624955,117.602959 68.1389865,117.329598 L101.620617,103.800089 C102.298027,103.526356 103.069674,103.855235 103.342894,104.53158 C103.616671,105.209305 103.288542,105.980985 102.612051,106.254346 L69.1304208,119.783855 C68.453011,120.057588 67.681364,119.728709 67.408144,119.052364 Z" id="Rectangle-2" fill="#F3F1EE" fill-rule="nonzero"></path>
            <path d="M62.9601247,108.041463 C62.6485099,107.270069 63.0206754,106.392264 63.7929192,106.080209 L115.173227,85.3180694 C115.944784,85.0062932 116.823398,85.3802013 117.134484,86.1502817 L117.98889,88.2653303 C118.300507,89.0367246 117.928339,89.9145297 117.156096,90.2265838 L65.7757878,110.988724 C65.0042311,111.3005 64.1256169,110.926592 63.814531,110.156512 L62.9601247,108.041463 Z" id="Rectangle-2" fill="#F3F1EE" fill-rule="nonzero"></path>
            <path d="M65.9760717,115.507326 C65.7022963,114.829601 66.028742,114.058601 66.7064247,113.784758 L108.900491,96.7346626 C109.577632,96.4610391 110.349059,96.7900068 110.622277,97.4663521 C110.896054,98.1440766 110.569608,98.9150767 109.891926,99.1889199 L67.6978571,116.239015 C67.0207184,116.512639 66.2492916,116.183671 65.9760717,115.507326 Z" id="Rectangle-2" fill="#F3F1EE" fill-rule="nonzero"></path>
            <path d="M67.408144,119.052364 C67.1343668,118.37464 67.4624955,117.602959 68.1389865,117.329598 L101.620617,103.800089 C102.298027,103.526356 103.069674,103.855235 103.342894,104.53158 C103.616671,105.209305 103.288542,105.980985 102.612051,106.254346 L69.1304208,119.783855 C68.453011,120.057588 67.681364,119.728709 67.408144,119.052364 Z" id="Rectangle-2" fill="#F3F1EE" fill-rule="nonzero"></path>
            <path d="M85.3652429,84.791765 C78.6557058,84.7884903 72.0300876,91.7393235 72.0341294,99.995459 C72.0381449,108.20005 78.6927828,114.839131 85.3799532,114.842395 L142.167788,114.87011 C148.854961,114.873374 154.261835,108.240179 154.257819,100.035589 C154.253777,91.779453 148.840248,84.8227442 142.130711,84.8194696 L85.3652429,84.791765 Z" id="Fill-23" fill="#FAAE7A" fill-rule="nonzero"></path>
            <path d="M187.392459,131.730789 C187.392459,128.506638 190.007129,125.892947 193.229954,125.892947 L214.87631,125.892947 C218.100269,125.892947 220.713805,128.504676 220.713805,131.730789 L220.713805,146.414969 C220.713805,149.63912 218.099135,152.25281 214.87631,152.25281 L193.229954,152.25281 C190.005996,152.25281 187.392459,149.641082 187.392459,146.414969 L187.392459,131.730789 Z M192.747676,132.57663 C192.747676,131.225036 193.842064,130.129354 195.194306,130.129354 L212.911958,130.129354 C214.263195,130.129354 215.358588,131.224693 215.358588,132.57663 L215.358588,145.569128 C215.358588,146.920721 214.2642,148.016404 212.911958,148.016404 L195.194306,148.016404 C193.843069,148.016404 192.747676,146.921064 192.747676,145.569128 L192.747676,132.57663 Z" id="Combined-Shape" fill="#988A89" fill-rule="nonzero" transform="translate(204.053132, 139.072879) rotate(90.000000) translate(-204.053132, -139.072879) "></path>
        </g>
    </g>
</svg>