<?xml version="1.0" encoding="UTF-8"?>
<svg width="253px" height="223px" viewBox="0 0 253 223" version="1.1" xmlns="http://www.w3.org/2000/svg" xmlns:xlink="http://www.w3.org/1999/xlink">
    <!-- Generator: Sketch 49.2 (51160) - http://www.bohemiancoding.com/sketch -->
    <title>po_box_red_door_rgb</title>
    <desc>Created with Sketch.</desc>
    <defs>
        <polygon id="path-1" points="0.0946478873 224 0.0946478873 1.39132394 252.394366 1.39132394 252.394366 224"></polygon>
    </defs>
    <g id="Symbols" stroke="none" stroke-width="1" fill="none" fill-rule="evenodd">
        <g id="illustration-po-box" transform="translate(0.000000, -1.000000)">
            <g id="po_box_red_door_rgb">
                <g id="Group-3">
                    <mask id="mask-2" fill="white">
                        <use xlink:href="#path-1"></use>
                    </mask>
                    <g id="Clip-2"></g>
                    <path d="M3.15492958,1.39132394 L249.239437,1.39132394 C250.980958,1.39132394 252.394366,2.80473239 252.394366,4.54625352 L252.394366,220.84507 C252.394366,222.588169 250.980958,224 249.239437,224 L3.15492958,224 C1.41183099,224 0,222.588169 0,220.84507 L0,4.54625352 C0,2.80473239 1.41183099,1.39132394 3.15492958,1.39132394" id="Fill-1" fill="#4E595C" mask="url(#mask-2)"></path>
                </g>
                <polygon id="Fill-4" fill="#DC1928" points="7.03233803 217.729577 82.8831549 217.729577 82.8831549 115.830085 7.03233803 115.830085"></polygon>
                <polygon id="Fill-5" fill="#171213" points="7.03233803 109.561239 82.8831549 109.561239 82.8831549 7.66174648 7.03233803 7.66174648"></polygon>
                <polygon id="Fill-6" fill="#9AA2A6" points="35.2673803 78.7691268 54.408338 78.7691268 54.408338 46.4547606 35.2673803 46.4547606"></polygon>
                <path d="M50.8448451,62.5622535 C50.8448451,65.9932394 48.1552676,68.7727324 44.8362817,68.7727324 C41.5188732,68.7727324 38.8308732,65.9932394 38.8308732,62.5622535 C38.8308732,59.1296901 41.5188732,56.3501972 44.8362817,56.3501972 C48.1552676,56.3501972 50.8448451,59.1296901 50.8448451,62.5622535" id="Fill-7" fill="#171213"></path>
                <path d="M46.6440563,62.0211831 C46.6440563,60.9910986 45.8348169,60.1534648 44.8362817,60.1534648 C43.8393239,60.1534648 43.0300845,60.9910986 43.0300845,62.0211831 C43.0300845,62.8130704 43.5064789,63.4850704 44.1784789,63.7579718 L44.1784789,65.7424225 L45.495662,65.7424225 L45.495662,63.7579718 C46.167662,63.4850704 46.6440563,62.8130704 46.6440563,62.0211831" id="Fill-8" fill="#9AA2A6"></path>
                <path d="M36.6855211,28.3785915 C36.6855211,31.8206197 38.8703099,34.7562817 41.9479437,35.9062535 L41.9479437,20.8493521 C38.8703099,22.0024789 36.6855211,24.9349859 36.6855211,28.3785915" id="Fill-9" fill="#9AA2A6"></path>
                <path d="M44.8347042,20.3335211 C44.6091268,20.3335211 44.3851268,20.3414085 44.1642817,20.3587606 L44.1642817,20.923493 L44.2052958,20.923493 C47.3129014,20.9455775 49.8131831,23.2833803 49.7910986,26.1464789 C49.7705915,28.9953803 47.2545352,31.2890141 44.1642817,31.2890141 L44.1642817,36.4 C44.3851268,36.4189296 44.6091268,36.423662 44.8347042,36.423662 C49.3352113,36.423662 52.9870423,32.8238873 52.9870423,28.3785915 C52.9870423,23.9348732 49.3352113,20.3335211 44.8347042,20.3335211" id="Fill-10" fill="#9AA2A6"></path>
                <polygon id="Fill-11" fill="#DC1928" points="21.2295211 97.5772394 68.5534648 97.5772394 68.5534648 88.1124507 21.2295211 88.1124507"></polygon>
                <polygon id="Fill-12" fill="#1B1A19" points="21.2295211 133.751662 68.5534648 133.751662 68.5534648 124.286873 21.2295211 124.286873"></polygon>
                <path d="M88.2717746,7.66174648 L164.122592,7.66174648 L164.122592,109.561239 L88.2717746,109.561239 C88.2717746,109.561239 88.4831549,7.87312676 88.2717746,7.66174648" id="Fill-13" fill="#171213"></path>
                <polygon id="Fill-14" fill="#9AA2A6" points="116.506817 78.7691268 135.647775 78.7691268 135.647775 46.4547606 116.506817 46.4547606"></polygon>
                <path d="M132.084282,62.5622535 C132.084282,65.9932394 129.394704,68.7727324 126.077296,68.7727324 C122.75831,68.7727324 120.068732,65.9932394 120.068732,62.5622535 C120.068732,59.1296901 122.75831,56.3501972 126.077296,56.3501972 C129.394704,56.3501972 132.084282,59.1296901 132.084282,62.5622535" id="Fill-15" fill="#171213"></path>
                <path d="M127.883493,62.0211831 C127.883493,60.9910986 127.075831,60.1534648 126.077296,60.1534648 C125.078761,60.1534648 124.269521,60.9910986 124.269521,62.0211831 C124.269521,62.8130704 124.745915,63.4850704 125.417915,63.7579718 L125.417915,65.7424225 L126.735099,65.7424225 L126.735099,63.7579718 C127.407099,63.4850704 127.883493,62.8130704 127.883493,62.0211831" id="Fill-16" fill="#9AA2A6"></path>
                <path d="M117.924958,28.3785915 C117.924958,31.8206197 120.109746,34.7562817 123.188958,35.9062535 L123.188958,20.8493521 C120.109746,22.0024789 117.924958,24.9349859 117.924958,28.3785915" id="Fill-17" fill="#9AA2A6"></path>
                <path d="M126.075718,20.3335211 C125.848563,20.3335211 125.626141,20.3414085 125.405296,20.3587606 L125.405296,20.923493 L125.444732,20.923493 C128.550761,20.9455775 131.05262,23.2833803 131.030535,26.1464789 C131.011606,28.9953803 128.493972,31.2890141 125.405296,31.2890141 L125.405296,36.4 C125.626141,36.4189296 125.848563,36.423662 126.075718,36.423662 C130.574648,36.423662 134.226479,32.8238873 134.226479,28.3785915 C134.226479,23.9348732 130.574648,20.3335211 126.075718,20.3335211" id="Fill-18" fill="#9AA2A6"></path>
                <polygon id="Fill-19" fill="#DC1928" points="102.468958 97.5772394 149.792901 97.5772394 149.792901 88.1124507 102.468958 88.1124507"></polygon>
                <polygon id="Fill-20" fill="#171213" points="169.511211 109.561239 245.362028 109.561239 245.362028 7.66174648 169.511211 7.66174648"></polygon>
                <polygon id="Fill-21" fill="#9AA2A6" points="197.746254 78.7691268 216.887211 78.7691268 216.887211 46.4547606 197.746254 46.4547606"></polygon>
                <path d="M213.323718,62.5622535 C213.323718,65.9932394 210.634141,68.7727324 207.316732,68.7727324 C203.997746,68.7727324 201.308169,65.9932394 201.308169,62.5622535 C201.308169,59.1296901 203.997746,56.3501972 207.316732,56.3501972 C210.634141,56.3501972 213.323718,59.1296901 213.323718,62.5622535" id="Fill-22" fill="#171213"></path>
                <path d="M209.12293,62.0211831 C209.12293,60.9910986 208.315268,60.1534648 207.316732,60.1534648 C206.318197,60.1534648 205.508958,60.9910986 205.508958,62.0211831 C205.508958,62.8130704 205.985352,63.4850704 206.657352,63.7579718 L206.657352,65.7424225 L207.974535,65.7424225 L207.974535,63.7579718 C208.644958,63.4850704 209.12293,62.8130704 209.12293,62.0211831" id="Fill-23" fill="#9AA2A6"></path>
                <path d="M199.164394,28.3785915 C199.164394,31.8206197 201.349183,34.7562817 204.428394,35.9062535 L204.428394,20.8493521 C201.349183,22.0024789 199.164394,24.9349859 199.164394,28.3785915" id="Fill-24" fill="#9AA2A6"></path>
                <path d="M207.315155,20.3335211 C207.088,20.3335211 206.865577,20.3414085 206.644732,20.3587606 L206.644732,20.923493 L206.684169,20.923493 C209.790197,20.9455775 212.292056,23.2833803 212.269972,26.1464789 C212.251042,28.9953803 209.733408,31.2890141 206.644732,31.2890141 L206.644732,36.4 C206.865577,36.4189296 207.088,36.423662 207.315155,36.423662 C211.814085,36.423662 215.465915,32.8238873 215.465915,28.3785915 C215.465915,23.9348732 211.814085,20.3335211 207.315155,20.3335211" id="Fill-25" fill="#9AA2A6"></path>
                <polygon id="Fill-26" fill="#DC1928" points="183.708394 97.5772394 231.032338 97.5772394 231.032338 88.1124507 183.708394 88.1124507"></polygon>
                <polygon id="Fill-27" fill="#9AA2A6" points="35.2673803 186.937465 54.408338 186.937465 54.408338 154.623099 35.2673803 154.623099"></polygon>
                <path d="M50.8448451,170.730592 C50.8448451,174.163155 48.1552676,176.94107 44.8362817,176.94107 C41.5188732,176.94107 38.8308732,174.163155 38.8308732,170.730592 C38.8308732,167.298028 41.5188732,164.518535 44.8362817,164.518535 C48.1552676,164.518535 50.8448451,167.298028 50.8448451,170.730592" id="Fill-28" fill="#171213"></path>
                <path d="M46.6440563,170.189521 C46.6440563,169.159437 45.8348169,168.32338 44.8362817,168.32338 C43.8393239,168.32338 43.0300845,169.159437 43.0300845,170.189521 C43.0300845,170.981408 43.5064789,171.653408 44.1784789,171.92631 L44.1784789,173.912338 L45.495662,173.912338 L45.495662,171.92631 C46.167662,171.653408 46.6440563,170.981408 46.6440563,170.189521" id="Fill-29" fill="#9AA2A6"></path>
                <path d="M132.084282,170.730592 C132.084282,174.163155 129.394704,176.94107 126.077296,176.94107 C122.75831,176.94107 120.068732,174.163155 120.068732,170.730592 C120.068732,167.298028 122.75831,164.518535 126.077296,164.518535 C129.394704,164.518535 132.084282,167.298028 132.084282,170.730592" id="Fill-30" fill="#171213"></path>
                <polygon id="Fill-31" fill="#DC1928" points="88.2717746 217.729577 245.362028 217.729577 245.362028 115.830085 88.2717746 115.830085"></polygon>
                <polygon id="Fill-32" fill="#9AA2A6" points="157.192789 186.937465 176.333746 186.937465 176.333746 154.623099 157.192789 154.623099"></polygon>
                <path d="M172.770254,170.730592 C172.770254,174.163155 170.080676,176.94107 166.763268,176.94107 C163.444282,176.94107 160.754704,174.163155 160.754704,170.730592 C160.754704,167.298028 163.444282,164.518535 166.763268,164.518535 C170.080676,164.518535 172.770254,167.298028 172.770254,170.730592" id="Fill-33" fill="#171213"></path>
                <path d="M168.569465,170.189521 C168.569465,169.159437 167.761803,168.32338 166.763268,168.32338 C165.764732,168.32338 164.955493,169.159437 164.955493,170.189521 C164.955493,170.981408 165.431887,171.653408 166.103887,171.92631 L166.103887,173.912338 L167.42107,173.912338 L167.42107,171.92631 C168.091493,171.653408 168.569465,170.981408 168.569465,170.189521" id="Fill-34" fill="#9AA2A6"></path>
                <path d="M158.61093,136.54693 C158.61093,139.990535 160.794141,142.92462 163.87493,144.077746 L163.87493,129.019268 C160.794141,130.170817 158.61093,133.103324 158.61093,136.54693" id="Fill-35" fill="#9AA2A6"></path>
                <path d="M166.76169,128.501859 C166.534535,128.501859 166.312113,128.511324 166.091268,128.527099 L166.091268,129.091831 L166.130704,129.091831 C169.236732,129.113915 171.738592,131.453296 171.716507,134.316394 C171.697577,137.165296 169.179944,139.45893 166.091268,139.457352 L166.091268,144.568338 C166.312113,144.588845 166.534535,144.595155 166.76169,144.595155 C171.26062,144.595155 174.912451,140.992225 174.912451,136.54693 C174.912451,132.104789 171.26062,128.501859 166.76169,128.501859" id="Fill-36" fill="#9AA2A6"></path>
                <polygon id="Fill-37" fill="#1B1A19" points="143.15493 205.745577 190.478873 205.745577 190.478873 196.280789 143.15493 196.280789"></polygon>
            </g>
        </g>
    </g>
</svg>