<?xml version="1.0" encoding="UTF-8"?>
<svg width="393px" height="224px" viewBox="0 0 393 224" version="1.1" xmlns="http://www.w3.org/2000/svg" xmlns:xlink="http://www.w3.org/1999/xlink">
    <!-- Generator: Sketch 49.2 (51160) - http://www.bohemiancoding.com/sketch -->
    <title>illustration-digital-id</title>
    <desc>Created with Sketch.</desc>
    <defs>
        <path d="M7.77777778,0 C3.48288889,0 0,3.48288889 0,7.77777778 L0,216.222222 C0,220.518667 3.48288889,224 7.77777778,224 L113.555556,224 C117.852,224 121.333333,220.518667 121.333333,216.222222 L121.333333,172.666667 L110.444444,172.666667 L110.444444,185.111111 L10.8888889,185.111111 L10.8888889,29.5555556 L110.444444,29.5555556 L110.444444,35.7777778 L121.333333,35.7777778 L121.333333,7.77777778 C121.333333,3.48288889 117.852,0 113.555556,0 L7.77777778,0 Z M52.9448889,205.515333 C52.9448889,201.271778 56.4028889,197.830889 60.6666667,197.830889 C64.9304444,197.830889 68.3884444,201.271778 68.3884444,205.515333 C68.3884444,209.762 64.9304444,213.201333 60.6666667,213.201333 C56.4028889,213.201333 52.9448889,209.762 52.9448889,205.515333 Z" id="path-1"></path>
        <linearGradient x1="-18.2141426%" y1="88.688151%" x2="76.7377804%" y2="66.007487%" id="linearGradient-3">
            <stop stop-color="#50E3C2" offset="0%"></stop>
            <stop stop-color="#3686E6" offset="48.8168353%"></stop>
            <stop stop-color="#0045D8" offset="100%"></stop>
        </linearGradient>
    </defs>
    <g id="illustration-digital-id" stroke="none" stroke-width="1" fill="none" fill-rule="evenodd">
        <g id="Page-1">
            <g id="Group-16">
                <g id="Group-3">
                    <mask id="mask-2" fill="white">
                        <use xlink:href="#path-1"></use>
                    </mask>
                    <g id="Clip-2"></g>
                    <path d="M7.77777778,0 C3.48288889,0 0,3.48288889 0,7.77777778 L0,216.222222 C0,220.518667 3.48288889,224 7.77777778,224 L113.555556,224 C117.852,224 121.333333,220.518667 121.333333,216.222222 L121.333333,172.666667 L110.444444,172.666667 L110.444444,185.111111 L10.8888889,185.111111 L10.8888889,29.5555556 L110.444444,29.5555556 L110.444444,35.7777778 L121.333333,35.7777778 L121.333333,7.77777778 C121.333333,3.48288889 117.852,0 113.555556,0 L7.77777778,0 Z M52.9448889,205.515333 C52.9448889,201.271778 56.4028889,197.830889 60.6666667,197.830889 C64.9304444,197.830889 68.3884444,201.271778 68.3884444,205.515333 C68.3884444,209.762 64.9304444,213.201333 60.6666667,213.201333 C56.4028889,213.201333 52.9448889,209.762 52.9448889,205.515333 Z" id="Fill-1" fill="url(#linearGradient-3)" mask="url(#mask-2)"></path>
                </g>
            </g>
        </g>
    </g>
</svg>