<svg width="136" height="28" viewBox="0 0 136 28" fill="none" xmlns="http://www.w3.org/2000/svg">
    <path d="M48.192 18.3359H42.848V8.63994H40.864V19.9999H48.192V18.3359ZM49.7107 9.16794C49.7107 9.80794 50.2067 10.3039 50.8467 10.3039C51.4707 10.3039 51.9987 9.80794 51.9987 9.16794C51.9987 8.54394 51.4707 8.03194 50.8467 8.03194C50.2067 8.03194 49.7107 8.54394 49.7107 9.16794ZM49.9027 19.9999H51.7907V11.6799H49.9027V19.9999ZM61.2439 11.6799H59.3079L57.0999 17.9519L54.8759 11.6799H52.8759L55.9159 19.9999H58.2199L61.2439 11.6799ZM69.2919 17.5359H67.4359C67.1799 18.2719 66.6679 18.7039 65.6599 18.7039C64.3799 18.7039 63.6119 17.7919 63.5799 16.2879H69.3559V15.8399C69.3559 13.1839 67.9479 11.4879 65.5959 11.4879C63.2599 11.4879 61.7079 13.1839 61.7079 15.8399C61.7079 18.4959 63.2279 20.1919 65.6599 20.1919C67.6599 20.1919 68.8919 18.9439 69.2919 17.5359ZM65.5959 12.9439C66.7319 12.9439 67.3879 13.7439 67.4839 15.0079H63.6119C63.7559 13.6959 64.4919 12.9439 65.5959 12.9439ZM81.2374 19.9999H83.1894L79.3334 8.63994H77.0134L73.1254 19.9999H75.0614L75.8774 17.5839H80.4214L81.2374 19.9999ZM76.4214 15.9519L78.1494 10.7999L79.8774 15.9519H76.4214ZM91.4446 19.6479V11.6799H89.5726V12.7999H89.5086C89.0286 12.0319 88.1966 11.4879 87.1566 11.4879C85.2046 11.4879 83.8926 12.9279 83.8926 15.5519C83.8926 18.1599 85.2046 19.5999 87.1566 19.5999C88.1966 19.5999 89.0286 19.0719 89.5086 18.2719H89.5726V19.6319C89.5726 20.8159 89.1406 21.6319 87.8606 21.6319C86.7086 21.6319 86.2926 21.0879 86.1326 20.2879H84.1006C84.3086 21.6639 85.3486 22.9119 87.7486 22.9119C90.3086 22.9119 91.4446 21.5679 91.4446 19.6479ZM85.7806 15.8559V15.2479C85.7806 13.6799 86.4366 12.9759 87.6846 12.9759C88.8366 12.9759 89.5726 13.9199 89.5726 15.3759V15.7119C89.5726 17.1519 88.8366 18.1279 87.6846 18.1279C86.4366 18.1279 85.7806 17.4239 85.7806 15.8559ZM100.548 17.5359H98.6921C98.4361 18.2719 97.9241 18.7039 96.9161 18.7039C95.6361 18.7039 94.8681 17.7919 94.8361 16.2879H100.612V15.8399C100.612 13.1839 99.2041 11.4879 96.8521 11.4879C94.5161 11.4879 92.9641 13.1839 92.9641 15.8399C92.9641 18.4959 94.4841 20.1919 96.9161 20.1919C98.9161 20.1919 100.148 18.9439 100.548 17.5359ZM96.8521 12.9439C97.9881 12.9439 98.6441 13.7439 98.7401 15.0079H94.8681C95.0121 13.6959 95.7481 12.9439 96.8521 12.9439ZM103.997 14.8799C103.997 13.9039 104.573 13.1039 105.725 13.1039C106.813 13.1039 107.229 13.7919 107.229 14.7519V19.9999H109.117V14.5439C109.117 12.7039 108.061 11.4879 106.397 11.4879C105.277 11.4879 104.589 11.9359 104.061 12.6719H103.997V11.6799H102.109V19.9999H103.997V14.8799ZM115.54 18.5119H114.804C114.068 18.5119 113.652 18.2079 113.652 17.4399V13.1359H115.54V11.6799H113.652V8.63994H111.78V11.6799H110.212V13.1359H111.764V17.5839C111.764 19.1839 112.676 19.9999 114.5 19.9999H115.54V18.5119Z" fill="white"/>
    <path fill-rule="evenodd" clip-rule="evenodd" d="M0 13.9991C0 20.0725 3.86404 25.2497 9.30222 27.282V0.717896C3.86404 2.74968 0 7.92628 0 13.9991Z" fill="white"/>
    <path fill-rule="evenodd" clip-rule="evenodd" d="M14.0213 -6.10352e-05C13.6369 -6.10352e-05 13.2557 0.0140134 12.8799 0.0427036V1.02683H12.9508C18.241 1.06527 22.5015 5.1344 22.4634 10.1157C22.4285 15.0742 18.1417 19.0665 12.8799 19.0611V27.9555C13.2557 27.9886 13.6369 27.9999 14.0213 27.9999C21.6871 27.9999 27.9066 21.7325 27.9066 13.9986C27.9066 6.26739 21.6871 -6.10352e-05 14.0213 -6.10352e-05Z" fill="white"/>
</svg>