<svg width="20px" height="20px" viewBox="0 0 24 24" xmlns="http://www.w3.org/2000/svg">
    <g stroke="none" stroke-width="1" fill="none" fill-rule="evenodd">
        <g id="Postmaster---Icons" transform="translate(-1261.000000, -906.000000)" fill="#1F78D1">
            <path d="M1272.99988,930 C1279.62688,930 1284.99988,924.626999 1284.99988,918 C1284.99988,911.3715 1279.62688,906 1272.99988,906 C1266.37288,906 1260.99988,911.3715 1260.99988,918 C1260.99988,924.626999 1266.37288,930 1272.99988,930 Z M1272.99988,915 C1273.82888,915 1274.49988,914.329 1274.49988,913.5 C1274.49988,912.671 1273.82888,912 1272.99988,912 C1272.17088,912 1271.49988,912.671 1271.49988,913.5 C1271.49988,914.329 1272.17088,915 1272.99988,915 Z M1272.99988,916 C1273.55188,916 1273.99988,916.448 1273.99988,917 L1273.99988,921 L1274.99988,921 L1274.99988,923 L1270.99988,923 L1270.99988,921 L1271.99988,921 L1271.99988,918 L1270.99988,918 L1270.99988,916 L1272.99988,916 Z"></path>
        </g>
    </g>
</svg>