<?xml version="1.0" encoding="UTF-8"?>
<svg width="48px" height="48px" viewBox="0 0 48 48" version="1.1" xmlns="http://www.w3.org/2000/svg" xmlns:xlink="http://www.w3.org/1999/xlink">
    <!-- Generator: Sketch 51.1 (57501) - http://www.bohemiancoding.com/sketch -->
    <title>Group Copy 2</title>
    <desc>Created with Sketch.</desc>
    <defs></defs>
    <g id="Concepts" stroke="none" stroke-width="1" fill="none" fill-rule="evenodd">
        <g id="Escalation-to-live-chat" transform="translate(-1000.000000, -343.000000)" fill="#382F2D">
            <g id="Group-2" transform="translate(864.000000, 167.000000)">
                <g id="Group-Copy-2" transform="translate(136.000000, 176.000000)">
                    <path d="M5.65915837,24 C5.65915837,13.8710836 13.871069,5.65917302 23.9999854,5.65917302 C34.1289017,5.65917302 42.3392358,13.8710836 42.3392358,24 C42.3392358,34.1304929 34.1289017,42.340827 23.9999854,42.340827 C13.871069,42.340827 5.65915837,34.1304929 5.65915837,24 Z M24,0 C10.7458852,0 0,10.7458852 0,24 C0,37.2557206 10.7458852,48 24,48 C37.2541148,48 48,37.2557206 48,24 C47.9983942,10.7458852 37.2541148,0 24,0" id="Fill-1" opacity="0.2"></path>
                    <path d="M36.0551453,3.25280762 C32.5223298,1.16670676 28.3766408,0 24,0 L24,5.64190674 C27.4074471,5.64190674 30.7043194,6.65073679 33.4559937,8.27435303 L36.0551453,3.25280762 Z" id="Fill-4"></path>
                </g>
            </g>
        </g>
    </g>
</svg>