<?xml version="1.0" encoding="UTF-8"?>
<svg width="40px" height="40px" viewBox="0 0 40 40" version="1.1" xmlns="http://www.w3.org/2000/svg" xmlns:xlink="http://www.w3.org/1999/xlink">
    <!-- Generator: Sketch 49.2 (51160) - http://www.bohemiancoding.com/sketch -->
    <title>stepper/stepper_current</title>
    <desc>Created with Sketch.</desc>
    <defs></defs>
    <g id="stepper/stepper_current" stroke="none" stroke-width="1" fill="none" fill-rule="evenodd">
        <path d="M20,40 C8.954305,40 0,31.045695 0,20 C0,8.954305 8.954305,0 20,0 C31.045695,0 40,8.954305 40,20 C40,31.045695 31.045695,40 20,40 Z M20,36 C28.836556,36 36,28.836556 36,20 C36,11.163444 28.836556,4 20,4 C11.163444,4 4,11.163444 4,20 C4,28.836556 11.163444,36 20,36 Z M28,23 C26.3431458,23 25,21.6568542 25,20 C25,18.3431458 26.3431458,17 28,17 C29.6568542,17 31,18.3431458 31,20 C31,21.6568542 29.6568542,23 28,23 Z M20,23 C18.3431458,23 17,21.6568542 17,20 C17,18.3431458 18.3431458,17 20,17 C21.6568542,17 23,18.3431458 23,20 C23,21.6568542 21.6568542,23 20,23 Z M12,23 C10.3431458,23 9,21.6568542 9,20 C9,18.3431458 10.3431458,17 12,17 C13.6568542,17 15,18.3431458 15,20 C15,21.6568542 13.6568542,23 12,23 Z" id="Combined-Shape" fill="#006DFF"></path>
    </g>
</svg>