<?xml version="1.0" encoding="UTF-8"?>
<svg width="40px" height="40px" viewBox="0 0 40 40" version="1.1" xmlns="http://www.w3.org/2000/svg" xmlns:xlink="http://www.w3.org/1999/xlink">
    <!-- Generator: Sketch 49.2 (51160) - http://www.bohemiancoding.com/sketch -->
    <title>stepper/stepper_complete</title>
    <desc>Created with Sketch.</desc>
    <defs></defs>
    <g id="stepper/stepper_complete" stroke="none" stroke-width="1" fill="none" fill-rule="evenodd">
        <path d="M20,40 C8.954305,40 0,31.045695 0,20 C0,8.954305 8.954305,0 20,0 C31.045695,0 40,8.954305 40,20 C40,31.045695 31.045695,40 20,40 Z M20,36 C28.836556,36 36,28.836556 36,20 C36,11.163444 28.836556,4 20,4 C11.163444,4 4,11.163444 4,20 C4,28.836556 11.163444,36 20,36 Z M17.4766783,21.5432384 L23.3899831,14.4951978 C24.115468,13.8349341 25.2760714,13.8349341 26.0013409,14.4951978 C26.7268258,15.1554615 26.7268258,16.2117266 26.0013409,16.8717942 L18.7824649,25.1082311 C18.3471309,25.5042325 17.9120123,25.6363636 17.4766783,25.6363636 C17.0415597,25.6363636 16.461258,25.3722974 16.1711072,25.1082311 L12.5441136,21.8073046 C11.8186288,21.1470409 11.8186288,20.0907758 12.5441136,19.4307082 C13.2693831,18.7704445 14.4299866,18.7704445 15.1554714,19.4307082 L17.4766783,21.5432384 Z" id="Combined-Shape" fill="#178A00"></path>
    </g>
</svg>