<?xml version="1.0" standalone="no"?>
<!DOCTYPE svg PUBLIC "-//W3C//DTD SVG 1.1//EN" "http://www.w3.org/Graphics/SVG/1.1/DTD/svg11.dtd" >
<svg xmlns="http://www.w3.org/2000/svg">
<metadata></metadata>
<defs>
<font id="letter_oneregular" horiz-adv-x="587" >
<font-face units-per-em="1000" ascent="800" descent="-200" />
<missing-glyph horiz-adv-x="270" />
<glyph unicode="ff" horiz-adv-x="641" d="M636 643q-12 3 -27.5 6t-34.5 3q-37 0 -56 -15.5t-19 -53.5v-68h123v-73h-123v-442h-85v442h-220v-442h-86v442h-89v73h89v67q0 73 42 108t113 35q22 0 43.5 -3t35.5 -8l-11 -71q-12 3 -27.5 6t-34.5 3q-38 0 -56.5 -15.5t-18.5 -53.5v-68h220v67q0 73 41.5 108t112.5 35 q22 0 43.5 -3t35.5 -8z" />
<glyph unicode="fi" horiz-adv-x="564" d="M331 643q-12 3 -28 6t-36 3q-36 0 -54.5 -15.5t-18.5 -53.5v-68h123v-73h-123v-442h-86v442h-89v73h89v67q0 73 42 108t113 35q22 0 43.5 -3t35.5 -8zM407 0v515h86v-515h-86zM407 627v87h86v-87h-86z" />
<glyph unicode="fl" horiz-adv-x="572" d="M331 643q-12 3 -28 6t-36 3q-36 0 -54.5 -15.5t-18.5 -53.5v-68h123v-73h-123v-442h-86v442h-89v73h89v67q0 73 42 108t113 35q22 0 43.5 -3t35.5 -8zM412 0v714h86v-714h-86z" />
<glyph horiz-adv-x="0" />
<glyph horiz-adv-x="270" />
<glyph unicode=" "  horiz-adv-x="270" />
<glyph unicode="&#x09;" horiz-adv-x="270" />
<glyph unicode="&#xa0;" horiz-adv-x="270" />
<glyph unicode="!" horiz-adv-x="255" d="M151 201h-47l-26 351v148h99v-148zM78 0v110h99v-110h-99z" />
<glyph unicode="&#x22;" horiz-adv-x="371" d="M298 455h-39l-30 212v33h99v-33zM112 455h-39l-31 212v33h100v-33z" />
<glyph unicode="#" horiz-adv-x="644" d="M483 446l-33 -192h121v-55h-131l-35 -199h-61l36 199h-168l-36 -199h-59l34 199h-121v55h130l34 192h-121v56h130l36 198h60l-35 -198h168l36 198h59l-35 -198h121v-56h-130zM255 446l-34 -192h168l34 192h-168z" />
<glyph unicode="$" d="M271 -102v90q-88 5 -151.5 42t-99.5 97l72 47q32 -50 79 -76t100 -33v258q-39 9 -79 22t-71.5 35t-51.5 55.5t-20 83.5q0 45 16.5 80t46 59.5t70.5 38.5t89 16v74h56v-75q66 -8 121.5 -38t93.5 -81l-65 -46q-59 71 -150 86v-233q43 -11 84.5 -25.5t73.5 -37.5t51.5 -56.5 t19.5 -82.5q0 -44 -16 -80.5t-46 -64t-72.5 -44.5t-94.5 -21v-90h-56zM468 191q0 28 -10 47t-29 32.5t-45 22.5t-57 17v-246q65 5 103 38t38 89zM137 528q0 -27 10 -45t28 -31t42.5 -21.5t53.5 -16.5v223q-26 -1 -50.5 -7.5t-43 -19.5t-29.5 -33.5t-11 -48.5z" />
<glyph unicode="%" horiz-adv-x="778" d="M355 540q0 -37 -12 -68.5t-33.5 -55t-52 -36.5t-66.5 -13q-37 0 -67 13t-51.5 36.5t-33.5 55t-12 68.5q0 36 12 66.5t33.5 53.5t51.5 36t67 13q36 0 66.5 -13t52 -36t33.5 -53.5t12 -66.5zM242 0h-69l363 700h69zM751 163q0 -37 -11.5 -68.5t-33 -54.5t-52 -36t-67.5 -13 q-36 0 -66 13t-52 36t-34 54.5t-12 68.5q0 36 12 67t34 54t52 36t66 13q37 0 67.5 -13t52 -36t33 -54t11.5 -67zM293 540q0 46 -27.5 77t-74.5 31q-48 0 -75 -31t-27 -77q0 -48 27 -79.5t75 -31.5t75 31.5t27 79.5zM690 163q0 46 -28 77t-75 31t-74 -31t-27 -77 q0 -47 27 -79t74 -32q48 0 75.5 32t27.5 79z" />
<glyph unicode="&#x26;" horiz-adv-x="679" d="M636 303q-14 -49 -37.5 -93.5t-52.5 -81.5l126 -128h-113l-71 71q-96 -84 -220 -84q-51 0 -95 13.5t-77 39t-52 62t-19 83.5q0 38 12.5 68t34 54t50.5 42.5t63 33.5q-41 44 -61 80.5t-20 83.5q0 41 14.5 72t39.5 52t59.5 31.5t74.5 10.5q42 0 76.5 -11.5t59 -32.5 t38 -50.5t13.5 -65.5q0 -61 -40.5 -107t-121.5 -83l173 -178q23 32 40.5 67.5t27.5 70.5zM278 65q44 0 82 14.5t75 46.5l-202 206q-24 -11 -45 -24t-37 -29.5t-25.5 -37.5t-9.5 -47q0 -60 45 -94.5t117 -34.5zM399 548q0 23 -9 40.5t-23.5 29t-33.5 17t-40 5.5t-40.5 -6 t-34.5 -17.5t-23.5 -28.5t-8.5 -40q0 -38 22.5 -67.5t57.5 -66.5q25 12 49 25t43 28.5t30 35.5t11 45z" />
<glyph unicode="'" horiz-adv-x="184" d="M111 455h-38l-30 212v33h99v-33z" />
<glyph unicode="(" horiz-adv-x="279" d="M214 -130q-95 98 -137 212.5t-42 235.5t42 236.5t137 212.5l57 -46q-84 -87 -120.5 -189.5t-36.5 -213.5q0 -110 36.5 -212.5t120.5 -189.5z" />
<glyph unicode=")" horiz-adv-x="279" d="M65 767q95 -98 137 -213t42 -236t-42 -236t-137 -212l-56 46q83 87 119.5 189.5t36.5 212.5q0 111 -36.5 213.5t-119.5 189.5z" />
<glyph unicode="*" horiz-adv-x="417" d="M225 476q4 -27 7 -46.5t4.5 -36.5t2 -33.5t0.5 -36.5h-60q0 20 0.5 36.5t2 33.5t4 36.5t7.5 46.5q-21 -17 -36.5 -29.5t-29.5 -22t-28 -18t-32 -18.5l-29 51q17 10 31.5 18t29.5 15t33.5 14.5t44.5 17.5q-26 9 -44.5 16.5t-33.5 14.5t-29.5 15t-31.5 18l29 52 q18 -10 32 -18.5t28 -18.5t29.5 -22t36.5 -30q-5 27 -7.5 46.5t-4 36.5t-2 33.5t-0.5 37.5h60q0 -21 -0.5 -37.5t-2 -33.5t-4.5 -36.5t-7 -46.5q21 18 36.5 30t29.5 22t28 18.5t31 18.5l30 -52q-18 -10 -32 -18t-29.5 -15t-34 -14.5t-44.5 -16.5q26 -10 44.5 -17.5t34 -14.5 t29.5 -15t32 -18l-30 -51q-17 10 -31 18.5t-28 18t-29.5 22t-36.5 29.5z" />
<glyph unicode="+" d="M332 266v-199h-76v199h-200v76h200v200h76v-200h199v-76h-199z" />
<glyph unicode="," horiz-adv-x="235" d="M169 7q0 -48 -20 -86t-58 -72l-32 33q27 23 41 48.5t14 48.5v21h-51v105h106v-98z" />
<glyph unicode="-" horiz-adv-x="380" d="M56 242v78h268v-78h-268z" />
<glyph unicode="." horiz-adv-x="235" d="M63 0v105h106v-105h-106z" />
<glyph unicode="/" horiz-adv-x="340" d="M96 -108h-70l220 822h70z" />
<glyph unicode="0" d="M547 350q0 -67 -12 -132t-41 -116.5t-78 -83t-122 -31.5q-74 0 -123 31.5t-78 83t-41 116.5t-12 132t12 132t41 116.5t78 83t123 31.5q73 0 122 -31.5t78 -83t41 -116.5t12 -132zM451 350q0 58 -7.5 109.5t-25.5 90t-48 60.5t-76 22t-76.5 -22t-48.5 -60.5t-25.5 -90 t-7.5 -109.5t7.5 -109.5t25.5 -90t48.5 -61t76.5 -22.5t76 22.5t48 61t25.5 90t7.5 109.5z" />
<glyph unicode="1" d="M96 0v76h176v512q-13 -7 -32.5 -15t-43 -15t-50 -12.5t-51.5 -8.5l-11 72q74 14 126 36.5t85 54.5h71v-624h167v-76h-437z" />
<glyph unicode="2" d="M54 0v72q98 81 167 143t112 111t62.5 89.5t19.5 79.5q0 67 -39.5 100t-98.5 33q-57 0 -98 -28.5t-66 -68.5l-73 48q41 60 102 97t142 37q49 0 91 -15t73 -42.5t48.5 -67.5t17.5 -89q0 -48 -18.5 -93.5t-58 -93.5t-101 -103t-146.5 -123h351v-86h-487z" />
<glyph unicode="3" d="M227 322v83h57q66 0 101 31.5t35 83.5q0 51 -35 79.5t-98 28.5q-109 0 -170 -82l-68 48q91 119 240 119q50 0 91.5 -13.5t71.5 -38t47 -58.5t17 -74q0 -57 -29.5 -96t-77.5 -62q67 -26 97.5 -72.5t30.5 -100.5q0 -45 -17 -83.5t-49.5 -67t-78.5 -44.5t-103 -16 q-96 0 -159.5 37t-99.5 102l81 44q27 -52 74 -75t104 -23q73 0 111.5 35.5t38.5 95.5q0 54 -38.5 86.5t-120.5 32.5h-53z" />
<glyph unicode="4" d="M459 166v-166h-94v166h-340v78q36 62 63 124.5t45 121t27 112t9 98.5h93q0 -45 -10 -100.5t-28.5 -114.5t-46 -119.5t-62.5 -117.5h251v291h93v-291h104v-82h-104z" />
<glyph unicode="5" d="M284 72q72 0 116.5 40t44.5 112q0 69 -42 108t-115 39q-96 0 -152 -68l-58 28l24 369h400v-86h-323l-17 -207q36 26 75 35t72 9q50 0 93 -16t74 -45.5t48.5 -71t17.5 -91.5q0 -48 -17 -91.5t-49.5 -76.5t-80 -52.5t-108.5 -19.5q-88 0 -150 34.5t-100 98.5l80 48 q27 -51 71.5 -73.5t95.5 -22.5z" />
<glyph unicode="6" d="M425 700q-33 -27 -71 -62.5t-73.5 -75.5t-65 -81.5t-45.5 -80.5q14 16 33.5 27t41 18t43.5 10t40 3q48 0 89 -16.5t71.5 -46.5t48 -72.5t17.5 -94.5q0 -53 -18 -97t-51.5 -76t-81 -50t-105.5 -18q-57 0 -104 17.5t-80 50.5t-51.5 81t-18.5 110q0 65 19.5 125.5t53.5 117 t80 109t98 102.5h130zM140 226q0 -69 42 -112t118 -43t116.5 43t40.5 112t-40.5 110.5t-116.5 41.5t-118 -42t-42 -110z" />
<glyph unicode="7" d="M549 623q-23 -29 -52.5 -70t-61.5 -90.5t-63.5 -106t-56.5 -116t-42 -120.5t-20 -120h-101q5 87 37.5 176.5t77 172t92 151.5t81.5 114h-398v86h507v-77z" />
<glyph unicode="8" d="M293 69q76 0 117 36t41 97q0 60 -39 96.5t-119 36.5q-79 0 -118 -36.5t-39 -96.5q0 -61 40.5 -97t116.5 -36zM293 413q63 0 98.5 28.5t35.5 79.5q0 52 -35.5 81t-98.5 29q-62 0 -98 -29t-36 -81q0 -51 35.5 -79.5t98.5 -28.5zM293 -13q-60 0 -107 16t-80 44.5t-50.5 66.5 t-17.5 83q0 57 30.5 106.5t96.5 76.5q-47 21 -74 58t-27 91q0 41 17.5 75t48 58t72.5 37.5t91 13.5t91 -13.5t73 -37.5t48.5 -58t17.5 -75q0 -54 -27 -91t-74 -58q66 -27 96.5 -76.5t30.5 -106.5q0 -45 -17.5 -83t-50.5 -66.5t-80.5 -44.5t-107.5 -16z" />
<glyph unicode="9" d="M162 0q34 27 72 62.5t73.5 75.5t64.5 81.5t46 80.5q-15 -16 -34.5 -27t-41 -18t-43 -10t-40.5 -3q-48 0 -89 16.5t-71.5 46.5t-48 72.5t-17.5 94.5q0 53 18.5 97t52 76t80.5 50t105 18q57 0 104 -17.5t80.5 -50.5t52 -81.5t18.5 -109.5q0 -65 -19.5 -125.5t-53.5 -117 t-79.5 -109t-97.5 -102.5h-132zM448 474q0 69 -41.5 112t-118.5 43t-117 -43t-40 -112t40 -110.5t117 -41.5t118.5 42t41.5 110z" />
<glyph unicode=":" horiz-adv-x="287" d="M91 0v105h105v-105h-105zM91 410v105h105v-105h-105z" />
<glyph unicode=";" horiz-adv-x="284" d="M196 7q0 -48 -19.5 -86t-58.5 -72l-31 33q27 23 41 48.5t14 48.5v21h-51v105h105v-98zM91 410v105h105v-105h-105z" />
<glyph unicode="&#x3c;" d="M393 26l-280 279l280 280l52 -53l-227 -227l227 -226z" />
<glyph unicode="=" d="M56 364v75h475v-75h-475zM56 169v76h475v-76h-475z" />
<glyph unicode="&#x3e;" d="M193 26l-51 53l227 226l-227 227l51 53l280 -280z" />
<glyph unicode="?" horiz-adv-x="495" d="M458 514q0 -44 -16 -80t-44 -62t-66 -42.5t-83 -22.5v-106h-83v181q10 -2 19 -2.5t17 -0.5q35 0 64.5 9t51 25.5t33.5 41t12 55.5q0 52 -34.5 86t-100.5 34q-46 0 -83.5 -16.5t-69.5 -46.5l-52 63q45 39 97 61t115 22q47 0 87.5 -13.5t70.5 -39t47.5 -62.5t17.5 -84z M157 0v110h99v-110h-99z" />
<glyph unicode="@" horiz-adv-x="864" d="M552 184q-25 -38 -62 -56t-80 -18q-41 0 -74 15.5t-56 43t-35.5 65t-12.5 80.5t12.5 80t36 64.5t56.5 43t75 15.5q36 0 67.5 -13t57.5 -45v50h74v-275q0 -28 13.5 -47t48.5 -19q50 0 74 41.5t24 107.5q0 70 -24 131.5t-68 107t-105 71.5t-136 26t-136.5 -27t-106 -73.5 t-68.5 -107.5t-24 -130t24.5 -130t68.5 -106.5t105.5 -72t135.5 -26.5q45 0 86.5 10.5t79.5 32.5l29 -53q-43 -23 -92.5 -36.5t-106.5 -13.5q-87 0 -160 31t-126 84t-82.5 125t-29.5 155q0 82 29.5 154.5t82.5 126.5t127 85.5t163 31.5q88 0 161.5 -31.5t126 -84.5 t82 -123.5t29.5 -148.5q0 -48 -12 -87.5t-33.5 -67t-52.5 -42.5t-69 -15q-33 0 -66 15t-51 56zM537 314q0 28 -7.5 53t-22 43.5t-36 29t-49.5 10.5q-56 0 -83.5 -39.5t-27.5 -96.5q0 -28 7 -53t20.5 -43.5t34.5 -29.5t49 -11t50 11t36 29.5t21.5 43.5t7.5 53z" />
<glyph unicode="A" horiz-adv-x="678" d="M573 0l-77 198h-317l-79 -198h-98l283 700h108l283 -700h-103zM339 613l-130 -333h257z" />
<glyph unicode="B" horiz-adv-x="672" d="M629 201q0 -42 -14 -78.5t-42.5 -63.5t-72 -43t-102.5 -16h-313v700h290q108 0 166.5 -43.5t58.5 -122.5q0 -54 -25 -92t-67 -61q60 -25 90.5 -71.5t30.5 -108.5zM506 520q0 50 -33.5 72.5t-100.5 22.5h-195v-205h202q61 0 94 29.5t33 80.5zM533 205q0 54 -32.5 89 t-100.5 35h-223v-244h218q67 0 102.5 31.5t35.5 88.5z" />
<glyph unicode="C" horiz-adv-x="683" d="M579 523q-32 50 -81.5 77t-116.5 27q-55 0 -100 -19.5t-76.5 -55.5t-48.5 -87t-17 -114t17 -114.5t48.5 -87.5t76 -56t98.5 -20q66 0 116.5 28t82.5 78l77 -49q-45 -67 -114.5 -105t-160.5 -38q-77 0 -139.5 27.5t-107 76t-68.5 115t-24 144.5q0 79 24 145.5t68.5 115 t106.5 75.5t139 27q91 0 158.5 -36.5t114.5 -102.5z" />
<glyph unicode="D" horiz-adv-x="735" d="M355 86q58 0 103 19t75.5 53.5t46 83t15.5 108.5t-15.5 108.5t-46 83t-75.5 53.5t-103 19h-177v-528h177zM85 0v700h270q81 0 144 -26.5t106 -73.5t65.5 -111t22.5 -139t-22.5 -139t-65.5 -111t-106 -73.5t-144 -26.5h-270z" />
<glyph unicode="E" horiz-adv-x="635" d="M85 0v700h503v-86h-410v-203h349v-81h-349v-244h410v-86h-503z" />
<glyph unicode="F" horiz-adv-x="610" d="M178 614v-207h348v-81h-348v-326h-93v700h503v-86h-410z" />
<glyph unicode="G" horiz-adv-x="736" d="M382 713q89 0 157 -36.5t113 -101.5l-75 -49q-32 48 -82 74.5t-116 26.5q-56 0 -100.5 -20t-75.5 -56.5t-47.5 -87.5t-16.5 -112q0 -63 16.5 -114.5t48 -88t76 -57t101.5 -20.5q47 0 87 14.5t70 41t48 64.5t21 85h-207v82h300q2 -11 3 -23t1 -26q0 -65 -21.5 -123.5 t-62.5 -102.5t-101 -70t-137 -26q-78 0 -141 27.5t-107.5 76t-68.5 115.5t-24 145q0 79 24 145.5t68.5 114.5t107.5 75t141 27z" />
<glyph unicode="H" horiz-adv-x="744" d="M566 0v328h-389v-328h-92v700h92v-287h389v287h92v-700h-92z" />
<glyph unicode="I" horiz-adv-x="263" d="M85 0v700h92v-700h-92z" />
<glyph unicode="J" horiz-adv-x="498" d="M420 218q0 -56 -16 -99.5t-45.5 -72.5t-70.5 -44t-91 -15q-62 0 -111.5 24.5t-82.5 77.5l76 47q23 -33 53.5 -48t68.5 -15q69 0 97.5 39.5t28.5 104.5v483h93v-482v0z" />
<glyph unicode="K" horiz-adv-x="653" d="M548 0l-246 336l-125 -137v-199h-92v700h92v-381l346 381h112l-270 -297l298 -403h-115z" />
<glyph unicode="L" horiz-adv-x="588" d="M85 0v700h92v-614h391v-86h-483z" />
<glyph unicode="M" horiz-adv-x="899" d="M724 0v604l-234 -604h-81l-234 604v-604h-90v700h140l227 -584l227 584h135v-700h-90z" />
<glyph unicode="N" horiz-adv-x="738" d="M543 0l-369 584v-584h-89v700h119l360 -571v571h89v-700h-110z" />
<glyph unicode="O" horiz-adv-x="762" d="M722 350q0 -77 -24 -143.5t-68.5 -115.5t-107.5 -76.5t-141 -27.5t-141 27.5t-107.5 76.5t-68.5 115.5t-24 143.5q0 78 24 144t68.5 115t107.5 76.5t141 27.5t141 -27.5t107.5 -76.5t68.5 -115t24 -144zM624 350q0 61 -16.5 112t-48 87.5t-76.5 56.5t-102 20t-102 -20 t-76 -56.5t-47.5 -87.5t-16.5 -112t16.5 -111.5t47.5 -87t76 -57t102 -20.5t102 20.5t76.5 57t48 87t16.5 111.5z" />
<glyph unicode="P" horiz-adv-x="643" d="M622 485q0 -49 -16 -88.5t-47 -67.5t-77 -43.5t-106 -15.5h-199v-270h-92v700h291q60 0 106 -15.5t77 -43.5t47 -68t16 -88zM377 355q76 0 112.5 35.5t36.5 94.5q0 60 -36.5 94.5t-112.5 34.5h-200v-259h200z" />
<glyph unicode="Q" horiz-adv-x="762" d="M722 350q0 -86 -30 -157.5t-84 -121.5l79 -95l-63 -52l-84 101q-68 -38 -159 -38q-78 0 -141 27.5t-107.5 76.5t-68.5 115.5t-24 143.5q0 78 24 144t68.5 115t107.5 76.5t141 27.5t141 -27.5t107.5 -76.5t68.5 -115t24 -144zM624 350q0 61 -16.5 111.5t-48 87t-76.5 57 t-102 20.5t-102 -20.5t-76 -57t-47.5 -87t-16.5 -111.5q0 -60 16.5 -111t47.5 -87.5t76 -57t102 -20.5q55 0 101 22l-74 92l61 50l79 -96q37 36 56.5 89t19.5 119z" />
<glyph unicode="R" horiz-adv-x="672" d="M536 0l-151 285h-208v-285h-92v700h304q54 0 97 -14.5t73.5 -41t46.5 -64t16 -83.5q0 -74 -40.5 -123.5t-104.5 -71.5l165 -302h-106zM526 490q0 57 -38 90.5t-101 33.5h-210v-246h214q63 0 99 34t36 88z" />
<glyph unicode="S" horiz-adv-x="611" d="M303 713q80 0 147 -31.5t112 -91.5l-72 -50q-34 43 -82.5 66.5t-109.5 23.5q-28 0 -54 -5.5t-45.5 -18t-31.5 -32.5t-12 -49t12.5 -47.5t34.5 -31t51.5 -21t63.5 -16.5q50 -12 96 -26t81.5 -37t56.5 -58t21 -87q0 -48 -18.5 -87.5t-53 -67.5t-83 -43.5t-109.5 -15.5 q-98 0 -170 39.5t-111 102.5l78 51q35 -58 92 -84t119 -26q73 0 117.5 32.5t44.5 91.5q0 32 -14.5 52.5t-40 33.5t-60 22t-75.5 18q-43 9 -84 22t-73 35t-51.5 55.5t-19.5 83.5q0 47 18.5 83.5t51 62t77 38.5t96.5 13z" />
<glyph unicode="T" horiz-adv-x="603" d="M348 614v-614h-93v614h-240v86h573v-86h-240z" />
<glyph unicode="U" horiz-adv-x="723" d="M647 263q0 -63 -21.5 -114t-59.5 -87t-90.5 -55.5t-114.5 -19.5t-114.5 19.5t-90.5 55.5t-59 87t-21 114v437h92v-437q0 -86 51 -137.5t142 -51.5q44 0 80 13.5t61.5 38t39 59.5t13.5 78v437h92v-437z" />
<glyph unicode="V" horiz-adv-x="640" d="M637 700l-268 -700h-97l-270 700h100l218 -591l221 591h96z" />
<glyph unicode="W" horiz-adv-x="970" d="M756 0h-105l-167 577l-166 -577h-107l-193 700h98l153 -584l173 584h90l172 -585l151 585h97z" />
<glyph unicode="X" horiz-adv-x="657" d="M545 0l-217 295l-220 -295h-110l273 364l-252 336h111l199 -274l200 274h108l-250 -336l272 -364h-114z" />
<glyph unicode="Y" horiz-adv-x="621" d="M357 287v-287h-93v287l-268 413h109l207 -329l208 329h106z" />
<glyph unicode="Z" horiz-adv-x="608" d="M32 0v79l412 535h-396v86h516v-77l-413 -537h421v-86h-540z" />
<glyph unicode="[" horiz-adv-x="290" d="M75 -114v864h216v-69h-137v-725h137v-70h-216z" />
<glyph unicode="\" horiz-adv-x="340" d="M243 -108l-220 822h71l220 -822h-71z" />
<glyph unicode="]" horiz-adv-x="291" d="M-1 -114v70h138v725h-138v69h217v-864h-217z" />
<glyph unicode="^" d="M507 384l-212 213l-214 -213l-52 53l229 229h72l229 -229z" />
<glyph unicode="_" horiz-adv-x="592" d="M-2 -125v50h597v-50h-597z" />
<glyph unicode="`" horiz-adv-x="306" d="M195 593q-23 13 -46 31t-43.5 38t-36.5 40.5t-25 39.5l92 14q7 -14 18 -31t24.5 -34.5t27 -34.5t27.5 -32z" />
<glyph unicode="a" horiz-adv-x="642" d="M549 116q0 -29 9 -42.5t31 -13.5q19 0 32 8l11 -66q-14 -5 -30.5 -7.5t-29.5 -2.5q-37 0 -67.5 20t-38.5 68q-35 -52 -85 -72t-101 -20q-57 0 -102 21t-76 57.5t-47.5 84.5t-16.5 105q0 58 16.5 107t47.5 85.5t75 57.5t100 21q54 0 101 -22.5t84 -75.5v86h87v-399z M462 257q0 40 -11 74t-32 59.5t-52.5 40.5t-72.5 15t-72 -15t-51.5 -41t-30.5 -59.5t-10 -73.5t10 -73.5t30 -59.5t51 -41t72 -15q42 0 73.5 15t52.5 41t32 59.5t11 73.5z" />
<glyph unicode="b" horiz-adv-x="619" d="M157 714v-284q37 53 84.5 75t100.5 22q56 0 100.5 -20.5t75 -56.5t47 -85.5t16.5 -106.5t-16.5 -106.5t-47.5 -86t-75.5 -57t-99.5 -20.5q-54 0 -101 22.5t-84 74.5v-85h-86v714h86zM157 257q0 -40 11 -74.5t32.5 -60t53 -40.5t72.5 -15t72 15t51.5 40.5t30.5 60t10 74.5 q0 39 -10 74t-30.5 61t-51 41t-72.5 15q-41 0 -72.5 -15t-53 -41t-32.5 -61t-11 -74z" />
<glyph unicode="c" horiz-adv-x="525" d="M499 96q-33 -47 -85.5 -77.5t-124.5 -30.5q-58 0 -104.5 20.5t-79 56.5t-50 85.5t-17.5 107.5q0 57 17.5 106.5t50.5 85.5t79.5 56.5t103.5 20.5q70 0 122.5 -29.5t86.5 -78.5l-67 -47q-23 35 -57.5 56t-81.5 21q-38 0 -68 -14.5t-51 -40t-32.5 -60.5t-11.5 -76 t11.5 -76.5t32.5 -61t51 -40t67 -14.5q50 0 85 22.5t58 55.5z" />
<glyph unicode="d" horiz-adv-x="619" d="M462 0v85q-37 -53 -84.5 -75t-100.5 -22q-56 0 -100 20.5t-75 57t-47.5 85.5t-16.5 106t16.5 106.5t47.5 86t75 57t100 20.5q54 0 101 -22.5t84 -74.5v284h86v-714h-86zM462 258q0 40 -11 74.5t-32.5 60t-53 40.5t-72.5 15t-72 -15t-51.5 -40.5t-30.5 -60.5t-10 -74 t10 -74t30.5 -61t51 -41t72.5 -15t73.5 15t52.5 41t32 60.5t11 74.5z" />
<glyph unicode="e" horiz-adv-x="572" d="M540 273q0 -12 -0.5 -20t-1.5 -13h-409q0 -31 10 -61t27 -50q48 -62 139 -62t155 67l57 -56q-40 -42 -92.5 -66t-121.5 -24q-63 0 -112.5 20.5t-83.5 56.5t-51.5 85t-17.5 106t17.5 106.5t50.5 86t80 57.5t106 21q57 0 103 -19.5t78.5 -53.5t49.5 -80.5t17 -100.5z M451 304q0 20 -6 37.5t-14 33.5q-21 39 -58 59t-82 20q-34 0 -62.5 -11t-49 -30.5t-33 -47.5t-15.5 -61h320z" />
<glyph unicode="f" horiz-adv-x="336" d="M331 643q-12 3 -28 6t-36 3q-36 0 -54.5 -15.5t-18.5 -53.5v-68h123v-73h-123v-442h-86v442h-89v73h89v67q0 73 42 108t113 35q22 0 43.5 -3t35.5 -8z" />
<glyph unicode="g" horiz-adv-x="621" d="M551 82q0 -60 -12.5 -105t-43.5 -80q-38 -43 -94.5 -62t-124.5 -19q-125 0 -216 62l43 69q36 -25 79.5 -39t95.5 -14q39 0 73.5 9.5t59.5 30.5t39.5 53.5t14.5 77.5v56q-32 -50 -83 -73.5t-107 -23.5q-53 0 -96 19t-74 52t-48 79t-17 100q0 55 17.5 101t49.5 80t75.5 53 t96.5 19q56 0 105 -23.5t81 -73.5v85h86v-433zM466 277q0 36 -11 67.5t-32.5 55t-53.5 37t-74 13.5t-72.5 -13.5t-51 -37t-30.5 -55t-10 -67.5t10 -68t30.5 -56t51.5 -38t72 -14t73 14t53.5 38t33 56t11.5 68z" />
<glyph unicode="h" horiz-adv-x="583" d="M70 0v714h86v-285q32 48 76.5 73t101.5 25q85 0 133.5 -51.5t48.5 -144.5v-331h-86v311q0 23 -4.5 47.5t-17 44t-35 32t-59.5 12.5q-34 0 -63 -12t-50 -33.5t-33 -51.5t-12 -66v-284h-86z" />
<glyph unicode="i" horiz-adv-x="228" d="M71 0v515h86v-515h-86zM71 627v87h86v-87h-86z" />
<glyph unicode="j" horiz-adv-x="228" d="M157 -1q0 -46 -13 -80t-36 -56.5t-55 -33.5t-69 -11q-24 0 -45.5 4t-36.5 11l23 72q22 -11 55 -11q51 0 71 28t20 75v518h86v-516zM71 627v87h86v-87h-86z" />
<glyph unicode="k" horiz-adv-x="553" d="M419 515h109l-211 -211l238 -304h-109l-189 248l-100 -101v-147h-86v714h86v-466z" />
<glyph unicode="l" horiz-adv-x="233" d="M73 0v714h86v-714h-86z" />
<glyph unicode="m" horiz-adv-x="902" d="M70 0v515h86v-84q33 47 73.5 71.5t95.5 24.5q57 0 97 -27t57 -78q32 49 78.5 77t105.5 28q83 0 128.5 -51t44.5 -142v-334h-86v313q0 25 -3.5 49t-15.5 43t-33 30.5t-55 11.5q-32 0 -58.5 -11.5t-46 -32.5t-30.5 -50.5t-11 -65.5v-287h-87v313q0 25 -4 49t-15.5 43 t-32.5 30.5t-55 11.5q-32 0 -58.5 -11.5t-46 -32.5t-31 -50.5t-11.5 -65.5v-287h-86z" />
<glyph unicode="n" horiz-adv-x="583" d="M70 0v515h86v-86q32 48 76.5 73t101.5 25q85 0 133.5 -51.5t48.5 -144.5v-331h-86v311q0 23 -4.5 47.5t-17 44t-35 32t-59.5 12.5q-34 0 -63 -12t-50 -33.5t-33 -51.5t-12 -66v-284h-86z" />
<glyph unicode="o" horiz-adv-x="586" d="M549 257q0 -58 -18 -107t-51 -85t-80.5 -56.5t-106.5 -20.5t-106 20.5t-80 56.5t-51 85t-18 107t18 107.5t51 85.5t80 56.5t106 20.5t106.5 -20.5t80.5 -56.5t51 -85.5t18 -107.5zM457 257q0 41 -11 76t-32 61t-51.5 41t-69.5 15t-69.5 -15t-51.5 -41t-32 -61t-11 -76 q0 -40 11 -75.5t32 -61t51.5 -40.5t69.5 -15t69.5 15t51.5 40.5t32 61t11 75.5z" />
<glyph unicode="p" horiz-adv-x="619" d="M157 515v-85q37 53 84.5 75t100.5 22q56 0 100.5 -20.5t75 -57t47 -85.5t16.5 -106t-16.5 -106.5t-47.5 -86t-75.5 -57t-99.5 -20.5q-54 0 -101 22.5t-84 73.5v-258h-86v689h86zM157 257q0 -40 11 -74.5t32.5 -60t53 -40.5t72.5 -15t72 15t51.5 40.5t30.5 60.5t10 74 t-10 74t-30.5 61t-51 41t-72.5 15t-73.5 -15t-52.5 -41t-32 -60.5t-11 -74.5z" />
<glyph unicode="q" horiz-adv-x="619" d="M462 -174v259q-37 -53 -84.5 -75t-100.5 -22q-56 0 -100 20.5t-75 57t-47.5 85.5t-16.5 106t16.5 106.5t47.5 86t75 57t100 20.5q54 0 101 -22t84 -75v85h86v-689h-86zM462 258q0 40 -11 74.5t-32.5 60t-53 40.5t-72.5 15t-72 -15t-51.5 -40.5t-30.5 -60t-10 -74.5 q0 -39 10 -74t30.5 -61t51 -41t72.5 -15t73.5 15t52.5 41t32 61t11 74z" />
<glyph unicode="r" horiz-adv-x="386" d="M352 425q-14 7 -28.5 11t-31.5 4q-26 0 -50.5 -11.5t-43.5 -33t-30 -54t-11 -74.5v-267h-86v515h86v-88q26 42 64.5 70t86.5 28q23 0 41.5 -5.5t29.5 -13.5z" />
<glyph unicode="s" horiz-adv-x="503" d="M468 152q0 -73 -56 -118.5t-156 -45.5q-77 0 -135 27.5t-94 78.5l60 50q30 -41 73.5 -62.5t98.5 -21.5q52 0 88 21t36 65q0 20 -8.5 32.5t-26 21.5t-44.5 15t-65 14q-36 7 -69.5 16.5t-59 26t-40.5 41.5t-15 63q0 40 16 68.5t42.5 47t61 27t72.5 8.5q37 0 68.5 -7t58 -19 t47.5 -27t36 -31l-57 -54q-29 34 -68.5 50t-84.5 16q-21 0 -41 -4t-35 -12t-24.5 -22t-9.5 -33q0 -20 10.5 -33t28 -22t41 -14.5t49.5 -10.5q39 -7 75.5 -16t64.5 -25.5t45 -43t17 -67.5z" />
<glyph unicode="t" horiz-adv-x="395" d="M388 23q-45 -35 -113 -35q-46 0 -80.5 16t-55.5 50q-12 19 -17 42.5t-4 60.5v286h-110v72h110v185h86v-185h168v-72h-168v-286q0 -90 80 -90q23 0 39.5 7t27.5 15z" />
<glyph unicode="u" horiz-adv-x="582" d="M512 515v-515h-86v86q-33 -48 -77 -73t-101 -25q-85 0 -134 51.5t-49 145.5v330h86v-310q0 -24 4.5 -48t17 -44t35.5 -32.5t59 -12.5q34 0 63 12t50.5 33.5t33.5 51.5t12 66v284h86z" />
<glyph unicode="v" horiz-adv-x="520" d="M304 0h-89l-208 515h97l157 -412l157 412h95z" />
<glyph unicode="w" horiz-adv-x="770" d="M606 0h-94l-127 406l-127 -406h-95l-143 515h91l106 -413l130 413h80l129 -413l106 413h88z" />
<glyph unicode="x" horiz-adv-x="522" d="M409 0l-148 208l-149 -208h-105l201 269l-183 246h104l135 -189l132 189h102l-182 -246l198 -269h-105z" />
<glyph unicode="y" horiz-adv-x="590" d="M433 122q-33 -47 -77 -72t-101 -25q-85 0 -133.5 51.5t-48.5 145.5v293h87v-273q0 -23 4.5 -47t17 -43.5t35 -32t58.5 -12.5q34 0 63 11.5t50 33t33 51.5t12 66v246h87v-453q0 -53 -11.5 -95t-41.5 -75q-32 -36 -82.5 -56t-119.5 -20q-62 0 -111 16.5t-89 45.5l43 69 q36 -29 77 -40.5t82 -11.5q33 0 63.5 8t53 26t36 46.5t13.5 69.5v77z" />
<glyph unicode="z" horiz-adv-x="490" d="M33 0v70l307 368h-294v77h403v-69l-308 -370h317v-76h-425z" />
<glyph unicode="{" horiz-adv-x="353" d="M317 -120q-39 0 -71.5 12t-56.5 34.5t-37 56t-13 77.5v117q0 47 -20.5 77t-75.5 30h-29v69h29q55 0 75.5 30t20.5 77v117q0 43 13 77t37 56.5t56.5 34.5t71.5 12h39v-70h-38q-54 0 -76 -29.5t-22 -78.5v-113q0 -59 -23.5 -95t-65.5 -53q42 -16 65.5 -52t23.5 -95v-113 q0 -49 22 -78.5t76 -29.5h38v-70h-39z" />
<glyph unicode="|" horiz-adv-x="211" d="M73 -108v822h66v-822h-66z" />
<glyph unicode="}" horiz-adv-x="353" d="M311 284q-55 0 -76 -29.5t-21 -77.5v-117q0 -88 -49.5 -134t-128.5 -46h-39v70h38q56 0 78 29.5t22 78.5v113q0 59 22.5 95t64.5 52q-42 17 -64.5 53t-22.5 95v113q0 49 -22 78.5t-78 29.5h-38v70h39q79 0 128.5 -46t49.5 -134v-117q0 -48 21 -77.5t76 -29.5h28v-69h-28z " />
<glyph unicode="~" d="M42 275q24 27 44.5 47t40.5 34t41 21t47 7q15 0 32 -4.5t43 -20.5q23 -15 38 -24t25.5 -14t17.5 -6.5t15 -1.5q28 0 53.5 17t60.5 55l48 -40q-24 -27 -44.5 -47.5t-40.5 -34t-41.5 -20.5t-46.5 -7q-15 0 -32 4t-43 21q-26 14 -41 23t-24.5 14t-15.5 7t-15 2 q-28 0 -53 -17.5t-61 -55.5z" />
<glyph unicode="&#xa1;" horiz-adv-x="251" d="M76 -174v148l26 338h47l26 -338v-148h-99zM76 405v110h99v-110h-99z" />
<glyph unicode="&#xa2;" d="M523 102q-29 -45 -74.5 -75.5t-108.5 -37.5v-83h-54v84q-52 4 -93.5 26.5t-70.5 58.5t-44.5 83.5t-15.5 101.5t15.5 101.5t44 83t70 58t94.5 27.5v83h54v-82q60 -6 106 -35t76 -76l-70 -42q-19 30 -47 49.5t-65 24.5v-385q38 6 66.5 26.5t45.5 49.5zM150 260 q0 -38 9.5 -70.5t27 -58t42.5 -42t57 -21.5v384q-32 -5 -57.5 -21.5t-43 -42t-26.5 -58.5t-9 -70z" />
<glyph unicode="&#xa3;" d="M578 99q-24 -58 -60 -85t-81 -27q-26 0 -51.5 7t-51.5 15t-52.5 15t-54.5 7q-29 0 -71.5 -9.5t-87.5 -34.5l-33 66q64 39 87.5 78.5t23.5 78.5q0 18 -4.5 40.5t-14.5 45.5h-108v65h84q-10 25 -17 44.5t-12 36t-7.5 31.5t-2.5 32q0 49 18 87.5t50 65.5t75.5 41.5 t94.5 14.5q80 0 139.5 -34t101.5 -97l-78 -46q-25 39 -65 64t-97 25q-30 0 -56.5 -8t-46 -23.5t-30.5 -39t-11 -54.5q0 -38 14 -73t27 -67h212v-65h-193q6 -19 9 -39.5t1 -37.5q-1 -28 -13 -61t-47 -71q26 11 45 16t42 5q26 0 49 -5t43.5 -11.5t39.5 -11.5t39 -5 q31 0 48.5 15t31.5 49l71 -40v0z" />
<glyph unicode="&#xa4;" d="M172 304q0 -26 9.5 -48t26 -38.5t38.5 -26t48 -9.5q25 0 47.5 9.5t39 26t26 38.5t9.5 48q0 25 -9.5 47.5t-26 39t-39 26t-47.5 9.5q-26 0 -48 -9.5t-38.5 -26t-26 -39t-9.5 -47.5zM105 304q0 29 8.5 55t22.5 48l-71 73l53 54l72 -73q22 15 48.5 23.5t55.5 8.5t55 -8.5 t48 -23.5l72 73l54 -54l-72 -72q15 -23 23.5 -49t8.5 -55t-8.5 -55.5t-23.5 -48.5l72 -71l-54 -55l-71 72q-23 -14 -49 -22.5t-55 -8.5t-55.5 8.5t-48.5 22.5l-72 -72l-53 55l71 71q-14 22 -22.5 48.5t-8.5 55.5z" />
<glyph unicode="&#xa5;" d="M385 365h142v-54h-171l-16 -26v-65h187v-54h-187v-166h-93v166h-188v54h188v65l-16 26h-172v54h144l-184 336h108l170 -332l167 332h106z" />
<glyph unicode="&#xa6;" horiz-adv-x="209" d="M74 400v314h61v-314h-61zM74 -108v314h61v-314h-61z" />
<glyph unicode="&#xa7;" horiz-adv-x="527" d="M492 140q0 -57 -18.5 -106t-53 -85.5t-84 -57t-110.5 -20.5q-51 0 -96.5 14.5t-80.5 43.5l49 64q25 -22 56.5 -33.5t72.5 -11.5q103 0 151 81q-22 14 -44.5 28t-44.5 28l-46 28q-41 26 -79.5 55.5t-67.5 65t-46.5 79.5t-17.5 98q0 57 18.5 106t53.5 85t84 56.5t111 20.5 q51 0 96.5 -15t80.5 -43l-50 -64q-24 21 -55.5 33t-72.5 12q-103 0 -151 -80q22 -14 44 -28.5t45 -28.5l52 -33q44 -28 81 -57.5t64.5 -64.5t43 -76.5t15.5 -93.5zM410 140q0 42 -13 75.5t-38 63t-62 58t-85 62.5l-91 64q-2 -11 -3.5 -19t-1.5 -15q-1 -7 -1 -13v-11 q1 -42 13.5 -74.5t37.5 -61.5t61.5 -57t84.5 -61l93 -63q3 20 4 31t1 21z" />
<glyph unicode="&#xa8;" horiz-adv-x="306" d="M2 606v82h80v-82h-80zM224 606v82h80v-82h-80z" />
<glyph unicode="&#xa9;" horiz-adv-x="803" d="M771 350q0 -76 -29 -143t-79.5 -117.5t-117.5 -79.5t-143 -29q-77 0 -144 29t-117.5 79.5t-79.5 117.5t-29 143t29 143.5t79.5 117.5t117.5 79t144 29q76 0 143 -29t117.5 -79t79.5 -117.5t29 -143.5zM715 350q0 65 -24.5 122.5t-67 100t-99.5 67.5t-122 25t-122.5 -25 t-100.5 -67.5t-68 -100t-25 -122.5t25 -122t68 -100t100.5 -67.5t122.5 -24.5t122 24.5t99.5 67.5t67 100t24.5 122zM583 243q-29 -48 -76.5 -75t-104.5 -27q-44 0 -82 16.5t-66.5 45t-45 66.5t-16.5 81t16.5 81.5t45 67t66.5 45t82 16.5q56 0 103 -26.5t77 -74.5l-54 -36 q-20 35 -53.5 53.5t-72.5 18.5q-30 0 -56.5 -11.5t-46.5 -31t-31.5 -46t-11.5 -56.5t11.5 -56t31.5 -46t46.5 -31.5t56.5 -11.5q40 0 73 19.5t55 53.5z" />
<glyph unicode="&#xaa;" horiz-adv-x="423" d="M384 337q-8 -5 -21 -6.5t-21 -1.5q-25 0 -44.5 11t-24.5 38q-23 -31 -53.5 -41.5t-63.5 -10.5q-50 0 -83 27t-33 75q0 38 16.5 58t41.5 29.5t54 12.5t54 6.5t41.5 11.5t16.5 28q0 12 -6.5 20.5t-17 13.5t-24 7t-26.5 2q-27 0 -54.5 -8.5t-50.5 -25.5l-31 45 q31 22 66 33.5t73 11.5q72 0 104.5 -31t32.5 -99v-131q0 -17 5 -24t19 -7q3 0 9.5 1.5t11.5 3.5zM266 509q-15 -14 -34 -17.5t-50 -9.5q-17 -3 -31 -5.5t-24.5 -8t-16.5 -14t-6 -23.5q0 -26 20 -38t46 -12q18 0 35.5 5t31 15t21.5 25.5t8 36.5v46z" />
<glyph unicode="&#xab;" horiz-adv-x="449" d="M24 274l143 192l52 -39l-122 -167l122 -167l-52 -39l-143 192v28zM212 274l143 192l51 -39l-122 -167l122 -167l-51 -39l-143 192v28z" />
<glyph unicode="&#xac;" d="M451 67v199h-401v76h476v-275h-75z" />
<glyph unicode="&#xad;" horiz-adv-x="380" d="M56 242v78h268v-78h-268z" />
<glyph unicode="&#xae;" horiz-adv-x="803" d="M771 350q0 -76 -29 -143t-79.5 -117.5t-117.5 -79.5t-143 -29q-77 0 -144 29t-117.5 79.5t-79.5 117.5t-29 143t29 143.5t79.5 117.5t117.5 79t144 29q76 0 143 -29t117.5 -79t79.5 -117.5t29 -143.5zM716 350q0 65 -24.5 122.5t-67.5 100t-100 67.5t-122 25t-122.5 -25 t-100.5 -67.5t-68 -100t-25 -122.5t25 -122t68 -100t100.5 -67.5t122.5 -24.5t122 24.5t100 67.5t67.5 100t24.5 122zM504 150l-83 153h-101v-153h-67v402h174q63 0 101.5 -33.5t38.5 -90.5q0 -42 -23 -71.5t-57 -41.5l90 -165h-73zM499 427q0 31 -19 50t-54 19h-106v-138 h106q36 0 54.5 19.5t18.5 49.5z" />
<glyph unicode="&#xaf;" horiz-adv-x="310" d="M6 621v58h300v-58h-300z" />
<glyph unicode="&#xb0;" horiz-adv-x="368" d="M334 527q0 -31 -12 -58t-32.5 -47.5t-47.5 -32t-58 -11.5t-58.5 11.5t-47.5 32t-32 47.5t-12 58t12 58.5t32 48t47.5 32.5t58.5 12t58 -12t47.5 -32.5t32.5 -48t12 -58.5zM276 527q0 19 -7 36t-19.5 29.5t-29.5 20t-36 7.5t-35.5 -7.5t-29 -20t-20 -29.5t-7.5 -36 q0 -18 7.5 -34.5t20 -29t29 -20t35.5 -7.5t36 7.5t29.5 20t19.5 29t7 34.5z" />
<glyph unicode="&#xb1;" d="M56 0v75h475v-75h-475zM331 338v-194h-76v194h-200v74h200v195h76v-195h200v-74h-200z" />
<glyph unicode="&#xb2;" horiz-adv-x="366" d="M31 337v52q62 49 104.5 85t69 64t38 50.5t11.5 43.5q0 35 -26 53t-59 18q-31 0 -56 -15.5t-40 -38.5l-55 33q28 38 66.5 61.5t89.5 23.5q33 0 60.5 -9t47.5 -25.5t31.5 -41.5t11.5 -56q0 -29 -9 -53t-30.5 -50t-57 -57.5t-89.5 -74.5h203v-63h-311z" />
<glyph unicode="&#xb3;" horiz-adv-x="373" d="M342 457q0 -29 -11.5 -52.5t-32.5 -40t-49.5 -26t-62.5 -9.5q-58 0 -100 21.5t-67 70.5l63 25q17 -31 45 -42.5t60 -11.5q40 0 62 19.5t22 49.5q0 28 -19.5 43.5t-54.5 15.5h-56v62h53q10 0 22 3t22 10.5t16.5 18.5t6.5 28q0 32 -25.5 46.5t-57.5 14.5q-66 0 -99 -47 l-53 33q55 78 156 78q31 0 57.5 -7.5t46.5 -22.5t31.5 -36.5t11.5 -49.5q0 -29 -11.5 -53t-39.5 -39q37 -14 50.5 -43.5t13.5 -58.5z" />
<glyph unicode="&#xb4;" horiz-adv-x="306" d="M82 624q14 15 27.5 32t27 34.5t24.5 34.5t18 31l92 -14q-9 -19 -25 -39.5t-36.5 -40.5t-43.5 -38t-46 -31z" />
<glyph unicode="&#xb5;" d="M55 -174v689h86v-306q0 -68 28 -105t88 -37q30 0 57 10.5t47 31t31.5 51t11.5 70.5v285h86v-400q0 -27 8 -41t28 -14q7 0 15 1.5t12 4.5l10 -65q-11 -5 -26.5 -7t-26.5 -2q-39 0 -67 21.5t-31 64.5q-31 -48 -73 -69t-85 -21q-40 0 -69.5 16t-43.5 40v-218h-86z" />
<glyph unicode="&#xb6;" horiz-adv-x="542" d="M419 -91v702h-65v-702h-62v349h-59q-44 0 -81 14.5t-65 41t-43.5 64t-15.5 84.5t16.5 84.5t44 64t65 41t79.5 14.5h236v-757h-50z" />
<glyph unicode="&#xb7;" horiz-adv-x="245" d="M185 304q0 -26 -18 -44t-44 -18t-44 18t-18 44t18 44.5t44 18.5t44 -18.5t18 -44.5z" />
<glyph unicode="&#xb8;" horiz-adv-x="306" d="M46 -84q12 -11 28.5 -19.5t35.5 -8.5q20 0 34.5 11.5t14.5 31.5q0 41 -54 72l25 16q41 -15 67 -42t26 -62q0 -38 -29.5 -60.5t-71.5 -22.5q-24 0 -44.5 7t-31.5 17v60z" />
<glyph unicode="&#xb9;" horiz-adv-x="310" d="M141 398v280q-18 -8 -48 -15t-60 -11l-9 53q48 10 80.5 22.5t53.5 31.5h51v-361h95v-61h-271v61h108z" />
<glyph unicode="&#xba;" horiz-adv-x="410" d="M375 500q0 -37 -12 -68.5t-34 -55t-53.5 -36.5t-70.5 -13t-70.5 13t-53.5 36.5t-34 55t-12 68.5q0 38 12 70t34 55t53.5 36t70.5 13t70.5 -13t53.5 -36t34 -55t12 -70zM308 500q0 49 -27 82t-76 33t-76 -33t-27 -82q0 -24 7 -44.5t20 -36t32.5 -24.5t43.5 -9t43.5 9 t32.5 24.5t20 36t7 44.5z" />
<glyph unicode="&#xbb;" horiz-adv-x="449" d="M424 246l-143 -192l-51 39l122 167l-122 167l51 39l143 -192v-28zM237 246l-143 -192l-52 39l122 167l-122 167l52 39l143 -192v-28z" />
<glyph unicode="&#xbc;" horiz-adv-x="935" d="M836 97v-97h-67v97h-212v56q17 30 32.5 64t27 69t18.5 69.5t8 66.5h67q-2 -63 -25 -133.5t-56 -130.5h140v169h67v-169h63v-61h-63zM254 0h-66l482 700h65zM166 339v280q-18 -8 -48 -15t-60 -11l-10 53q48 10 81 22.5t54 31.5h51v-361h95v-61h-271v61h108z" />
<glyph unicode="&#xbd;" horiz-adv-x="935" d="M254 0h-66l482 700h65zM166 339v280q-18 -8 -48 -15t-60 -11l-10 53q48 10 81 22.5t54 31.5h51v-361h95v-61h-271v61h108zM581 0v53q62 49 104.5 85t69 64t38 50t11.5 43q0 35 -26 53t-59 18q-31 0 -56 -15t-40 -39l-55 33q28 39 66.5 62t89.5 23q32 0 59.5 -9t48 -25.5 t32 -41t11.5 -55.5q0 -29 -9 -53t-30.5 -50t-57 -58t-89.5 -75h203v-63h-311z" />
<glyph unicode="&#xbe;" horiz-adv-x="935" d="M355 398q0 -29 -11.5 -52.5t-32 -40t-49 -26t-62.5 -9.5q-59 0 -100.5 21.5t-66.5 70.5l63 25q17 -31 45 -42.5t59 -11.5q40 0 62.5 19.5t22.5 49.5q0 28 -20 43.5t-55 15.5h-55v62h52q10 0 22 3t22 10.5t16.5 18.5t6.5 28q0 32 -25.5 46.5t-57.5 14.5q-64 0 -99 -47 l-52 33q54 78 155 78q31 0 57.5 -7.5t46.5 -22.5t31.5 -36.5t11.5 -49.5q0 -29 -11.5 -53t-39.5 -39q38 -14 51 -43.5t13 -58.5zM846 97v-97h-67v97h-211v56q17 30 32 64t26.5 69t18.5 69.5t8 66.5h67q-2 -63 -25 -133.5t-56 -130.5h141v169h66v-169h63v-61h-63zM264 0h-65 l481 700h66z" />
<glyph unicode="&#xbf;" horiz-adv-x="495" d="M47 16q0 44 16 79.5t43.5 61.5t66 42.5t83.5 22.5v91h83v-166q-10 2 -19 2.5t-17 0.5q-35 0 -64.5 -9t-51 -25.5t-33.5 -41t-12 -55.5q0 -51 34.5 -85.5t100.5 -34.5q46 0 83.5 17t69.5 46l51 -63q-45 -39 -96.5 -61t-114.5 -22q-47 0 -87.5 13.5t-70.5 39t-47.5 63 t-17.5 84.5zM248 405v110h99v-110h-99z" />
<glyph unicode="&#xc0;" horiz-adv-x="678" d="M573 0l-77 198h-317l-79 -198h-98l283 700h108l283 -700h-103zM339 613l-130 -333h257zM363 755q-23 13 -46 31t-43.5 38t-36.5 40.5t-25 39.5l92 14q7 -14 18 -31t24.5 -34.5t27 -34.5t27.5 -32z" />
<glyph unicode="&#xc1;" horiz-adv-x="652" d="M573 0l-77 198h-317l-79 -198h-98l283 700h108l283 -700h-103zM339 613l-130 -333h257zM280 786q14 15 27.5 32t27 34.5t24.5 34.5t18 31l92 -14q-9 -19 -25 -39.5t-36.5 -40.5t-43.5 -38t-46 -31z" />
<glyph unicode="&#xc2;" horiz-adv-x="678" d="M573 0l-77 198h-317l-79 -198h-98l283 700h108l283 -700h-103zM339 613l-130 -333h257zM375 906q30 -27 62 -53t73 -54l-27 -44q-40 15 -79 37t-65 46q-27 -24 -65.5 -46t-78.5 -37l-27 44q41 28 73 54t62 53h72z" />
<glyph unicode="&#xc3;" horiz-adv-x="678" d="M573 0l-77 198h-317l-79 -198h-98l283 700h108l283 -700h-103zM339 613l-130 -333h257zM512 861q-15 -41 -42 -64.5t-59 -23.5q-18 0 -36 6.5t-35.5 14t-34.5 14t-32 6.5q-18 0 -34.5 -9.5t-34.5 -30.5l-37 25q15 40 42 63.5t60 23.5q18 0 36 -6.5t35.5 -13.5t34 -13.5 t31.5 -6.5q18 0 35 9t34 30z" />
<glyph unicode="&#xc4;" horiz-adv-x="678" d="M573 0l-77 198h-317l-79 -198h-98l283 700h108l283 -700h-103zM339 613l-130 -333h257zM188 768v82h80v-82h-80zM410 768v82h80v-82h-80z" />
<glyph unicode="&#xc5;" horiz-adv-x="678" d="M225 757q0 22 9 42t24.5 35t36 24t44.5 9t44.5 -9t36.5 -24t25 -35t9 -42q0 -29 -13.5 -52t-34.5 -37l270 -668h-103l-77 198h-317l-79 -198h-98l271 668q-22 14 -35 37t-13 52zM339 613l-130 -333h257zM400 756q0 26 -17 43.5t-43 17.5t-43.5 -17.5t-17.5 -43.5 t17.5 -43t43.5 -17t43 17t17 43z" />
<glyph unicode="&#xc6;" horiz-adv-x="933" d="M447 0v198h-257l-102 -198h-100l360 700h541v-86h-349v-203h287v-81h-287v-244h349v-86h-442zM447 618h-45l-171 -338h216v338z" />
<glyph unicode="&#xc7;" horiz-adv-x="683" d="M260 -90q13 -12 30.5 -20.5t36.5 -8.5q22 0 36.5 12t14.5 33q0 33 -38 65q-68 7 -123.5 36t-94.5 76.5t-60 110t-21 136.5q0 79 24 145.5t68.5 115t106.5 75.5t139 27q91 0 158.5 -36.5t114.5 -102.5l-73 -51q-32 50 -81.5 77t-116.5 27q-55 0 -100 -19.5t-76.5 -55.5 t-48.5 -87t-17 -114t17 -114.5t48.5 -87.5t76 -56t98.5 -20q66 0 116.5 28t82.5 78l77 -49q-43 -63 -106.5 -99.5t-146.5 -41.5q19 -16 30 -35.5t11 -42.5q0 -41 -30 -64t-74 -23q-25 0 -46 7t-33 18v61z" />
<glyph unicode="&#xc8;" horiz-adv-x="635" d="M85 0v700h503v-86h-410v-203h349v-81h-349v-244h410v-86h-503zM367 755q-23 13 -46 31t-43.5 38t-36.5 40.5t-25 39.5l92 14q7 -14 18 -31t24.5 -34.5t27 -34.5t27.5 -32z" />
<glyph unicode="&#xc9;" horiz-adv-x="635" d="M85 0v700h503v-86h-410v-203h349v-81h-349v-244h410v-86h-503zM279 786q14 15 27.5 32t27 34.5t24.5 34.5t18 31l92 -14q-9 -19 -25 -39.5t-36.5 -40.5t-43.5 -38t-46 -31z" />
<glyph unicode="&#xca;" horiz-adv-x="635" d="M85 0v700h503v-86h-410v-203h349v-81h-349v-244h410v-86h-503zM379 906q30 -27 62 -53t73 -54l-27 -44q-40 15 -79 37t-65 46q-27 -24 -65.5 -46t-78.5 -37l-27 44q41 28 73 54t62 53h72z" />
<glyph unicode="&#xcb;" horiz-adv-x="635" d="M85 0v700h503v-86h-410v-203h349v-81h-349v-244h410v-86h-503zM191 768v82h80v-82h-80zM413 768v82h80v-82h-80z" />
<glyph unicode="&#xcc;" horiz-adv-x="263" d="M85 0v700h92v-700h-92zM149 755q-23 13 -46 31t-43.5 38t-36.5 40.5t-25 39.5l92 14q7 -14 18 -31t24.5 -34.5t27 -34.5t27.5 -32z" />
<glyph unicode="&#xcd;" horiz-adv-x="263" d="M85 0v700h92v-700h-92zM83 786q14 15 27.5 32t27 34.5t24.5 34.5t18 31l92 -14q-9 -19 -25 -39.5t-36.5 -40.5t-43.5 -38t-46 -31z" />
<glyph unicode="&#xce;" horiz-adv-x="263" d="M85 0v700h92v-700h-92zM170 906q30 -27 62 -53t73 -54l-27 -44q-40 15 -79 37t-65 46q-27 -24 -65.5 -46t-78.5 -37l-27 44q41 28 73 54t62 53h72z" />
<glyph unicode="&#xcf;" horiz-adv-x="263" d="M85 0v700h92v-700h-92zM-18 768v82h80v-82h-80zM204 768v82h80v-82h-80z" />
<glyph unicode="&#xd0;" horiz-adv-x="761" d="M719 350q0 -77 -21.5 -141t-63.5 -110.5t-104 -72.5t-143 -26h-276v320h-115v77h115v303h276q81 0 143 -26t104 -72.5t63.5 -110.5t21.5 -141zM622 350q0 127 -62.5 195.5t-172.5 68.5h-182v-217h196v-77h-196v-234h182q110 0 172.5 69t62.5 195z" />
<glyph unicode="&#xd1;" horiz-adv-x="738" d="M543 0l-369 584v-584h-89v700h119l360 -571v571h89v-700h-110zM550 861q-15 -41 -42 -64.5t-59 -23.5q-18 0 -36 6.5t-35.5 14t-34.5 14t-32 6.5q-18 0 -34.5 -9.5t-34.5 -30.5l-37 25q15 40 42 63.5t60 23.5q18 0 36 -6.5t35.5 -13.5t34 -13.5t31.5 -6.5q18 0 35 9 t34 30z" />
<glyph unicode="&#xd2;" horiz-adv-x="762" d="M722 350q0 -77 -24 -143.5t-68.5 -115.5t-107.5 -76.5t-141 -27.5t-141 27.5t-107.5 76.5t-68.5 115.5t-24 143.5q0 78 24 144t68.5 115t107.5 76.5t141 27.5t141 -27.5t107.5 -76.5t68.5 -115t24 -144zM624 350q0 61 -16.5 112t-48 87.5t-76.5 56.5t-102 20t-102 -20 t-76 -56.5t-47.5 -87.5t-16.5 -112t16.5 -111.5t47.5 -87t76 -57t102 -20.5t102 20.5t76.5 57t48 87t16.5 111.5zM403 755q-23 13 -46 31t-43.5 38t-36.5 40.5t-25 39.5l92 14q7 -14 18 -31t24.5 -34.5t27 -34.5t27.5 -32z" />
<glyph unicode="&#xd3;" horiz-adv-x="762" d="M722 350q0 -77 -24 -143.5t-68.5 -115.5t-107.5 -76.5t-141 -27.5t-141 27.5t-107.5 76.5t-68.5 115.5t-24 143.5q0 78 24 144t68.5 115t107.5 76.5t141 27.5t141 -27.5t107.5 -76.5t68.5 -115t24 -144zM624 350q0 61 -16.5 112t-48 87.5t-76.5 56.5t-102 20t-102 -20 t-76 -56.5t-47.5 -87.5t-16.5 -112t16.5 -111.5t47.5 -87t76 -57t102 -20.5t102 20.5t76.5 57t48 87t16.5 111.5zM311 786q14 15 27.5 32t27 34.5t24.5 34.5t18 31l92 -14q-9 -19 -25 -39.5t-36.5 -40.5t-43.5 -38t-46 -31z" />
<glyph unicode="&#xd4;" horiz-adv-x="762" d="M722 350q0 -77 -24 -143.5t-68.5 -115.5t-107.5 -76.5t-141 -27.5t-141 27.5t-107.5 76.5t-68.5 115.5t-24 143.5q0 78 24 144t68.5 115t107.5 76.5t141 27.5t141 -27.5t107.5 -76.5t68.5 -115t24 -144zM624 350q0 61 -16.5 112t-48 87.5t-76.5 56.5t-102 20t-102 -20 t-76 -56.5t-47.5 -87.5t-16.5 -112t16.5 -111.5t47.5 -87t76 -57t102 -20.5t102 20.5t76.5 57t48 87t16.5 111.5zM417 906q30 -27 62 -53t73 -54l-27 -44q-40 15 -79 37t-65 46q-27 -24 -65.5 -46t-78.5 -37l-27 44q41 28 73 54t62 53h72z" />
<glyph unicode="&#xd5;" horiz-adv-x="762" d="M722 350q0 -77 -24 -143.5t-68.5 -115.5t-107.5 -76.5t-141 -27.5t-141 27.5t-107.5 76.5t-68.5 115.5t-24 143.5q0 78 24 144t68.5 115t107.5 76.5t141 27.5t141 -27.5t107.5 -76.5t68.5 -115t24 -144zM624 350q0 61 -16.5 112t-48 87.5t-76.5 56.5t-102 20t-102 -20 t-76 -56.5t-47.5 -87.5t-16.5 -112t16.5 -111.5t47.5 -87t76 -57t102 -20.5t102 20.5t76.5 57t48 87t16.5 111.5zM552 861q-15 -41 -42 -64.5t-59 -23.5q-18 0 -36 6.5t-35.5 14t-34.5 14t-32 6.5q-18 0 -34.5 -9.5t-34.5 -30.5l-37 25q15 40 42 63.5t60 23.5q18 0 36 -6.5 t35.5 -13.5t34 -13.5t31.5 -6.5q18 0 35 9t34 30z" />
<glyph unicode="&#xd6;" horiz-adv-x="762" d="M722 350q0 -77 -24 -143.5t-68.5 -115.5t-107.5 -76.5t-141 -27.5t-141 27.5t-107.5 76.5t-68.5 115.5t-24 143.5q0 78 24 144t68.5 115t107.5 76.5t141 27.5t141 -27.5t107.5 -76.5t68.5 -115t24 -144zM624 350q0 61 -16.5 112t-48 87.5t-76.5 56.5t-102 20t-102 -20 t-76 -56.5t-47.5 -87.5t-16.5 -112t16.5 -111.5t47.5 -87t76 -57t102 -20.5t102 20.5t76.5 57t48 87t16.5 111.5zM230 768v82h80v-82h-80zM452 768v82h80v-82h-80z" />
<glyph unicode="&#xd7;" d="M469 74l-175 177l-176 -177l-53 55l176 175l-176 176l53 54l176 -177l175 177l54 -54l-176 -176l176 -175z" />
<glyph unicode="&#xd8;" horiz-adv-x="762" d="M116 22l35 49q-54 51 -82.5 122t-28.5 157q0 78 24 144t68.5 115t107.5 76.5t141 27.5q53 0 99 -13t84 -37l35 48l47 -33l-36 -50q54 -50 83 -121t29 -157q0 -77 -24 -143.5t-68.5 -115.5t-107.5 -76.5t-141 -27.5q-54 0 -99.5 13t-84.5 37l-34 -48zM624 350 q0 63 -17.5 113.5t-49.5 87.5l-309 -439q56 -38 133 -38q57 0 102 20.5t76.5 57t48 87t16.5 111.5zM139 350q0 -127 65 -201l309 440q-28 17 -61 27t-71 10q-57 0 -102 -20t-76 -56.5t-47.5 -87.5t-16.5 -112z" />
<glyph unicode="&#xd9;" horiz-adv-x="723" d="M648 263q0 -63 -21.5 -114t-59.5 -87t-90.5 -55.5t-114.5 -19.5t-114.5 19.5t-90.5 55.5t-59 87t-21 114v437h92v-437q0 -86 51 -137.5t142 -51.5q44 0 80 13.5t61.5 38t39 59.5t13.5 78v437h92v-437zM371 755q-23 13 -46 31t-43.5 38t-36.5 40.5t-25 39.5l92 14 q7 -14 18 -31t24.5 -34.5t27 -34.5t27.5 -32z" />
<glyph unicode="&#xda;" horiz-adv-x="723" d="M648 263q0 -63 -21.5 -114t-59.5 -87t-90.5 -55.5t-114.5 -19.5t-114.5 19.5t-90.5 55.5t-59 87t-21 114v437h92v-437q0 -86 51 -137.5t142 -51.5q44 0 80 13.5t61.5 38t39 59.5t13.5 78v437h92v-437zM310 786q14 15 27.5 32t27 34.5t24.5 34.5t18 31l92 -14 q-9 -19 -25 -39.5t-36.5 -40.5t-43.5 -38t-46 -31z" />
<glyph unicode="&#xdb;" horiz-adv-x="723" d="M648 263q0 -63 -21.5 -114t-59.5 -87t-90.5 -55.5t-114.5 -19.5t-114.5 19.5t-90.5 55.5t-59 87t-21 114v437h92v-437q0 -86 51 -137.5t142 -51.5q44 0 80 13.5t61.5 38t39 59.5t13.5 78v437h92v-437zM401 906q30 -27 62 -53t73 -54l-27 -44q-40 15 -79 37t-65 46 q-27 -24 -65.5 -46t-78.5 -37l-27 44q41 28 73 54t62 53h72z" />
<glyph unicode="&#xdc;" horiz-adv-x="723" d="M648 263q0 -63 -21.5 -114t-59.5 -87t-90.5 -55.5t-114.5 -19.5t-114.5 19.5t-90.5 55.5t-59 87t-21 114v437h92v-437q0 -86 51 -137.5t142 -51.5q44 0 80 13.5t61.5 38t39 59.5t13.5 78v437h92v-437zM211 768v82h80v-82h-80zM433 768v82h80v-82h-80z" />
<glyph unicode="&#xdd;" horiz-adv-x="621" d="M357 287v-287h-93v287l-268 413h109l207 -329l208 329h106zM262 786q14 15 27.5 32t27 34.5t24.5 34.5t18 31l92 -14q-9 -19 -25 -39.5t-36.5 -40.5t-43.5 -38t-46 -31z" />
<glyph unicode="&#xde;" horiz-adv-x="645" d="M622 377q0 -48 -16 -87.5t-47 -67.5t-77 -43.5t-106 -15.5h-199v-163h-92v700h92v-107h199q60 0 106 -15.5t77 -44t47 -68t16 -88.5zM377 249q76 0 112.5 35t36.5 94t-36.5 94.5t-112.5 35.5h-200v-259h200z" />
<glyph unicode="&#xdf;" horiz-adv-x="604" d="M567 202q0 -50 -16.5 -90t-46.5 -67.5t-73.5 -42t-97.5 -14.5q-26 0 -57 5t-54 15l20 77q20 -11 44 -15.5t42 -4.5q72 0 110.5 39.5t38.5 104.5q0 71 -44.5 103.5t-116.5 32.5h-59v74h41q27 0 51 7t42.5 21.5t29 36.5t10.5 52q0 31 -11.5 52.5t-30.5 35t-44 20t-52 6.5 q-28 0 -53 -7.5t-44 -22t-30 -36.5t-11 -51v-533h-84v533q0 45 17 80.5t47 60.5t71 38t90 13q46 0 87 -12t71 -34.5t47.5 -55.5t17.5 -76q0 -49 -21.5 -86t-77.5 -67q75 -25 111 -74.5t36 -117.5z" />
<glyph unicode="&#xe0;" horiz-adv-x="642" d="M549 116q0 -29 9 -42.5t31 -13.5q19 0 32 8l11 -66q-14 -5 -30.5 -7.5t-29.5 -2.5q-37 0 -67.5 20t-38.5 68q-35 -52 -85 -72t-101 -20q-57 0 -102 21t-76 57.5t-47.5 84.5t-16.5 105q0 58 16.5 107t47.5 85.5t75 57.5t100 21q54 0 101 -22.5t84 -75.5v86h87v-399z M462 257q0 40 -11 74t-32 59.5t-52.5 40.5t-72.5 15t-72 -15t-51.5 -41t-30.5 -59.5t-10 -73.5t10 -73.5t30 -59.5t51 -41t72 -15q42 0 73.5 15t52.5 41t32 59.5t11 73.5zM315 593q-23 13 -46 31t-43.5 38t-36.5 40.5t-25 39.5l92 14q7 -14 18 -31t24.5 -34.5t27 -34.5 t27.5 -32z" />
<glyph unicode="&#xe1;" horiz-adv-x="642" d="M549 116q0 -29 9 -42.5t31 -13.5q19 0 32 8l11 -66q-14 -5 -30.5 -7.5t-29.5 -2.5q-37 0 -67.5 20t-38.5 68q-35 -52 -85 -72t-101 -20q-57 0 -102 21t-76 57.5t-47.5 84.5t-16.5 105q0 58 16.5 107t47.5 85.5t75 57.5t100 21q54 0 101 -22.5t84 -75.5v86h87v-399z M462 257q0 40 -11 74t-32 59.5t-52.5 40.5t-72.5 15t-72 -15t-51.5 -41t-30.5 -59.5t-10 -73.5t10 -73.5t30 -59.5t51 -41t72 -15q42 0 73.5 15t52.5 41t32 59.5t11 73.5zM234 624q14 15 27.5 32t27 34.5t24.5 34.5t18 31l92 -14q-9 -19 -25 -39.5t-36.5 -40.5t-43.5 -38 t-46 -31z" />
<glyph unicode="&#xe2;" horiz-adv-x="642" d="M549 116q0 -29 9 -42.5t31 -13.5q19 0 32 8l11 -66q-14 -5 -30.5 -7.5t-29.5 -2.5q-37 0 -67.5 20t-38.5 68q-35 -52 -85 -72t-101 -20q-57 0 -102 21t-76 57.5t-47.5 84.5t-16.5 105q0 58 16.5 107t47.5 85.5t75 57.5t100 21q54 0 101 -22.5t84 -75.5v86h87v-399z M462 257q0 40 -11 74t-32 59.5t-52.5 40.5t-72.5 15t-72 -15t-51.5 -41t-30.5 -59.5t-10 -73.5t10 -73.5t30 -59.5t51 -41t72 -15q42 0 73.5 15t52.5 41t32 59.5t11 73.5zM329 744q30 -27 62 -53t73 -54l-27 -44q-40 15 -79 37t-65 46q-27 -24 -65.5 -46t-78.5 -37l-27 44 q41 28 73 54t62 53h72z" />
<glyph unicode="&#xe3;" horiz-adv-x="642" d="M549 116q0 -29 9 -42.5t31 -13.5q19 0 32 8l11 -66q-14 -5 -30.5 -7.5t-29.5 -2.5q-37 0 -67.5 20t-38.5 68q-35 -52 -85 -72t-101 -20q-57 0 -102 21t-76 57.5t-47.5 84.5t-16.5 105q0 58 16.5 107t47.5 85.5t75 57.5t100 21q54 0 101 -22.5t84 -75.5v86h87v-399z M462 257q0 40 -11 74t-32 59.5t-52.5 40.5t-72.5 15t-72 -15t-51.5 -41t-30.5 -59.5t-10 -73.5t10 -73.5t30 -59.5t51 -41t72 -15q42 0 73.5 15t52.5 41t32 59.5t11 73.5zM462 699q-15 -41 -42 -64.5t-59 -23.5q-18 0 -36 6.5t-35.5 14t-34.5 14t-32 6.5q-18 0 -34.5 -9.5 t-34.5 -30.5l-37 25q15 40 42 63.5t60 23.5q18 0 36 -6.5t35.5 -13.5t34 -13.5t31.5 -6.5q18 0 35 9t34 30z" />
<glyph unicode="&#xe4;" horiz-adv-x="642" d="M549 116q0 -29 9 -42.5t31 -13.5q19 0 32 8l11 -66q-14 -5 -30.5 -7.5t-29.5 -2.5q-37 0 -67.5 20t-38.5 68q-35 -52 -85 -72t-101 -20q-57 0 -102 21t-76 57.5t-47.5 84.5t-16.5 105q0 58 16.5 107t47.5 85.5t75 57.5t100 21q54 0 101 -22.5t84 -75.5v86h87v-399z M462 257q0 40 -11 74t-32 59.5t-52.5 40.5t-72.5 15t-72 -15t-51.5 -41t-30.5 -59.5t-10 -73.5t10 -73.5t30 -59.5t51 -41t72 -15q42 0 73.5 15t52.5 41t32 59.5t11 73.5zM140 606v82h80v-82h-80zM362 606v82h80v-82h-80z" />
<glyph unicode="&#xe5;" horiz-adv-x="642" d="M549 116q0 -29 9 -42.5t31 -13.5q19 0 32 8l11 -66q-14 -5 -30.5 -7.5t-29.5 -2.5q-37 0 -67.5 20t-38.5 68q-35 -52 -85 -72t-101 -20q-57 0 -102 21t-76 57.5t-47.5 84.5t-16.5 105q0 58 16.5 107t47.5 85.5t75 57.5t100 21q54 0 101 -22.5t84 -75.5v86h87v-399z M462 257q0 40 -11 74t-32 59.5t-52.5 40.5t-72.5 15t-72 -15t-51.5 -41t-30.5 -59.5t-10 -73.5t10 -73.5t30 -59.5t51 -41t72 -15q42 0 73.5 15t52.5 41t32 59.5t11 73.5zM396 679q0 -21 -8 -39.5t-22 -32t-33.5 -21.5t-41.5 -8t-41.5 8t-33.5 21.5t-22.5 32t-8.5 39.5 t8.5 39.5t22.5 33t33.5 22.5t41.5 8t41.5 -8t33.5 -22.5t22 -33t8 -39.5zM348 679q0 24 -17 41t-40 17t-40 -17t-17 -41t17 -40.5t40 -16.5t40 16.5t17 40.5z" />
<glyph unicode="&#xe6;" horiz-adv-x="992" d="M462 257q0 40 -11 74t-32.5 59.5t-53 40.5t-72.5 15t-71.5 -15t-51 -41t-30.5 -59.5t-10 -73.5t10 -73.5t30 -59.5t51 -41t72 -15q42 0 73.5 15t52.5 41t32 59.5t11 73.5zM720 527q55 0 99.5 -20t75.5 -55t48 -82.5t17 -100.5q0 -11 -0.5 -19t-1.5 -14h-408 q4 -78 51 -123t123 -45q92 0 154 68l59 -57q-41 -43 -93 -67t-122 -24q-80 0 -136.5 33t-86.5 92q-29 -57 -84.5 -91t-127.5 -34q-57 0 -103 20.5t-78.5 57t-50 86.5t-17.5 106q0 57 16.5 105t47.5 85t75 58t100 21q54 0 101 -22.5t84 -75.5v86h87v-76q29 38 70.5 63 t100.5 25zM870 302q-7 73 -52 111.5t-107 38.5q-69 0 -111.5 -42.5t-48.5 -107.5h319z" />
<glyph unicode="&#xe7;" horiz-adv-x="525" d="M178 -83q12 -12 29 -20t35 -8q20 0 34.5 11.5t14.5 31.5q0 31 -36 58q-50 6 -90.5 28.5t-68.5 58t-43 82t-15 99.5q0 57 17.5 106.5t50.5 85.5t79.5 56.5t103.5 20.5q70 0 122.5 -29.5t86.5 -78.5l-67 -47q-23 35 -57.5 56t-81.5 21q-38 0 -68 -14.5t-51 -40t-32.5 -60.5 t-11.5 -76t11.5 -76.5t32.5 -61t51 -40t67 -14.5q50 0 85 22.5t58 55.5l65 -48q-30 -43 -75.5 -72t-108.5 -34q19 -15 29.5 -34t10.5 -41q0 -38 -29.5 -60t-71.5 -22q-24 0 -44.5 6.5t-31.5 17.5v60z" />
<glyph unicode="&#xe8;" horiz-adv-x="572" d="M540 273q0 -12 -0.5 -20t-1.5 -13h-409q0 -31 10 -61t27 -50q48 -62 139 -62t155 67l57 -56q-40 -42 -92.5 -66t-121.5 -24q-63 0 -112.5 20.5t-83.5 56.5t-51.5 85t-17.5 106t17.5 106.5t50.5 86t80 57.5t106 21q57 0 103 -19.5t78.5 -53.5t49.5 -80.5t17 -100.5z M451 304q0 20 -6 37.5t-14 33.5q-21 39 -58 59t-82 20q-34 0 -62.5 -11t-49 -30.5t-33 -47.5t-15.5 -61h320zM312 593q-23 13 -46 31t-43.5 38t-36.5 40.5t-25 39.5l92 14q7 -14 18 -31t24.5 -34.5t27 -34.5t27.5 -32z" />
<glyph unicode="&#xe9;" horiz-adv-x="572" d="M540 273q0 -12 -0.5 -20t-1.5 -13h-409q0 -31 10 -61t27 -50q48 -62 139 -62t155 67l57 -56q-40 -42 -92.5 -66t-121.5 -24q-63 0 -112.5 20.5t-83.5 56.5t-51.5 85t-17.5 106t17.5 106.5t50.5 86t80 57.5t106 21q57 0 103 -19.5t78.5 -53.5t49.5 -80.5t17 -100.5z M451 304q0 20 -6 37.5t-14 33.5q-21 39 -58 59t-82 20q-34 0 -62.5 -11t-49 -30.5t-33 -47.5t-15.5 -61h320zM224 624q14 15 27.5 32t27 34.5t24.5 34.5t18 31l92 -14q-9 -19 -25 -39.5t-36.5 -40.5t-43.5 -38t-46 -31z" />
<glyph unicode="&#xea;" horiz-adv-x="572" d="M540 273q0 -12 -0.5 -20t-1.5 -13h-409q0 -31 10 -61t27 -50q48 -62 139 -62t155 67l57 -56q-40 -42 -92.5 -66t-121.5 -24q-63 0 -112.5 20.5t-83.5 56.5t-51.5 85t-17.5 106t17.5 106.5t50.5 86t80 57.5t106 21q57 0 103 -19.5t78.5 -53.5t49.5 -80.5t17 -100.5z M451 304q0 20 -6 37.5t-14 33.5q-21 39 -58 59t-82 20q-34 0 -62.5 -11t-49 -30.5t-33 -47.5t-15.5 -61h320zM325 744q30 -27 62 -53t73 -54l-27 -44q-40 15 -79 37t-65 46q-27 -24 -65.5 -46t-78.5 -37l-27 44q41 28 73 54t62 53h72z" />
<glyph unicode="&#xeb;" horiz-adv-x="572" d="M540 273q0 -12 -0.5 -20t-1.5 -13h-409q0 -31 10 -61t27 -50q48 -62 139 -62t155 67l57 -56q-40 -42 -92.5 -66t-121.5 -24q-63 0 -112.5 20.5t-83.5 56.5t-51.5 85t-17.5 106t17.5 106.5t50.5 86t80 57.5t106 21q57 0 103 -19.5t78.5 -53.5t49.5 -80.5t17 -100.5z M451 304q0 20 -6 37.5t-14 33.5q-21 39 -58 59t-82 20q-34 0 -62.5 -11t-49 -30.5t-33 -47.5t-15.5 -61h320zM139 606v82h80v-82h-80zM361 606v82h80v-82h-80z" />
<glyph unicode="&#xec;" horiz-adv-x="228" d="M71 0v515h86v-515h-86zM143 593q-23 13 -46 31t-43.5 38t-36.5 40.5t-25 39.5l92 14q7 -14 18 -31t24.5 -34.5t27 -34.5t27.5 -32z" />
<glyph unicode="&#xed;" horiz-adv-x="228" d="M71 0v515h86v-515h-86zM58 624q14 15 27.5 32t27 34.5t24.5 34.5t18 31l92 -14q-9 -19 -25 -39.5t-36.5 -40.5t-43.5 -38t-46 -31z" />
<glyph unicode="&#xee;" horiz-adv-x="228" d="M71 0v515h86v-515h-86zM151 744q30 -27 62 -53t73 -54l-27 -44q-40 15 -79 37t-65 46q-27 -24 -65.5 -46t-78.5 -37l-27 44q41 28 73 54t62 53h72z" />
<glyph unicode="&#xef;" horiz-adv-x="228" d="M-10 608v78h75v-78h-75zM163 608v78h75v-78h-75zM71 0v515h86v-515h-86z" />
<glyph unicode="&#xf0;" horiz-adv-x="599" d="M275 494q44 0 85.5 -15t73.5 -47q-19 40 -48.5 78t-65.5 71l-126 -59l-18 41l103 50q-21 15 -42.5 29t-44.5 25l58 58q29 -17 57 -35t54 -41l120 56l19 -41l-101 -48q59 -58 99.5 -132.5t50.5 -163.5q2 -14 2.5 -29t0.5 -30q-2 -57 -17.5 -108t-52.5 -89q-36 -38 -84 -57 t-104 -19q-58 0 -105 19.5t-80.5 53.5t-51.5 80.5t-18 100.5q0 55 17 101t48.5 79.5t74.5 52.5t96 19zM465 241q0 36 -11.5 68t-33 56t-53.5 38t-73 14t-72 -14t-51.5 -38t-30.5 -56t-10 -68t10 -67.5t30.5 -55t51.5 -37.5t72 -14q42 0 74 13.5t53.5 37.5t32.5 55.5t11 67.5 z" />
<glyph unicode="&#xf1;" horiz-adv-x="583" d="M70 0v515h86v-86q32 48 76.5 73t101.5 25q85 0 133.5 -51.5t48.5 -144.5v-331h-86v311q0 23 -4.5 47.5t-17 44t-35 32t-59.5 12.5q-34 0 -63 -12t-50 -33.5t-33 -51.5t-12 -66v-284h-86zM482 699q-15 -41 -42 -64.5t-59 -23.5q-18 0 -36 6.5t-35.5 14t-34.5 14t-32 6.5 q-18 0 -34.5 -9.5t-34.5 -30.5l-37 25q15 40 42 63.5t60 23.5q18 0 36 -6.5t35.5 -13.5t34 -13.5t31.5 -6.5q18 0 35 9t34 30z" />
<glyph unicode="&#xf2;" horiz-adv-x="586" d="M303 593q-23 13 -46 31t-43.5 38t-36.5 40.5t-25 39.5l92 14q7 -14 18 -31t24.5 -34.5t27 -34.5t27.5 -32zM549 257q0 -58 -18 -107t-51 -85t-80.5 -56.5t-106.5 -20.5t-106 20.5t-80 56.5t-51 85t-18 107t18 107.5t51 85.5t80 56.5t106 20.5t106.5 -20.5t80.5 -56.5 t51 -85.5t18 -107.5zM457 257q0 41 -11 76t-32 61t-51.5 41t-69.5 15t-69.5 -15t-51.5 -41t-32 -61t-11 -76q0 -40 11 -75.5t32 -61t51.5 -40.5t69.5 -15t69.5 15t51.5 40.5t32 61t11 75.5z" />
<glyph unicode="&#xf3;" horiz-adv-x="586" d="M229 624q14 15 27.5 32t27 34.5t24.5 34.5t18 31l92 -14q-9 -19 -25 -39.5t-36.5 -40.5t-43.5 -38t-46 -31zM549 257q0 -58 -18 -107t-51 -85t-80.5 -56.5t-106.5 -20.5t-106 20.5t-80 56.5t-51 85t-18 107t18 107.5t51 85.5t80 56.5t106 20.5t106.5 -20.5t80.5 -56.5 t51 -85.5t18 -107.5zM457 257q0 41 -11 76t-32 61t-51.5 41t-69.5 15t-69.5 -15t-51.5 -41t-32 -61t-11 -76q0 -40 11 -75.5t32 -61t51.5 -40.5t69.5 -15t69.5 15t51.5 40.5t32 61t11 75.5z" />
<glyph unicode="&#xf4;" horiz-adv-x="586" d="M329 744q30 -27 62 -53t73 -54l-27 -44q-40 15 -79 37t-65 46q-27 -24 -65.5 -46t-78.5 -37l-27 44q41 28 73 54t62 53h72zM549 257q0 -58 -18 -107t-51 -85t-80.5 -56.5t-106.5 -20.5t-106 20.5t-80 56.5t-51 85t-18 107t18 107.5t51 85.5t80 56.5t106 20.5t106.5 -20.5 t80.5 -56.5t51 -85.5t18 -107.5zM457 257q0 41 -11 76t-32 61t-51.5 41t-69.5 15t-69.5 -15t-51.5 -41t-32 -61t-11 -76q0 -40 11 -75.5t32 -61t51.5 -40.5t69.5 -15t69.5 15t51.5 40.5t32 61t11 75.5z" />
<glyph unicode="&#xf5;" horiz-adv-x="586" d="M463 699q-15 -41 -42 -64.5t-59 -23.5q-18 0 -36 6.5t-35.5 14t-34.5 14t-32 6.5q-18 0 -34.5 -9.5t-34.5 -30.5l-37 25q15 40 42 63.5t60 23.5q18 0 36 -6.5t35.5 -13.5t34 -13.5t31.5 -6.5q18 0 35 9t34 30zM549 257q0 -58 -18 -107t-51 -85t-80.5 -56.5t-106.5 -20.5 t-106 20.5t-80 56.5t-51 85t-18 107t18 107.5t51 85.5t80 56.5t106 20.5t106.5 -20.5t80.5 -56.5t51 -85.5t18 -107.5zM457 257q0 41 -11 76t-32 61t-51.5 41t-69.5 15t-69.5 -15t-51.5 -41t-32 -61t-11 -76q0 -40 11 -75.5t32 -61t51.5 -40.5t69.5 -15t69.5 15t51.5 40.5 t32 61t11 75.5z" />
<glyph unicode="&#xf6;" horiz-adv-x="586" d="M142 606v82h80v-82h-80zM364 606v82h80v-82h-80zM549 257q0 -58 -18 -107t-51 -85t-80.5 -56.5t-106.5 -20.5t-106 20.5t-80 56.5t-51 85t-18 107t18 107.5t51 85.5t80 56.5t106 20.5t106.5 -20.5t80.5 -56.5t51 -85.5t18 -107.5zM457 257q0 41 -11 76t-32 61t-51.5 41 t-69.5 15t-69.5 -15t-51.5 -41t-32 -61t-11 -76q0 -40 11 -75.5t32 -61t51.5 -40.5t69.5 -15t69.5 15t51.5 40.5t32 61t11 75.5z" />
<glyph unicode="&#xf7;" d="M355 491q0 -26 -17.5 -44t-43.5 -18t-44 18t-18 44q0 25 18 43t44 18t43.5 -18t17.5 -43zM56 266v76h475v-76h-475zM355 117q0 -25 -17.5 -43t-43.5 -18t-44 18t-18 43q0 26 18 44.5t44 18.5t43.5 -18.5t17.5 -44.5z" />
<glyph unicode="&#xf8;" horiz-adv-x="586" d="M92 20l24 35q-38 36 -58 88.5t-20 115.5q0 59 18 109t51 86.5t80 57t106 20.5q38 0 71.5 -9t61.5 -26l23 33l45 -30l-24 -35q38 -37 58.5 -89.5t20.5 -116.5q0 -58 -18 -107.5t-51 -86t-80.5 -57t-106.5 -20.5q-76 0 -134 35l-22 -33zM128 259q0 -38 9.5 -71.5 t29.5 -59.5l212 302q-36 25 -86 25q-39 0 -70 -15t-52 -41.5t-32 -62t-11 -77.5zM457 259q0 79 -39 132l-212 -302q36 -24 87 -24q39 0 69.5 15t51.5 41.5t32 61.5t11 76z" />
<glyph unicode="&#xf9;" horiz-adv-x="582" d="M512 515v-515h-86v86q-33 -48 -77 -73t-101 -25q-85 0 -134 51.5t-49 145.5v330h86v-310q0 -24 4.5 -48t17 -44t35.5 -32.5t59 -12.5q34 0 63 12t50.5 33.5t33.5 51.5t12 66v284h86zM300 593q-23 13 -46 31t-43.5 38t-36.5 40.5t-25 39.5l92 14q7 -14 18 -31t24.5 -34.5 t27 -34.5t27.5 -32z" />
<glyph unicode="&#xfa;" horiz-adv-x="582" d="M512 515v-515h-86v86q-33 -48 -77 -73t-101 -25q-85 0 -134 51.5t-49 145.5v330h86v-310q0 -24 4.5 -48t17 -44t35.5 -32.5t59 -12.5q34 0 63 12t50.5 33.5t33.5 51.5t12 66v284h86zM243 624q14 15 27.5 32t27 34.5t24.5 34.5t18 31l92 -14q-9 -19 -25 -39.5t-36.5 -40.5 t-43.5 -38t-46 -31z" />
<glyph unicode="&#xfb;" horiz-adv-x="582" d="M512 515v-515h-86v86q-33 -48 -77 -73t-101 -25q-85 0 -134 51.5t-49 145.5v330h86v-310q0 -24 4.5 -48t17 -44t35.5 -32.5t59 -12.5q34 0 63 12t50.5 33.5t33.5 51.5t12 66v284h86zM323 744q30 -27 62 -53t73 -54l-27 -44q-40 15 -79 37t-65 46q-27 -24 -65.5 -46 t-78.5 -37l-27 44q41 28 73 54t62 53h72z" />
<glyph unicode="&#xfc;" horiz-adv-x="582" d="M512 515v-515h-86v86q-33 -48 -77 -73t-101 -25q-85 0 -134 51.5t-49 145.5v330h86v-310q0 -24 4.5 -48t17 -44t35.5 -32.5t59 -12.5q34 0 63 12t50.5 33.5t33.5 51.5t12 66v284h86zM137 606v82h80v-82h-80zM359 606v82h80v-82h-80z" />
<glyph unicode="&#xfd;" horiz-adv-x="590" d="M433 122q-33 -47 -77 -72t-101 -25q-85 0 -133.5 51.5t-48.5 145.5v293h87v-273q0 -23 4.5 -47t17 -43.5t35 -32t58.5 -12.5q34 0 63 11.5t50 33t33 51.5t12 66v246h87v-453q0 -53 -11.5 -95t-41.5 -75q-32 -36 -82.5 -56t-119.5 -20q-62 0 -111 16.5t-89 45.5l43 69 q36 -29 77 -40.5t82 -11.5q33 0 63.5 8t53 26t36 46.5t13.5 69.5v77zM242 624q14 15 27.5 32t27 34.5t24.5 34.5t18 31l92 -14q-9 -19 -25 -39.5t-36.5 -40.5t-43.5 -38t-46 -31z" />
<glyph unicode="&#xfe;" horiz-adv-x="619" d="M157 714v-284q37 53 84.5 75t99.5 22q56 0 100.5 -20.5t75.5 -57t47.5 -85.5t16.5 -106t-16.5 -106.5t-47.5 -86t-75.5 -57t-100.5 -20.5q-52 0 -99.5 22.5t-84.5 73.5v-258h-86v888h86zM157 257q0 -40 11 -74.5t32.5 -60t53 -40.5t73.5 -15q41 0 71.5 15t51 40.5 t30.5 60.5t10 74t-10 74t-30.5 61t-51 41t-71.5 15q-42 0 -74 -15t-53 -41t-32 -60.5t-11 -74.5z" />
<glyph unicode="&#xff;" horiz-adv-x="590" d="M433 122q-33 -47 -77 -72t-101 -25q-85 0 -133.5 51.5t-48.5 145.5v293h87v-273q0 -23 4.5 -47t17 -43.5t35 -32t58.5 -12.5q34 0 63 11.5t50 33t33 51.5t12 66v246h87v-453q0 -53 -11.5 -95t-41.5 -75q-32 -36 -82.5 -56t-119.5 -20q-62 0 -111 16.5t-89 45.5l43 69 q36 -29 77 -40.5t82 -11.5q33 0 63.5 8t53 26t36 46.5t13.5 69.5v77zM145 606v82h80v-82h-80zM367 606v82h80v-82h-80z" />
<glyph unicode="&#x100;" horiz-adv-x="678" d="M573 0l-77 198h-317l-79 -198h-98l283 700h108l283 -700h-103zM339 613l-130 -333h257zM189 783v58h300v-58h-300z" />
<glyph unicode="&#x101;" horiz-adv-x="642" d="M549 116q0 -29 9 -42.5t31 -13.5q19 0 32 8l11 -66q-14 -5 -30.5 -7.5t-29.5 -2.5q-37 0 -67.5 20t-38.5 68q-35 -52 -85 -72t-101 -20q-57 0 -102 21t-76 57.5t-47.5 84.5t-16.5 105q0 58 16.5 107t47.5 85.5t75 57.5t100 21q54 0 101 -22.5t84 -75.5v86h87v-399z M462 257q0 40 -11 74t-32 59.5t-52.5 40.5t-72.5 15t-72 -15t-51.5 -41t-30.5 -59.5t-10 -73.5t10 -73.5t30 -59.5t51 -41t72 -15q42 0 73.5 15t52.5 41t32 59.5t11 73.5zM142 621v58h300v-58h-300z" />
<glyph unicode="&#x102;" horiz-adv-x="678" d="M573 0l-77 198h-317l-79 -198h-98l283 700h108l283 -700h-103zM339 613l-130 -333h257zM339 765q-70 0 -113.5 35t-51.5 88l53 16q8 -31 36.5 -51.5t75.5 -20.5t75.5 20.5t36.5 51.5l53 -16q-8 -53 -51.5 -88t-113.5 -35z" />
<glyph unicode="&#x103;" horiz-adv-x="642" d="M549 116q0 -29 9 -42.5t31 -13.5q19 0 32 8l11 -66q-14 -5 -30.5 -7.5t-29.5 -2.5q-37 0 -67.5 20t-38.5 68q-35 -52 -85 -72t-101 -20q-57 0 -102 21t-76 57.5t-47.5 84.5t-16.5 105q0 58 16.5 107t47.5 85.5t75 57.5t100 21q54 0 101 -22.5t84 -75.5v86h87v-399z M462 257q0 40 -11 74t-32 59.5t-52.5 40.5t-72.5 15t-72 -15t-51.5 -41t-30.5 -59.5t-10 -73.5t10 -73.5t30 -59.5t51 -41t72 -15q42 0 73.5 15t52.5 41t32 59.5t11 73.5zM290 603q-70 0 -113.5 35t-51.5 88l53 16q8 -31 36.5 -51.5t75.5 -20.5t75.5 20.5t36.5 51.5l53 -16 q-8 -53 -51.5 -88t-113.5 -35z" />
<glyph unicode="&#x104;" horiz-adv-x="678" d="M676 0q-58 -8 -87 -27.5t-29 -48.5q0 -19 13.5 -32t38.5 -13q24 0 40 10.5t29 25.5v-69q-11 -12 -32.5 -21.5t-50.5 -9.5q-21 0 -39.5 5.5t-33 17t-23 27.5t-8.5 37q0 25 16 51t61 51l-77 194h-315l-79 -198h-98l283 700h108zM339 613l-130 -333h256z" />
<glyph unicode="&#x105;" horiz-adv-x="642" d="M549 116q0 -29 9 -42.5t31 -13.5q19 0 32 8l11 -66q-14 -5 -30.5 -7.5t-29.5 -2.5q-24 0 -45 8q-12 -11 -21 -22q-20 -25 -20 -54q0 -23 14 -34.5t36 -11.5q23 0 38.5 10t27.5 24v-67q-11 -11 -31 -20t-49 -9q-41 0 -70.5 21.5t-29.5 63.5q0 29 20 62q17 27 58 52 q-27 20 -34 65q-35 -52 -85 -72t-101 -20q-57 0 -102 21t-76 57.5t-47.5 84.5t-16.5 105q0 58 16.5 107t47.5 85.5t75 57.5t100 21q54 0 101 -22.5t84 -75.5v86h87v-399zM462 257q0 40 -11 74t-32 59.5t-52.5 40.5t-72.5 15t-72 -15t-51.5 -41t-30.5 -59.5t-10 -73.5 t10 -73.5t30 -59.5t51 -41t72 -15q42 0 73.5 15t52.5 41t32 59.5t11 73.5z" />
<glyph unicode="&#x106;" horiz-adv-x="683" d="M579 523q-32 50 -81.5 77t-116.5 27q-55 0 -100 -19.5t-76.5 -55.5t-48.5 -87t-17 -114t17 -114.5t48.5 -87.5t76 -56t98.5 -20q66 0 116.5 28t82.5 78l77 -49q-45 -67 -114.5 -105t-160.5 -38q-77 0 -139.5 27.5t-107 76t-68.5 115t-24 144.5q0 79 24 145.5t68.5 115 t106.5 75.5t139 27q91 0 158.5 -36.5t114.5 -102.5zM305 786q14 15 27.5 32t27 34.5t24.5 34.5t18 31l92 -14q-9 -19 -25 -39.5t-36.5 -40.5t-43.5 -38t-46 -31z" />
<glyph unicode="&#x107;" horiz-adv-x="525" d="M499 96q-33 -47 -85.5 -77.5t-124.5 -30.5q-58 0 -104.5 20.5t-79 56.5t-50 85.5t-17.5 107.5q0 57 17.5 106.5t50.5 85.5t79.5 56.5t103.5 20.5q70 0 122.5 -29.5t86.5 -78.5l-67 -47q-23 35 -57.5 56t-81.5 21q-38 0 -68 -14.5t-51 -40t-32.5 -60.5t-11.5 -76 t11.5 -76.5t32.5 -61t51 -40t67 -14.5q50 0 85 22.5t58 55.5zM237 617q24 28 45 64t34 65l87 -13q-16 -37 -51 -76.5t-79 -67.5z" />
<glyph unicode="&#x108;" horiz-adv-x="683" d="M579 523q-32 50 -81.5 77t-116.5 27q-55 0 -100 -19.5t-76.5 -55.5t-48.5 -87t-17 -114t17 -114.5t48.5 -87.5t76 -56t98.5 -20q66 0 116.5 28t82.5 78l77 -49q-45 -67 -114.5 -105t-160.5 -38q-77 0 -139.5 27.5t-107 76t-68.5 115t-24 144.5q0 79 24 145.5t68.5 115 t106.5 75.5t139 27q91 0 158.5 -36.5t114.5 -102.5zM413 906q30 -27 62 -53t73 -54l-27 -44q-40 15 -79 37t-65 46q-27 -24 -65.5 -46t-78.5 -37l-27 44q41 28 73 54t62 53h72z" />
<glyph unicode="&#x109;" horiz-adv-x="525" d="M499 96q-33 -47 -85.5 -77.5t-124.5 -30.5q-58 0 -104.5 20.5t-79 56.5t-50 85.5t-17.5 107.5q0 57 17.5 106.5t50.5 85.5t79.5 56.5t103.5 20.5q70 0 122.5 -29.5t86.5 -78.5l-67 -47q-23 35 -57.5 56t-81.5 21q-38 0 -68 -14.5t-51 -40t-32.5 -60.5t-11.5 -76 t11.5 -76.5t32.5 -61t51 -40t67 -14.5q50 0 85 22.5t58 55.5zM327 744q30 -27 62 -53t73 -54l-27 -44q-40 15 -79 37t-65 46q-27 -24 -65.5 -46t-78.5 -37l-27 44q41 28 73 54t62 53h72z" />
<glyph unicode="&#x10a;" horiz-adv-x="683" d="M579 523q-32 50 -81.5 77t-116.5 27q-55 0 -100 -19.5t-76.5 -55.5t-48.5 -87t-17 -114t17 -114.5t48.5 -87.5t76 -56t98.5 -20q66 0 116.5 28t82.5 78l77 -49q-45 -67 -114.5 -105t-160.5 -38q-77 0 -139.5 27.5t-107 76t-68.5 115t-24 144.5q0 79 24 145.5t68.5 115 t106.5 75.5t139 27q91 0 158.5 -36.5t114.5 -102.5zM335 769v81h81v-81h-81z" />
<glyph unicode="&#x10b;" horiz-adv-x="525" d="M499 96q-33 -47 -85.5 -77.5t-124.5 -30.5q-58 0 -104.5 20.5t-79 56.5t-50 85.5t-17.5 107.5q0 57 17.5 106.5t50.5 85.5t79.5 56.5t103.5 20.5q70 0 122.5 -29.5t86.5 -78.5l-67 -47q-23 35 -57.5 56t-81.5 21q-38 0 -68 -14.5t-51 -40t-32.5 -60.5t-11.5 -76 t11.5 -76.5t32.5 -61t51 -40t67 -14.5q50 0 85 22.5t58 55.5zM243 607v81h81v-81h-81z" />
<glyph unicode="&#x10c;" horiz-adv-x="683" d="M579 523q-32 50 -81.5 77t-116.5 27q-55 0 -100 -19.5t-76.5 -55.5t-48.5 -87t-17 -114t17 -114.5t48.5 -87.5t76 -56t98.5 -20q66 0 116.5 28t82.5 78l77 -49q-45 -67 -114.5 -105t-160.5 -38q-77 0 -139.5 27.5t-107 76t-68.5 115t-24 144.5q0 79 24 145.5t68.5 115 t106.5 75.5t139 27q91 0 158.5 -36.5t114.5 -102.5zM339 758q-30 27 -62 52.5t-73 53.5l27 44q40 -14 78.5 -36t65.5 -46q26 24 65 46t79 36l27 -44q-41 -28 -73 -53.5t-62 -52.5h-72z" />
<glyph unicode="&#x10d;" horiz-adv-x="525" d="M499 96q-33 -47 -85.5 -77.5t-124.5 -30.5q-58 0 -104.5 20.5t-79 56.5t-50 85.5t-17.5 107.5q0 57 17.5 106.5t50.5 85.5t79.5 56.5t103.5 20.5q70 0 122.5 -29.5t86.5 -78.5l-67 -47q-23 35 -57.5 56t-81.5 21q-38 0 -68 -14.5t-51 -40t-32.5 -60.5t-11.5 -76 t11.5 -76.5t32.5 -61t51 -40t67 -14.5q50 0 85 22.5t58 55.5zM251 596q-30 27 -62 52.5t-73 53.5l27 44q40 -14 78.5 -36t65.5 -46q26 24 65 46t79 36l27 -44q-41 -28 -73 -53.5t-62 -52.5h-72z" />
<glyph unicode="&#x10e;" horiz-adv-x="735" d="M355 86q58 0 103 19t75.5 53.5t46 83t15.5 108.5t-15.5 108.5t-46 83t-75.5 53.5t-103 19h-177v-528h177zM85 0v700h270q81 0 144 -26.5t106 -73.5t65.5 -111t22.5 -139t-22.5 -139t-65.5 -111t-106 -73.5t-144 -26.5h-270zM317 758q-30 27 -62 52.5t-73 53.5l27 44 q40 -14 78.5 -36t65.5 -46q26 24 65 46t79 36l27 -44q-41 -28 -73 -53.5t-62 -52.5h-72z" />
<glyph unicode="&#x10f;" horiz-adv-x="657" d="M462 0v85q-37 -53 -84.5 -75t-100.5 -22q-56 0 -100 20.5t-75 57t-47.5 85.5t-16.5 106t16.5 106.5t47.5 86t75 57t100 20.5q54 0 101 -22.5t84 -74.5v284h86v-714h-86zM462 258q0 40 -11 74.5t-32.5 60t-53 40.5t-72.5 15t-72 -15t-51.5 -40.5t-30.5 -60.5t-10 -74 t10 -74t30.5 -61t51 -41t72.5 -15t73.5 15t52.5 41t32 60.5t11 74.5zM727 640q0 -48 -20 -85.5t-58 -72.5l-31 32q19 20 30.5 45.5t11.5 50.5q0 13 -3.5 23t-7.5 20t-7 20t-3 24v17h88v-74z" />
<glyph unicode="&#x110;" horiz-adv-x="759" d="M109 0v323h-115v75h115v302h269q81 0 144 -26.5t106 -73t65.5 -110.5t22.5 -139t-22.5 -139t-65.5 -111.5t-106 -74t-144 -26.5h-269zM378 86q59 0 104 19t75.5 53.5t46 83.5t15.5 109t-15.5 108.5t-46 83t-75.5 53t-104 18.5h-175v-216h195v-75h-195v-237h175z" />
<glyph unicode="&#x111;" horiz-adv-x="619" d="M462 0v85q-37 -53 -84.5 -75t-99.5 -22q-56 0 -100.5 20.5t-75.5 57t-47.5 85.5t-16.5 106q0 58 16.5 107.5t47.5 85.5t75.5 56.5t100.5 20.5q52 0 99.5 -22t84.5 -75v178h-139v58h139v48h86v-48h75v-58h-75v-608h-86zM462 258q0 40 -11 74.5t-32.5 60t-53 40.5t-73.5 15 q-41 0 -71.5 -15t-51 -40.5t-30.5 -60t-10 -74.5q0 -39 10 -74t30.5 -61t51 -41t71.5 -15q42 0 74 15t53.5 41t32 60.5t10.5 74.5z" />
<glyph unicode="&#x112;" horiz-adv-x="635" d="M85 0v700h503v-86h-410v-203h349v-81h-349v-244h410v-86h-503zM193 783v58h300v-58h-300z" />
<glyph unicode="&#x113;" horiz-adv-x="572" d="M540 273q0 -12 -0.5 -20t-1.5 -13h-409q0 -31 10 -61t27 -50q48 -62 139 -62t155 67l57 -56q-40 -42 -92.5 -66t-121.5 -24q-63 0 -112.5 20.5t-83.5 56.5t-51.5 85t-17.5 106t17.5 106.5t50.5 86t80 57.5t106 21q57 0 103 -19.5t78.5 -53.5t49.5 -80.5t17 -100.5z M451 304q0 20 -6 37.5t-14 33.5q-21 39 -58 59t-82 20q-34 0 -62.5 -11t-49 -30.5t-33 -47.5t-15.5 -61h320zM142 621v58h300v-58h-300z" />
<glyph unicode="&#x114;" horiz-adv-x="635" d="M85 0v700h503v-86h-410v-203h349v-81h-349v-244h410v-86h-503zM342 765q-70 0 -113.5 35t-51.5 88l53 16q8 -31 36.5 -51.5t75.5 -20.5t75.5 20.5t36.5 51.5l53 -16q-8 -53 -51.5 -88t-113.5 -35z" />
<glyph unicode="&#x115;" horiz-adv-x="572" d="M540 273q0 -12 -0.5 -20t-1.5 -13h-409q0 -31 10 -61t27 -50q48 -62 139 -62t155 67l57 -56q-40 -42 -92.5 -66t-121.5 -24q-63 0 -112.5 20.5t-83.5 56.5t-51.5 85t-17.5 106t17.5 106.5t50.5 86t80 57.5t106 21q57 0 103 -19.5t78.5 -53.5t49.5 -80.5t17 -100.5z M451 304q0 20 -6 37.5t-14 33.5q-21 39 -58 59t-82 20q-34 0 -62.5 -11t-49 -30.5t-33 -47.5t-15.5 -61h320zM289 603q-70 0 -113.5 35t-51.5 88l53 16q8 -31 36.5 -51.5t75.5 -20.5t75.5 20.5t36.5 51.5l53 -16q-8 -53 -51.5 -88t-113.5 -35z" />
<glyph unicode="&#x116;" horiz-adv-x="635" d="M85 0v700h503v-86h-410v-203h349v-81h-349v-244h410v-86h-503zM307 769v81h81v-81h-81z" />
<glyph unicode="&#x117;" horiz-adv-x="572" d="M540 273q0 -12 -0.5 -20t-1.5 -13h-409q0 -31 10 -61t27 -50q48 -62 139 -62t155 67l57 -56q-40 -42 -92.5 -66t-121.5 -24q-63 0 -112.5 20.5t-83.5 56.5t-51.5 85t-17.5 106t17.5 106.5t50.5 86t80 57.5t106 21q57 0 103 -19.5t78.5 -53.5t49.5 -80.5t17 -100.5z M451 304q0 20 -6 37.5t-14 33.5q-21 39 -58 59t-82 20q-34 0 -62.5 -11t-49 -30.5t-33 -47.5t-15.5 -61h320zM249 607v81h81v-81h-81z" />
<glyph unicode="&#x118;" horiz-adv-x="635" d="M85 0v700h503v-86h-410v-203h349v-81h-349v-244h410v-86h-83q-33 -33 -33 -67q0 -23 14 -35t36 -12q23 0 39 10.5t27 24.5v-67q-11 -11 -31 -20t-49 -9q-41 0 -70.5 21.5t-29.5 63.5q0 21 9.5 44t35.5 46h-368z" />
<glyph unicode="&#x119;" horiz-adv-x="573" d="M540 271q0 -12 -0.5 -20t-1.5 -14h-408q3 -81 50.5 -125.5t124.5 -44.5q92 0 153 67l59 -55q-17 -19 -32.5 -30.5t-34.5 -22.5q-29 -19 -47.5 -42.5t-18.5 -50.5q0 -23 14 -34.5t35 -11.5q23 0 39 11t28 25v-68q-11 -11 -31 -20t-49 -9q-41 0 -71 21.5t-30 62.5 q0 20 9 41.5t32 41.5q-14 -2 -28 -3.5t-30 -1.5q-63 0 -112 20.5t-82.5 56.5t-51.5 85t-18 106t17.5 106.5t50.5 86t80 57.5t106 21q57 0 103 -20t78.5 -54.5t49.5 -81t17 -100.5zM451 302q-7 75 -52 113t-108 38q-69 0 -111.5 -42t-48.5 -109h320z" />
<glyph unicode="&#x11a;" horiz-adv-x="635" d="M85 0v700h503v-86h-410v-203h349v-81h-349v-244h410v-86h-503zM306 758q-30 27 -62 52.5t-73 53.5l27 44q40 -14 78.5 -36t65.5 -46q26 24 65 46t79 36l27 -44q-41 -28 -73 -53.5t-62 -52.5h-72z" />
<glyph unicode="&#x11b;" horiz-adv-x="572" d="M540 273q0 -12 -0.5 -20t-1.5 -13h-409q0 -31 10 -61t27 -50q48 -62 139 -62t155 67l57 -56q-40 -42 -92.5 -66t-121.5 -24q-63 0 -112.5 20.5t-83.5 56.5t-51.5 85t-17.5 106t17.5 106.5t50.5 86t80 57.5t106 21q57 0 103 -19.5t78.5 -53.5t49.5 -80.5t17 -100.5z M451 304q0 20 -6 37.5t-14 33.5q-21 39 -58 59t-82 20q-34 0 -62.5 -11t-49 -30.5t-33 -47.5t-15.5 -61h320zM254 596q-30 27 -62 52.5t-73 53.5l27 44q40 -14 78.5 -36t65.5 -46q26 24 65 46t79 36l27 -44q-41 -28 -73 -53.5t-62 -52.5h-72z" />
<glyph unicode="&#x11c;" horiz-adv-x="736" d="M382 713q89 0 157 -36.5t113 -101.5l-75 -49q-32 48 -82 74.5t-116 26.5q-56 0 -100.5 -20t-75.5 -56.5t-47.5 -87.5t-16.5 -112q0 -63 16.5 -114.5t48 -88t76 -57t101.5 -20.5q47 0 87 14.5t70 41t48 64.5t21 85h-207v82h300q2 -11 3 -23t1 -26q0 -65 -21.5 -123.5 t-62.5 -102.5t-101 -70t-137 -26q-78 0 -141 27.5t-107.5 76t-68.5 115.5t-24 145q0 79 24 145.5t68.5 114.5t107.5 75t141 27zM413 906q30 -27 62 -53t73 -54l-27 -44q-40 15 -79 37t-65 46q-27 -24 -65.5 -46t-78.5 -37l-27 44q41 28 73 54t62 53h72z" />
<glyph unicode="&#x11d;" horiz-adv-x="621" d="M551 82q0 -60 -12.5 -105t-43.5 -80q-38 -43 -94.5 -62t-124.5 -19q-125 0 -216 62l43 69q36 -25 79.5 -39t95.5 -14q39 0 73.5 9.5t59.5 30.5t39.5 53.5t14.5 77.5v56q-32 -50 -83 -73.5t-107 -23.5q-53 0 -96 19t-74 52t-48 79t-17 100q0 55 17.5 101t49.5 80t75.5 53 t96.5 19q56 0 105 -23.5t81 -73.5v85h86v-433zM466 277q0 36 -11 67.5t-32.5 55t-53.5 37t-74 13.5t-72.5 -13.5t-51 -37t-30.5 -55t-10 -67.5t10 -68t30.5 -56t51.5 -38t72 -14t73 14t53.5 38t33 56t11.5 68zM332 744q30 -27 62 -53t73 -54l-27 -44q-40 15 -79 37t-65 46 q-27 -24 -65.5 -46t-78.5 -37l-27 44q41 28 73 54t62 53h72z" />
<glyph unicode="&#x11e;" horiz-adv-x="736" d="M382 713q89 0 157 -36.5t113 -101.5l-75 -49q-32 48 -82 74.5t-116 26.5q-56 0 -100.5 -20t-75.5 -56.5t-47.5 -87.5t-16.5 -112q0 -63 16.5 -114.5t48 -88t76 -57t101.5 -20.5q47 0 87 14.5t70 41t48 64.5t21 85h-207v82h300q2 -11 3 -23t1 -26q0 -65 -21.5 -123.5 t-62.5 -102.5t-101 -70t-137 -26q-78 0 -141 27.5t-107.5 76t-68.5 115.5t-24 145q0 79 24 145.5t68.5 114.5t107.5 75t141 27zM375 765q-70 0 -113.5 35t-51.5 88l53 16q8 -31 36.5 -51.5t75.5 -20.5t75.5 20.5t36.5 51.5l53 -16q-8 -53 -51.5 -88t-113.5 -35z" />
<glyph unicode="&#x11f;" horiz-adv-x="621" d="M551 82q0 -60 -12.5 -105t-43.5 -80q-38 -43 -94.5 -62t-124.5 -19q-125 0 -216 62l43 69q36 -25 79.5 -39t95.5 -14q39 0 73.5 9.5t59.5 30.5t39.5 53.5t14.5 77.5v56q-32 -50 -83 -73.5t-107 -23.5q-53 0 -96 19t-74 52t-48 79t-17 100q0 55 17.5 101t49.5 80t75.5 53 t96.5 19q56 0 105 -23.5t81 -73.5v85h86v-433zM466 277q0 36 -11 67.5t-32.5 55t-53.5 37t-74 13.5t-72.5 -13.5t-51 -37t-30.5 -55t-10 -67.5t10 -68t30.5 -56t51.5 -38t72 -14t73 14t53.5 38t33 56t11.5 68zM295 603q-70 0 -113.5 35t-51.5 88l53 16q8 -31 36.5 -51.5 t75.5 -20.5t75.5 20.5t36.5 51.5l53 -16q-8 -53 -51.5 -88t-113.5 -35z" />
<glyph unicode="&#x120;" horiz-adv-x="736" d="M382 713q89 0 157 -36.5t113 -101.5l-75 -49q-32 48 -82 74.5t-116 26.5q-56 0 -100.5 -20t-75.5 -56.5t-47.5 -87.5t-16.5 -112q0 -63 16.5 -114.5t48 -88t76 -57t101.5 -20.5q47 0 87 14.5t70 41t48 64.5t21 85h-207v82h300q2 -11 3 -23t1 -26q0 -65 -21.5 -123.5 t-62.5 -102.5t-101 -70t-137 -26q-78 0 -141 27.5t-107.5 76t-68.5 115.5t-24 145q0 79 24 145.5t68.5 114.5t107.5 75t141 27zM338 769v81h81v-81h-81z" />
<glyph unicode="&#x121;" horiz-adv-x="621" d="M551 82q0 -60 -12.5 -105t-43.5 -80q-38 -43 -94.5 -62t-124.5 -19q-125 0 -216 62l43 69q36 -25 79.5 -39t95.5 -14q39 0 73.5 9.5t59.5 30.5t39.5 53.5t14.5 77.5v56q-32 -50 -83 -73.5t-107 -23.5q-53 0 -96 19t-74 52t-48 79t-17 100q0 55 17.5 101t49.5 80t75.5 53 t96.5 19q56 0 105 -23.5t81 -73.5v85h86v-433zM466 277q0 36 -11 67.5t-32.5 55t-53.5 37t-74 13.5t-72.5 -13.5t-51 -37t-30.5 -55t-10 -67.5t10 -68t30.5 -56t51.5 -38t72 -14t73 14t53.5 38t33 56t11.5 68zM253 607v81h81v-81h-81z" />
<glyph unicode="&#x122;" horiz-adv-x="736" d="M382 713q89 0 157 -36.5t113 -101.5l-75 -49q-32 48 -82 74.5t-116 26.5q-56 0 -100.5 -20t-75.5 -56.5t-47.5 -87.5t-16.5 -112q0 -63 16.5 -114.5t48 -88t76 -57t101.5 -20.5q47 0 87 14.5t70 41t48 64.5t21 85h-207v82h300q2 -11 3 -23t1 -26q0 -65 -21.5 -123.5 t-62.5 -102.5t-101 -70t-137 -26q-78 0 -141 27.5t-107.5 76t-68.5 115.5t-24 145q0 79 24 145.5t68.5 114.5t107.5 75t141 27zM275 -173q20 26 40 59.5t31 62.5l83 -12q-8 -17 -20.5 -35.5t-28 -36.5t-34 -35t-37.5 -30z" />
<glyph unicode="&#x123;" horiz-adv-x="621" d="M398 727q-23 -28 -43.5 -64t-33.5 -65l-87 11q8 19 21 39t30 39t36 36.5t40 30.5zM551 82q0 -60 -12.5 -105t-43.5 -80q-38 -43 -94.5 -62t-124.5 -19q-125 0 -216 62l43 69q36 -25 79.5 -39t95.5 -14q39 0 73.5 9.5t59.5 30.5t39.5 53.5t14.5 77.5v56q-32 -50 -83 -73.5 t-107 -23.5q-53 0 -96 19t-74 52t-48 79t-17 100q0 55 17.5 101t49.5 80t75.5 53t96.5 19q56 0 105 -23.5t81 -73.5v85h86v-433zM466 277q0 36 -11 67.5t-32.5 55t-53.5 37t-74 13.5t-72.5 -13.5t-51 -37t-30.5 -55t-10 -67.5t10 -68t30.5 -56t51.5 -38t72 -14t73 14 t53.5 38t33 56t11.5 68z" />
<glyph unicode="&#x124;" horiz-adv-x="744" d="M566 0v328h-389v-328h-92v700h92v-287h389v287h92v-700h-92zM407 906q30 -27 62 -53t73 -54l-27 -44q-40 15 -79 37t-65 46q-27 -24 -65.5 -46t-78.5 -37l-27 44q41 28 73 54t62 53h72z" />
<glyph unicode="&#x125;" horiz-adv-x="583" d="M70 0v714h86v-285q32 48 76.5 73t101.5 25q85 0 133.5 -51.5t48.5 -144.5v-331h-86v311q0 23 -4.5 47.5t-17 44t-35 32t-59.5 12.5q-34 0 -63 -12t-50 -33.5t-33 -51.5t-12 -66v-284h-86zM153 906q30 -27 62 -53t73 -54l-27 -44q-40 15 -79 37t-65 46q-27 -24 -65.5 -46 t-78.5 -37l-27 44q41 28 73 54t62 53h72z" />
<glyph unicode="&#x126;" horiz-adv-x="744" d="M566 0v328h-389v-328h-92v537h-51v54h51v109h92v-109h389v109h92v-109h52v-54h-52v-537h-92zM566 413v124h-389v-124h389z" />
<glyph unicode="&#x127;" horiz-adv-x="583" d="M71 0v608h-75v58h75v48h86v-48h139v-58h-139v-174q32 48 76.5 73t101.5 25q85 0 133.5 -51.5t48.5 -145.5v-335h-86v315q0 24 -4.5 48t-17 43.5t-35 32t-59.5 12.5q-34 0 -63 -11.5t-50 -33t-33 -51.5t-12 -67v-288h-86z" />
<glyph unicode="&#x128;" horiz-adv-x="263" d="M85 0v700h92v-700h-92zM307 861q-15 -41 -42 -64.5t-59 -23.5q-18 0 -36 6.5t-35.5 14t-34.5 14t-32 6.5q-18 0 -34.5 -9.5t-34.5 -30.5l-37 25q15 40 42 63.5t60 23.5q18 0 36 -6.5t35.5 -13.5t34 -13.5t31.5 -6.5q18 0 35 9t34 30z" />
<glyph unicode="&#x129;" horiz-adv-x="228" d="M71 0v515h86v-515h-86zM289 699q-15 -41 -42 -64.5t-59 -23.5q-18 0 -36 6.5t-35.5 14t-34.5 14t-32 6.5q-18 0 -34.5 -9.5t-34.5 -30.5l-37 25q15 40 42 63.5t60 23.5q18 0 36 -6.5t35.5 -13.5t34 -13.5t31.5 -6.5q18 0 35 9t34 30z" />
<glyph unicode="&#x12a;" horiz-adv-x="263" d="M85 0v700h92v-700h-92zM-11.168 783v58h291.596v-58h-291.596z" />
<glyph unicode="&#x12b;" horiz-adv-x="228" d="M71 0v515h86v-515h-86zM-29.167 621v58h291.669v-58h-291.669z" />
<glyph unicode="&#x12c;" horiz-adv-x="263" d="M85 0v700h92v-700h-92zM134 765q-70 0 -113.5 35t-51.5 88l53 16q8 -31 36.5 -51.5t75.5 -20.5t75.5 20.5t36.5 51.5l53 -16q-8 -53 -51.5 -88t-113.5 -35z" />
<glyph unicode="&#x12d;" horiz-adv-x="228" d="M71 0v515h86v-515h-86zM115 603q-70 0 -113.5 35t-51.5 88l53 16q8 -31 36.5 -51.5t75.5 -20.5t75.5 20.5t36.5 51.5l53 -16q-8 -53 -51.5 -88t-113.5 -35z" />
<glyph unicode="&#x12e;" horiz-adv-x="263" d="M85 700h92v-700q-12 -3 -27.5 -8t-29 -13t-22.5 -20t-9 -29q0 -18 11 -29.5t31 -12.5q19 -1 36 8q20 8 32 23v-67q-11 -11 -30 -19t-43 -8q-42 0 -70.5 23.5t-28.5 59.5q0 26 14.5 50.5t43.5 41.5v700z" />
<glyph unicode="&#x12f;" horiz-adv-x="228" d="M71 515h86v-515q-11 -2 -26 -7t-29 -13t-24 -20.5t-10 -29.5q0 -18 11 -29.5t31 -12.5t37 8q10 4 18 10t14 13v-67q-11 -11 -30 -19t-43 -8q-40 0 -67.5 21t-30.5 55q-2 17 4 34q5 19 20.5 36t38.5 29v515zM71 625v89h86v-89h-86z" />
<glyph unicode="&#x130;" horiz-adv-x="263" d="M85 0v700h92v-700h-92zM92 769v81h81v-81h-81z" />
<glyph unicode="&#x131;" horiz-adv-x="228" d="M71 0v515h86v-515h-86z" />
<glyph unicode="&#x134;" horiz-adv-x="498" d="M420 218q0 -56 -16 -99.5t-45.5 -72.5t-70.5 -44t-91 -15q-62 0 -111.5 24.5t-82.5 77.5l76 47q23 -33 53.5 -48t68.5 -15q69 0 97.5 39.5t28.5 104.5v483h93v-482v0zM408 906q30 -27 62 -53t73 -54l-27 -44q-40 15 -79 37t-65 46q-27 -24 -65.5 -46t-78.5 -37l-27 44 q41 28 73 54t62 53h72z" />
<glyph unicode="&#x135;" horiz-adv-x="228" d="M151 744q30 -27 62 -53t73 -54l-27 -44q-40 15 -79 37t-65 46q-27 -24 -65.5 -46t-78.5 -37l-27 44q41 28 73 54t62 53h72zM157 -1q0 -92 -48.5 -136.5t-127.5 -44.5q-20 0 -42 4t-37 11l23 72q11 -5 24.5 -8t27.5 -3q53 0 73.5 27.5t20.5 75.5v518h86v-516z" />
<glyph unicode="&#x136;" horiz-adv-x="629" d="M548 0l-246 336l-125 -137v-199h-92v700h92v-381l346 381h112l-270 -297l298 -403h-115zM241 -173q20 26 40 59.5t31 62.5l83 -12q-8 -17 -20.5 -35.5t-28 -36.5t-34 -35t-37.5 -30z" />
<glyph unicode="&#x137;" horiz-adv-x="553" d="M419 515h109l-211 -211l238 -304h-109l-189 248l-100 -101v-147h-86v714h86v-466zM203 -173q20 26 40 59.5t31 62.5l83 -12q-8 -17 -20.5 -35.5t-28 -36.5t-34 -35t-37.5 -30z" />
<glyph unicode="&#x138;" horiz-adv-x="553" d="M419 515h109l-211 -211l238 -304h-109l-189 248l-100 -101v-147h-86v515h86v-267z" />
<glyph unicode="&#x139;" horiz-adv-x="588" d="M85 0v700h92v-614h391v-86h-483zM72 786q14 15 27.5 32t27 34.5t24.5 34.5t18 31l92 -14q-9 -19 -25 -39.5t-36.5 -40.5t-43.5 -38t-46 -31z" />
<glyph unicode="&#x13a;" horiz-adv-x="233" d="M73 0v714h86v-714h-86zM66 786q14 15 27.5 32t27 34.5t24.5 34.5t18 31l92 -14q-9 -19 -25 -39.5t-36.5 -40.5t-43.5 -38t-46 -31z" />
<glyph unicode="&#x13b;" horiz-adv-x="588" d="M85 0v700h92v-614h391v-86h-483zM226 -173q20 26 40 59.5t31 62.5l83 -12q-8 -17 -20.5 -35.5t-28 -36.5t-34 -35t-37.5 -30z" />
<glyph unicode="&#x13c;" horiz-adv-x="233" d="M73 0v714h86v-714h-86zM9 -173q20 26 40 59.5t31 62.5l83 -12q-8 -17 -20.5 -35.5t-28 -36.5t-34 -35t-37.5 -30z" />
<glyph unicode="&#x13d;" horiz-adv-x="588" d="M85 0v700h92v-614h391v-86h-483zM366 626q0 -48 -20 -85.5t-58 -72.5l-31 32q19 20 30.5 45.5t11.5 50.5q0 13 -3.5 23t-7.5 20t-7 20t-3 24v17h88v-74z" />
<glyph unicode="&#x13e;" horiz-adv-x="279" d="M73 0v714h86v-714h-86zM346 640q0 -48 -20 -85.5t-58 -72.5l-31 32q19 20 30.5 45.5t11.5 50.5q0 13 -3.5 23t-7.5 20t-7 20t-3 24v17h88v-74z" />
<glyph unicode="&#x13f;" horiz-adv-x="588" d="M85 0v700h92v-614h391v-86h-483zM485 304q0 -26 -18 -44t-44 -18t-44 18t-18 44t18 44.5t44 18.5t44 -18.5t18 -44.5z" />
<glyph unicode="&#x140;" horiz-adv-x="455" d="M73 0v714h86v-714h-86zM395 304q0 -26 -18 -44t-44 -18t-44 18t-18 44t18 44.5t44 18.5t44 -18.5t18 -44.5z" />
<glyph unicode="&#x141;" horiz-adv-x="628" d="M124 0v276l-119 -55v75l119 56v348h93v-305l230 107v-76l-230 -108v-232h391v-86h-484z" />
<glyph unicode="&#x142;" horiz-adv-x="315" d="M200 397v-397h-86v360l-113 -52v74l113 52v280h86v-243l115 53v-75z" />
<glyph unicode="&#x143;" horiz-adv-x="738" d="M543 0l-369 584v-584h-89v700h119l360 -571v571h89v-700h-110zM308 786q14 15 27.5 32t27 34.5t24.5 34.5t18 31l92 -14q-9 -19 -25 -39.5t-36.5 -40.5t-43.5 -38t-46 -31z" />
<glyph unicode="&#x144;" horiz-adv-x="583" d="M70 0v515h86v-86q32 48 76.5 73t101.5 25q85 0 133.5 -51.5t48.5 -144.5v-331h-86v311q0 23 -4.5 47.5t-17 44t-35 32t-59.5 12.5q-34 0 -63 -12t-50 -33.5t-33 -51.5t-12 -66v-284h-86zM250 617q24 28 45 64t34 65l87 -13q-16 -37 -51 -76.5t-79 -67.5z" />
<glyph unicode="&#x145;" horiz-adv-x="738" d="M543 0l-369 584v-584h-89v700h119l360 -571v571h89v-700h-110zM272 -173q20 26 40 59.5t31 62.5l83 -12q-8 -17 -20.5 -35.5t-28 -36.5t-34 -35t-37.5 -30z" />
<glyph unicode="&#x146;" horiz-adv-x="583" d="M70 0v515h86v-86q32 48 76.5 73t101.5 25q85 0 133.5 -51.5t48.5 -144.5v-331h-86v311q0 23 -4.5 47.5t-17 44t-35 32t-59.5 12.5q-34 0 -63 -12t-50 -33.5t-33 -51.5t-12 -66v-284h-86zM195 -173q20 26 40 59.5t31 62.5l83 -12q-8 -17 -20.5 -35.5t-28 -36.5t-34 -35 t-37.5 -30z" />
<glyph unicode="&#x147;" horiz-adv-x="738" d="M543 0l-369 584v-584h-89v700h119l360 -571v571h89v-700h-110zM341 758q-30 27 -62 52.5t-73 53.5l27 44q40 -14 78.5 -36t65.5 -46q26 24 65 46t79 36l27 -44q-41 -28 -73 -53.5t-62 -52.5h-72z" />
<glyph unicode="&#x148;" horiz-adv-x="583" d="M70 0v515h86v-86q32 48 76.5 73t101.5 25q85 0 133.5 -51.5t48.5 -144.5v-331h-86v311q0 23 -4.5 47.5t-17 44t-35 32t-59.5 12.5q-34 0 -63 -12t-50 -33.5t-33 -51.5t-12 -66v-284h-86zM262 596q-30 27 -62 52.5t-73 53.5l27 44q40 -14 78.5 -36t65.5 -46q26 24 65 46 t79 36l27 -44q-41 -28 -73 -53.5t-62 -52.5h-72z" />
<glyph unicode="&#x14a;" horiz-adv-x="738" d="M653 37q0 -56 -16.5 -99t-45.5 -71.5t-69.5 -43t-88.5 -14.5q-56 0 -99 18l32 79q31 -13 66 -13q63 0 91.5 29.5t33.5 82.5l-383 575v-580h-89v700h116l363 -543v543h89v-663z" />
<glyph unicode="&#x14b;" horiz-adv-x="583" d="M517 -1q0 -90 -46.5 -135.5t-127.5 -45.5q-21 0 -43 4t-38 11l24 72q22 -11 52 -11q52 0 72.5 27t20.5 74v316q0 23 -4.5 47.5t-17 44t-35 32t-59.5 12.5q-34 0 -63 -12t-50 -33.5t-33 -51.5t-12 -66v-284h-86v515h86v-86q32 48 76.5 73t101.5 25q85 0 133.5 -51.5 t48.5 -144.5v-332z" />
<glyph unicode="&#x14c;" horiz-adv-x="762" d="M722 350q0 -77 -24 -143.5t-68.5 -115.5t-107.5 -76.5t-141 -27.5t-141 27.5t-107.5 76.5t-68.5 115.5t-24 143.5q0 78 24 144t68.5 115t107.5 76.5t141 27.5t141 -27.5t107.5 -76.5t68.5 -115t24 -144zM624 350q0 61 -16.5 112t-48 87.5t-76.5 56.5t-102 20t-102 -20 t-76 -56.5t-47.5 -87.5t-16.5 -112t16.5 -111.5t47.5 -87t76 -57t102 -20.5t102 20.5t76.5 57t48 87t16.5 111.5zM228 783v58h300v-58h-300z" />
<glyph unicode="&#x14d;" horiz-adv-x="586" d="M549 257q0 -58 -18 -107t-51 -85t-80.5 -56.5t-106.5 -20.5t-106 20.5t-80 56.5t-51 85t-18 107t18 107.5t51 85.5t80 56.5t106 20.5t106.5 -20.5t80.5 -56.5t51 -85.5t18 -107.5zM457 257q0 41 -11 76t-32 61t-51.5 41t-69.5 15t-69.5 -15t-51.5 -41t-32 -61t-11 -76 q0 -40 11 -75.5t32 -61t51.5 -40.5t69.5 -15t69.5 15t51.5 40.5t32 61t11 75.5zM143 621v58h300v-58h-300z" />
<glyph unicode="&#x14e;" horiz-adv-x="762" d="M722 350q0 -77 -24 -143.5t-68.5 -115.5t-107.5 -76.5t-141 -27.5t-141 27.5t-107.5 76.5t-68.5 115.5t-24 143.5q0 78 24 144t68.5 115t107.5 76.5t141 27.5t141 -27.5t107.5 -76.5t68.5 -115t24 -144zM624 350q0 61 -16.5 112t-48 87.5t-76.5 56.5t-102 20t-102 -20 t-76 -56.5t-47.5 -87.5t-16.5 -112t16.5 -111.5t47.5 -87t76 -57t102 -20.5t102 20.5t76.5 57t48 87t16.5 111.5zM380 765q-70 0 -113.5 35t-51.5 88l53 16q8 -31 36.5 -51.5t75.5 -20.5t75.5 20.5t36.5 51.5l53 -16q-8 -53 -51.5 -88t-113.5 -35z" />
<glyph unicode="&#x14f;" horiz-adv-x="586" d="M549 257q0 -58 -18 -107t-51 -85t-80.5 -56.5t-106.5 -20.5t-106 20.5t-80 56.5t-51 85t-18 107t18 107.5t51 85.5t80 56.5t106 20.5t106.5 -20.5t80.5 -56.5t51 -85.5t18 -107.5zM457 257q0 41 -11 76t-32 61t-51.5 41t-69.5 15t-69.5 -15t-51.5 -41t-32 -61t-11 -76 q0 -40 11 -75.5t32 -61t51.5 -40.5t69.5 -15t69.5 15t51.5 40.5t32 61t11 75.5zM294 603q-70 0 -113.5 35t-51.5 88l53 16q8 -31 36.5 -51.5t75.5 -20.5t75.5 20.5t36.5 51.5l53 -16q-8 -53 -51.5 -88t-113.5 -35z" />
<glyph unicode="&#x150;" horiz-adv-x="762" d="M722 350q0 -77 -24 -143.5t-68.5 -115.5t-107.5 -76.5t-141 -27.5t-141 27.5t-107.5 76.5t-68.5 115.5t-24 143.5q0 78 24 144t68.5 115t107.5 76.5t141 27.5t141 -27.5t107.5 -76.5t68.5 -115t24 -144zM624 350q0 61 -16.5 112t-48 87.5t-76.5 56.5t-102 20t-102 -20 t-76 -56.5t-47.5 -87.5t-16.5 -112t16.5 -111.5t47.5 -87t76 -57t102 -20.5t102 20.5t76.5 57t48 87t16.5 111.5zM249 786q14 15 27.5 32t27 34.5t24.5 34.5t18 31l92 -14q-9 -19 -25 -39.5t-36.5 -40.5t-43.5 -38t-46 -31zM408 786q14 15 27.5 32t27 34.5t24.5 34.5t18 31 l92 -14q-9 -19 -25 -39.5t-36.5 -40.5t-43.5 -38t-46 -31z" />
<glyph unicode="&#x151;" horiz-adv-x="586" d="M549 257q0 -58 -18 -107t-51 -85t-80.5 -56.5t-106.5 -20.5t-106 20.5t-80 56.5t-51 85t-18 107t18 107.5t51 85.5t80 56.5t106 20.5t106.5 -20.5t80.5 -56.5t51 -85.5t18 -107.5zM457 257q0 41 -11 76t-32 61t-51.5 41t-69.5 15t-69.5 -15t-51.5 -41t-32 -61t-11 -76 q0 -40 11 -75.5t32 -61t51.5 -40.5t69.5 -15t69.5 15t51.5 40.5t32 61t11 75.5zM172 624q14 15 27.5 32t27 34.5t24.5 34.5t18 31l92 -14q-9 -19 -25 -39.5t-36.5 -40.5t-43.5 -38t-46 -31zM331 624q14 15 27.5 32t27 34.5t24.5 34.5t18 31l92 -14q-9 -19 -25 -39.5 t-36.5 -40.5t-43.5 -38t-46 -31z" />
<glyph unicode="&#x152;" horiz-adv-x="1025" d="M380 0q-81 0 -144 26.5t-106 73.5t-65.5 111.5t-22.5 139.5t22.5 138.5t65.5 110.5t106 73.5t144 26.5h599v-86h-379v-203h317v-81h-317v-244h379v-86h-599zM141 351q0 -60 15.5 -109t46 -83.5t75 -53.5t102.5 -19h126v528h-126q-58 0 -102.5 -18.5t-75 -53t-46 -83 t-15.5 -108.5z" />
<glyph unicode="&#x153;" horiz-adv-x="988" d="M956 267q0 -9 -0.5 -16.5t-1.5 -13.5h-409q4 -81 51.5 -125.5t125.5 -44.5q47 0 84.5 16.5t66.5 48.5l60 -53q-41 -44 -93 -67.5t-121 -23.5q-78 0 -133.5 31.5t-85.5 86.5q-31 -54 -84 -86t-126 -32q-59 0 -105.5 20.5t-79 56.5t-50 85.5t-17.5 106.5q0 58 17.5 107.5 t50 85.5t79 56.5t105.5 20.5q73 0 126.5 -32t83.5 -87q30 54 83.5 86.5t125.5 32.5q57 0 102.5 -20t78 -54.5t49.5 -82.5t17 -103zM454 257q0 41 -11 76t-31.5 61t-50.5 41t-69 15t-69.5 -15t-51 -41t-31.5 -61t-11 -76q0 -40 11 -75t31.5 -61t51 -41t69.5 -15t69 15 t50.5 41t31.5 61t11 75zM867 302q-7 75 -52 113t-108 38q-69 0 -111.5 -42t-48.5 -109h320z" />
<glyph unicode="&#x154;" horiz-adv-x="672" d="M536 0l-151 285h-208v-285h-92v700h304q54 0 97 -14.5t73.5 -41t46.5 -64t16 -83.5q0 -74 -40.5 -123.5t-104.5 -71.5l165 -302h-106zM526 490q0 57 -38 90.5t-101 33.5h-210v-246h214q63 0 99 34t36 88zM261 786q14 15 27.5 32t27 34.5t24.5 34.5t18 31l92 -14 q-9 -19 -25 -39.5t-36.5 -40.5t-43.5 -38t-46 -31z" />
<glyph unicode="&#x155;" horiz-adv-x="378" d="M352 425q-14 7 -28.5 11t-31.5 4q-26 0 -50.5 -11.5t-43.5 -33t-30 -54t-11 -74.5v-267h-86v515h86v-88q26 42 64.5 70t86.5 28q23 0 41.5 -5.5t29.5 -13.5zM145 624q14 15 27.5 32t27 34.5t24.5 34.5t18 31l92 -14q-9 -19 -25 -39.5t-36.5 -40.5t-43.5 -38t-46 -31z" />
<glyph unicode="&#x156;" horiz-adv-x="672" d="M536 0l-151 285h-208v-285h-92v700h304q54 0 97 -14.5t73.5 -41t46.5 -64t16 -83.5q0 -74 -40.5 -123.5t-104.5 -71.5l165 -302h-106zM526 490q0 57 -38 90.5t-101 33.5h-210v-246h214q63 0 99 34t36 88zM233 -173q20 26 40 59.5t31 62.5l83 -12q-8 -17 -20.5 -35.5 t-28 -36.5t-34 -35t-37.5 -30z" />
<glyph unicode="&#x157;" horiz-adv-x="378" d="M352 425q-14 7 -28.5 11t-31.5 4q-26 0 -50.5 -11.5t-43.5 -33t-30 -54t-11 -74.5v-267h-86v515h86v-88q26 42 64.5 70t86.5 28q23 0 41.5 -5.5t29.5 -13.5zM5 -173q20 26 40 59.5t31 62.5l83 -12q-8 -17 -20.5 -35.5t-28 -36.5t-34 -35t-37.5 -30z" />
<glyph unicode="&#x158;" horiz-adv-x="672" d="M536 0l-151 285h-208v-285h-92v700h304q54 0 97 -14.5t73.5 -41t46.5 -64t16 -83.5q0 -74 -40.5 -123.5t-104.5 -71.5l165 -302h-106zM526 490q0 57 -38 90.5t-101 33.5h-210v-246h214q63 0 99 34t36 88zM286 758q-30 27 -62 52.5t-73 53.5l27 44q40 -14 78.5 -36 t65.5 -46q26 24 65 46t79 36l27 -44q-41 -28 -73 -53.5t-62 -52.5h-72z" />
<glyph unicode="&#x159;" horiz-adv-x="378" d="M352 425q-14 7 -28.5 11t-31.5 4q-26 0 -50.5 -11.5t-43.5 -33t-30 -54t-11 -74.5v-267h-86v515h86v-88q26 42 64.5 70t86.5 28q23 0 41.5 -5.5t29.5 -13.5zM185 596q-30 27 -62 52.5t-73 53.5l27 44q40 -14 78.5 -36t65.5 -46q26 24 65 46t79 36l27 -44 q-41 -28 -73 -53.5t-62 -52.5h-72z" />
<glyph unicode="&#x15a;" horiz-adv-x="611" d="M303 713q80 0 147 -31.5t112 -91.5l-72 -50q-34 43 -82.5 66.5t-109.5 23.5q-28 0 -54 -5.5t-45.5 -18t-31.5 -32.5t-12 -49t12.5 -47.5t34.5 -31t51.5 -21t63.5 -16.5q50 -12 96 -26t81.5 -37t56.5 -58t21 -87q0 -48 -18.5 -87.5t-53 -67.5t-83 -43.5t-109.5 -15.5 q-98 0 -170 39.5t-111 102.5l78 51q35 -58 92 -84t119 -26q73 0 117.5 32.5t44.5 91.5q0 32 -14.5 52.5t-40 33.5t-60 22t-75.5 18q-43 9 -84 22t-73 35t-51.5 55.5t-19.5 83.5q0 47 18.5 83.5t51 62t77 38.5t96.5 13zM236 786q14 15 27.5 32t27 34.5t24.5 34.5t18 31 l92 -14q-9 -19 -25 -39.5t-36.5 -40.5t-43.5 -38t-46 -31z" />
<glyph unicode="&#x15b;" horiz-adv-x="503" d="M468 152q0 -73 -56 -118.5t-156 -45.5q-77 0 -135 27.5t-94 78.5l60 50q30 -41 73.5 -62.5t98.5 -21.5q52 0 88 21t36 65q0 20 -8.5 32.5t-26 21.5t-44.5 15t-65 14q-36 7 -69.5 16.5t-59 26t-40.5 41.5t-15 63q0 40 16 68.5t42.5 47t61 27t72.5 8.5q37 0 68.5 -7t58 -19 t47.5 -27t36 -31l-57 -54q-29 34 -68.5 50t-84.5 16q-21 0 -41 -4t-35 -12t-24.5 -22t-9.5 -33q0 -20 10.5 -33t28 -22t41 -14.5t49.5 -10.5q39 -7 75.5 -16t64.5 -25.5t45 -43t17 -67.5zM200 617q24 28 45 64t34 65l87 -13q-16 -37 -51 -76.5t-79 -67.5z" />
<glyph unicode="&#x15c;" horiz-adv-x="611" d="M303 713q80 0 147 -31.5t112 -91.5l-72 -50q-34 43 -82.5 66.5t-109.5 23.5q-28 0 -54 -5.5t-45.5 -18t-31.5 -32.5t-12 -49t12.5 -47.5t34.5 -31t51.5 -21t63.5 -16.5q50 -12 96 -26t81.5 -37t56.5 -58t21 -87q0 -48 -18.5 -87.5t-53 -67.5t-83 -43.5t-109.5 -15.5 q-98 0 -170 39.5t-111 102.5l78 51q35 -58 92 -84t119 -26q73 0 117.5 32.5t44.5 91.5q0 32 -14.5 52.5t-40 33.5t-60 22t-75.5 18q-43 9 -84 22t-73 35t-51.5 55.5t-19.5 83.5q0 47 18.5 83.5t51 62t77 38.5t96.5 13zM339 906q30 -27 62 -53t73 -54l-27 -44q-40 15 -79 37 t-65 46q-27 -24 -65.5 -46t-78.5 -37l-27 44q41 28 73 54t62 53h72z" />
<glyph unicode="&#x15d;" horiz-adv-x="503" d="M468 152q0 -73 -56 -118.5t-156 -45.5q-77 0 -135 27.5t-94 78.5l60 50q30 -41 73.5 -62.5t98.5 -21.5q52 0 88 21t36 65q0 20 -8.5 32.5t-26 21.5t-44.5 15t-65 14q-36 7 -69.5 16.5t-59 26t-40.5 41.5t-15 63q0 40 16 68.5t42.5 47t61 27t72.5 8.5q37 0 68.5 -7t58 -19 t47.5 -27t36 -31l-57 -54q-29 34 -68.5 50t-84.5 16q-21 0 -41 -4t-35 -12t-24.5 -22t-9.5 -33q0 -20 10.5 -33t28 -22t41 -14.5t49.5 -10.5q39 -7 75.5 -16t64.5 -25.5t45 -43t17 -67.5zM287 744q30 -27 62 -53t73 -54l-27 -44q-40 15 -79 37t-65 46q-27 -24 -65.5 -46 t-78.5 -37l-27 44q41 28 73 54t62 53h72z" />
<glyph unicode="&#x15e;" horiz-adv-x="611" d="M303 713q80 0 147 -31.5t112 -91.5l-72 -50q-34 43 -82.5 66.5t-109.5 23.5q-28 0 -54 -5.5t-45.5 -18t-31.5 -32.5t-12 -49t12.5 -47.5t34.5 -31t51.5 -21t63.5 -16.5q50 -12 96 -26t81.5 -37t56.5 -58t21 -87q0 -48 -18.5 -87.5t-53 -67.5t-83.5 -44q-36 -11 -80 -14 q19 -15 30 -34.5t11 -42.5q0 -41 -30.5 -64t-73.5 -23q-25 0 -46 7t-33 18v61q12 -12 29.5 -20.5t36.5 -8.5q21 0 36 12t15 33q0 32 -34 62q-80 5 -140 38q-72 40 -111 103l78 51q35 -58 92 -84t119 -26q73 0 117.5 32.5t44.5 91.5q0 32 -14.5 52.5t-40 33.5t-60 22 t-75.5 18q-43 9 -84 22t-73 35t-51.5 55.5t-19.5 83.5q0 47 18.5 83.5t51 62t77 38.5t96.5 13z" />
<glyph unicode="&#x15f;" horiz-adv-x="503" d="M468 152q0 -73 -56 -119q-48 -38 -129 -44q17 -14 28 -33t11 -41q0 -38 -29.5 -60.5t-71.5 -22.5q-24 0 -44.5 7t-31.5 17v60q12 -11 28.5 -19.5t35.5 -8.5q20 0 34.5 11.5t14.5 31.5q0 32 -34 58q-58 5 -103 26q-58 28 -94 79l60 50q30 -41 73.5 -62.5t98.5 -21.5 q52 0 88 21t36 65q0 20 -8.5 32.5t-26 21.5t-44.5 15t-65 14q-36 7 -69.5 16.5t-59 26t-40.5 41.5t-15 63q0 40 16 68.5t42.5 47t61 27t72.5 8.5q37 0 68.5 -7t58 -19t47.5 -27t36 -31l-57 -54q-29 34 -68.5 50t-84.5 16q-21 0 -41 -4t-35 -12t-24.5 -22t-9.5 -33 q0 -20 10.5 -33t28 -22t41 -14.5t49.5 -10.5q39 -7 75.5 -16t64.5 -25.5t45 -43t17 -67.5z" />
<glyph unicode="&#x160;" horiz-adv-x="611" d="M303 713q80 0 147 -31.5t112 -91.5l-72 -50q-34 43 -82.5 66.5t-109.5 23.5q-28 0 -54 -5.5t-45.5 -18t-31.5 -32.5t-12 -49t12.5 -47.5t34.5 -31t51.5 -21t63.5 -16.5q50 -12 96 -26t81.5 -37t56.5 -58t21 -87q0 -48 -18.5 -87.5t-53 -67.5t-83 -43.5t-109.5 -15.5 q-98 0 -170 39.5t-111 102.5l78 51q35 -58 92 -84t119 -26q73 0 117.5 32.5t44.5 91.5q0 32 -14.5 52.5t-40 33.5t-60 22t-75.5 18q-43 9 -84 22t-73 35t-51.5 55.5t-19.5 83.5q0 47 18.5 83.5t51 62t77 38.5t96.5 13zM264 758q-30 27 -62 52.5t-73 53.5l27 44 q40 -14 78.5 -36t65.5 -46q26 24 65 46t79 36l27 -44q-41 -28 -73 -53.5t-62 -52.5h-72z" />
<glyph unicode="&#x161;" horiz-adv-x="503" d="M212 596q-30 27 -62 52.5t-73 53.5l27 44q40 -14 78.5 -36t65.5 -46q26 24 65 46t79 36l27 -44q-41 -28 -73 -53.5t-62 -52.5h-72zM468 152q0 -73 -56 -118.5t-156 -45.5q-77 0 -135 27.5t-94 78.5l60 50q30 -41 73.5 -62.5t98.5 -21.5q52 0 88 21t36 65q0 20 -8.5 32.5 t-26 21.5t-44.5 15t-65 14q-36 7 -69.5 16.5t-59 26t-40.5 41.5t-15 63q0 40 16 68.5t42.5 47t61 27t72.5 8.5q37 0 68.5 -7t58 -19t47.5 -27t36 -31l-57 -54q-29 34 -68.5 50t-84.5 16q-21 0 -41 -4t-35 -12t-24.5 -22t-9.5 -33q0 -20 10.5 -33t28 -22t41 -14.5t49.5 -10.5 q39 -7 75.5 -16t64.5 -25.5t45 -43t17 -67.5z" />
<glyph unicode="&#x162;" horiz-adv-x="603" d="M196 -87q12 -11 28.5 -19.5t35.5 -8.5q20 0 34.5 11.5t14.5 31.5q0 41 -54 72v614h-240v86h573v-86h-240v-614h-35q19 -11 34 -26q26 -27 26 -62q0 -38 -29.5 -60.5t-71.5 -22.5q-24 0 -44.5 7t-31.5 17v60z" />
<glyph unicode="&#x163;" horiz-adv-x="402" d="M137 -84q11 -11 28 -19.5t36 -8.5q20 0 34.5 11.5t14.5 31.5t-13.5 39.5t-40.5 32.5q-16 8 -31 21t-26 30q-12 19 -17 42.5t-5 60.5v286h-109v72h109v185h87v-185h168v-72h-168v-286q0 -90 80 -90q23 0 39.5 7t27.5 15l37 -66q-45 -33 -111 -35q17 -14 27 -32.5t10 -40.5 q0 -38 -29.5 -60.5t-71.5 -22.5q-24 0 -44.5 7t-31.5 17v60z" />
<glyph unicode="&#x164;" horiz-adv-x="603" d="M348 614v-614h-93v614h-240v86h573v-86h-240zM267 758q-30 27 -62 52.5t-73 53.5l27 44q40 -14 78.5 -36t65.5 -46q26 24 65 46t79 36l27 -44q-41 -28 -73 -53.5t-62 -52.5h-72z" />
<glyph unicode="&#x165;" horiz-adv-x="402" d="M388 23q-45 -35 -113 -35q-46 0 -80.5 16t-55.5 50q-12 19 -17 42.5t-4 60.5v286h-110v72h110v185h86v-185h168v-72h-168v-286q0 -90 80 -90q23 0 39.5 7t27.5 15zM352.197 690.766q0 -40.9277 -18.2168 -72.9023q-18.2158 -31.9746 -52.8281 -61.8184l-28.2354 27.2852 q17.3057 17.0537 27.7803 38.7969q10.4746 21.7422 10.4746 43.0586q0 11.085 -3.1875 19.6113q-3.18848 8.52734 -6.83203 17.0537q-3.64258 8.52637 -6.375 17.0527q-2.73242 8.52734 -2.73242 20.4639v14.4961h80.1523v-63.0977z" />
<glyph unicode="&#x166;" horiz-adv-x="603" d="M348 332v-332h-93v332h-113v60h113v222h-240v86h573v-86h-240v-222h112v-60h-112z" />
<glyph unicode="&#x167;" horiz-adv-x="402" d="M388 23q-45 -35 -113 -35q-46 0 -80.5 16t-55.5 50q-12 19 -17 42.5t-5 60.5v109h-90v54h90v123h-109v72h109v185h87v-185h168v-72h-168v-123h124v-54h-124v-109q0 -90 80 -90q23 0 39.5 7t27.5 15z" />
<glyph unicode="&#x168;" horiz-adv-x="723" d="M648 263q0 -63 -21.5 -114t-59.5 -87t-90.5 -55.5t-114.5 -19.5t-114.5 19.5t-90.5 55.5t-59 87t-21 114v437h92v-437q0 -86 51 -137.5t142 -51.5q44 0 80 13.5t61.5 38t39 59.5t13.5 78v437h92v-437zM536 861q-15 -41 -42 -64.5t-59 -23.5q-18 0 -36 6.5t-35.5 14 t-34.5 14t-32 6.5q-18 0 -34.5 -9.5t-34.5 -30.5l-37 25q15 40 42 63.5t60 23.5q18 0 36 -6.5t35.5 -13.5t34 -13.5t31.5 -6.5q18 0 35 9t34 30z" />
<glyph unicode="&#x169;" horiz-adv-x="582" d="M512 515v-515h-86v86q-33 -48 -77 -73t-101 -25q-85 0 -134 51.5t-49 145.5v330h86v-310q0 -24 4.5 -48t17 -44t35.5 -32.5t59 -12.5q34 0 63 12t50.5 33.5t33.5 51.5t12 66v284h86zM461 699q-15 -41 -42 -64.5t-59 -23.5q-18 0 -36 6.5t-35.5 14t-34.5 14t-32 6.5 q-18 0 -34.5 -9.5t-34.5 -30.5l-37 25q15 40 42 63.5t60 23.5q18 0 36 -6.5t35.5 -13.5t34 -13.5t31.5 -6.5q18 0 35 9t34 30z" />
<glyph unicode="&#x16a;" horiz-adv-x="723" d="M648 263q0 -63 -21.5 -114t-59.5 -87t-90.5 -55.5t-114.5 -19.5t-114.5 19.5t-90.5 55.5t-59 87t-21 114v437h92v-437q0 -86 51 -137.5t142 -51.5q44 0 80 13.5t61.5 38t39 59.5t13.5 78v437h92v-437zM212 783v58h300v-58h-300z" />
<glyph unicode="&#x16b;" horiz-adv-x="582" d="M512 515v-515h-86v86q-33 -48 -77 -73t-101 -25q-85 0 -134 51.5t-49 145.5v330h86v-310q0 -24 4.5 -48t17 -44t35.5 -32.5t59 -12.5q34 0 63 12t50.5 33.5t33.5 51.5t12 66v284h86zM138 621v58h300v-58h-300z" />
<glyph unicode="&#x16c;" horiz-adv-x="723" d="M648 263q0 -63 -21.5 -114t-59.5 -87t-90.5 -55.5t-114.5 -19.5t-114.5 19.5t-90.5 55.5t-59 87t-21 114v437h92v-437q0 -86 51 -137.5t142 -51.5q44 0 80 13.5t61.5 38t39 59.5t13.5 78v437h92v-437zM364 765q-70 0 -113.5 35t-51.5 88l53 16q8 -31 36.5 -51.5 t75.5 -20.5t75.5 20.5t36.5 51.5l53 -16q-8 -53 -51.5 -88t-113.5 -35z" />
<glyph unicode="&#x16d;" horiz-adv-x="582" d="M512 515v-515h-86v86q-33 -48 -77 -73t-101 -25q-85 0 -134 51.5t-49 145.5v330h86v-310q0 -24 4.5 -48t17 -44t35.5 -32.5t59 -12.5q34 0 63 12t50.5 33.5t33.5 51.5t12 66v284h86zM288 603q-70 0 -113.5 35t-51.5 88l53 16q8 -31 36.5 -51.5t75.5 -20.5t75.5 20.5 t36.5 51.5l53 -16q-8 -53 -51.5 -88t-113.5 -35z" />
<glyph unicode="&#x16e;" horiz-adv-x="723" d="M648 263q0 -63 -21.5 -114t-59.5 -87t-90.5 -55.5t-114.5 -19.5t-114.5 19.5t-90.5 55.5t-59 87t-21 114v437h92v-437q0 -86 51 -137.5t142 -51.5q44 0 80 13.5t61.5 38t39 59.5t13.5 78v437h92v-437zM469 821q0 -21 -8 -39.5t-22 -32t-33.5 -21.5t-41.5 -8t-41.5 8 t-33.5 21.5t-22.5 32t-8.5 39.5t8.5 39.5t22.5 33t33.5 22.5t41.5 8t41.5 -8t33.5 -22.5t22 -33t8 -39.5zM421 821q0 24 -17 41t-40 17t-40 -17t-17 -41t17 -40.5t40 -16.5t40 16.5t17 40.5z" />
<glyph unicode="&#x16f;" horiz-adv-x="582" d="M512 515v-515h-86v86q-33 -48 -77 -73t-101 -25q-85 0 -134 51.5t-49 145.5v330h86v-310q0 -24 4.5 -48t17 -44t35.5 -32.5t59 -12.5q34 0 63 12t50.5 33.5t33.5 51.5t12 66v284h86zM393 679q0 -21 -8 -39.5t-22 -32t-33.5 -21.5t-41.5 -8t-41.5 8t-33.5 21.5t-22.5 32 t-8.5 39.5t8.5 39.5t22.5 33t33.5 22.5t41.5 8t41.5 -8t33.5 -22.5t22 -33t8 -39.5zM345 679q0 24 -17 41t-40 17t-40 -17t-17 -41t17 -40.5t40 -16.5t40 16.5t17 40.5z" />
<glyph unicode="&#x170;" horiz-adv-x="723" d="M648 263q0 -63 -21.5 -114t-59.5 -87t-90.5 -55.5t-114.5 -19.5t-114.5 19.5t-90.5 55.5t-59 87t-21 114v437h92v-437q0 -86 51 -137.5t142 -51.5q44 0 80 13.5t61.5 38t39 59.5t13.5 78v437h92v-437zM219 786q14 15 27.5 32t27 34.5t24.5 34.5t18 31l92 -14 q-9 -19 -25 -39.5t-36.5 -40.5t-43.5 -38t-46 -31zM378 786q14 15 27.5 32t27 34.5t24.5 34.5t18 31l92 -14q-9 -19 -25 -39.5t-36.5 -40.5t-43.5 -38t-46 -31z" />
<glyph unicode="&#x171;" horiz-adv-x="582" d="M512 515v-515h-86v86q-33 -48 -77 -73t-101 -25q-85 0 -134 51.5t-49 145.5v330h86v-310q0 -24 4.5 -48t17 -44t35.5 -32.5t59 -12.5q34 0 63 12t50.5 33.5t33.5 51.5t12 66v284h86zM166 624q14 15 27.5 32t27 34.5t24.5 34.5t18 31l92 -14q-9 -19 -25 -39.5t-36.5 -40.5 t-43.5 -38t-46 -31zM325 624q14 15 27.5 32t27 34.5t24.5 34.5t18 31l92 -14q-9 -19 -25 -39.5t-36.5 -40.5t-43.5 -38t-46 -31z" />
<glyph unicode="&#x172;" horiz-adv-x="723" d="M647 263q0 -82 -33.5 -138.5t-90.5 -94.5q-32 -21 -52 -46.5t-20 -55.5q0 -24 14.5 -36t37.5 -12q24 0 40.5 11.5t27.5 26.5v-71q-11 -12 -32 -21.5t-51 -9.5q-21 0 -39.5 5.5t-32.5 16.5t-22.5 27.5t-8.5 39.5q0 21 9.5 44t34.5 46q-17 -3 -33.5 -5.5t-35.5 -2.5 q-62 0 -114 19.5t-90 55.5t-59 87t-21 114v437h92v-437q0 -86 51 -137.5t142 -51.5q44 0 80 13.5t61.5 38t39 59.5t13.5 78v437h92v-437z" />
<glyph unicode="&#x173;" horiz-adv-x="582" d="M425 86q-33 -48 -77 -73t-101 -25q-47 0 -81 15.5t-57 42.5t-34 62.5t-11 76.5v330h86v-306q0 -62 27 -101.5t90 -39.5q33 0 62 12t50.5 33.5t33.5 51.5t12 66v284h86v-515q-14 -2 -31 -7.5t-31.5 -14t-24.5 -21t-10 -28.5q0 -18 13 -30t36 -12q21 0 36 10t25 22v-67 q-11 -11 -30 -19t-43 -8q-42 0 -70.5 23.5t-28.5 59.5q0 26 16.5 52t56.5 40v86z" />
<glyph unicode="&#x174;" horiz-adv-x="970" d="M756 0h-105l-167 577l-166 -577h-107l-193 700h98l153 -584l173 584h90l172 -585l151 585h97zM521 906q30 -27 62 -53t73 -54l-27 -44q-40 15 -79 37t-65 46q-27 -24 -65.5 -46t-78.5 -37l-27 44q41 28 73 54t62 53h72z" />
<glyph unicode="&#x175;" horiz-adv-x="770" d="M606 0h-94l-127 406l-127 -406h-95l-143 515h91l106 -413l130 413h80l129 -413l106 413h88zM421 744q30 -27 62 -53t73 -54l-27 -44q-40 15 -79 37t-65 46q-27 -24 -65.5 -46t-78.5 -37l-27 44q41 28 73 54t62 53h72z" />
<glyph unicode="&#x176;" horiz-adv-x="621" d="M357 287v-287h-93v287l-268 413h109l207 -329l208 329h106zM347 906q30 -27 62 -53t73 -54l-27 -44q-40 15 -79 37t-65 46q-27 -24 -65.5 -46t-78.5 -37l-27 44q41 28 73 54t62 53h72z" />
<glyph unicode="&#x177;" horiz-adv-x="590" d="M433 122q-33 -47 -77 -72t-101 -25q-85 0 -133.5 51.5t-48.5 145.5v293h87v-273q0 -23 4.5 -47t17 -43.5t35 -32t58.5 -12.5q34 0 63 11.5t50 33t33 51.5t12 66v246h87v-453q0 -53 -11.5 -95t-41.5 -75q-32 -36 -82.5 -56t-119.5 -20q-62 0 -111 16.5t-89 45.5l43 69 q36 -29 77 -40.5t82 -11.5q33 0 63.5 8t53 26t36 46.5t13.5 69.5v77zM333 744q30 -27 62 -53t73 -54l-27 -44q-40 15 -79 37t-65 46q-27 -24 -65.5 -46t-78.5 -37l-27 44q41 28 73 54t62 53h72z" />
<glyph unicode="&#x178;" horiz-adv-x="621" d="M357 287v-287h-93v287l-268 413h109l207 -329l208 329h106zM161 768v82h80v-82h-80zM383 768v82h80v-82h-80z" />
<glyph unicode="&#x179;" horiz-adv-x="608" d="M32 0v79l412 535h-396v86h516v-77l-413 -537h421v-86h-540zM230 786q14 15 27.5 32t27 34.5t24.5 34.5t18 31l92 -14q-9 -19 -25 -39.5t-36.5 -40.5t-43.5 -38t-46 -31z" />
<glyph unicode="&#x17a;" horiz-adv-x="490" d="M33 0v70l307 368h-294v77h403v-69l-308 -370h317v-76h-425zM197 617q24 28 45 64t34 65l87 -13q-16 -37 -51 -76.5t-79 -67.5z" />
<glyph unicode="&#x17b;" horiz-adv-x="608" d="M32 0v79l412 535h-396v86h516v-77l-413 -537h421v-86h-540zM257 769v81h81v-81h-81z" />
<glyph unicode="&#x17c;" horiz-adv-x="490" d="M33 0v70l307 368h-294v77h403v-69l-308 -370h317v-76h-425zM203 607v81h81v-81h-81z" />
<glyph unicode="&#x17d;" horiz-adv-x="608" d="M32 0v79l412 535h-396v86h516v-77l-413 -537h421v-86h-540zM257 758q-30 27 -62 52.5t-73 53.5l27 44q40 -14 78.5 -36t65.5 -46q26 24 65 46t79 36l27 -44q-41 -28 -73 -53.5t-62 -52.5h-72z" />
<glyph unicode="&#x17e;" horiz-adv-x="490" d="M33 0v70l307 368h-294v77h403v-69l-308 -370h317v-76h-425zM202 596q-30 27 -62 52.5t-73 53.5l27 44q40 -14 78.5 -36t65.5 -46q26 24 65 46t79 36l27 -44q-41 -28 -73 -53.5t-62 -52.5h-72z" />
<glyph unicode="&#x192;" d="M521 625q-15 6 -27 8.5t-30 2.5q-53 0 -77.5 -23.5t-32.5 -69.5l-18 -107h137l-13 -70h-136l-54 -313q-6 -38 -21 -70.5t-38.5 -55.5t-56.5 -36t-76 -13q-27 0 -48.5 4.5t-39.5 12.5l28 71q12 -5 27 -8.5t34 -3.5q48 0 73 24.5t33 70.5l55 317h-107l12 70h107l17 103 q13 79 60.5 127t132.5 48q27 0 48.5 -4.5t36.5 -12.5z" />
<glyph unicode="&#x1fa;" horiz-adv-x="678" d="M302 873l81 127h105l-122 -127h-64zM225 757q0 22 9 42t24.5 35t36 24t44.5 9t44.5 -9t36.5 -24t25 -35t9 -42q0 -29 -13.5 -52t-34.5 -37l270 -668h-103l-77 198h-317l-79 -198h-98l271 668q-22 14 -35 37t-13 52zM339 613l-130 -333h257zM400 756q0 26 -17 43.5 t-43 17.5t-43.5 -17.5t-17.5 -43.5t17.5 -43t43.5 -17t43 17t17 43z" />
<glyph unicode="&#x1fb;" horiz-adv-x="642" d="M549 116q0 -29 9 -42.5t31 -13.5q19 0 32 8l11 -66q-14 -5 -30.5 -7.5t-29.5 -2.5q-37 0 -67.5 20t-38.5 68q-35 -52 -85 -72t-101 -20q-57 0 -102 21t-76 57.5t-47.5 84.5t-16.5 105q0 58 16.5 107t47.5 85.5t75 57.5t100 21q54 0 101 -22.5t84 -75.5v86h87v-399z M462 257q0 40 -11 74t-32 59.5t-52.5 40.5t-72.5 15t-72 -15t-51.5 -41t-30.5 -59.5t-10 -73.5t10 -73.5t30 -59.5t51 -41t72 -15q42 0 73.5 15t52.5 41t32 59.5t11 73.5zM396 652q0 -21 -8 -39.5t-22 -32t-33.5 -21.5t-41.5 -8t-41.5 8t-33.5 21.5t-22.5 32t-8.5 39.5 t8.5 39.5t22.5 33t33.5 22.5t41.5 8t41.5 -8t33.5 -22.5t22 -33t8 -39.5zM348 652q0 24 -17 41t-40 17t-40 -17t-17 -41t17 -40.5t40 -16.5t40 16.5t17 40.5zM218 811q14 15 27.5 32t27 34.5t24.5 34.5t18 31l92 -14q-9 -19 -25 -39.5t-36.5 -40.5t-43.5 -38t-46 -31z" />
<glyph unicode="&#x1fc;" horiz-adv-x="897" d="M447 0v198h-257l-102 -198h-100l360 700h541v-86h-349v-203h287v-81h-287v-244h349v-86h-442zM447 618h-45l-171 -338h216v338zM427 786q14 15 27.5 32t27 34.5t24.5 34.5t18 31l92 -14q-9 -19 -25 -39.5t-36.5 -40.5t-43.5 -38t-46 -31z" />
<glyph unicode="&#x1fd;" horiz-adv-x="992" d="M462 257q0 40 -11 74t-32.5 59.5t-53 40.5t-72.5 15t-71.5 -15t-51 -41t-30.5 -59.5t-10 -73.5t10 -73.5t30 -59.5t51 -41t72 -15q42 0 73.5 15t52.5 41t32 59.5t11 73.5zM720 527q55 0 99.5 -20t75.5 -55t48 -82.5t17 -100.5q0 -11 -0.5 -19t-1.5 -14h-408 q4 -78 51 -123t123 -45q92 0 154 68l59 -57q-41 -43 -93 -67t-122 -24q-80 0 -136.5 33t-86.5 92q-29 -57 -84.5 -91t-127.5 -34q-57 0 -103 20.5t-78.5 57t-50 86.5t-17.5 106q0 57 16.5 105t47.5 85t75 58t100 21q54 0 101 -22.5t84 -75.5v86h87v-76q29 38 70.5 63 t100.5 25zM870 302q-7 73 -52 111.5t-107 38.5q-69 0 -111.5 -42.5t-48.5 -107.5h319zM455 624q14 15 27.5 32t27 34.5t24.5 34.5t18 31l92 -14q-9 -19 -25 -39.5t-36.5 -40.5t-43.5 -38t-46 -31z" />
<glyph unicode="&#x1fe;" horiz-adv-x="762" d="M310 786q14 15 27.5 32t27 34.5t24.5 34.5t18 31l92 -14q-9 -19 -25 -39.5t-36.5 -40.5t-43.5 -38t-46 -31zM116 22l35 49q-54 51 -82.5 122t-28.5 157q0 78 24 144t68.5 115t107.5 76.5t141 27.5q53 0 99 -13t84 -37l35 48l47 -33l-36 -50q54 -50 83 -121t29 -157 q0 -77 -24 -143.5t-68.5 -115.5t-107.5 -76.5t-141 -27.5q-54 0 -99.5 13t-84.5 37l-34 -48zM624 350q0 63 -17.5 113.5t-49.5 87.5l-309 -439q56 -38 133 -38q57 0 102 20.5t76.5 57t48 87t16.5 111.5zM139 350q0 -127 65 -201l309 440q-28 17 -61 27t-71 10 q-57 0 -102 -20t-76 -56.5t-47.5 -87.5t-16.5 -112z" />
<glyph unicode="&#x1ff;" horiz-adv-x="586" d="M227 624q14 15 27.5 32t27 34.5t24.5 34.5t18 31l92 -14q-9 -19 -25 -39.5t-36.5 -40.5t-43.5 -38t-46 -31zM92 20l24 35q-38 36 -58 88.5t-20 115.5q0 59 18 109t51 86.5t80 57t106 20.5q38 0 71.5 -9t61.5 -26l23 33l45 -30l-24 -35q38 -37 58.5 -89.5t20.5 -116.5 q0 -58 -18 -107.5t-51 -86t-80.5 -57t-106.5 -20.5q-76 0 -134 35l-22 -33zM128 259q0 -38 9.5 -71.5t29.5 -59.5l212 302q-36 25 -86 25q-39 0 -70 -15t-52 -41.5t-32 -62t-11 -77.5zM457 259q0 79 -39 132l-212 -302q36 -24 87 -24q39 0 69.5 15t51.5 41.5t32 61.5t11 76z " />
<glyph unicode="&#x218;" horiz-adv-x="611" d="M303 713q80 0 147 -31.5t112 -91.5l-72 -50q-34 43 -82.5 66.5t-109.5 23.5q-28 0 -54 -5.5t-45.5 -18t-31.5 -32.5t-12 -49t12.5 -47.5t34.5 -31t51.5 -21t63.5 -16.5q50 -12 96 -26t81.5 -37t56.5 -58t21 -87q0 -48 -18.5 -87.5t-53 -67.5t-83 -43.5t-109.5 -15.5 q-98 0 -170 39.5t-111 102.5l78 51q35 -58 92 -84t119 -26q73 0 117.5 32.5t44.5 91.5q0 32 -14.5 52.5t-40 33.5t-60 22t-75.5 18q-43 9 -84 22t-73 35t-51.5 55.5t-19.5 83.5q0 47 18.5 83.5t51 62t77 38.5t96.5 13zM185 -173q20 26 40 59.5t31 62.5l83 -12 q-8 -17 -20.5 -35.5t-28 -36.5t-34 -35t-37.5 -30z" />
<glyph unicode="&#x219;" horiz-adv-x="503" d="M468 152q0 -73 -56 -118.5t-156 -45.5q-77 0 -135 27.5t-94 78.5l60 50q30 -41 73.5 -62.5t98.5 -21.5q52 0 88 21t36 65q0 20 -8.5 32.5t-26 21.5t-44.5 15t-65 14q-36 7 -69.5 16.5t-59 26t-40.5 41.5t-15 63q0 40 16 68.5t42.5 47t61 27t72.5 8.5q37 0 68.5 -7t58 -19 t47.5 -27t36 -31l-57 -54q-29 34 -68.5 50t-84.5 16q-21 0 -41 -4t-35 -12t-24.5 -22t-9.5 -33q0 -20 10.5 -33t28 -22t41 -14.5t49.5 -10.5q39 -7 75.5 -16t64.5 -25.5t45 -43t17 -67.5zM145 -173q20 26 40 59.5t31 62.5l83 -12q-8 -17 -20.5 -35.5t-28 -36.5t-34 -35 t-37.5 -30z" />
<glyph unicode="&#x21a;" horiz-adv-x="603" d="M348 614v-614h-93v614h-240v86h573v-86h-240zM178 -173q20 26 40 59.5t31 62.5l83 -12q-8 -17 -20.5 -35.5t-28 -36.5t-34 -35t-37.5 -30z" />
<glyph unicode="&#x21b;" horiz-adv-x="402" d="M388 23q-45 -35 -113 -35q-46 0 -80.5 16t-55.5 50q-12 19 -17 42.5t-4 60.5v286h-110v72h110v185h86v-185h168v-72h-168v-286q0 -90 80 -90q23 0 39.5 7t27.5 15zM126 -173q20 26 40 59.5t31 62.5l83 -12q-8 -17 -20.5 -35.5t-28 -36.5t-34 -35t-37.5 -30z" />
<glyph unicode="&#x237;" horiz-adv-x="228" d="M157 -1q0 -92 -48.5 -136.5t-127.5 -44.5q-20 0 -42 4t-37 11l23 72q11 -5 24.5 -8t27.5 -3q53 0 73.5 27.5t20.5 75.5v518h86v-516z" />
<glyph unicode="&#x259;" horiz-adv-x="571" d="M275 452q-48 0 -86.5 -20t-61.5 -58l-70 46q35 52 91 82t128 30q58 0 105.5 -20.5t81 -56.5t52 -85.5t18.5 -108.5t-18 -108.5t-51.5 -86.5t-81.5 -57.5t-107 -20.5q-60 0 -106 21t-76.5 56.5t-46.5 82t-16 96.5q0 23 4 36h408q-5 82 -49.5 127t-117.5 45zM274 62 q69 0 112.5 40t52.5 113h-324q3 -32 15 -59.5t32 -48.5t48.5 -33t63.5 -12z" />
<glyph unicode="&#x2c6;" horiz-adv-x="310" d="M194 744q30 -27 62 -53t73 -54l-27 -44q-40 15 -79 37t-65 46q-27 -24 -65.5 -46t-78.5 -37l-27 44q41 28 73 54t62 53h72z" />
<glyph unicode="&#x2c7;" horiz-adv-x="310" d="M122 596q-30 27 -62 52.5t-73 53.5l27 44q40 -14 78.5 -36t65.5 -46q26 24 65 46t79 36l27 -44q-41 -28 -73 -53.5t-62 -52.5h-72z" />
<glyph unicode="&#x2d8;" horiz-adv-x="310" d="M158 603q-70 0 -113.5 35t-51.5 88l53 16q8 -31 36.5 -51.5t75.5 -20.5t75.5 20.5t36.5 51.5l53 -16q-8 -53 -51.5 -88t-113.5 -35z" />
<glyph unicode="&#x2d9;" horiz-adv-x="306" d="M113 607v81h81v-81h-81z" />
<glyph unicode="&#x2da;" horiz-adv-x="306" d="M261 679q0 -21 -8 -39.5t-22 -32t-33.5 -21.5t-41.5 -8t-41.5 8t-33.5 21.5t-22.5 32t-8.5 39.5t8.5 39.5t22.5 33t33.5 22.5t41.5 8t41.5 -8t33.5 -22.5t22 -33t8 -39.5zM213 679q0 24 -17 41t-40 17t-40 -17t-17 -41t17 -40.5t40 -16.5t40 16.5t17 40.5z" />
<glyph unicode="&#x2db;" horiz-adv-x="306" d="M210 32q-32 -21 -52.5 -46t-20.5 -54q0 -23 14 -34.5t36 -11.5q23 0 38.5 10t27.5 24v-67q-11 -11 -31 -20t-49 -9q-41 0 -70.5 21.5t-29.5 63.5q0 29 20 61.5t73 61.5h44z" />
<glyph unicode="&#x2dc;" horiz-adv-x="318" d="M330 699q-15 -41 -42 -64.5t-59 -23.5q-18 0 -36 6.5t-35.5 14t-34.5 14t-32 6.5q-18 0 -34.5 -9.5t-34.5 -30.5l-37 25q15 40 42 63.5t60 23.5q18 0 36 -6.5t35.5 -13.5t34 -13.5t31.5 -6.5q18 0 35 9t34 30z" />
<glyph unicode="&#x2dd;" horiz-adv-x="337" d="M27 624q14 15 27.5 32t27 34.5t24.5 34.5t18 31l92 -14q-9 -19 -25 -39.5t-36.5 -40.5t-43.5 -38t-46 -31zM186 624q14 15 27.5 32t27 34.5t24.5 34.5t18 31l92 -14q-9 -19 -25 -39.5t-36.5 -40.5t-43.5 -38t-46 -31z" />
<glyph unicode="&#x3c0;" horiz-adv-x="578" d="M483 446v-446h-69v446h-250v-446h-69v446h-70v69h528v-69h-70z" />
<glyph unicode="&#x1e80;" horiz-adv-x="970" d="M756 0h-105l-167 577l-166 -577h-107l-193 700h98l153 -584l173 584h90l172 -585l151 585h97zM504 755q-23 13 -46 31t-43.5 38t-36.5 40.5t-25 39.5l92 14q7 -14 18 -31t24.5 -34.5t27 -34.5t27.5 -32z" />
<glyph unicode="&#x1e81;" horiz-adv-x="770" d="M606 0h-94l-127 406l-127 -406h-95l-143 515h91l106 -413l130 413h80l129 -413l106 413h88zM393 593q-23 13 -46 31t-43.5 38t-36.5 40.5t-25 39.5l92 14q7 -14 18 -31t24.5 -34.5t27 -34.5t27.5 -32z" />
<glyph unicode="&#x1e82;" horiz-adv-x="970" d="M756 0h-105l-167 577l-166 -577h-107l-193 700h98l153 -584l173 584h90l172 -585l151 585h97zM424 786q14 15 27.5 32t27 34.5t24.5 34.5t18 31l92 -14q-9 -19 -25 -39.5t-36.5 -40.5t-43.5 -38t-46 -31z" />
<glyph unicode="&#x1e83;" horiz-adv-x="770" d="M606 0h-94l-127 406l-127 -406h-95l-143 515h91l106 -413l130 413h80l129 -413l106 413h88zM338 624q14 15 27.5 32t27 34.5t24.5 34.5t18 31l92 -14q-9 -19 -25 -39.5t-36.5 -40.5t-43.5 -38t-46 -31z" />
<glyph unicode="&#x1e84;" horiz-adv-x="970" d="M756 0h-105l-167 577l-166 -577h-107l-193 700h98l153 -584l173 584h90l172 -585l151 585h97zM334 768v82h80v-82h-80zM556 768v82h80v-82h-80z" />
<glyph unicode="&#x1e85;" horiz-adv-x="770" d="M606 0h-94l-127 406l-127 -406h-95l-143 515h91l106 -413l130 413h80l129 -413l106 413h88zM234 606v82h80v-82h-80zM456 606v82h80v-82h-80z" />
<glyph unicode="&#x1ef2;" horiz-adv-x="621" d="M357 287v-287h-93v287l-268 413h109l207 -329l208 329h106zM326 755q-23 13 -46 31t-43.5 38t-36.5 40.5t-25 39.5l92 14q7 -14 18 -31t24.5 -34.5t27 -34.5t27.5 -32z" />
<glyph unicode="&#x1ef3;" horiz-adv-x="590" d="M433 122q-33 -47 -77 -72t-101 -25q-85 0 -133.5 51.5t-48.5 145.5v293h87v-273q0 -23 4.5 -47t17 -43.5t35 -32t58.5 -12.5q34 0 63 11.5t50 33t33 51.5t12 66v246h87v-453q0 -53 -11.5 -95t-41.5 -75q-32 -36 -82.5 -56t-119.5 -20q-62 0 -111 16.5t-89 45.5l43 69 q36 -29 77 -40.5t82 -11.5q33 0 63.5 8t53 26t36 46.5t13.5 69.5v77zM319 593q-23 13 -46 31t-43.5 38t-36.5 40.5t-25 39.5l92 14q7 -14 18 -31t24.5 -34.5t27 -34.5t27.5 -32z" />
<glyph unicode="&#x2013;" d="M56 266v76h475v-76h-475z" />
<glyph unicode="&#x2014;" horiz-adv-x="930" d="M56 266v76h818v-76h-818z" />
<glyph unicode="&#x2018;" horiz-adv-x="211" d="M52 554q0 49 20 86.5t58 71.5l32 -33q-28 -23 -42 -48t-14 -51v-22h51v-96h-105v92z" />
<glyph unicode="&#x2019;" horiz-adv-x="211" d="M159 607q0 -48 -20.5 -85.5t-58.5 -71.5l-31 33q27 22 41 47t14 51v23h-51v96h106v-93z" />
<glyph unicode="&#x201a;" horiz-adv-x="235" d="M170 7q0 -48 -20 -85.5t-58 -72.5l-32 33q28 23 42 48t14 51v22h-52v97h106v-93z" />
<glyph unicode="&#x201c;" horiz-adv-x="395" d="M236 554q0 48 20 86t58 72l32 -33q-28 -23 -42 -48t-14 -51v-22h52v-96h-106v92zM52 554q0 49 20 86.5t58 71.5l32 -33q-28 -23 -42 -48t-14 -51v-22h51v-96h-105v92z" />
<glyph unicode="&#x201d;" horiz-adv-x="395" d="M159 607q0 -48 -20.5 -85.5t-58.5 -71.5l-31 33q27 22 41 47t14 51v23h-51v96h106v-93zM343 607q0 -48 -20.5 -85.5t-58.5 -71.5l-31 33q27 22 41 47t14 51v23h-51v96h106v-93z" />
<glyph unicode="&#x201e;" horiz-adv-x="419" d="M170 7q0 -48 -20 -85.5t-58 -72.5l-32 33q28 23 42 48t14 51v22h-52v97h106v-93zM354 7q0 -48 -20 -85.5t-58 -72.5l-32 33q28 23 42 48t14 51v22h-52v97h106v-93z" />
<glyph unicode="&#x2020;" horiz-adv-x="457" d="M270 446v-446h-83v446h-158v74h158v146h83v-146h159v-74h-159z" />
<glyph unicode="&#x2021;" horiz-adv-x="479" d="M281 147v-147h-83v147h-159v74h159v225h-159v74h159v146h83v-146h159v-74h-159v-225h159v-74h-159z" />
<glyph unicode="&#x2022;" horiz-adv-x="357" d="M312 333q0 -27 -10.5 -51.5t-28.5 -42.5t-42.5 -28.5t-51.5 -10.5q-28 0 -52.5 10.5t-42.5 28.5t-28.5 42.5t-10.5 51.5q0 28 10.5 52.5t28.5 42.5t42.5 28.5t52.5 10.5q27 0 51.5 -10.5t42.5 -28.5t28.5 -42.5t10.5 -52.5z" />
<glyph unicode="&#x2025;" horiz-adv-x="464" d="M63 0v105h106v-105h-106zM295 0v105h106v-105h-106z" />
<glyph unicode="&#x2026;" horiz-adv-x="683" d="M63 0v105h106v-105h-106zM288 0v105h106v-105h-106zM514 0v105h106v-105h-106z" />
<glyph unicode="&#x2030;" horiz-adv-x="1150" d="M356 541q0 -37 -12 -68.5t-33.5 -55t-52 -36.5t-66.5 -13q-37 0 -67 13t-51.5 36.5t-33.5 55t-12 68.5q0 36 12 67t33.5 54t51.5 36t67 13q36 0 66.5 -13t52 -36t33.5 -54t12 -67zM243 0h-69l363 700h69zM752 163q0 -37 -11.5 -68.5t-33 -54.5t-52 -36t-67.5 -13 q-36 0 -66 13t-52 36t-34 54.5t-12 68.5q0 36 12 67t34 54t52 36t66 13q37 0 67.5 -13t52 -36t33 -54t11.5 -67zM293 541q0 46 -27 77t-74 31q-48 0 -75 -31t-27 -77q0 -48 27 -80t75 -32q47 0 74 32t27 80zM691 163q0 46 -28 77t-75 31t-74.5 -31t-27.5 -77q0 -47 27.5 -79 t74.5 -32q48 0 75.5 32t27.5 79zM1124 163q0 -37 -11.5 -68.5t-33 -54.5t-51.5 -36t-66 -13q-37 0 -67 13t-51.5 36t-33.5 54.5t-12 68.5q0 36 12 67t33.5 54t51.5 36t67 13q36 0 66 -13t51.5 -36t33 -54t11.5 -67zM1063 163q0 46 -27 77t-74 31t-75 -31t-28 -77 q0 -47 28 -79t75 -32t74 32t27 79z" />
<glyph unicode="&#x2039;" horiz-adv-x="261" d="M24 274l143 192l52 -39l-122 -167l122 -167l-52 -39l-143 192v28z" />
<glyph unicode="&#x203a;" horiz-adv-x="261" d="M237 246l-143 -192l-52 39l122 167l-122 167l52 39l143 -192v-28z" />
<glyph unicode="&#x2044;" horiz-adv-x="209" d="M-103 0h-66l482 700h65z" />
<glyph unicode="&#x20ac;" d="M392 -13q-61 0 -112.5 19t-91.5 54t-67 84.5t-39 110.5h-77v53h70q-1 7 -2 18t-1 21q0 11 1 23.5t3 20.5h-71v53h78q12 61 40 110.5t68.5 84.5t92.5 54.5t113 19.5q57 0 104.5 -16t82.5 -45l-51 -69q-27 22 -59 33.5t-73 11.5q-85 0 -142.5 -49.5t-79.5 -134.5h278v-53 h-286q-3 -20 -3 -42q0 -11 0.5 -22t1.5 -19h287v-53h-278q21 -88 78.5 -135t136.5 -47q51 0 86 17.5t56 40.5l58 -62q-33 -36 -83.5 -59t-118.5 -23z" />
<glyph unicode="&#x2113;" horiz-adv-x="498" d="M435 72q-9 -12 -22 -27t-32 -27.5t-44 -21t-57 -8.5q-78 0 -116.5 43t-38.5 123v40q-20 -12 -37 -21.5t-31 -14.5l-30 69q20 8 45 22t53 32v189q0 34 4 71t19 67.5t43.5 50t78.5 19.5q32 0 56.5 -10t41.5 -28t26 -42t11 -51q1 -11 0.5 -22t-2.5 -22q-7 -35 -24.5 -70 t-43.5 -68t-59.5 -63.5t-70.5 -57.5v-88q0 -93 80 -93q35 0 58.5 19.5t34.5 37.5zM205 338q25 22 47.5 46t39.5 49.5t26.5 51.5t9.5 52q0 29 -13.5 49t-44.5 20q-20 0 -32.5 -8t-19.5 -20.5t-10 -29t-3 -33.5v-177z" />
<glyph unicode="&#x2117;" horiz-adv-x="803" d="M771 350q0 -76 -29 -143t-79.5 -117.5t-117.5 -79.5t-143 -29q-77 0 -144 29t-117.5 79.5t-79.5 117.5t-29 143t29 143.5t79.5 117.5t117.5 79t144 29q76 0 143 -29t117.5 -79t79.5 -117.5t29 -143.5zM716 350q0 65 -24.5 122.5t-67.5 100t-100 67.5t-122 25t-122.5 -25 t-100.5 -67.5t-68 -100t-25 -122.5t25 -122t68 -100t100.5 -67.5t122.5 -24.5t122 24.5t100 67.5t67.5 100t24.5 122zM336 299v-151h-66v402h174q63 0 101.5 -34.5t38.5 -90.5q0 -25 -9 -48t-27 -40t-44 -27.5t-60 -10.5h-108zM516 424q0 41 -26 56t-74 15h-80v-141h80 q50 0 75 15.5t25 54.5z" />
<glyph unicode="&#x2122;" horiz-adv-x="689" d="M583 418v223l-75 -223h-56l-75 223v-223h-50v282h78l76 -229l77 229h76v-282h-51zM184 651v-233h-52v233h-94v49h242v-49h-96z" />
<glyph unicode="&#x2126;" horiz-adv-x="633" d="M317 713q62 0 113 -22t87 -61t56 -93t20 -119q0 -60 -16 -110t-40.5 -93t-52.5 -79t-52 -67h152v-69h-217l-19 65q40 51 72.5 94t55 84.5t34.5 83t12 89.5q0 51 -14.5 93t-41 72.5t-64.5 47.5t-85 17t-85 -17t-65 -47.5t-41.5 -72.5t-14.5 -93q0 -48 12 -89.5t34.5 -83 t54.5 -84.5t73 -94l-19 -65h-216v69h151q-25 33 -53.5 69.5t-52.5 78.5t-39.5 92t-15.5 111q0 64 20 117.5t56.5 92.5t87.5 61t113 22z" />
<glyph unicode="&#x212e;" horiz-adv-x="642" d="M175 273v-187q31 -30 68 -45.5t82 -15.5q65 0 113 29t86 95l36 -22q-24 -37 -48.5 -63t-52.5 -43t-61 -25t-73 -8q-61 0 -110 22t-83.5 60.5t-53.5 90.5t-19 112t19 112t53.5 90.5t83.5 60.5t110 22q60 0 109 -21t84 -59t54.5 -90t19.5 -115h-417zM476 310v150 q-67 62 -152 62q-45 0 -81.5 -16t-67.5 -46v-150h301z" />
<glyph unicode="&#x2139;" horiz-adv-x="918" d="M419 554q-2 -18 -5 -37.5t-6 -35.5h95q34 0 57.5 24t23.5 59q0 34 -22.5 57t-60.5 23q-28 0 -51.5 -18.5t-30.5 -71.5zM463 34q35 0 72 10t69 28l-19 41q-20 -11 -36.5 -15t-31.5 -4q-30 0 -50.5 16t-20.5 52q0 18 5 41t11 43l52 174h-122l-34 -132q-11 -44 -19 -79 t-8 -61q0 -55 36 -84.5t96 -29.5zM40 333q0 87 33 163t90 133t133 90t163 33t163 -33t133 -90t90 -133t33 -163t-33 -163t-90 -133t-133 -90t-163 -33t-163 33t-133 90t-90 133t-33 163z" />
<glyph unicode="&#x2190;" horiz-adv-x="918" d="M88 333l330 330l52 -52l-241 -241h588v-74h-588l241 -242l-52 -52z" />
<glyph unicode="&#x2191;" horiz-adv-x="918" d="M459 729l346 -347l-51 -52l-258 257v-587h-74v587l-258 -257l-52 52z" />
<glyph unicode="&#x2192;" horiz-adv-x="918" d="M500 2l-52 52l240 242h-587v74h587l-240 241l52 52l330 -330z" />
<glyph unicode="&#x2193;" horiz-adv-x="918" d="M112 331l52 52l258 -257v588h74v-588l258 257l51 -52l-346 -346z" />
<glyph unicode="&#x2196;" horiz-adv-x="918" d="M682 528h-365l417 -416l-53 -53l-417 416v-365h-73v490h491v-72z" />
<glyph unicode="&#x2197;" horiz-adv-x="918" d="M236 600h490v-490h-72v365l-417 -416l-53 53l417 416h-365v72z" />
<glyph unicode="&#x2198;" horiz-adv-x="918" d="M236 139h365l-417 416l53 53l417 -417v365h72v-490h-490v73z" />
<glyph unicode="&#x2199;" horiz-adv-x="918" d="M682 66h-491v490h73v-365l417 417l53 -53l-417 -416h365v-73z" />
<glyph unicode="&#x2202;" horiz-adv-x="581" d="M265 494q45 0 86.5 -15t72.5 -47q-17 36 -42.5 70t-57 64t-68 55.5t-73.5 45.5l58 58q58 -32 112.5 -76.5t96.5 -101.5t67.5 -126.5t25.5 -149.5q0 -68 -20 -120.5t-54.5 -88.5t-82.5 -55t-103 -19q-58 0 -105 19t-80 53.5t-51 81t-18 102.5q0 53 17 99t48.5 79.5 t74.5 52.5t96 19zM455 241q0 36 -11 68t-33 56t-53.5 38t-72.5 14q-42 0 -72.5 -14t-51 -38t-30.5 -56t-10 -68t10 -67.5t30 -55t51 -37.5t73 -14t73.5 13.5t53 37.5t32.5 55.5t11 67.5z" />
<glyph unicode="&#x2206;" horiz-adv-x="592" d="M567 0h-542v14l265 700h12l265 -700v-14zM120 69h352l-176 467z" />
<glyph unicode="&#x220f;" horiz-adv-x="619" d="M514 629v-629h-71v629h-266v-629h-71v629h-74v71h555v-71h-73z" />
<glyph unicode="&#x2211;" horiz-adv-x="571" d="M532 0h-504v25l320 325l-320 325v25h504v-71h-362l275 -279l-275 -279h362v-71z" />
<glyph unicode="&#x2212;" d="M56 266v76h475v-76h-475z" />
<glyph unicode="&#x221a;" horiz-adv-x="565" d="M580 710l-374 -764h-12l-189 383l63 30l132 -269l318 650z" />
<glyph unicode="&#x221e;" horiz-adv-x="773" d="M733 275q0 -34 -13 -63.5t-35 -51.5t-51.5 -35t-63.5 -13q-32 0 -59.5 10t-53.5 36l-71 71l-70 -71q-26 -26 -53 -36t-60 -10q-34 0 -64 13t-52 35t-34.5 51.5t-12.5 63.5t12.5 63.5t34.5 51.5t52 35t64 13q33 0 60 -10t53 -36l70 -71l71 71q26 26 53.5 36t59.5 10 q34 0 63.5 -13t51.5 -35t35 -51.5t13 -63.5zM666 275q0 40 -28 68t-68 28q-21 0 -39.5 -9.5t-35 -23.5t-32 -31t-30.5 -32l67 -67q30 -29 70 -29t68 28t28 68zM272 342q-29 29 -69 29t-68 -28t-28 -68t28 -68t68 -28q21 0 39.5 9.5t35 23.5t32 31t30.5 32z" />
<glyph unicode="&#x222b;" horiz-adv-x="298" d="M241 641q-18 23 -41 23q-41 0 -41 -61q0 -17 2.5 -49t6.5 -73t8.5 -87.5t9.5 -91.5q5 -50 9.5 -96.5t8 -86.5t5.5 -71t2 -49q0 -61 -27.5 -92.5t-75.5 -31.5q-32 0 -53.5 11.5t-36.5 27.5l42 45q18 -23 41 -23q41 0 41 61q0 16 -2.5 48.5t-6.5 73.5t-9 87.5t-9 91.5 q-5 49 -9.5 96t-8 87t-5.5 71t-2 49q0 61 27.5 92.5t76.5 31.5q31 0 52.5 -11.5t36.5 -27.5z" />
<glyph unicode="&#x2248;" d="M41 190q11 15 25 30.5t31.5 29t38 22t44.5 8.5q28 0 53.5 -9t63.5 -25q37 -16 62 -24.5t51 -8.5q32 0 58 14t48 35l32 -32q-11 -14 -24.5 -30t-30.5 -29.5t-38 -22t-45 -8.5q-28 0 -53.5 9t-63.5 26q-36 15 -61.5 24t-51.5 9q-31 0 -57.5 -14.5t-48.5 -35.5zM41 380 q11 14 25 30t31.5 29t38 21.5t44.5 8.5q28 0 53.5 -9t63.5 -25q37 -16 62 -25t51 -9q32 0 58 14t48 36l32 -32q-11 -15 -24.5 -30.5t-30.5 -29t-38 -22t-45 -8.5q-28 0 -53.5 9t-63.5 25q-36 16 -61.5 25t-51.5 9q-31 0 -57.5 -15t-48.5 -35z" />
<glyph unicode="&#x2260;" d="M285 160l-57 -170h-60l57 170h-197v71h220l31 91h-251v72h275l57 170h59l-56 -170h196v-72h-221l-30 -91h251v-71h-274z" />
<glyph unicode="&#x2264;" d="M58 0v72h475v-72h-475zM470 632l39 -63l-313 -191l313 -191l-39 -63l-405 254z" />
<glyph unicode="&#x2265;" d="M55 0v72h475v-72h-475zM523 378l-406 -254l-38 63l312 191l-312 191l38 63z" />
<glyph unicode="&#x229b;" horiz-adv-x="918" d="M878 333q0 -87 -33 -163t-90 -133t-133 -90t-163 -33t-163 33t-133 90t-90 133t-33 163t33 163t90 133t133 90t163 33t163 -33t133 -90t90 -133t33 -163zM828 333q0 76 -29 143t-79.5 117.5t-117.5 79.5t-143 29t-143 -29t-117.5 -79.5t-79.5 -117.5t-29 -143t29 -143 t79.5 -117.5t117.5 -79.5t143 -29t143 29t117.5 79.5t79.5 117.5t29 143zM430 202q5 20 9 47.5t5 58.5q-22 -14 -43 -30t-41 -36q-22 -22 -40 -42.5t-35 -29.5q-13 -7 -27 -7q-29 0 -46 27q-8 14 -8 29q0 29 27 45q18 11 44 16t56 13q31 8 52 17t47 23q-26 14 -51.5 24 t-47.5 16q-29 8 -55.5 13t-44.5 16q-14 8 -20.5 19.5t-6.5 25.5q0 15 8 29q17 27 46 27q14 0 27 -7q17 -9 33.5 -28t41.5 -44q36 -36 84 -66q-1 56 -14 106q-8 29 -16.5 54.5t-8.5 45.5q0 25 15.5 39.5t38.5 14.5t38.5 -14.5t15.5 -39.5q0 -20 -8.5 -45.5t-16.5 -54.5 q-5 -20 -9 -48t-6 -58q48 29 85 66q23 23 40.5 42.5t34.5 29.5q13 7 27 7q29 0 46 -27q8 -14 8 -29q0 -14 -6.5 -25.5t-20.5 -19.5q-18 -11 -45.5 -16t-54.5 -13q-47 -13 -100 -40q26 -14 49.5 -23.5t50.5 -16.5q37 -10 60 -14.5t40 -14.5q27 -16 27 -45q0 -15 -8 -29 q-17 -27 -46 -27q-14 0 -27 7q-17 9 -33.5 28t-41.5 44q-19 19 -39.5 34.5t-45.5 31.5q3 -58 15 -106q9 -34 17 -56.5t8 -42.5q0 -26 -15.5 -40.5t-38.5 -14.5t-38.5 14.5t-15.5 40.5q0 20 8 42.5t17 56.5z" />
<glyph unicode="&#x25a0;" horiz-adv-x="766" d="M716 666v-666h-666v666h666z" />
<glyph unicode="&#x25a1;" horiz-adv-x="766" d="M716 666v-666h-666v666h666zM100 616v-566h566v566h-566z" />
<glyph unicode="&#x25b2;" horiz-adv-x="532" d="M500 0h-468l234 720z" />
<glyph unicode="&#x25b6;" horiz-adv-x="469" d="M70 686l353 -353l-353 -353v706z" />
<glyph unicode="&#x25b7;" horiz-adv-x="469" d="M70 686l353 -353l-353 -353v706zM114 86l247 247l-247 247v-494z" />
<glyph unicode="&#x25ba;" horiz-adv-x="830" d="M70 99v468l720 -234z" />
<glyph unicode="&#x25bb;" horiz-adv-x="830" d="M70 99v468l720 -234zM662 333l-552 179v-358z" />
<glyph unicode="&#x25bc;" horiz-adv-x="532" d="M32 666h468l-234 -720z" />
<glyph unicode="&#x25c0;" horiz-adv-x="469" d="M399 -20l-353 353l353 353v-706z" />
<glyph unicode="&#x25c1;" horiz-adv-x="469" d="M399 -20l-353 353l353 353v-706zM355 580l-247 -247l247 -247v494z" />
<glyph unicode="&#x25c4;" horiz-adv-x="830" d="M760 567v-468l-720 234z" />
<glyph unicode="&#x25c5;" horiz-adv-x="830" d="M760 567v-468l-720 234zM168 333l552 -179v358z" />
<glyph unicode="&#x25ca;" horiz-adv-x="596" d="M299 -48h-12l-255 381l255 381h12l255 -381zM293 599l-178 -266l178 -267l178 267z" />
<glyph unicode="&#x25cb;" horiz-adv-x="766" d="M30 333q0 73 27.5 137.5t75.5 112.5t112.5 75.5t137.5 27.5t137.5 -27.5t112.5 -75.5t75.5 -112.5t27.5 -137.5t-27.5 -137.5t-75.5 -112.5t-112.5 -75.5t-137.5 -27.5t-137.5 27.5t-112.5 75.5t-75.5 112.5t-27.5 137.5zM80 333q0 -63 24 -118t65 -96t96 -65t118 -24 t118 24t96 65t65 96t24 118t-24 118t-65 96t-96 65t-118 24t-118 -24t-96 -65t-65 -96t-24 -118z" />
<glyph unicode="&#x25cf;" horiz-adv-x="766" d="M30 333q0 73 27.5 137.5t75.5 112.5t112.5 75.5t137.5 27.5t137.5 -27.5t112.5 -75.5t75.5 -112.5t27.5 -137.5t-27.5 -137.5t-75.5 -112.5t-112.5 -75.5t-137.5 -27.5t-137.5 27.5t-112.5 75.5t-75.5 112.5t-27.5 137.5z" />
<glyph unicode="&#x2605;" horiz-adv-x="846" d="M814 434l-241 -175l92 -285l-242 175l-242 -175l92 285l-241 175h298l93 284l93 -284h298z" />
<glyph unicode="&#x2606;" horiz-adv-x="846" d="M814 434l-241 -175l92 -285l-242 175l-242 -175l92 285l-241 175h298l93 284l93 -284h298zM505 418l-82 251v-500l212 -154l-81 250l211 153h-260z" />
<glyph unicode="&#x271a;" horiz-adv-x="766" d="M272 222h-222v222h222v222h222v-222h222v-222h-222v-222h-222v222z" />
<glyph unicode="&#x2765;" horiz-adv-x="552" d="M339 331q36 0 67.5 -13t55 -36t37 -54t13.5 -67t-13.5 -67.5t-37 -55t-55 -37t-67.5 -13.5t-67.5 14t-54.5 37q-26 26 -44 60t-38 75q-36 71 -70 112.5t-65 41.5v10q31 0 65 41.5t70 112.5q18 35 36.5 71.5t45.5 63.5q23 23 54.5 37t67.5 14t67.5 -13.5t55 -37t37 -55 t13.5 -67.5t-13.5 -67t-37 -54t-55 -36.5t-67.5 -13.5v-3z" />
<glyph unicode="&#x3008;" horiz-adv-x="297" d="M209 -41l-190 370v8l190 370l65 -33l-175 -341l175 -341z" />
<glyph unicode="&#x3009;" horiz-adv-x="297" d="M88 707l190 -370v-8l-190 -370l-65 33l175 341l-175 341z" />
<glyph unicode="&#x300a;" horiz-adv-x="467" d="M274 674l-175 -341l175 -341l-65 -33l-190 370v8l190 370zM444 674l-175 -341l175 -341l-65 -33l-190 370v8l190 370z" />
<glyph unicode="&#x300b;" horiz-adv-x="467" d="M258 707l190 -370v-8l-190 -370l-65 33l175 341l-175 341zM88 707l190 -370v-8l-190 -370l-65 33l175 341l-175 341z" />
<glyph unicode="&#xe000;" horiz-adv-x="515" d="M0 515h515v-515h-515v515z" />
<glyph unicode="&#xf6c3;" horiz-adv-x="214" d="M9 -173q20 26 40 59.5t31 62.5l83 -12q-8 -17 -20.5 -35.5t-28 -36.5t-34 -35t-37.5 -30z" />
<glyph unicode="&#x1f4d5;" horiz-adv-x="876" d="M682 374q0 79 -44.5 126.5t-125.5 47.5q-42 0 -74.5 -13.5t-55.5 -37t-35 -55.5t-12 -70t11.5 -70t34.5 -55t57 -36.5t78 -13.5q51 0 90 17t71 46l-63 57q-42 -39 -92 -39q-36 0 -59 19t-25 53h243q1 5 1 12v12zM762 -8q-12 19 -12 44q0 24 12 44h-458q-18 0 -31 -13 t-13 -31t13 -31t31 -13h458zM439 410q2 32 22.5 49t51.5 17t51 -16.5t23 -49.5h-148zM798 666v-714h-494q-35 0 -59.5 24.5t-24.5 59.5v505q0 26 10 48.5t27 39.5t39.5 27t48.5 10h453zM345 706q-34 0 -64 -13t-52.5 -35.5t-35.5 -52.5t-13 -64h-40q0 42 16 79.5t44 65.5 t65.5 44t79.5 16v-40zM345 786q-51 0 -95.5 -19.5t-77.5 -52.5t-52.5 -77.5t-19.5 -95.5h-40q0 59 22.5 111t61 90.5t90.5 61t111 22.5v-40z" />
<glyph unicode="&#x1f4d6;" horiz-adv-x="918" d="M449 418q0 15 -14.5 37.5t-44 43.5t-75.5 36t-109 15v-342q61 0 105 -15t72.5 -36t42 -43.5t13.5 -37.5h10v342zM469 76h10q0 15 13.5 37.5t42 43.5t72.5 36t105 15v342q-63 0 -109 -15t-75.5 -36t-44 -43.5t-14.5 -37.5v-342zM78 586q0 27 10 50t27.5 40.5t40.5 27.5 t50 10h506q27 0 50 -10t40.5 -27.5t27.5 -40.5t10 -50v-506q0 -27 -10 -50t-27.5 -40.5t-40.5 -27.5t-50 -10h-506q-27 0 -50 10t-40.5 27.5t-27.5 40.5t-10 50v506z" />
<glyph unicode="&#x1f50c;" horiz-adv-x="918" d="M459 633q-30 0 -57 -6v-116h-169v-117h169v-122h-169v-117h169v-117q14 -2 28 -3.5t29 -1.5q54 0 103 18t87.5 50t65 76t37.5 95h121q-11 -76 -47.5 -141.5t-91.5 -113.5t-125.5 -75.5t-149.5 -27.5q-87 0 -163 33t-133 90t-90 133t-33 163t33 163t90 133t133 90t163 33 q79 0 149.5 -27.5t125.5 -75.5t91.5 -113.5t47.5 -141.5h-121q-11 51 -37.5 94.5t-65 76t-87.5 50.5t-103 18z" />
<glyph unicode="&#x1f697;" horiz-adv-x="1272" d="M168 78q-65 0 -91.5 48.5t-26.5 131.5q0 110 38.5 196.5t105 146.5t154.5 92t187 32q152 0 257.5 -73.5t147.5 -211.5q63 -7 116.5 -25t92.5 -47t61 -68.5t22 -90.5q0 -58 -27.5 -94.5t-75.5 -36.5h-15q-13 -42 -47.5 -68t-79.5 -26t-79.5 26t-47.5 68h-438 q-13 -42 -47.5 -68t-79.5 -26t-79.5 26t-47.5 68zM666 412q88 0 131.5 10t43.5 42q0 10 -3 19t-7 16q-19 37 -50.5 66t-70.5 49t-84 30.5t-91 10.5t-91 -10.5t-84 -30.5t-70.5 -49t-50.5 -66q-4 -7 -7 -16t-3 -19q0 -32 43.5 -42t131.5 -10h262z" />
<glyph unicode="&#x1f698;" horiz-adv-x="962" d="M307 47q0 -35 -21.5 -47t-63.5 -12t-63 12t-21 47v31q-17 13 -32 29.5t-25.5 39.5t-16.5 56t-6 79q0 107 32 189.5t88.5 139t134 85.5t168.5 29t168.5 -29t134 -85.5t88.5 -139t32 -189.5q0 -46 -6 -79t-16.5 -56t-25.5 -39.5t-32 -29.5v-31q0 -35 -21 -47t-63 -12 t-63.5 12t-21.5 47v31h-348v-31zM612 412q88 0 131.5 10t43.5 42q0 10 -3 19t-7 16q-19 37 -50.5 66t-70.5 49t-84 30.5t-91 10.5t-91 -10.5t-84 -30.5t-70.5 -49t-50.5 -66q-4 -7 -7 -16t-3 -19q0 -32 43.5 -42t131.5 -10h262zM808 264q0 30 -21 51t-51 21t-51 -21t-21 -51 t21 -51t51 -21t51 21t21 51zM154 264q0 -30 21 -51t51 -21t51 21t21 51t-21 51t-51 21t-51 -21t-21 -51z" />
<glyph horiz-adv-x="218" d="M166 626q0 -48 -20 -85.5t-58 -72.5l-31 32q19 20 30.5 45.5t11.5 50.5q0 13 -3.5 23t-7.5 20t-7 20t-3 24v17h88v-74z" />
<glyph horiz-adv-x="310" d="M101 617q24 28 45 64t34 65l87 -13q-16 -37 -51 -76.5t-79 -67.5z" />
<glyph horiz-adv-x="939" d="M284 227q12 0 14.5 -5.5t2.5 -10.5q0 -16 -22 -16h-9t-7 1v31h21zM180 226l15 -50h-30zM662 227q18 0 18 -16q0 -6 -4 -11.5t-18 -5.5h-7t-7 1v32h18zM470 254q-2 10 -4.5 19.5t-8.5 17.5l13 9l12 -9q-5 -8 -8.5 -17.5t-3.5 -19.5zM455 369q5 0 8 -3q-4 -8 -4 -15 q0 -15 11 -15q10 0 10 15q0 7 -4 15q3 3 8 3q6 0 9 -3.5t3 -8.5q0 -20 -26 -44q-26 23 -26 44q0 5 2.5 8.5t8.5 3.5zM546 299q0 -5 -6 -9t-14 -4t-15.5 2.5t-14.5 5.5q13 16 32 16q7 0 12.5 -2.5t5.5 -8.5zM470 725q211 -106 320 -231.5t109 -262.5q0 -56 -17 -100.5 t-48 -76.5t-73.5 -49t-94.5 -17q-39 0 -73.5 12t-59.5 33.5t-39.5 50t-14.5 61.5v105q0 19 11 36q18 -9 36 -9q13 0 21.5 6t8.5 16q0 9 -8 15t-20 6q-22 0 -40 -21l-6 4t-5 4q28 26 28 50q0 10 -6 16t-15 6q-8 0 -14 -6q-8 6 -15 6q-9 0 -15 -6t-6 -16q0 -24 28 -50l-10 -8 q-19 21 -40 21q-13 0 -20.5 -6t-7.5 -15q0 -10 8 -16t21 -6q18 0 36 9q11 -17 11 -36v-105q0 -34 -14 -62.5t-39 -49.5t-59.5 -33t-74.5 -12q-51 0 -94 17.5t-74 49t-48 76.5t-17 100q0 137 109 262.5t321 231.5zM226 140l-35 103h-23l-35 -103h20l7 20h40l6 -20h20z M324 140q-6 11 -11 20q-5 8 -8.5 14.5t-4.5 8.5q21 6 21 28q0 15 -9.5 23.5t-26.5 8.5h-41v-103h19v39h18q1 -1 4 -7t7 -13q4 -9 10 -19h22zM415 226q-14 19 -38 19q-15 0 -25 -8t-10 -21q0 -15 9 -21t20 -9t20 -6t9 -11q0 -9 -7 -11.5t-12 -2.5q-18 0 -31 16l-14 -11 q4 -6 15 -13.5t31 -7.5q16 0 26 8.5t10 22.5q0 15 -9 21t-20 9t-20 6t-9 11q0 6 5.5 9t10.5 3q16 0 26 -13zM569 184q0 1 6 10t14 20q9 12 19 29h-21l-27 -41l-27 41h-22q10 -16 19 -29q8 -11 13.5 -20.5t6.5 -9.5v-44h19v44zM663 178q17 0 26.5 9t9.5 24q0 32 -36 32h-38 v-103h19v38h19zM795 158h-56v27h35v17h-35v24h54v17h-73v-103h75v18zM393 299q0 6 6 8.5t13 2.5q18 0 31 -16q-7 -3 -14.5 -5.5t-15.5 -2.5t-14 4t-6 9z" />
<glyph horiz-adv-x="918" d="M205 280h325l-124 -125l72 -71l248 249l-248 249l-72 -71l124 -125h-325v-106zM878 333q0 -87 -33 -163t-90 -133t-133 -90t-163 -33t-163 33t-133 90t-90 133t-33 163t33 163t90 133t133 90t163 33t163 -33t133 -90t90 -133t33 -163z" />
<glyph horiz-adv-x="918" d="M878 333q0 -87 -33 -163t-90 -133t-133 -90t-163 -33t-163 33t-133 90t-90 133t-33 163t33 163t90 133t133 90t163 33t163 -33t133 -90t90 -133t33 -163zM648 170v352h-352v-101h176l-230 -230l75 -75l230 230v-176h101z" />
<glyph horiz-adv-x="918" d="M878 333q0 -87 -33 -163t-90 -133t-133 -90t-163 -33t-163 33t-133 90t-90 133t-33 163t33 163t90 133t133 90t163 33t163 -33t133 -90t90 -133t33 -163zM512 79v325l125 -124l71 72l-249 248l-249 -248l71 -72l125 124v-325h106z" />
<glyph horiz-adv-x="918" d="M40 333q0 87 33 163t90 133t133 90t163 33t163 -33t133 -90t90 -133t33 -163t-33 -163t-90 -133t-133 -90t-163 -33t-163 33t-133 90t-90 133t-33 163zM371 170v176l230 -230l75 75l-230 230h176v101h-352v-352h101z" />
<glyph horiz-adv-x="918" d="M878 333q0 -87 -33 -163t-90 -133t-133 -90t-163 -33t-163 33t-133 90t-90 133t-33 163t33 163t90 133t133 90t163 33t163 -33t133 -90t90 -133t33 -163zM713 386h-326l125 125l-72 71l-248 -249l248 -249l72 71l-125 125h326v106z" />
<glyph horiz-adv-x="918" d="M40 333q0 87 33 163t90 133t133 90t163 33t163 -33t133 -90t90 -133t33 -163t-33 -163t-90 -133t-133 -90t-163 -33t-163 33t-133 90t-90 133t-33 163zM270 496v-352h352v101h-176l230 230l-75 75l-230 -230v176h-101z" />
<glyph horiz-adv-x="918" d="M40 333q0 87 33 163t90 133t133 90t163 33t163 -33t133 -90t90 -133t33 -163t-33 -163t-90 -133t-133 -90t-163 -33t-163 33t-133 90t-90 133t-33 163zM406 587v-326l-125 125l-71 -72l249 -248l249 248l-71 72l-125 -125v326h-106z" />
<glyph horiz-adv-x="918" d="M878 333q0 -87 -33 -163t-90 -133t-133 -90t-163 -33t-163 33t-133 90t-90 133t-33 163t33 163t90 133t133 90t163 33t163 -33t133 -90t90 -133t33 -163zM547 496v-176l-230 230l-75 -75l230 -230h-176v-101h352v352h-101z" />
<glyph horiz-adv-x="918" d="M205 386h325l-124 125l72 71l248 -249l-248 -249l-72 71l124 125h-325v106zM878 333q0 -87 -33 -163t-90 -133t-133 -90t-163 -33t-163 33t-133 90t-90 133t-33 163t33 163t90 133t133 90t163 33t163 -33t133 -90t90 -133t33 -163zM828 333q0 76 -29 143t-79.5 117.5 t-117.5 79.5t-143 29t-143 -29t-117.5 -79.5t-79.5 -117.5t-29 -143t29 -143t79.5 -117.5t117.5 -79.5t143 -29t143 29t117.5 79.5t79.5 117.5t29 143z" />
<glyph horiz-adv-x="918" d="M878 333q0 -87 -33 -163t-90 -133t-133 -90t-163 -33t-163 33t-133 90t-90 133t-33 163t33 163t90 133t133 90t163 33t163 -33t133 -90t90 -133t33 -163zM547 170v176l-230 -230l-75 75l230 230h-176v101h352v-352h-101zM828 333q0 76 -29 143t-79.5 117.5t-117.5 79.5 t-143 29t-143 -29t-117.5 -79.5t-79.5 -117.5t-29 -143t29 -143t79.5 -117.5t117.5 -79.5t143 -29t143 29t117.5 79.5t79.5 117.5t29 143z" />
<glyph horiz-adv-x="918" d="M878 333q0 -87 -33 -163t-90 -133t-133 -90t-163 -33t-163 33t-133 90t-90 133t-33 163t33 163t90 133t133 90t163 33t163 -33t133 -90t90 -133t33 -163zM406 79v325l-125 -124l-71 72l249 248l249 -248l-71 -72l-125 124v-325h-106zM828 333q0 76 -29 143t-79.5 117.5 t-117.5 79.5t-143 29t-143 -29t-117.5 -79.5t-79.5 -117.5t-29 -143t29 -143t79.5 -117.5t117.5 -79.5t143 -29t143 29t117.5 79.5t79.5 117.5t29 143z" />
<glyph horiz-adv-x="918" d="M270 170v352h352v-101h-176l230 -230l-75 -75l-230 230v-176h-101zM40 333q0 87 33 163t90 133t133 90t163 33t163 -33t133 -90t90 -133t33 -163t-33 -163t-90 -133t-133 -90t-163 -33t-163 33t-133 90t-90 133t-33 163zM90 333q0 -76 29 -143t79.5 -117.5t117.5 -79.5 t143 -29t143 29t117.5 79.5t79.5 117.5t29 143t-29 143t-79.5 117.5t-117.5 79.5t-143 29t-143 -29t-117.5 -79.5t-79.5 -117.5t-29 -143z" />
<glyph horiz-adv-x="918" d="M878 333q0 -87 -33 -163t-90 -133t-133 -90t-163 -33t-163 33t-133 90t-90 133t-33 163t33 163t90 133t133 90t163 33t163 -33t133 -90t90 -133t33 -163zM713 280h-326l125 -125l-72 -71l-248 249l248 249l72 -71l-125 -125h326v-106zM828 333q0 76 -29 143t-79.5 117.5 t-117.5 79.5t-143 29t-143 -29t-117.5 -79.5t-79.5 -117.5t-29 -143t29 -143t79.5 -117.5t117.5 -79.5t143 -29t143 29t117.5 79.5t79.5 117.5t29 143z" />
<glyph horiz-adv-x="918" d="M40 333q0 87 33 163t90 133t133 90t163 33t163 -33t133 -90t90 -133t33 -163t-33 -163t-90 -133t-133 -90t-163 -33t-163 33t-133 90t-90 133t-33 163zM371 496v-176l230 230l75 -75l-230 -230h176v-101h-352v352h101zM90 333q0 -76 29 -143t79.5 -117.5t117.5 -79.5 t143 -29t143 29t117.5 79.5t79.5 117.5t29 143t-29 143t-79.5 117.5t-117.5 79.5t-143 29t-143 -29t-117.5 -79.5t-79.5 -117.5t-29 -143z" />
<glyph horiz-adv-x="918" d="M40 333q0 87 33 163t90 133t133 90t163 33t163 -33t133 -90t90 -133t33 -163t-33 -163t-90 -133t-133 -90t-163 -33t-163 33t-133 90t-90 133t-33 163zM512 587v-326l125 125l71 -72l-249 -248l-249 248l71 72l125 -125v326h106zM90 333q0 -76 29 -143t79.5 -117.5 t117.5 -79.5t143 -29t143 29t117.5 79.5t79.5 117.5t29 143t-29 143t-79.5 117.5t-117.5 79.5t-143 29t-143 -29t-117.5 -79.5t-79.5 -117.5t-29 -143z" />
<glyph horiz-adv-x="918" d="M878 333q0 -87 -33 -163t-90 -133t-133 -90t-163 -33t-163 33t-133 90t-90 133t-33 163t33 163t90 133t133 90t163 33t163 -33t133 -90t90 -133t33 -163zM648 496v-352h-352v101h176l-230 230l75 75l230 -230v176h101zM828 333q0 76 -29 143t-79.5 117.5t-117.5 79.5 t-143 29t-143 -29t-117.5 -79.5t-79.5 -117.5t-29 -143t29 -143t79.5 -117.5t117.5 -79.5t143 -29t143 29t117.5 79.5t79.5 117.5t29 143z" />
<glyph horiz-adv-x="766" d="M736 321l-195 1l193 -26l-194 15l191 -39l-193 28l187 -52l-190 41l184 -65l-187 55l178 -78l-183 68l173 -91l-177 81l166 -103l-172 93l159 -113l-165 104l150 -124l-157 115l141 -134l-148 126l131 -144l-139 136l121 -152l-130 145l110 -161l-119 155l99 -168 l-108 162l87 -175l-97 170l75 -181l-85 176l62 -185l-72 181l48 -188l-59 185l35 -191l-46 189l22 -194l-33 193l9 -195l-20 194l-5 -195l-6 195l-19 -194l8 195l-32 -193l21 194l-45 -189l35 191l-59 -185l48 188l-72 -181l62 185l-85 -176l75 181l-97 -170l87 175 l-108 -162l98 168l-119 -155l111 161l-130 -145l121 152l-139 -136l131 144l-148 -126l141 134l-157 -115l150 124l-165 -104l159 113l-172 -93l166 103l-177 -81l172 91l-182 -68l178 78l-187 -55l184 65l-191 -41l188 52l-193 -28l191 39l-194 -15l193 26l-195 -1l195 12 l-195 12l195 -1l-193 26l194 -15l-191 39l193 -28l-188 52l191 -41l-184 65l187 -55l-178 78l182 -68l-172 91l177 -81l-166 102l172 -92l-159 113l165 -104l-150 124l157 -115l-141 134l148 -126l-131 144l139 -136l-121 152l130 -145l-111 161l119 -155l-98 168l108 -162 l-87 175l97 -170l-75 180l85 -175l-62 185l72 -182l-48 189l59 -186l-35 192l45 -189l-21 194l32 -193l-8 195l19 -194l6 195l5 -195l20 194l-9 -195l33 193l-22 -194l46 189l-35 -192l59 186l-48 -189l72 182l-62 -185l85 175l-75 -180l97 170l-87 -175l108 162l-99 -168 l119 155l-110 -161l130 145l-121 -152l139 136l-131 -144l148 126l-141 -134l157 115l-150 -124l165 104l-159 -113l172 92l-166 -102l177 81l-173 -91l183 68l-178 -78l187 55l-184 -65l190 41l-187 -52l193 28l-191 -39l194 15l-193 -26l195 1l-195 -12z" />
<glyph horiz-adv-x="1068" d="M16 499q100 100 232.5 157.5t285.5 57.5q152 0 285 -57.5t233 -157.5l-92 -92q-82 82 -191.5 129.5t-234.5 47.5q-126 0 -235.5 -47.5t-190.5 -129.5zM534 454q98 0 184 -37t150 -102l-92 -92q-47 47 -109 74t-133 27q-72 0 -134 -27t-109 -74l-92 92q65 65 150.5 102 t184.5 37zM534 -20l-151 151q29 29 67.5 46t83.5 17t83.5 -16.5t67.5 -45.5z" />
<glyph horiz-adv-x="918" d="M592 206q27 -45 64.5 -64t79.5 -19q34 0 61.5 11t45.5 31q-24 -56 -63 -102t-89 -79t-109 -51.5t-123 -18.5q-87 0 -163 33t-133 90t-90 133t-33 163t33 163t89.5 133t132.5 90t162 33q88 0 164.5 -34t133.5 -90.5t90 -129.5t33 -151q0 -57 -25.5 -94.5t-86.5 -37.5 q-45 0 -75 29t-30 89v202h-111v-48q-49 56 -128 56q-44 0 -79.5 -16t-60.5 -44.5t-38 -66.5t-13 -83t13.5 -83t39 -66.5t62.5 -44.5t85 -16q49 0 91 19.5t70 63.5zM550 333q0 -48 -25 -80.5t-75 -32.5q-26 0 -45 9t-31.5 24.5t-18.5 36t-6 43.5t6 44t18.5 36.5t31.5 24.5 t45 9q49 0 74.5 -33.5t25.5 -80.5z" />
<glyph horiz-adv-x="1222" d="M303 713q80 0 147 -31.5t112 -91.5l-72 -50q-34 43 -82.5 66.5t-109.5 23.5q-28 0 -54 -5.5t-45.5 -18t-31.5 -32.5t-12 -49t12.5 -47.5t34.5 -31t51.5 -21t63.5 -16.5q50 -12 96 -26t81.5 -37t56.5 -58t21 -87q0 -48 -18.5 -87.5t-53 -67.5t-83 -43.5t-109.5 -15.5 q-98 0 -170 39.5t-111 102.5l78 51q35 -58 92 -84t119 -26q73 0 117.5 32.5t44.5 91.5q0 32 -14.5 52.5t-40 33.5t-60 22t-75.5 18q-43 9 -84 22t-73 35t-51.5 55.5t-19.5 83.5q0 47 18.5 83.5t51 62t77 38.5t96.5 13zM914 713q80 0 147 -31.5t112 -91.5l-72 -50 q-34 43 -82.5 66.5t-109.5 23.5q-28 0 -54 -5.5t-45.5 -18t-31.5 -32.5t-12 -49t12.5 -47.5t34.5 -31t51.5 -21t63.5 -16.5q50 -12 96 -26t81.5 -37t56.5 -58t21 -87q0 -48 -18.5 -87.5t-53 -67.5t-83 -43.5t-109.5 -15.5q-98 0 -170 39.5t-111 102.5l78 51q35 -58 92 -84 t119 -26q73 0 117.5 32.5t44.5 91.5q0 32 -14.5 52.5t-40 33.5t-60 22t-75.5 18q-43 9 -84 22t-73 35t-51.5 55.5t-19.5 83.5q0 47 18.5 83.5t51 62t77 38.5t96.5 13z" />
</font>
</defs>
</svg>
