<svg width="48" height="48" viewBox="0 0 48 48" fill="none" xmlns="http://www.w3.org/2000/svg">
<path fill-rule="evenodd" clip-rule="evenodd" d="M23.507 0.00251241C29.9049 -0.0874904 35.9909 2.24258 40.6168 6.68272C45.2428 11.1209 47.8608 17.097 47.9948 23.5052C48.1268 29.9154 45.7548 35.9916 41.3148 40.6178C36.8769 45.2439 30.9029 47.864 24.493 47.996L24.4862 47.9961C24.3185 47.9981 24.1527 48 23.985 48C17.7631 48 11.8851 45.6379 7.38116 41.3158C2.7572 36.8777 0.137226 30.9015 0.00522685 24.4933C-0.126772 18.0831 2.24521 12.0069 6.68316 7.38074C11.1231 2.7546 17.0951 0.136517 23.507 0.00251241ZM15.4135 22.5796L19.9994 27.1658L32.5853 14.5794L35.4133 17.4075L21.4134 31.4079C21.0234 31.7979 20.5114 31.9939 19.9994 31.9939C19.4874 31.9939 18.9754 31.7979 18.5855 31.4079L12.5855 25.4077L15.4135 22.5796Z" fill="#1D964F"/>
</svg>
