<?xml version="1.0" encoding="UTF-8" standalone="no"?>
<svg width="120px" height="120px" viewBox="0 0 120 120" version="1.1" xmlns="http://www.w3.org/2000/svg" xmlns:xlink="http://www.w3.org/1999/xlink">
	<g transform="translate(0.000000,120.000000) scale(0.100000,-0.100000)"
fill="#000000" stroke="none">
		<path d="M520 1159 c-237 -40 -405 -283 -356 -516 23 -110 81 -208 157 -263
l42 -30 -2 -165 -2 -165 236 0 236 0 -2 165 -2 165 42 30 c116 84 187 265 161
411 -13 74 -55 167 -102 223 -89 108 -262 169 -408 145z m254 -58 c85 -41 155
-112 197 -197 28 -56 34 -80 37 -154 3 -61 0 -103 -12 -142 -20 -70 -86 -170
-136 -205 -44 -32 -60 -69 -60 -141 l0 -52 -205 0 -205 0 0 49 c0 70 -13 97
-79 162 -85 83 -124 166 -129 279 -3 61 0 103 12 143 24 83 90 173 164 224 87
59 137 73 253 70 85 -2 103 -6 163 -36z"/>
		<path d="M566 773 c-25 -76 -46 -141 -46 -145 0 -5 16 -8 35 -8 19 0 35 -2 35
-4 0 -2 -14 -36 -31 -77 -46 -110 -51 -125 -41 -114 14 16 162 235 162 240 0
3 -14 5 -31 5 -36 0 -36 -4 21 131 22 51 40 96 40 101 0 4 -22 8 -49 8 l-48 0
-47 -137z"/>
	</g>
</svg>