<?xml version="1.0" encoding="iso-8859-1"?>
<!-- Generator: Adobe Illustrator 19.0.0, SVG Export Plug-In . SVG Version: 6.00 Build 0)  -->
<svg version="1.1" id="Layer_1" xmlns="http://www.w3.org/2000/svg" xmlns:xlink="http://www.w3.org/1999/xlink" x="0px" y="0px"
	 viewBox="0 0 512 512" style="enable-background:new 0 0 512 512;" xml:space="preserve">
<g>
	<path style="fill:#50C8EF;" d="M256,0C114.619,0,0,114.614,0,256s114.619,256,256,256c141.389,0,256-114.614,256-256
		S397.389,0,256,0z M256,460.8c-112.924,0-204.8-91.871-204.8-204.8S143.076,51.2,256,51.2c112.929,0,204.8,91.871,204.8,204.8
		S368.929,460.8,256,460.8z"/>
	<path style="fill:#50C8EF;" d="M193.93,184.32c0-19.709,13.97-27.776,31.04-17.92l124.15,71.68c17.07,9.856,17.07,25.984,0,35.84
		L224.97,345.6c-17.07,9.856-31.04,1.789-31.04-17.92V184.32z"/>
</g>
<g>
</g>
<g>
</g>
<g>
</g>
<g>
</g>
<g>
</g>
<g>
</g>
<g>
</g>
<g>
</g>
<g>
</g>
<g>
</g>
<g>
</g>
<g>
</g>
<g>
</g>
<g>
</g>
<g>
</g>
</svg>
