<svg width="240" height="53" viewBox="0 0 240 53" fill="none" xmlns="http://www.w3.org/2000/svg">
<g clip-path="url(#clip0_208_8786)">
<path d="M179.788 27.1201L179.813 27.1237L179.75 27.1096L179.788 27.1201Z" fill="white"/>
<path d="M193.031 16.1805H187.374L181.646 24.4702C183.39 24.8559 185.078 25.2663 186.705 25.705L188.481 22.9771L189.27 29.4695C187.926 29.0697 186.532 28.6911 185.103 28.3303C184.986 28.302 184.866 28.2737 184.749 28.2418C184.561 28.1958 184.377 28.1534 184.193 28.1038C183.875 28.026 183.546 27.9481 183.22 27.8738L183.206 27.8703C182.102 27.6085 180.97 27.3608 179.82 27.1273L179.795 27.1238L179.757 27.1167C178.412 26.8478 177.092 26.5931 175.691 26.356H175.674L175.659 26.3525H175.645C170.059 25.3972 164.026 24.7143 157.69 24.357L154.236 37.2002H160.014L162.239 28.96C162.862 29.0167 163.485 29.0733 164.097 29.1369L167.44 37.2002H179.152L183.896 30.4673C186.044 31.4438 188.011 32.5123 189.769 33.6622L190.208 37.1967H196.29L193.031 16.1805ZM173.218 36.6695L170.239 30.1595C172.404 29.5721 173.982 28.5744 175.015 27.2795L175.026 27.2618C176.353 27.6368 177.641 28.0401 178.883 28.4718L173.218 36.6695Z" fill="white"/>
<path d="M144.047 24.0882L140.512 37.1967H146.322L149.839 24.0775C149.011 24.0669 148.186 24.0598 147.351 24.0598C146.244 24.0598 145.14 24.0669 144.047 24.0882Z" fill="white"/>
<path d="M156.851 21.2576L158.156 16.3291H139.882L138.562 21.2258C141.439 21.0878 144.372 21.0135 147.355 21.0135C150.578 21.0135 153.748 21.0984 156.851 21.2576Z" fill="white"/>
<path d="M176.498 22.7684C176.498 21.0984 175.992 19.6089 174.888 18.505C173.484 17.1004 171.195 16.3291 167.706 16.3291H159.83L158.486 21.3531C164.844 21.7388 170.887 22.457 176.47 23.4442C176.488 23.2248 176.498 22.9948 176.498 22.7684Z" fill="white"/>
<path d="M210.8 30.2479C209.456 31.5924 208.143 32.3637 206.328 32.3637C203.912 32.3637 202.153 30.7255 202.153 28.072C202.153 24.4348 204.927 21.1869 208.384 21.1869C210.439 21.1869 211.752 22.1705 212.587 23.8687L217.593 21.1904C216.341 17.9708 213.394 15.9151 209.13 15.9151C201.113 15.9151 196.103 22.3261 196.103 28.4966C196.103 28.5992 196.107 28.6982 196.11 28.8008C196.142 30.0109 196.372 31.1183 196.768 32.116C198.148 35.5586 201.566 37.6177 205.971 37.6177C206.19 37.6177 206.406 37.6107 206.618 37.6C207.627 37.5541 208.554 37.3984 209.406 37.1542C211.61 36.5174 213.326 35.2791 214.706 33.7152L210.8 30.2479Z" fill="white"/>
<path d="M239.115 16.322H232.435L223.314 26.4798L226.052 16.322H220.236L214.628 37.2037H220.427L223.31 26.494L228.557 37.2037H234.837L229.537 26.4869L239.115 16.322Z" fill="white"/>
<path d="M136.177 18.5122C134.776 17.1111 132.48 16.3363 128.992 16.3363H121.123L119.258 23.2709C124.972 22.3051 131.143 21.6222 137.628 21.279C137.409 20.2176 136.942 19.2729 136.177 18.5122Z" fill="white"/>
<path d="M137.643 24.318C131.933 24.6223 126.466 25.1884 121.347 25.9809C121.216 25.9986 121.092 26.0198 120.968 26.0375C120.604 26.0977 120.239 26.1543 119.878 26.2144C119.68 26.2463 119.486 26.2781 119.291 26.3135C118.994 26.363 118.7 26.4161 118.407 26.4656C118.35 26.4727 118.297 26.4833 118.244 26.4939C118.063 26.5258 117.886 26.5576 117.71 26.5895C117.243 26.6744 116.775 26.7628 116.312 26.8513C116.234 26.8654 116.156 26.8796 116.078 26.8937C115.611 26.9857 115.148 27.0777 114.688 27.1732C114.518 27.2086 114.345 27.2475 114.175 27.2794C113.864 27.3431 113.552 27.4103 113.241 27.4811L113.188 27.4952C113.004 27.5377 112.82 27.5731 112.639 27.6155C112.307 27.6898 111.974 27.7676 111.645 27.8419C111.49 27.8809 111.334 27.9162 111.178 27.9516C110.708 28.0613 110.244 28.1745 109.784 28.2913C109.678 28.3196 109.579 28.3408 109.476 28.3691C109.112 28.4646 108.751 28.5566 108.39 28.6522C108.224 28.6982 108.058 28.7406 107.891 28.7866C107.817 28.8078 107.739 28.8291 107.665 28.8468C107.506 28.8928 107.35 28.9317 107.194 28.9777H107.191C107.127 28.9954 107.067 29.0131 107 29.0307C106.833 29.0767 106.667 29.1263 106.501 29.1723C106.179 29.2643 105.86 29.3562 105.546 29.4518C105.422 29.4872 105.291 29.5225 105.167 29.5615C104.742 29.6924 104.318 29.8197 103.904 29.9542C103.773 29.9966 103.646 30.0356 103.522 30.078C103.225 30.1735 102.927 30.2691 102.634 30.3681C102.478 30.4212 102.319 30.4743 102.163 30.5274C102.103 30.545 102.043 30.5698 101.983 30.591L106.94 22.9806L107.3 25.8995C109.059 25.4113 110.892 24.9584 112.788 24.5374L111.497 16.184H105.832L91.3154 37.2002H97.5708C100.231 34.9217 103.731 32.8554 107.898 31.0651L108.666 37.2002H114.748L113.474 28.9706C114.957 28.4823 116.503 28.0295 118.099 27.6049L115.523 37.1966H121.297L123.232 30.032C124.014 29.9153 124.807 29.802 125.603 29.6994L128.685 37.1966H134.752L131.533 30.1629C135.138 29.1864 137.119 27.0636 137.643 24.318Z" fill="white"/>
<path d="M99.289 21.3993L100.63 16.3327H82.3557L80.9829 21.3993H87.2453L82.9819 37.2039H88.795L93.0301 21.3993H99.289Z" fill="white"/>
<path d="M73.3094 20.8048C75.6763 20.5217 78.0009 21.056 79.2852 21.4381L80.5554 16.7537C79.4798 16.4105 77.4171 15.9328 74.3354 15.9753C69.237 16.0496 65.4796 18.9261 65.4796 23.0727C65.4796 26.1402 67.5989 27.5731 70.907 28.8256C73.8259 29.9578 74.3956 30.3788 74.3956 31.182C74.3956 32.1337 73.412 32.7317 72.0392 32.7317C71.6606 32.7317 71.2856 32.7034 70.9176 32.6538H70.9212L70.8787 32.6467C70.6558 32.6149 70.44 32.5725 70.2206 32.5229C68.1225 32.0877 66.3004 31.2917 64.8038 30.2161L63.4487 35.1446C65.5751 36.6979 68.3419 37.5682 71.5616 37.5682C76.7484 37.5682 80.4492 34.6422 80.4492 30.3541C80.4492 27.2229 78.2415 25.7581 75.0218 24.541C72.1595 23.4088 71.5332 23.1081 71.5332 22.2731C71.5332 21.5478 72.1913 20.9569 73.2846 20.8189H73.2917L73.3094 20.8048Z" fill="white"/>
<path d="M0 26.18C0 37.4875 7.24882 47.1268 17.4545 50.9091V1.45456C7.24882 5.23691 0 14.8725 0 26.18Z" fill="#DC1928"/>
<path d="M25.482 0C24.7396 0 24.0008 0.0249389 23.2729 0.0783785V1.9167H23.4083C33.6526 1.98795 41.9001 9.60131 41.8269 18.914C41.7574 28.1876 33.4588 35.6549 23.2729 35.6442V52.2817C24.0008 52.3423 24.7396 52.3636 25.482 52.3636C40.3237 52.3636 52.3639 40.6426 52.3639 26.1783C52.3675 11.7211 40.3237 0 25.482 0Z" fill="#DC1928"/>
</g>
<defs>
<clipPath id="clip0_208_8786">
<rect width="240" height="52.3636" fill="white"/>
</clipPath>
</defs>
</svg>
