<?xml version="1.0" encoding="UTF-8"?>
<svg width="40px" height="40px" viewBox="0 0 40 40" version="1.1" xmlns="http://www.w3.org/2000/svg" xmlns:xlink="http://www.w3.org/1999/xlink">
    <!-- Generator: Sketch 49.2 (51160) - http://www.bohemiancoding.com/sketch -->
    <title>Icons / Complaint</title>
    <desc>Created with Sketch.</desc>
    <defs>
        <circle id="path-1" cx="20" cy="20" r="20"></circle>
    </defs>
    <g id="Icons-/-Complaint" stroke="none" stroke-width="1" fill="none" fill-rule="evenodd">
        <g id="Group-9">
            <g id="Icon---1kg">
                <mask id="mask-2" fill="white">
                    <use xlink:href="#path-1"></use>
                </mask>
                <use id="Mask" fill="#00AEA5" xlink:href="#path-1"></use>
            </g>
            <g id="Group" transform="translate(10.000000, 8.666667)">
                <path d="M0.86124611,0 C0.387619658,0 0,0.395306981 0,0.878326453 L0,20.1985046 C0,20.6812237 0.387619658,21.0765306 0.86124611,21.0765306 L10.9411245,21.0765306 L10.9411245,24.2717285 C10.9411245,24.6339931 11.186774,24.7724707 11.4875033,24.5796233 L16.9421601,21.0765306 L19.8057151,21.0765306 C20.2793416,21.0765306 20.6666667,20.6812237 20.6666667,20.1985046 L20.6666667,0.878326453 C20.6666667,0.395306981 20.2793416,0 19.8057151,0 L0.86124611,0 Z" id="Fill-5" fill="#F05B7D"></path>
                <path d="M15.3333333,11 C15.3333333,13.7613364 13.0946697,16 10.3333333,16 C7.57168933,16 5.33333333,13.7613364 5.33333333,11 C5.33333333,8.238356 7.57168933,6 10.3333333,6 C13.0946697,6 15.3333333,8.238356 15.3333333,11" id="Fill-6" fill="#FFFFFF"></path>
                <path d="M14.6666667,17.9733183 C14.6666667,17.9879744 14.5351271,18 14.3731844,18 L7.62650534,18 C7.46456271,18 7.33333333,17.9879744 7.33333333,17.9733183 L7.33333333,17.360015 C7.33333333,17.3453589 7.46456271,17.3333333 7.62650534,17.3333333 L14.3731844,17.3333333 C14.5351271,17.3333333 14.6666667,17.3453589 14.6666667,17.360015 L14.6666667,17.9733183" id="Fill-7" fill="#17305A"></path>
                <path d="M10.3333333,4.66666667 C10.1490741,4.66666667 10,4.50313188 10,4.3013374 L10,3.0326731 C10,2.83087862 10.1490741,2.66666667 10.3333333,2.66666667 C10.517284,2.66666667 10.6666667,2.83087862 10.6666667,3.0326731 L10.6666667,4.3013374 C10.6666667,4.50313188 10.517284,4.66666667 10.3333333,4.66666667" id="Fill-8" fill="#FFFFFF"></path>
                <path d="M11,18.6666667 C10.8157407,18.6666667 10.6666667,18.5027933 10.6666667,18.3009988 L10.6666667,17.0323345 C10.6666667,16.83054 10.8157407,16.6666667 11,16.6666667 C11.1839506,16.6666667 11.3333333,16.83054 11.3333333,17.0323345 L11.3333333,18.3009988 C11.3333333,18.5027933 11.1839506,18.6666667 11,18.6666667" id="Fill-9" fill="#FFFFFF"></path>
                <path d="M16,11 C16,10.8157407 16.1635348,10.6666667 16.3656679,10.6666667 L17.6343321,10.6666667 C17.8361266,10.6666667 18,10.8157407 18,11 C18,11.1839506 17.8361266,11.3333333 17.6343321,11.3333333 L16.3656679,11.3333333 C16.1635348,11.3333333 16,11.1839506 16,11" id="Fill-10" fill="#FFFFFF"></path>
                <path d="M2.66666667,11 C2.66666667,10.8157407 2.83020146,10.6666667 3.03233452,10.6666667 L4.30099881,10.6666667 C4.5027933,10.6666667 4.66666667,10.8157407 4.66666667,11 C4.66666667,11.1839506 4.5027933,11.3333333 4.30099881,11.3333333 L3.03233452,11.3333333 C2.83020146,11.3333333 2.66666667,11.1839506 2.66666667,11" id="Fill-10-Copy" fill="#FFFFFF"></path>
                <path d="M14.7982675,7.2017325 C14.6227997,7.02626473 14.6227997,6.74185724 14.7982675,6.56638947 L15.8997228,5.46493416 C16.0751906,5.28946639 16.3595981,5.28946639 16.5350658,5.46493416 C16.7105336,5.64040194 16.7105336,5.92480942 16.5350658,6.1002772 L15.4336105,7.2017325 C15.2581428,7.37720028 14.9737353,7.37720028 14.7982675,7.2017325" id="Fill-12" fill="#FFFFFF"></path>
                <path d="M4.13162135,16.5350658 C3.95612622,16.3595981 3.95612622,16.0751906 4.13162135,15.8997228 L5.23324843,14.7982675 C5.40874357,14.6227997 5.6931954,14.6227997 5.86869054,14.7982675 C6.04376982,14.9737353 6.04376982,15.2581428 5.86869054,15.4336105 L4.76706347,16.5350658 C4.59115247,16.7105336 4.30670063,16.7105336 4.13162135,16.5350658" id="Fill-13" fill="#FFFFFF"></path>
                <path d="M14.7982675,14.7982675 C14.9737353,14.6227997 15.2581428,14.6227997 15.4336105,14.7982675 L16.5350658,15.8997228 C16.7105336,16.0751906 16.7105336,16.3595981 16.5350658,16.5350658 C16.3595981,16.7105336 16.0751906,16.7105336 15.8997228,16.5350658 L14.7982675,15.4336105 C14.6227997,15.2581428 14.6227997,14.9737353 14.7982675,14.7982675" id="Fill-14" fill="#FFFFFF"></path>
                <path d="M4.13162135,5.46493416 C4.30670063,5.28946639 4.59115247,5.28946639 4.76706347,5.46493416 L5.86869054,6.56638947 C6.04376982,6.74185724 6.04376982,7.02626473 5.86869054,7.2017325 C5.6931954,7.37720028 5.40874357,7.37720028 5.23324843,7.2017325 L4.13162135,6.0998614 C3.95612622,5.92480942 3.95612622,5.64040194 4.13162135,5.46493416" id="Fill-15" fill="#FFFFFF"></path>
                <path d="M10.6666667,15.6989967 L10.6666667,12.3010033 C10.6666667,12.1348941 10.517284,12 10.3333333,12 C10.1493827,12 10,12.1348941 10,12.3010033 L10,15.6989967 C10,15.8651059 10.1493827,16 10.3333333,16 C10.517284,16 10.6666667,15.8651059 10.6666667,15.6989967" id="Fill-16" fill="#17305A"></path>
                <path d="M10.3331918,12.3354147 L9.18866803,10.7878179 C9.06917544,10.6262829 8.87577868,10.6262829 8.7562861,10.7878179 C8.63679352,10.9493529 8.63679352,11.2107945 8.7562861,11.3723295 L10.1171424,13.2119907 C10.1740571,13.2893131 10.2527749,13.3333333 10.3331918,13.3333333 C10.4138917,13.3333333 10.4926096,13.2893131 10.5495243,13.2119907 L11.9103806,11.3723295 C12.0298731,11.2107945 12.0298731,10.9493529 11.9103806,10.7878179 C11.790888,10.6262829 11.5974912,10.6262829 11.4779986,10.7878179 L10.3331918,12.3354147 Z" id="Fill-17" fill="#17305A"></path>
                <path d="M14,21.0668085 C14,21.21409 13.8807567,21.3333333 13.7334751,21.3333333 L7.60018048,21.3333333 C7.4528989,21.3333333 7.33333333,21.21409 7.33333333,21.0668085 L7.33333333,14.9331915 C7.33333333,14.7862322 7.4528989,14.6666667 7.60018048,14.6666667 L13.7334751,14.6666667 C13.8807567,14.6666667 14,14.7862322 14,14.9331915 L14,21.0668085" id="Fill-18" fill="#17305A"></path>
            </g>
        </g>
    </g>
</svg>