<?xml version="1.0" encoding="UTF-8"?>
<svg width="40px" height="40px" viewBox="0 0 40 40" version="1.1" xmlns="http://www.w3.org/2000/svg" xmlns:xlink="http://www.w3.org/1999/xlink">
    <!-- Generator: Sketch 49.2 (51160) - http://www.bohemiancoding.com/sketch -->
    <title>Icons / Damage to property</title>
    <desc>Created with Sketch.</desc>
    <defs>
        <circle id="path-1" cx="20" cy="20" r="20"></circle>
    </defs>
    <g id="Icons-/-Damage-to-property" stroke="none" stroke-width="1" fill="none" fill-rule="evenodd">
        <g id="Group-16">
            <g id="Group-11">
                <g id="Group">
                    <mask id="mask-2" fill="white">
                        <use xlink:href="#path-1"></use>
                    </mask>
                    <use id="Mask" fill="#007A74" xlink:href="#path-1"></use>
                </g>
            </g>
            <g id="Page-1" transform="translate(9.777778, 6.222222)">
                <polygon id="Fill-1" fill="#FDD226" points="0 7.95922963 0 24.8888889 21.3333333 24.8888889 21.3333333 7.95922963 10.6662985 0"></polygon>
                <polygon id="Fill-4" fill="#E5AB37" points="2.06451613 24.8888889 6.19354839 24.8888889 6.19354839 18.1621622 2.06451613 18.1621622"></polygon>
                <polygon id="Fill-5" fill="#FEFEFE" points="2.06451613 13.4534535 6.19354839 13.4534535 6.19354839 8.74474474 2.06451613 8.74474474"></polygon>
                <polygon id="Fill-7" fill="#FEFEFE" points="11.0107527 13.4534535 17.2043011 13.4534535 17.2043011 8.74474474 11.0107527 8.74474474"></polygon>
                <path d="M17.1787832,8.74474474 L17.1787832,8.76492492 L17.2043011,8.74474474 L17.1787832,8.74474474 Z M11.0107527,8.74474474 L17.1787832,8.74474474 L11.0107527,8.74474474 Z" id="Fill-9" fill="#EECF6C"></path>
                <polygon id="Fill-11" fill="#EECF6C" points="17.2043011 18.1621622 11.0107527 18.1621622 11.0107527 18.2930949 11.0107527 21.5255255 11.0485738 21.5049695 11.0485738 18.191879 17.1503035 18.191879"></polygon>
            </g>
        </g>
    </g>
</svg>