<?xml version="1.0" encoding="UTF-8"?>
<svg width="40px" height="40px" viewBox="0 0 40 40" version="1.1" xmlns="http://www.w3.org/2000/svg" xmlns:xlink="http://www.w3.org/1999/xlink">
    <!-- Generator: Sketch 49.2 (51160) - http://www.bohemiancoding.com/sketch -->
    <title>Icons / Delivery not attempted</title>
    <desc>Created with Sketch.</desc>
    <defs>
        <circle id="path-1" cx="20" cy="20" r="20"></circle>
        <polygon id="path-3" points="0.0120187793 15.2552162 0.0120187793 0.130954955 28.3907606 0.130954955 28.3907606 15.2552162"></polygon>
    </defs>
    <g id="Icons-/-Delivery-not-attempted" stroke="none" stroke-width="1" fill="none" fill-rule="evenodd">
        <g id="Group-13">
            <g id="Group">
                <mask id="mask-2" fill="white">
                    <use xlink:href="#path-1"></use>
                </mask>
                <use id="Mask" fill="#F7A600" xlink:href="#path-1"></use>
            </g>
            <g id="Group-4" transform="translate(5.333333, 7.111111)">
                <g id="consumer-van-delivery_rgb" transform="translate(0.000000, 6.222222)">
                    <path d="M6.46464646,14.8751102 C5.84557482,14.8751102 5.32852553,14.5009702 5.19691669,14 L3.87878788,14 C4.02304749,15.1248898 5.12550105,16 6.46485051,16 C7.80440402,16 8.90644949,15.1248898 9.05050505,14 L7.73278433,14 C7.60117549,14.5009702 7.08392215,14.8751102 6.46464646,14.8751102" id="Fill-6" fill="#1A1514"></path>
                    <path d="M21.979696,14.8751102 C21.3608528,14.8751102 20.8436198,14.5009702 20.7120162,14 L19.3939394,14 C19.5381933,15.1248898 20.6406034,16 21.9799,16 C23.3194007,16 24.4216067,15.1248898 24.5656566,14 L23.2477838,14 C23.1161801,14.5009702 22.5991513,14.8751102 21.979696,14.8751102" id="Fill-8" fill="#1A1514"></path>
                    <g id="Group-12">
                        <mask id="mask-4" fill="white">
                            <use xlink:href="#path-3"></use>
                        </mask>
                        <g id="Clip-10"></g>
                        <path d="M26.1526635,10.5369009 C26.1316307,10.5369009 26.1083944,10.535036 26.0853584,10.5333784 L26.0853584,8.77833333 C26.1083944,8.77626126 26.1316307,8.77481081 26.1526635,8.77481081 C26.6007637,8.77481081 26.9639311,9.16933333 26.9639311,9.65585586 C26.9639311,10.1421712 26.6007637,10.5369009 26.1526635,10.5369009 M26.0851581,10.5333784 C25.6108169,10.498982 24.6927825,10.1197928 24.6927825,9.65585586 C24.6927825,9.19212613 25.6108169,8.81293694 26.0851581,8.77812613 L26.0851581,10.5333784 M16.3072801,7.51271171 C15.8381471,7.51271171 15.4543474,7.11590991 15.4543474,6.63042342 L15.4543474,2.71855856 C15.4543474,2.23327928 15.8381471,1.83627027 16.3072801,1.83627027 L20.8563881,1.83627027 C22.2693959,1.83627027 23.4149859,3.2054955 23.4149859,4.66734234 L23.4149859,6.63042342 C23.4149859,7.11590991 23.0311862,7.51271171 22.5620532,7.51271171 L16.3072801,7.51271171 M3.39029734,5.82666667 L3.39029734,4.55254955 C4.12504538,4.55337838 4.72358059,3.98148649 4.72838811,3.27097297 C4.73379656,2.55755856 4.13886698,1.97468468 3.40011268,1.96909009 L3.39029734,1.96909009 L3.39029734,1.82818919 C3.44277934,1.82404505 3.49586228,1.82197297 3.54954617,1.82197297 C4.62001878,1.82197297 5.4885759,2.7198018 5.4885759,3.82732432 C5.4885759,4.93526126 4.62001878,5.83309009 3.54954617,5.83309009 C3.49586228,5.83309009 3.44277934,5.83143243 3.39029734,5.82666667 M2.86287324,5.704 C2.13112989,5.41701802 1.61091706,4.68536937 1.61091706,3.82732432 C1.61091706,2.96927928 2.13112989,2.23783784 2.86287324,1.95085586 L2.86287324,5.704 M27.5873052,7.06265766 L24.8109671,6.0402973 C24.8109671,5.83101802 24.8111674,5.62816216 24.8111674,5.41701802 C24.8111674,2.49767568 22.5229922,0.130954955 19.7007825,0.130954955 C19.5361252,0.130954955 19.0878247,0.130954955 19.0219218,0.130954955 L0.851730829,0.130954955 C0.383198748,0.130954955 0,0.52754955 0,1.012 L0,13.3462162 C0,13.8312883 0.383198748,14.2272613 0.851730829,14.2272613 L27.5390297,14.2272613 C28.0075618,14.2272613 28.3907606,13.8312883 28.3907606,13.3462162 L28.3907606,8.23565766 C28.3907606,7.75120721 28.0293959,7.22324324 27.5873052,7.06265766" id="Fill-11" fill="#C9242D" mask="url(#mask-4)"></path>
                    </g>
                    <path d="M24.5656566,9.66678472 C24.5656566,10.1954118 25.4181231,10.6274741 25.8585859,10.6666667 L25.8585859,8.66666667 C25.4181231,8.70633141 24.5656566,9.13839374 24.5656566,9.66678472" id="Fill-13" fill="#C9242D"></path>
                    <path d="M1.93939394,3.99977918 C1.93939394,4.91421 2.47663192,5.69393839 3.23232323,6 L3.23232323,2 C2.47663192,2.30584079 1.93939394,3.08534835 1.93939394,3.99977918" id="Fill-16" fill="#FFFFFE"></path>
                    <path d="M5.17171717,3.99979337 C5.17171717,2.89534043 4.36892843,2 3.37951351,2 C3.32989465,2 3.28083122,2.00206633 3.23232323,2.00619899 L3.23232323,2.14670937 L3.24139534,2.14670937 C3.92421012,2.15228846 4.47409079,2.73354685 4.46909187,3.44498399 C4.46464839,4.15352826 3.91143511,4.72383511 3.23232323,4.72300858 L3.23232323,5.99359438 C3.28083122,5.99834694 3.32989465,6 3.37951351,6 C4.36892843,6 5.17171717,5.10465957 5.17171717,3.99979337" id="Fill-17" fill="#FFFFFE"></path>
                    <path d="M18.1736257,7.99978098 L16.630153,7.99978098 L16.630153,7.11407191 C16.5481676,6.86373426 16.6391323,6.57747764 16.853856,6.44628582 C16.8958247,6.4206607 16.9395503,6.4035773 16.9838614,6.39306443 L16.9838614,5.04588429 C16.958485,5.03449535 16.9366222,5.01565979 16.9198347,4.99178682 C16.7464942,4.8557766 16.4099636,4.33757985 16.4138677,3.74732615 L16.4091828,3.74732615 C16.4244087,2.9527286 16.8811845,2.27683884 17.7195828,2.27683884 C18.1217017,2.27683884 18.4084554,2.38459573 18.6095148,2.56419055 L18.6093196,2.56375251 L18.6157613,2.57010403 C18.6384049,2.59069173 18.6602677,2.61171747 18.6805688,2.63405731 L18.6823256,2.63602847 C18.726832,2.6848695 18.7664583,2.73809089 18.8012045,2.79481657 L18.8029613,2.79744479 C18.8291185,2.84037233 18.8527381,2.88549005 18.8738201,2.93235992 C18.8950973,2.97922979 18.9136416,3.0278518 18.9300387,3.07822595 L18.9306243,3.0799781 C18.9524871,3.14721665 18.9702506,3.21730243 18.9845004,3.28979741 L18.9845004,3.29001643 C18.9938702,3.33776237 19.0016783,3.38660339 19.0079248,3.4363205 L19.5439532,3.4363205 C19.6077846,3.4363205 19.6597087,3.50596824 19.6597087,3.59182333 C19.6597087,3.67767841 19.6077846,3.74732615 19.5439532,3.74732615 L18.9599048,3.74732615 L18.9618568,4.16652674 L19.100256,4.65931739 C19.1203619,4.71648111 19.0893246,4.76904545 19.0288116,4.78766198 L18.9136416,4.82314291 C18.9083711,4.84460668 18.9148128,4.86563241 18.9085663,4.88665815 L18.9032958,5.21847052 C18.8976349,5.31308633 18.9009534,5.29162256 18.8943165,5.37134514 C18.8687448,5.51173572 18.7650918,5.79207885 18.3450143,5.76535864 L18.0873459,5.77083409 C18.0873459,5.77083409 17.9011219,5.76054024 17.8925329,6.0084687 L17.8892145,6.25004563 L17.8892145,6.37948531 L17.8870672,6.37970433 C17.9581213,6.37948531 18.0034084,6.37948531 18.0034084,6.37948531 C18.3182714,6.37948531 18.3182714,6.86964775 18.3182714,6.86964775 L18.3180762,7.16926446 L19.0489175,7.69994525 L20.8486923,7.43712356 L20.9125237,7.98598284 L20.9140854,7.99978098 L18.1736257,7.99978098 Z M21.1223673,7.02777879 C21.1223673,6.89549188 21.218017,6.78817302 21.3359198,6.78817302 C21.4538226,6.78817302 21.549277,6.89549188 21.549277,7.02777879 L21.549277,7.30834094 L21.6148653,7.29870414 C21.6785016,7.28950538 21.7368674,7.34272677 21.7452612,7.41390765 C21.7534597,7.48508852 21.7087581,7.5503559 21.6451219,7.55955466 L21.6144749,7.56415404 C21.6781112,7.55473627 21.736477,7.60795766 21.7448708,7.67913853 C21.7530693,7.75053842 21.7083677,7.81558679 21.6447315,7.82478554 L21.6144749,7.82916591 C21.6781112,7.81996715 21.7366722,7.87318854 21.7448708,7.94436941 L21.7392099,7.99978098 L20.9172086,7.99978098 L20.8486923,7.41084139 L21.1223673,7.27176492 L21.1223673,7.02777879 Z M22.4415515,8 C22.8987177,8 23.2727273,7.58079942 23.2727273,7.06742106 L23.2727273,4.99244388 C23.2727273,3.4472714 22.1563594,2 20.7791999,2 L16.3463273,2 C15.8891611,2 15.5151515,2.41963862 15.5151515,2.93257894 L15.5151515,7.06742106 C15.5151515,7.58079942 15.8891611,8 16.3463273,8 L22.4415515,8 Z" id="Fill-18" fill="#2F2A29"></path>
                    <polyline id="Fill-19" fill="#1A1514" points="18.1010101 4.00866667 18.1016566 4.00866667 18.1010101 4 18.1010101 4.00866667"></polyline>
                    <polyline id="Fill-20" fill="#1A1514" points="18.1019798 4.00866667 18.1019798 4 18.1010101 4.00866667 18.1019798 4.00866667"></polyline>
                    <path d="M18.7474747,2.66666667 C18.7907879,2.732 18.829899,2.80066667 18.8648081,2.872 C18.829899,2.80066667 18.7907879,2.732 18.7474747,2.66666667" id="Fill-23" fill="#192B44"></path>
                    <path d="M18.7474747,2.66666667 C18.7836768,2.769 18.8130909,2.87566667 18.8366869,2.986 C18.8130909,2.87566667 18.7836768,2.769 18.7474747,2.66666667" id="Fill-24" fill="#192B44"></path>
                    <path d="M18.1517645,4.18966667 C18.185252,4.18966667 18.20592,4.167 18.2192626,4.147 L18.2294658,4.13033333 L18.2299891,4.12933333 L18.2307739,4.13033333 C18.2425469,4.151 18.264523,4.18966667 18.3082137,4.18966667 C18.3519043,4.18966667 18.3738804,4.151 18.3856534,4.13033333 L18.3861766,4.12933333 L18.3864382,4.13033333 C18.3982112,4.151 18.4201873,4.18966667 18.463878,4.18966667 C18.5075686,4.18966667 18.5292831,4.151 18.541056,4.13033333 L18.5413177,4.13 L18.5415793,4.13 C18.5530906,4.151 18.5750667,4.18966667 18.6187574,4.18966667 C18.662448,4.18966667 18.6844242,4.151 18.6959355,4.13033333 L18.7037841,4.11766667 C18.7299462,4.11766667 18.7474747,4.09233333 18.7474747,4.059 C18.7474747,4.02566667 18.7226208,4 18.6964587,4 C18.6527681,4 18.6307919,4.03866667 18.619019,4.05966667 L18.6184958,4.05966667 C18.6067228,4.03866667 18.5850083,4 18.5413177,4 C18.497627,4 18.4756509,4.03866667 18.4641396,4.05966667 L18.463878,4.06 L18.4636163,4.05966667 C18.4515818,4.03866667 18.4298673,4 18.3861766,4 C18.342486,4 18.3205098,4.03866667 18.3087369,4.05933333 L18.3082137,4.06033333 L18.3076904,4.05933333 C18.2959175,4.03866667 18.2739414,4 18.2299891,4 C18.1862984,4 18.1643223,4.03866667 18.1525494,4.05933333 L18.1447008,4.072 L18.1041495,4.107 L18.1010101,4.13066667 C18.1010101,4.164 18.1256024,4.18966667 18.1517645,4.18966667" id="Fill-25" fill="#1A1514"></path>
                    <path d="M18.2207776,4 L18.1664745,4.01366667 C18.1189594,4.03866667 18.0898685,4.09533333 18.1050604,4.15666667 C18.1154038,4.19833333 18.1483735,4.23233333 18.1887776,4.243 L18.2388786,4.24533333 C18.2964139,4.23633333 18.3406968,4.18566667 18.3406968,4.12366667 C18.3406968,4.05533333 18.2870402,4 18.2207776,4" id="Fill-26" fill="#1A1514"></path>
                    <path d="M18.7793291,4.69948949 C18.7376179,4.74445036 18.7367177,4.81817296 18.7775286,4.86412561 C18.8540491,4.9507414 18.9548761,4.99537168 19.0569034,5 C19.0671061,4.87966356 19.0620047,4.91206183 19.0707071,4.76924496 C19.0190933,4.76825317 18.9674794,4.74577274 18.9287691,4.70180366 C18.8879581,4.655851 18.8210402,4.65485922 18.7793291,4.69948949" id="Fill-27" fill="#1A1514"></path>
                    <polyline id="Fill-28" fill="#EEC5A4" points="21.979798 6.81733333 21.979798 6.66666667 21.3333333 6.87833333 21.979798 6.81733333"></polyline>
                    <rect id="Rectangle-2" fill="#2F2A29" x="16.1616162" y="2" width="5.17171717" height="6"></rect>
                    <rect id="Rectangle-2-Copy" fill="#2F2A29" x="18.1010101" y="3.33333333" width="5.17171717" height="4"></rect>
                </g>
                <g id="Group-5" transform="translate(6.222222, 0.000000)">
                    <g id="Group-Copy" fill="#39CFBD" fill-rule="nonzero">
                        <path d="M0.381120294,0.0836862745 C0.381120294,0.0836862745 0.0079338843,0.0836862745 0.0079338843,0.441150327 L0.0079338843,11.6674771 C0.0079338843,11.6674771 0.0079338843,12.0249412 0.381120294,12.0249412 L12.5179063,12.0249412 C12.5179063,12.0249412 12.8907989,12.0249412 12.8907989,11.6674771 L12.8907989,0.441150327 C12.8907989,0.441150327 12.8907989,0.0836862745 12.5179063,0.0836862745 L0.381120294,0.0836862745" id="Shape"></path>
                        <path d="M10.7089807,14.0955294 L10.6654913,11.8161569 C10.6654913,11.8161569 10.6590266,11.4586928 10.2864279,11.4644444 L6.57337006,11.524549 C6.57337006,11.524549 6.20018365,11.5303007 6.50931129,11.7301699 L10.4066116,14.2528366 C10.4066116,14.2528366 10.7157392,14.4527059 10.7089807,14.0955294 Z" id="Shape"></path>
                    </g>
                    <g id="Group-Copy-2" transform="translate(3.878788, 2.614379)" fill="#FFFFFF" stroke="#FFFFFF" stroke-width="0.5">
                        <path d="M4.50974599,2.13848252 C4.50974599,2.44657159 4.45568485,2.72664836 4.34756094,2.97872123 C4.23943704,3.2307941 4.0924583,3.44785359 3.90662034,3.62990622 C3.72078237,3.81195885 3.49778016,3.96074964 3.237607,4.07628303 C2.97743385,4.19181643 2.69530226,4.27058803 2.39120377,4.31260017 L2.39120377,5.04780904 L1.53973226,5.04780904 L1.53973226,3.5143734 C1.6073097,3.52837745 1.67150731,3.53712985 1.732327,3.54063086 C1.7931467,3.54413187 1.85058667,3.54588235 1.90464862,3.54588235 C2.38444846,3.54588235 2.77639175,3.42684973 3.08049024,3.1887809 C3.38458873,2.95071208 3.53663569,2.611119 3.53663569,2.16999147 C3.53663569,1.81288824 3.42006635,1.51530667 3.18692418,1.27723785 C2.953782,1.03916903 2.61758927,0.920136402 2.17833589,0.920136402 C1.86747966,0.920136402 1.58534807,0.979652715 1.33193266,1.09868713 C1.07851725,1.21772154 0.840310341,1.37876568 0.617304781,1.58182438 L0.090203367,0.920136402 C0.394301857,0.647057458 0.723736947,0.431748443 1.07851852,0.274202899 C1.43330009,0.116657354 1.82355397,0.037885763 2.24929185,0.037885763 C2.56690583,0.037885763 2.86255271,0.0851487175 3.13624135,0.179676044 C3.40992999,0.274203371 3.6481369,0.412491275 3.85086923,0.594543905 C4.05360155,0.776596534 4.21409557,0.997156988 4.33235609,1.25623188 C4.45061662,1.51530678 4.50974599,1.80938739 4.50974599,2.13848252 Z M1.41809347,7.15890878 L1.41809347,6.08760443 L2.50270599,6.08760443 L2.50270599,7.15890878 L1.41809347,7.15890878 Z" id="?"></path>
                    </g>
                </g>
            </g>
        </g>
    </g>
</svg>