<?xml version="1.0" encoding="UTF-8"?>
<svg width="40px" height="40px" viewBox="0 0 40 40" version="1.1" xmlns="http://www.w3.org/2000/svg" xmlns:xlink="http://www.w3.org/1999/xlink">
    <!-- Generator: Sketch 49.2 (51160) - http://www.bohemiancoding.com/sketch -->
    <title>Icons / Item not left in safe location</title>
    <desc>Created with Sketch.</desc>
    <defs>
        <circle id="path-1" cx="20" cy="20" r="20"></circle>
        <path d="M24.4938928,10.4697047 L24.4938928,24.1922182 C24.4938928,24.5712532 24.1840143,24.8785218 23.8012737,24.8785218 L2.18751898,24.8785218 C1.80499597,24.8785218 1.4948998,24.5714158 1.4948998,24.1922182 L1.4948998,10.5047664 L0.596692487,10.5061357 C-0.0726872668,10.5071562 -0.189679906,10.1741736 0.335045324,9.76266243 L12.5308744,0.198190313 C12.8307438,-0.0369795858 13.3173595,-0.0374719095 13.6175779,0.196947715 L25.8175058,9.72301939 C26.3431863,10.1334865 26.2269352,10.4670626 25.557315,10.4680835 L24.4938928,10.4697047 Z" id="path-3"></path>
        <path d="M24.4938928,10.4697047 L24.4938928,24.1922182 C24.4938928,24.5712532 24.1840143,24.8785218 23.8012737,24.8785218 L2.18751898,24.8785218 C1.80499597,24.8785218 1.4948998,24.5714158 1.4948998,24.1922182 L1.4948998,10.5047664 L0.596692487,10.5061357 C-0.0726872668,10.5071562 -0.189679906,10.1741736 0.335045324,9.76266243 L12.5308744,0.198190313 C12.8307438,-0.0369795858 13.3173595,-0.0374719095 13.6175779,0.196947715 L25.8175058,9.72301939 C26.3431863,10.1334865 26.2269352,10.4670626 25.557315,10.4680835 L24.4938928,10.4697047 Z" id="path-5"></path>
    </defs>
    <g id="Icons-/-Item-not-left-in-safe-location" stroke="none" stroke-width="1" fill="none" fill-rule="evenodd">
        <g id="Group-9">
            <g id="Group-11">
                <g id="Group">
                    <mask id="mask-2" fill="white">
                        <use xlink:href="#path-1"></use>
                    </mask>
                    <use id="Mask" fill="#324B81" xlink:href="#path-1"></use>
                </g>
            </g>
            <g id="leave-it-in-a-safe-place" transform="translate(7.111111, 6.222222)">
                <g id="Safe-place">
                    <g id="Group-24">
                        <g id="Combined-Shape" fill="#F9F8F7" fill-rule="nonzero">
                            <path d="M24.4938928,10.4697047 L24.4938928,24.1922182 C24.4938928,24.5712532 24.1840143,24.8785218 23.8012737,24.8785218 L2.18751898,24.8785218 C1.80499597,24.8785218 1.4948998,24.5714158 1.4948998,24.1922182 L1.4948998,10.5047664 L0.596692487,10.5061357 C-0.0726872668,10.5071562 -0.189679906,10.1741736 0.335045324,9.76266243 L12.5308744,0.198190313 C12.8307438,-0.0369795858 13.3173595,-0.0374719095 13.6175779,0.196947715 L25.8175058,9.72301939 C26.3431863,10.1334865 26.2269352,10.4670626 25.557315,10.4680835 L24.4938928,10.4697047 Z" id="path-3"></path>
                        </g>
                        <g id="Group-Clipped">
                            <mask id="mask-4" fill="white">
                                <use xlink:href="#path-3"></use>
                            </mask>
                            <g id="path-3"></g>
                            <g id="Group" mask="url(#mask-4)">
                                <g transform="translate(1.476234, 14.343184)">
                                    <g transform="translate(0.004328, 0.000259)">
                                        <path d="M10.4452195,0.00697828868 L6.5409416,0.00697828868 C5.73598272,0.00697828868 5.08110092,0.656556686 5.08110092,1.4549968 C5.08110092,2.25343691 5.73598272,2.90317643 6.5409416,2.90317643 L10.9795849,2.90317643 L10.9795849,0.603069576 C10.9795849,0.295196481 10.7460233,0.0416160258 10.4452195,0.00697828868 M3.19506736,0.00295064475 L1.40583673,0.00295064475 L1.40583673,9.93495923 C1.40583673,10.2663538 1.67659267,10.5350782 2.01069283,10.5350782 L10.3747288,10.5350782 C10.7088289,10.5350782 10.9795849,10.2663538 10.9795849,9.93495923 L10.9795849,5.07762076 L6.5409416,5.07762076 C4.52708262,5.07762076 2.88874119,3.45254702 2.88874119,1.4549968 C2.88874119,0.938975072 2.998213,0.44776363 3.19506736,0.00295064475" id="Fill-4" fill="#8A939D" fill-rule="nonzero"></path>
                                        <path d="M12.3854216,5.07762076 L10.9779574,5.07762076 L10.9779574,9.93495923 C10.9779574,10.2663538 10.7072475,10.5350782 10.3732041,10.5350782 L11.7805059,10.5350782 C12.1145493,10.5350782 12.3854216,10.2663538 12.3854216,9.93495923 L12.3854216,5.07762076 Z M3.1947632,0.00295064475 L1.40583673,0.00295064475 L3.1947632,0.00295064475 Z M11.528796,0.00697539515 L10.4436829,0.00697828868 C10.7444356,0.0416160258 10.9779574,0.295196481 10.9779574,0.603069576 L10.9779574,2.90109282 L6.55011163,2.90109282 C5.74473673,2.90109282 5.08951649,2.25182011 5.08951649,1.45395362 C5.08951649,0.65608712 5.74473673,0.00697539515 6.55011163,0.00697539515 L11.528796,0.00697539515 Z M12.3854216,2.90109282 L12.3854216,0.603069576 C12.3854216,0.295840905 12.1527117,0.0424215544 11.8526086,0.00713939446 L11.5289584,0.00713939446 L11.5289584,0.00697539515 L11.5422659,0.00697539515 L11.5422659,0.00295064475 L3.20250815,0.00295064475 C3.00555206,0.447444064 2.89602366,0.93830261 2.89602366,1.45395362 C2.89602366,3.45006876 4.53521183,5.073975 6.55011163,5.073975 L12.3994799,5.073975 L12.3994799,2.90109282 L12.3854216,2.90109282 Z" id="Combined-Shape" fill="#382F2D" fill-rule="nonzero" opacity="0.2"></path>
                                        <path d="M11.7932279,0.00295064475 L11.5419196,0.00295064475 L11.5419196,0.0299775339 L11.865262,0.0299775339 C11.8415751,0.0123061069 11.8175637,0.00295064475 11.7932279,0.00295064475" id="Fill-6" fill="#8A939D" fill-rule="nonzero"></path>
                                        <path d="M10.3748316,0.00295064475 L0,0.00295064475 L0,9.93495923 C0,10.2663538 0.270872307,10.5350782 0.604915672,10.5350782 L10.3748316,10.5350782 C10.708875,10.5350782 10.9795849,10.2663538 10.9795849,9.93495923 L10.9795849,0.603069576 C10.9795849,0.271675041 10.708875,0.00295064475 10.3748316,0.00295064475" id="Fill-8" fill="#CA8768" fill-rule="nonzero"></path>
                                    </g>
                                </g>
                            </g>
                        </g>
                        <g id="Group-15-Clipped">
                            <mask id="mask-6" fill="white">
                                <use xlink:href="#path-5"></use>
                            </mask>
                            <g id="path-3"></g>
                            <g id="Group-15" mask="url(#mask-6)">
                                <g transform="translate(0.910120, 19.397938)" id="Rectangle-24-Copy-2-+-Imported-Layers-Copy-9">
                                    <g transform="translate(0.022075, 0.006842)">
                                        <g id="Group" transform="translate(0.007990, 0.012778)" fill-rule="nonzero">
                                            <g id="Imported-Layers-Copy-9" transform="translate(0.000000, 0.000000)">
                                                <g id="Imported-Layers-Copy-5" transform="translate(4.369329, 3.183983) rotate(10.000000) translate(-4.369329, -3.183983) translate(1.258218, 0.517316)">
                                                    <polyline id="Fill-7" fill="#FFFFFF" points="5.91091093 3.61921316 0.658750166 4.52075455 0.00760448356 0.923165517 5.25924722 0.0211196332 5.91091093 3.61921316"></polyline>
                                                    <polyline id="Fill-8" fill="#D0D5D8" points="5.05100493 1.15069499 0.599696379 1.91501239 0.496093249 1.34139596 4.94740179 0.57657406 5.05100493 1.15069499"></polyline>
                                                    <polyline id="Fill-9" fill="#D0D5D8" points="5.24267071 2.20762235 0.791362172 2.97193976 0.687241026 2.39832333 5.13854957 1.63400592 5.24267071 2.20762235"></polyline>
                                                    <polyline id="Fill-10" fill="#D0D5D8" points="5.43381849 3.26505423 0.982509952 4.02937161 0.878906819 3.45575518 5.33021538 2.6914378 5.43381849 3.26505423"></polyline>
                                                </g>
                                            </g>
                                        </g>
                                    </g>
                                </g>
                            </g>
                        </g>
                    </g>
                    <polygon id="Combined-Shape" fill="#39CFBD" fill-rule="nonzero" points="7.8617803 6.86304047 7.8617803 10.4519866 8.85900092 9.46402866 10.1356188 10.7287886 8.03802795 12.8097927 6.75848618 14.0745526 5.48333029 12.8083443 3.38427749 10.7287886 4.66105777 9.46402866 5.66932435 10.4630909 5.66932435 6.86304047"></polygon>
                </g>
            </g>
        </g>
    </g>
</svg>