<?xml version="1.0" encoding="UTF-8"?>
<svg width="40px" height="40px" viewBox="0 0 40 40" version="1.1" xmlns="http://www.w3.org/2000/svg" xmlns:xlink="http://www.w3.org/1999/xlink">
    <!-- Generator: Sketch 49.2 (51160) - http://www.bohemiancoding.com/sketch -->
    <title>Icons / Mail products</title>
    <desc>Created with Sketch.</desc>
    <defs>
        <circle id="path-1" cx="20" cy="20" r="20"></circle>
        <polygon id="path-3" points="0.00957746479 22.6666667 0.00957746479 0.0427793427 22.6238873 0.0427793427 22.6238873 22.6666667"></polygon>
        <polygon id="path-5" points="13.2902811 11.3654178 13.2902811 22.6666667 0.0581526104 22.6666667 0.0581526104 0.0641690141 13.2902811 0.0641690141"></polygon>
    </defs>
    <g id="Icons-/-Mail-products" stroke="none" stroke-width="1" fill="none" fill-rule="evenodd">
        <g id="Group">
            <mask id="mask-2" fill="white">
                <use xlink:href="#path-1"></use>
            </mask>
            <use id="Mask" fill="#F7A600" xlink:href="#path-1"></use>
            <g id="parcel-locker-rgb" mask="url(#mask-2)">
                <g transform="translate(8.666667, 8.666667)">
                    <g id="Group-3" stroke-width="1" fill="none">
                        <mask id="mask-4" fill="white">
                            <use xlink:href="#path-3"></use>
                        </mask>
                        <g id="Clip-2"></g>
                        <path d="M22.6238873,21.9879437 C22.6238873,22.3613052 22.3185258,22.6666667 21.9451643,22.6666667 L0.678723005,22.6666667 C0.305361502,22.6666667 0,22.3613052 0,21.9879437 L0,0.721502347 C0,0.348140845 0.305361502,0.0427793427 0.678723005,0.0427793427 L21.9451643,0.0427793427 C22.3185258,0.0427793427 22.6238873,0.348140845 22.6238873,0.721502347 L22.6238873,21.9879437" id="Fill-1" fill="#C92335" mask="url(#mask-4)"></path>
                    </g>
                    <polygon id="Fill-4" fill="#BCB3A8" points="1.33333333 22.6666667 9.33333333 22.6666667 9.33333333 0 1.33333333 0"></polygon>
                    <path d="M8.66666667,9.73545611 C8.66666667,9.88145672 8.55744658,10 8.42292864,10 L2.24388951,10 C2.10922008,10 2,9.88145672 2,9.73545611 L2,4.26454389 C2,4.11837887 2.10922008,4 2.24388951,4 L8.42292864,4 C8.55744658,4 8.66666667,4.11837887 8.66666667,4.26454389 L8.66666667,9.73545611" id="Fill-5" fill="#3D3733"></path>
                    <polyline id="Fill-7" fill="#2B2724" points="2 9.33333333 8.66666667 4 2 4 2 9.33333333"></polyline>
                    <polygon id="Fill-8" fill="#BCB3A8" points="2.66666667 16 8 16 8 11.3333333 2.66666667 11.3333333"></polygon>
                    <g id="Group-13" stroke-width="1" fill="none" transform="translate(9.333333, 0.000000)">
                        <mask id="mask-6" fill="white">
                            <use xlink:href="#path-5"></use>
                        </mask>
                        <g id="Clip-12"></g>
                    </g>
                </g>
            </g>
            <path d="M20.6666667,15.9997325 C20.6666667,17.523915 21.497403,18.823204 22.6666667,19.3333333 L22.6666667,12.6666667 C21.497403,13.176582 20.6666667,14.475764 20.6666667,15.9997325" id="Fill-4" fill="#FFFFFE" mask="url(#mask-2)"></path>
            <path d="M24.3038242,12.6666667 C24.2015874,12.6666667 24.1000167,12.6703008 24,12.6777895 L24,12.9354858 L24.0187601,12.9354858 C25.4270966,12.9456175 26.5612477,14.0114231 26.5510351,15.3158733 C26.5417106,16.6145968 25.4006771,17.6601392 24,17.6587075 L24,19.9883266 C24.1000167,19.9969165 24.2015874,20 24.3038242,20 C26.3444525,20 28,18.3583421 28,16.3328928 C28,14.3079942 26.3444525,12.6666667 24.3038242,12.6666667" id="Fill-5" fill="#FFFFFE" mask="url(#mask-2)"></path>
            <g id="ap-primary_logo_pos_rgb" mask="url(#mask-2)">
                <g transform="translate(24.000000, 12.666667)"></g>
            </g>
        </g>
    </g>
</svg>