<?xml version="1.0" encoding="UTF-8"?>
<svg width="40px" height="40px" viewBox="0 0 40 40" version="1.1" xmlns="http://www.w3.org/2000/svg" xmlns:xlink="http://www.w3.org/1999/xlink">
    <!-- Generator: Sketch 49.2 (51160) - http://www.bohemiancoding.com/sketch -->
    <title>Icons / Online Shop</title>
    <desc>Created with Sketch.</desc>
    <defs>
        <circle id="path-1" cx="20" cy="20" r="20"></circle>
        <polygon id="path-3" points="0.111866667 0.188850212 1.71822222 0.188850212 1.71822222 27.5555556 0.111866667 27.5555556"></polygon>
        <polygon id="path-5" points="0 26.6666667 29.3333333 26.6666667 29.3333333 0 0 0"></polygon>
    </defs>
    <g id="Icons-/-Online-Shop" stroke="none" stroke-width="1" fill="none" fill-rule="evenodd">
        <g id="Group-7">
            <g id="Group-9">
                <g id="Group-11">
                    <g id="Group">
                        <mask id="mask-2" fill="white">
                            <use xlink:href="#path-1"></use>
                        </mask>
                        <use id="Mask" fill="#00AEA5" xlink:href="#path-1"></use>
                    </g>
                </g>
            </g>
            <g id="Page-1" transform="translate(1.777778, 6.222222)">
                <path d="M27.5555556,26.6666667 L15.8579193,26.6666667 C15.4471141,26.6666667 15.1111111,26.3186522 15.1111111,25.893371 L15.1111111,1.66218453 C15.1111111,1.23690334 15.4471141,0.888888889 15.8579193,0.888888889 L27.5555556,0.888888889 L27.5555556,26.6666667 Z" id="Fill-1" fill="#D0D5D8"></path>
                <path d="M24.8889791,21.3333333 C24.39801,21.3333333 24,20.9353234 24,20.4443542 C24,19.953385 24.39801,19.5555556 24.8889791,19.5555556 C25.3799483,19.5555556 25.7777778,19.953385 25.7777778,20.4443542 C25.7777778,20.9353234 25.3799483,21.3333333 24.8889791,21.3333333" id="Fill-3" fill="#FFFFFF"></path>
                <path d="M24.8889791,18.6666667 C24.39801,18.6666667 24,18.2687968 24,17.7777778 C24,17.2867587 24.39801,16.8888889 24.8889791,16.8888889 C25.3799483,16.8888889 25.7777778,17.2867587 25.7777778,17.7777778 C25.7777778,18.2687968 25.3799483,18.6666667 24.8889791,18.6666667" id="Fill-5" fill="#FFFFFF"></path>
                <path d="M24.8889791,16 C24.39801,16 24,15.6021706 24,15.1112014 C24,14.6202322 24.39801,14.2222222 24.8889791,14.2222222 C25.3799483,14.2222222 25.7777778,14.6202322 25.7777778,15.1112014 C25.7777778,15.6021706 25.3799483,16 24.8889791,16" id="Fill-7" fill="#FFFFFF"></path>
                <path d="M24.8889791,13.3333333 C24.39801,13.3333333 24,12.9353234 24,12.4445347 C24,11.9535655 24.39801,11.5555556 24.8889791,11.5555556 C25.3799483,11.5555556 25.7777778,11.9535655 25.7777778,12.4445347 C25.7777778,12.9353234 25.3799483,13.3333333 24.8889791,13.3333333" id="Fill-9" fill="#FFFFFF"></path>
                <path d="M24.8889791,10.6666667 C24.39801,10.6666667 24,10.2686567 24,9.77786803 C24,9.28689884 24.39801,8.88888889 24.8889791,8.88888889 C25.3799483,8.88888889 25.7777778,9.28689884 25.7777778,9.77786803 C25.7777778,10.2686567 25.3799483,10.6666667 24.8889791,10.6666667" id="Fill-11" fill="#FFFFFF"></path>
                <path d="M24.8889791,8 C24.39801,8 24,7.60194963 24,7.11111111 C24,6.62009207 24.39801,6.22222222 24.8889791,6.22222222 C25.3799483,6.22222222 25.7777778,6.62009207 25.7777778,7.11111111 C25.7777778,7.60194963 25.3799483,8 24.8889791,8" id="Fill-13" fill="#FFFFFF"></path>
                <path d="M24.8889791,5.33333333 C24.39801,5.33333333 24,4.93532338 24,4.4445347 C24,3.95356551 24.39801,3.55555556 24.8889791,3.55555556 C25.3799483,3.55555556 25.7777778,3.95356551 25.7777778,4.4445347 C25.7777778,4.93532338 25.3799483,5.33333333 24.8889791,5.33333333" id="Fill-15" fill="#FFFFFF"></path>
                <path d="M24.8889791,23.1111111 C24.39801,23.1111111 24,22.7131012 24,22.222132 C24,21.7313433 24.39801,21.3333333 24.8889791,21.3333333 C25.3799483,21.3333333 25.7777778,21.7313433 25.7777778,22.222132 C25.7777778,22.7131012 25.3799483,23.1111111 24.8889791,23.1111111" id="Fill-17" fill="#FFFFFF"></path>
                <path d="M23.1112014,21.3333333 C22.6202322,21.3333333 22.2222222,20.9353234 22.2222222,20.4443542 C22.2222222,19.953385 22.6202322,19.5555556 23.1112014,19.5555556 C23.6021706,19.5555556 24,19.953385 24,20.4443542 C24,20.9353234 23.6021706,21.3333333 23.1112014,21.3333333" id="Fill-19" fill="#FFFFFF"></path>
                <path d="M23.1112014,18.6666667 C22.6202322,18.6666667 22.2222222,18.2687968 22.2222222,17.7777778 C22.2222222,17.2867587 22.6202322,16.8888889 23.1112014,16.8888889 C23.6021706,16.8888889 24,17.2867587 24,17.7777778 C24,18.2687968 23.6021706,18.6666667 23.1112014,18.6666667" id="Fill-21" fill="#FFFFFF"></path>
                <path d="M23.1112014,16 C22.6202322,16 22.2222222,15.6021706 22.2222222,15.1112014 C22.2222222,14.6202322 22.6202322,14.2222222 23.1112014,14.2222222 C23.6021706,14.2222222 24,14.6202322 24,15.1112014 C24,15.6021706 23.6021706,16 23.1112014,16" id="Fill-23" fill="#FFFFFF"></path>
                <path d="M23.1112014,13.3333333 C22.6202322,13.3333333 22.2222222,12.9353234 22.2222222,12.4445347 C22.2222222,11.9535655 22.6202322,11.5555556 23.1112014,11.5555556 C23.6021706,11.5555556 24,11.9535655 24,12.4445347 C24,12.9353234 23.6021706,13.3333333 23.1112014,13.3333333" id="Fill-25" fill="#FFFFFF"></path>
                <path d="M23.1112014,10.6666667 C22.6202322,10.6666667 22.2222222,10.2686567 22.2222222,9.77786803 C22.2222222,9.28689884 22.6202322,8.88888889 23.1112014,8.88888889 C23.6021706,8.88888889 24,9.28689884 24,9.77786803 C24,10.2686567 23.6021706,10.6666667 23.1112014,10.6666667" id="Fill-27" fill="#FFFFFF"></path>
                <path d="M23.1112014,8 C22.6202322,8 22.2222222,7.60194963 22.2222222,7.11111111 C22.2222222,6.62009207 22.6202322,6.22222222 23.1112014,6.22222222 C23.6021706,6.22222222 24,6.62009207 24,7.11111111 C24,7.60194963 23.6021706,8 23.1112014,8" id="Fill-29" fill="#FFFFFF"></path>
                <path d="M23.1112014,5.33333333 C22.6202322,5.33333333 22.2222222,4.93532338 22.2222222,4.4445347 C22.2222222,3.95356551 22.6202322,3.55555556 23.1112014,3.55555556 C23.6021706,3.55555556 24,3.95356551 24,4.4445347 C24,4.93532338 23.6021706,5.33333333 23.1112014,5.33333333" id="Fill-31" fill="#FFFFFF"></path>
                <path d="M23.1112014,23.1111111 C22.6202322,23.1111111 22.2222222,22.7131012 22.2222222,22.222132 C22.2222222,21.7313433 22.6202322,21.3333333 23.1112014,21.3333333 C23.6021706,21.3333333 24,21.7313433 24,22.222132 C24,22.7131012 23.6021706,23.1111111 23.1112014,23.1111111" id="Fill-33" fill="#FFFFFF"></path>
                <path d="M20.4445347,21.3333333 C19.9535655,21.3333333 19.5555556,20.9353234 19.5555556,20.4443542 C19.5555556,19.953385 19.9535655,19.5555556 20.4445347,19.5555556 C20.9355039,19.5555556 21.3333333,19.953385 21.3333333,20.4443542 C21.3333333,20.9353234 20.9355039,21.3333333 20.4445347,21.3333333" id="Fill-35" fill="#FFFFFF"></path>
                <path d="M20.4445347,8 C19.9535655,8 19.5555556,7.60194963 19.5555556,7.11111111 C19.5555556,6.62009207 19.9535655,6.22222222 20.4445347,6.22222222 C20.9355039,6.22222222 21.3333333,6.62009207 21.3333333,7.11111111 C21.3333333,7.60194963 20.9355039,8 20.4445347,8" id="Fill-37" fill="#FFFFFF"></path>
                <path d="M20.4445347,5.33333333 C19.9535655,5.33333333 19.5555556,4.93532338 19.5555556,4.4445347 C19.5555556,3.95356551 19.9535655,3.55555556 20.4445347,3.55555556 C20.9355039,3.55555556 21.3333333,3.95356551 21.3333333,4.4445347 C21.3333333,4.93532338 20.9355039,5.33333333 20.4445347,5.33333333" id="Fill-39" fill="#FFFFFF"></path>
                <path d="M20.4445347,23.1111111 C19.9535655,23.1111111 19.5555556,22.7131012 19.5555556,22.222132 C19.5555556,21.7313433 19.9535655,21.3333333 20.4445347,21.3333333 C20.9355039,21.3333333 21.3333333,21.7313433 21.3333333,22.222132 C21.3333333,22.7131012 20.9355039,23.1111111 20.4445347,23.1111111" id="Fill-41" fill="#FFFFFF"></path>
                <path d="M19.8898478,18.6666667 C19.7059149,18.6666667 19.5555556,18.4964033 19.5555556,18.2881219 L19.5555556,9.26722923 C19.5555556,9.05915226 19.7059149,8.88888889 19.8898478,8.88888889 L20.9992216,8.88888889 C21.182974,8.88888889 21.3333333,9.05915226 21.3333333,9.26722923 L21.3333333,18.2881219 C21.3333333,18.4964033 21.182974,18.6666667 20.9992216,18.6666667 L19.8898478,18.6666667 Z" id="Fill-43" fill="#FFFFFF"></path>
                <path d="M17.2898311,16 C17.0693237,16 16.8888889,15.8334583 16.8888889,15.6297296 L16.8888889,11.925626 C16.8888889,11.7220973 17.0693237,11.5555556 17.2898311,11.5555556 L19.1543967,11.5555556 C19.3751207,11.5555556 19.5555556,11.7220973 19.5555556,11.925626 L19.5555556,15.6297296 C19.5555556,15.8334583 19.3751207,16 19.1543967,16 L17.2898311,16 Z" id="Fill-45" fill="#FFFFFF"></path>
                <g id="Group-49" transform="translate(27.555556, 0.000000)">
                    <mask id="mask-4" fill="white">
                        <use xlink:href="#path-3"></use>
                    </mask>
                    <g id="Clip-48"></g>
                    <path d="M1.71831111,27.1754151 C1.71831111,27.3853422 1.53831111,27.5557238 1.31675556,27.5557238 L0.513644444,27.5557238 C0.291866667,27.5557238 0.111866667,27.3853422 0.111866667,27.1754151 L0.111866667,0.568738253 C0.111866667,0.358811196 0.291866667,0.188850212 0.513644444,0.188850212 L1.31675556,0.188850212 C1.53831111,0.188850212 1.71831111,0.358811196 1.71831111,0.568738253 L1.71831111,27.1754151 Z" id="Fill-47" fill="#8A939D" mask="url(#mask-4)"></path>
                </g>
                <polygon id="Fill-50" fill="#8A939D" points="25.7777778 26.6666667 27.5555556 26.6666667 27.5555556 0.888888889 25.7777778 0.888888889"></polygon>
                <mask id="mask-6" fill="white">
                    <use xlink:href="#path-5"></use>
                </mask>
                <g id="Clip-53"></g>
                <polygon id="Fill-52" fill="#FAAE7A" mask="url(#mask-6)" points="5.33333333 24 14.2222222 24 14.2222222 17.7777778 5.33333333 17.7777778"></polygon>
                <path d="M17.4361709,17.3532555 L10.1416724,22.0888209 C9.78039089,22.323438 9.2833781,22.240522 9.03197432,21.9034548 C8.78034766,21.5668032 8.86927506,21.1033878 9.23055656,20.8689785 L16.5250551,16.1334131 C16.8861137,15.898796 17.3833493,15.981712 17.6347531,16.3185714 C17.8863798,16.6554308 17.7972295,17.1186384 17.4361709,17.3532555" id="Fill-54" fill="#FAAE7A" mask="url(#mask-6)"></path>
                <path d="M15.1111111,16.4522776 L15.5703802,16.1443728 C15.9502811,15.8902004 16.4744879,15.9804588 16.7386304,16.3457184 C17.0030866,16.7109781 16.9092878,17.2153987 16.5293869,17.4701748 L16.0704314,17.7777778 L15.1111111,16.4522776 Z" id="Fill-55" fill="#FFFFFF" mask="url(#mask-6)"></path>
                <path d="M16.4008051,20.8875 C16.4008051,20.766564 16.4910527,20.6684905 16.6021417,20.6684905 L17.9224294,20.6684905 L19.8801517,20.6684905 C20.1917907,20.6684905 20.4444444,20.3937136 20.4444444,20.0552637 C20.4444444,19.7168138 20.1917907,19.4420369 19.8801517,19.4420369 L17.9224294,19.4420369 L16.6021417,19.4420369 C16.4910527,19.4420369 16.4008051,19.3439633 16.4008051,19.223241 C16.4008051,19.1023049 16.4910527,19.0042314 16.6021417,19.0042314 L17.9224294,19.0042314 L19.1882541,19.0042314 C19.4998931,19.0042314 19.7525468,18.7294545 19.7525468,18.3910046 C19.7525468,18.0525547 19.4998931,17.7777778 19.1882541,17.7777778 L12.1198483,17.7777778 C11.8084059,17.7777778 11.5555556,18.0525547 11.5555556,18.3910046 L11.5555556,23.3869869 C11.5555556,23.7254368 11.8084059,24 12.1198483,24 L18.411221,24 C18.7226634,24 18.9753171,23.7254368 18.9753171,23.3869869 C18.9753171,23.0485369 18.7226634,22.7737601 18.411221,22.7737601 L17.9224294,22.7737601 L17.9224294,22.7722644 L16.1876716,22.7722644 C16.076386,22.7722644 15.9861385,22.6741908 15.9861385,22.5532548 C15.9861385,22.4323188 16.076386,22.3342452 16.1876716,22.3342452 L17.9224294,22.3342452 L19.4536879,22.3342452 C19.7651303,22.3342452 20.0177841,22.059682 20.0177841,21.7210184 C20.0177841,21.3825685 19.7651303,21.1080053 19.4536879,21.1080053 L17.9224294,21.1080053 L17.9224294,21.106296 L16.6021417,21.106296 C16.4910527,21.106296 16.4008051,21.0082224 16.4008051,20.8875" id="Fill-56" fill="#FAAE7A" mask="url(#mask-6)"></path>
                <path d="M18.6666667,23.1111111 L19.022421,23.1111111 C19.3163158,23.1111111 19.5555556,23.3105055 19.5555556,23.555452 C19.5555556,23.8006056 19.3163158,24 19.022421,24 L18.6666667,24 L18.6666667,23.1111111 Z" id="Fill-57" fill="#FFFFFF" mask="url(#mask-6)"></path>
                <path d="M20.4444444,20.4444444 L20.8000497,20.4444444 C21.0940267,20.4444444 21.3333333,20.6438388 21.3333333,20.8887854 C21.3333333,21.133939 21.0940267,21.3333333 20.8000497,21.3333333 L20.4444444,21.3333333 L20.4444444,20.4444444 Z" id="Fill-58" fill="#FFFFFF" mask="url(#mask-6)"></path>
                <path d="M19.5555556,17.7777778 L19.9111608,17.7777778 C20.2051378,17.7777778 20.4444444,17.9771721 20.4444444,18.2221187 C20.4444444,18.4672723 20.2051378,18.6666667 19.9111608,18.6666667 L19.5555556,18.6666667 L19.5555556,17.7777778 Z" id="Fill-59" fill="#FFFFFF" mask="url(#mask-6)"></path>
                <path d="M20.4444444,21.3333333 L20.8001987,21.3333333 C21.0940935,21.3333333 21.3333333,21.5327277 21.3333333,21.7776743 C21.3333333,22.0228279 21.0940935,22.2222222 20.8001987,22.2222222 L20.4444444,22.2222222 L20.4444444,21.3333333 Z" id="Fill-60" fill="#FFFFFF" mask="url(#mask-6)"></path>
                <polygon id="Fill-61" fill="#FC622E" mask="url(#mask-6)" points="0 17.7777778 0 24.8888889 6.22222222 24.8888889 6.22222222 24.7110127 6.22222222 19.8857283 6.22222222 17.7777778"></polygon>
                <path d="M9.77777778,23.8749672 C9.77777778,23.9438707 9.73198103,24 9.67546958,24 L8.1023082,24 C8.04579674,24 8,23.9438707 8,23.8749672 L8,17.9030042 C8,17.8339071 8.04579674,17.7777778 8.1023082,17.7777778 L9.67546958,17.7777778 C9.73198103,17.7777778 9.77777778,17.8339071 9.77777778,17.9030042 L9.77777778,23.8749672 Z" id="Fill-62" fill="#FFFFFF" mask="url(#mask-6)"></path>
                <path d="M10.6666667,22.0985524 C10.6666667,22.1668421 10.6187186,22.2222222 10.5593005,22.2222222 L8.10736614,22.2222222 C8.04813614,22.2222222 8,22.1668421 8,22.0985524 L8,18.7903365 C8,18.7220468 8.04813614,18.6666667 8.10736614,18.6666667 L10.5593005,18.6666667 C10.6187186,18.6666667 10.6666667,18.7220468 10.6666667,18.7903365 L10.6666667,22.0985524 Z" id="Fill-63" fill="#FFFFFF" mask="url(#mask-6)"></path>
                <path d="M10.6666667,22.9876633 C10.6666667,23.0558168 10.6186361,23.1111111 10.5594055,23.1111111 L8.10726113,23.1111111 C8.04803058,23.1111111 8,23.0558168 8,22.9876633 L8,19.6790034 C8,19.6108499 8.04803058,19.5555556 8.10726113,19.5555556 L10.5594055,19.5555556 C10.6186361,19.5555556 10.6666667,19.6108499 10.6666667,19.6790034 L10.6666667,22.9876633 Z" id="Fill-64" fill="#685B56" mask="url(#mask-6)"></path>
                <path d="M10.6666667,22.9876633 C10.6666667,23.0558168 10.6186361,23.1111111 10.5594055,23.1111111 L8.10726113,23.1111111 C8.04803058,23.1111111 8,23.0558168 8,22.9876633 L8,19.6790034 C8,19.6108499 8.04803058,19.5555556 8.10726113,19.5555556 L10.6666667,22.9876633 Z" id="Fill-65" fill="#FFFFFF" mask="url(#mask-6)"></path>
                <path d="M1.87733203,7.11111111 L3.55555556,7.11111111 L3.55555556,8.88888889 L1.87733203,8.88888889 C1.87733203,8.88888889 1.77777778,8.60090364 1.77777778,7.99985247 C1.77777778,7.33418165 1.87733203,7.11111111 1.87733203,7.11111111" id="Fill-66" fill="#FFFFFF" mask="url(#mask-6)"></path>
                <path d="M3.59442688,7.11111111 L4.44444444,7.11111111 L4.44444444,8.88888889 L3.63563985,8.88888889 C3.58318698,8.55044721 3.55555556,8.20049793 3.55555556,7.84258183 C3.55555556,7.59472568 3.56890294,7.35041033 3.59442688,7.11111111" id="Fill-67" fill="#FFFFFF" mask="url(#mask-6)"></path>
                <path d="M4.44444444,8.44444444 C4.44444444,6.23545348 6.23528451,4.44444444 8.44433559,4.44444444 C10.6536044,4.44444444 12.4444444,6.23545348 12.4444444,8.44444444 C12.4444444,10.6534354 10.6536044,12.4444444 8.44433559,12.4444444 C6.23528451,12.4444444 4.44444444,10.6534354 4.44444444,8.44444444" id="Fill-68" fill="#FFFFFF" mask="url(#mask-6)"></path>
                <path d="M5.33333333,8.44444444 C5.33333333,6.72622165 6.7262665,5.33333333 8.44434428,5.33333333 C10.1628227,5.33333333 11.5555556,6.72622165 11.5555556,8.44444444 C11.5555556,10.1628676 10.1628227,11.5555556 8.44434428,11.5555556 C6.7262665,11.5555556 5.33333333,10.1628676 5.33333333,8.44444444" id="Fill-69" fill="#FFFFFF" mask="url(#mask-6)"></path>
                <path d="M5.33333333,8.44433688 C5.33333333,6.72608881 6.52726686,5.33333333 7.99981561,5.33333333 C9.47273314,5.33333333 10.6666667,6.72608881 10.6666667,8.44433688 C10.6666667,10.1625849 9.47273314,11.5555556 7.99981561,11.5555556 C6.52726686,11.5555556 5.33333333,10.1625849 5.33333333,8.44433688" id="Fill-70" fill="#685B56" mask="url(#mask-6)"></path>
                <path d="M5.41682479,8.88888889 L5.68150635,8.88888889 C5.62156376,8.66816374 5.58886781,8.43595692 5.58886781,8.19602967 C5.58886781,6.76082129 6.73672943,5.59305656 8.14791028,5.59305656 C9.10290469,5.59305656 9.9368462,6.12814184 10.3764901,6.91859523 L10.6666667,6.91859523 C10.2052255,5.97888017 9.25100958,5.33333333 8.14791028,5.33333333 C6.59349,5.33333333 5.33333333,6.61492493 5.33333333,8.19602967 C5.33333333,8.43516508 5.36252615,8.66697598 5.41682479,8.88888889" id="Fill-71" fill="#685B56" mask="url(#mask-6)"></path>
                <path d="M8.88888889,10.2220659 C8.88888889,9.97662876 9.0879825,9.77777778 9.33333333,9.77777778 C9.57899672,9.77777778 9.77777778,9.97662876 9.77777778,10.2220659 C9.77777778,10.467503 9.57899672,10.6666667 9.33333333,10.6666667 C9.0879825,10.6666667 8.88888889,10.467503 8.88888889,10.2220659" id="Fill-72" fill="#988A89" mask="url(#mask-6)"></path>
            </g>
        </g>
    </g>
</svg>