<?xml version="1.0" encoding="UTF-8"?>
<svg width="40px" height="40px" viewBox="0 0 40 40" version="1.1" xmlns="http://www.w3.org/2000/svg" xmlns:xlink="http://www.w3.org/1999/xlink">
    <!-- Generator: Sketch 49.2 (51160) - http://www.bohemiancoding.com/sketch -->
    <title>Icons / Privacy concern</title>
    <desc>Created with Sketch.</desc>
    <defs>
        <circle id="path-1" cx="20" cy="20" r="20"></circle>
    </defs>
    <g id="Icons-/-Privacy-concern" stroke="none" stroke-width="1" fill="none" fill-rule="evenodd">
        <g id="Group-4">
            <g id="Icon---3kg">
                <mask id="mask-2" fill="white">
                    <use xlink:href="#path-1"></use>
                </mask>
                <use id="Mask" fill="#324B81" xlink:href="#path-1"></use>
            </g>
            <g id="Group-8" transform="translate(10.000000, 7.333333)">
                <path d="M15.6770747,14.6666667 C15.1307539,14.6666667 14.6877997,14.2236157 14.6877997,13.6768585 L14.6877997,6.66796408 C14.6877997,4.08260174 12.5849564,1.97929911 10.0001585,1.97929911 C7.41536071,1.97929911 5.31220026,4.08260174 5.31220026,6.66796408 L5.31220026,13.6768585 C5.31220026,14.2236157 4.86956315,14.6666667 4.32292534,14.6666667 C3.77628752,14.6666667 3.33333333,14.2236157 3.33333333,13.6768585 L3.33333333,6.66796408 C3.33333333,2.99130736 6.32398754,0 10.0001585,0 C13.6760125,0 16.6666667,2.99130736 16.6666667,6.66796408 L16.6666667,13.6768585 C16.6666667,14.2236157 16.2237125,14.6666667 15.6770747,14.6666667" id="Fill-18" fill="#EAAF2A"></path>
                <path d="M20,21.3161238 C20,22.0587318 19.3920325,22.6666667 18.6486787,22.6666667 L1.35132129,22.6666667 C0.608285265,22.6666667 0,22.0587318 0,21.3161238 L0,9.35054285 C0,8.60761723 0.608285265,8 1.35132129,8 L18.6486787,8 C19.3920325,8 20,8.60761723 20,9.35054285 L20,21.3161238" id="Fill-19" fill="#FBD775"></path>
                <path d="M12,13.6668255 C12,14.9553756 10.9553045,16 9.66666667,16 C8.37802886,16 7.33333333,14.9553756 7.33333333,13.6668255 C7.33333333,12.3779578 8.37802886,11.3333333 9.66666667,11.3333333 C10.9553045,11.3333333 12,12.3779578 12,13.6668255" id="Fill-21" fill="#C69421"></path>
                <polygon id="Fill-22" fill="#C69421" points="9.33333333 19.3333333 10.6666667 19.3333333 10.6666667 15.3333333 9.33333333 15.3333333"></polygon>
            </g>
        </g>
    </g>
</svg>