<?xml version="1.0" standalone="no"?>
  <!DOCTYPE svg PUBLIC "-//W3C//DTD SVG 1.1//EN" "http://www.w3.org/Graphics/SVG/1.1/DTD/svg11.dtd" >
  <svg>
  <metadata>
  Created by font-carrier
  </metadata>
  <defs>
  <font id="APTypeDisplay-LightItalic" horiz-adv-x="1184" vert-adv-y="1184" >
    <font-face
      
      font-family="AP Type Display Light"
      
      font-weight="400"
      
      font-stretch="normal"
      
      units-per-em="1000"
      
      ascent="1181"
      
      descent="-272"
      
    />
      <missing-glyph />

      

      
      <glyph glyph-name="uni41" unicode="&#x41;" d="M324 710L435 710L554 0L463 0L436 166L135 166L50 0L-44 0L324 710M175 244L423 244L364 610L175 244Z"  horiz-adv-x="610" vert-adv-y="1000"  />

      
      <glyph glyph-name="unic6" unicode="&#xc6;" d="M423 710L968 710L955 632L604 632L566 412L895 412L882 335L552 335L507 78L865 78L850 0L399 0L437 217L188 217L40 0L-65 0L423 710M240 294L451 294L511 637L474 637L240 294Z"  horiz-adv-x="932" vert-adv-y="1000"  />

      
      <glyph glyph-name="uni01FC" unicode="&#x01FC;" d="M660 939L784 939L626 791L528 791L660 939M423 710L968 710L955 632L604 632L566 412L895 412L882 335L552 335L507 78L865 78L850 0L399 0L437 217L188 217L40 0L-65 0L423 710M240 294L451 294L511 637L474 637L240 294Z"  horiz-adv-x="932" vert-adv-y="1000"  />

      
      <glyph glyph-name="unic1" unicode="&#xc1;" d="M474 939L598 939L440 791L342 791L474 939M324 710L435 710L554 0L463 0L436 166L135 166L50 0L-44 0L324 710M175 244L423 244L364 610L175 244Z"  horiz-adv-x="610" vert-adv-y="1000"  />

      
      <glyph glyph-name="uni0102" unicode="&#x0102;" d="M273 932L350 932Q347 893 362.50 873.50Q378 854 412 854Q436 854 458 873Q480 892 482 932L561 932Q556 863 511.50 825Q467 787 408 787Q340 787 304.50 826.50Q269 866 273 932M324 710L435 710L554 0L463 0L436 166L135 166L50 0L-44 0L324 710M175 244L423 244L364 610L175 244Z"  horiz-adv-x="610" vert-adv-y="1000"  />

      
      <glyph glyph-name="unic2" unicode="&#xc2;" d="M372 946L472 946L560 797L474 797L416 891L326 797L231 797L372 946M324 710L435 710L554 0L463 0L436 166L135 166L50 0L-44 0L324 710M175 244L423 244L364 610L175 244Z"  horiz-adv-x="610" vert-adv-y="1000"  />

      
      <glyph glyph-name="unic4" unicode="&#xc4;" d="M253 850Q253 875 270.50 892.50Q288 910 313 910Q338 910 355.50 892.50Q373 875 373 850Q373 825 355.50 807.50Q338 790 313 790Q288 790 270.50 807.50Q253 825 253 850M439 850Q439 875 456.50 892.50Q474 910 499 910Q524 910 541.50 892.50Q559 875 559 850Q559 825 541.50 807.50Q524 790 499 790Q474 790 456.50 807.50Q439 825 439 850M324 710L435 710L554 0L463 0L436 166L135 166L50 0L-44 0L324 710M175 244L423 244L364 610L175 244Z"  horiz-adv-x="610" vert-adv-y="1000"  />

      
      <glyph glyph-name="uni1EA0" unicode="&#x1EA0;" d="M324 710L435 710L554 0L463 0L436 166L135 166L50 0L-44 0L324 710M175 244L423 244L364 610L175 244M171-134Q171-106 189.50-88Q208-70 236-70Q263-70 282-88Q301-106 301-134Q301-162 282-180.50Q263-199 236-199Q208-199 189.50-180.50Q171-162 171-134Z"  horiz-adv-x="610" vert-adv-y="1000"  />

      
      <glyph glyph-name="unic0" unicode="&#xc0;" d="M255 939L366 939L447 791L360 791L255 939M324 710L435 710L554 0L463 0L436 166L135 166L50 0L-44 0L324 710M175 244L423 244L364 610L175 244Z"  horiz-adv-x="610" vert-adv-y="1000"  />

      
      <glyph glyph-name="uni0100" unicode="&#x0100;" d="M277 885L548 885L535 812L264 812L277 885M324 710L435 710L554 0L463 0L436 166L135 166L50 0L-44 0L324 710M175 244L423 244L364 610L175 244Z"  horiz-adv-x="610" vert-adv-y="1000"  />

      
      <glyph glyph-name="uni0104" unicode="&#x0104;" d="M358-120Q358-92 382.50-56.50Q407-21 463-3L463 0L436 166L135 166L50 0L-44 0L324 710L435 710L554 0Q494-29 466.50-53Q439-77 439-101Q439-117 450.50-129Q462-141 492-141Q502-141 512.50-138.50Q523-136 531-132L519-199Q509-202 495.50-204Q482-206 467-206Q418-206 388-182.50Q358-159 358-120M175 244L423 244L363 610L175 244Z"  horiz-adv-x="610" vert-adv-y="1000"  />

      
      <glyph glyph-name="unic5" unicode="&#xc5;" d="M297 875Q297 924 329.50 954Q362 984 411 984Q460 984 492.50 954Q525 924 525 875Q525 828 492.50 796.50Q460 765 411 765Q362 765 329.50 796.50Q297 828 297 875M464 875Q464 899 448.50 914.50Q433 930 411 930Q389 930 373.50 914.50Q358 899 358 875Q358 853 373.50 836.50Q389 820 411 820Q433 820 448.50 836.50Q464 853 464 875M324 710L435 710L554 0L463 0L436 166L135 166L50 0L-44 0L324 710M175 244L423 244L364 610L175 244Z"  horiz-adv-x="610" vert-adv-y="1000"  />

      
      <glyph glyph-name="uni01FA" unicode="&#x01FA;" d="M505 1181L629 1181L471 1033L373 1033L505 1181M287 870Q287 919 319.50 949Q352 979 401 979Q450 979 482.50 949Q515 919 515 870Q515 823 482.50 791.50Q450 760 401 760Q352 760 319.50 791.50Q287 823 287 870M454 870Q454 894 438.50 909.50Q423 925 401 925Q379 925 363.50 909.50Q348 894 348 870Q348 848 363.50 831.50Q379 815 401 815Q423 815 438.50 831.50Q454 848 454 870M324 710L435 710L554 0L463 0L436 166L135 166L50 0L-44 0L324 710M175 244L423 244L364 610L175 244Z"  horiz-adv-x="610" vert-adv-y="1000"  />

      
      <glyph glyph-name="unic3" unicode="&#xc3;" d="M352 909Q370 909 385.50 903Q401 897 415 887Q428 877 439 871Q450 865 460 865Q480 865 487.50 884Q495 903 496 915L565 915Q561 861 534.50 828.50Q508 796 465 796Q448 796 432 800.50Q416 805 399 817Q383 828 373.50 833.50Q364 839 354 839Q335 839 327 821Q319 803 317 790L249 790Q252 844 282 876.50Q312 909 352 909M324 710L435 710L554 0L463 0L436 166L135 166L50 0L-44 0L324 710M175 244L423 244L364 610L175 244Z"  horiz-adv-x="610" vert-adv-y="1000"  />

      
      <glyph glyph-name="uni42" unicode="&#x42;" d="M141 710L414 710Q495 710 544 666Q593 622 593 543Q593 487 558.50 436Q524 385 461 363Q507 350 534.50 314Q562 278 562 219Q562 174 545.50 134Q529 94 496 64.50Q463 35 413.50 17.50Q364 0 299 0L16 0L141 710M392 635L222 635L181 402L354 402Q421 402 459 437.50Q497 473 497 534Q497 582 471 608.50Q445 635 392 635M349 328L168 328L123 76L305 76Q385 76 426.50 112.50Q468 149 468 216Q468 272 435.50 300Q403 328 349 328Z"  horiz-adv-x="601" vert-adv-y="1000"  />

      
      <glyph glyph-name="uni43" unicode="&#x43;" d="M47 287Q47 369 71.50 447Q96 525 143 585.50Q190 646 259 683Q328 720 416 720Q540 720 609 657Q678 594 691 496L597 496Q591 524 578.50 550.50Q566 577 544 597Q522 617 488.50 629Q455 641 407 641Q315 641 246.50 574.50Q178 508 156 403Q148 364 144 334Q140 304 140 282Q140 178 197.50 123.50Q255 69 346 69Q387 69 420.50 81Q454 93 479 112Q504 131 520.50 156Q537 181 545 207L643 207Q627 161 599.50 121Q572 81 534 52Q496 23 447 6.50Q398-10 339-10Q275-10 221 9.50Q167 29 128.50 66.50Q90 104 68.50 159.50Q47 215 47 287Z"  horiz-adv-x="679" vert-adv-y="1000"  />

      
      <glyph glyph-name="uni0106" unicode="&#x0106;" d="M509 939L633 939L475 791L377 791L509 939M47 287Q47 369 71.50 447Q96 525 143 585.50Q190 646 259 683Q328 720 416 720Q540 720 609 657Q678 594 691 496L597 496Q591 524 578.50 550.50Q566 577 544 597Q522 617 488.50 629Q455 641 407 641Q315 641 246.50 574.50Q178 508 156 403Q148 364 144 334Q140 304 140 282Q140 178 197.50 123.50Q255 69 346 69Q387 69 420.50 81Q454 93 479 112Q504 131 520.50 156Q537 181 545 207L643 207Q627 161 599.50 121Q572 81 534 52Q496 23 447 6.50Q398-10 339-10Q275-10 221 9.50Q167 29 128.50 66.50Q90 104 68.50 159.50Q47 215 47 287Z"  horiz-adv-x="679" vert-adv-y="1000"  />

      
      <glyph glyph-name="uni010C" unicode="&#x010C;" d="M292 940L378 940L436 844L526 940L621 940L480 791L380 791L292 940M47 287Q47 369 71.50 447Q96 525 143 585.50Q190 646 259 683Q328 720 416 720Q540 720 609 657Q678 594 691 496L597 496Q591 524 578.50 550.50Q566 577 544 597Q522 617 488.50 629Q455 641 407 641Q315 641 246.50 574.50Q178 508 156 403Q148 364 144 334Q140 304 140 282Q140 178 197.50 123.50Q255 69 346 69Q387 69 420.50 81Q454 93 479 112Q504 131 520.50 156Q537 181 545 207L643 207Q627 161 599.50 121Q572 81 534 52Q496 23 447 6.50Q398-10 339-10Q275-10 221 9.50Q167 29 128.50 66.50Q90 104 68.50 159.50Q47 215 47 287Z"  horiz-adv-x="679" vert-adv-y="1000"  />

      
      <glyph glyph-name="unic7" unicode="&#xc7;" d="M172-149L237-149Q239-160 250.50-169.50Q262-179 287-179Q310-179 323-167.50Q336-156 336-139Q336-121 323.50-111.50Q311-102 292-102Q280-102 271-106Q262-110 255-114L219-90L282-6Q178 10 112.50 84.50Q47 159 47 287Q47 369 71.50 447Q96 525 143 585.50Q190 646 259 683Q328 720 416 720Q540 720 609 657Q678 594 691 496L597 496Q591 524 578.50 550.50Q566 577 544 597Q522 617 488.50 629Q455 641 407 641Q315 641 246.50 574.50Q178 508 156 403Q148 364 144 334Q140 304 140 282Q140 178 197.50 123.50Q255 69 346 69Q387 69 420.50 81Q454 93 479 112Q504 131 520.50 156Q537 181 545 207L643 207Q627 161 599.50 121Q572 81 534 52Q496 23 447 6.50Q398-10 339-10L338-10L307-52Q310-51 312-51Q314-51 315-51Q352-51 375-73Q398-95 398-136Q398-173 368.50-203Q339-233 286-233Q226-233 199-205.50Q172-178 172-149Z"  horiz-adv-x="679" vert-adv-y="1000"  />

      
      <glyph glyph-name="uni0108" unicode="&#x0108;" d="M407 946L507 946L595 797L509 797L451 891L361 797L266 797L407 946M47 287Q47 369 71.50 447Q96 525 143 585.50Q190 646 259 683Q328 720 416 720Q540 720 609 657Q678 594 691 496L597 496Q591 524 578.50 550.50Q566 577 544 597Q522 617 488.50 629Q455 641 407 641Q315 641 246.50 574.50Q178 508 156 403Q148 364 144 334Q140 304 140 282Q140 178 197.50 123.50Q255 69 346 69Q387 69 420.50 81Q454 93 479 112Q504 131 520.50 156Q537 181 545 207L643 207Q627 161 599.50 121Q572 81 534 52Q496 23 447 6.50Q398-10 339-10Q275-10 221 9.50Q167 29 128.50 66.50Q90 104 68.50 159.50Q47 215 47 287Z"  horiz-adv-x="679" vert-adv-y="1000"  />

      
      <glyph glyph-name="uni010A" unicode="&#x010A;" d="M440 919Q468 919 487 901Q506 883 506 855Q506 827 487 808.50Q468 790 440 790Q413 790 394 808.50Q375 827 375 855Q375 883 394 901Q413 919 440 919M47 287Q47 369 71.50 447Q96 525 143 585.50Q190 646 259 683Q328 720 416 720Q540 720 609 657Q678 594 691 496L597 496Q591 524 578.50 550.50Q566 577 544 597Q522 617 488.50 629Q455 641 407 641Q315 641 246.50 574.50Q178 508 156 403Q148 364 144 334Q140 304 140 282Q140 178 197.50 123.50Q255 69 346 69Q387 69 420.50 81Q454 93 479 112Q504 131 520.50 156Q537 181 545 207L643 207Q627 161 599.50 121Q572 81 534 52Q496 23 447 6.50Q398-10 339-10Q275-10 221 9.50Q167 29 128.50 66.50Q90 104 68.50 159.50Q47 215 47 287Z"  horiz-adv-x="679" vert-adv-y="1000"  />

      
      <glyph glyph-name="uni44" unicode="&#x44;" d="M141 710L341 710Q413 710 472.50 688Q532 666 573.50 625.50Q615 585 638.50 527Q662 469 662 397Q662 302 632 228Q602 154 549.50 103.50Q497 53 422.50 26.50Q348 0 260 0L16 0L141 710M339 632L220 632L123 78L266 78Q409 78 488 161Q567 244 567 395Q567 518 506 575Q445 632 339 632Z"  horiz-adv-x="676" vert-adv-y="1000"  />

      
      <glyph glyph-name="uni010E" unicode="&#x010E;" d="M263 940L349 940L407 844L497 940L592 940L451 791L351 791L263 940M141 710L341 710Q413 710 472.50 688Q532 666 573.50 625.50Q615 585 638.50 527Q662 469 662 397Q662 302 632 228Q602 154 549.50 103.50Q497 53 422.50 26.50Q348 0 260 0L16 0L141 710M339 632L220 632L123 78L266 78Q409 78 488 161Q567 244 567 395Q567 518 506 575Q445 632 339 632Z"  horiz-adv-x="676" vert-adv-y="1000"  />

      
      <glyph glyph-name="uni0110" unicode="&#x0110;" d="M29 399L112 399L167 710L367 710Q439 710 498.50 688Q558 666 599.50 625.50Q641 585 664.50 527Q688 469 688 397Q688 302 658 228Q628 154 575.50 103.50Q523 53 448.50 26.50Q374 0 286 0L42 0L100 327L17 327L29 399M399 327L193 327L149 78L292 78Q435 78 514 161Q593 244 593 395Q593 518 532 575Q471 632 365 632L246 632L205 399L411 399L399 327Z"  horiz-adv-x="702" vert-adv-y="1000"  />

      
      <glyph glyph-name="uni1E0C" unicode="&#x1E0C;" d="M141 710L341 710Q413 710 472.50 688Q532 666 573.50 625.50Q615 585 638.50 527Q662 469 662 397Q662 302 632 228Q602 154 549.50 103.50Q497 53 422.50 26.50Q348 0 260 0L16 0L141 710M339 632L220 632L123 78L266 78Q409 78 488 161Q567 244 567 395Q567 518 506 575Q445 632 339 632M188-134Q188-106 206.50-88Q225-70 253-70Q280-70 299-88Q318-106 318-134Q318-162 299-180.50Q280-199 253-199Q225-199 206.50-180.50Q188-162 188-134Z"  horiz-adv-x="676" vert-adv-y="1000"  />

      
      <glyph glyph-name="uni45" unicode="&#x45;" d="M481 78L467 0L16 0L141 710L585 710L572 632L221 632L183 412L512 412L499 335L169 335L124 78L481 78Z"  horiz-adv-x="549" vert-adv-y="1000"  />

      
      <glyph glyph-name="unic9" unicode="&#xc9;" d="M458 939L582 939L424 791L326 791L458 939M481 78L467 0L16 0L141 710L585 710L572 632L221 632L183 412L512 412L499 335L169 335L124 78L481 78Z"  horiz-adv-x="549" vert-adv-y="1000"  />

      
      <glyph glyph-name="uni0114" unicode="&#x0114;" d="M256 932L333 932Q330 893 345.50 873.50Q361 854 395 854Q419 854 441 873Q463 892 465 932L544 932Q539 863 494.50 825Q450 787 391 787Q323 787 287.50 826.50Q252 866 256 932M481 78L467 0L16 0L141 710L585 710L572 632L221 632L183 412L512 412L499 335L169 335L124 78L481 78Z"  horiz-adv-x="549" vert-adv-y="1000"  />

      
      <glyph glyph-name="uni011A" unicode="&#x011A;" d="M240 940L326 940L384 844L474 940L569 940L428 791L328 791L240 940M481 78L467 0L16 0L141 710L585 710L572 632L221 632L183 412L512 412L499 335L169 335L124 78L481 78Z"  horiz-adv-x="549" vert-adv-y="1000"  />

      
      <glyph glyph-name="unica" unicode="&#xca;" d="M356 946L456 946L544 797L458 797L400 891L310 797L215 797L356 946M481 78L467 0L16 0L141 710L585 710L572 632L221 632L183 412L512 412L499 335L169 335L124 78L481 78Z"  horiz-adv-x="549" vert-adv-y="1000"  />

      
      <glyph glyph-name="unicb" unicode="&#xcb;" d="M237 850Q237 875 254.50 892.50Q272 910 297 910Q322 910 339.50 892.50Q357 875 357 850Q357 825 339.50 807.50Q322 790 297 790Q272 790 254.50 807.50Q237 825 237 850M423 850Q423 875 440.50 892.50Q458 910 483 910Q508 910 525.50 892.50Q543 875 543 850Q543 825 525.50 807.50Q508 790 483 790Q458 790 440.50 807.50Q423 825 423 850M481 78L467 0L16 0L141 710L585 710L572 632L221 632L183 412L512 412L499 335L169 335L124 78L481 78Z"  horiz-adv-x="549" vert-adv-y="1000"  />

      
      <glyph glyph-name="uni0116" unicode="&#x0116;" d="M389 919Q417 919 436 901Q455 883 455 855Q455 827 436 808.50Q417 790 389 790Q362 790 343 808.50Q324 827 324 855Q324 883 343 901Q362 919 389 919M481 78L467 0L16 0L141 710L585 710L572 632L221 632L183 412L512 412L499 335L169 335L124 78L481 78Z"  horiz-adv-x="549" vert-adv-y="1000"  />

      
      <glyph glyph-name="uni1EB8" unicode="&#x1EB8;" d="M481 78L467 0L16 0L141 710L585 710L572 632L221 632L183 412L512 412L499 335L169 335L124 78L481 78M174-134Q174-106 192.50-88Q211-70 239-70Q266-70 285-88Q304-106 304-134Q304-162 285-180.50Q266-199 239-199Q211-199 192.50-180.50Q174-162 174-134Z"  horiz-adv-x="549" vert-adv-y="1000"  />

      
      <glyph glyph-name="unic8" unicode="&#xc8;" d="M238 939L349 939L430 791L343 791L238 939M481 78L467 0L16 0L141 710L585 710L572 632L221 632L183 412L512 412L499 335L169 335L124 78L481 78Z"  horiz-adv-x="549" vert-adv-y="1000"  />

      
      <glyph glyph-name="uni0112" unicode="&#x0112;" d="M261 885L532 885L519 812L248 812L261 885M481 78L467 0L16 0L141 710L585 710L572 632L221 632L183 412L512 412L499 335L169 335L124 78L481 78Z"  horiz-adv-x="549" vert-adv-y="1000"  />

      
      <glyph glyph-name="uni014A" unicode="&#x014A;" d="M601-47Q591-102 548-136Q505-170 446-170L407-170L419-98L440-98Q473-98 491-81.50Q509-65 514-35L520 1L212 590L108 0L16 0L141 710L250 710L543 149L642 710L734 710L601-47Z"  horiz-adv-x="717" vert-adv-y="1000"  />

      
      <glyph glyph-name="uni0118" unicode="&#x0118;" d="M235-120Q235-93 258.50-57.50Q282-22 342 0L16 0L141 710L585 710L572 632L221 632L183 412L512 412L499 335L169 335L124 78L481 78L467 0L430 0Q370-29 343-53Q316-77 316-101Q316-117 327.50-129Q339-141 368-141Q378-141 389-138.50Q400-136 407-132L396-199Q385-202 371.50-204Q358-206 343-206Q294-206 264.50-182.50Q235-159 235-120Z"  horiz-adv-x="549" vert-adv-y="1000"  />

      
      <glyph glyph-name="unid0" unicode="&#xd0;" d="M29 399L112 399L167 710L367 710Q439 710 498.50 688Q558 666 599.50 625.50Q641 585 664.50 527Q688 469 688 397Q688 302 658 228Q628 154 575.50 103.50Q523 53 448.50 26.50Q374 0 286 0L42 0L100 327L17 327L29 399M399 327L193 327L149 78L292 78Q435 78 514 161Q593 244 593 395Q593 518 532 575Q471 632 365 632L246 632L205 399L411 399L399 327Z"  horiz-adv-x="702" vert-adv-y="1000"  />

      
      <glyph glyph-name="uni1EBC" unicode="&#x1EBC;" d="M336 909Q354 909 369.50 903Q385 897 399 887Q412 877 423 871Q434 865 444 865Q464 865 471.50 884Q479 903 480 915L549 915Q545 861 518.50 828.50Q492 796 449 796Q432 796 416 800.50Q400 805 383 817Q367 828 357.50 833.50Q348 839 338 839Q319 839 311 821Q303 803 301 790L233 790Q236 844 266 876.50Q296 909 336 909M481 78L467 0L16 0L141 710L585 710L572 632L221 632L183 412L512 412L499 335L169 335L124 78L481 78Z"  horiz-adv-x="549" vert-adv-y="1000"  />

      
      <glyph glyph-name="uni20AC" unicode="&#x20AC;" d="M43 321L112 321Q113 340 115.50 358.50Q118 377 121 395L56 395L67 456L136 456Q152 512 180 560.50Q208 609 245.50 644.50Q283 680 330 700Q377 720 432 720Q535 720 593 662Q651 604 664 514L575 514Q564 564 530.50 603Q497 642 425 642Q360 642 307 591Q254 540 229 456L491 456L460 395L215 395Q211 374 208.50 355.50Q206 337 205 321L422 321L390 259L203 259Q207 165 252.50 116.50Q298 68 365 68Q423 68 461 102.50Q499 137 517 183L611 183Q580 99 516 44.50Q452-10 361-10Q257-10 188 61.50Q119 133 112 259L32 259L43 321Z"  horiz-adv-x="660" vert-adv-y="1000"  />

      
      <glyph glyph-name="uni46" unicode="&#x46;" d="M490 398L476 320L166 320L110 0L16 0L141 710L572 710L559 632L221 632L180 398L490 398Z"  horiz-adv-x="523" vert-adv-y="1000"  />

      
      <glyph glyph-name="uni47" unicode="&#x47;" d="M47 294Q47 380 73 458Q99 536 146.50 594Q194 652 263.50 686Q333 720 420 720Q531 720 600 666Q669 612 691 520L592 520Q576 572 532.50 606.50Q489 641 408 641Q315 641 246.50 578Q178 515 156 405Q149 370 144.50 337.50Q140 305 140 286Q140 182 198 125.50Q256 69 352 69Q445 69 501 124.50Q557 180 573 267L579 299L425 299L440 376L685 376L674 304Q652 156 565 73Q478-10 347-10Q280-10 224.50 10Q169 30 129.50 68.50Q90 107 68.50 164Q47 221 47 294Z"  horiz-adv-x="695" vert-adv-y="1000"  />

      
      <glyph glyph-name="uni011E" unicode="&#x011E;" d="M308 932L385 932Q382 893 397.50 873.50Q413 854 447 854Q471 854 493 873Q515 892 517 932L596 932Q591 863 546.50 825Q502 787 443 787Q375 787 339.50 826.50Q304 866 308 932M47 294Q47 380 73 458Q99 536 146.50 594Q194 652 263.50 686Q333 720 420 720Q531 720 600 666Q669 612 691 520L592 520Q576 572 532.50 606.50Q489 641 408 641Q315 641 246.50 578Q178 515 156 405Q149 370 144.50 337.50Q140 305 140 286Q140 182 198 125.50Q256 69 352 69Q445 69 501 124.50Q557 180 573 267L579 299L425 299L440 376L685 376L674 304Q652 156 565 73Q478-10 347-10Q280-10 224.50 10Q169 30 129.50 68.50Q90 107 68.50 164Q47 221 47 294Z"  horiz-adv-x="695" vert-adv-y="1000"  />

      
      <glyph glyph-name="uni01E6" unicode="&#x01E6;" d="M292 940L378 940L436 844L526 940L621 940L480 791L380 791L292 940M47 294Q47 380 73 458Q99 536 146.50 594Q194 652 263.50 686Q333 720 420 720Q531 720 600 666Q669 612 691 520L592 520Q576 572 532.50 606.50Q489 641 408 641Q315 641 246.50 578Q178 515 156 405Q149 370 144.50 337.50Q140 305 140 286Q140 182 198 125.50Q256 69 352 69Q445 69 501 124.50Q557 180 573 267L579 299L425 299L440 376L685 376L674 304Q652 156 565 73Q478-10 347-10Q280-10 224.50 10Q169 30 129.50 68.50Q90 107 68.50 164Q47 221 47 294Z"  horiz-adv-x="695" vert-adv-y="1000"  />

      
      <glyph glyph-name="uni0122" unicode="&#x0122;" d="M47 294Q47 380 73 458Q99 536 146.50 594Q194 652 263.50 686Q333 720 420 720Q531 720 600 666Q669 612 691 520L592 520Q576 572 532.50 606.50Q489 641 408 641Q315 641 246.50 578Q178 515 156 405Q149 370 144.50 337.50Q140 305 140 286Q140 182 198 125.50Q256 69 352 69Q445 69 501 124.50Q557 180 573 267L579 299L425 299L440 376L685 376L674 304Q652 156 565 73Q478-10 347-10Q280-10 224.50 10Q169 30 129.50 68.50Q90 107 68.50 164Q47 221 47 294M219-233Q254-232 281.50-215.50Q309-199 320-174Q315-176 309-177Q303-178 299-178Q274-178 260-163.50Q246-149 246-128Q246-103 265-83Q284-63 315-63Q343-63 360-80Q377-97 377-129Q377-191 328.50-231Q280-271 211-272L219-233Z"  horiz-adv-x="695" vert-adv-y="1000"  />

      
      <glyph glyph-name="uni011C" unicode="&#x011C;" d="M408 946L508 946L596 797L510 797L452 891L362 797L267 797L408 946M47 294Q47 380 73 458Q99 536 146.50 594Q194 652 263.50 686Q333 720 420 720Q531 720 600 666Q669 612 691 520L592 520Q576 572 532.50 606.50Q489 641 408 641Q315 641 246.50 578Q178 515 156 405Q149 370 144.50 337.50Q140 305 140 286Q140 182 198 125.50Q256 69 352 69Q445 69 501 124.50Q557 180 573 267L579 299L425 299L440 376L685 376L674 304Q652 156 565 73Q478-10 347-10Q280-10 224.50 10Q169 30 129.50 68.50Q90 107 68.50 164Q47 221 47 294Z"  horiz-adv-x="695" vert-adv-y="1000"  />

      
      <glyph glyph-name="uni0120" unicode="&#x0120;" d="M441 919Q469 919 488 901Q507 883 507 855Q507 827 488 808.50Q469 790 441 790Q414 790 395 808.50Q376 827 376 855Q376 883 395 901Q414 919 441 919M47 294Q47 380 73 458Q99 536 146.50 594Q194 652 263.50 686Q333 720 420 720Q531 720 600 666Q669 612 691 520L592 520Q576 572 532.50 606.50Q489 641 408 641Q315 641 246.50 578Q178 515 156 405Q149 370 144.50 337.50Q140 305 140 286Q140 182 198 125.50Q256 69 352 69Q445 69 501 124.50Q557 180 573 267L579 299L425 299L440 376L685 376L674 304Q652 156 565 73Q478-10 347-10Q280-10 224.50 10Q169 30 129.50 68.50Q90 107 68.50 164Q47 221 47 294Z"  horiz-adv-x="695" vert-adv-y="1000"  />

      
      <glyph glyph-name="uni48" unicode="&#x48;" d="M110 0L16 0L141 710L235 710L182 407L555 407L608 710L702 710L577 0L483 0L541 327L168 327L110 0Z"  horiz-adv-x="685" vert-adv-y="1000"  />

      
      <glyph glyph-name="uni0126" unicode="&#x0126;" d="M120 0L26 0L118 521L39 521L51 591L130 591L151 710L245 710L224 591L597 591L618 710L712 710L691 591L770 591L758 521L679 521L587 0L493 0L551 327L178 327L120 0M192 407L565 407L585 521L212 521L192 407Z"  horiz-adv-x="705" vert-adv-y="1000"  />

      
      <glyph glyph-name="uni0124" unicode="&#x0124;" d="M412 946L512 946L600 797L514 797L456 891L366 797L271 797L412 946M110 0L16 0L141 710L235 710L182 407L555 407L608 710L702 710L577 0L483 0L541 327L168 327L110 0Z"  horiz-adv-x="685" vert-adv-y="1000"  />

      
      <glyph glyph-name="uni49" unicode="&#x49;" d="M141 710L235 710L110 0L16 0L141 710Z"  horiz-adv-x="218" vert-adv-y="1000"  />

      
      <glyph glyph-name="uni0132" unicode="&#x0132;" d="M141 710L235 710L110 0L16 0L141 710M245 200L263 302L356 302L338 201Q337 192 336 183.50Q335 175 335 167Q335 122 362.50 96Q390 70 445 70Q499 70 534.50 105.50Q570 141 581 204L670 710L764 710L674 196Q658 102 596.50 46Q535-10 440-10Q349-10 295.50 36Q242 82 242 159Q242 169 242.50 178Q243 187 245 200Z"  horiz-adv-x="745" vert-adv-y="1000"  />

      
      <glyph glyph-name="unicd" unicode="&#xcd;" d="M279 939L403 939L245 791L147 791L279 939M141 710L235 710L110 0L16 0L141 710Z"  horiz-adv-x="218" vert-adv-y="1000"  />

      
      <glyph glyph-name="uni012C" unicode="&#x012C;" d="M78 932L155 932Q152 893 167.50 873.50Q183 854 217 854Q241 854 263 873Q285 892 287 932L366 932Q361 863 316.50 825Q272 787 213 787Q145 787 109.50 826.50Q74 866 78 932M141 710L235 710L110 0L16 0L141 710Z"  horiz-adv-x="218" vert-adv-y="1000"  />

      
      <glyph glyph-name="unice" unicode="&#xce;" d="M177 946L277 946L365 797L279 797L221 891L131 797L36 797L177 946M141 710L235 710L110 0L16 0L141 710Z"  horiz-adv-x="218" vert-adv-y="1000"  />

      
      <glyph glyph-name="unicf" unicode="&#xcf;" d="M58 850Q58 875 75.50 892.50Q93 910 118 910Q143 910 160.50 892.50Q178 875 178 850Q178 825 160.50 807.50Q143 790 118 790Q93 790 75.50 807.50Q58 825 58 850M244 850Q244 875 261.50 892.50Q279 910 304 910Q329 910 346.50 892.50Q364 875 364 850Q364 825 346.50 807.50Q329 790 304 790Q279 790 261.50 807.50Q244 825 244 850M141 710L235 710L110 0L16 0L141 710Z"  horiz-adv-x="218" vert-adv-y="1000"  />

      
      <glyph glyph-name="uni0130" unicode="&#x0130;" d="M210 919Q238 919 257 901Q276 883 276 855Q276 827 257 808.50Q238 790 210 790Q183 790 164 808.50Q145 827 145 855Q145 883 164 901Q183 919 210 919M141 710L235 710L110 0L16 0L141 710Z"  horiz-adv-x="218" vert-adv-y="1000"  />

      
      <glyph glyph-name="uni1ECA" unicode="&#x1ECA;" d="M141 710L235 710L110 0L16 0L141 710M-25-133Q-25-105-6.50-87Q12-69 40-69Q67-69 86-87Q105-105 105-133Q105-161 86-179.50Q67-198 40-198Q12-198-6.50-179.50Q-25-161-25-133Z"  horiz-adv-x="218" vert-adv-y="1000"  />

      
      <glyph glyph-name="unicc" unicode="&#xcc;" d="M60 939L171 939L252 791L165 791L60 939M141 710L235 710L110 0L16 0L141 710Z"  horiz-adv-x="218" vert-adv-y="1000"  />

      
      <glyph glyph-name="uni012A" unicode="&#x012A;" d="M82 885L353 885L340 812L69 812L82 885M141 710L235 710L110 0L16 0L141 710Z"  horiz-adv-x="218" vert-adv-y="1000"  />

      
      <glyph glyph-name="uni012E" unicode="&#x012E;" d="M-52-118Q-52-90-31-57Q-10-24 38-4L38 0L16 0L141 710L235 710L110 0Q67-29 48-53Q29-77 29-101Q29-117 40.50-129Q52-141 81-141Q91-141 102-138.50Q113-136 120-132L109-199Q98-202 85-204Q72-206 57-206Q7-206-22.50-182Q-52-158-52-118Z"  horiz-adv-x="218" vert-adv-y="1000"  />

      
      <glyph glyph-name="uni0128" unicode="&#x0128;" d="M157 909Q175 909 190.50 903Q206 897 220 887Q233 877 244 871Q255 865 265 865Q285 865 292.50 884Q300 903 301 915L370 915Q366 861 339.50 828.50Q313 796 270 796Q253 796 237 800.50Q221 805 204 817Q188 828 178.50 833.50Q169 839 159 839Q140 839 132 821Q124 803 122 790L54 790Q57 844 87 876.50Q117 909 157 909M141 710L235 710L110 0L16 0L141 710Z"  horiz-adv-x="218" vert-adv-y="1000"  />

      
      <glyph glyph-name="uni4a" unicode="&#x4a;" d="M27 200L45 302L138 302L120 201Q119 192 118 183.50Q117 175 117 167Q117 122 144.50 96Q172 70 227 70Q281 70 316.50 105.50Q352 141 363 204L452 710L546 710L456 196Q440 102 378.50 46Q317-10 222-10Q131-10 77.50 36Q24 82 24 159Q24 169 24.50 178Q25 187 27 200Z"  horiz-adv-x="527" vert-adv-y="1000"  />

      
      <glyph glyph-name="uni0134" unicode="&#x0134;" d="M488 946L588 946L676 797L590 797L532 891L442 797L347 797L488 946M27 200L45 302L138 302L120 201Q119 192 118 183.50Q117 175 117 167Q117 122 144.50 96Q172 70 227 70Q281 70 316.50 105.50Q352 141 363 204L452 710L546 710L456 196Q440 102 378.50 46Q317-10 222-10Q131-10 77.50 36Q24 82 24 159Q24 169 24.50 178Q25 187 27 200Z"  horiz-adv-x="527" vert-adv-y="1000"  />

      
      <glyph glyph-name="uni4b" unicode="&#x4b;" d="M141 710L235 710L175 370L549 710L669 710L272 349L571 0L453 0L169 335L110 0L16 0L141 710Z"  horiz-adv-x="602" vert-adv-y="1000"  />

      
      <glyph glyph-name="uni0136" unicode="&#x0136;" d="M141 710L235 710L175 370L549 710L669 710L272 349L571 0L453 0L169 335L110 0L16 0L141 710M154-233Q189-232 216.50-215.50Q244-199 255-174Q250-176 244-177Q238-178 234-178Q209-178 195-163.50Q181-149 181-128Q181-103 200-83Q219-63 250-63Q278-63 295-80Q312-97 312-129Q312-191 263.50-231Q215-271 146-272L154-233Z"  horiz-adv-x="602" vert-adv-y="1000"  />

      
      <glyph glyph-name="uni4c" unicode="&#x4c;" d="M463 79L449 0L16 0L141 710L235 710L124 79L463 79Z"  horiz-adv-x="534" vert-adv-y="1000"  />

      
      <glyph glyph-name="uni0139" unicode="&#x0139;" d="M276 939L400 939L242 791L144 791L276 939M463 79L449 0L16 0L141 710L235 710L124 79L463 79Z"  horiz-adv-x="534" vert-adv-y="1000"  />

      
      <glyph glyph-name="uni013D" unicode="&#x013D;" d="M463 79L449 0L16 0L141 710L235 710L124 79L463 79M402 710L507 710L429 511L349 511L402 710Z"  horiz-adv-x="534" vert-adv-y="1000"  />

      
      <glyph glyph-name="uni013B" unicode="&#x013B;" d="M463 79L449 0L16 0L141 710L235 710L124 79L463 79M128-233Q163-232 190.50-215.50Q218-199 229-174Q224-176 218-177Q212-178 208-178Q183-178 169-163.50Q155-149 155-128Q155-103 174-83Q193-63 224-63Q252-63 269-80Q286-97 286-129Q286-191 237.50-231Q189-271 120-272L128-233Z"  horiz-adv-x="534" vert-adv-y="1000"  />

      
      <glyph glyph-name="uni013F" unicode="&#x013F;" d="M463 79L449 0L16 0L141 710L235 710L124 79L463 79M396 436Q424 436 443 418Q462 400 462 372Q462 344 443 325.50Q424 307 396 307Q369 307 350 325.50Q331 344 331 372Q331 400 350 418Q369 436 396 436Z"  horiz-adv-x="549" vert-adv-y="1000"  />

      
      <glyph glyph-name="uni1E36" unicode="&#x1E36;" d="M463 79L449 0L16 0L141 710L235 710L124 79L463 79M157-134Q157-106 175.50-88Q194-70 222-70Q249-70 268-88Q287-106 287-134Q287-162 268-180.50Q249-199 222-199Q194-199 175.50-180.50Q157-162 157-134Z"  horiz-adv-x="534" vert-adv-y="1000"  />

      
      <glyph glyph-name="uni0141" unicode="&#x0141;" d="M19 260L105 309L176 710L270 710L210 369L415 486L398 394L194 277L159 79L498 79L484 0L51 0L89 217L2 167L19 260Z"  horiz-adv-x="569" vert-adv-y="1000"  />

      
      <glyph glyph-name="uni4d" unicode="&#x4d;" d="M141 710L256 710L400 261L700 710L820 710L695 0L605 0L708 585L397 123L357 123L209 584L106 0L16 0L141 710Z"  horiz-adv-x="803" vert-adv-y="1000"  />

      
      <glyph glyph-name="uni4e" unicode="&#x4e;" d="M141 710L250 710L541 133L642 710L734 710L609 0L508 0L211 588L108 0L16 0L141 710Z"  horiz-adv-x="717" vert-adv-y="1000"  />

      
      <glyph glyph-name="uni0143" unicode="&#x0143;" d="M528 939L652 939L494 791L396 791L528 939M141 710L250 710L541 133L642 710L734 710L609 0L508 0L211 588L108 0L16 0L141 710Z"  horiz-adv-x="717" vert-adv-y="1000"  />

      
      <glyph glyph-name="uni0147" unicode="&#x0147;" d="M311 940L397 940L455 844L545 940L640 940L499 791L399 791L311 940M141 710L250 710L541 133L642 710L734 710L609 0L508 0L211 588L108 0L16 0L141 710Z"  horiz-adv-x="717" vert-adv-y="1000"  />

      
      <glyph glyph-name="uni0145" unicode="&#x0145;" d="M141 710L250 710L541 133L642 710L734 710L609 0L508 0L211 588L108 0L16 0L141 710M204-233Q239-232 266.50-215.50Q294-199 305-174Q300-176 294-177Q288-178 284-178Q259-178 245-163.50Q231-149 231-128Q231-103 250-83Q269-63 300-63Q328-63 345-80Q362-97 362-129Q362-191 313.50-231Q265-271 196-272L204-233Z"  horiz-adv-x="717" vert-adv-y="1000"  />

      
      <glyph glyph-name="uni1E46" unicode="&#x1E46;" d="M141 710L250 710L541 133L642 710L734 710L609 0L508 0L211 588L108 0L16 0L141 710M233-134Q233-106 251.50-88Q270-70 298-70Q325-70 344-88Q363-106 363-134Q363-162 344-180.50Q325-199 298-199Q270-199 251.50-180.50Q233-162 233-134Z"  horiz-adv-x="717" vert-adv-y="1000"  />

      
      <glyph glyph-name="uni019D" unicode="&#x019D;" d="M99-47Q89-102 44.50-136Q0-170-59-170L-98-170L-86-98L-65-98Q-32-98-14-81.50Q4-65 9-35L140 710L249 710L540 133L641 710L733 710L608 0L507 0L210 588L99-47Z"  horiz-adv-x="716" vert-adv-y="1000"  />

      
      <glyph glyph-name="unid1" unicode="&#xd1;" d="M406 909Q424 909 439.50 903Q455 897 469 887Q482 877 493 871Q504 865 514 865Q534 865 541.50 884Q549 903 550 915L619 915Q615 861 588.50 828.50Q562 796 519 796Q502 796 486 800.50Q470 805 453 817Q437 828 427.50 833.50Q418 839 408 839Q389 839 381 821Q373 803 371 790L303 790Q306 844 336 876.50Q366 909 406 909M141 710L250 710L541 133L642 710L734 710L609 0L508 0L211 588L108 0L16 0L141 710Z"  horiz-adv-x="717" vert-adv-y="1000"  />

      
      <glyph glyph-name="uni4f" unicode="&#x4f;" d="M47 294Q47 381 73.50 459Q100 537 147 594.50Q194 652 260.50 686Q327 720 407 720Q470 720 523.50 700Q577 680 615 641.50Q653 603 674 546Q695 489 695 415Q695 329 669 251.50Q643 174 596.50 116Q550 58 483.50 24Q417-10 337-10Q274-10 220.50 10Q167 30 129 68Q91 106 69 163Q47 220 47 294M588 306Q597 354 599.50 378.50Q602 403 602 421Q602 528 546 584.50Q490 641 402 641Q309 641 244.50 579Q180 517 157 408Q146 357 143 331Q140 305 140 286Q140 181 197 125Q254 69 344 69Q434 69 500 132Q566 195 588 306Z"  horiz-adv-x="712" vert-adv-y="1000"  />

      
      <glyph glyph-name="uni0152" unicode="&#x0152;" d="M47 294Q47 381 73.50 459Q100 537 147 594.50Q194 652 260.50 686Q327 720 407 720Q482 720 543 686Q604 652 639 594L659 710L1103 710L1090 632L739 632L701 412L1030 412L1017 335L687 335L642 78L999 78L985 0L534 0L548 78Q506 35 452.50 12.50Q399-10 337-10Q274-10 220.50 10Q167 30 129 68Q91 106 69 163Q47 220 47 294M140 286Q140 181 197 125Q254 69 344 69Q434 69 500 131.50Q566 194 587 301L596 350Q600 375 601 391.50Q602 408 602 421Q602 528 546 584.50Q490 641 402 641Q309 641 244.50 579Q180 517 157 408Q146 357 143 331Q140 305 140 286Z"  horiz-adv-x="1067" vert-adv-y="1000"  />

      
      <glyph glyph-name="unid3" unicode="&#xd3;" d="M508 939L632 939L474 791L376 791L508 939M47 294Q47 381 73.50 459Q100 537 147 594.50Q194 652 260.50 686Q327 720 407 720Q470 720 523.50 700Q577 680 615 641.50Q653 603 674 546Q695 489 695 415Q695 329 669 251.50Q643 174 596.50 116Q550 58 483.50 24Q417-10 337-10Q274-10 220.50 10Q167 30 129 68Q91 106 69 163Q47 220 47 294M588 306Q597 354 599.50 378.50Q602 403 602 421Q602 528 546 584.50Q490 641 402 641Q309 641 244.50 579Q180 517 157 408Q146 357 143 331Q140 305 140 286Q140 181 197 125Q254 69 344 69Q434 69 500 132Q566 195 588 306Z"  horiz-adv-x="712" vert-adv-y="1000"  />

      
      <glyph glyph-name="uni014E" unicode="&#x014E;" d="M306 932L383 932Q380 893 395.50 873.50Q411 854 445 854Q469 854 491 873Q513 892 515 932L594 932Q589 863 544.50 825Q500 787 441 787Q373 787 337.50 826.50Q302 866 306 932M47 294Q47 381 73.50 459Q100 537 147 594.50Q194 652 260.50 686Q327 720 407 720Q470 720 523.50 700Q577 680 615 641.50Q653 603 674 546Q695 489 695 415Q695 329 669 251.50Q643 174 596.50 116Q550 58 483.50 24Q417-10 337-10Q274-10 220.50 10Q167 30 129 68Q91 106 69 163Q47 220 47 294M588 306Q597 354 599.50 378.50Q602 403 602 421Q602 528 546 584.50Q490 641 402 641Q309 641 244.50 579Q180 517 157 408Q146 357 143 331Q140 305 140 286Q140 181 197 125Q254 69 344 69Q434 69 500 132Q566 195 588 306Z"  horiz-adv-x="712" vert-adv-y="1000"  />

      
      <glyph glyph-name="unid4" unicode="&#xd4;" d="M406 946L506 946L594 797L508 797L450 891L360 797L265 797L406 946M47 294Q47 381 73.50 459Q100 537 147 594.50Q194 652 260.50 686Q327 720 407 720Q470 720 523.50 700Q577 680 615 641.50Q653 603 674 546Q695 489 695 415Q695 329 669 251.50Q643 174 596.50 116Q550 58 483.50 24Q417-10 337-10Q274-10 220.50 10Q167 30 129 68Q91 106 69 163Q47 220 47 294M588 306Q597 354 599.50 378.50Q602 403 602 421Q602 528 546 584.50Q490 641 402 641Q309 641 244.50 579Q180 517 157 408Q146 357 143 331Q140 305 140 286Q140 181 197 125Q254 69 344 69Q434 69 500 132Q566 195 588 306Z"  horiz-adv-x="712" vert-adv-y="1000"  />

      
      <glyph glyph-name="unid6" unicode="&#xd6;" d="M287 850Q287 875 304.50 892.50Q322 910 347 910Q372 910 389.50 892.50Q407 875 407 850Q407 825 389.50 807.50Q372 790 347 790Q322 790 304.50 807.50Q287 825 287 850M473 850Q473 875 490.50 892.50Q508 910 533 910Q558 910 575.50 892.50Q593 875 593 850Q593 825 575.50 807.50Q558 790 533 790Q508 790 490.50 807.50Q473 825 473 850M47 294Q47 381 73.50 459Q100 537 147 594.50Q194 652 260.50 686Q327 720 407 720Q470 720 523.50 700Q577 680 615 641.50Q653 603 674 546Q695 489 695 415Q695 329 669 251.50Q643 174 596.50 116Q550 58 483.50 24Q417-10 337-10Q274-10 220.50 10Q167 30 129 68Q91 106 69 163Q47 220 47 294M588 306Q597 354 599.50 378.50Q602 403 602 421Q602 528 546 584.50Q490 641 402 641Q309 641 244.50 579Q180 517 157 408Q146 357 143 331Q140 305 140 286Q140 181 197 125Q254 69 344 69Q434 69 500 132Q566 195 588 306Z"  horiz-adv-x="712" vert-adv-y="1000"  />

      
      <glyph glyph-name="uni1ECC" unicode="&#x1ECC;" d="M47 294Q47 381 73.50 459Q100 537 147 594.50Q194 652 260.50 686Q327 720 407 720Q470 720 523.50 700Q577 680 615 641.50Q653 603 674 546Q695 489 695 415Q695 329 669 251.50Q643 174 596.50 116Q550 58 483.50 24Q417-10 337-10Q274-10 220.50 10Q167 30 129 68Q91 106 69 163Q47 220 47 294M588 306Q597 354 599.50 378.50Q602 403 602 421Q602 528 546 584.50Q490 641 402 641Q309 641 244.50 579Q180 517 157 408Q146 357 143 331Q140 305 140 286Q140 181 197 125Q254 69 344 69Q434 69 500 132Q566 195 588 306M237-134Q237-106 255.50-88Q274-70 302-70Q329-70 348-88Q367-106 367-134Q367-162 348-180.50Q329-199 302-199Q274-199 255.50-180.50Q237-162 237-134Z"  horiz-adv-x="712" vert-adv-y="1000"  />

      
      <glyph glyph-name="unid2" unicode="&#xd2;" d="M287 939L398 939L479 791L392 791L287 939M47 294Q47 381 73.50 459Q100 537 147 594.50Q194 652 260.50 686Q327 720 407 720Q470 720 523.50 700Q577 680 615 641.50Q653 603 674 546Q695 489 695 415Q695 329 669 251.50Q643 174 596.50 116Q550 58 483.50 24Q417-10 337-10Q274-10 220.50 10Q167 30 129 68Q91 106 69 163Q47 220 47 294M588 306Q597 354 599.50 378.50Q602 403 602 421Q602 528 546 584.50Q490 641 402 641Q309 641 244.50 579Q180 517 157 408Q146 357 143 331Q140 305 140 286Q140 181 197 125Q254 69 344 69Q434 69 500 132Q566 195 588 306Z"  horiz-adv-x="712" vert-adv-y="1000"  />

      
      <glyph glyph-name="uni0150" unicode="&#x0150;" d="M390 934L502 934L387 795L297 795L390 934M557 934L669 934L554 795L464 795L557 934M47 294Q47 381 73.50 459Q100 537 147 594.50Q194 652 260.50 686Q327 720 407 720Q470 720 523.50 700Q577 680 615 641.50Q653 603 674 546Q695 489 695 415Q695 329 669 251.50Q643 174 596.50 116Q550 58 483.50 24Q417-10 337-10Q274-10 220.50 10Q167 30 129 68Q91 106 69 163Q47 220 47 294M588 306Q597 354 599.50 378.50Q602 403 602 421Q602 528 546 584.50Q490 641 402 641Q309 641 244.50 579Q180 517 157 408Q146 357 143 331Q140 305 140 286Q140 181 197 125Q254 69 344 69Q434 69 500 132Q566 195 588 306Z"  horiz-adv-x="712" vert-adv-y="1000"  />

      
      <glyph glyph-name="uni014C" unicode="&#x014C;" d="M311 885L582 885L569 812L298 812L311 885M47 294Q47 381 73.50 459Q100 537 147 594.50Q194 652 260.50 686Q327 720 407 720Q470 720 523.50 700Q577 680 615 641.50Q653 603 674 546Q695 489 695 415Q695 329 669 251.50Q643 174 596.50 116Q550 58 483.50 24Q417-10 337-10Q274-10 220.50 10Q167 30 129 68Q91 106 69 163Q47 220 47 294M588 306Q597 354 599.50 378.50Q602 403 602 421Q602 528 546 584.50Q490 641 402 641Q309 641 244.50 579Q180 517 157 408Q146 357 143 331Q140 305 140 286Q140 181 197 125Q254 69 344 69Q434 69 500 132Q566 195 588 306Z"  horiz-adv-x="712" vert-adv-y="1000"  />

      
      <glyph glyph-name="uni01EA" unicode="&#x01EA;" d="M371-199Q360-202 346.50-204Q333-206 318-206Q269-206 239.50-182.50Q210-159 210-120Q210-87 235-56.50Q260-26 300-10L300-7Q243-4 196 19.50Q149 43 116 82.50Q83 122 65 176.50Q47 231 47 294Q47 381 73.50 459Q100 537 147 594.50Q194 652 260.50 686Q327 720 407 720Q470 720 523.50 700Q577 680 615 641.50Q653 603 674 546Q695 489 695 415Q695 337 675 267.50Q655 198 618.50 144Q582 90 529 52Q476 14 410-2Q357-15 324-45.50Q291-76 291-101Q291-117 302.50-129Q314-141 343-141Q353-141 364-138.50Q375-136 382-132L371-199M588 306Q597 354 599.50 378.50Q602 403 602 421Q602 528 546 584.50Q490 641 402 641Q309 641 244.50 579Q180 517 157 408Q146 357 143 331Q140 305 140 286Q140 181 197 125Q254 69 344 69Q434 69 500 132Q566 195 588 306Z"  horiz-adv-x="712" vert-adv-y="1000"  />

      
      <glyph glyph-name="unid8" unicode="&#xd8;" d="M-33 36L80 136Q64 169 55.50 208.50Q47 248 47 294Q47 381 73.50 459Q100 537 147 594.50Q194 652 260.50 686Q327 720 407 720Q477 720 534.50 695.50Q592 671 630 624L739 721L787 666L668 561Q681 530 688 493.50Q695 457 695 415Q695 329 669 251.50Q643 174 596.50 116Q550 58 483.50 24Q417-10 337-10Q271-10 216 11.50Q161 33 122 75L16-19L-33 36M140 286Q140 262 143 240.50Q146 219 152 200L563 565Q536 602 494.50 621.50Q453 641 402 641Q309 641 244.50 579Q180 517 157 408Q146 357 143 331Q140 305 140 286M588 306Q597 354 599.50 378.50Q602 403 602 421Q602 441 600 459.50Q598 478 594 494L188 134Q215 102 255 85.50Q295 69 344 69Q434 69 500 132Q566 195 588 306Z"  horiz-adv-x="712" vert-adv-y="1000"  />

      
      <glyph glyph-name="uni01FE" unicode="&#x01FE;" d="M508 939L632 939L474 791L376 791L508 939M-33 36L80 136Q64 169 55.50 208.50Q47 248 47 294Q47 381 73.50 459Q100 537 147 594.50Q194 652 260.50 686Q327 720 407 720Q477 720 534.50 695.50Q592 671 630 624L739 721L787 666L668 561Q681 530 688 493.50Q695 457 695 415Q695 329 669 251.50Q643 174 596.50 116Q550 58 483.50 24Q417-10 337-10Q271-10 216 11.50Q161 33 122 75L16-19L-33 36M140 286Q140 262 143 240.50Q146 219 152 200L563 565Q536 602 494.50 621.50Q453 641 402 641Q309 641 244.50 579Q180 517 157 408Q146 357 143 331Q140 305 140 286M588 306Q597 354 599.50 378.50Q602 403 602 421Q602 441 600 459.50Q598 478 594 494L188 134Q215 102 255 85.50Q295 69 344 69Q434 69 500 132Q566 195 588 306Z"  horiz-adv-x="712" vert-adv-y="1000"  />

      
      <glyph glyph-name="unid5" unicode="&#xd5;" d="M386 909Q404 909 419.50 903Q435 897 449 887Q462 877 473 871Q484 865 494 865Q514 865 521.50 884Q529 903 530 915L599 915Q595 861 568.50 828.50Q542 796 499 796Q482 796 466 800.50Q450 805 433 817Q417 828 407.50 833.50Q398 839 388 839Q369 839 361 821Q353 803 351 790L283 790Q286 844 316 876.50Q346 909 386 909M47 294Q47 381 73.50 459Q100 537 147 594.50Q194 652 260.50 686Q327 720 407 720Q470 720 523.50 700Q577 680 615 641.50Q653 603 674 546Q695 489 695 415Q695 329 669 251.50Q643 174 596.50 116Q550 58 483.50 24Q417-10 337-10Q274-10 220.50 10Q167 30 129 68Q91 106 69 163Q47 220 47 294M588 306Q597 354 599.50 378.50Q602 403 602 421Q602 528 546 584.50Q490 641 402 641Q309 641 244.50 579Q180 517 157 408Q146 357 143 331Q140 305 140 286Q140 181 197 125Q254 69 344 69Q434 69 500 132Q566 195 588 306Z"  horiz-adv-x="712" vert-adv-y="1000"  />

      
      <glyph glyph-name="uni50" unicode="&#x50;" d="M141 710L404 710Q503 710 560 657.50Q617 605 617 512Q617 399 541.50 330Q466 261 329 261L156 261L110 0L16 0L141 710M385 633L222 633L170 338L335 338Q422 338 471.50 380.50Q521 423 521 512Q521 575 485 604Q449 633 385 633Z"  horiz-adv-x="588" vert-adv-y="1000"  />

      
      <glyph glyph-name="uni51" unicode="&#x51;" d="M47 294Q47 381 73.50 459Q100 537 147 594.50Q194 652 260.50 686Q327 720 407 720Q470 720 523.50 700Q577 680 615 641.50Q653 603 674 546Q695 489 695 415Q695 311 657.50 220Q620 129 554 71L631-56L556-102L480 22Q448 6 412-2Q376-10 337-10Q274-10 220.50 10Q167 30 129 68Q91 106 69 163Q47 220 47 294M588 306Q597 354 599.50 378.50Q602 403 602 421Q602 528 546 584.50Q490 641 402 641Q309 641 244.50 579Q180 517 157 408Q146 357 143 331Q140 305 140 286Q140 181 197 125Q254 69 344 69Q434 69 500 132Q566 195 588 306Z"  horiz-adv-x="712" vert-adv-y="1000"  />

      
      <glyph glyph-name="uni52" unicode="&#x52;" d="M460 186Q461 196 462 205Q463 214 463 221Q463 263 441 285Q419 307 372 307L164 307L110 0L16 0L141 710L435 710Q525 710 577.50 661.50Q630 613 630 532Q630 459 592.50 411Q555 363 489 341Q526 328 542.50 299.50Q559 271 559 231Q559 221 558 208.50Q557 196 555 183L523 0L429 0L460 186M420 633L222 633L178 384L382 384Q445 384 489 418.50Q533 453 533 524Q533 579 501 606Q469 633 420 633Z"  horiz-adv-x="623" vert-adv-y="1000"  />

      
      <glyph glyph-name="uni0154" unicode="&#x0154;" d="M462 939L586 939L428 791L330 791L462 939M460 186Q461 196 462 205Q463 214 463 221Q463 263 441 285Q419 307 372 307L164 307L110 0L16 0L141 710L435 710Q525 710 577.50 661.50Q630 613 630 532Q630 459 592.50 411Q555 363 489 341Q526 328 542.50 299.50Q559 271 559 231Q559 221 558 208.50Q557 196 555 183L523 0L429 0L460 186M420 633L222 633L178 384L382 384Q445 384 489 418.50Q533 453 533 524Q533 579 501 606Q469 633 420 633Z"  horiz-adv-x="623" vert-adv-y="1000"  />

      
      <glyph glyph-name="uni0158" unicode="&#x0158;" d="M243 940L329 940L387 844L477 940L572 940L431 791L331 791L243 940M460 186Q461 196 462 205Q463 214 463 221Q463 263 441 285Q419 307 372 307L164 307L110 0L16 0L141 710L435 710Q525 710 577.50 661.50Q630 613 630 532Q630 459 592.50 411Q555 363 489 341Q526 328 542.50 299.50Q559 271 559 231Q559 221 558 208.50Q557 196 555 183L523 0L429 0L460 186M420 633L222 633L178 384L382 384Q445 384 489 418.50Q533 453 533 524Q533 579 501 606Q469 633 420 633Z"  horiz-adv-x="623" vert-adv-y="1000"  />

      
      <glyph glyph-name="uni0156" unicode="&#x0156;" d="M460 186Q461 196 462 205Q463 214 463 221Q463 263 441 285Q419 307 372 307L164 307L110 0L16 0L141 710L435 710Q525 710 577.50 661.50Q630 613 630 532Q630 459 592.50 411Q555 363 489 341Q526 328 542.50 299.50Q559 271 559 231Q559 221 558 208.50Q557 196 555 183L523 0L429 0L460 186M420 633L222 633L178 384L382 384Q445 384 489 418.50Q533 453 533 524Q533 579 501 606Q469 633 420 633M161-233Q196-232 223.50-215.50Q251-199 262-174Q257-176 251-177Q245-178 241-178Q216-178 202-163.50Q188-149 188-128Q188-103 207-83Q226-63 257-63Q285-63 302-80Q319-97 319-129Q319-191 270.50-231Q222-271 153-272L161-233Z"  horiz-adv-x="623" vert-adv-y="1000"  />

      
      <glyph glyph-name="uni1E5A" unicode="&#x1E5A;" d="M460 186Q461 196 462 205Q463 214 463 221Q463 263 441 285Q419 307 372 307L164 307L110 0L16 0L141 710L435 710Q525 710 577.50 661.50Q630 613 630 532Q630 459 592.50 411Q555 363 489 341Q526 328 542.50 299.50Q559 271 559 231Q559 221 558 208.50Q557 196 555 183L523 0L429 0L460 186M420 633L222 633L178 384L382 384Q445 384 489 418.50Q533 453 533 524Q533 579 501 606Q469 633 420 633M190-134Q190-106 208.50-88Q227-70 255-70Q282-70 301-88Q320-106 320-134Q320-162 301-180.50Q282-199 255-199Q227-199 208.50-180.50Q190-162 190-134Z"  horiz-adv-x="623" vert-adv-y="1000"  />

      
      <glyph glyph-name="uni53" unicode="&#x53;" d="M9 208L105 208Q105 182 114 156.50Q123 131 143.50 111.50Q164 92 198.50 80Q233 68 284 68Q363 68 413 102.50Q463 137 463 204Q463 252 434.50 275.50Q406 299 350 309L244 328Q164 342 119.50 383Q75 424 75 493Q75 537 93.50 578.50Q112 620 147.50 651Q183 682 234 701Q285 720 349 720Q411 720 457 703.50Q503 687 533 660.50Q563 634 578.50 600Q594 566 596 531L501 531Q497 584 454.50 613Q412 642 338 642Q304 642 272.50 633Q241 624 218 606.50Q195 589 181 563Q167 537 167 503Q167 463 193.50 440.50Q220 418 275 409L388 389Q471 375 513.50 331Q556 287 556 215Q556 167 538.50 126Q521 85 487 54.50Q453 24 401.50 7Q350-10 283-10Q223-10 172.50 4.50Q122 19 86 46.50Q50 74 29.50 115Q9 156 9 208Z"  horiz-adv-x="585" vert-adv-y="1000"  />

      
      <glyph glyph-name="uni015A" unicode="&#x015A;" d="M446 939L570 939L412 791L314 791L446 939M9 208L105 208Q105 182 114 156.50Q123 131 143.50 111.50Q164 92 198.50 80Q233 68 284 68Q363 68 413 102.50Q463 137 463 204Q463 252 434.50 275.50Q406 299 350 309L244 328Q164 342 119.50 383Q75 424 75 493Q75 537 93.50 578.50Q112 620 147.50 651Q183 682 234 701Q285 720 349 720Q411 720 457 703.50Q503 687 533 660.50Q563 634 578.50 600Q594 566 596 531L501 531Q497 584 454.50 613Q412 642 338 642Q304 642 272.50 633Q241 624 218 606.50Q195 589 181 563Q167 537 167 503Q167 463 193.50 440.50Q220 418 275 409L388 389Q471 375 513.50 331Q556 287 556 215Q556 167 538.50 126Q521 85 487 54.50Q453 24 401.50 7Q350-10 283-10Q223-10 172.50 4.50Q122 19 86 46.50Q50 74 29.50 115Q9 156 9 208Z"  horiz-adv-x="585" vert-adv-y="1000"  />

      
      <glyph glyph-name="uni0160" unicode="&#x0160;" d="M228 940L314 940L372 844L462 940L557 940L416 791L316 791L228 940M9 208L105 208Q105 182 114 156.50Q123 131 143.50 111.50Q164 92 198.50 80Q233 68 284 68Q363 68 413 102.50Q463 137 463 204Q463 252 434.50 275.50Q406 299 350 309L244 328Q164 342 119.50 383Q75 424 75 493Q75 537 93.50 578.50Q112 620 147.50 651Q183 682 234 701Q285 720 349 720Q411 720 457 703.50Q503 687 533 660.50Q563 634 578.50 600Q594 566 596 531L501 531Q497 584 454.50 613Q412 642 338 642Q304 642 272.50 633Q241 624 218 606.50Q195 589 181 563Q167 537 167 503Q167 463 193.50 440.50Q220 418 275 409L388 389Q471 375 513.50 331Q556 287 556 215Q556 167 538.50 126Q521 85 487 54.50Q453 24 401.50 7Q350-10 283-10Q223-10 172.50 4.50Q122 19 86 46.50Q50 74 29.50 115Q9 156 9 208Z"  horiz-adv-x="585" vert-adv-y="1000"  />

      
      <glyph glyph-name="uni015E" unicode="&#x015E;" d="M129-149L194-149Q196-160 207.50-169.50Q219-179 244-179Q267-179 280-167.50Q293-156 293-139Q293-121 280.50-111.50Q268-102 249-102Q237-102 228-106Q219-110 212-114L176-90L237-8Q136 2 72.50 58Q9 114 9 208L105 208Q105 182 114 156.50Q123 131 143.50 111.50Q164 92 198.50 80Q233 68 284 68Q363 68 413 102.50Q463 137 463 204Q463 252 434.50 275.50Q406 299 350 309L244 328Q164 342 119.50 383Q75 424 75 493Q75 537 93.50 578.50Q112 620 147.50 651Q183 682 234 701Q285 720 349 720Q411 720 457 703.50Q503 687 533 660.50Q563 634 578.50 600Q594 566 596 531L501 531Q497 584 454.50 613Q412 642 338 642Q304 642 272.50 633Q241 624 218 606.50Q195 589 181 563Q167 537 167 503Q167 463 193.50 440.50Q220 418 275 409L388 389Q471 375 513.50 331Q556 287 556 215Q556 168 539.50 127.50Q523 87 490 57Q457 27 408 9Q359-9 295-10L264-52Q267-51 269-51Q271-51 272-51Q309-51 332-73Q355-95 355-136Q355-173 325.50-203Q296-233 243-233Q183-233 156-205.50Q129-178 129-149Z"  horiz-adv-x="585" vert-adv-y="1000"  />

      
      <glyph glyph-name="uni018F" unicode="&#x018F;" d="M46 304Q46 325 48.50 346.50Q51 368 56 393L590 393Q591 401 591.50 408Q592 415 592 421Q592 517 540.50 578.50Q489 640 400 640Q322 640 268.50 603Q215 566 186 503L90 503Q105 545 133.50 584Q162 623 201 653Q240 683 291 701Q342 719 402 719Q474 719 527 694.50Q580 670 614.50 629Q649 588 666 534Q683 480 683 422Q683 314 653.50 232.50Q624 151 575.50 97.50Q527 44 464 17Q401-10 333-10Q265-10 211 12.50Q157 35 120.50 76Q84 117 65 175Q46 233 46 304M578 307Q579 309 579 311.50Q579 314 579 316L139 316Q135 266 145 221Q155 176 179.50 142.50Q204 109 243 89.50Q282 70 336 70Q383 70 424.50 88Q466 106 498 137.50Q530 169 551 213Q572 257 578 307Z"  horiz-adv-x="700" vert-adv-y="1000"  />

      
      <glyph glyph-name="uni015C" unicode="&#x015C;" d="M344 946L444 946L532 797L446 797L388 891L298 797L203 797L344 946M9 208L105 208Q105 182 114 156.50Q123 131 143.50 111.50Q164 92 198.50 80Q233 68 284 68Q363 68 413 102.50Q463 137 463 204Q463 252 434.50 275.50Q406 299 350 309L244 328Q164 342 119.50 383Q75 424 75 493Q75 537 93.50 578.50Q112 620 147.50 651Q183 682 234 701Q285 720 349 720Q411 720 457 703.50Q503 687 533 660.50Q563 634 578.50 600Q594 566 596 531L501 531Q497 584 454.50 613Q412 642 338 642Q304 642 272.50 633Q241 624 218 606.50Q195 589 181 563Q167 537 167 503Q167 463 193.50 440.50Q220 418 275 409L388 389Q471 375 513.50 331Q556 287 556 215Q556 167 538.50 126Q521 85 487 54.50Q453 24 401.50 7Q350-10 283-10Q223-10 172.50 4.50Q122 19 86 46.50Q50 74 29.50 115Q9 156 9 208Z"  horiz-adv-x="585" vert-adv-y="1000"  />

      
      <glyph glyph-name="uni54" unicode="&#x54;" d="M294 0L199 0L310 632L77 632L91 710L652 710L638 632L405 632L294 0Z"  horiz-adv-x="585" vert-adv-y="1000"  />

      
      <glyph glyph-name="uni0166" unicode="&#x0166;" d="M294 0L199 0L255 318L102 318L115 392L268 392L310 632L77 632L91 710L652 710L638 632L405 632L363 392L516 392L503 318L350 318L294 0Z"  horiz-adv-x="584" vert-adv-y="1000"  />

      
      <glyph glyph-name="uni0164" unicode="&#x0164;" d="M246 940L332 940L390 844L480 940L575 940L434 791L334 791L246 940M294 0L199 0L310 632L77 632L91 710L652 710L638 632L405 632L294 0Z"  horiz-adv-x="585" vert-adv-y="1000"  />

      
      <glyph glyph-name="uni1E6C" unicode="&#x1E6C;" d="M294 0L199 0L310 632L77 632L91 710L652 710L638 632L405 632L294 0M160-134Q160-106 178.50-88Q197-70 225-70Q252-70 271-88Q290-106 290-134Q290-162 271-180.50Q252-199 225-199Q197-199 178.50-180.50Q160-162 160-134Z"  horiz-adv-x="585" vert-adv-y="1000"  />

      
      <glyph glyph-name="unide" unicode="&#xde;" d="M141 710L235 710L212 581L392 581Q491 581 548 531Q605 481 605 393Q605 286 531 219Q457 152 319 152L137 152L110 0L16 0L141 710M373 505L199 505L150 229L324 229Q411 229 460 268.50Q509 308 509 391Q509 450 473 477.50Q437 505 373 505Z"  horiz-adv-x="587" vert-adv-y="1000"  />

      
      <glyph glyph-name="uni55" unicode="&#x55;" d="M60 269L138 710L232 710L155 270Q153 257 151.50 243.50Q150 230 150 219Q150 147 192.50 108.50Q235 70 319 70Q400 70 447 116Q494 162 510 249L592 710L686 710L604 245Q583 127 509.50 58.50Q436-10 313-10Q193-10 124 50Q55 110 55 213Q55 226 56.50 240.50Q58 255 60 269Z"  horiz-adv-x="665" vert-adv-y="1000"  />

      
      <glyph glyph-name="unida" unicode="&#xda;" d="M492 939L616 939L458 791L360 791L492 939M60 269L138 710L232 710L155 270Q153 257 151.50 243.50Q150 230 150 219Q150 147 192.50 108.50Q235 70 319 70Q400 70 447 116Q494 162 510 249L592 710L686 710L604 245Q583 127 509.50 58.50Q436-10 313-10Q193-10 124 50Q55 110 55 213Q55 226 56.50 240.50Q58 255 60 269Z"  horiz-adv-x="665" vert-adv-y="1000"  />

      
      <glyph glyph-name="uni016C" unicode="&#x016C;" d="M290 932L367 932Q364 893 379.50 873.50Q395 854 429 854Q453 854 475 873Q497 892 499 932L578 932Q573 863 528.50 825Q484 787 425 787Q357 787 321.50 826.50Q286 866 290 932M60 269L138 710L232 710L155 270Q153 257 151.50 243.50Q150 230 150 219Q150 147 192.50 108.50Q235 70 319 70Q400 70 447 116Q494 162 510 249L592 710L686 710L604 245Q583 127 509.50 58.50Q436-10 313-10Q193-10 124 50Q55 110 55 213Q55 226 56.50 240.50Q58 255 60 269Z"  horiz-adv-x="665" vert-adv-y="1000"  />

      
      <glyph glyph-name="unidb" unicode="&#xdb;" d="M390 946L490 946L578 797L492 797L434 891L344 797L249 797L390 946M60 269L138 710L232 710L155 270Q153 257 151.50 243.50Q150 230 150 219Q150 147 192.50 108.50Q235 70 319 70Q400 70 447 116Q494 162 510 249L592 710L686 710L604 245Q583 127 509.50 58.50Q436-10 313-10Q193-10 124 50Q55 110 55 213Q55 226 56.50 240.50Q58 255 60 269Z"  horiz-adv-x="665" vert-adv-y="1000"  />

      
      <glyph glyph-name="unidc" unicode="&#xdc;" d="M271 850Q271 875 288.50 892.50Q306 910 331 910Q356 910 373.50 892.50Q391 875 391 850Q391 825 373.50 807.50Q356 790 331 790Q306 790 288.50 807.50Q271 825 271 850M457 850Q457 875 474.50 892.50Q492 910 517 910Q542 910 559.50 892.50Q577 875 577 850Q577 825 559.50 807.50Q542 790 517 790Q492 790 474.50 807.50Q457 825 457 850M60 269L138 710L232 710L155 270Q153 257 151.50 243.50Q150 230 150 219Q150 147 192.50 108.50Q235 70 319 70Q400 70 447 116Q494 162 510 249L592 710L686 710L604 245Q583 127 509.50 58.50Q436-10 313-10Q193-10 124 50Q55 110 55 213Q55 226 56.50 240.50Q58 255 60 269Z"  horiz-adv-x="665" vert-adv-y="1000"  />

      
      <glyph glyph-name="uni1EE4" unicode="&#x1EE4;" d="M60 269L138 710L232 710L155 270Q153 257 151.50 243.50Q150 230 150 219Q150 147 192.50 108.50Q235 70 319 70Q400 70 447 116Q494 162 510 249L592 710L686 710L604 245Q583 127 509.50 58.50Q436-10 313-10Q193-10 124 50Q55 110 55 213Q55 226 56.50 240.50Q58 255 60 269M208-134Q208-106 226.50-88Q245-70 273-70Q300-70 319-88Q338-106 338-134Q338-162 319-180.50Q300-199 273-199Q245-199 226.50-180.50Q208-162 208-134Z"  horiz-adv-x="665" vert-adv-y="1000"  />

      
      <glyph glyph-name="unid9" unicode="&#xd9;" d="M271 939L382 939L463 791L376 791L271 939M60 269L138 710L232 710L155 270Q153 257 151.50 243.50Q150 230 150 219Q150 147 192.50 108.50Q235 70 319 70Q400 70 447 116Q494 162 510 249L592 710L686 710L604 245Q583 127 509.50 58.50Q436-10 313-10Q193-10 124 50Q55 110 55 213Q55 226 56.50 240.50Q58 255 60 269Z"  horiz-adv-x="665" vert-adv-y="1000"  />

      
      <glyph glyph-name="uni0170" unicode="&#x0170;" d="M374 934L486 934L371 795L281 795L374 934M541 934L653 934L538 795L448 795L541 934M60 269L138 710L232 710L155 270Q153 257 151.50 243.50Q150 230 150 219Q150 147 192.50 108.50Q235 70 319 70Q400 70 447 116Q494 162 510 249L592 710L686 710L604 245Q583 127 509.50 58.50Q436-10 313-10Q193-10 124 50Q55 110 55 213Q55 226 56.50 240.50Q58 255 60 269Z"  horiz-adv-x="665" vert-adv-y="1000"  />

      
      <glyph glyph-name="uni016A" unicode="&#x016A;" d="M295 885L566 885L553 812L282 812L295 885M60 269L138 710L232 710L155 270Q153 257 151.50 243.50Q150 230 150 219Q150 147 192.50 108.50Q235 70 319 70Q400 70 447 116Q494 162 510 249L592 710L686 710L604 245Q583 127 509.50 58.50Q436-10 313-10Q193-10 124 50Q55 110 55 213Q55 226 56.50 240.50Q58 255 60 269Z"  horiz-adv-x="665" vert-adv-y="1000"  />

      
      <glyph glyph-name="uni0172" unicode="&#x0172;" d="M345-199Q334-202 320.50-204Q307-206 292-206Q243-206 213.50-182.50Q184-159 184-120Q184-92 206-60.50Q228-29 274-9L274-5Q221-2 179.50 15.50Q138 33 110.50 62Q83 91 69 130Q55 169 55 213Q55 226 56.50 240.50Q58 255 60 269L138 710L232 710L155 270Q153 257 151.50 243.50Q150 230 150 219Q150 147 192.50 108.50Q235 70 319 70Q400 70 447 116Q494 162 510 249L592 710L686 710L604 245Q585 141 531.50 80.50Q478 20 387-2Q327-16 296-47.50Q265-79 265-101Q265-117 276.50-129Q288-141 317-141Q327-141 338-138.50Q349-136 356-132L345-199Z"  horiz-adv-x="665" vert-adv-y="1000"  />

      
      <glyph glyph-name="uni016E" unicode="&#x016E;" d="M314 875Q314 924 346.50 954Q379 984 428 984Q477 984 509.50 954Q542 924 542 875Q542 828 509.50 796.50Q477 765 428 765Q379 765 346.50 796.50Q314 828 314 875M481 875Q481 899 465.50 914.50Q450 930 428 930Q406 930 390.50 914.50Q375 899 375 875Q375 853 390.50 836.50Q406 820 428 820Q450 820 465.50 836.50Q481 853 481 875M60 269L138 710L232 710L155 270Q153 257 151.50 243.50Q150 230 150 219Q150 147 192.50 108.50Q235 70 319 70Q400 70 447 116Q494 162 510 249L592 710L686 710L604 245Q583 127 509.50 58.50Q436-10 313-10Q193-10 124 50Q55 110 55 213Q55 226 56.50 240.50Q58 255 60 269Z"  horiz-adv-x="665" vert-adv-y="1000"  />

      
      <glyph glyph-name="uni0168" unicode="&#x0168;" d="M370 909Q388 909 403.50 903Q419 897 433 887Q446 877 457 871Q468 865 478 865Q498 865 505.50 884Q513 903 514 915L583 915Q579 861 552.50 828.50Q526 796 483 796Q466 796 450 800.50Q434 805 417 817Q401 828 391.50 833.50Q382 839 372 839Q353 839 345 821Q337 803 335 790L267 790Q270 844 300 876.50Q330 909 370 909M60 269L138 710L232 710L155 270Q153 257 151.50 243.50Q150 230 150 219Q150 147 192.50 108.50Q235 70 319 70Q400 70 447 116Q494 162 510 249L592 710L686 710L604 245Q583 127 509.50 58.50Q436-10 313-10Q193-10 124 50Q55 110 55 213Q55 226 56.50 240.50Q58 255 60 269Z"  horiz-adv-x="665" vert-adv-y="1000"  />

      
      <glyph glyph-name="uni56" unicode="&#x56;" d="M83 710L172 710L272 104L584 710L679 710L313 0L200 0L83 710Z"  horiz-adv-x="611" vert-adv-y="1000"  />

      
      <glyph glyph-name="uni57" unicode="&#x57;" d="M83 710L174 710L217 107L487 710L580 710L638 111L893 710L987 710L680 0L568 0L511 572L256 0L138-1L83 710Z"  horiz-adv-x="910" vert-adv-y="1000"  />

      
      <glyph glyph-name="uni1E82" unicode="&#x1E82;" d="M628 939L752 939L594 791L496 791L628 939M83 710L174 710L217 107L487 710L580 710L638 111L893 710L987 710L680 0L568 0L511 572L256 0L138-1L83 710Z"  horiz-adv-x="910" vert-adv-y="1000"  />

      
      <glyph glyph-name="uni0174" unicode="&#x0174;" d="M527 946L627 946L715 797L629 797L571 891L481 797L386 797L527 946M83 710L174 710L217 107L487 710L580 710L638 111L893 710L987 710L680 0L568 0L511 572L256 0L138-1L83 710Z"  horiz-adv-x="910" vert-adv-y="1000"  />

      
      <glyph glyph-name="uni1E84" unicode="&#x1E84;" d="M407 850Q407 875 424.50 892.50Q442 910 467 910Q492 910 509.50 892.50Q527 875 527 850Q527 825 509.50 807.50Q492 790 467 790Q442 790 424.50 807.50Q407 825 407 850M593 850Q593 875 610.50 892.50Q628 910 653 910Q678 910 695.50 892.50Q713 875 713 850Q713 825 695.50 807.50Q678 790 653 790Q628 790 610.50 807.50Q593 825 593 850M83 710L174 710L217 107L487 710L580 710L638 111L893 710L987 710L680 0L568 0L511 572L256 0L138-1L83 710Z"  horiz-adv-x="910" vert-adv-y="1000"  />

      
      <glyph glyph-name="uni1E80" unicode="&#x1E80;" d="M409 939L520 939L601 791L514 791L409 939M83 710L174 710L217 107L487 710L580 710L638 111L893 710L987 710L680 0L568 0L511 572L256 0L138-1L83 710Z"  horiz-adv-x="910" vert-adv-y="1000"  />

      
      <glyph glyph-name="uni58" unicode="&#x58;" d="M481 0L330 296L77 0L-35 0L285 369L105 710L208 710L352 428L586 710L697 710L399 356L584 0L481 0Z"  horiz-adv-x="639" vert-adv-y="1000"  />

      
      <glyph glyph-name="uni59" unicode="&#x59;" d="M250 281L75 710L170 710L308 368L566 710L668 710L344 281L294 0L200 0L250 281Z"  horiz-adv-x="587" vert-adv-y="1000"  />

      
      <glyph glyph-name="unidd" unicode="&#xdd;" d="M453 939L577 939L419 791L321 791L453 939M250 281L75 710L170 710L308 368L566 710L668 710L344 281L294 0L200 0L250 281Z"  horiz-adv-x="587" vert-adv-y="1000"  />

      
      <glyph glyph-name="uni0176" unicode="&#x0176;" d="M351 946L451 946L539 797L453 797L395 891L305 797L210 797L351 946M250 281L75 710L170 710L308 368L566 710L668 710L344 281L294 0L200 0L250 281Z"  horiz-adv-x="587" vert-adv-y="1000"  />

      
      <glyph glyph-name="uni0178" unicode="&#x0178;" d="M233 850Q233 875 250.50 892.50Q268 910 293 910Q318 910 335.50 892.50Q353 875 353 850Q353 825 335.50 807.50Q318 790 293 790Q268 790 250.50 807.50Q233 825 233 850M419 850Q419 875 436.50 892.50Q454 910 479 910Q504 910 521.50 892.50Q539 875 539 850Q539 825 521.50 807.50Q504 790 479 790Q454 790 436.50 807.50Q419 825 419 850M250 281L75 710L170 710L308 368L566 710L668 710L344 281L294 0L200 0L250 281Z"  horiz-adv-x="587" vert-adv-y="1000"  />

      
      <glyph glyph-name="uni1EF2" unicode="&#x1EF2;" d="M234 939L345 939L426 791L339 791L234 939M250 281L75 710L170 710L308 368L566 710L668 710L344 281L294 0L200 0L250 281Z"  horiz-adv-x="587" vert-adv-y="1000"  />

      
      <glyph glyph-name="uni0232" unicode="&#x0232;" d="M257 885L528 885L515 812L244 812L257 885M250 281L75 710L170 710L308 368L566 710L668 710L344 281L294 0L200 0L250 281Z"  horiz-adv-x="587" vert-adv-y="1000"  />

      
      <glyph glyph-name="uni1EF8" unicode="&#x1EF8;" d="M331 909Q349 909 364.50 903Q380 897 394 887Q407 877 418 871Q429 865 439 865Q459 865 466.50 884Q474 903 475 915L544 915Q540 861 513.50 828.50Q487 796 444 796Q427 796 411 800.50Q395 805 378 817Q362 828 352.50 833.50Q343 839 333 839Q314 839 306 821Q298 803 296 790L228 790Q231 844 261 876.50Q291 909 331 909M250 281L75 710L170 710L308 368L566 710L668 710L344 281L294 0L200 0L250 281Z"  horiz-adv-x="587" vert-adv-y="1000"  />

      
      <glyph glyph-name="uni5a" unicode="&#x5a;" d="M22 77L510 632L103 632L117 710L648 710L639 647L138 78L547 78L533 0L9 0L22 77Z"  horiz-adv-x="624" vert-adv-y="1000"  />

      
      <glyph glyph-name="uni0179" unicode="&#x0179;" d="M453 939L577 939L419 791L321 791L453 939M22 77L510 632L103 632L117 710L648 710L639 647L138 78L547 78L533 0L9 0L22 77Z"  horiz-adv-x="624" vert-adv-y="1000"  />

      
      <glyph glyph-name="uni017D" unicode="&#x017D;" d="M234 940L320 940L378 844L468 940L563 940L422 791L322 791L234 940M22 77L510 632L103 632L117 710L648 710L639 647L138 78L547 78L533 0L9 0L22 77Z"  horiz-adv-x="624" vert-adv-y="1000"  />

      
      <glyph glyph-name="uni017B" unicode="&#x017B;" d="M383 919Q411 919 430 901Q449 883 449 855Q449 827 430 808.50Q411 790 383 790Q356 790 337 808.50Q318 827 318 855Q318 883 337 901Q356 919 383 919M22 77L510 632L103 632L117 710L648 710L639 647L138 78L547 78L533 0L9 0L22 77Z"  horiz-adv-x="624" vert-adv-y="1000"  />

      
      <glyph glyph-name="uni61" unicode="&#x61;" d="M7 123Q7 200 57 243Q107 286 194 294L307 305Q346 309 360 330.50Q374 352 374 380Q374 414 350.50 437Q327 460 273 460Q214 460 186 432Q158 404 151 364L58 364Q62 395 78.50 424.50Q95 454 123 477.50Q151 501 190.50 515.50Q230 530 280 530Q369 530 415.50 488Q462 446 462 376Q462 366 461 356Q460 346 458 335L415 89Q411 70 409.50 50.50Q408 31 408 15L408 0L315 0Q316 16 317.50 33Q319 50 323 71L320 71Q295 37 256 13.50Q217-10 163-10Q92-10 49.50 27.50Q7 65 7 123M344 196L358 273Q342 263 321.50 255Q301 247 277 244L212 235Q149 226 123 202Q97 178 97 136Q97 98 121.50 78Q146 58 189 58Q241 58 286.50 95Q332 132 344 196Z"  horiz-adv-x="493" vert-adv-y="1000"  />

      
      <glyph glyph-name="unie1" unicode="&#xe1;" d="M359 760L474 760L335 607L244 607L359 760M7 123Q7 200 57 243Q107 286 194 294L307 305Q346 309 360 330.50Q374 352 374 380Q374 414 350.50 437Q327 460 273 460Q214 460 186 432Q158 404 151 364L58 364Q62 395 78.50 424.50Q95 454 123 477.50Q151 501 190.50 515.50Q230 530 280 530Q369 530 415.50 488Q462 446 462 376Q462 366 461 356Q460 346 458 335L415 89Q411 70 409.50 50.50Q408 31 408 15L408 0L315 0Q316 16 317.50 33Q319 50 323 71L320 71Q295 37 256 13.50Q217-10 163-10Q92-10 49.50 27.50Q7 65 7 123M344 196L358 273Q342 263 321.50 255Q301 247 277 244L212 235Q149 226 123 202Q97 178 97 136Q97 98 121.50 78Q146 58 189 58Q241 58 286.50 95Q332 132 344 196Z"  horiz-adv-x="493" vert-adv-y="1000"  />

      
      <glyph glyph-name="uni0103" unicode="&#x0103;" d="M184 757L258 757Q255 716 270 694.50Q285 673 318 673Q342 673 363.50 693.50Q385 714 387 757L463 757Q458 687 415 647.50Q372 608 315 608Q249 608 214.50 649.50Q180 691 184 757M7 123Q7 200 57 243Q107 286 194 294L307 305Q346 309 360 330.50Q374 352 374 380Q374 414 350.50 437Q327 460 273 460Q214 460 186 432Q158 404 151 364L58 364Q62 395 78.50 424.50Q95 454 123 477.50Q151 501 190.50 515.50Q230 530 280 530Q369 530 415.50 488Q462 446 462 376Q462 366 461 356Q460 346 458 335L415 89Q411 70 409.50 50.50Q408 31 408 15L408 0L315 0Q316 16 317.50 33Q319 50 323 71L320 71Q295 37 256 13.50Q217-10 163-10Q92-10 49.50 27.50Q7 65 7 123M344 196L358 273Q342 263 321.50 255Q301 247 277 244L212 235Q149 226 123 202Q97 178 97 136Q97 98 121.50 78Q146 58 189 58Q241 58 286.50 95Q332 132 344 196Z"  horiz-adv-x="493" vert-adv-y="1000"  />

      
      <glyph glyph-name="unie2" unicode="&#xe2;" d="M277 761L373 761L445 608L363 608L319 705L241 608L152 608L277 761M7 123Q7 200 57 243Q107 286 194 294L307 305Q346 309 360 330.50Q374 352 374 380Q374 414 350.50 437Q327 460 273 460Q214 460 186 432Q158 404 151 364L58 364Q62 395 78.50 424.50Q95 454 123 477.50Q151 501 190.50 515.50Q230 530 280 530Q369 530 415.50 488Q462 446 462 376Q462 366 461 356Q460 346 458 335L415 89Q411 70 409.50 50.50Q408 31 408 15L408 0L315 0Q316 16 317.50 33Q319 50 323 71L320 71Q295 37 256 13.50Q217-10 163-10Q92-10 49.50 27.50Q7 65 7 123M344 196L358 273Q342 263 321.50 255Q301 247 277 244L212 235Q149 226 123 202Q97 178 97 136Q97 98 121.50 78Q146 58 189 58Q241 58 286.50 95Q332 132 344 196Z"  horiz-adv-x="493" vert-adv-y="1000"  />

      
      <glyph glyph-name="unib4" unicode="&#xb4;" d="M335 760L450 760L311 607L220 607L335 760Z"  horiz-adv-x="500" vert-adv-y="1000"  />

      
      <glyph glyph-name="unie4" unicode="&#xe4;" d="M161 670Q161 695 178 712Q195 729 220 729Q245 729 262 712Q279 695 279 670Q279 645 262 627.50Q245 610 220 610Q195 610 178 627.50Q161 645 161 670M339 670Q339 695 356 712Q373 729 398 729Q423 729 440 712Q457 695 457 670Q457 645 440 627.50Q423 610 398 610Q373 610 356 627.50Q339 645 339 670M7 123Q7 200 57 243Q107 286 194 294L307 305Q346 309 360 330.50Q374 352 374 380Q374 414 350.50 437Q327 460 273 460Q214 460 186 432Q158 404 151 364L58 364Q62 395 78.50 424.50Q95 454 123 477.50Q151 501 190.50 515.50Q230 530 280 530Q369 530 415.50 488Q462 446 462 376Q462 366 461 356Q460 346 458 335L415 89Q411 70 409.50 50.50Q408 31 408 15L408 0L315 0Q316 16 317.50 33Q319 50 323 71L320 71Q295 37 256 13.50Q217-10 163-10Q92-10 49.50 27.50Q7 65 7 123M344 196L358 273Q342 263 321.50 255Q301 247 277 244L212 235Q149 226 123 202Q97 178 97 136Q97 98 121.50 78Q146 58 189 58Q241 58 286.50 95Q332 132 344 196Z"  horiz-adv-x="493" vert-adv-y="1000"  />

      
      <glyph glyph-name="uni1EA1" unicode="&#x1EA1;" d="M7 123Q7 200 57 243Q107 286 194 294L307 305Q346 309 360 330.50Q374 352 374 380Q374 414 350.50 437Q327 460 273 460Q214 460 186 432Q158 404 151 364L58 364Q62 395 78.50 424.50Q95 454 123 477.50Q151 501 190.50 515.50Q230 530 280 530Q369 530 415.50 488Q462 446 462 376Q462 366 461 356Q460 346 458 335L415 89Q411 70 409.50 50.50Q408 31 408 15L408 0L315 0Q316 16 317.50 33Q319 50 323 71L320 71Q295 37 256 13.50Q217-10 163-10Q92-10 49.50 27.50Q7 65 7 123M344 196L358 273Q342 263 321.50 255Q301 247 277 244L212 235Q149 226 123 202Q97 178 97 136Q97 98 121.50 78Q146 58 189 58Q241 58 286.50 95Q332 132 344 196M190-70Q216-70 234-87.50Q252-105 252-132Q252-158 234-176Q216-194 190-194Q164-194 145.50-176Q127-158 127-132Q127-105 145.50-87.50Q164-70 190-70Z"  horiz-adv-x="493" vert-adv-y="1000"  />

      
      <glyph glyph-name="unie6" unicode="&#xe6;" d="M7 123Q7 200 57 243Q107 286 194 294L307 305Q346 309 360 330.50Q374 352 374 380Q374 414 350.50 437Q327 460 273 460Q214 460 186 432Q158 404 151 364L58 364Q62 395 78.50 424.50Q95 454 123 477.50Q151 501 190.50 515.50Q230 530 280 530Q340 530 381 508.50Q422 487 442 447Q476 486 522.50 508Q569 530 623 530Q719 530 770.50 472.50Q822 415 822 321Q822 303 819.50 283.50Q817 264 813 243L442 243Q440 227 439 217Q438 207 438 198Q438 129 473.50 95.50Q509 62 572 62Q618 62 654.50 85.50Q691 109 707 149L794 149Q783 117 762 88Q741 59 712 37.50Q683 16 645.50 3Q608-10 565-10Q499-10 449.50 17Q400 44 375 94L370 94Q339 47 290.50 18.50Q242-10 173-10Q95-10 51 27.50Q7 65 7 123M616 458Q557 458 513.50 419Q470 380 454 309L738 309Q739 313 739 318Q739 323 739 327Q739 390 707.50 424Q676 458 616 458M344 196L358 273Q342 263 321.50 255Q301 247 277 244L212 235Q149 226 123 202Q97 178 97 136Q97 98 121.50 78Q146 58 189 58Q243 58 287.50 95Q332 132 344 196Z"  horiz-adv-x="836" vert-adv-y="1000"  />

      
      <glyph glyph-name="uni01FD" unicode="&#x01FD;" d="M537 760L652 760L513 607L422 607L537 760M7 123Q7 200 57 243Q107 286 194 294L307 305Q346 309 360 330.50Q374 352 374 380Q374 414 350.50 437Q327 460 273 460Q214 460 186 432Q158 404 151 364L58 364Q62 395 78.50 424.50Q95 454 123 477.50Q151 501 190.50 515.50Q230 530 280 530Q340 530 381 508.50Q422 487 442 447Q476 486 522.50 508Q569 530 623 530Q719 530 770.50 472.50Q822 415 822 321Q822 303 819.50 283.50Q817 264 813 243L442 243Q440 227 439 217Q438 207 438 198Q438 129 473.50 95.50Q509 62 572 62Q618 62 654.50 85.50Q691 109 707 149L794 149Q783 117 762 88Q741 59 712 37.50Q683 16 645.50 3Q608-10 565-10Q499-10 449.50 17Q400 44 375 94L370 94Q339 47 290.50 18.50Q242-10 173-10Q95-10 51 27.50Q7 65 7 123M616 458Q557 458 513.50 419Q470 380 454 309L738 309Q739 313 739 318Q739 323 739 327Q739 390 707.50 424Q676 458 616 458M344 196L358 273Q342 263 321.50 255Q301 247 277 244L212 235Q149 226 123 202Q97 178 97 136Q97 98 121.50 78Q146 58 189 58Q243 58 287.50 95Q332 132 344 196Z"  horiz-adv-x="836" vert-adv-y="1000"  />

      
      <glyph glyph-name="unie0" unicode="&#xe0;" d="M181 760L286 760L348 607L269 607L181 760M7 123Q7 200 57 243Q107 286 194 294L307 305Q346 309 360 330.50Q374 352 374 380Q374 414 350.50 437Q327 460 273 460Q214 460 186 432Q158 404 151 364L58 364Q62 395 78.50 424.50Q95 454 123 477.50Q151 501 190.50 515.50Q230 530 280 530Q369 530 415.50 488Q462 446 462 376Q462 366 461 356Q460 346 458 335L415 89Q411 70 409.50 50.50Q408 31 408 15L408 0L315 0Q316 16 317.50 33Q319 50 323 71L320 71Q295 37 256 13.50Q217-10 163-10Q92-10 49.50 27.50Q7 65 7 123M344 196L358 273Q342 263 321.50 255Q301 247 277 244L212 235Q149 226 123 202Q97 178 97 136Q97 98 121.50 78Q146 58 189 58Q241 58 286.50 95Q332 132 344 196Z"  horiz-adv-x="493" vert-adv-y="1000"  />

      
      <glyph glyph-name="uni0101" unicode="&#x0101;" d="M187 705L445 705L432 633L175 633L187 705M7 123Q7 200 57 243Q107 286 194 294L307 305Q346 309 360 330.50Q374 352 374 380Q374 414 350.50 437Q327 460 273 460Q214 460 186 432Q158 404 151 364L58 364Q62 395 78.50 424.50Q95 454 123 477.50Q151 501 190.50 515.50Q230 530 280 530Q369 530 415.50 488Q462 446 462 376Q462 366 461 356Q460 346 458 335L415 89Q411 70 409.50 50.50Q408 31 408 15L408 0L315 0Q316 16 317.50 33Q319 50 323 71L320 71Q295 37 256 13.50Q217-10 163-10Q92-10 49.50 27.50Q7 65 7 123M344 196L358 273Q342 263 321.50 255Q301 247 277 244L212 235Q149 226 123 202Q97 178 97 136Q97 98 121.50 78Q146 58 189 58Q241 58 286.50 95Q332 132 344 196Z"  horiz-adv-x="493" vert-adv-y="1000"  />

      
      <glyph glyph-name="uni26" unicode="&#x26;" d="M2 172Q2 256 53 317Q104 378 208 412Q188 441 174.50 471.50Q161 502 161 538Q161 572 173.50 605Q186 638 209.50 663.50Q233 689 268 704.50Q303 720 347 720Q415 720 461 680Q507 640 507 573Q507 512 468.50 467Q430 422 328 384L442 220Q444 224 447 227Q450 230 452 234L557 377L650 377L541 225Q528 206 514.50 188Q501 170 488 154L595 0L493 0L431 90Q381 41 327.50 15.50Q274-10 207-10Q163-10 125.50 2Q88 14 60.50 37.50Q33 61 17.50 95Q2 129 2 172M283 448L290 438Q371 467 398.50 496.50Q426 526 426 568Q426 605 403 628.50Q380 652 342 652Q295 652 269.50 621Q244 590 244 544Q244 519 253.50 497.50Q263 476 283 448M90 186Q90 129 126 97Q162 65 222 65Q271 65 310 87.50Q349 110 387 153L245 358Q166 329 128 286Q90 243 90 186Z"  horiz-adv-x="630" vert-adv-y="1000"  />

      
      <glyph glyph-name="uni0105" unicode="&#x0105;" d="M7 123Q7 200 57 243Q107 286 194 294L307 305Q346 309 360 330.50Q374 352 374 380Q374 414 350.50 437Q327 460 273 460Q214 460 186 432Q158 404 151 364L58 364Q62 395 78.50 424.50Q95 454 123 477.50Q151 501 190.50 515.50Q230 530 280 530Q369 530 415.50 488Q462 446 462 376Q462 366 461 356Q460 346 458 335L415 89Q411 70 409.50 50.50Q408 31 408 15L408 0Q350-30 323-54.50Q296-79 296-103Q296-119 307-131Q318-143 347-143Q357-143 368-141Q379-139 386-135L375-198Q365-201 352-203Q339-205 326-205Q278-205 249.50-181.50Q221-158 221-119Q221-94 241.50-61Q262-28 315-5L315 0Q316 16 317.50 33Q319 50 323 71L320 71Q295 37 256 13.50Q217-10 163-10Q92-10 49.50 27.50Q7 65 7 123M344 196L358 273Q342 263 321.50 255Q301 247 277 244L212 235Q149 226 123 202Q97 178 97 136Q97 98 121.50 78Q146 58 189 58Q241 58 286.50 95Q332 132 344 196Z"  horiz-adv-x="493" vert-adv-y="1000"  />

      
      <glyph glyph-name="uni2248" unicode="&#x2248;" d="M228 531Q263 531 290 521.50Q317 512 348 500Q372 491 394.50 482Q417 473 440 473Q481 473 501 495.50Q521 518 523 538L600 538Q595 502 578.50 475.50Q562 449 539.50 432.50Q517 416 490 408Q463 400 437 400Q400 400 373 410.50Q346 421 316 432Q292 441 269.50 450Q247 459 225 459Q183 459 164 436Q145 413 143 394L64 394Q70 430 86 456Q102 482 125 498.50Q148 515 175 523Q202 531 228 531M185 290Q220 290 247 280Q274 270 305 258Q329 249 351.50 240.50Q374 232 397 232Q438 232 458 254Q478 276 480 296L557 296Q552 260 535.50 234Q519 208 496.50 191.50Q474 175 447 167Q420 159 394 159Q357 159 330 169Q303 179 273 190Q249 200 226.50 208.50Q204 217 182 217Q140 217 121 194.50Q102 172 100 152L21 152Q27 188 43 214.50Q59 241 82 257.50Q105 274 132 282Q159 290 185 290Z"  horiz-adv-x="586" vert-adv-y="1000"  />

      
      <glyph glyph-name="unie5" unicode="&#xe5;" d="M202 692Q202 738 233.50 767Q265 796 311 796Q357 796 388 767Q419 738 419 692Q419 647 388 617.50Q357 588 311 588Q265 588 233.50 617.50Q202 647 202 692M362 692Q362 716 347 731Q332 746 311 746Q290 746 274.50 731Q259 716 259 692Q259 670 274.50 654Q290 638 311 638Q332 638 347 654Q362 670 362 692M7 123Q7 200 57 243Q107 286 194 294L307 305Q346 309 360 330.50Q374 352 374 380Q374 414 350.50 437Q327 460 273 460Q214 460 186 432Q158 404 151 364L58 364Q62 395 78.50 424.50Q95 454 123 477.50Q151 501 190.50 515.50Q230 530 280 530Q369 530 415.50 488Q462 446 462 376Q462 366 461 356Q460 346 458 335L415 89Q411 70 409.50 50.50Q408 31 408 15L408 0L315 0Q316 16 317.50 33Q319 50 323 71L320 71Q295 37 256 13.50Q217-10 163-10Q92-10 49.50 27.50Q7 65 7 123M344 196L358 273Q342 263 321.50 255Q301 247 277 244L212 235Q149 226 123 202Q97 178 97 136Q97 98 121.50 78Q146 58 189 58Q241 58 286.50 95Q332 132 344 196Z"  horiz-adv-x="493" vert-adv-y="1000"  />

      
      <glyph glyph-name="uni01FB" unicode="&#x01FB;" d="M402 979L517 979L378 826L287 826L402 979M205 674Q205 720 236.50 749Q268 778 314 778Q360 778 391 749Q422 720 422 674Q422 629 391 599.50Q360 570 314 570Q268 570 236.50 599.50Q205 629 205 674M365 674Q365 698 350 713Q335 728 314 728Q293 728 277.50 713Q262 698 262 674Q262 652 277.50 636Q293 620 314 620Q335 620 350 636Q365 652 365 674M7 123Q7 200 57 243Q107 286 194 294L307 305Q346 309 360 330.50Q374 352 374 380Q374 414 350.50 437Q327 460 273 460Q214 460 186 432Q158 404 151 364L58 364Q62 395 78.50 424.50Q95 454 123 477.50Q151 501 190.50 515.50Q230 530 280 530Q369 530 415.50 488Q462 446 462 376Q462 366 461 356Q460 346 458 335L415 89Q411 70 409.50 50.50Q408 31 408 15L408 0L315 0Q316 16 317.50 33Q319 50 323 71L320 71Q295 37 256 13.50Q217-10 163-10Q92-10 49.50 27.50Q7 65 7 123M344 196L358 273Q342 263 321.50 255Q301 247 277 244L212 235Q149 226 123 202Q97 178 97 136Q97 98 121.50 78Q146 58 189 58Q241 58 286.50 95Q332 132 344 196Z"  horiz-adv-x="493" vert-adv-y="1000"  />

      
      <glyph glyph-name="uni2193" unicode="&#x2193;" d="M33 315L33 428L287 174L287 682L372 682L372 173L627 428L627 315L330 18L33 315Z"  horiz-adv-x="634" vert-adv-y="1000"  />

      
      <glyph glyph-name="uni2190" unicode="&#x2190;" d="M666 321L171 321L428 64L314 64L18 360L314 656L428 656L171 399L666 399L666 321Z"  horiz-adv-x="674" vert-adv-y="1000"  />

      
      <glyph glyph-name="uni2192" unicode="&#x2192;" d="M689 360L393 64L279 64L536 321L41 321L41 399L536 399L279 656L393 656L689 360Z"  horiz-adv-x="673" vert-adv-y="1000"  />

      
      <glyph glyph-name="uni2191" unicode="&#x2191;" d="M626 395L626 282L372 536L372 28L287 28L287 537L32 282L32 395L329 692L626 395Z"  horiz-adv-x="634" vert-adv-y="1000"  />

      
      <glyph glyph-name="uni5e" unicode="&#x5e;" d="M266 710L337 710L451 383L370 383L291 627L126 383L40 383L266 710Z"  horiz-adv-x="451" vert-adv-y="1000"  />

      
      <glyph glyph-name="uni7e" unicode="&#x7e;" d="M174 394Q202 394 218.50 386Q235 378 254 365Q270 355 282 348.50Q294 342 306 342Q331 342 341.50 360.50Q352 379 355 404L430 404Q424 341 390.50 304Q357 267 309 267Q281 267 263.50 275Q246 283 227 295Q211 305 198.50 312Q186 319 175 319Q149 319 139.50 300Q130 281 127 257L53 257Q57 320 92.50 357Q128 394 174 394Z"  horiz-adv-x="456" vert-adv-y="1000"  />

      
      <glyph glyph-name="uni2a" unicode="&#x2a;" d="M69 466L212 521Q212 522 212.50 523Q213 524 213 525L88 584L135 652L241 561Q242 562 243 562.50Q244 563 245 564L253 710L334 710L291 564Q292 564 292.50 563.50Q293 563 294 562L422 647L454 577L311 521Q311 520 311 519Q311 518 310 517L435 458L387 390L282 481Q281 480 280 479.50Q279 479 278 478L269 332L188 332L231 478Q230 478 229.50 478.50Q229 479 228 480L103 396L69 466Z"  horiz-adv-x="435" vert-adv-y="1000"  />

      
      <glyph glyph-name="uni40" unicode="&#x40;" d="M19 209Q19 293 51 376Q83 459 143 524.50Q203 590 290 630.50Q377 671 487 671Q570 671 636.50 647.50Q703 624 749 581Q795 538 820 478Q845 418 845 346Q845 286 826 231Q807 176 773.50 135Q740 94 694 70Q648 46 595 46Q549 46 521.50 65Q494 84 487 112Q457 80 425 63.50Q393 47 357 47Q295 47 254 86.50Q213 126 213 207Q213 256 232 304Q251 352 283.50 388.50Q316 425 359 448Q402 471 449 471Q492 471 521.50 451Q551 431 559 397L579 454L664 454L566 178Q562 168 560.50 160Q559 152 559 145Q559 126 573 116.50Q587 107 613 107Q648 107 679.50 125.50Q711 144 734 176.50Q757 209 770.50 254.50Q784 300 784 353Q784 412 763.50 461.50Q743 511 705 546Q667 581 610.50 600.50Q554 620 483 620Q384 620 308.50 583Q233 546 182.50 487Q132 428 106 353.50Q80 279 80 204Q80 138 102 81.50Q124 25 164.50-15.50Q205-56 262-79Q319-102 389-102Q464-102 515-80.50Q566-59 615-28L701-28Q630-87 554.50-119.50Q479-152 385-152Q304-152 236-125.50Q168-99 120-52Q72-5 45.50 62Q19 129 19 209M528 314Q528 358 506.50 383Q485 408 446 408Q419 408 391.50 392Q364 376 342 348.50Q320 321 306.50 283.50Q293 246 293 204Q293 158 314.50 135Q336 112 375 112Q411 112 439.50 132.50Q468 153 487.50 183Q507 213 517.50 248.50Q528 284 528 314Z"  horiz-adv-x="862" vert-adv-y="1000"  />

      
      <glyph glyph-name="unie3" unicode="&#xe3;" d="M256 727Q274 727 289 721.50Q304 716 318 706Q331 698 341.50 691.50Q352 685 361 685Q380 685 387.50 704Q395 723 396 733L463 733Q459 681 433 650.50Q407 620 366 620Q350 620 334 624.50Q318 629 302 640Q286 650 276.50 655.50Q267 661 259 661Q240 661 232.50 644Q225 627 223 614L156 614Q160 666 188.50 696.50Q217 727 256 727M7 123Q7 200 57 243Q107 286 194 294L307 305Q346 309 360 330.50Q374 352 374 380Q374 414 350.50 437Q327 460 273 460Q214 460 186 432Q158 404 151 364L58 364Q62 395 78.50 424.50Q95 454 123 477.50Q151 501 190.50 515.50Q230 530 280 530Q369 530 415.50 488Q462 446 462 376Q462 366 461 356Q460 346 458 335L415 89Q411 70 409.50 50.50Q408 31 408 15L408 0L315 0Q316 16 317.50 33Q319 50 323 71L320 71Q295 37 256 13.50Q217-10 163-10Q92-10 49.50 27.50Q7 65 7 123M344 196L358 273Q342 263 321.50 255Q301 247 277 244L212 235Q149 226 123 202Q97 178 97 136Q97 98 121.50 78Q146 58 189 58Q241 58 286.50 95Q332 132 344 196Z"  horiz-adv-x="493" vert-adv-y="1000"  />

      
      <glyph glyph-name="uni62" unicode="&#x62;" d="M115 79L111 79L97 0L8 0L138 740L227 740L176 448L179 448Q204 487 248 508.50Q292 530 340 530Q418 530 468.50 475Q519 420 519 318Q519 243 499.50 182.50Q480 122 446.50 79Q413 36 367.50 13Q322-10 270-10Q211-10 170.50 16.50Q130 43 115 79M134 193Q134 130 170 96Q206 62 260 62Q322 62 363 104Q404 146 420 223Q427 259 430.50 285.50Q434 312 434 325Q434 394 399 426Q364 458 311 458Q254 458 210.50 416.50Q167 375 152 315L136 221Q135 214 134.50 207Q134 200 134 193Z"  horiz-adv-x="543" vert-adv-y="1000"  />

      
      <glyph glyph-name="uni5c" unicode="&#x5c;" d="M85 748L167 748L409-142L327-142L85 748Z"  horiz-adv-x="447" vert-adv-y="1000"  />

      
      <glyph glyph-name="uni0E3F" unicode="&#x0E3F;" d="M160 710L335 710L355 822L419 822L399 710Q481 707 526.50 662Q572 617 572 542Q572 470 534.50 426Q497 382 443 364Q489 350 515.50 312Q542 274 542 219Q542 167 522.50 126Q503 85 468.50 57Q434 29 385 14.50Q336 0 278 0L274 0L251-130L187-130L210 0L35 0L160 710M228 644L185 398L280 398L324 644L228 644M483 544Q483 592 459.50 618Q436 644 388 644L344 398Q416 402 449.50 441.50Q483 481 483 544M174 334L127 66L222 66L269 334L174 334M452 224Q452 276 422 305Q392 334 333 334L286 66Q382 68 417 113Q452 158 452 224Z"  horiz-adv-x="589" vert-adv-y="1000"  />

      
      <glyph glyph-name="uni7c" unicode="&#x7c;" d="M158 748L241 748L85-142L2-142L158 748Z"  horiz-adv-x="227" vert-adv-y="1000"  />

      
      <glyph glyph-name="uni7b" unicode="&#x7b;" d="M90 54L109 137Q112 150 113.50 163Q115 176 115 186Q115 223 95 244Q75 265 28 265L5 265L19 341L41 341Q103 341 131.50 376Q160 411 167 468L180 572Q188 637 215 677Q242 717 300 736Q322 743 350 745.50Q378 748 418 748L405 678Q331 678 304.50 652.50Q278 627 269 568L255 467Q245 395 215.50 356Q186 317 121 301Q165 290 184.50 265.50Q204 241 204 202Q204 188 202 171.50Q200 155 196 137L177 49Q174 34 172.50 21Q171 8 171-3Q171-37 193.50-53Q216-69 273-72L261-142Q165-141 123.50-106.50Q82-72 82-10Q82 5 84 21Q86 37 90 54Z"  horiz-adv-x="351" vert-adv-y="1000"  />

      
      <glyph glyph-name="uni7d" unicode="&#x7d;" d="M274 552L255 469Q253 456 251 443Q249 430 249 420Q249 383 269 362Q289 341 337 341L359 341L345 265L323 265Q261 265 233 230Q205 195 198 138L184 34Q176-31 149-71Q122-111 64-130Q42-137 14-139.50Q-14-142-53-142L-41-72Q34-71 60-46Q86-21 95 39L110 139Q120 211 149 250.50Q178 290 243 305Q199 316 180 340.50Q161 365 161 404Q161 418 163 434.50Q165 451 169 469L187 557Q189 571 191 584.50Q193 598 193 608Q193 642 171 659Q149 676 92 678L104 748Q200 747 241 712.50Q282 678 282 616Q282 601 280 585Q278 569 274 552Z"  horiz-adv-x="351" vert-adv-y="1000"  />

      
      <glyph glyph-name="uni5b" unicode="&#x5b;" d="M166 748L379 748L366 676L242 676L111-70L235-70L222-142L9-142L166 748Z"  horiz-adv-x="312" vert-adv-y="1000"  />

      
      <glyph glyph-name="uni5d" unicode="&#x5d;" d="M160-142L-53-142L-40-70L84-70L215 676L91 676L104 748L317 748L160-142Z"  horiz-adv-x="312" vert-adv-y="1000"  />

      
      <glyph glyph-name="uni02D8" unicode="&#x02D8;" d="M197 757L271 757Q268 716 283 694.50Q298 673 331 673Q355 673 376.50 693.50Q398 714 400 757L476 757Q471 687 428 647.50Q385 608 328 608Q262 608 227.50 649.50Q193 691 197 757Z"  horiz-adv-x="500" vert-adv-y="1000"  />

      
      <glyph glyph-name="uni2022" unicode="&#x2022;" d="M59 288Q59 341 96.50 378.50Q134 416 187 416Q239 416 276.50 378.50Q314 341 314 288Q314 235 276.50 197.50Q239 160 187 160Q134 160 96.50 197.50Q59 235 59 288Z"  horiz-adv-x="365" vert-adv-y="1000"  />

      
      <glyph glyph-name="uni63" unicode="&#x63;" d="M25 205Q25 273 44 332.50Q63 392 97.50 435.50Q132 479 182 504.50Q232 530 294 530Q383 530 432.50 478.50Q482 427 485 349L399 349Q395 398 367.50 428.50Q340 459 282 459Q221 459 180 416Q139 373 126 300Q118 254 115 232Q112 210 112 197Q112 130 145.50 95.50Q179 61 236 61Q292 61 324.50 91.50Q357 122 370 163L458 163Q448 129 429 98Q410 67 382 43Q354 19 316.50 4.50Q279-10 232-10Q135-10 80 46.50Q25 103 25 205Z"  horiz-adv-x="502" vert-adv-y="1000"  />

      
      <glyph glyph-name="uni0107" unicode="&#x0107;" d="M366 760L481 760L342 607L251 607L366 760M25 205Q25 273 44 332.50Q63 392 97.50 435.50Q132 479 182 504.50Q232 530 294 530Q383 530 432.50 478.50Q482 427 485 349L399 349Q395 398 367.50 428.50Q340 459 282 459Q221 459 180 416Q139 373 126 300Q118 254 115 232Q112 210 112 197Q112 130 145.50 95.50Q179 61 236 61Q292 61 324.50 91.50Q357 122 370 163L458 163Q448 129 429 98Q410 67 382 43Q354 19 316.50 4.50Q279-10 232-10Q135-10 80 46.50Q25 103 25 205Z"  horiz-adv-x="502" vert-adv-y="1000"  />

      
      <glyph glyph-name="uni02C7" unicode="&#x02C7;" d="M193 759L275 759L319 662L396 759L485 759L360 607L263 607L193 759Z"  horiz-adv-x="500" vert-adv-y="1000"  />

      
      <glyph glyph-name="uni010D" unicode="&#x010D;" d="M187 759L269 759L313 662L390 759L479 759L354 607L257 607L187 759M25 205Q25 273 44 332.50Q63 392 97.50 435.50Q132 479 182 504.50Q232 530 294 530Q383 530 432.50 478.50Q482 427 485 349L399 349Q395 398 367.50 428.50Q340 459 282 459Q221 459 180 416Q139 373 126 300Q118 254 115 232Q112 210 112 197Q112 130 145.50 95.50Q179 61 236 61Q292 61 324.50 91.50Q357 122 370 163L458 163Q448 129 429 98Q410 67 382 43Q354 19 316.50 4.50Q279-10 232-10Q135-10 80 46.50Q25 103 25 205Z"  horiz-adv-x="502" vert-adv-y="1000"  />

      
      <glyph glyph-name="unie7" unicode="&#xe7;" d="M88-148L149-148Q152-160 163-169.50Q174-179 196-179Q217-179 229-167.50Q241-156 241-139Q241-121 230.50-111.50Q220-102 203-102Q192-102 183-106Q174-110 169-114L134-90L191-7Q113 4 69 59Q25 114 25 205Q25 273 44 332.50Q63 392 97.50 435.50Q132 479 182 504.50Q232 530 294 530Q383 530 432.50 478.50Q482 427 485 349L399 349Q395 398 367.50 428.50Q340 459 282 459Q221 459 180 416Q139 373 126 300Q118 254 115 232Q112 210 112 197Q112 130 145.50 95.50Q179 61 236 61Q292 61 324.50 91.50Q357 122 370 163L458 163Q449 131 431 100.50Q413 70 386.50 46.50Q360 23 325 7.50Q290-8 246-10L216-53Q219-52 221-52Q223-52 224-52Q259-52 281.50-73.50Q304-95 304-136Q304-173 277-203Q250-233 197-233Q142-233 115-205.50Q88-178 88-148Z"  horiz-adv-x="502" vert-adv-y="1000"  />

      
      <glyph glyph-name="uni0109" unicode="&#x0109;" d="M284 761L380 761L452 608L370 608L326 705L248 608L159 608L284 761M25 205Q25 273 44 332.50Q63 392 97.50 435.50Q132 479 182 504.50Q232 530 294 530Q383 530 432.50 478.50Q482 427 485 349L399 349Q395 398 367.50 428.50Q340 459 282 459Q221 459 180 416Q139 373 126 300Q118 254 115 232Q112 210 112 197Q112 130 145.50 95.50Q179 61 236 61Q292 61 324.50 91.50Q357 122 370 163L458 163Q448 129 429 98Q410 67 382 43Q354 19 316.50 4.50Q279-10 232-10Q135-10 80 46.50Q25 103 25 205Z"  horiz-adv-x="502" vert-adv-y="1000"  />

      
      <glyph glyph-name="uni010B" unicode="&#x010B;" d="M317 734Q343 734 361 716.50Q379 699 379 672Q379 646 361 628Q343 610 317 610Q291 610 273 628Q255 646 255 672Q255 699 273 716.50Q291 734 317 734M25 205Q25 273 44 332.50Q63 392 97.50 435.50Q132 479 182 504.50Q232 530 294 530Q383 530 432.50 478.50Q482 427 485 349L399 349Q395 398 367.50 428.50Q340 459 282 459Q221 459 180 416Q139 373 126 300Q118 254 115 232Q112 210 112 197Q112 130 145.50 95.50Q179 61 236 61Q292 61 324.50 91.50Q357 122 370 163L458 163Q448 129 429 98Q410 67 382 43Q354 19 316.50 4.50Q279-10 232-10Q135-10 80 46.50Q25 103 25 205Z"  horiz-adv-x="502" vert-adv-y="1000"  />

      
      <glyph glyph-name="unib8" unicode="&#xb8;" d="M77-148L138-148Q141-160 152-169.50Q163-179 185-179Q206-179 218-167.50Q230-156 230-139Q230-121 219.50-111.50Q209-102 192-102Q181-102 172-106Q163-110 158-114L123-90L191 8L247 8L206-53Q208-52 210-52Q212-52 213-52Q248-52 270.50-73.50Q293-95 293-136Q293-173 266-203Q239-233 186-233Q131-233 104-205.50Q77-178 77-148Z"  horiz-adv-x="500" vert-adv-y="1000"  />

      
      <glyph glyph-name="unia2" unicode="&#xa2;" d="M43 204Q43 269 60.50 325.50Q78 382 110 424.50Q142 467 188.50 493.50Q235 520 292 524L310 625L374 625L356 522Q428 511 468 462.50Q508 414 511 345L427 345Q423 386 403 414Q383 442 343 452L274 60Q325 64 355.50 93.50Q386 123 399 163L485 163Q475 130 456 99Q437 68 409.50 44.50Q382 21 345 6Q308-9 262-10L242-120L178-120L198-5Q125 9 84 63Q43 117 43 204M128 196Q128 143 150 110Q172 77 211 65L280 454Q226 447 189.50 405.50Q153 364 141 298Q133 251 130.50 230Q128 209 128 196Z"  horiz-adv-x="532" vert-adv-y="1000"  />

      
      <glyph glyph-name="uni25CB" unicode="&#x25CB;" d="M86 355Q86 430 112.50 496.50Q139 563 186 612Q233 661 299 689.50Q365 718 443 718Q521 718 587 689.50Q653 661 700 612Q747 563 773.50 496.50Q800 430 800 355Q800 280 773.50 213.50Q747 147 700 98Q653 49 587 20.50Q521-8 443-8Q365-8 299 20.50Q233 49 186 98Q139 147 112.50 213.50Q86 280 86 355M715 355Q715 414 695 466.50Q675 519 639 558Q603 597 552.50 619.50Q502 642 443 642Q384 642 333.50 619.50Q283 597 247 558Q211 519 191 466.50Q171 414 171 355Q171 296 191 243.50Q211 191 247 152Q283 113 333.50 90.50Q384 68 443 68Q502 68 552.50 90.50Q603 113 639 152Q675 191 695 243.50Q715 296 715 355Z"  horiz-adv-x="850" vert-adv-y="1000"  />

      
      <glyph glyph-name="uni02C6" unicode="&#x02C6;" d="M291 761L387 761L459 608L377 608L333 705L255 608L166 608L291 761Z"  horiz-adv-x="500" vert-adv-y="1000"  />

      
      <glyph glyph-name="uni3a" unicode="&#x3a;" d="M142 392Q114 392 95 411.50Q76 431 76 459Q76 486 95 505.50Q114 525 142 525Q169 525 188.50 505.50Q208 486 208 459Q208 431 188.50 411.50Q169 392 142 392M72-10Q44-10 25 9.50Q6 29 6 57Q6 84 25 103.50Q44 123 72 123Q99 123 118.50 103.50Q138 84 138 57Q138 29 118.50 9.50Q99-10 72-10Z"  horiz-adv-x="210" vert-adv-y="1000"  />

      
      <glyph glyph-name="uni20A1" unicode="&#x20A1;" d="M55 285Q55 367 76.50 443.50Q98 520 138 579.50Q178 639 236 677Q294 715 366 719L398 805L463 805L430 717Q446 715 460.50 710.50Q475 706 488 701L527 805L591 805L541 670Q575 642 595.50 602Q616 562 623 514L540 514Q536 533 528.50 551.50Q521 570 509 586L315 64L316 64Q379 64 420 99.50Q461 135 480 183L570 183Q537 99 472 44.50Q407-10 312-10Q306-10 300-10Q294-10 288-9L255-97L190-97L227 2Q213 6 199 13Q185 20 173 27L126-97L61-97L123 70Q91 107 73 161.50Q55 216 55 285M202 105Q213 95 226 87Q239 79 254 74L461 628Q449 635 434.50 639.50Q420 644 404 646L202 105M140 277Q140 245 145 217Q150 189 160 167L337 642Q271 626 221.50 561.50Q172 497 155 404Q148 363 144 331.50Q140 300 140 277Z"  horiz-adv-x="613" vert-adv-y="1000"  />

      
      <glyph glyph-name="uni2c" unicode="&#x2c;" d="M-30-106Q19-102 52-69.50Q85-37 88 7Q81 3 74 1Q67-1 59-1Q34-1 20 14.50Q6 30 6 54Q6 80 23.50 101.50Q41 123 72 123Q105 123 124 99Q143 75 143 35Q143 4 132-27.50Q121-59 98.50-84.50Q76-110 42-126.50Q8-143-37-144L-30-106Z"  horiz-adv-x="210" vert-adv-y="1000"  />

      
      <glyph glyph-name="uniF6C3" unicode="&#xF6C3;" d="M100-234Q136-232 163-215Q190-198 200-170Q194-173 188-174Q182-175 178-175Q154-175 141-161Q128-147 128-127Q128-102 146.50-82.50Q165-63 193-63Q220-63 237-79.50Q254-96 254-128Q254-188 207-229.50Q160-271 93-272L100-234Z"  horiz-adv-x="500" vert-adv-y="1000"  />

      
      <glyph glyph-name="unia9" unicode="&#xa9;" d="M52 355Q52 430 78.50 497Q105 564 152.50 613Q200 662 266.50 690.50Q333 719 411 719Q489 719 555.50 690.50Q622 662 669.50 613Q717 564 743.50 497Q770 430 770 355Q770 280 743.50 213Q717 146 669.50 97Q622 48 555.50 19.50Q489-9 411-9Q333-9 266.50 19.50Q200 48 152.50 97Q105 146 78.50 213Q52 280 52 355M719 355Q719 422 697 480.50Q675 539 635 582Q595 625 537.50 650Q480 675 411 675Q342 675 285 650Q228 625 188 582Q148 539 126 480.50Q104 422 104 355Q104 288 126 229.50Q148 171 188 128Q228 85 285 60Q342 35 411 35Q480 35 537.50 60Q595 85 635 128Q675 171 697 229.50Q719 288 719 355M232 354Q232 443 283 497Q334 551 417 551Q489 551 531.50 514.50Q574 478 584 420L504 420Q499 448 478 468Q457 488 417 488Q368 488 339.50 453.50Q311 419 311 365L311 344Q311 290 339.50 256.50Q368 223 417 223Q457 223 478 242.50Q499 262 504 289L584 289Q574 232 531.50 195.50Q489 159 417 159Q334 159 283 212Q232 265 232 354Z"  horiz-adv-x="788" vert-adv-y="1000"  />

      
      <glyph glyph-name="uni20A2" unicode="&#x20A2;" d="M61 285Q61 369 83.50 448Q106 527 147 587Q188 647 248 683.50Q308 720 383 720Q486 720 544.50 662Q603 604 616 514L526 514Q515 564 481 603Q447 642 375 642Q300 642 241.50 575.50Q183 509 165 403Q158 363 154 332Q150 301 150 278Q150 205 173 156Q196 107 236 85L292 397L375 397L362 322L365 322Q391 363 424 380.50Q457 398 490 398L534 398L520 319L481 319Q424 319 389 289.50Q354 260 340 199L316 65Q376 65 413 100.50Q450 136 467 183L563 183Q531 99 467.50 44.50Q404-10 311-10Q256-10 210 9Q164 28 131 65.50Q98 103 79.50 158Q61 213 61 285Z"  horiz-adv-x="613" vert-adv-y="1000"  />

      
      <glyph glyph-name="uni64" unicode="&#x64;" d="M362 69Q337 32 297 11.50Q257-9 212-9Q128-9 76 47Q24 103 24 204Q24 274 43 334Q62 394 95 437.50Q128 481 174.50 505.50Q221 530 276 530Q332 530 372 503.50Q412 477 428 440L431 440L484 740L573 740L443 0L354 0L366 69L362 69M109 196Q109 128 143 95Q177 62 234 62Q287 62 329.50 96Q372 130 390 204L406 298Q407 304 407.50 309.50Q408 315 408 320Q408 384 371.50 421Q335 458 277 458Q222 458 180.50 418.50Q139 379 124 301Q114 250 111.50 229.50Q109 209 109 196Z"  horiz-adv-x="543" vert-adv-y="1000"  />

      
      <glyph glyph-name="uni2020" unicode="&#x2020;" d="M87 576L218 576L242 710L317 710L293 576L423 576L412 511L282 511L224 184L149 184L207 511L76 511L87 576Z"  horiz-adv-x="400" vert-adv-y="1000"  />

      
      <glyph glyph-name="uni2021" unicode="&#x2021;" d="M42 320L53 382L184 382L207 512L76 512L87 575L218 575L242 710L315 710L291 575L423 575L411 512L280 512L257 382L388 382L377 320L246 320L222 184L149 184L173 320L42 320Z"  horiz-adv-x="400" vert-adv-y="1000"  />

      
      <glyph glyph-name="uni010F" unicode="&#x010F;" d="M362 69Q337 32 297 11.50Q257-9 212-9Q128-9 76 47Q24 103 24 204Q24 274 43 334Q62 394 95 437.50Q128 481 174.50 505.50Q221 530 276 530Q332 530 372 503.50Q412 477 428 440L431 440L484 740L573 740L443 0L354 0L366 69L362 69M643 740L740 740L675 576L598 576L643 740M109 196Q109 128 143 95Q177 62 234 62Q287 62 329.50 96Q372 130 390 204L406 298Q407 304 407.50 309.50Q408 315 408 320Q408 384 371.50 421Q335 458 277 458Q222 458 180.50 418.50Q139 379 124 301Q114 250 111.50 229.50Q109 209 109 196Z"  horiz-adv-x="543" vert-adv-y="1000"  />

      
      <glyph glyph-name="uni0111" unicode="&#x0111;" d="M362 69Q337 32 297 11.50Q257-9 212-9Q128-9 76 47Q24 103 24 204Q24 274 43 334Q62 394 95 437.50Q128 481 174.50 505.50Q221 530 276 530Q332 530 372 503.50Q412 477 428 440L431 440L458 594L308 594L318 656L469 656L484 740L573 740L558 656L633 656L623 594L547 594L443 0L354 0L366 69L362 69M109 196Q109 128 143 95Q177 62 234 62Q286 62 329 96Q372 130 390 204L406 298Q407 304 407.50 309.50Q408 315 408 320Q408 384 371.50 421Q335 458 277 458Q222 458 180.50 418.50Q139 379 124 301Q114 250 111.50 229.50Q109 209 109 196Z"  horiz-adv-x="542" vert-adv-y="1000"  />

      
      <glyph glyph-name="uni1E0D" unicode="&#x1E0D;" d="M362 69Q337 32 297 11.50Q257-9 212-9Q128-9 76 47Q24 103 24 204Q24 274 43 334Q62 394 95 437.50Q128 481 174.50 505.50Q221 530 276 530Q332 530 372 503.50Q412 477 428 440L431 440L484 740L573 740L443 0L354 0L366 69L362 69M109 196Q109 128 143 95Q177 62 234 62Q287 62 329.50 96Q372 130 390 204L406 298Q407 304 407.50 309.50Q408 315 408 320Q408 384 371.50 421Q335 458 277 458Q222 458 180.50 418.50Q139 379 124 301Q114 250 111.50 229.50Q109 209 109 196M214-70Q240-70 258-87.50Q276-105 276-132Q276-158 258-176Q240-194 214-194Q188-194 169.50-176Q151-158 151-132Q151-105 169.50-87.50Q188-70 214-70Z"  horiz-adv-x="543" vert-adv-y="1000"  />

      
      <glyph glyph-name="unib0" unicode="&#xb0;" d="M232 720Q296 720 336 679Q376 638 376 580Q376 521 336 480.50Q296 440 232 440Q168 440 128 480.50Q88 521 88 580Q88 638 128 679Q168 720 232 720M232 663Q195 663 174 638.50Q153 614 153 580Q153 546 174 521.50Q195 497 232 497Q269 497 290 521.50Q311 546 311 580Q311 614 290 638.50Q269 663 232 663Z"  horiz-adv-x="356" vert-adv-y="1000"  />

      
      <glyph glyph-name="unia8" unicode="&#xa8;" d="M175 670Q175 695 192 712Q209 729 234 729Q259 729 276 712Q293 695 293 670Q293 645 276 627.50Q259 610 234 610Q209 610 192 627.50Q175 645 175 670M353 670Q353 695 370 712Q387 729 412 729Q437 729 454 712Q471 695 471 670Q471 645 454 627.50Q437 610 412 610Q387 610 370 627.50Q353 645 353 670Z"  horiz-adv-x="500" vert-adv-y="1000"  />

      
      <glyph glyph-name="unif7" unicode="&#xf7;" d="M335 484Q307 484 288 503.50Q269 523 269 551Q269 578 288 597.50Q307 617 335 617Q362 617 381.50 597.50Q401 578 401 551Q401 523 381.50 503.50Q362 484 335 484M46 381L568 381L555 309L33 309L46 381M265 73Q237 73 218 92.50Q199 112 199 140Q199 167 218 186.50Q237 206 265 206Q292 206 311.50 186.50Q331 167 331 140Q331 112 311.50 92.50Q292 73 265 73Z"  horiz-adv-x="572" vert-adv-y="1000"  />

      
      <glyph glyph-name="uni24" unicode="&#x24;" d="M20 196L106 196Q109 147 135.50 113Q162 79 213 68L260 327L237 334Q168 354 130.50 395Q93 436 93 504Q93 544 109.50 582.50Q126 621 157 651Q188 681 231.50 700Q275 719 329 719L345 808L409 808L392 714Q471 699 511 649.50Q551 600 556 543L470 543Q464 583 441.50 608Q419 633 380 643L335 390L363 381Q440 357 474.50 314Q509 271 509 204Q509 161 493 122.50Q477 84 446.50 55Q416 26 370 8.50Q324-9 265-9L245-119L180-119L201-4Q110 12 65.50 69Q21 126 20 196M268 410L274 408L317 649Q260 645 218.50 609.50Q177 574 177 508Q177 467 198.50 445.50Q220 424 268 410M328 307L321 309L278 63Q344 66 384.50 99Q425 132 425 195Q425 246 402 269Q379 292 328 307Z"  horiz-adv-x="557" vert-adv-y="1000"  />

      
      <glyph glyph-name="uni20AB" unicode="&#x20AB;" d="M22 187Q22 252 41.50 307Q61 362 94.50 401.50Q128 441 174.50 463.50Q221 486 275 486Q335 486 372 460.50Q409 435 425 395L429 395L456 548L273 548L285 611L467 611L484 710L570 710L553 611L642 611L631 548L542 548L445 0L359 0L371 65L366 65Q341 31 300 11Q259-9 213-9Q127-9 74.50 42Q22 93 22 187M107 181Q107 123 142.50 91.50Q178 60 235 60Q292 60 336.50 96Q381 132 396 209L403 250Q405 263 406.50 272.50Q408 282 408 289Q408 347 371 381Q334 415 278 415Q219 415 177 379.50Q135 344 120 274Q111 230 109 211.50Q107 193 107 181M42-76L400-76L389-139L32-139L42-76Z"  horiz-adv-x="608" vert-adv-y="1000"  />

      
      <glyph glyph-name="uni02D9" unicode="&#x02D9;" d="M324 734Q350 734 368 716.50Q386 699 386 672Q386 646 368 628Q350 610 324 610Q298 610 280 628Q262 646 262 672Q262 699 280 716.50Q298 734 324 734Z"  horiz-adv-x="500" vert-adv-y="1000"  />

      
      <glyph glyph-name="uni0131" unicode="&#x0131;" d="M99 0L10 0L102 520L191 520L99 0Z"  horiz-adv-x="199" vert-adv-y="1000"  />

      
      <glyph glyph-name="uni0237" unicode="&#x0237;" d="M-91-98L-70-98Q-37-98-19-81.50Q-1-65 4-35L102 520L191 520L91-47Q81-102 38-136Q-5-170-64-170L-103-170L-91-98Z"  horiz-adv-x="199" vert-adv-y="1000"  />

      
      <glyph glyph-name="uni65" unicode="&#x65;" d="M24 207Q24 273 43 332Q62 391 97 435Q132 479 182 504.50Q232 530 294 530Q390 530 441.50 472.50Q493 415 493 321Q493 303 490.50 283.50Q488 264 484 243L113 243Q111 227 110 217Q109 207 109 198Q109 129 144.50 95.50Q180 62 243 62Q289 62 325.50 85.50Q362 109 378 149L465 149Q454 117 433 88Q412 59 383 37.50Q354 16 316.50 3Q279-10 236-10Q139-10 81.50 47Q24 104 24 207M287 458Q228 458 184.50 419Q141 380 125 309L409 309Q410 313 410 318Q410 323 410 327Q410 390 378.50 424Q347 458 287 458Z"  horiz-adv-x="507" vert-adv-y="1000"  />

      
      <glyph glyph-name="unie9" unicode="&#xe9;" d="M373 760L488 760L349 607L258 607L373 760M24 207Q24 273 43 332Q62 391 97 435Q132 479 182 504.50Q232 530 294 530Q390 530 441.50 472.50Q493 415 493 321Q493 303 490.50 283.50Q488 264 484 243L113 243Q111 227 110 217Q109 207 109 198Q109 129 144.50 95.50Q180 62 243 62Q289 62 325.50 85.50Q362 109 378 149L465 149Q454 117 433 88Q412 59 383 37.50Q354 16 316.50 3Q279-10 236-10Q139-10 81.50 47Q24 104 24 207M287 458Q228 458 184.50 419Q141 380 125 309L409 309Q410 313 410 318Q410 323 410 327Q410 390 378.50 424Q347 458 287 458Z"  horiz-adv-x="507" vert-adv-y="1000"  />

      
      </font>
</defs>
</svg>
