<?xml version="1.0" standalone="no"?>
  <!DOCTYPE svg PUBLIC "-//W3C//DTD SVG 1.1//EN" "http://www.w3.org/Graphics/SVG/1.1/DTD/svg11.dtd" >
  <svg>
  <metadata>
  Created by font-carrier
  </metadata>
  <defs>
  <font id="APTypeDisplay-Light" horiz-adv-x="1184" vert-adv-y="1184" >
    <font-face
      
      font-family="AP Type Display Light"
      
      font-weight="400"
      
      font-stretch="normal"
      
      units-per-em="1000"
      
      ascent="1181"
      
      descent="-272"
      
    />
      <missing-glyph />

      

      
      <glyph glyph-name="uni41" unicode="&#x41;" d="M510 0L454 166L155 166L99 0L7 0L249 710L360 710L603 0L510 0M181 244L427 244L303 609L181 244Z"  horiz-adv-x="610" vert-adv-y="1000"  />

      
      <glyph glyph-name="unic6" unicode="&#xc6;" d="M348 710L889 710L889 632L538 632L538 412L868 412L868 335L538 335L538 78L896 78L896 0L444 0L444 217L191 217L79 0L-20 0L348 710M230 294L444 294L444 637L407 637L230 294Z"  horiz-adv-x="932" vert-adv-y="1000"  />

      
      <glyph glyph-name="uni01FC" unicode="&#x01FC;" d="M656 939L524 791L432 791L539 939L656 939M348 710L889 710L889 632L538 632L538 412L868 412L868 335L538 335L538 78L896 78L896 0L444 0L444 217L191 217L79 0L-20 0L348 710M230 294L444 294L444 637L407 637L230 294Z"  horiz-adv-x="932" vert-adv-y="1000"  />

      
      <glyph glyph-name="unic1" unicode="&#xc1;" d="M473 939L341 791L249 791L356 939L473 939M510 0L454 166L155 166L99 0L7 0L249 710L360 710L603 0L510 0M181 244L427 244L303 609L181 244Z"  horiz-adv-x="610" vert-adv-y="1000"  />

      
      <glyph glyph-name="uni0102" unicode="&#x0102;" d="M161 932L239 932Q239 893 258 874Q277 855 305 855Q333 855 352 874Q371 893 371 932L449 932Q449 866 409.50 826.50Q370 787 305 787Q240 787 200.50 826.50Q161 866 161 932M510 0L454 166L155 166L99 0L7 0L249 710L360 710L603 0L510 0M181 244L427 244L303 609L181 244Z"  horiz-adv-x="610" vert-adv-y="1000"  />

      
      <glyph glyph-name="unic2" unicode="&#xc2;" d="M255 946L355 946L469 797L379 797L305 892L231 797L141 797L255 946M510 0L454 166L155 166L99 0L7 0L249 710L360 710L603 0L510 0M181 244L427 244L303 609L181 244Z"  horiz-adv-x="610" vert-adv-y="1000"  />

      
      <glyph glyph-name="unic4" unicode="&#xc4;" d="M152 850Q152 875 169.50 892.50Q187 910 212 910Q237 910 254.50 892.50Q272 875 272 850Q272 825 254.50 807.50Q237 790 212 790Q187 790 169.50 807.50Q152 825 152 850M338 850Q338 875 355.50 892.50Q373 910 398 910Q423 910 440.50 892.50Q458 875 458 850Q458 825 440.50 807.50Q423 790 398 790Q373 790 355.50 807.50Q338 825 338 850M510 0L454 166L155 166L99 0L7 0L249 710L360 710L603 0L510 0M181 244L427 244L303 609L181 244Z"  horiz-adv-x="610" vert-adv-y="1000"  />

      
      <glyph glyph-name="uni1EA0" unicode="&#x1EA0;" d="M510 0L454 166L155 166L99 0L7 0L249 710L360 710L603 0L510 0M181 244L427 244L303 609L181 244M240-134Q240-106 258.50-88Q277-70 305-70Q333-70 351.50-88Q370-106 370-134Q370-162 351.50-180.50Q333-199 305-199Q277-199 258.50-180.50Q240-162 240-134Z"  horiz-adv-x="610" vert-adv-y="1000"  />

      
      <glyph glyph-name="unic0" unicode="&#xc0;" d="M136 939L252 939L360 791L267 791L136 939M510 0L454 166L155 166L99 0L7 0L249 710L360 710L603 0L510 0M181 244L427 244L303 609L181 244Z"  horiz-adv-x="610" vert-adv-y="1000"  />

      
      <glyph glyph-name="uni0100" unicode="&#x0100;" d="M170 885L440 885L440 812L170 812L170 885M510 0L454 166L155 166L99 0L7 0L249 710L360 710L603 0L510 0M181 244L427 244L303 609L181 244Z"  horiz-adv-x="610" vert-adv-y="1000"  />

      
      <glyph glyph-name="uni0104" unicode="&#x0104;" d="M428-116Q428-91 444.50-60Q461-29 510-5L510 0L454 166L155 166L99 0L7 0L249 710L360 710L603 0Q553-25 529-49.50Q505-74 505-97Q505-116 518.50-128.50Q532-141 563-141Q578-141 587-137.50Q596-134 603-130L603-196Q593-200 576.50-203Q560-206 546-206Q493-206 460.50-182Q428-158 428-116M181 244L427 244L303 609L181 244Z"  horiz-adv-x="610" vert-adv-y="1000"  />

      
      <glyph glyph-name="unic5" unicode="&#xc5;" d="M191 875Q191 924 223.50 954Q256 984 305 984Q354 984 386.50 954Q419 924 419 875Q419 828 386.50 796.50Q354 765 305 765Q256 765 223.50 796.50Q191 828 191 875M358 875Q358 899 342 914.50Q326 930 305 930Q284 930 268 914.50Q252 899 252 875Q252 853 268 836.50Q284 820 305 820Q326 820 342 836.50Q358 853 358 875M510 0L454 166L155 166L99 0L7 0L249 710L360 710L603 0L510 0M181 244L427 244L303 609L181 244Z"  horiz-adv-x="610" vert-adv-y="1000"  />

      
      <glyph glyph-name="uni01FA" unicode="&#x01FA;" d="M469 1181L337 1033L245 1033L352 1181L469 1181M190 870Q190 919 222.50 949Q255 979 304 979Q353 979 385.50 949Q418 919 418 870Q418 823 385.50 791.50Q353 760 304 760Q255 760 222.50 791.50Q190 823 190 870M357 870Q357 894 341 909.50Q325 925 304 925Q283 925 267 909.50Q251 894 251 870Q251 848 267 831.50Q283 815 304 815Q325 815 341 831.50Q357 848 357 870M510 0L454 166L155 166L99 0L7 0L249 710L360 710L603 0L510 0M181 244L427 244L303 609L181 244Z"  horiz-adv-x="610" vert-adv-y="1000"  />

      
      <glyph glyph-name="unic3" unicode="&#xc3;" d="M251 909Q265 909 280.50 904Q296 899 312 887Q325 877 336.50 871Q348 865 357 865Q379 865 383.50 884Q388 903 388 915L458 915Q459 861 432.50 828.50Q406 796 361 796Q347 796 331.50 800Q316 804 297 817Q280 829 270.50 834Q261 839 252 839Q231 839 226.50 821Q222 803 222 790L152 790Q151 844 179 876.50Q207 909 251 909M510 0L454 166L155 166L99 0L7 0L249 710L360 710L603 0L510 0M181 244L427 244L303 609L181 244Z"  horiz-adv-x="610" vert-adv-y="1000"  />

      
      <glyph glyph-name="uni42" unicode="&#x42;" d="M335 0L62 0L62 710L341 710Q430 710 487 661Q544 612 544 526Q544 475 518.50 432Q493 389 444 368Q501 353 536 310Q571 267 571 199Q571 112 510.50 56Q450 0 335 0M333 635L156 635L156 402L333 402Q390 402 420 432Q450 462 450 518Q450 575 420.50 605Q391 635 333 635M336 328L156 328L156 76L336 76Q410 76 443 106.50Q476 137 476 202Q476 265 440.50 296.50Q405 328 336 328Z"  horiz-adv-x="601" vert-adv-y="1000"  />

      
      <glyph glyph-name="uni43" unicode="&#x43;" d="M357 720Q416 720 465 703.50Q514 687 550.50 657.50Q587 628 611.50 587.50Q636 547 646 500L548 500Q542 526 528 551.50Q514 577 490.50 597Q467 617 433.50 629Q400 641 356 641Q257 641 194 571.50Q131 502 131 378L131 332Q131 208 194 138.50Q257 69 356 69Q400 69 433.50 81.50Q467 94 490.50 114Q514 134 528 159.50Q542 185 548 211L646 211Q636 164 611.50 123Q587 82 550.50 52.50Q514 23 465 6.50Q416-10 357-10Q287-10 227.50 15Q168 40 125.50 87Q83 134 59 202Q35 270 35 355Q35 440 59 508Q83 576 125.50 623Q168 670 227.50 695Q287 720 357 720Z"  horiz-adv-x="679" vert-adv-y="1000"  />

      
      <glyph glyph-name="uni0106" unicode="&#x0106;" d="M528 939L396 791L304 791L411 939L528 939M357 720Q416 720 465 703.50Q514 687 550.50 657.50Q587 628 611.50 587.50Q636 547 646 500L548 500Q542 526 528 551.50Q514 577 490.50 597Q467 617 433.50 629Q400 641 356 641Q257 641 194 571.50Q131 502 131 378L131 332Q131 208 194 138.50Q257 69 356 69Q400 69 433.50 81.50Q467 94 490.50 114Q514 134 528 159.50Q542 185 548 211L646 211Q636 164 611.50 123Q587 82 550.50 52.50Q514 23 465 6.50Q416-10 357-10Q287-10 227.50 15Q168 40 125.50 87Q83 134 59 202Q35 270 35 355Q35 440 59 508Q83 576 125.50 623Q168 670 227.50 695Q287 720 357 720Z"  horiz-adv-x="679" vert-adv-y="1000"  />

      
      <glyph glyph-name="uni010C" unicode="&#x010C;" d="M309 791L195 940L285 940L359 844L433 940L523 940L409 791L309 791M357 720Q416 720 465 703.50Q514 687 550.50 657.50Q587 628 611.50 587.50Q636 547 646 500L548 500Q542 526 528 551.50Q514 577 490.50 597Q467 617 433.50 629Q400 641 356 641Q257 641 194 571.50Q131 502 131 378L131 332Q131 208 194 138.50Q257 69 356 69Q400 69 433.50 81.50Q467 94 490.50 114Q514 134 528 159.50Q542 185 548 211L646 211Q636 164 611.50 123Q587 82 550.50 52.50Q514 23 465 6.50Q416-10 357-10Q287-10 227.50 15Q168 40 125.50 87Q83 134 59 202Q35 270 35 355Q35 440 59 508Q83 576 125.50 623Q168 670 227.50 695Q287 720 357 720Z"  horiz-adv-x="679" vert-adv-y="1000"  />

      
      <glyph glyph-name="unic7" unicode="&#xc7;" d="M243-149L305-149Q306-160 319.50-169.50Q333-179 355-179Q377-179 390.50-169Q404-159 404-140Q404-121 390.50-111.50Q377-102 357-102Q345-102 335.50-106Q326-110 318-114L282-90L328-9Q263-4 209 23.50Q155 51 116.50 97.50Q78 144 56.50 209.50Q35 275 35 355Q35 440 59 508Q83 576 125.50 623Q168 670 227.50 695Q287 720 357 720Q416 720 465 703.50Q514 687 550.50 657.50Q587 628 611.50 587.50Q636 547 646 500L548 500Q542 526 528 551.50Q514 577 490.50 597Q467 617 433.50 629Q400 641 356 641Q257 641 194 571.50Q131 502 131 378L131 332Q131 208 194 138.50Q257 69 356 69Q400 69 433.50 81.50Q467 94 490.50 114Q514 134 528 159.50Q542 185 548 211L646 211Q627 121 558 59.50Q489-2 381-9L356-53Q363-52 368-51.50Q373-51 375-51Q415-51 440.50-74.50Q466-98 466-140Q466-181 435.50-207Q405-233 356-233Q307-233 275-208Q243-183 243-149Z"  horiz-adv-x="679" vert-adv-y="1000"  />

      
      <glyph glyph-name="uni0108" unicode="&#x0108;" d="M309 946L409 946L523 797L433 797L359 892L285 797L195 797L309 946M357 720Q416 720 465 703.50Q514 687 550.50 657.50Q587 628 611.50 587.50Q636 547 646 500L548 500Q542 526 528 551.50Q514 577 490.50 597Q467 617 433.50 629Q400 641 356 641Q257 641 194 571.50Q131 502 131 378L131 332Q131 208 194 138.50Q257 69 356 69Q400 69 433.50 81.50Q467 94 490.50 114Q514 134 528 159.50Q542 185 548 211L646 211Q636 164 611.50 123Q587 82 550.50 52.50Q514 23 465 6.50Q416-10 357-10Q287-10 227.50 15Q168 40 125.50 87Q83 134 59 202Q35 270 35 355Q35 440 59 508Q83 576 125.50 623Q168 670 227.50 695Q287 720 357 720Z"  horiz-adv-x="679" vert-adv-y="1000"  />

      
      <glyph glyph-name="uni010A" unicode="&#x010A;" d="M359 919Q387 919 405.50 901Q424 883 424 855Q424 827 405.50 808.50Q387 790 359 790Q331 790 312.50 808.50Q294 827 294 855Q294 883 312.50 901Q331 919 359 919M357 720Q416 720 465 703.50Q514 687 550.50 657.50Q587 628 611.50 587.50Q636 547 646 500L548 500Q542 526 528 551.50Q514 577 490.50 597Q467 617 433.50 629Q400 641 356 641Q257 641 194 571.50Q131 502 131 378L131 332Q131 208 194 138.50Q257 69 356 69Q400 69 433.50 81.50Q467 94 490.50 114Q514 134 528 159.50Q542 185 548 211L646 211Q636 164 611.50 123Q587 82 550.50 52.50Q514 23 465 6.50Q416-10 357-10Q287-10 227.50 15Q168 40 125.50 87Q83 134 59 202Q35 270 35 355Q35 440 59 508Q83 576 125.50 623Q168 670 227.50 695Q287 720 357 720Z"  horiz-adv-x="679" vert-adv-y="1000"  />

      
      <glyph glyph-name="uni44" unicode="&#x44;" d="M62 710L299 710Q374 710 437 687Q500 664 545 619.50Q590 575 615.50 508.50Q641 442 641 355Q641 268 615.50 201.50Q590 135 545 90.50Q500 46 437 23Q374 0 299 0L62 0L62 710M291 632L155 632L155 78L291 78Q418 78 481.50 144Q545 210 545 355Q545 500 481.50 566Q418 632 291 632Z"  horiz-adv-x="676" vert-adv-y="1000"  />

      
      <glyph glyph-name="uni010E" unicode="&#x010E;" d="M282 791L168 940L258 940L332 844L406 940L496 940L382 791L282 791M62 710L299 710Q374 710 437 687Q500 664 545 619.50Q590 575 615.50 508.50Q641 442 641 355Q641 268 615.50 201.50Q590 135 545 90.50Q500 46 437 23Q374 0 299 0L62 0L62 710M291 632L155 632L155 78L291 78Q418 78 481.50 144Q545 210 545 355Q545 500 481.50 566Q418 632 291 632Z"  horiz-adv-x="676" vert-adv-y="1000"  />

      
      <glyph glyph-name="uni0110" unicode="&#x0110;" d="M5 399L88 399L88 710L325 710Q400 710 463 687Q526 664 571 619.50Q616 575 641.50 508.50Q667 442 667 355Q667 268 641.50 201.50Q616 135 571 90.50Q526 46 463 23Q400 0 325 0L88 0L88 327L5 327L5 399M317 632L181 632L181 399L387 399L387 327L181 327L181 78L317 78Q444 78 507.50 144Q571 210 571 355Q571 500 507.50 566Q444 632 317 632Z"  horiz-adv-x="702" vert-adv-y="1000"  />

      
      <glyph glyph-name="uni1E0C" unicode="&#x1E0C;" d="M62 710L299 710Q374 710 437 687Q500 664 545 619.50Q590 575 615.50 508.50Q641 442 641 355Q641 268 615.50 201.50Q590 135 545 90.50Q500 46 437 23Q374 0 299 0L62 0L62 710M291 632L155 632L155 78L291 78Q418 78 481.50 144Q545 210 545 355Q545 500 481.50 566Q418 632 291 632M271-134Q271-106 289.50-88Q308-70 336-70Q364-70 382.50-88Q401-106 401-134Q401-162 382.50-180.50Q364-199 336-199Q308-199 289.50-180.50Q271-162 271-134Z"  horiz-adv-x="676" vert-adv-y="1000"  />

      
      <glyph glyph-name="uni45" unicode="&#x45;" d="M513 78L513 0L62 0L62 710L506 710L506 632L156 632L156 412L485 412L485 335L156 335L156 78L513 78Z"  horiz-adv-x="549" vert-adv-y="1000"  />

      
      <glyph glyph-name="unic9" unicode="&#xc9;" d="M457 939L325 791L233 791L340 939L457 939M513 78L513 0L62 0L62 710L506 710L506 632L156 632L156 412L485 412L485 335L156 335L156 78L513 78Z"  horiz-adv-x="549" vert-adv-y="1000"  />

      
      <glyph glyph-name="uni0114" unicode="&#x0114;" d="M145 932L223 932Q223 893 242 874Q261 855 289 855Q317 855 336 874Q355 893 355 932L433 932Q433 866 393.50 826.50Q354 787 289 787Q224 787 184.50 826.50Q145 866 145 932M513 78L513 0L62 0L62 710L506 710L506 632L156 632L156 412L485 412L485 335L156 335L156 78L513 78Z"  horiz-adv-x="549" vert-adv-y="1000"  />

      
      <glyph glyph-name="uni011A" unicode="&#x011A;" d="M239 791L125 940L215 940L289 844L363 940L453 940L339 791L239 791M513 78L513 0L62 0L62 710L506 710L506 632L156 632L156 412L485 412L485 335L156 335L156 78L513 78Z"  horiz-adv-x="549" vert-adv-y="1000"  />

      
      <glyph glyph-name="unica" unicode="&#xca;" d="M239 946L339 946L453 797L363 797L289 892L215 797L125 797L239 946M513 78L513 0L62 0L62 710L506 710L506 632L156 632L156 412L485 412L485 335L156 335L156 78L513 78Z"  horiz-adv-x="549" vert-adv-y="1000"  />

      
      <glyph glyph-name="unicb" unicode="&#xcb;" d="M136 850Q136 875 153.50 892.50Q171 910 196 910Q221 910 238.50 892.50Q256 875 256 850Q256 825 238.50 807.50Q221 790 196 790Q171 790 153.50 807.50Q136 825 136 850M322 850Q322 875 339.50 892.50Q357 910 382 910Q407 910 424.50 892.50Q442 875 442 850Q442 825 424.50 807.50Q407 790 382 790Q357 790 339.50 807.50Q322 825 322 850M513 78L513 0L62 0L62 710L506 710L506 632L156 632L156 412L485 412L485 335L156 335L156 78L513 78Z"  horiz-adv-x="549" vert-adv-y="1000"  />

      
      <glyph glyph-name="uni0116" unicode="&#x0116;" d="M289 919Q317 919 335.50 901Q354 883 354 855Q354 827 335.50 808.50Q317 790 289 790Q261 790 242.50 808.50Q224 827 224 855Q224 883 242.50 901Q261 919 289 919M513 78L513 0L62 0L62 710L506 710L506 632L156 632L156 412L485 412L485 335L156 335L156 78L513 78Z"  horiz-adv-x="549" vert-adv-y="1000"  />

      
      <glyph glyph-name="uni1EB8" unicode="&#x1EB8;" d="M513 78L513 0L62 0L62 710L506 710L506 632L156 632L156 412L485 412L485 335L156 335L156 78L513 78M228-134Q228-106 246.50-88Q265-70 293-70Q321-70 339.50-88Q358-106 358-134Q358-162 339.50-180.50Q321-199 293-199Q265-199 246.50-180.50Q228-162 228-134Z"  horiz-adv-x="549" vert-adv-y="1000"  />

      
      <glyph glyph-name="unic8" unicode="&#xc8;" d="M120 939L236 939L344 791L251 791L120 939M513 78L513 0L62 0L62 710L506 710L506 632L156 632L156 412L485 412L485 335L156 335L156 78L513 78Z"  horiz-adv-x="549" vert-adv-y="1000"  />

      
      <glyph glyph-name="uni0112" unicode="&#x0112;" d="M154 885L424 885L424 812L154 812L154 885M513 78L513 0L62 0L62 710L506 710L506 632L156 632L156 412L485 412L485 335L156 335L156 78L513 78Z"  horiz-adv-x="549" vert-adv-y="1000"  />

      
      <glyph glyph-name="uni014A" unicode="&#x014A;" d="M482-98L503-98Q534-98 550-80.50Q566-63 566-35L566 0L154 590L154 0L62 0L62 710L176 710L563 155L563 710L655 710L655-37Q655-97 614.50-133.50Q574-170 510-170L482-170L482-98Z"  horiz-adv-x="717" vert-adv-y="1000"  />

      
      <glyph glyph-name="uni0118" unicode="&#x0118;" d="M301-116Q301-90 320-56Q339-22 396 0L62 0L62 710L506 710L506 632L156 632L156 412L485 412L485 335L156 335L156 78L513 78L513 0L475 0Q426-25 402-49.50Q378-74 378-97Q378-116 391.50-128.50Q405-141 436-141Q452-141 460-138Q468-135 475-131L475-196Q465-200 449-203Q433-206 418-206Q365-206 333-182Q301-158 301-116Z"  horiz-adv-x="549" vert-adv-y="1000"  />

      
      <glyph glyph-name="unid0" unicode="&#xd0;" d="M5 399L88 399L88 710L325 710Q400 710 463 687Q526 664 571 619.50Q616 575 641.50 508.50Q667 442 667 355Q667 268 641.50 201.50Q616 135 571 90.50Q526 46 463 23Q400 0 325 0L88 0L88 327L5 327L5 399M317 632L181 632L181 399L387 399L387 327L181 327L181 78L317 78Q444 78 507.50 144Q571 210 571 355Q571 500 507.50 566Q444 632 317 632Z"  horiz-adv-x="702" vert-adv-y="1000"  />

      
      <glyph glyph-name="uni1EBC" unicode="&#x1EBC;" d="M235 909Q249 909 264.50 904Q280 899 296 887Q309 877 320.50 871Q332 865 341 865Q363 865 367.50 884Q372 903 372 915L442 915Q443 861 416.50 828.50Q390 796 345 796Q331 796 315.50 800Q300 804 281 817Q264 829 254.50 834Q245 839 236 839Q215 839 210.50 821Q206 803 206 790L136 790Q135 844 163 876.50Q191 909 235 909M513 78L513 0L62 0L62 710L506 710L506 632L156 632L156 412L485 412L485 335L156 335L156 78L513 78Z"  horiz-adv-x="549" vert-adv-y="1000"  />

      
      <glyph glyph-name="uni20AC" unicode="&#x20AC;" d="M29 321L97 321Q96 329 96 337.50Q96 346 96 355Q96 365 96 375Q96 385 97 395L29 395L29 456L105 456Q127 580 201.50 650Q276 720 377 720Q472 720 536 664.50Q600 609 622 525L530 525Q517 572 479 608.50Q441 645 374 645Q306 645 258 595.50Q210 546 194 456L453 456L433 395L188 395L188 321L407 321L386 259L193 259Q208 167 256.50 116Q305 65 374 65Q441 65 479 102Q517 139 530 186L622 186Q601 100 537 45Q473-10 377-10Q274-10 200 61.50Q126 133 104 259L29 259L29 321Z"  horiz-adv-x="660" vert-adv-y="1000"  />

      
      <glyph glyph-name="uni46" unicode="&#x46;" d="M466 398L466 320L156 320L156 0L62 0L62 710L493 710L493 632L156 632L156 398L466 398Z"  horiz-adv-x="523" vert-adv-y="1000"  />

      
      <glyph glyph-name="uni47" unicode="&#x47;" d="M357 69Q408 69 447.50 86.50Q487 104 513 133Q539 162 552.50 200.50Q566 239 566 281L566 299L413 299L413 376L660 376L660 321Q660 248 639.50 186.50Q619 125 580.50 82Q542 39 485.50 14.50Q429-10 358-10Q288-10 228.50 15.50Q169 41 126 88Q83 135 59 203Q35 271 35 355Q35 439 59 507Q83 575 126 622Q169 669 228.50 694.50Q288 720 359 720Q468 720 541.50 665.50Q615 611 639 525L540 525Q526 573 478.50 607Q431 641 359 641Q309 641 267 623Q225 605 195 571.50Q165 538 148 488.50Q131 439 131 377L131 333Q131 208 194.50 138.50Q258 69 357 69Z"  horiz-adv-x="695" vert-adv-y="1000"  />

      
      <glyph glyph-name="uni011E" unicode="&#x011E;" d="M207 932L285 932Q285 893 304 874Q323 855 351 855Q379 855 398 874Q417 893 417 932L495 932Q495 866 455.50 826.50Q416 787 351 787Q286 787 246.50 826.50Q207 866 207 932M357 69Q408 69 447.50 86.50Q487 104 513 133Q539 162 552.50 200.50Q566 239 566 281L566 299L413 299L413 376L660 376L660 321Q660 248 639.50 186.50Q619 125 580.50 82Q542 39 485.50 14.50Q429-10 358-10Q288-10 228.50 15.50Q169 41 126 88Q83 135 59 203Q35 271 35 355Q35 439 59 507Q83 575 126 622Q169 669 228.50 694.50Q288 720 359 720Q468 720 541.50 665.50Q615 611 639 525L540 525Q526 573 478.50 607Q431 641 359 641Q309 641 267 623Q225 605 195 571.50Q165 538 148 488.50Q131 439 131 377L131 333Q131 208 194.50 138.50Q258 69 357 69Z"  horiz-adv-x="695" vert-adv-y="1000"  />

      
      <glyph glyph-name="uni01E6" unicode="&#x01E6;" d="M301 791L187 940L277 940L351 844L425 940L515 940L401 791L301 791M357 69Q408 69 447.50 86.50Q487 104 513 133Q539 162 552.50 200.50Q566 239 566 281L566 299L413 299L413 376L660 376L660 321Q660 248 639.50 186.50Q619 125 580.50 82Q542 39 485.50 14.50Q429-10 358-10Q288-10 228.50 15.50Q169 41 126 88Q83 135 59 203Q35 271 35 355Q35 439 59 507Q83 575 126 622Q169 669 228.50 694.50Q288 720 359 720Q468 720 541.50 665.50Q615 611 639 525L540 525Q526 573 478.50 607Q431 641 359 641Q309 641 267 623Q225 605 195 571.50Q165 538 148 488.50Q131 439 131 377L131 333Q131 208 194.50 138.50Q258 69 357 69Z"  horiz-adv-x="695" vert-adv-y="1000"  />

      
      <glyph glyph-name="uni0122" unicode="&#x0122;" d="M357 69Q408 69 447.50 86.50Q487 104 513 133Q539 162 552.50 200.50Q566 239 566 281L566 299L413 299L413 376L660 376L660 321Q660 248 639.50 186.50Q619 125 580.50 82Q542 39 485.50 14.50Q429-10 358-10Q288-10 228.50 15.50Q169 41 126 88Q83 135 59 203Q35 271 35 355Q35 439 59 507Q83 575 126 622Q169 669 228.50 694.50Q288 720 359 720Q468 720 541.50 665.50Q615 611 639 525L540 525Q526 573 478.50 607Q431 641 359 641Q309 641 267 623Q225 605 195 571.50Q165 538 148 488.50Q131 439 131 377L131 333Q131 208 194.50 138.50Q258 69 357 69M280-235Q315-231 338.50-215Q362-199 369-173Q363-176 356.50-177Q350-178 344-178Q318-178 303.50-161.50Q289-145 289-122Q289-97 307-80Q325-63 351-63Q383-63 403-83.50Q423-104 423-141Q423-196 382.50-231Q342-266 280-272L280-235Z"  horiz-adv-x="695" vert-adv-y="1000"  />

      
      <glyph glyph-name="uni011C" unicode="&#x011C;" d="M302 946L402 946L516 797L426 797L352 892L278 797L188 797L302 946M357 69Q408 69 447.50 86.50Q487 104 513 133Q539 162 552.50 200.50Q566 239 566 281L566 299L413 299L413 376L660 376L660 321Q660 248 639.50 186.50Q619 125 580.50 82Q542 39 485.50 14.50Q429-10 358-10Q288-10 228.50 15.50Q169 41 126 88Q83 135 59 203Q35 271 35 355Q35 439 59 507Q83 575 126 622Q169 669 228.50 694.50Q288 720 359 720Q468 720 541.50 665.50Q615 611 639 525L540 525Q526 573 478.50 607Q431 641 359 641Q309 641 267 623Q225 605 195 571.50Q165 538 148 488.50Q131 439 131 377L131 333Q131 208 194.50 138.50Q258 69 357 69Z"  horiz-adv-x="695" vert-adv-y="1000"  />

      
      <glyph glyph-name="uni0120" unicode="&#x0120;" d="M351 919Q379 919 397.50 901Q416 883 416 855Q416 827 397.50 808.50Q379 790 351 790Q323 790 304.50 808.50Q286 827 286 855Q286 883 304.50 901Q323 919 351 919M357 69Q408 69 447.50 86.50Q487 104 513 133Q539 162 552.50 200.50Q566 239 566 281L566 299L413 299L413 376L660 376L660 321Q660 248 639.50 186.50Q619 125 580.50 82Q542 39 485.50 14.50Q429-10 358-10Q288-10 228.50 15.50Q169 41 126 88Q83 135 59 203Q35 271 35 355Q35 439 59 507Q83 575 126 622Q169 669 228.50 694.50Q288 720 359 720Q468 720 541.50 665.50Q615 611 639 525L540 525Q526 573 478.50 607Q431 641 359 641Q309 641 267 623Q225 605 195 571.50Q165 538 148 488.50Q131 439 131 377L131 333Q131 208 194.50 138.50Q258 69 357 69Z"  horiz-adv-x="695" vert-adv-y="1000"  />

      
      <glyph glyph-name="uni48" unicode="&#x48;" d="M62 710L156 710L156 407L529 407L529 710L623 710L623 0L529 0L529 327L156 327L156 0L62 0L62 710Z"  horiz-adv-x="685" vert-adv-y="1000"  />

      
      <glyph glyph-name="uni0126" unicode="&#x0126;" d="M-7 591L72 591L72 710L166 710L166 591L539 591L539 710L633 710L633 591L712 591L712 521L633 521L633 0L539 0L539 327L166 327L166 0L72 0L72 521L-7 521L-7 591M166 407L539 407L539 521L166 521L166 407Z"  horiz-adv-x="705" vert-adv-y="1000"  />

      
      <glyph glyph-name="uni0124" unicode="&#x0124;" d="M292 946L392 946L506 797L416 797L342 892L268 797L178 797L292 946M62 710L156 710L156 407L529 407L529 710L623 710L623 0L529 0L529 327L156 327L156 0L62 0L62 710Z"  horiz-adv-x="685" vert-adv-y="1000"  />

      
      <glyph glyph-name="uni49" unicode="&#x49;" d="M62 710L156 710L156 0L62 0L62 710Z"  horiz-adv-x="218" vert-adv-y="1000"  />

      
      <glyph glyph-name="uni0132" unicode="&#x0132;" d="M62 710L156 710L156 0L62 0L62 710M685 710L685 198Q685 104 627 47Q569-10 470-10Q371-10 313 47.50Q255 105 255 198L255 302L348 302L348 200Q348 140 379 105Q410 70 470 70Q530 70 560.50 106Q591 142 591 205L591 710L685 710Z"  horiz-adv-x="745" vert-adv-y="1000"  />

      
      <glyph glyph-name="unicd" unicode="&#xcd;" d="M277 939L145 791L53 791L160 939L277 939M62 710L156 710L156 0L62 0L62 710Z"  horiz-adv-x="218" vert-adv-y="1000"  />

      
      <glyph glyph-name="uni012C" unicode="&#x012C;" d="M-35 932L43 932Q43 893 62 874Q81 855 109 855Q137 855 156 874Q175 893 175 932L253 932Q253 866 213.50 826.50Q174 787 109 787Q44 787 4.50 826.50Q-35 866-35 932M62 710L156 710L156 0L62 0L62 710Z"  horiz-adv-x="218" vert-adv-y="1000"  />

      
      <glyph glyph-name="unice" unicode="&#xce;" d="M59 946L159 946L273 797L183 797L109 892L35 797L-55 797L59 946M62 710L156 710L156 0L62 0L62 710Z"  horiz-adv-x="218" vert-adv-y="1000"  />

      
      <glyph glyph-name="unicf" unicode="&#xcf;" d="M-44 850Q-44 875-26.50 892.50Q-9 910 16 910Q41 910 58.50 892.50Q76 875 76 850Q76 825 58.50 807.50Q41 790 16 790Q-9 790-26.50 807.50Q-44 825-44 850M142 850Q142 875 159.50 892.50Q177 910 202 910Q227 910 244.50 892.50Q262 875 262 850Q262 825 244.50 807.50Q227 790 202 790Q177 790 159.50 807.50Q142 825 142 850M62 710L156 710L156 0L62 0L62 710Z"  horiz-adv-x="218" vert-adv-y="1000"  />

      
      <glyph glyph-name="uni0130" unicode="&#x0130;" d="M110 919Q138 919 156.50 901Q175 883 175 855Q175 827 156.50 808.50Q138 790 110 790Q82 790 63.50 808.50Q45 827 45 855Q45 883 63.50 901Q82 919 110 919M62 710L156 710L156 0L62 0L62 710Z"  horiz-adv-x="218" vert-adv-y="1000"  />

      
      <glyph glyph-name="uni1ECA" unicode="&#x1ECA;" d="M62 710L156 710L156 0L62 0L62 710M44-134Q44-106 62.50-88Q81-70 109-70Q137-70 155.50-88Q174-106 174-134Q174-162 155.50-180.50Q137-199 109-199Q81-199 62.50-180.50Q44-162 44-134Z"  horiz-adv-x="218" vert-adv-y="1000"  />

      
      <glyph glyph-name="unicc" unicode="&#xcc;" d="M-60 939L56 939L164 791L71 791L-60 939M62 710L156 710L156 0L62 0L62 710Z"  horiz-adv-x="218" vert-adv-y="1000"  />

      
      <glyph glyph-name="uni012A" unicode="&#x012A;" d="M-26 885L244 885L244 812L-26 812L-26 885M62 710L156 710L156 0L62 0L62 710Z"  horiz-adv-x="218" vert-adv-y="1000"  />

      
      <glyph glyph-name="uni012E" unicode="&#x012E;" d="M10-111Q10-84 27-53.50Q44-23 89-4L89 0L62 0L62 710L156 710L156 0Q120-23 103-46Q86-69 86-96Q86-115 99.50-128Q113-141 144-141Q160-141 168.50-138Q177-135 184-131L184-196Q174-200 157.50-203Q141-206 127-206Q74-206 42-181.50Q10-157 10-111Z"  horiz-adv-x="218" vert-adv-y="1000"  />

      
      <glyph glyph-name="uni0128" unicode="&#x0128;" d="M55 909Q69 909 84.50 904Q100 899 116 887Q129 877 140.50 871Q152 865 161 865Q183 865 187.50 884Q192 903 192 915L262 915Q263 861 236.50 828.50Q210 796 165 796Q151 796 135.50 800Q120 804 101 817Q84 829 74.50 834Q65 839 56 839Q35 839 30.50 821Q26 803 26 790L-44 790Q-45 844-17 876.50Q11 909 55 909M62 710L156 710L156 0L62 0L62 710Z"  horiz-adv-x="218" vert-adv-y="1000"  />

      
      <glyph glyph-name="uni4a" unicode="&#x4a;" d="M467 710L467 198Q467 104 409 47Q351-10 252-10Q153-10 95 47.50Q37 105 37 198L37 302L130 302L130 200Q130 140 161 105Q192 70 252 70Q312 70 342.50 106Q373 142 373 205L373 710L467 710Z"  horiz-adv-x="527" vert-adv-y="1000"  />

      
      <glyph glyph-name="uni0134" unicode="&#x0134;" d="M372 946L472 946L586 797L496 797L422 892L348 797L258 797L372 946M467 710L467 198Q467 104 409 47Q351-10 252-10Q153-10 95 47.50Q37 105 37 198L37 302L130 302L130 200Q130 140 161 105Q192 70 252 70Q312 70 342.50 106Q373 142 373 205L373 710L467 710Z"  horiz-adv-x="527" vert-adv-y="1000"  />

      
      <glyph glyph-name="uni4b" unicode="&#x4b;" d="M62 710L156 710L156 364L482 710L597 710L257 352L614 0L488 0L156 331L156 0L62 0L62 710Z"  horiz-adv-x="602" vert-adv-y="1000"  />

      
      <glyph glyph-name="uni0136" unicode="&#x0136;" d="M62 710L156 710L156 364L482 710L597 710L257 352L614 0L488 0L156 331L156 0L62 0L62 710M227-235Q262-231 285.50-215Q309-199 316-173Q310-176 303.50-177Q297-178 291-178Q265-178 250.50-161.50Q236-145 236-122Q236-97 254-80Q272-63 298-63Q330-63 350-83.50Q370-104 370-141Q370-196 329.50-231Q289-266 227-272L227-235Z"  horiz-adv-x="602" vert-adv-y="1000"  />

      
      <glyph glyph-name="uni4c" unicode="&#x4c;" d="M495 79L495 0L62 0L62 710L156 710L156 79L495 79Z"  horiz-adv-x="534" vert-adv-y="1000"  />

      
      <glyph glyph-name="uni0139" unicode="&#x0139;" d="M276 939L144 791L52 791L159 939L276 939M495 79L495 0L62 0L62 710L156 710L156 79L495 79Z"  horiz-adv-x="534" vert-adv-y="1000"  />

      
      <glyph glyph-name="uni013D" unicode="&#x013D;" d="M495 79L495 0L62 0L62 710L156 710L156 79L495 79M325 710L428 710L386 511L306 511L325 710Z"  horiz-adv-x="534" vert-adv-y="1000"  />

      
      <glyph glyph-name="uni013B" unicode="&#x013B;" d="M495 79L495 0L62 0L62 710L156 710L156 79L495 79M209-235Q244-231 267.50-215Q291-199 298-173Q292-176 285.50-177Q279-178 273-178Q247-178 232.50-161.50Q218-145 218-122Q218-97 236-80Q254-63 280-63Q312-63 332-83.50Q352-104 352-141Q352-196 311.50-231Q271-266 209-272L209-235Z"  horiz-adv-x="534" vert-adv-y="1000"  />

      
      <glyph glyph-name="uni013F" unicode="&#x013F;" d="M495 79L495 0L62 0L62 710L156 710L156 79L495 79M376 436Q404 436 422.50 418Q441 400 441 372Q441 344 422.50 325.50Q404 307 376 307Q348 307 329.50 325.50Q311 344 311 372Q311 400 329.50 418Q348 436 376 436Z"  horiz-adv-x="534" vert-adv-y="1000"  />

      
      <glyph glyph-name="uni1E36" unicode="&#x1E36;" d="M495 79L495 0L62 0L62 710L156 710L156 79L495 79M219-134Q219-106 237.50-88Q256-70 284-70Q312-70 330.50-88Q349-106 349-134Q349-162 330.50-180.50Q312-199 284-199Q256-199 237.50-180.50Q219-162 219-134Z"  horiz-adv-x="534" vert-adv-y="1000"  />

      
      <glyph glyph-name="uni0141" unicode="&#x0141;" d="M19 256L97 306L97 710L191 710L191 367L375 486L375 398L191 279L191 79L530 79L530 0L97 0L97 218L19 167L19 256Z"  horiz-adv-x="569" vert-adv-y="1000"  />

      
      <glyph glyph-name="uni4d" unicode="&#x4d;" d="M381 123L152 584L152 0L62 0L62 710L180 710L402 262L624 710L741 710L741 0L651 0L651 584L422 123L381 123Z"  horiz-adv-x="803" vert-adv-y="1000"  />

      
      <glyph glyph-name="uni4e" unicode="&#x4e;" d="M549 0L154 587L154 0L62 0L62 710L176 710L563 134L563 710L655 710L655 0L549 0Z"  horiz-adv-x="717" vert-adv-y="1000"  />

      
      <glyph glyph-name="uni0143" unicode="&#x0143;" d="M528 939L396 791L304 791L411 939L528 939M549 0L154 587L154 0L62 0L62 710L176 710L563 134L563 710L655 710L655 0L549 0Z"  horiz-adv-x="717" vert-adv-y="1000"  />

      
      <glyph glyph-name="uni0147" unicode="&#x0147;" d="M309 791L195 940L285 940L359 844L433 940L523 940L409 791L309 791M549 0L154 587L154 0L62 0L62 710L176 710L563 134L563 710L655 710L655 0L549 0Z"  horiz-adv-x="717" vert-adv-y="1000"  />

      
      <glyph glyph-name="uni0145" unicode="&#x0145;" d="M549 0L154 587L154 0L62 0L62 710L176 710L563 134L563 710L655 710L655 0L549 0M284-235Q319-231 342.50-215Q366-199 373-173Q367-176 360.50-177Q354-178 348-178Q322-178 307.50-161.50Q293-145 293-122Q293-97 311-80Q329-63 355-63Q387-63 407-83.50Q427-104 427-141Q427-196 386.50-231Q346-266 284-272L284-235Z"  horiz-adv-x="717" vert-adv-y="1000"  />

      
      <glyph glyph-name="uni1E46" unicode="&#x1E46;" d="M549 0L154 587L154 0L62 0L62 710L176 710L563 134L563 710L655 710L655 0L549 0M294-134Q294-106 312.50-88Q331-70 359-70Q387-70 405.50-88Q424-106 424-134Q424-162 405.50-180.50Q387-199 359-199Q331-199 312.50-180.50Q294-162 294-134Z"  horiz-adv-x="717" vert-adv-y="1000"  />

      
      <glyph glyph-name="uni019D" unicode="&#x019D;" d="M-22-98L-1-98Q30-98 46-80.50Q62-63 62-35L62 710L176 710L563 134L563 710L655 710L655 0L549 0L154 587L154-37Q154-97 113-133.50Q72-170 6-170L-22-170L-22-98Z"  horiz-adv-x="717" vert-adv-y="1000"  />

      
      <glyph glyph-name="unid1" unicode="&#xd1;" d="M305 909Q319 909 334.50 904Q350 899 366 887Q379 877 390.50 871Q402 865 411 865Q433 865 437.50 884Q442 903 442 915L512 915Q513 861 486.50 828.50Q460 796 415 796Q401 796 385.50 800Q370 804 351 817Q334 829 324.50 834Q315 839 306 839Q285 839 280.50 821Q276 803 276 790L206 790Q205 844 233 876.50Q261 909 305 909M549 0L154 587L154 0L62 0L62 710L176 710L563 134L563 710L655 710L655 0L549 0Z"  horiz-adv-x="717" vert-adv-y="1000"  />

      
      <glyph glyph-name="uni4f" unicode="&#x4f;" d="M356-10Q286-10 227 15.50Q168 41 125.50 88Q83 135 59 203Q35 271 35 355Q35 439 59 507Q83 575 125.50 622Q168 669 227 694.50Q286 720 356 720Q426 720 485 694.50Q544 669 586.50 622Q629 575 653 507Q677 439 677 355Q677 271 653 203Q629 135 586.50 88Q544 41 485 15.50Q426-10 356-10M356 70Q455 70 518.50 139Q582 208 582 332L582 378Q582 502 518.50 571.50Q455 641 356 641Q257 641 194 571.50Q131 502 131 378L131 332Q131 208 194 139Q257 70 356 70Z"  horiz-adv-x="712" vert-adv-y="1000"  />

      
      <glyph glyph-name="uni0152" unicode="&#x0152;" d="M356-10Q286-10 227 15.50Q168 41 125.50 88Q83 135 59 203Q35 271 35 355Q35 439 59 507Q83 575 125.50 622Q168 669 227 694.50Q286 720 356 720Q423 720 482 693Q541 666 582 610L582 710L1026 710L1026 632L676 632L676 412L1005 412L1005 335L676 335L676 78L1033 78L1033 0L582 0L582 101Q541 45 482 17.50Q423-10 356-10M356 70Q455 70 518.50 139Q582 208 582 332L582 378Q582 502 518.50 571.50Q455 641 356 641Q257 641 194 571.50Q131 502 131 378L131 332Q131 208 194 139Q257 70 356 70Z"  horiz-adv-x="1069" vert-adv-y="1000"  />

      
      <glyph glyph-name="unid3" unicode="&#xd3;" d="M525 939L393 791L301 791L408 939L525 939M356-10Q286-10 227 15.50Q168 41 125.50 88Q83 135 59 203Q35 271 35 355Q35 439 59 507Q83 575 125.50 622Q168 669 227 694.50Q286 720 356 720Q426 720 485 694.50Q544 669 586.50 622Q629 575 653 507Q677 439 677 355Q677 271 653 203Q629 135 586.50 88Q544 41 485 15.50Q426-10 356-10M356 70Q455 70 518.50 139Q582 208 582 332L582 378Q582 502 518.50 571.50Q455 641 356 641Q257 641 194 571.50Q131 502 131 378L131 332Q131 208 194 139Q257 70 356 70Z"  horiz-adv-x="712" vert-adv-y="1000"  />

      
      <glyph glyph-name="uni014E" unicode="&#x014E;" d="M213 932L291 932Q291 893 310 874Q329 855 357 855Q385 855 404 874Q423 893 423 932L501 932Q501 866 461.50 826.50Q422 787 357 787Q292 787 252.50 826.50Q213 866 213 932M356-10Q286-10 227 15.50Q168 41 125.50 88Q83 135 59 203Q35 271 35 355Q35 439 59 507Q83 575 125.50 622Q168 669 227 694.50Q286 720 356 720Q426 720 485 694.50Q544 669 586.50 622Q629 575 653 507Q677 439 677 355Q677 271 653 203Q629 135 586.50 88Q544 41 485 15.50Q426-10 356-10M356 70Q455 70 518.50 139Q582 208 582 332L582 378Q582 502 518.50 571.50Q455 641 356 641Q257 641 194 571.50Q131 502 131 378L131 332Q131 208 194 139Q257 70 356 70Z"  horiz-adv-x="712" vert-adv-y="1000"  />

      
      <glyph glyph-name="unid4" unicode="&#xd4;" d="M307 946L407 946L521 797L431 797L357 892L283 797L193 797L307 946M356-10Q286-10 227 15.50Q168 41 125.50 88Q83 135 59 203Q35 271 35 355Q35 439 59 507Q83 575 125.50 622Q168 669 227 694.50Q286 720 356 720Q426 720 485 694.50Q544 669 586.50 622Q629 575 653 507Q677 439 677 355Q677 271 653 203Q629 135 586.50 88Q544 41 485 15.50Q426-10 356-10M356 70Q455 70 518.50 139Q582 208 582 332L582 378Q582 502 518.50 571.50Q455 641 356 641Q257 641 194 571.50Q131 502 131 378L131 332Q131 208 194 139Q257 70 356 70Z"  horiz-adv-x="712" vert-adv-y="1000"  />

      
      <glyph glyph-name="unid6" unicode="&#xd6;" d="M204 850Q204 875 221.50 892.50Q239 910 264 910Q289 910 306.50 892.50Q324 875 324 850Q324 825 306.50 807.50Q289 790 264 790Q239 790 221.50 807.50Q204 825 204 850M390 850Q390 875 407.50 892.50Q425 910 450 910Q475 910 492.50 892.50Q510 875 510 850Q510 825 492.50 807.50Q475 790 450 790Q425 790 407.50 807.50Q390 825 390 850M356-10Q286-10 227 15.50Q168 41 125.50 88Q83 135 59 203Q35 271 35 355Q35 439 59 507Q83 575 125.50 622Q168 669 227 694.50Q286 720 356 720Q426 720 485 694.50Q544 669 586.50 622Q629 575 653 507Q677 439 677 355Q677 271 653 203Q629 135 586.50 88Q544 41 485 15.50Q426-10 356-10M356 70Q455 70 518.50 139Q582 208 582 332L582 378Q582 502 518.50 571.50Q455 641 356 641Q257 641 194 571.50Q131 502 131 378L131 332Q131 208 194 139Q257 70 356 70Z"  horiz-adv-x="712" vert-adv-y="1000"  />

      
      <glyph glyph-name="uni1ECC" unicode="&#x1ECC;" d="M356-10Q286-10 227 15.50Q168 41 125.50 88Q83 135 59 203Q35 271 35 355Q35 439 59 507Q83 575 125.50 622Q168 669 227 694.50Q286 720 356 720Q426 720 485 694.50Q544 669 586.50 622Q629 575 653 507Q677 439 677 355Q677 271 653 203Q629 135 586.50 88Q544 41 485 15.50Q426-10 356-10M356 70Q455 70 518.50 139Q582 208 582 332L582 378Q582 502 518.50 571.50Q455 641 356 641Q257 641 194 571.50Q131 502 131 378L131 332Q131 208 194 139Q257 70 356 70M312-134Q312-106 330.50-88Q349-70 377-70Q405-70 423.50-88Q442-106 442-134Q442-162 423.50-180.50Q405-199 377-199Q349-199 330.50-180.50Q312-162 312-134Z"  horiz-adv-x="712" vert-adv-y="1000"  />

      
      <glyph glyph-name="unid2" unicode="&#xd2;" d="M188 939L304 939L412 791L319 791L188 939M356-10Q286-10 227 15.50Q168 41 125.50 88Q83 135 59 203Q35 271 35 355Q35 439 59 507Q83 575 125.50 622Q168 669 227 694.50Q286 720 356 720Q426 720 485 694.50Q544 669 586.50 622Q629 575 653 507Q677 439 677 355Q677 271 653 203Q629 135 586.50 88Q544 41 485 15.50Q426-10 356-10M356 70Q455 70 518.50 139Q582 208 582 332L582 378Q582 502 518.50 571.50Q455 641 356 641Q257 641 194 571.50Q131 502 131 378L131 332Q131 208 194 139Q257 70 356 70Z"  horiz-adv-x="712" vert-adv-y="1000"  />

      
      <glyph glyph-name="uni0150" unicode="&#x0150;" d="M299 934L405 934L314 795L230 795L299 934M460 934L566 934L475 795L391 795L460 934M356-10Q286-10 227 15.50Q168 41 125.50 88Q83 135 59 203Q35 271 35 355Q35 439 59 507Q83 575 125.50 622Q168 669 227 694.50Q286 720 356 720Q426 720 485 694.50Q544 669 586.50 622Q629 575 653 507Q677 439 677 355Q677 271 653 203Q629 135 586.50 88Q544 41 485 15.50Q426-10 356-10M356 70Q455 70 518.50 139Q582 208 582 332L582 378Q582 502 518.50 571.50Q455 641 356 641Q257 641 194 571.50Q131 502 131 378L131 332Q131 208 194 139Q257 70 356 70Z"  horiz-adv-x="712" vert-adv-y="1000"  />

      
      <glyph glyph-name="uni014C" unicode="&#x014C;" d="M222 885L492 885L492 812L222 812L222 885M356-10Q286-10 227 15.50Q168 41 125.50 88Q83 135 59 203Q35 271 35 355Q35 439 59 507Q83 575 125.50 622Q168 669 227 694.50Q286 720 356 720Q426 720 485 694.50Q544 669 586.50 622Q629 575 653 507Q677 439 677 355Q677 271 653 203Q629 135 586.50 88Q544 41 485 15.50Q426-10 356-10M356 70Q455 70 518.50 139Q582 208 582 332L582 378Q582 502 518.50 571.50Q455 641 356 641Q257 641 194 571.50Q131 502 131 378L131 332Q131 208 194 139Q257 70 356 70Z"  horiz-adv-x="712" vert-adv-y="1000"  />

      
      <glyph glyph-name="uni01EA" unicode="&#x01EA;" d="M441-196Q431-200 415-203Q399-206 384-206Q331-206 299-182Q267-158 267-116Q267-94 280-66Q293-38 342-13L342-9Q271-6 214.50 22Q158 50 118.50 97.50Q79 145 57.50 210.50Q36 276 36 355Q36 439 60 507Q84 575 126.50 622Q169 669 228 694.50Q287 720 357 720Q427 720 486 694.50Q545 669 587.50 622Q630 575 654 507Q678 439 678 355Q678 280 659.50 221Q641 162 611 119Q581 76 541.50 48Q502 20 461 6Q407-12 375.50-42Q344-72 344-97Q344-116 357.50-128.50Q371-141 402-141Q418-141 426-138Q434-135 441-131L441-196M357 70Q456 70 519.50 139Q583 208 583 332L583 378Q583 502 519.50 571.50Q456 641 357 641Q258 641 195 571.50Q132 502 132 378L132 332Q132 208 195 139Q258 70 357 70Z"  horiz-adv-x="713" vert-adv-y="1000"  />

      
      <glyph glyph-name="unid8" unicode="&#xd8;" d="M6 26L97 124Q68 169 51.50 227.50Q35 286 35 355Q35 439 59 507Q83 575 125.50 622Q168 669 227 694.50Q286 720 356 720Q421 720 476.50 698Q532 676 574 635L661 729L714 677L621 577Q648 533 662.50 477Q677 421 677 355Q677 271 653 203Q629 135 586.50 88Q544 41 485 15.50Q426-10 356-10Q294-10 240.50 10Q187 30 146 67L60-26L6 26M129 332Q129 290 137 254Q145 218 158 190L518 575Q487 607 446 624Q405 641 356 641Q307 641 265 623Q223 605 193 571.50Q163 538 146 489Q129 440 129 378L129 332M356 70Q406 70 448 87.50Q490 105 520 138.50Q550 172 567 221Q584 270 584 332L584 378Q584 416 577.50 449.50Q571 483 559 511L203 128Q232 100 271 85Q310 70 356 70Z"  horiz-adv-x="712" vert-adv-y="1000"  />

      
      <glyph glyph-name="uni01FE" unicode="&#x01FE;" d="M525 939L393 791L301 791L408 939L525 939M6 26L97 124Q68 169 51.50 227.50Q35 286 35 355Q35 439 59 507Q83 575 125.50 622Q168 669 227 694.50Q286 720 356 720Q421 720 476.50 698Q532 676 574 635L661 729L714 677L621 577Q648 533 662.50 477Q677 421 677 355Q677 271 653 203Q629 135 586.50 88Q544 41 485 15.50Q426-10 356-10Q294-10 240.50 10Q187 30 146 67L60-26L6 26M129 332Q129 290 137 254Q145 218 158 190L518 575Q487 607 446 624Q405 641 356 641Q307 641 265 623Q223 605 193 571.50Q163 538 146 489Q129 440 129 378L129 332M356 70Q406 70 448 87.50Q490 105 520 138.50Q550 172 567 221Q584 270 584 332L584 378Q584 416 577.50 449.50Q571 483 559 511L203 128Q232 100 271 85Q310 70 356 70Z"  horiz-adv-x="712" vert-adv-y="1000"  />

      
      <glyph glyph-name="unid5" unicode="&#xd5;" d="M303 909Q317 909 332.50 904Q348 899 364 887Q377 877 388.50 871Q400 865 409 865Q431 865 435.50 884Q440 903 440 915L510 915Q511 861 484.50 828.50Q458 796 413 796Q399 796 383.50 800Q368 804 349 817Q332 829 322.50 834Q313 839 304 839Q283 839 278.50 821Q274 803 274 790L204 790Q203 844 231 876.50Q259 909 303 909M356-10Q286-10 227 15.50Q168 41 125.50 88Q83 135 59 203Q35 271 35 355Q35 439 59 507Q83 575 125.50 622Q168 669 227 694.50Q286 720 356 720Q426 720 485 694.50Q544 669 586.50 622Q629 575 653 507Q677 439 677 355Q677 271 653 203Q629 135 586.50 88Q544 41 485 15.50Q426-10 356-10M356 70Q455 70 518.50 139Q582 208 582 332L582 378Q582 502 518.50 571.50Q455 641 356 641Q257 641 194 571.50Q131 502 131 378L131 332Q131 208 194 139Q257 70 356 70Z"  horiz-adv-x="712" vert-adv-y="1000"  />

      
      <glyph glyph-name="uni50" unicode="&#x50;" d="M62 710L328 710Q446 710 510 649.50Q574 589 574 486Q574 382 510 321.50Q446 261 328 261L156 261L156 0L62 0L62 710M321 338Q395 338 436.50 371.50Q478 405 478 486Q478 565 436.50 599Q395 633 321 633L156 633L156 338L321 338Z"  horiz-adv-x="588" vert-adv-y="1000"  />

      
      <glyph glyph-name="uni51" unicode="&#x51;" d="M356-10Q286-10 227 15.50Q168 41 125.50 88Q83 135 59 203Q35 271 35 355Q35 439 59 507Q83 575 125.50 622Q168 669 227 694.50Q286 720 356 720Q426 720 485 694.50Q544 669 586.50 622Q629 575 653 507Q677 439 677 355Q677 262 648 189.50Q619 117 569 70L648-31L580-87L495 20Q464 5 429-2.50Q394-10 356-10M356 70Q455 70 518.50 139Q582 208 582 332L582 378Q582 502 518.50 571.50Q455 641 356 641Q257 641 194 571.50Q131 502 131 378L131 332Q131 208 194 139Q257 70 356 70Z"  horiz-adv-x="712" vert-adv-y="1000"  />

      
      <glyph glyph-name="uni52" unicode="&#x52;" d="M62 710L371 710Q474 710 529 656.50Q584 603 584 512Q584 450 555.50 409Q527 368 476 347Q525 332 547 297Q569 262 569 203L569 0L475 0L475 196Q475 254 451 280.50Q427 307 371 307L156 307L156 0L62 0L62 710M360 384Q414 384 451 414.50Q488 445 488 509Q488 572 451 602.50Q414 633 360 633L156 633L156 384L360 384Z"  horiz-adv-x="623" vert-adv-y="1000"  />

      
      <glyph glyph-name="uni0154" unicode="&#x0154;" d="M473 939L341 791L249 791L356 939L473 939M62 710L371 710Q474 710 529 656.50Q584 603 584 512Q584 450 555.50 409Q527 368 476 347Q525 332 547 297Q569 262 569 203L569 0L475 0L475 196Q475 254 451 280.50Q427 307 371 307L156 307L156 0L62 0L62 710M360 384Q414 384 451 414.50Q488 445 488 509Q488 572 451 602.50Q414 633 360 633L156 633L156 384L360 384Z"  horiz-adv-x="623" vert-adv-y="1000"  />

      
      <glyph glyph-name="uni0158" unicode="&#x0158;" d="M255 791L141 940L231 940L305 844L379 940L469 940L355 791L255 791M62 710L371 710Q474 710 529 656.50Q584 603 584 512Q584 450 555.50 409Q527 368 476 347Q525 332 547 297Q569 262 569 203L569 0L475 0L475 196Q475 254 451 280.50Q427 307 371 307L156 307L156 0L62 0L62 710M360 384Q414 384 451 414.50Q488 445 488 509Q488 572 451 602.50Q414 633 360 633L156 633L156 384L360 384Z"  horiz-adv-x="623" vert-adv-y="1000"  />

      
      <glyph glyph-name="uni0156" unicode="&#x0156;" d="M62 710L371 710Q474 710 529 656.50Q584 603 584 512Q584 450 555.50 409Q527 368 476 347Q525 332 547 297Q569 262 569 203L569 0L475 0L475 196Q475 254 451 280.50Q427 307 371 307L156 307L156 0L62 0L62 710M360 384Q414 384 451 414.50Q488 445 488 509Q488 572 451 602.50Q414 633 360 633L156 633L156 384L360 384M240-235Q275-231 298.50-215Q322-199 329-173Q323-176 316.50-177Q310-178 304-178Q278-178 263.50-161.50Q249-145 249-122Q249-97 267-80Q285-63 311-63Q343-63 363-83.50Q383-104 383-141Q383-196 342.50-231Q302-266 240-272L240-235Z"  horiz-adv-x="623" vert-adv-y="1000"  />

      
      <glyph glyph-name="uni1E5A" unicode="&#x1E5A;" d="M62 710L371 710Q474 710 529 656.50Q584 603 584 512Q584 450 555.50 409Q527 368 476 347Q525 332 547 297Q569 262 569 203L569 0L475 0L475 196Q475 254 451 280.50Q427 307 371 307L156 307L156 0L62 0L62 710M360 384Q414 384 451 414.50Q488 445 488 509Q488 572 451 602.50Q414 633 360 633L156 633L156 384L360 384M250-134Q250-106 268.50-88Q287-70 315-70Q343-70 361.50-88Q380-106 380-134Q380-162 361.50-180.50Q343-199 315-199Q287-199 268.50-180.50Q250-162 250-134Z"  horiz-adv-x="623" vert-adv-y="1000"  />

      
      <glyph glyph-name="uni53" unicode="&#x53;" d="M19 208L116 208Q126 145 170.50 106.50Q215 68 295 68Q329 68 359.50 75.50Q390 83 413 98.50Q436 114 450 138.50Q464 163 464 197Q464 250 437.50 277Q411 304 352 310L218 324Q129 333 82 379.50Q35 426 35 507Q35 553 53 592Q71 631 104 659.50Q137 688 183.50 704Q230 720 287 720Q347 720 392.50 703Q438 686 469 659.50Q500 633 518 599Q536 565 542 531L445 531Q435 582 393 612Q351 642 284 642Q219 642 172.50 609Q126 576 126 513Q126 464 154 438.50Q182 413 244 406L378 391Q466 381 511.50 331Q557 281 557 205Q557 156 538 116Q519 76 485 48Q451 20 403 5Q355-10 298-10Q233-10 183 7.50Q133 25 99 55Q65 85 45 124.50Q25 164 19 208Z"  horiz-adv-x="585" vert-adv-y="1000"  />

      
      <glyph glyph-name="uni015A" unicode="&#x015A;" d="M450 939L318 791L226 791L333 939L450 939M19 208L116 208Q126 145 170.50 106.50Q215 68 295 68Q329 68 359.50 75.50Q390 83 413 98.50Q436 114 450 138.50Q464 163 464 197Q464 250 437.50 277Q411 304 352 310L218 324Q129 333 82 379.50Q35 426 35 507Q35 553 53 592Q71 631 104 659.50Q137 688 183.50 704Q230 720 287 720Q347 720 392.50 703Q438 686 469 659.50Q500 633 518 599Q536 565 542 531L445 531Q435 582 393 612Q351 642 284 642Q219 642 172.50 609Q126 576 126 513Q126 464 154 438.50Q182 413 244 406L378 391Q466 381 511.50 331Q557 281 557 205Q557 156 538 116Q519 76 485 48Q451 20 403 5Q355-10 298-10Q233-10 183 7.50Q133 25 99 55Q65 85 45 124.50Q25 164 19 208Z"  horiz-adv-x="585" vert-adv-y="1000"  />

      
      <glyph glyph-name="uni0160" unicode="&#x0160;" d="M236 791L122 940L212 940L286 844L360 940L450 940L336 791L236 791M19 208L116 208Q126 145 170.50 106.50Q215 68 295 68Q329 68 359.50 75.50Q390 83 413 98.50Q436 114 450 138.50Q464 163 464 197Q464 250 437.50 277Q411 304 352 310L218 324Q129 333 82 379.50Q35 426 35 507Q35 553 53 592Q71 631 104 659.50Q137 688 183.50 704Q230 720 287 720Q347 720 392.50 703Q438 686 469 659.50Q500 633 518 599Q536 565 542 531L445 531Q435 582 393 612Q351 642 284 642Q219 642 172.50 609Q126 576 126 513Q126 464 154 438.50Q182 413 244 406L378 391Q466 381 511.50 331Q557 281 557 205Q557 156 538 116Q519 76 485 48Q451 20 403 5Q355-10 298-10Q233-10 183 7.50Q133 25 99 55Q65 85 45 124.50Q25 164 19 208Z"  horiz-adv-x="585" vert-adv-y="1000"  />

      
      <glyph glyph-name="uni015E" unicode="&#x015E;" d="M19 208L116 208Q126 145 170.50 106.50Q215 68 295 68Q329 68 359.50 75.50Q390 83 413 98.50Q436 114 450 138.50Q464 163 464 197Q464 250 437.50 277Q411 304 352 310L218 324Q129 333 82 379.50Q35 426 35 507Q35 553 53 592Q71 631 104 659.50Q137 688 183.50 704Q230 720 287 720Q347 720 392.50 703Q438 686 469 659.50Q500 633 518 599Q536 565 542 531L445 531Q435 582 393 612Q351 642 284 642Q219 642 172.50 609Q126 576 126 513Q126 464 154 438.50Q182 413 244 406L378 391Q466 381 511.50 331Q557 281 557 205Q557 111 489 52.50Q421-6 314-10L289-53Q296-52 301-51.50Q306-51 308-51Q348-51 373.50-74.50Q399-98 399-140Q399-181 368.50-207Q338-233 289-233Q240-233 208-208Q176-183 176-149L238-149Q239-160 252.50-169.50Q266-179 288-179Q310-179 323.50-169Q337-159 337-140Q337-121 323.50-111.50Q310-102 290-102Q278-102 268.50-106Q259-110 251-114L215-90L261-8Q205-3 162 16Q119 35 89 64Q59 93 42 130.50Q25 168 19 208Z"  horiz-adv-x="585" vert-adv-y="1000"  />

      
      <glyph glyph-name="uni018F" unicode="&#x018F;" d="M34 368L34 393L570 393Q569 512 506.50 576Q444 640 349 640Q268 640 216 603Q164 566 142 503L46 503Q58 545 84 584Q110 623 148 653Q186 683 236.50 701Q287 719 349 719Q419 719 477.50 693.50Q536 668 577.50 621Q619 574 642 506.50Q665 439 665 355Q665 271 641.50 203.50Q618 136 576 88.50Q534 41 475.50 15.50Q417-10 348-10Q274-10 215.50 16.50Q157 43 117 92Q77 141 55.50 211Q34 281 34 368M349 69Q397 69 437.50 85.50Q478 102 507.50 133.50Q537 165 553.50 211Q570 257 570 316L130 316Q132 198 191 133.50Q250 69 349 69Z"  horiz-adv-x="700" vert-adv-y="1000"  />

      
      <glyph glyph-name="uni015C" unicode="&#x015C;" d="M236 946L336 946L450 797L360 797L286 892L212 797L122 797L236 946M19 208L116 208Q126 145 170.50 106.50Q215 68 295 68Q329 68 359.50 75.50Q390 83 413 98.50Q436 114 450 138.50Q464 163 464 197Q464 250 437.50 277Q411 304 352 310L218 324Q129 333 82 379.50Q35 426 35 507Q35 553 53 592Q71 631 104 659.50Q137 688 183.50 704Q230 720 287 720Q347 720 392.50 703Q438 686 469 659.50Q500 633 518 599Q536 565 542 531L445 531Q435 582 393 612Q351 642 284 642Q219 642 172.50 609Q126 576 126 513Q126 464 154 438.50Q182 413 244 406L378 391Q466 381 511.50 331Q557 281 557 205Q557 156 538 116Q519 76 485 48Q451 20 403 5Q355-10 298-10Q233-10 183 7.50Q133 25 99 55Q65 85 45 124.50Q25 164 19 208Z"  horiz-adv-x="585" vert-adv-y="1000"  />

      
      <glyph glyph-name="uni54" unicode="&#x54;" d="M573 710L573 632L340 632L340 0L245 0L245 632L12 632L12 710L573 710Z"  horiz-adv-x="585" vert-adv-y="1000"  />

      
      <glyph glyph-name="uni0166" unicode="&#x0166;" d="M92 392L245 392L245 632L12 632L12 710L573 710L573 632L340 632L340 392L493 392L493 318L340 318L340 0L245 0L245 318L92 318L92 392Z"  horiz-adv-x="585" vert-adv-y="1000"  />

      
      <glyph glyph-name="uni0164" unicode="&#x0164;" d="M243 791L129 940L219 940L293 844L367 940L457 940L343 791L243 791M573 710L573 632L340 632L340 0L245 0L245 632L12 632L12 710L573 710Z"  horiz-adv-x="585" vert-adv-y="1000"  />

      
      <glyph glyph-name="uni1E6C" unicode="&#x1E6C;" d="M573 710L573 632L340 632L340 0L245 0L245 632L12 632L12 710L573 710M228-134Q228-106 246.50-88Q265-70 293-70Q321-70 339.50-88Q358-106 358-134Q358-162 339.50-180.50Q321-199 293-199Q265-199 246.50-180.50Q228-162 228-134Z"  horiz-adv-x="585" vert-adv-y="1000"  />

      
      <glyph glyph-name="unide" unicode="&#xde;" d="M62 710L156 710L156 582L327 582Q445 582 509 524Q573 466 573 367Q573 268 509 210.50Q445 153 327 153L156 153L156 0L62 0L62 710M320 505L156 505L156 230L320 230Q394 230 435.50 261Q477 292 477 367Q477 442 435.50 473.50Q394 505 320 505Z"  horiz-adv-x="587" vert-adv-y="1000"  />

      
      <glyph glyph-name="uni55" unicode="&#x55;" d="M59 710L153 710L153 260Q153 172 198.50 121Q244 70 333 70Q422 70 467.50 121Q513 172 513 260L513 710L607 710L607 257Q607 198 588 148.50Q569 99 534 64Q499 29 448 9.50Q397-10 333-10Q269-10 218 9.50Q167 29 132 64Q97 99 78 148.50Q59 198 59 257L59 710Z"  horiz-adv-x="666" vert-adv-y="1000"  />

      
      <glyph glyph-name="unida" unicode="&#xda;" d="M501 939L369 791L277 791L384 939L501 939M59 710L153 710L153 260Q153 172 198.50 121Q244 70 333 70Q422 70 467.50 121Q513 172 513 260L513 710L607 710L607 257Q607 198 588 148.50Q569 99 534 64Q499 29 448 9.50Q397-10 333-10Q269-10 218 9.50Q167 29 132 64Q97 99 78 148.50Q59 198 59 257L59 710Z"  horiz-adv-x="666" vert-adv-y="1000"  />

      
      <glyph glyph-name="uni016C" unicode="&#x016C;" d="M189 932L267 932Q267 893 286 874Q305 855 333 855Q361 855 380 874Q399 893 399 932L477 932Q477 866 437.50 826.50Q398 787 333 787Q268 787 228.50 826.50Q189 866 189 932M59 710L153 710L153 260Q153 172 198.50 121Q244 70 333 70Q422 70 467.50 121Q513 172 513 260L513 710L607 710L607 257Q607 198 588 148.50Q569 99 534 64Q499 29 448 9.50Q397-10 333-10Q269-10 218 9.50Q167 29 132 64Q97 99 78 148.50Q59 198 59 257L59 710Z"  horiz-adv-x="666" vert-adv-y="1000"  />

      
      <glyph glyph-name="unidb" unicode="&#xdb;" d="M283 946L383 946L497 797L407 797L333 892L259 797L169 797L283 946M59 710L153 710L153 260Q153 172 198.50 121Q244 70 333 70Q422 70 467.50 121Q513 172 513 260L513 710L607 710L607 257Q607 198 588 148.50Q569 99 534 64Q499 29 448 9.50Q397-10 333-10Q269-10 218 9.50Q167 29 132 64Q97 99 78 148.50Q59 198 59 257L59 710Z"  horiz-adv-x="666" vert-adv-y="1000"  />

      
      <glyph glyph-name="unidc" unicode="&#xdc;" d="M180 850Q180 875 197.50 892.50Q215 910 240 910Q265 910 282.50 892.50Q300 875 300 850Q300 825 282.50 807.50Q265 790 240 790Q215 790 197.50 807.50Q180 825 180 850M366 850Q366 875 383.50 892.50Q401 910 426 910Q451 910 468.50 892.50Q486 875 486 850Q486 825 468.50 807.50Q451 790 426 790Q401 790 383.50 807.50Q366 825 366 850M59 710L153 710L153 260Q153 172 198.50 121Q244 70 333 70Q422 70 467.50 121Q513 172 513 260L513 710L607 710L607 257Q607 198 588 148.50Q569 99 534 64Q499 29 448 9.50Q397-10 333-10Q269-10 218 9.50Q167 29 132 64Q97 99 78 148.50Q59 198 59 257L59 710Z"  horiz-adv-x="666" vert-adv-y="1000"  />

      
      <glyph glyph-name="uni1EE4" unicode="&#x1EE4;" d="M59 710L153 710L153 260Q153 172 198.50 121Q244 70 333 70Q422 70 467.50 121Q513 172 513 260L513 710L607 710L607 257Q607 198 588 148.50Q569 99 534 64Q499 29 448 9.50Q397-10 333-10Q269-10 218 9.50Q167 29 132 64Q97 99 78 148.50Q59 198 59 257L59 710M268-133Q268-105 286.50-87Q305-69 333-69Q361-69 379.50-87Q398-105 398-133Q398-161 379.50-179.50Q361-198 333-198Q305-198 286.50-179.50Q268-161 268-133Z"  horiz-adv-x="666" vert-adv-y="1000"  />

      
      <glyph glyph-name="unid9" unicode="&#xd9;" d="M164 939L280 939L388 791L295 791L164 939M59 710L153 710L153 260Q153 172 198.50 121Q244 70 333 70Q422 70 467.50 121Q513 172 513 260L513 710L607 710L607 257Q607 198 588 148.50Q569 99 534 64Q499 29 448 9.50Q397-10 333-10Q269-10 218 9.50Q167 29 132 64Q97 99 78 148.50Q59 198 59 257L59 710Z"  horiz-adv-x="666" vert-adv-y="1000"  />

      
      <glyph glyph-name="uni0170" unicode="&#x0170;" d="M274 934L380 934L289 795L205 795L274 934M435 934L541 934L450 795L366 795L435 934M59 710L153 710L153 260Q153 172 198.50 121Q244 70 333 70Q422 70 467.50 121Q513 172 513 260L513 710L607 710L607 257Q607 198 588 148.50Q569 99 534 64Q499 29 448 9.50Q397-10 333-10Q269-10 218 9.50Q167 29 132 64Q97 99 78 148.50Q59 198 59 257L59 710Z"  horiz-adv-x="666" vert-adv-y="1000"  />

      
      <glyph glyph-name="uni016A" unicode="&#x016A;" d="M198 885L468 885L468 812L198 812L198 885M59 710L153 710L153 260Q153 172 198.50 121Q244 70 333 70Q422 70 467.50 121Q513 172 513 260L513 710L607 710L607 257Q607 198 588 148.50Q569 99 534 64Q499 29 448 9.50Q397-10 333-10Q269-10 218 9.50Q167 29 132 64Q97 99 78 148.50Q59 198 59 257L59 710Z"  horiz-adv-x="666" vert-adv-y="1000"  />

      
      <glyph glyph-name="uni0172" unicode="&#x0172;" d="M416-196Q406-200 390-203Q374-206 359-206Q306-206 274-182Q242-158 242-116Q242-97 255-68.50Q268-40 317-14L317-10Q258-9 210.50 11.50Q163 32 129.50 67Q96 102 77.50 151Q59 200 59 257L59 710L153 710L153 260Q153 172 198.50 121Q244 70 333 70Q422 70 467.50 121Q513 172 513 260L513 710L607 710L607 257Q607 158 560.50 94Q514 30 432 2Q378-17 348.50-45Q319-73 319-97Q319-116 332.50-128.50Q346-141 377-141Q393-141 401-138Q409-135 416-131L416-196Z"  horiz-adv-x="666" vert-adv-y="1000"  />

      
      <glyph glyph-name="uni016E" unicode="&#x016E;" d="M219 875Q219 924 251.50 954Q284 984 333 984Q382 984 414.50 954Q447 924 447 875Q447 828 414.50 796.50Q382 765 333 765Q284 765 251.50 796.50Q219 828 219 875M386 875Q386 899 370 914.50Q354 930 333 930Q312 930 296 914.50Q280 899 280 875Q280 853 296 836.50Q312 820 333 820Q354 820 370 836.50Q386 853 386 875M59 710L153 710L153 260Q153 172 198.50 121Q244 70 333 70Q422 70 467.50 121Q513 172 513 260L513 710L607 710L607 257Q607 198 588 148.50Q569 99 534 64Q499 29 448 9.50Q397-10 333-10Q269-10 218 9.50Q167 29 132 64Q97 99 78 148.50Q59 198 59 257L59 710Z"  horiz-adv-x="666" vert-adv-y="1000"  />

      
      <glyph glyph-name="uni0168" unicode="&#x0168;" d="M289 909Q303 909 318.50 904Q334 899 350 887Q363 877 374.50 871Q386 865 395 865Q417 865 421.50 884Q426 903 426 915L496 915Q497 861 470.50 828.50Q444 796 399 796Q385 796 369.50 800Q354 804 335 817Q318 829 308.50 834Q299 839 290 839Q269 839 264.50 821Q260 803 260 790L190 790Q189 844 217 876.50Q245 909 289 909M59 710L153 710L153 260Q153 172 198.50 121Q244 70 333 70Q422 70 467.50 121Q513 172 513 260L513 710L607 710L607 257Q607 198 588 148.50Q569 99 534 64Q499 29 448 9.50Q397-10 333-10Q269-10 218 9.50Q167 29 132 64Q97 99 78 148.50Q59 198 59 257L59 710Z"  horiz-adv-x="666" vert-adv-y="1000"  />

      
      <glyph glyph-name="uni56" unicode="&#x56;" d="M100 710L306 106L511 710L604 710L363 0L249 0L7 710L100 710Z"  horiz-adv-x="611" vert-adv-y="1000"  />

      
      <glyph glyph-name="uni57" unicode="&#x57;" d="M184 0L3 710L97 710L247 105L411 710L502 710L667 111L816 710L907 710L725 0L613 0L456 572L301 0L184 0Z"  horiz-adv-x="910" vert-adv-y="1000"  />

      
      <glyph glyph-name="uni1E82" unicode="&#x1E82;" d="M624 942L492 794L400 794L507 942L624 942M184 0L3 710L97 710L247 105L411 710L502 710L667 111L816 710L907 710L725 0L613 0L456 572L301 0L184 0Z"  horiz-adv-x="910" vert-adv-y="1000"  />

      
      <glyph glyph-name="uni0174" unicode="&#x0174;" d="M406 946L506 946L620 797L530 797L456 892L382 797L292 797L406 946M184 0L3 710L97 710L247 105L411 710L502 710L667 111L816 710L907 710L725 0L613 0L456 572L301 0L184 0Z"  horiz-adv-x="910" vert-adv-y="1000"  />

      
      <glyph glyph-name="uni1E84" unicode="&#x1E84;" d="M303 850Q303 875 320.50 892.50Q338 910 363 910Q388 910 405.50 892.50Q423 875 423 850Q423 825 405.50 807.50Q388 790 363 790Q338 790 320.50 807.50Q303 825 303 850M489 850Q489 875 506.50 892.50Q524 910 549 910Q574 910 591.50 892.50Q609 875 609 850Q609 825 591.50 807.50Q574 790 549 790Q524 790 506.50 807.50Q489 825 489 850M184 0L3 710L97 710L247 105L411 710L502 710L667 111L816 710L907 710L725 0L613 0L456 572L301 0L184 0Z"  horiz-adv-x="910" vert-adv-y="1000"  />

      
      <glyph glyph-name="uni1E80" unicode="&#x1E80;" d="M287 939L403 939L511 791L418 791L287 939M184 0L3 710L97 710L247 105L411 710L502 710L667 111L816 710L907 710L725 0L613 0L456 572L301 0L184 0Z"  horiz-adv-x="910" vert-adv-y="1000"  />

      
      <glyph glyph-name="uni58" unicode="&#x58;" d="M25 710L133 710L325 428L511 710L617 710L380 360L629 0L521 0L319 296L117 0L10 0L264 365L25 710Z"  horiz-adv-x="639" vert-adv-y="1000"  />

      
      <glyph glyph-name="uni59" unicode="&#x59;" d="M341 281L341 0L247 0L247 281L-3 710L96 710L295 367L493 710L590 710L341 281Z"  horiz-adv-x="587" vert-adv-y="1000"  />

      
      <glyph glyph-name="unidd" unicode="&#xdd;" d="M462 939L330 791L238 791L345 939L462 939M341 281L341 0L247 0L247 281L-3 710L96 710L295 367L493 710L590 710L341 281Z"  horiz-adv-x="587" vert-adv-y="1000"  />

      
      <glyph glyph-name="uni0176" unicode="&#x0176;" d="M244 946L344 946L458 797L368 797L294 892L220 797L130 797L244 946M341 281L341 0L247 0L247 281L-3 710L96 710L295 367L493 710L590 710L341 281Z"  horiz-adv-x="587" vert-adv-y="1000"  />

      
      <glyph glyph-name="uni0178" unicode="&#x0178;" d="M141 850Q141 875 158.50 892.50Q176 910 201 910Q226 910 243.50 892.50Q261 875 261 850Q261 825 243.50 807.50Q226 790 201 790Q176 790 158.50 807.50Q141 825 141 850M327 850Q327 875 344.50 892.50Q362 910 387 910Q412 910 429.50 892.50Q447 875 447 850Q447 825 429.50 807.50Q412 790 387 790Q362 790 344.50 807.50Q327 825 327 850M341 281L341 0L247 0L247 281L-3 710L96 710L295 367L493 710L590 710L341 281Z"  horiz-adv-x="587" vert-adv-y="1000"  />

      
      <glyph glyph-name="uni1EF2" unicode="&#x1EF2;" d="M125 939L241 939L349 791L256 791L125 939M341 281L341 0L247 0L247 281L-3 710L96 710L295 367L493 710L590 710L341 281Z"  horiz-adv-x="587" vert-adv-y="1000"  />

      
      <glyph glyph-name="uni0232" unicode="&#x0232;" d="M159 885L429 885L429 812L159 812L159 885M341 281L341 0L247 0L247 281L-3 710L96 710L295 367L493 710L590 710L341 281Z"  horiz-adv-x="587" vert-adv-y="1000"  />

      
      <glyph glyph-name="uni1EF8" unicode="&#x1EF8;" d="M240 909Q254 909 269.50 904Q285 899 301 887Q314 877 325.50 871Q337 865 346 865Q368 865 372.50 884Q377 903 377 915L447 915Q448 861 421.50 828.50Q395 796 350 796Q336 796 320.50 800Q305 804 286 817Q269 829 259.50 834Q250 839 241 839Q220 839 215.50 821Q211 803 211 790L141 790Q140 844 168 876.50Q196 909 240 909M341 281L341 0L247 0L247 281L-3 710L96 710L295 367L493 710L590 710L341 281Z"  horiz-adv-x="587" vert-adv-y="1000"  />

      
      <glyph glyph-name="uni5a" unicode="&#x5a;" d="M52 0L52 65L462 632L43 632L43 710L582 710L582 656L164 78L584 78L584 0L52 0Z"  horiz-adv-x="624" vert-adv-y="1000"  />

      
      <glyph glyph-name="uni0179" unicode="&#x0179;" d="M479 939L347 791L255 791L362 939L479 939M52 0L52 65L462 632L43 632L43 710L582 710L582 656L164 78L584 78L584 0L52 0Z"  horiz-adv-x="624" vert-adv-y="1000"  />

      
      <glyph glyph-name="uni017D" unicode="&#x017D;" d="M262 791L148 940L238 940L312 844L386 940L476 940L362 791L262 791M52 0L52 65L462 632L43 632L43 710L582 710L582 656L164 78L584 78L584 0L52 0Z"  horiz-adv-x="624" vert-adv-y="1000"  />

      
      <glyph glyph-name="uni017B" unicode="&#x017B;" d="M312 919Q340 919 358.50 901Q377 883 377 855Q377 827 358.50 808.50Q340 790 312 790Q284 790 265.50 808.50Q247 827 247 855Q247 883 265.50 901Q284 919 312 919M52 0L52 65L462 632L43 632L43 710L582 710L582 656L164 78L584 78L584 0L52 0Z"  horiz-adv-x="624" vert-adv-y="1000"  />

      
      <glyph glyph-name="uni61" unicode="&#x61;" d="M351 70Q332 36 292.50 13Q253-10 195-10Q120-10 74.50 31.50Q29 73 29 143Q29 181 42.50 207.50Q56 234 78 252Q100 270 129.50 279.50Q159 289 190 293L301 306Q332 310 342 324.50Q352 339 352 364Q352 403 326.50 431.50Q301 460 244 460Q187 460 161 431Q135 402 131 363L40 363Q41 394 54 424Q67 454 92 477.50Q117 501 154.50 515.50Q192 530 242 530Q338 530 390 477Q442 424 442 338L442 89Q442 65 444.50 42Q447 19 451 0L358 0Q356 16 355 32.50Q354 49 354 70L351 70M353 276Q340 265 321.50 257Q303 249 281 245L221 234Q170 225 144.50 204.50Q119 184 119 144Q119 101 145 79.50Q171 58 217 58Q274 58 313.50 92Q353 126 353 184L353 276Z"  horiz-adv-x="493" vert-adv-y="1000"  />

      
      <glyph glyph-name="unie1" unicode="&#xe1;" d="M395 760L282 607L195 607L284 760L395 760M351 70Q332 36 292.50 13Q253-10 195-10Q120-10 74.50 31.50Q29 73 29 143Q29 181 42.50 207.50Q56 234 78 252Q100 270 129.50 279.50Q159 289 190 293L301 306Q332 310 342 324.50Q352 339 352 364Q352 403 326.50 431.50Q301 460 244 460Q187 460 161 431Q135 402 131 363L40 363Q41 394 54 424Q67 454 92 477.50Q117 501 154.50 515.50Q192 530 242 530Q338 530 390 477Q442 424 442 338L442 89Q442 65 444.50 42Q447 19 451 0L358 0Q356 16 355 32.50Q354 49 354 70L351 70M353 276Q340 265 321.50 257Q303 249 281 245L221 234Q170 225 144.50 204.50Q119 184 119 144Q119 101 145 79.50Q171 58 217 58Q274 58 313.50 92Q353 126 353 184L353 276Z"  horiz-adv-x="493" vert-adv-y="1000"  />

      
      <glyph glyph-name="uni0103" unicode="&#x0103;" d="M111 757L185 757Q185 714 202.50 694Q220 674 249 674Q278 674 295.50 694Q313 714 313 757L387 757Q387 689 349 648.50Q311 608 249 608Q187 608 149 648.50Q111 689 111 757M351 70Q332 36 292.50 13Q253-10 195-10Q120-10 74.50 31.50Q29 73 29 143Q29 181 42.50 207.50Q56 234 78 252Q100 270 129.50 279.50Q159 289 190 293L301 306Q332 310 342 324.50Q352 339 352 364Q352 403 326.50 431.50Q301 460 244 460Q187 460 161 431Q135 402 131 363L40 363Q41 394 54 424Q67 454 92 477.50Q117 501 154.50 515.50Q192 530 242 530Q338 530 390 477Q442 424 442 338L442 89Q442 65 444.50 42Q447 19 451 0L358 0Q356 16 355 32.50Q354 49 354 70L351 70M353 276Q340 265 321.50 257Q303 249 281 245L221 234Q170 225 144.50 204.50Q119 184 119 144Q119 101 145 79.50Q171 58 217 58Q274 58 313.50 92Q353 126 353 184L353 276Z"  horiz-adv-x="493" vert-adv-y="1000"  />

      
      <glyph glyph-name="unie2" unicode="&#xe2;" d="M201 761L297 761L395 608L310 608L249 705L188 608L103 608L201 761M351 70Q332 36 292.50 13Q253-10 195-10Q120-10 74.50 31.50Q29 73 29 143Q29 181 42.50 207.50Q56 234 78 252Q100 270 129.50 279.50Q159 289 190 293L301 306Q332 310 342 324.50Q352 339 352 364Q352 403 326.50 431.50Q301 460 244 460Q187 460 161 431Q135 402 131 363L40 363Q41 394 54 424Q67 454 92 477.50Q117 501 154.50 515.50Q192 530 242 530Q338 530 390 477Q442 424 442 338L442 89Q442 65 444.50 42Q447 19 451 0L358 0Q356 16 355 32.50Q354 49 354 70L351 70M353 276Q340 265 321.50 257Q303 249 281 245L221 234Q170 225 144.50 204.50Q119 184 119 144Q119 101 145 79.50Q171 58 217 58Q274 58 313.50 92Q353 126 353 184L353 276Z"  horiz-adv-x="493" vert-adv-y="1000"  />

      
      <glyph glyph-name="unib4" unicode="&#xb4;" d="M366 760L253 607L166 607L255 760L366 760Z"  horiz-adv-x="500" vert-adv-y="1000"  />

      
      <glyph glyph-name="unie4" unicode="&#xe4;" d="M101 670Q101 695 118 712Q135 729 160 729Q185 729 202 712Q219 695 219 670Q219 645 202 627.50Q185 610 160 610Q135 610 118 627.50Q101 645 101 670M279 670Q279 695 296 712Q313 729 338 729Q363 729 380 712Q397 695 397 670Q397 645 380 627.50Q363 610 338 610Q313 610 296 627.50Q279 645 279 670M351 70Q332 36 292.50 13Q253-10 195-10Q120-10 74.50 31.50Q29 73 29 143Q29 181 42.50 207.50Q56 234 78 252Q100 270 129.50 279.50Q159 289 190 293L301 306Q332 310 342 324.50Q352 339 352 364Q352 403 326.50 431.50Q301 460 244 460Q187 460 161 431Q135 402 131 363L40 363Q41 394 54 424Q67 454 92 477.50Q117 501 154.50 515.50Q192 530 242 530Q338 530 390 477Q442 424 442 338L442 89Q442 65 444.50 42Q447 19 451 0L358 0Q356 16 355 32.50Q354 49 354 70L351 70M353 276Q340 265 321.50 257Q303 249 281 245L221 234Q170 225 144.50 204.50Q119 184 119 144Q119 101 145 79.50Q171 58 217 58Q274 58 313.50 92Q353 126 353 184L353 276Z"  horiz-adv-x="493" vert-adv-y="1000"  />

      
      <glyph glyph-name="uni1EA1" unicode="&#x1EA1;" d="M351 70Q332 36 292.50 13Q253-10 195-10Q120-10 74.50 31.50Q29 73 29 143Q29 181 42.50 207.50Q56 234 78 252Q100 270 129.50 279.50Q159 289 190 293L301 306Q332 310 342 324.50Q352 339 352 364Q352 403 326.50 431.50Q301 460 244 460Q187 460 161 431Q135 402 131 363L40 363Q41 394 54 424Q67 454 92 477.50Q117 501 154.50 515.50Q192 530 242 530Q338 530 390 477Q442 424 442 338L442 89Q442 65 444.50 42Q447 19 451 0L358 0Q356 16 355 32.50Q354 49 354 70L351 70M353 276Q340 265 321.50 257Q303 249 281 245L221 234Q170 225 144.50 204.50Q119 184 119 144Q119 101 145 79.50Q171 58 217 58Q274 58 313.50 92Q353 126 353 184L353 276M249-70Q275-70 293-87.50Q311-105 311-132Q311-158 293-176Q275-194 249-194Q223-194 205-176Q187-158 187-132Q187-105 205-87.50Q223-70 249-70Z"  horiz-adv-x="493" vert-adv-y="1000"  />

      
      <glyph glyph-name="unie6" unicode="&#xe6;" d="M212-10Q125-10 77 31.50Q29 73 29 143Q29 181 42.50 207.50Q56 234 78 252Q100 270 129.50 279.50Q159 289 190 293L301 306Q332 310 342 324.50Q352 339 352 364Q352 403 326.50 431.50Q301 460 244 460Q187 460 161 431Q135 402 131 363L40 363Q41 394 54 424Q67 454 92 477.50Q117 501 154.50 515.50Q192 530 242 530Q301 530 343.50 508Q386 486 411 446Q442 486 486 508Q530 530 582 530Q684 530 744 457Q804 384 804 261L804 243L440 243L440 237Q440 153 481 107.50Q522 62 585 62Q639 62 670.50 86.50Q702 111 715 149L802 149Q793 118 774.50 89.50Q756 61 729 39Q702 17 666 3.50Q630-10 585-10Q523-10 475 16.50Q427 43 397 90L392 90Q373 52 328.50 21Q284-10 212-10M582 458Q525 458 486 419.50Q447 381 441 309L716 309Q712 380 675.50 419Q639 458 582 458M353 276Q340 265 321.50 257Q303 249 281 245L221 234Q170 225 144.50 204.50Q119 184 119 144Q119 101 145 79.50Q171 58 219 58Q275 58 314 92Q353 126 353 184L353 276Z"  horiz-adv-x="830" vert-adv-y="1000"  />

      
      <glyph glyph-name="uni01FD" unicode="&#x01FD;" d="M559 760L446 607L359 607L448 760L559 760M212-10Q125-10 77 31.50Q29 73 29 143Q29 181 42.50 207.50Q56 234 78 252Q100 270 129.50 279.50Q159 289 190 293L301 306Q332 310 342 324.50Q352 339 352 364Q352 403 326.50 431.50Q301 460 244 460Q187 460 161 431Q135 402 131 363L40 363Q41 394 54 424Q67 454 92 477.50Q117 501 154.50 515.50Q192 530 242 530Q301 530 343.50 508Q386 486 411 446Q442 486 486 508Q530 530 582 530Q684 530 744 457Q804 384 804 261L804 243L440 243L440 237Q440 153 481 107.50Q522 62 585 62Q639 62 670.50 86.50Q702 111 715 149L802 149Q793 118 774.50 89.50Q756 61 729 39Q702 17 666 3.50Q630-10 585-10Q523-10 475 16.50Q427 43 397 90L392 90Q373 52 328.50 21Q284-10 212-10M582 458Q525 458 486 419.50Q447 381 441 309L716 309Q712 380 675.50 419Q639 458 582 458M353 276Q340 265 321.50 257Q303 249 281 245L221 234Q170 225 144.50 204.50Q119 184 119 144Q119 101 145 79.50Q171 58 219 58Q275 58 314 92Q353 126 353 184L353 276Z"  horiz-adv-x="830" vert-adv-y="1000"  />

      
      <glyph glyph-name="unie0" unicode="&#xe0;" d="M102 760L212 760L301 607L214 607L102 760M351 70Q332 36 292.50 13Q253-10 195-10Q120-10 74.50 31.50Q29 73 29 143Q29 181 42.50 207.50Q56 234 78 252Q100 270 129.50 279.50Q159 289 190 293L301 306Q332 310 342 324.50Q352 339 352 364Q352 403 326.50 431.50Q301 460 244 460Q187 460 161 431Q135 402 131 363L40 363Q41 394 54 424Q67 454 92 477.50Q117 501 154.50 515.50Q192 530 242 530Q338 530 390 477Q442 424 442 338L442 89Q442 65 444.50 42Q447 19 451 0L358 0Q356 16 355 32.50Q354 49 354 70L351 70M353 276Q340 265 321.50 257Q303 249 281 245L221 234Q170 225 144.50 204.50Q119 184 119 144Q119 101 145 79.50Q171 58 217 58Q274 58 313.50 92Q353 126 353 184L353 276Z"  horiz-adv-x="493" vert-adv-y="1000"  />

      
      <glyph glyph-name="uni0101" unicode="&#x0101;" d="M120 705L378 705L378 633L120 633L120 705M351 70Q332 36 292.50 13Q253-10 195-10Q120-10 74.50 31.50Q29 73 29 143Q29 181 42.50 207.50Q56 234 78 252Q100 270 129.50 279.50Q159 289 190 293L301 306Q332 310 342 324.50Q352 339 352 364Q352 403 326.50 431.50Q301 460 244 460Q187 460 161 431Q135 402 131 363L40 363Q41 394 54 424Q67 454 92 477.50Q117 501 154.50 515.50Q192 530 242 530Q338 530 390 477Q442 424 442 338L442 89Q442 65 444.50 42Q447 19 451 0L358 0Q356 16 355 32.50Q354 49 354 70L351 70M353 276Q340 265 321.50 257Q303 249 281 245L221 234Q170 225 144.50 204.50Q119 184 119 144Q119 101 145 79.50Q171 58 217 58Q274 58 313.50 92Q353 126 353 184L353 276Z"  horiz-adv-x="493" vert-adv-y="1000"  />

      
      <glyph glyph-name="uni26" unicode="&#x26;" d="M10 188Q10 269 58 320Q106 371 184 402L176 411Q144 448 128 483.50Q112 519 112 559Q112 626 162 673Q212 720 290 720Q363 720 412.50 676.50Q462 633 462 567Q462 507 422.50 462Q383 417 311 382L450 223Q451 226 453 228.50Q455 231 456 234L538 377L632 377L546 225Q536 207 526 190.50Q516 174 506 159L644 0L534 0L454 91Q410 42 357 16Q304-10 235-10Q186-10 145 4Q104 18 74 43.50Q44 69 27 105.50Q10 142 10 188M254 448L264 437Q320 463 348 493.50Q376 524 376 564Q376 602 352 627Q328 652 290 652Q248 652 224 626Q200 600 200 561Q200 533 211.50 509Q223 485 254 448M105 193Q105 133 141.50 99Q178 65 238 65Q291 65 330 87Q369 109 402 152L232 347Q172 320 138.50 285Q105 250 105 193Z"  horiz-adv-x="630" vert-adv-y="1000"  />

      
      <glyph glyph-name="uni0105" unicode="&#x0105;" d="M281-116Q281-89 301-56.50Q321-24 375-5L375 0L358 0Q356 16 355 32.50Q354 49 354 70L351 70Q332 36 292.50 13Q253-10 195-10Q120-10 74.50 31.50Q29 73 29 143Q29 181 42.50 207.50Q56 234 78 252Q100 270 129.50 279.50Q159 289 190 293L301 306Q332 310 342 324.50Q352 339 352 364Q352 403 326.50 431.50Q301 460 244 460Q187 460 161 431Q135 402 131 363L40 363Q41 394 54 424Q67 454 92 477.50Q117 501 154.50 515.50Q192 530 242 530Q338 530 390 477Q442 424 442 338L442 89Q442 65 444.50 42Q447 19 451 0L450 0Q401-25 377.50-49Q354-73 354-98Q354-117 367-130Q380-143 411-143Q427-143 434.50-139Q442-135 450-131L450-194Q440-198 424.50-201.50Q409-205 394-205Q343-205 312-181Q281-157 281-116M353 276Q340 265 321.50 257Q303 249 281 245L221 234Q170 225 144.50 204.50Q119 184 119 144Q119 101 145 79.50Q171 58 217 58Q274 58 313.50 92Q353 126 353 184L353 276Z"  horiz-adv-x="493" vert-adv-y="1000"  />

      
      <glyph glyph-name="uni2248" unicode="&#x2248;" d="M277 432Q252 441 231 450Q210 459 187 459Q166 459 152 451Q138 443 129.50 432.50Q121 422 117.50 411Q114 400 114 394L37 394Q37 427 50 452.50Q63 478 84.50 495.50Q106 513 132.50 522Q159 531 186 531Q221 531 248.50 521.50Q276 512 309 500Q335 491 356 482Q377 473 400 473Q421 473 435 480.50Q449 488 457.50 498.50Q466 509 469.50 520Q473 531 473 538L550 538Q550 505 537 479.50Q524 454 503 436.50Q482 419 455 410Q428 401 402 401Q365 401 337 411Q309 421 277 432M277 190Q252 200 231 208.50Q210 217 187 217Q166 217 152 209Q138 201 129.50 190.50Q121 180 117.50 169Q114 158 114 152L37 152Q37 185 50 210.50Q63 236 84.50 254Q106 272 132.50 281Q159 290 186 290Q221 290 248.50 280Q276 270 309 258Q335 249 356 240.50Q377 232 400 232Q421 232 435 239.50Q449 247 457.50 257.50Q466 268 469.50 279Q473 290 473 296L550 296Q550 263 537 237.50Q524 212 503 194.50Q482 177 455 168Q428 159 402 159Q365 159 337 169Q309 179 277 190Z"  horiz-adv-x="587" vert-adv-y="1000"  />

      
      <glyph glyph-name="unie5" unicode="&#xe5;" d="M140 692Q140 738 171.50 767Q203 796 249 796Q295 796 326.50 767Q358 738 358 692Q358 647 326.50 617.50Q295 588 249 588Q203 588 171.50 617.50Q140 647 140 692M300 692Q300 716 285 731Q270 746 249 746Q228 746 213 731Q198 716 198 692Q198 670 213 654Q228 638 249 638Q270 638 285 654Q300 670 300 692M351 70Q332 36 292.50 13Q253-10 195-10Q120-10 74.50 31.50Q29 73 29 143Q29 181 42.50 207.50Q56 234 78 252Q100 270 129.50 279.50Q159 289 190 293L301 306Q332 310 342 324.50Q352 339 352 364Q352 403 326.50 431.50Q301 460 244 460Q187 460 161 431Q135 402 131 363L40 363Q41 394 54 424Q67 454 92 477.50Q117 501 154.50 515.50Q192 530 242 530Q338 530 390 477Q442 424 442 338L442 89Q442 65 444.50 42Q447 19 451 0L358 0Q356 16 355 32.50Q354 49 354 70L351 70M353 276Q340 265 321.50 257Q303 249 281 245L221 234Q170 225 144.50 204.50Q119 184 119 144Q119 101 145 79.50Q171 58 217 58Q274 58 313.50 92Q353 126 353 184L353 276Z"  horiz-adv-x="493" vert-adv-y="1000"  />

      
      <glyph glyph-name="uni01FB" unicode="&#x01FB;" d="M385 979L272 826L185 826L274 979L385 979M134 674Q134 720 165.50 749Q197 778 243 778Q289 778 320.50 749Q352 720 352 674Q352 629 320.50 599.50Q289 570 243 570Q197 570 165.50 599.50Q134 629 134 674M294 674Q294 698 279 713Q264 728 243 728Q222 728 207 713Q192 698 192 674Q192 652 207 636Q222 620 243 620Q264 620 279 636Q294 652 294 674M351 70Q332 36 292.50 13Q253-10 195-10Q120-10 74.50 31.50Q29 73 29 143Q29 181 42.50 207.50Q56 234 78 252Q100 270 129.50 279.50Q159 289 190 293L301 306Q332 310 342 324.50Q352 339 352 364Q352 403 326.50 431.50Q301 460 244 460Q187 460 161 431Q135 402 131 363L40 363Q41 394 54 424Q67 454 92 477.50Q117 501 154.50 515.50Q192 530 242 530Q338 530 390 477Q442 424 442 338L442 89Q442 65 444.50 42Q447 19 451 0L358 0Q356 16 355 32.50Q354 49 354 70L351 70M353 276Q340 265 321.50 257Q303 249 281 245L221 234Q170 225 144.50 204.50Q119 184 119 144Q119 101 145 79.50Q171 58 217 58Q274 58 313.50 92Q353 126 353 184L353 276Z"  horiz-adv-x="493" vert-adv-y="1000"  />

      
      <glyph glyph-name="uni2193" unicode="&#x2193;" d="M20 315L20 428L274 174L274 682L359 682L359 173L614 428L614 315L317 18L20 315Z"  horiz-adv-x="634" vert-adv-y="1000"  />

      
      <glyph glyph-name="uni2190" unicode="&#x2190;" d="M10 360L306 656L419 656L162 399L657 399L657 321L162 321L419 64L306 64L10 360Z"  horiz-adv-x="674" vert-adv-y="1000"  />

      
      <glyph glyph-name="uni2192" unicode="&#x2192;" d="M664 360L368 64L255 64L512 321L17 321L17 399L512 399L255 656L368 656L664 360Z"  horiz-adv-x="674" vert-adv-y="1000"  />

      
      <glyph glyph-name="uni2191" unicode="&#x2191;" d="M614 395L614 282L360 536L360 28L275 28L275 537L20 282L20 395L317 692L614 395Z"  horiz-adv-x="634" vert-adv-y="1000"  />

      
      <glyph glyph-name="uni5e" unicode="&#x5e;" d="M188 710L261 710L431 383L345 383L225 622L106 383L20 383L188 710Z"  horiz-adv-x="451" vert-adv-y="1000"  />

      
      <glyph glyph-name="uni7e" unicode="&#x7e;" d="M160 394Q180 394 199 387.50Q218 381 239 367Q256 355 269 348Q282 341 292 341Q306 341 314.50 348.50Q323 356 327.50 366Q332 376 333.50 387Q335 398 335 404L409 404Q409 341 378 304Q347 267 297 267Q277 267 257.50 273.50Q238 280 217 294Q200 306 187 313Q174 320 164 320Q150 320 141 312.50Q132 305 127.50 295Q123 285 121.50 274Q120 263 120 257L47 257Q47 320 79 357Q111 394 160 394Z"  horiz-adv-x="456" vert-adv-y="1000"  />

      
      <glyph glyph-name="uni2a" unicode="&#x2a;" d="M361 392L244 480Q243 479 242 478.50Q241 478 240 478L258 332L177 332L195 478Q194 479 193 479Q192 479 191 480L74 392L34 461L168 518L168 524L34 581L74 650L191 562Q192 563 193 563Q194 563 195 564L177 710L258 710L240 564Q241 564 242 563.50Q243 563 244 562L361 650L401 581L267 524L267 518L401 461L361 392Z"  horiz-adv-x="435" vert-adv-y="1000"  />

      
      <glyph glyph-name="uni40" unicode="&#x40;" d="M25 229Q25 319 56 399.50Q87 480 144 540Q201 600 282.50 635.50Q364 671 465 671Q553 671 622 643.50Q691 616 737 568.50Q783 521 807.50 456.50Q832 392 832 318Q832 252 814 201.50Q796 151 766.50 116.50Q737 82 698.50 64.50Q660 47 619 47Q569 47 541 67Q513 87 505 118Q479 82 445 64.50Q411 47 370 47Q301 47 260.50 95.50Q220 144 220 222Q220 272 235 317Q250 362 277 396Q304 430 342 450.50Q380 471 426 471Q461 471 491 454Q521 437 535 406L545 462L631 462L579 176Q572 140 585.50 124Q599 108 633 108Q654 108 678.50 118Q703 128 723.50 152.50Q744 177 758 217.50Q772 258 772 318Q772 382 752.50 437.50Q733 493 694.50 533Q656 573 598 596Q540 619 465 619Q376 619 305 587Q234 555 185.50 501.50Q137 448 111.50 377Q86 306 86 229Q86 158 108.50 97Q131 36 173-7.50Q215-51 275-76Q335-101 410-101Q492-101 549-80Q606-59 649-27L729-27Q669-86 587.50-119Q506-152 410-152Q323-152 251.50-123.50Q180-95 130-44.50Q80 6 52.50 76Q25 146 25 229M521 293Q521 345 497.50 376.50Q474 408 429 408Q400 408 376 393.50Q352 379 335 354Q318 329 308.50 296Q299 263 299 226Q299 174 324 143.50Q349 113 392 112Q420 112 444 126.50Q468 141 485 166Q502 191 511.50 224Q521 257 521 293Z"  horiz-adv-x="862" vert-adv-y="1000"  />

      
      <glyph glyph-name="unie3" unicode="&#xe3;" d="M194 727Q210 727 225.50 722Q241 717 257 706Q270 698 281 692Q292 686 301 686Q322 686 326.50 704Q331 722 331 733L398 733Q399 681 373.50 650.50Q348 620 306 620Q291 620 275 623.50Q259 627 240 640Q224 651 214.50 655.50Q205 660 196 660Q176 660 171.50 643.50Q167 627 167 614L100 614Q99 666 125.50 696.50Q152 727 194 727M351 70Q332 36 292.50 13Q253-10 195-10Q120-10 74.50 31.50Q29 73 29 143Q29 181 42.50 207.50Q56 234 78 252Q100 270 129.50 279.50Q159 289 190 293L301 306Q332 310 342 324.50Q352 339 352 364Q352 403 326.50 431.50Q301 460 244 460Q187 460 161 431Q135 402 131 363L40 363Q41 394 54 424Q67 454 92 477.50Q117 501 154.50 515.50Q192 530 242 530Q338 530 390 477Q442 424 442 338L442 89Q442 65 444.50 42Q447 19 451 0L358 0Q356 16 355 32.50Q354 49 354 70L351 70M353 276Q340 265 321.50 257Q303 249 281 245L221 234Q170 225 144.50 204.50Q119 184 119 144Q119 101 145 79.50Q171 58 217 58Q274 58 313.50 92Q353 126 353 184L353 276Z"  horiz-adv-x="493" vert-adv-y="1000"  />

      
      <glyph glyph-name="uni62" unicode="&#x62;" d="M148 75L144 75L144 0L55 0L55 740L144 740L144 445L148 445Q169 482 210 506Q251 530 301 530Q347 530 386.50 511Q426 492 454.50 457Q483 422 499.50 372Q516 322 516 260Q516 198 499.50 148Q483 98 454.50 63Q426 28 386.50 9Q347-10 301-10Q251-10 210 14Q169 38 148 75M144 232Q144 151 185 106.50Q226 62 282 62Q346 62 386 105.50Q426 149 426 238L426 282Q426 371 386 414.50Q346 458 282 458Q226 458 185 413.50Q144 369 144 288L144 232Z"  horiz-adv-x="543" vert-adv-y="1000"  />

      
      <glyph glyph-name="uni5c" unicode="&#x5c;" d="M79 748L458-142L370-142L-9 748L79 748Z"  horiz-adv-x="447" vert-adv-y="1000"  />

      
      <glyph glyph-name="uni0E3F" unicode="&#x0E3F;" d="M81 710L256 710L256 822L320 822L320 710Q409 710 466 661Q523 612 523 526Q523 475 497.50 432Q472 389 423 368Q481 353 515.50 310Q550 267 550 199Q550 112 490 56Q430 0 320 0L320-130L256-130L256 0L81 0L81 710M161 644L161 398L256 398L256 644L161 644M434 521Q434 581 405.50 612.50Q377 644 320 644L320 398Q377 399 405.50 430Q434 461 434 521M161 334L161 66L256 66L256 334L161 334M460 200Q460 267 425 300.50Q390 334 320 334L320 66Q395 66 427.50 98.50Q460 131 460 200Z"  horiz-adv-x="589" vert-adv-y="1000"  />

      
      <glyph glyph-name="uni7c" unicode="&#x7c;" d="M72 748L155 748L155-142L72-142L72 748Z"  horiz-adv-x="227" vert-adv-y="1000"  />

      
      <glyph glyph-name="uni7b" unicode="&#x7b;" d="M120 559Q115 650 161 698.50Q207 747 326 748L326 678Q249 674 228 646.50Q207 619 209 557L212 468Q214 396 192 357.50Q170 319 108 303Q170 287 192 248.50Q214 210 212 138L209 49Q207-12 228-40Q249-68 326-72L326-142Q207-141 161-92Q115-43 120 47L124 137Q127 194 105 229.50Q83 265 21 265L-1 265L-1 341L21 341Q83 341 105 376.50Q127 412 124 469L120 559Z"  horiz-adv-x="351" vert-adv-y="1000"  />

      
      <glyph glyph-name="uni7d" unicode="&#x7d;" d="M231 47Q236-44 190-92.50Q144-141 25-142L25-72Q102-68 123-40.50Q144-13 142 49L139 138Q137 210 159 248.50Q181 287 243 303Q181 319 159 357.50Q137 396 139 468L142 557Q144 618 123 646Q102 674 25 678L25 748Q144 747 190 698Q236 649 231 559L227 469Q224 412 246 376.50Q268 341 330 341L352 341L352 265L330 265Q268 265 246 229.50Q224 194 227 137L231 47Z"  horiz-adv-x="351" vert-adv-y="1000"  />

      
      <glyph glyph-name="uni5b" unicode="&#x5b;" d="M74-142L74 748L287 748L287 676L162 676L162-70L287-70L287-142L74-142Z"  horiz-adv-x="312" vert-adv-y="1000"  />

      
      <glyph glyph-name="uni5d" unicode="&#x5d;" d="M238 748L238-142L25-142L25-70L150-70L150 676L25 676L25 748L238 748Z"  horiz-adv-x="312" vert-adv-y="1000"  />

      
      <glyph glyph-name="uni02D8" unicode="&#x02D8;" d="M112 757L186 757Q186 714 203.50 694Q221 674 250 674Q279 674 296.50 694Q314 714 314 757L388 757Q388 689 350 648.50Q312 608 250 608Q188 608 150 648.50Q112 689 112 757Z"  horiz-adv-x="500" vert-adv-y="1000"  />

      
      <glyph glyph-name="uni2022" unicode="&#x2022;" d="M55 288Q55 341 92.50 378.50Q130 416 183 416Q235 416 272.50 378.50Q310 341 310 288Q310 235 272.50 197.50Q235 160 183 160Q130 160 92.50 197.50Q55 235 55 288Z"  horiz-adv-x="365" vert-adv-y="1000"  />

      
      <glyph glyph-name="uni63" unicode="&#x63;" d="M27 260Q27 383 91.50 456.50Q156 530 259 530Q351 530 407 478.50Q463 427 474 354L385 354Q378 400 346 429Q314 458 259 458Q196 458 156.50 413Q117 368 117 284L117 237Q117 153 156.50 107.50Q196 62 259 62Q316 62 347.50 93.50Q379 125 388 168L476 168Q470 133 453 100.50Q436 68 408 43.50Q380 19 342.50 4.50Q305-10 259-10Q156-10 91.50 63.50Q27 137 27 260Z"  horiz-adv-x="502" vert-adv-y="1000"  />

      
      <glyph glyph-name="uni0107" unicode="&#x0107;" d="M407 760L294 607L207 607L296 760L407 760M27 260Q27 383 91.50 456.50Q156 530 259 530Q351 530 407 478.50Q463 427 474 354L385 354Q378 400 346 429Q314 458 259 458Q196 458 156.50 413Q117 368 117 284L117 237Q117 153 156.50 107.50Q196 62 259 62Q316 62 347.50 93.50Q379 125 388 168L476 168Q470 133 453 100.50Q436 68 408 43.50Q380 19 342.50 4.50Q305-10 259-10Q156-10 91.50 63.50Q27 137 27 260Z"  horiz-adv-x="502" vert-adv-y="1000"  />

      
      <glyph glyph-name="uni02C7" unicode="&#x02C7;" d="M298 607L202 607L104 759L189 759L250 662L311 759L396 759L298 607Z"  horiz-adv-x="500" vert-adv-y="1000"  />

      
      <glyph glyph-name="uni010D" unicode="&#x010D;" d="M309 607L213 607L115 759L200 759L261 662L322 759L407 759L309 607M27 260Q27 383 91.50 456.50Q156 530 259 530Q351 530 407 478.50Q463 427 474 354L385 354Q378 400 346 429Q314 458 259 458Q196 458 156.50 413Q117 368 117 284L117 237Q117 153 156.50 107.50Q196 62 259 62Q316 62 347.50 93.50Q379 125 388 168L476 168Q470 133 453 100.50Q436 68 408 43.50Q380 19 342.50 4.50Q305-10 259-10Q156-10 91.50 63.50Q27 137 27 260Z"  horiz-adv-x="502" vert-adv-y="1000"  />

      
      <glyph glyph-name="unie7" unicode="&#xe7;" d="M152-148L210-148Q211-160 223-170Q235-180 258-180Q278-180 290-169.50Q302-159 302-140Q302-123 290-112Q278-101 258-101Q246-101 237-105Q228-109 221-113L187-90L230-8Q139 2 83 74Q27 146 27 260Q27 383 91.50 456.50Q156 530 259 530Q351 530 407 478.50Q463 427 474 354L385 354Q378 400 346 429Q314 458 259 458Q196 458 156.50 413Q117 368 117 284L117 237Q117 153 156.50 107.50Q196 62 259 62Q316 62 347.50 93.50Q379 125 388 168L476 168Q471 135 455 104Q439 73 414.50 49.50Q390 26 356 10Q322-6 281-9L257-55Q263-54 268-53.50Q273-53 275-53Q312-53 336-75Q360-97 360-139Q360-180 331-205.50Q302-231 258-231Q211-231 181.50-206.50Q152-182 152-148Z"  horiz-adv-x="502" vert-adv-y="1000"  />

      
      <glyph glyph-name="uni0109" unicode="&#x0109;" d="M213 761L309 761L407 608L322 608L261 705L200 608L115 608L213 761M27 260Q27 383 91.50 456.50Q156 530 259 530Q351 530 407 478.50Q463 427 474 354L385 354Q378 400 346 429Q314 458 259 458Q196 458 156.50 413Q117 368 117 284L117 237Q117 153 156.50 107.50Q196 62 259 62Q316 62 347.50 93.50Q379 125 388 168L476 168Q470 133 453 100.50Q436 68 408 43.50Q380 19 342.50 4.50Q305-10 259-10Q156-10 91.50 63.50Q27 137 27 260Z"  horiz-adv-x="502" vert-adv-y="1000"  />

      
      <glyph glyph-name="uni010B" unicode="&#x010B;" d="M261 734Q287 734 305 716.50Q323 699 323 672Q323 646 305 628Q287 610 261 610Q235 610 217 628Q199 646 199 672Q199 699 217 716.50Q235 734 261 734M27 260Q27 383 91.50 456.50Q156 530 259 530Q351 530 407 478.50Q463 427 474 354L385 354Q378 400 346 429Q314 458 259 458Q196 458 156.50 413Q117 368 117 284L117 237Q117 153 156.50 107.50Q196 62 259 62Q316 62 347.50 93.50Q379 125 388 168L476 168Q470 133 453 100.50Q436 68 408 43.50Q380 19 342.50 4.50Q305-10 259-10Q156-10 91.50 63.50Q27 137 27 260Z"  horiz-adv-x="502" vert-adv-y="1000"  />

      
      <glyph glyph-name="unib8" unicode="&#xb8;" d="M152-148L210-148Q211-160 223-170Q235-180 258-180Q278-180 290-169.50Q302-159 302-140Q302-123 290-112Q278-101 258-101Q246-101 237-105Q228-109 221-113L187-90L239 8L290 8L257-55Q263-54 268-53.50Q273-53 275-53Q312-53 336-75Q360-97 360-139Q360-180 331-205.50Q302-231 258-231Q211-231 181.50-206.50Q152-182 152-148Z"  horiz-adv-x="500" vert-adv-y="1000"  />

      
      <glyph glyph-name="unia2" unicode="&#xa2;" d="M40 257Q40 370 94.50 440Q149 510 239 523L239 625L303 625L303 524Q384 516 432.50 466Q481 416 491 349L407 350Q400 390 374 419Q348 448 303 455L303 60Q349 68 375.50 99Q402 130 410 167L493 168Q483 102 433.50 51Q384 0 303-9L303-120L239-120L239-8Q149 4 94.50 74Q40 144 40 257M126 233Q126 161 157 117Q188 73 239 62L239 453Q188 442 157 398Q126 354 126 282L126 233Z"  horiz-adv-x="532" vert-adv-y="1000"  />

      
      <glyph glyph-name="uni25CB" unicode="&#x25CB;" d="M68 355Q68 430 94.50 496.50Q121 563 168 612Q215 661 281 689.50Q347 718 425 718Q503 718 569 689.50Q635 661 682 612Q729 563 755.50 496.50Q782 430 782 355Q782 280 755.50 213.50Q729 147 682 98Q635 49 569 20.50Q503-8 425-8Q347-8 281 20.50Q215 49 168 98Q121 147 94.50 213.50Q68 280 68 355M697 355Q697 414 677 466.50Q657 519 621 558Q585 597 534.50 619.50Q484 642 425 642Q366 642 315.50 619.50Q265 597 229 558Q193 519 173 466.50Q153 414 153 355Q153 296 173 243.50Q193 191 229 152Q265 113 315.50 90.50Q366 68 425 68Q484 68 534.50 90.50Q585 113 621 152Q657 191 677 243.50Q697 296 697 355Z"  horiz-adv-x="850" vert-adv-y="1000"  />

      
      <glyph glyph-name="uni02C6" unicode="&#x02C6;" d="M202 761L298 761L396 608L311 608L250 705L189 608L104 608L202 761Z"  horiz-adv-x="500" vert-adv-y="1000"  />

      
      <glyph glyph-name="uni3a" unicode="&#x3a;" d="M171 464Q171 436 151.50 416.50Q132 397 105 397Q78 397 58.50 416.50Q39 436 39 464Q39 491 58.50 510.50Q78 530 105 530Q132 530 151.50 510.50Q171 491 171 464M171 57Q171 29 151.50 9.50Q132-10 105-10Q78-10 58.50 9.50Q39 29 39 57Q39 84 58.50 103.50Q78 123 105 123Q132 123 151.50 103.50Q171 84 171 57Z"  horiz-adv-x="210" vert-adv-y="1000"  />

      
      <glyph glyph-name="uni20A1" unicode="&#x20A1;" d="M40 355Q40 435 59 500Q78 565 112 611.50Q146 658 193 685.50Q240 713 296 719L318 805L380 805L358 718Q374 716 389.50 712Q405 708 418 703L444 805L506 805L473 673Q513 645 539.50 600Q566 555 577 498L491 498Q487 525 477 548.50Q467 572 452 590L320 61L321 61Q392 61 436.50 105Q481 149 488 214L574 214Q560 111 490.50 50.50Q421-10 323-10Q318-10 312.50-10Q307-10 302-9L280-97L218-97L243 2Q228 7 213 13.50Q198 20 185 29L154-97L92-97L134 71Q91 118 65.50 190Q40 262 40 355M205 106Q217 95 231 86Q245 77 260 72L401 632Q388 638 372.50 642.50Q357 647 341 648L205 106M127 332Q127 283 135 242.50Q143 202 159 170L278 644Q210 627 168.50 557.50Q127 488 127 378L127 332Z"  horiz-adv-x="613" vert-adv-y="1000"  />

      
      <glyph glyph-name="uni2c" unicode="&#x2c;" d="M30-107Q75-97 101.50-67Q128-37 128 7Q122 3 114 1Q106-1 97-1Q69-1 54 16.50Q39 34 39 59Q39 86 58 104.50Q77 123 105 123Q140 123 160.50 96.50Q181 70 181 22Q181-48 138.50-92.50Q96-137 30-147L30-107Z"  horiz-adv-x="210" vert-adv-y="1000"  />

      
      <glyph glyph-name="uniF6C3" unicode="&#xF6C3;" d="M177-236Q213-232 235.50-215Q258-198 264-170Q259-172 252.50-173.50Q246-175 239-175Q214-175 200.50-159Q187-143 187-121Q187-96 204-79.50Q221-63 246-63Q277-63 296-83.50Q315-104 315-141Q315-196 276-231Q237-266 177-272L177-236Z"  horiz-adv-x="500" vert-adv-y="1000"  />

      
      <glyph glyph-name="unia9" unicode="&#xa9;" d="M35 355Q35 430 61.50 497Q88 564 135.50 613Q183 662 249.50 690.50Q316 719 394 719Q472 719 538.50 690.50Q605 662 652.50 613Q700 564 726.50 497Q753 430 753 355Q753 280 726.50 213Q700 146 652.50 97Q605 48 538.50 19.50Q472-9 394-9Q316-9 249.50 19.50Q183 48 135.50 97Q88 146 61.50 213Q35 280 35 355M702 355Q702 422 680 480.50Q658 539 618 582Q578 625 520.50 650Q463 675 394 675Q325 675 268 650Q211 625 171 582Q131 539 109 480.50Q87 422 87 355Q87 288 109 229.50Q131 171 171 128Q211 85 268 60Q325 35 394 35Q463 35 520.50 60Q578 85 618 128Q658 171 680 229.50Q702 288 702 355M215 354Q215 443 266 497Q317 551 400 551Q472 551 514.50 514.50Q557 478 567 420L487 420Q482 448 461 468Q440 488 400 488Q351 488 322.50 453.50Q294 419 294 365L294 344Q294 290 322.50 256.50Q351 223 400 223Q440 223 461 242.50Q482 262 487 289L567 289Q557 232 514.50 195.50Q472 159 400 159Q317 159 266 212Q215 265 215 354Z"  horiz-adv-x="788" vert-adv-y="1000"  />

      
      <glyph glyph-name="uni20A2" unicode="&#x20A2;" d="M44 355Q44 440 65 507.50Q86 575 123.50 622Q161 669 213 694Q265 719 325 719Q420 719 488.50 660.50Q557 602 576 499L485 499Q474 565 432 605.50Q390 646 323 646Q240 646 187.50 575Q135 504 135 378L135 332Q135 231 168.50 164.50Q202 98 259 74L259 397L342 397L342 322L346 322Q365 363 394.50 380.50Q424 398 457 398L502 398L502 319L462 319Q402 319 372 285.50Q342 252 342 182L342 63Q403 69 440 111.50Q477 154 482 213L572 213Q565 162 543.50 120.50Q522 79 489.50 50.50Q457 22 415 6.50Q373-9 325-9Q265-9 213 16Q161 41 123.50 88Q86 135 65 202.50Q44 270 44 355Z"  horiz-adv-x="612" vert-adv-y="1000"  />

      
      <glyph glyph-name="uni64" unicode="&#x64;" d="M395 75Q374 38 333 14Q292-10 242-10Q196-10 156.50 9Q117 28 88.50 63Q60 98 43.50 148Q27 198 27 260Q27 322 43.50 372Q60 422 88.50 457Q117 492 156.50 511Q196 530 242 530Q292 530 333 506Q374 482 395 445L399 445L399 740L488 740L488 0L399 0L399 75L395 75M117 238Q117 149 157 105.50Q197 62 261 62Q317 62 358 106.50Q399 151 399 232L399 288Q399 369 358 413.50Q317 458 261 458Q197 458 157 414.50Q117 371 117 282L117 238Z"  horiz-adv-x="543" vert-adv-y="1000"  />

      
      <glyph glyph-name="uni2020" unicode="&#x2020;" d="M32 576L163 576L163 710L238 710L238 576L368 576L368 511L238 511L238 184L163 184L163 511L32 511L32 576Z"  horiz-adv-x="400" vert-adv-y="1000"  />

      
      <glyph glyph-name="uni2021" unicode="&#x2021;" d="M32 320L32 382L163 382L163 512L32 512L32 575L163 575L163 710L236 710L236 575L367 575L367 512L236 512L236 382L367 382L367 320L236 320L236 184L163 184L163 320L32 320Z"  horiz-adv-x="399" vert-adv-y="1000"  />

      
      <glyph glyph-name="uni010F" unicode="&#x010F;" d="M395 75Q374 38 333 14Q292-10 242-10Q196-10 156.50 9Q117 28 88.50 63Q60 98 43.50 148Q27 198 27 260Q27 322 43.50 372Q60 422 88.50 457Q117 492 156.50 511Q196 530 242 530Q292 530 333 506Q374 482 395 445L399 445L399 740L488 740L488 0L399 0L399 75L395 75M558 740L650 740L612 576L541 576L558 740M117 238Q117 149 157 105.50Q197 62 261 62Q317 62 358 106.50Q399 151 399 232L399 288Q399 369 358 413.50Q317 458 261 458Q197 458 157 414.50Q117 371 117 282L117 238Z"  horiz-adv-x="543" vert-adv-y="1000"  />

      
      <glyph glyph-name="uni0111" unicode="&#x0111;" d="M395 75Q374 38 333 14Q292-10 242-10Q196-10 156.50 9Q117 28 88.50 63Q60 98 43.50 148Q27 198 27 260Q27 322 43.50 372Q60 422 88.50 457Q117 492 156.50 511Q196 530 242 530Q292 530 333 506Q374 482 395 445L399 445L399 594L248 594L248 656L399 656L399 740L488 740L488 656L563 656L563 594L488 594L488 0L399 0L399 75L395 75M117 238Q117 149 157 105.50Q197 62 261 62Q317 62 358 106.50Q399 151 399 232L399 288Q399 369 358 413.50Q317 458 261 458Q197 458 157 414.50Q117 371 117 282L117 238Z"  horiz-adv-x="543" vert-adv-y="1000"  />

      
      <glyph glyph-name="uni1E0D" unicode="&#x1E0D;" d="M395 75Q374 38 333 14Q292-10 242-10Q196-10 156.50 9Q117 28 88.50 63Q60 98 43.50 148Q27 198 27 260Q27 322 43.50 372Q60 422 88.50 457Q117 492 156.50 511Q196 530 242 530Q292 530 333 506Q374 482 395 445L399 445L399 740L488 740L488 0L399 0L399 75L395 75M117 238Q117 149 157 105.50Q197 62 261 62Q317 62 358 106.50Q399 151 399 232L399 288Q399 369 358 413.50Q317 458 261 458Q197 458 157 414.50Q117 371 117 282L117 238M270-70Q296-70 314-87.50Q332-105 332-132Q332-158 314-176Q296-194 270-194Q244-194 226-176Q208-158 208-132Q208-105 226-87.50Q244-70 270-70Z"  horiz-adv-x="543" vert-adv-y="1000"  />

      
      <glyph glyph-name="unib0" unicode="&#xb0;" d="M33 579Q33 638 73.50 679Q114 720 178 720Q243 720 283 679Q323 638 323 579Q323 519 283 478.50Q243 438 178 438Q114 438 73.50 478.50Q33 519 33 579M256 579Q256 613 235.50 637.50Q215 662 178 662Q141 662 120.50 637.50Q100 613 100 579Q100 545 120.50 520.50Q141 496 178 496Q215 496 235.50 520.50Q256 545 256 579Z"  horiz-adv-x="356" vert-adv-y="1000"  />

      
      <glyph glyph-name="unia8" unicode="&#xa8;" d="M102 670Q102 695 119 712Q136 729 161 729Q186 729 203 712Q220 695 220 670Q220 645 203 627.50Q186 610 161 610Q136 610 119 627.50Q102 645 102 670M280 670Q280 695 297 712Q314 729 339 729Q364 729 381 712Q398 695 398 670Q398 645 381 627.50Q364 610 339 610Q314 610 297 627.50Q280 645 280 670Z"  horiz-adv-x="500" vert-adv-y="1000"  />

      
      <glyph glyph-name="unif7" unicode="&#xf7;" d="M352 551Q352 523 332.50 503.50Q313 484 286 484Q259 484 239.50 503.50Q220 523 220 551Q220 578 239.50 597.50Q259 617 286 617Q313 617 332.50 597.50Q352 578 352 551M25 309L25 381L547 381L547 309L25 309M352 140Q352 112 332.50 92.50Q313 73 286 73Q259 73 239.50 92.50Q220 112 220 140Q220 167 239.50 186.50Q259 206 286 206Q313 206 332.50 186.50Q352 167 352 140Z"  horiz-adv-x="572" vert-adv-y="1000"  />

      
      <glyph glyph-name="uni24" unicode="&#x24;" d="M35 194L124 194Q131 145 159 109Q187 73 247 64L247 326L236 328Q146 347 97.50 391.50Q49 436 49 514Q49 595 103 652.50Q157 710 248 719L248 807L311 807L311 718Q358 713 393 695.50Q428 678 451 654Q474 630 487 600.50Q500 571 504 543L417 543Q410 581 385 609.50Q360 638 311 646L311 391L338 385Q430 366 476 318Q522 270 522 198Q522 107 464 51.50Q406-4 309-9L309-119L247-119L247-8Q196-2 158.50 16.50Q121 35 95 62.50Q69 90 54.50 124Q40 158 35 194M131 518Q131 472 160 445.50Q189 419 248 405L248 647Q195 641 163 607Q131 573 131 518M314 311L309 312L309 62Q368 67 403.50 99.50Q439 132 439 189Q439 246 408.50 271.50Q378 297 314 311Z"  horiz-adv-x="557" vert-adv-y="1000"  />

      
      <glyph glyph-name="uni20AB" unicode="&#x20AB;" d="M26 239Q26 296 42.50 342.50Q59 389 88 420.50Q117 452 157 469Q197 486 244 486Q298 486 339 464.50Q380 443 402 408L406 408L406 551L225 551L225 614L406 614L406 710L493 710L493 614L583 614L583 551L493 551L493 0L406 0L406 69L402 69Q380 33 339 11.50Q298-10 244-10Q197-10 157 7Q117 24 88 56Q59 88 42.50 134.50Q26 181 26 239M117 218Q117 138 157 99Q197 60 262 60Q320 60 363 100.50Q406 141 406 215L406 261Q406 335 363 376Q320 417 262 417Q197 417 157 377.50Q117 338 117 258L117 218M103-76L461-76L461-139L103-139L103-76Z"  horiz-adv-x="608" vert-adv-y="1000"  />

      
      <glyph glyph-name="uni02D9" unicode="&#x02D9;" d="M250 734Q276 734 294 716.50Q312 699 312 672Q312 646 294 628Q276 610 250 610Q224 610 206 628Q188 646 188 672Q188 699 206 716.50Q224 734 250 734Z"  horiz-adv-x="500" vert-adv-y="1000"  />

      
      <glyph glyph-name="uni0131" unicode="&#x0131;" d="M55 520L144 520L144 0L55 0L55 520Z"  horiz-adv-x="199" vert-adv-y="1000"  />

      
      <glyph glyph-name="uni0237" unicode="&#x0237;" d="M-29-98L-8-98Q23-98 39-80.50Q55-63 55-35L55 520L144 520L144-37Q144-97 103.50-133.50Q63-170-1-170L-29-170L-29-98Z"  horiz-adv-x="199" vert-adv-y="1000"  />

      
      <glyph glyph-name="uni65" unicode="&#x65;" d="M479 149Q470 118 451.50 89.50Q433 61 406 39Q379 17 343 3.50Q307-10 262-10Q156-10 91.50 64Q27 138 27 261Q27 322 44.50 372Q62 422 92.50 457Q123 492 166 511Q209 530 259 530Q361 530 421 457Q481 384 481 261L481 243L117 243L117 237Q117 153 158 107.50Q199 62 262 62Q316 62 347.50 86.50Q379 111 392 149L479 149M259 458Q202 458 163 419.50Q124 381 118 309L393 309Q389 380 352.50 419Q316 458 259 458Z"  horiz-adv-x="507" vert-adv-y="1000"  />

      
      <glyph glyph-name="unie9" unicode="&#xe9;" d="M407 760L294 607L207 607L296 760L407 760M479 149Q470 118 451.50 89.50Q433 61 406 39Q379 17 343 3.50Q307-10 262-10Q156-10 91.50 64Q27 138 27 261Q27 322 44.50 372Q62 422 92.50 457Q123 492 166 511Q209 530 259 530Q361 530 421 457Q481 384 481 261L481 243L117 243L117 237Q117 153 158 107.50Q199 62 262 62Q316 62 347.50 86.50Q379 111 392 149L479 149M259 458Q202 458 163 419.50Q124 381 118 309L393 309Q389 380 352.50 419Q316 458 259 458Z"  horiz-adv-x="507" vert-adv-y="1000"  />

      
      <glyph glyph-name="uni0115" unicode="&#x0115;" d="M123 757L197 757Q197 714 214.50 694Q232 674 261 674Q290 674 307.50 694Q325 714 325 757L399 757Q399 689 361 648.50Q323 608 261 608Q199 608 161 648.50Q123 689 123 757M479 149Q470 118 451.50 89.50Q433 61 406 39Q379 17 343 3.50Q307-10 262-10Q156-10 91.50 64Q27 138 27 261Q27 322 44.50 372Q62 422 92.50 457Q123 492 166 511Q209 530 259 530Q361 530 421 457Q481 384 481 261L481 243L117 243L117 237Q117 153 158 107.50Q199 62 262 62Q316 62 347.50 86.50Q379 111 392 149L479 149M259 458Q202 458 163 419.50Q124 381 118 309L393 309Q389 380 352.50 419Q316 458 259 458Z"  horiz-adv-x="507" vert-adv-y="1000"  />

      
      <glyph glyph-name="uni011B" unicode="&#x011B;" d="M309 607L213 607L115 759L200 759L261 662L322 759L407 759L309 607M479 149Q470 118 451.50 89.50Q433 61 406 39Q379 17 343 3.50Q307-10 262-10Q156-10 91.50 64Q27 138 27 261Q27 322 44.50 372Q62 422 92.50 457Q123 492 166 511Q209 530 259 530Q361 530 421 457Q481 384 481 261L481 243L117 243L117 237Q117 153 158 107.50Q199 62 262 62Q316 62 347.50 86.50Q379 111 392 149L479 149M259 458Q202 458 163 419.50Q124 381 118 309L393 309Q389 380 352.50 419Q316 458 259 458Z"  horiz-adv-x="507" vert-adv-y="1000"  />

      
      <glyph glyph-name="uniea" unicode="&#xea;" d="M213 761L309 761L407 608L322 608L261 705L200 608L115 608L213 761M479 149Q470 118 451.50 89.50Q433 61 406 39Q379 17 343 3.50Q307-10 262-10Q156-10 91.50 64Q27 138 27 261Q27 322 44.50 372Q62 422 92.50 457Q123 492 166 511Q209 530 259 530Q361 530 421 457Q481 384 481 261L481 243L117 243L117 237Q117 153 158 107.50Q199 62 262 62Q316 62 347.50 86.50Q379 111 392 149L479 149M259 458Q202 458 163 419.50Q124 381 118 309L393 309Q389 380 352.50 419Q316 458 259 458Z"  horiz-adv-x="507" vert-adv-y="1000"  />

      
      <glyph glyph-name="unieb" unicode="&#xeb;" d="M113 670Q113 695 130 712Q147 729 172 729Q197 729 214 712Q231 695 231 670Q231 645 214 627.50Q197 610 172 610Q147 610 130 627.50Q113 645 113 670M291 670Q291 695 308 712Q325 729 350 729Q375 729 392 712Q409 695 409 670Q409 645 392 627.50Q375 610 350 610Q325 610 308 627.50Q291 645 291 670M479 149Q470 118 451.50 89.50Q433 61 406 39Q379 17 343 3.50Q307-10 262-10Q156-10 91.50 64Q27 138 27 261Q27 322 44.50 372Q62 422 92.50 457Q123 492 166 511Q209 530 259 530Q361 530 421 457Q481 384 481 261L481 243L117 243L117 237Q117 153 158 107.50Q199 62 262 62Q316 62 347.50 86.50Q379 111 392 149L479 149M259 458Q202 458 163 419.50Q124 381 118 309L393 309Q389 380 352.50 419Q316 458 259 458Z"  horiz-adv-x="507" vert-adv-y="1000"  />

      
      </font>
</defs>
</svg>
