<?xml version="1.0" standalone="no"?>
  <!DOCTYPE svg PUBLIC "-//W3C//DTD SVG 1.1//EN" "http://www.w3.org/Graphics/SVG/1.1/DTD/svg11.dtd" >
  <svg>
  <metadata>
  Created by font-carrier
  </metadata>
  <defs>
  <font id="APTypeDisplay-MediumItalic" horiz-adv-x="1204" vert-adv-y="1204" >
    <font-face
      
      font-family="AP Type Display Medium"
      
      font-weight="400"
      
      font-stretch="normal"
      
      units-per-em="1000"
      
      ascent="1185"
      
      descent="-277"
      
    />
      <missing-glyph />

      

      
      <glyph glyph-name="uni41" unicode="&#x41;" d="M318 710L464 710L581 0L461 0L437 151L154 151L77 0L-49 0L318 710M206 253L421 253L371 576L206 253Z"  horiz-adv-x="627" vert-adv-y="1000"  />

      
      <glyph glyph-name="unic6" unicode="&#xc6;" d="M418 710L1001 710L984 608L640 608L608 423L930 423L913 322L590 322L551 102L902 102L883 0L409 0L445 206L207 206L66 0L-71 0L418 710M275 306L463 306L517 613L485 613L275 306Z"  horiz-adv-x="960" vert-adv-y="1000"  />

      
      <glyph glyph-name="uni01FC" unicode="&#x01FC;" d="M664 940L820 940L665 789L542 789L664 940M418 710L1001 710L984 608L640 608L608 423L930 423L913 322L590 322L551 102L902 102L883 0L409 0L445 206L207 206L66 0L-71 0L418 710M275 306L463 306L517 613L485 613L275 306Z"  horiz-adv-x="960" vert-adv-y="1000"  />

      
      <glyph glyph-name="unic1" unicode="&#xc1;" d="M458 940L614 940L459 789L336 789L458 940M318 710L464 710L581 0L461 0L437 151L154 151L77 0L-49 0L318 710M206 253L421 253L371 576L206 253Z"  horiz-adv-x="627" vert-adv-y="1000"  />

      
      <glyph glyph-name="uni0102" unicode="&#x0102;" d="M271 939L364 939Q360 902 373.50 883.50Q387 865 418 865Q442 865 461.50 883Q481 901 485 939L582 939Q572 866 525.50 824Q479 782 413 782Q338 782 300.50 825Q263 868 271 939M318 710L464 710L581 0L461 0L437 151L154 151L77 0L-49 0L318 710M206 253L421 253L371 576L206 253Z"  horiz-adv-x="627" vert-adv-y="1000"  />

      
      <glyph glyph-name="unic2" unicode="&#xc2;" d="M365 949L489 949L572 792L467 792L420 882L341 792L228 792L365 949M318 710L464 710L581 0L461 0L437 151L154 151L77 0L-49 0L318 710M206 253L421 253L371 576L206 253Z"  horiz-adv-x="627" vert-adv-y="1000"  />

      
      <glyph glyph-name="unic4" unicode="&#xc4;" d="M242 856Q242 886 262 906.50Q282 927 312 927Q343 927 363.50 906.50Q384 886 384 856Q384 825 363.50 805Q343 785 312 785Q282 785 262 805Q242 825 242 856M442 856Q442 886 462.50 906.50Q483 927 514 927Q544 927 564 906.50Q584 886 584 856Q584 825 564 805Q544 785 514 785Q483 785 462.50 805Q442 825 442 856M318 710L464 710L581 0L461 0L437 151L154 151L77 0L-49 0L318 710M206 253L421 253L371 576L206 253Z"  horiz-adv-x="627" vert-adv-y="1000"  />

      
      <glyph glyph-name="uni1EA0" unicode="&#x1EA0;" d="M318 710L464 710L581 0L461 0L437 151L154 151L77 0L-49 0L318 710M206 253L421 253L371 576L206 253M172-138Q172-106 194.50-84Q217-62 249-62Q280-62 303-84Q326-106 326-138Q326-170 303-192Q280-214 249-214Q217-214 194.50-192Q172-170 172-138Z"  horiz-adv-x="627" vert-adv-y="1000"  />

      
      <glyph glyph-name="unic0" unicode="&#xc0;" d="M250 940L393 940L463 789L355 789L250 940M318 710L464 710L581 0L461 0L437 151L154 151L77 0L-49 0L318 710M206 253L421 253L371 576L206 253Z"  horiz-adv-x="627" vert-adv-y="1000"  />

      
      <glyph glyph-name="uni0100" unicode="&#x0100;" d="M278 897L563 897L546 803L261 803L278 897M318 710L464 710L581 0L461 0L437 151L154 151L77 0L-49 0L318 710M206 253L421 253L371 576L206 253Z"  horiz-adv-x="627" vert-adv-y="1000"  />

      
      <glyph glyph-name="uni0104" unicode="&#x0104;" d="M376-123Q376-95 401-58.50Q426-22 483-4L483 0L461 0L437 151L154 151L77 0L-49 0L318 710L464 710L581 0Q523-28 495.50-51Q468-74 468-98Q468-114 479.50-125Q491-136 520-136Q530-136 540-133.50Q550-131 558-127L544-202Q533-205 518-207Q503-209 488-209Q439-209 407.50-186Q376-163 376-123M206 253L421 253L371 576L206 253Z"  horiz-adv-x="627" vert-adv-y="1000"  />

      
      <glyph glyph-name="unic5" unicode="&#xc5;" d="M299 876Q299 926 332.50 957.50Q366 989 417 989Q468 989 501.50 957.50Q535 926 535 876Q535 827 501.50 795Q468 763 417 763Q366 763 332.50 795Q299 827 299 876M466 876Q466 899 451.50 913.50Q437 928 417 928Q396 928 381.50 913.50Q367 899 367 876Q367 855 381.50 840Q396 825 417 825Q437 825 451.50 840Q466 855 466 876M318 710L464 710L581 0L461 0L437 151L154 151L77 0L-49 0L318 710M206 253L421 253L371 576L206 253Z"  horiz-adv-x="627" vert-adv-y="1000"  />

      
      <glyph glyph-name="uni01FA" unicode="&#x01FA;" d="M500 1185L656 1185L501 1034L378 1034L500 1185M301 872Q301 922 334.50 953.50Q368 985 419 985Q470 985 503.50 953.50Q537 922 537 872Q537 823 503.50 791Q470 759 419 759Q368 759 334.50 791Q301 823 301 872M468 872Q468 895 453.50 909.50Q439 924 419 924Q398 924 383.50 909.50Q369 895 369 872Q369 851 383.50 836Q398 821 419 821Q439 821 453.50 836Q468 851 468 872M318 710L464 710L581 0L461 0L437 151L154 151L77 0L-49 0L318 710M206 253L421 253L371 576L206 253Z"  horiz-adv-x="627" vert-adv-y="1000"  />

      
      <glyph glyph-name="unic3" unicode="&#xc3;" d="M357 925Q376 925 392.50 918.50Q409 912 422 904Q434 897 445 890.50Q456 884 464 884Q482 884 488.50 901Q495 918 496 935L582 935Q579 869 551 832Q523 795 476 795Q453 795 436 801.50Q419 808 406 817Q393 826 382.50 831.50Q372 837 365 837Q349 837 341.50 822.50Q334 808 332 787L246 787Q249 853 280.50 889Q312 925 357 925M318 710L464 710L581 0L461 0L437 151L154 151L77 0L-49 0L318 710M206 253L421 253L371 576L206 253Z"  horiz-adv-x="627" vert-adv-y="1000"  />

      
      <glyph glyph-name="uni42" unicode="&#x42;" d="M133 710L430 710Q515 710 565 663.50Q615 617 615 541Q615 487 582.50 437.50Q550 388 488 365Q531 351 558 314.50Q585 278 585 220Q585 120 510 60Q435 0 311 0L8 0L133 710M394 612L240 612L205 413L364 413Q424 413 455.50 444.50Q487 476 487 526Q487 569 463 590.50Q439 612 394 612M352 316L188 316L150 99L318 99Q387 99 423.50 130Q460 161 460 219Q460 269 430.50 292.50Q401 316 352 316Z"  horiz-adv-x="615" vert-adv-y="1000"  />

      
      <glyph glyph-name="uni43" unicode="&#x43;" d="M39 295Q39 372 61.50 448.50Q84 525 130.50 585.50Q177 646 247.50 684Q318 722 414 722Q479 722 530 704.50Q581 687 616.50 655.50Q652 624 673 580Q694 536 699 484L575 484Q565 540 527 579.50Q489 619 403 619Q316 619 255.50 558.50Q195 498 176 399Q169 361 165.50 335.50Q162 310 162 291Q162 198 212 144.50Q262 91 349 91Q421 91 465 129.50Q509 168 524 216L655 216Q639 167 611 125.50Q583 84 544 53.50Q505 23 454 5.50Q403-12 343-12Q275-12 218.50 9Q162 30 122.50 69.50Q83 109 61 166Q39 223 39 295Z"  horiz-adv-x="680" vert-adv-y="1000"  />

      
      <glyph glyph-name="uni0106" unicode="&#x0106;" d="M478 940L634 940L479 789L356 789L478 940M39 295Q39 372 61.50 448.50Q84 525 130.50 585.50Q177 646 247.50 684Q318 722 414 722Q479 722 530 704.50Q581 687 616.50 655.50Q652 624 673 580Q694 536 699 484L575 484Q565 540 527 579.50Q489 619 403 619Q316 619 255.50 558.50Q195 498 176 399Q169 361 165.50 335.50Q162 310 162 291Q162 198 212 144.50Q262 91 349 91Q421 91 465 129.50Q509 168 524 216L655 216Q639 167 611 125.50Q583 84 544 53.50Q505 23 454 5.50Q403-12 343-12Q275-12 218.50 9Q162 30 122.50 69.50Q83 109 61 166Q39 223 39 295Z"  horiz-adv-x="680" vert-adv-y="1000"  />

      
      <glyph glyph-name="uni010C" unicode="&#x010C;" d="M277 946L382 946L430 857L508 946L622 946L484 789L360 789L277 946M39 295Q39 372 61.50 448.50Q84 525 130.50 585.50Q177 646 247.50 684Q318 722 414 722Q479 722 530 704.50Q581 687 616.50 655.50Q652 624 673 580Q694 536 699 484L575 484Q565 540 527 579.50Q489 619 403 619Q316 619 255.50 558.50Q195 498 176 399Q169 361 165.50 335.50Q162 310 162 291Q162 198 212 144.50Q262 91 349 91Q421 91 465 129.50Q509 168 524 216L655 216Q639 167 611 125.50Q583 84 544 53.50Q505 23 454 5.50Q403-12 343-12Q275-12 218.50 9Q162 30 122.50 69.50Q83 109 61 166Q39 223 39 295Z"  horiz-adv-x="680" vert-adv-y="1000"  />

      
      <glyph glyph-name="unic7" unicode="&#xc7;" d="M180-154L251-154Q252-165 263-174.50Q274-184 297-184Q318-184 330.50-172.50Q343-161 343-144Q343-128 332-118.50Q321-109 304-109Q293-109 283.50-113Q274-117 267-122L227-95L290-9Q176 7 107.50 86.50Q39 166 39 295Q39 372 61.50 448.50Q84 525 130.50 585.50Q177 646 247.50 684Q318 722 414 722Q479 722 530 704.50Q581 687 616.50 655.50Q652 624 673 580Q694 536 699 484L575 484Q565 540 527 579.50Q489 619 403 619Q316 619 255.50 558.50Q195 498 176 399Q169 361 165.50 335.50Q162 310 162 291Q162 198 212 144.50Q262 91 349 91Q421 91 465 129.50Q509 168 524 216L655 216Q639 168 612 127Q585 86 547 55.50Q509 25 460 7Q411-11 352-12L323-52Q325-52 326.50-52Q328-52 329-52Q367-52 391-75Q415-98 415-138Q415-181 382.50-211.50Q350-242 296-242Q233-242 206.50-213.50Q180-185 180-154Z"  horiz-adv-x="680" vert-adv-y="1000"  />

      
      <glyph glyph-name="uni0108" unicode="&#x0108;" d="M385 949L509 949L592 792L487 792L440 882L361 792L248 792L385 949M39 295Q39 372 61.50 448.50Q84 525 130.50 585.50Q177 646 247.50 684Q318 722 414 722Q479 722 530 704.50Q581 687 616.50 655.50Q652 624 673 580Q694 536 699 484L575 484Q565 540 527 579.50Q489 619 403 619Q316 619 255.50 558.50Q195 498 176 399Q169 361 165.50 335.50Q162 310 162 291Q162 198 212 144.50Q262 91 349 91Q421 91 465 129.50Q509 168 524 216L655 216Q639 167 611 125.50Q583 84 544 53.50Q505 23 454 5.50Q403-12 343-12Q275-12 218.50 9Q162 30 122.50 69.50Q83 109 61 166Q39 223 39 295Z"  horiz-adv-x="680" vert-adv-y="1000"  />

      
      <glyph glyph-name="uni010A" unicode="&#x010A;" d="M433 938Q465 938 487.50 916Q510 894 510 862Q510 829 487.50 807Q465 785 433 785Q402 785 379.50 807Q357 829 357 862Q357 894 379.50 916Q402 938 433 938M39 295Q39 372 61.50 448.50Q84 525 130.50 585.50Q177 646 247.50 684Q318 722 414 722Q479 722 530 704.50Q581 687 616.50 655.50Q652 624 673 580Q694 536 699 484L575 484Q565 540 527 579.50Q489 619 403 619Q316 619 255.50 558.50Q195 498 176 399Q169 361 165.50 335.50Q162 310 162 291Q162 198 212 144.50Q262 91 349 91Q421 91 465 129.50Q509 168 524 216L655 216Q639 167 611 125.50Q583 84 544 53.50Q505 23 454 5.50Q403-12 343-12Q275-12 218.50 9Q162 30 122.50 69.50Q83 109 61 166Q39 223 39 295Z"  horiz-adv-x="680" vert-adv-y="1000"  />

      
      <glyph glyph-name="uni44" unicode="&#x44;" d="M133 710L359 710Q430 710 489 688Q548 666 589.50 625Q631 584 654 524.50Q677 465 677 390Q677 292 645.50 218.50Q614 145 560 96.50Q506 48 432.50 24Q359 0 277 0L8 0L133 710M349 608L238 608L149 102L283 102Q414 102 483 178.50Q552 255 552 389Q552 502 497 555Q442 608 349 608Z"  horiz-adv-x="689" vert-adv-y="1000"  />

      
      <glyph glyph-name="uni010E" unicode="&#x010E;" d="M262 946L367 946L415 857L493 946L607 946L469 789L345 789L262 946M133 710L359 710Q430 710 489 688Q548 666 589.50 625Q631 584 654 524.50Q677 465 677 390Q677 292 645.50 218.50Q614 145 560 96.50Q506 48 432.50 24Q359 0 277 0L8 0L133 710M349 608L238 608L149 102L283 102Q414 102 483 178.50Q552 255 552 389Q552 502 497 555Q442 608 349 608Z"  horiz-adv-x="689" vert-adv-y="1000"  />

      
      <glyph glyph-name="uni0110" unicode="&#x0110;" d="M26 412L110 412L162 710L388 710Q459 710 518 688Q577 666 618.50 625Q660 584 683 524.50Q706 465 706 390Q706 292 674.50 218.50Q643 145 589 96.50Q535 48 461.50 24Q388 0 306 0L37 0L93 316L9 316L26 412M395 316L216 316L178 102L312 102Q443 102 512 178.50Q581 255 581 389Q581 502 526 555Q471 608 378 608L267 608L233 412L411 412L395 316Z"  horiz-adv-x="717" vert-adv-y="1000"  />

      
      <glyph glyph-name="uni1E0C" unicode="&#x1E0C;" d="M133 710L359 710Q430 710 489 688Q548 666 589.50 625Q631 584 654 524.50Q677 465 677 390Q677 292 645.50 218.50Q614 145 560 96.50Q506 48 432.50 24Q359 0 277 0L8 0L133 710M349 608L238 608L149 102L283 102Q414 102 483 178.50Q552 255 552 389Q552 502 497 555Q442 608 349 608M186-138Q186-106 208.50-84Q231-62 263-62Q294-62 317-84Q340-106 340-138Q340-170 317-192Q294-214 263-214Q231-214 208.50-192Q186-170 186-138Z"  horiz-adv-x="689" vert-adv-y="1000"  />

      
      <glyph glyph-name="uni45" unicode="&#x45;" d="M500 102L482 0L8 0L133 710L600 710L582 608L239 608L207 423L529 423L511 322L189 322L150 102L500 102Z"  horiz-adv-x="558" vert-adv-y="1000"  />

      
      <glyph glyph-name="unic9" unicode="&#xc9;" d="M431 940L587 940L432 789L309 789L431 940M500 102L482 0L8 0L133 710L600 710L582 608L239 608L207 423L529 423L511 322L189 322L150 102L500 102Z"  horiz-adv-x="558" vert-adv-y="1000"  />

      
      <glyph glyph-name="uni0114" unicode="&#x0114;" d="M244 939L337 939Q333 902 346.50 883.50Q360 865 391 865Q415 865 434.50 883Q454 901 458 939L555 939Q545 866 498.50 824Q452 782 386 782Q311 782 273.50 825Q236 868 244 939M500 102L482 0L8 0L133 710L600 710L582 608L239 608L207 423L529 423L511 322L189 322L150 102L500 102Z"  horiz-adv-x="558" vert-adv-y="1000"  />

      
      <glyph glyph-name="uni011A" unicode="&#x011A;" d="M230 946L335 946L383 857L461 946L575 946L437 789L313 789L230 946M500 102L482 0L8 0L133 710L600 710L582 608L239 608L207 423L529 423L511 322L189 322L150 102L500 102Z"  horiz-adv-x="558" vert-adv-y="1000"  />

      
      <glyph glyph-name="unica" unicode="&#xca;" d="M339 949L463 949L546 792L441 792L394 882L315 792L202 792L339 949M500 102L482 0L8 0L133 710L600 710L582 608L239 608L207 423L529 423L511 322L189 322L150 102L500 102Z"  horiz-adv-x="558" vert-adv-y="1000"  />

      
      <glyph glyph-name="unicb" unicode="&#xcb;" d="M216 856Q216 886 236 906.50Q256 927 286 927Q317 927 337.50 906.50Q358 886 358 856Q358 825 337.50 805Q317 785 286 785Q256 785 236 805Q216 825 216 856M416 856Q416 886 436.50 906.50Q457 927 488 927Q518 927 538 906.50Q558 886 558 856Q558 825 538 805Q518 785 488 785Q457 785 436.50 805Q416 825 416 856M500 102L482 0L8 0L133 710L600 710L582 608L239 608L207 423L529 423L511 322L189 322L150 102L500 102Z"  horiz-adv-x="558" vert-adv-y="1000"  />

      
      <glyph glyph-name="uni0116" unicode="&#x0116;" d="M386 938Q418 938 440.50 916Q463 894 463 862Q463 829 440.50 807Q418 785 386 785Q355 785 332.50 807Q310 829 310 862Q310 894 332.50 916Q355 938 386 938M500 102L482 0L8 0L133 710L600 710L582 608L239 608L207 423L529 423L511 322L189 322L150 102L500 102Z"  horiz-adv-x="558" vert-adv-y="1000"  />

      
      <glyph glyph-name="uni1EB8" unicode="&#x1EB8;" d="M500 102L482 0L8 0L133 710L600 710L582 608L239 608L207 423L529 423L511 322L189 322L150 102L500 102M173-138Q173-106 195.50-84Q218-62 250-62Q281-62 304-84Q327-106 327-138Q327-170 304-192Q281-214 250-214Q218-214 195.50-192Q173-170 173-138Z"  horiz-adv-x="558" vert-adv-y="1000"  />

      
      <glyph glyph-name="unic8" unicode="&#xc8;" d="M223 940L366 940L436 789L328 789L223 940M500 102L482 0L8 0L133 710L600 710L582 608L239 608L207 423L529 423L511 322L189 322L150 102L500 102Z"  horiz-adv-x="558" vert-adv-y="1000"  />

      
      <glyph glyph-name="uni0112" unicode="&#x0112;" d="M252 897L537 897L520 803L235 803L252 897M500 102L482 0L8 0L133 710L600 710L582 608L239 608L207 423L529 423L511 322L189 322L150 102L500 102Z"  horiz-adv-x="558" vert-adv-y="1000"  />

      
      <glyph glyph-name="uni014A" unicode="&#x014A;" d="M623-27Q611-95 565-132.50Q519-170 445-170L400-170L415-79L438-79Q469-79 485-64Q501-49 506-19L510 2L224 547L128 0L8 0L133 710L271 710L541 193L632 710L753 710L623-27Z"  horiz-adv-x="728" vert-adv-y="1000"  />

      
      <glyph glyph-name="uni0118" unicode="&#x0118;" d="M237-123Q237-96 260.50-60Q284-24 345 0L8 0L133 710L600 710L582 608L239 608L207 423L529 423L511 322L189 322L150 102L500 102L482 0L441 0Q384-28 356.50-51Q329-74 329-98Q329-114 340.50-125Q352-136 381-136Q390-136 400.50-133.50Q411-131 418-127L405-202Q394-205 379-207Q364-209 349-209Q299-209 268-186Q237-163 237-123Z"  horiz-adv-x="558" vert-adv-y="1000"  />

      
      <glyph glyph-name="unid0" unicode="&#xd0;" d="M26 412L110 412L162 710L388 710Q459 710 518 688Q577 666 618.50 625Q660 584 683 524.50Q706 465 706 390Q706 292 674.50 218.50Q643 145 589 96.50Q535 48 461.50 24Q388 0 306 0L37 0L93 316L9 316L26 412M395 316L216 316L178 102L312 102Q443 102 512 178.50Q581 255 581 389Q581 502 526 555Q471 608 378 608L267 608L233 412L411 412L395 316Z"  horiz-adv-x="717" vert-adv-y="1000"  />

      
      <glyph glyph-name="uni1EBC" unicode="&#x1EBC;" d="M331 925Q350 925 366.50 918.50Q383 912 396 904Q408 897 419 890.50Q430 884 438 884Q456 884 462.50 901Q469 918 470 935L556 935Q553 869 525 832Q497 795 450 795Q427 795 410 801.50Q393 808 380 817Q367 826 356.50 831.50Q346 837 339 837Q323 837 315.50 822.50Q308 808 306 787L220 787Q223 853 254.50 889Q286 925 331 925M500 102L482 0L8 0L133 710L600 710L582 608L239 608L207 423L529 423L511 322L189 322L150 102L500 102Z"  horiz-adv-x="558" vert-adv-y="1000"  />

      
      <glyph glyph-name="uni20AC" unicode="&#x20AC;" d="M41 321L112 321Q113 340 115 358Q117 376 120 393L54 393L66 465L137 465Q155 521 184 568.50Q213 616 251.50 650Q290 684 338 703Q386 722 441 722Q546 722 604.50 662.50Q663 603 673 509L554 509Q547 556 519 589.50Q491 623 431 623Q375 623 329 580Q283 537 259 465L489 465L456 393L242 393Q239 371 236.50 353Q234 335 233 321L421 321L387 248L231 248Q237 171 272.50 129Q308 87 367 87Q419 87 450.50 118Q482 149 498 194L622 194Q591 104 525.50 46Q460-12 364-12Q257-12 189.50 57Q122 126 112 248L28 248L41 321Z"  horiz-adv-x="667" vert-adv-y="1000"  />

      
      <glyph glyph-name="uni46" unicode="&#x46;" d="M513 407L495 307L186 307L132 0L8 0L133 710L592 710L575 608L239 608L204 407L513 407Z"  horiz-adv-x="533" vert-adv-y="1000"  />

      
      <glyph glyph-name="uni47" unicode="&#x47;" d="M39 296Q39 378 64 455.50Q89 533 137 591.50Q185 650 256.50 686Q328 722 421 722Q543 722 612.50 662Q682 602 699 508L569 508Q554 557 517.50 588Q481 619 405 619Q318 619 258 560Q198 501 177 400Q171 371 167 341Q163 311 163 291Q163 198 214 144.50Q265 91 354 91Q445 91 494 143.50Q543 196 556 271L558 283L409 283L427 383L699 383L687 307Q676 235 649 175.50Q622 116 579.50 74.50Q537 33 479 10.50Q421-12 350-12Q279-12 221.50 8Q164 28 123.50 67Q83 106 61 164Q39 222 39 296Z"  horiz-adv-x="704" vert-adv-y="1000"  />

      
      <glyph glyph-name="uni011E" unicode="&#x011E;" d="M298 939L391 939Q387 902 400.50 883.50Q414 865 445 865Q469 865 488.50 883Q508 901 512 939L609 939Q599 866 552.50 824Q506 782 440 782Q365 782 327.50 825Q290 868 298 939M39 296Q39 378 64 455.50Q89 533 137 591.50Q185 650 256.50 686Q328 722 421 722Q543 722 612.50 662Q682 602 699 508L569 508Q554 557 517.50 588Q481 619 405 619Q318 619 258 560Q198 501 177 400Q171 371 167 341Q163 311 163 291Q163 198 214 144.50Q265 91 354 91Q445 91 494 143.50Q543 196 556 271L558 283L409 283L427 383L699 383L687 307Q676 235 649 175.50Q622 116 579.50 74.50Q537 33 479 10.50Q421-12 350-12Q279-12 221.50 8Q164 28 123.50 67Q83 106 61 164Q39 222 39 296Z"  horiz-adv-x="704" vert-adv-y="1000"  />

      
      <glyph glyph-name="uni01E6" unicode="&#x01E6;" d="M283 946L388 946L436 857L514 946L628 946L490 789L366 789L283 946M39 296Q39 378 64 455.50Q89 533 137 591.50Q185 650 256.50 686Q328 722 421 722Q543 722 612.50 662Q682 602 699 508L569 508Q554 557 517.50 588Q481 619 405 619Q318 619 258 560Q198 501 177 400Q171 371 167 341Q163 311 163 291Q163 198 214 144.50Q265 91 354 91Q445 91 494 143.50Q543 196 556 271L558 283L409 283L427 383L699 383L687 307Q676 235 649 175.50Q622 116 579.50 74.50Q537 33 479 10.50Q421-12 350-12Q279-12 221.50 8Q164 28 123.50 67Q83 106 61 164Q39 222 39 296Z"  horiz-adv-x="704" vert-adv-y="1000"  />

      
      <glyph glyph-name="uni0122" unicode="&#x0122;" d="M39 296Q39 378 64 455.50Q89 533 137 591.50Q185 650 256.50 686Q328 722 421 722Q543 722 612.50 662Q682 602 699 508L569 508Q554 557 517.50 588Q481 619 405 619Q318 619 258 560Q198 501 177 400Q171 371 167 341Q163 311 163 291Q163 198 214 144.50Q265 91 354 91Q445 91 494 143.50Q543 196 556 271L558 283L409 283L427 383L699 383L687 307Q676 235 649 175.50Q622 116 579.50 74.50Q537 33 479 10.50Q421-12 350-12Q279-12 221.50 8Q164 28 123.50 67Q83 106 61 164Q39 222 39 296M222-234Q258-233 285-219.50Q312-206 325-182Q321-183 316-184Q311-185 307-185Q279-185 264-169Q249-153 249-130Q249-102 270-80Q291-58 324-58Q356-58 375-77Q394-96 394-130Q394-190 343-233Q292-276 214-277L222-234Z"  horiz-adv-x="704" vert-adv-y="1000"  />

      
      <glyph glyph-name="uni011C" unicode="&#x011C;" d="M392 949L516 949L599 792L494 792L447 882L368 792L255 792L392 949M39 296Q39 378 64 455.50Q89 533 137 591.50Q185 650 256.50 686Q328 722 421 722Q543 722 612.50 662Q682 602 699 508L569 508Q554 557 517.50 588Q481 619 405 619Q318 619 258 560Q198 501 177 400Q171 371 167 341Q163 311 163 291Q163 198 214 144.50Q265 91 354 91Q445 91 494 143.50Q543 196 556 271L558 283L409 283L427 383L699 383L687 307Q676 235 649 175.50Q622 116 579.50 74.50Q537 33 479 10.50Q421-12 350-12Q279-12 221.50 8Q164 28 123.50 67Q83 106 61 164Q39 222 39 296Z"  horiz-adv-x="704" vert-adv-y="1000"  />

      
      <glyph glyph-name="uni0120" unicode="&#x0120;" d="M440 938Q472 938 494.50 916Q517 894 517 862Q517 829 494.50 807Q472 785 440 785Q409 785 386.50 807Q364 829 364 862Q364 894 386.50 916Q409 938 440 938M39 296Q39 378 64 455.50Q89 533 137 591.50Q185 650 256.50 686Q328 722 421 722Q543 722 612.50 662Q682 602 699 508L569 508Q554 557 517.50 588Q481 619 405 619Q318 619 258 560Q198 501 177 400Q171 371 167 341Q163 311 163 291Q163 198 214 144.50Q265 91 354 91Q445 91 494 143.50Q543 196 556 271L558 283L409 283L427 383L699 383L687 307Q676 235 649 175.50Q622 116 579.50 74.50Q537 33 479 10.50Q421-12 350-12Q279-12 221.50 8Q164 28 123.50 67Q83 106 61 164Q39 222 39 296Z"  horiz-adv-x="704" vert-adv-y="1000"  />

      
      <glyph glyph-name="uni48" unicode="&#x48;" d="M132 0L8 0L133 710L257 710L206 419L549 419L600 710L724 710L599 0L475 0L531 315L188 315L132 0Z"  horiz-adv-x="699" vert-adv-y="1000"  />

      
      <glyph glyph-name="uni0126" unicode="&#x0126;" d="M143 0L19 0L110 519L40 519L55 609L126 609L144 710L268 710L250 609L593 609L611 710L735 710L717 609L789 609L773 519L701 519L610 0L486 0L542 315L199 315L143 0M217 419L560 419L577 519L234 519L217 419Z"  horiz-adv-x="723" vert-adv-y="1000"  />

      
      <glyph glyph-name="uni0124" unicode="&#x0124;" d="M405 949L529 949L612 792L507 792L460 882L381 792L268 792L405 949M132 0L8 0L133 710L257 710L206 419L549 419L600 710L724 710L599 0L475 0L531 315L188 315L132 0Z"  horiz-adv-x="699" vert-adv-y="1000"  />

      
      <glyph glyph-name="uni49" unicode="&#x49;" d="M133 710L257 710L132 0L8 0L133 710Z"  horiz-adv-x="232" vert-adv-y="1000"  />

      
      <glyph glyph-name="uni0132" unicode="&#x0132;" d="M133 710L257 710L132 0L8 0L133 710M253 213L271 317L393 317L375 214Q374 207 373 200Q372 193 372 187Q372 145 397.50 119Q423 93 474 93Q524 93 556 123.50Q588 154 598 209L686 710L811 710L721 196Q704 100 637 44Q570-12 469-12Q371-12 310 38Q249 88 249 172Q249 182 250 191.50Q251 201 253 213Z"  horiz-adv-x="783" vert-adv-y="1000"  />

      
      <glyph glyph-name="unicd" unicode="&#xcd;" d="M262 940L418 940L263 789L140 789L262 940M133 710L257 710L132 0L8 0L133 710Z"  horiz-adv-x="232" vert-adv-y="1000"  />

      
      <glyph glyph-name="uni012C" unicode="&#x012C;" d="M76 939L169 939Q165 902 178.50 883.50Q192 865 223 865Q247 865 266.50 883Q286 901 290 939L387 939Q377 866 330.50 824Q284 782 218 782Q143 782 105.50 825Q68 868 76 939M133 710L257 710L132 0L8 0L133 710Z"  horiz-adv-x="232" vert-adv-y="1000"  />

      
      <glyph glyph-name="unice" unicode="&#xce;" d="M170 949L294 949L377 792L272 792L225 882L146 792L33 792L170 949M133 710L257 710L132 0L8 0L133 710Z"  horiz-adv-x="232" vert-adv-y="1000"  />

      
      <glyph glyph-name="unicf" unicode="&#xcf;" d="M47 856Q47 886 67 906.50Q87 927 117 927Q148 927 168.50 906.50Q189 886 189 856Q189 825 168.50 805Q148 785 117 785Q87 785 67 805Q47 825 47 856M247 856Q247 886 267.50 906.50Q288 927 319 927Q349 927 369 906.50Q389 886 389 856Q389 825 369 805Q349 785 319 785Q288 785 267.50 805Q247 825 247 856M133 710L257 710L132 0L8 0L133 710Z"  horiz-adv-x="232" vert-adv-y="1000"  />

      
      <glyph glyph-name="uni0130" unicode="&#x0130;" d="M218 938Q250 938 272.50 916Q295 894 295 862Q295 829 272.50 807Q250 785 218 785Q187 785 164.50 807Q142 829 142 862Q142 894 164.50 916Q187 938 218 938M133 710L257 710L132 0L8 0L133 710Z"  horiz-adv-x="232" vert-adv-y="1000"  />

      
      <glyph glyph-name="uni1ECA" unicode="&#x1ECA;" d="M133 710L257 710L132 0L8 0L133 710M-32-138Q-32-106-9.50-84Q13-62 45-62Q76-62 99-84Q122-106 122-138Q122-170 99-192Q76-214 45-214Q13-214-9.50-192Q-32-170-32-138Z"  horiz-adv-x="232" vert-adv-y="1000"  />

      
      <glyph glyph-name="unicc" unicode="&#xcc;" d="M55 940L198 940L268 789L160 789L55 940M133 710L257 710L132 0L8 0L133 710Z"  horiz-adv-x="232" vert-adv-y="1000"  />

      
      <glyph glyph-name="uni012A" unicode="&#x012A;" d="M84 897L369 897L352 803L67 803L84 897M133 710L257 710L132 0L8 0L133 710Z"  horiz-adv-x="232" vert-adv-y="1000"  />

      
      <glyph glyph-name="uni012E" unicode="&#x012E;" d="M-50-121Q-50-94-28-59Q-6-24 46-4L46 0L8 0L133 710L257 710L132 0Q86-28 64-51Q42-74 42-98Q42-114 53-125Q64-136 93-136Q103-136 113-133.50Q123-131 131-127L118-202Q106-205 91.50-207Q77-209 62-209Q12-209-19-186Q-50-163-50-121Z"  horiz-adv-x="232" vert-adv-y="1000"  />

      
      <glyph glyph-name="uni0128" unicode="&#x0128;" d="M162 925Q181 925 197.50 918.50Q214 912 227 904Q239 897 250 890.50Q261 884 269 884Q287 884 293.50 901Q300 918 301 935L387 935Q384 869 356 832Q328 795 281 795Q258 795 241 801.50Q224 808 211 817Q198 826 187.50 831.50Q177 837 170 837Q154 837 146.50 822.50Q139 808 137 787L51 787Q54 853 85.50 889Q117 925 162 925M133 710L257 710L132 0L8 0L133 710Z"  horiz-adv-x="232" vert-adv-y="1000"  />

      
      <glyph glyph-name="uni4a" unicode="&#x4a;" d="M21 213L39 317L161 317L143 214Q142 207 141 200Q140 193 140 187Q140 145 165.50 119Q191 93 242 93Q292 93 324 123.50Q356 154 366 209L454 710L579 710L489 196Q472 100 405 44Q338-12 237-12Q139-12 78 38Q17 88 17 172Q17 182 18 191.50Q19 201 21 213Z"  horiz-adv-x="550" vert-adv-y="1000"  />

      
      <glyph glyph-name="uni0134" unicode="&#x0134;" d="M493 949L617 949L700 792L595 792L548 882L469 792L356 792L493 949M21 213L39 317L161 317L143 214Q142 207 141 200Q140 193 140 187Q140 145 165.50 119Q191 93 242 93Q292 93 324 123.50Q356 154 366 209L454 710L579 710L489 196Q472 100 405 44Q338-12 237-12Q139-12 78 38Q17 88 17 172Q17 182 18 191.50Q19 201 21 213Z"  horiz-adv-x="550" vert-adv-y="1000"  />

      
      <glyph glyph-name="uni4b" unicode="&#x4b;" d="M133 710L257 710L198 374L543 710L694 710L323 349L595 0L446 0L191 334L132 0L8 0L133 710Z"  horiz-adv-x="619" vert-adv-y="1000"  />

      
      <glyph glyph-name="uni0136" unicode="&#x0136;" d="M133 710L257 710L198 374L543 710L694 710L323 349L595 0L446 0L191 334L132 0L8 0L133 710M161-234Q197-233 224-219.50Q251-206 264-182Q260-183 255-184Q250-185 246-185Q218-185 203-169Q188-153 188-130Q188-102 209-80Q230-58 263-58Q295-58 314-77Q333-96 333-130Q333-190 282-233Q231-276 153-277L161-234Z"  horiz-adv-x="619" vert-adv-y="1000"  />

      
      <glyph glyph-name="uni4c" unicode="&#x4c;" d="M484 104L466 0L8 0L133 710L257 710L150 104L484 104Z"  horiz-adv-x="545" vert-adv-y="1000"  />

      
      <glyph glyph-name="uni0139" unicode="&#x0139;" d="M262 940L418 940L263 789L140 789L262 940M484 104L466 0L8 0L133 710L257 710L150 104L484 104Z"  horiz-adv-x="545" vert-adv-y="1000"  />

      
      <glyph glyph-name="uni013D" unicode="&#x013D;" d="M484 104L466 0L8 0L133 710L257 710L150 104L484 104M404 710L539 710L455 504L351 504L404 710Z"  horiz-adv-x="545" vert-adv-y="1000"  />

      
      <glyph glyph-name="uni013B" unicode="&#x013B;" d="M484 104L466 0L8 0L133 710L257 710L150 104L484 104M133-234Q169-233 196-219.50Q223-206 236-182Q232-183 227-184Q222-185 218-185Q190-185 175-169Q160-153 160-130Q160-102 181-80Q202-58 235-58Q267-58 286-77Q305-96 305-130Q305-190 254-233Q203-276 125-277L133-234Z"  horiz-adv-x="545" vert-adv-y="1000"  />

      
      <glyph glyph-name="uni013F" unicode="&#x013F;" d="M484 104L466 0L8 0L133 710L257 710L150 104L484 104M410 458Q442 458 464.50 436Q487 414 487 382Q487 349 464.50 327Q442 305 410 305Q379 305 356.50 327Q334 349 334 382Q334 414 356.50 436Q379 458 410 458Z"  horiz-adv-x="552" vert-adv-y="1000"  />

      
      <glyph glyph-name="uni1E36" unicode="&#x1E36;" d="M484 104L466 0L8 0L133 710L257 710L150 104L484 104M156-138Q156-106 178.50-84Q201-62 233-62Q264-62 287-84Q310-106 310-138Q310-170 287-192Q264-214 233-214Q201-214 178.50-192Q156-170 156-138Z"  horiz-adv-x="545" vert-adv-y="1000"  />

      
      <glyph glyph-name="uni0141" unicode="&#x0141;" d="M10 264L95 311L165 710L289 710L232 387L419 490L398 376L212 273L182 104L516 104L498 0L40 0L75 197L-11 150L10 264Z"  horiz-adv-x="577" vert-adv-y="1000"  />

      
      <glyph glyph-name="uni4d" unicode="&#x4d;" d="M133 710L284 710L413 306L681 710L839 710L714 0L596 0L692 545L405 116L357 116L221 541L125 0L8 0L133 710Z"  horiz-adv-x="814" vert-adv-y="1000"  />

      
      <glyph glyph-name="uni4e" unicode="&#x4e;" d="M133 710L271 710L538 178L632 710L753 710L628 0L497 0L224 544L128 0L8 0L133 710Z"  horiz-adv-x="728" vert-adv-y="1000"  />

      
      <glyph glyph-name="uni0143" unicode="&#x0143;" d="M503 940L659 940L504 789L381 789L503 940M133 710L271 710L538 178L632 710L753 710L628 0L497 0L224 544L128 0L8 0L133 710Z"  horiz-adv-x="728" vert-adv-y="1000"  />

      
      <glyph glyph-name="uni0147" unicode="&#x0147;" d="M302 946L407 946L455 857L533 946L647 946L509 789L385 789L302 946M133 710L271 710L538 178L632 710L753 710L628 0L497 0L224 544L128 0L8 0L133 710Z"  horiz-adv-x="728" vert-adv-y="1000"  />

      
      <glyph glyph-name="uni0145" unicode="&#x0145;" d="M133 710L271 710L538 178L632 710L753 710L628 0L497 0L224 544L128 0L8 0L133 710M205-234Q241-233 268-219.50Q295-206 308-182Q304-183 299-184Q294-185 290-185Q262-185 247-169Q232-153 232-130Q232-102 253-80Q274-58 307-58Q339-58 358-77Q377-96 377-130Q377-190 326-233Q275-276 197-277L205-234Z"  horiz-adv-x="728" vert-adv-y="1000"  />

      
      <glyph glyph-name="uni1E46" unicode="&#x1E46;" d="M133 710L271 710L538 178L632 710L753 710L628 0L497 0L224 544L128 0L8 0L133 710M224-138Q224-106 246.50-84Q269-62 301-62Q332-62 355-84Q378-106 378-138Q378-170 355-192Q332-214 301-214Q269-214 246.50-192Q224-170 224-138Z"  horiz-adv-x="728" vert-adv-y="1000"  />

      
      <glyph glyph-name="uni019D" unicode="&#x019D;" d="M123-27Q111-96 63.50-133Q16-170-57-170L-102-170L-87-79L-65-79Q-34-79-18-64.50Q-2-50 4-19L132 710L270 710L538 178L631 710L752 710L627 0L497 0L223 544L123-27Z"  horiz-adv-x="727" vert-adv-y="1000"  />

      
      <glyph glyph-name="unid1" unicode="&#xd1;" d="M403 925Q422 925 438.50 918.50Q455 912 468 904Q480 897 491 890.50Q502 884 510 884Q528 884 534.50 901Q541 918 542 935L628 935Q625 869 597 832Q569 795 522 795Q499 795 482 801.50Q465 808 452 817Q439 826 428.50 831.50Q418 837 411 837Q395 837 387.50 822.50Q380 808 378 787L292 787Q295 853 326.50 889Q358 925 403 925M133 710L271 710L538 178L632 710L753 710L628 0L497 0L224 544L128 0L8 0L133 710Z"  horiz-adv-x="728" vert-adv-y="1000"  />

      
      <glyph glyph-name="uni4f" unicode="&#x4f;" d="M39 297Q39 379 63 456Q87 533 133.50 591.50Q180 650 249 686Q318 722 406 722Q544 722 626 639Q708 556 708 407Q708 330 684.50 254.50Q661 179 615.50 120Q570 61 501 24.50Q432-12 342-12Q274-12 217.50 9Q161 30 121.50 70Q82 110 60.50 167.50Q39 225 39 297M572 309Q582 355 584 378Q586 401 586 417Q586 510 535 564Q484 618 396 618Q312 618 255 560Q198 502 177 403Q167 355 165 331Q163 307 163 291Q163 198 213.50 145Q264 92 353 92Q436 92 494 150Q552 208 572 309Z"  horiz-adv-x="719" vert-adv-y="1000"  />

      
      <glyph glyph-name="uni0152" unicode="&#x0152;" d="M39 297Q39 379 63 456Q87 533 133.50 591.50Q180 650 249 686Q318 722 406 722Q477 722 534.50 693Q592 664 626 614L643 710L1111 710L1093 608L749 608L717 423L1040 423L1022 322L699 322L660 102L1011 102L993 0L518 0L529 60Q492 26 444 7Q396-12 341-12Q273-12 217 9Q161 30 121.50 70Q82 110 60.50 167.50Q39 225 39 297M572 309Q573 313 573.50 316.50Q574 320 575 323L582 363Q585 382 585.50 394.50Q586 407 586 417Q586 510 535 564Q484 618 396 618Q312 618 255 560Q198 502 177 403Q167 355 165 331Q163 307 163 291Q163 198 213.50 145Q264 92 353 92Q436 92 494 150Q552 208 572 309Z"  horiz-adv-x="1069" vert-adv-y="1000"  />

      
      <glyph glyph-name="unid3" unicode="&#xd3;" d="M487 940L643 940L488 789L365 789L487 940M39 297Q39 379 63 456Q87 533 133.50 591.50Q180 650 249 686Q318 722 406 722Q544 722 626 639Q708 556 708 407Q708 330 684.50 254.50Q661 179 615.50 120Q570 61 501 24.50Q432-12 342-12Q274-12 217.50 9Q161 30 121.50 70Q82 110 60.50 167.50Q39 225 39 297M572 309Q582 355 584 378Q586 401 586 417Q586 510 535 564Q484 618 396 618Q312 618 255 560Q198 502 177 403Q167 355 165 331Q163 307 163 291Q163 198 213.50 145Q264 92 353 92Q436 92 494 150Q552 208 572 309Z"  horiz-adv-x="719" vert-adv-y="1000"  />

      
      <glyph glyph-name="uni014E" unicode="&#x014E;" d="M302 939L395 939Q391 902 404.50 883.50Q418 865 449 865Q473 865 492.50 883Q512 901 516 939L613 939Q603 866 556.50 824Q510 782 444 782Q369 782 331.50 825Q294 868 302 939M39 297Q39 379 63 456Q87 533 133.50 591.50Q180 650 249 686Q318 722 406 722Q544 722 626 639Q708 556 708 407Q708 330 684.50 254.50Q661 179 615.50 120Q570 61 501 24.50Q432-12 342-12Q274-12 217.50 9Q161 30 121.50 70Q82 110 60.50 167.50Q39 225 39 297M572 309Q582 355 584 378Q586 401 586 417Q586 510 535 564Q484 618 396 618Q312 618 255 560Q198 502 177 403Q167 355 165 331Q163 307 163 291Q163 198 213.50 145Q264 92 353 92Q436 92 494 150Q552 208 572 309Z"  horiz-adv-x="719" vert-adv-y="1000"  />

      
      <glyph glyph-name="unid4" unicode="&#xd4;" d="M397 949L521 949L604 792L499 792L452 882L373 792L260 792L397 949M39 297Q39 379 63 456Q87 533 133.50 591.50Q180 650 249 686Q318 722 406 722Q544 722 626 639Q708 556 708 407Q708 330 684.50 254.50Q661 179 615.50 120Q570 61 501 24.50Q432-12 342-12Q274-12 217.50 9Q161 30 121.50 70Q82 110 60.50 167.50Q39 225 39 297M572 309Q582 355 584 378Q586 401 586 417Q586 510 535 564Q484 618 396 618Q312 618 255 560Q198 502 177 403Q167 355 165 331Q163 307 163 291Q163 198 213.50 145Q264 92 353 92Q436 92 494 150Q552 208 572 309Z"  horiz-adv-x="719" vert-adv-y="1000"  />

      
      <glyph glyph-name="unid6" unicode="&#xd6;" d="M274 856Q274 886 294 906.50Q314 927 344 927Q375 927 395.50 906.50Q416 886 416 856Q416 825 395.50 805Q375 785 344 785Q314 785 294 805Q274 825 274 856M474 856Q474 886 494.50 906.50Q515 927 546 927Q576 927 596 906.50Q616 886 616 856Q616 825 596 805Q576 785 546 785Q515 785 494.50 805Q474 825 474 856M39 297Q39 379 63 456Q87 533 133.50 591.50Q180 650 249 686Q318 722 406 722Q544 722 626 639Q708 556 708 407Q708 330 684.50 254.50Q661 179 615.50 120Q570 61 501 24.50Q432-12 342-12Q274-12 217.50 9Q161 30 121.50 70Q82 110 60.50 167.50Q39 225 39 297M572 309Q582 355 584 378Q586 401 586 417Q586 510 535 564Q484 618 396 618Q312 618 255 560Q198 502 177 403Q167 355 165 331Q163 307 163 291Q163 198 213.50 145Q264 92 353 92Q436 92 494 150Q552 208 572 309Z"  horiz-adv-x="719" vert-adv-y="1000"  />

      
      <glyph glyph-name="uni1ECC" unicode="&#x1ECC;" d="M39 297Q39 379 63 456Q87 533 133.50 591.50Q180 650 249 686Q318 722 406 722Q544 722 626 639Q708 556 708 407Q708 330 684.50 254.50Q661 179 615.50 120Q570 61 501 24.50Q432-12 342-12Q274-12 217.50 9Q161 30 121.50 70Q82 110 60.50 167.50Q39 225 39 297M572 309Q582 355 584 378Q586 401 586 417Q586 510 535 564Q484 618 396 618Q312 618 255 560Q198 502 177 403Q167 355 165 331Q163 307 163 291Q163 198 213.50 145Q264 92 353 92Q436 92 494 150Q552 208 572 309M238-138Q238-106 260.50-84Q283-62 315-62Q346-62 369-84Q392-106 392-138Q392-170 369-192Q346-214 315-214Q283-214 260.50-192Q238-170 238-138Z"  horiz-adv-x="719" vert-adv-y="1000"  />

      
      <glyph glyph-name="unid2" unicode="&#xd2;" d="M280 940L423 940L493 789L385 789L280 940M39 297Q39 379 63 456Q87 533 133.50 591.50Q180 650 249 686Q318 722 406 722Q544 722 626 639Q708 556 708 407Q708 330 684.50 254.50Q661 179 615.50 120Q570 61 501 24.50Q432-12 342-12Q274-12 217.50 9Q161 30 121.50 70Q82 110 60.50 167.50Q39 225 39 297M572 309Q582 355 584 378Q586 401 586 417Q586 510 535 564Q484 618 396 618Q312 618 255 560Q198 502 177 403Q167 355 165 331Q163 307 163 291Q163 198 213.50 145Q264 92 353 92Q436 92 494 150Q552 208 572 309Z"  horiz-adv-x="719" vert-adv-y="1000"  />

      
      <glyph glyph-name="uni0150" unicode="&#x0150;" d="M374 939L504 939L389 791L283 791L374 939M555 939L685 939L571 791L465 791L555 939M39 297Q39 379 63 456Q87 533 133.50 591.50Q180 650 249 686Q318 722 406 722Q544 722 626 639Q708 556 708 407Q708 330 684.50 254.50Q661 179 615.50 120Q570 61 501 24.50Q432-12 342-12Q274-12 217.50 9Q161 30 121.50 70Q82 110 60.50 167.50Q39 225 39 297M572 309Q582 355 584 378Q586 401 586 417Q586 510 535 564Q484 618 396 618Q312 618 255 560Q198 502 177 403Q167 355 165 331Q163 307 163 291Q163 198 213.50 145Q264 92 353 92Q436 92 494 150Q552 208 572 309Z"  horiz-adv-x="719" vert-adv-y="1000"  />

      
      <glyph glyph-name="uni014C" unicode="&#x014C;" d="M310 897L595 897L578 803L293 803L310 897M39 297Q39 379 63 456Q87 533 133.50 591.50Q180 650 249 686Q318 722 406 722Q544 722 626 639Q708 556 708 407Q708 330 684.50 254.50Q661 179 615.50 120Q570 61 501 24.50Q432-12 342-12Q274-12 217.50 9Q161 30 121.50 70Q82 110 60.50 167.50Q39 225 39 297M572 309Q582 355 584 378Q586 401 586 417Q586 510 535 564Q484 618 396 618Q312 618 255 560Q198 502 177 403Q167 355 165 331Q163 307 163 291Q163 198 213.50 145Q264 92 353 92Q436 92 494 150Q552 208 572 309Z"  horiz-adv-x="719" vert-adv-y="1000"  />

      
      <glyph glyph-name="uni01EA" unicode="&#x01EA;" d="M373-202Q361-205 346-207Q331-209 316-209Q267-209 235.50-186Q204-163 204-123Q204-97 225-65Q246-33 292-11L292-5Q235-2 188 22Q141 46 108 85.50Q75 125 57 179Q39 233 39 297Q39 379 63 456Q87 533 133.50 591.50Q180 650 249 686Q318 722 406 722Q544 722 626 639Q708 556 708 407Q708 335 690 267Q672 199 635 144Q598 89 540.50 48.50Q483 8 406-8Q356-18 326.50-46.50Q297-75 297-98Q297-114 308-125Q319-136 348-136Q358-136 368-133.50Q378-131 386-127L373-202M572 309Q582 355 584 378Q586 401 586 417Q586 510 535 564Q484 618 396 618Q312 618 255 560Q198 502 177 403Q167 355 165 331Q163 307 163 291Q163 198 213.50 145Q264 92 353 92Q436 92 494 150Q552 208 572 309Z"  horiz-adv-x="719" vert-adv-y="1000"  />

      
      <glyph glyph-name="unid8" unicode="&#xd8;" d="M-44 43L70 144Q55 176 47 215Q39 254 39 297Q39 379 63 456Q87 533 133.50 591.50Q180 650 249 686Q318 722 406 722Q475 722 531.50 700.50Q588 679 627 638L733 732L793 660L679 559Q693 527 700.50 488.50Q708 450 708 407Q708 330 684.50 254.50Q661 179 615.50 120Q570 61 501 24.50Q432-12 342-12Q275-12 220 8.50Q165 29 125 67L16-30L-44 43M163 291Q163 275 164.50 260Q166 245 169 232L539 560Q514 588 478 603Q442 618 396 618Q312 618 255 560Q198 502 177 403Q167 355 165 331Q163 307 163 291M572 309Q582 355 584 378Q586 401 586 417Q586 431 584.50 445Q583 459 581 472L213 145Q238 120 273.50 106Q309 92 353 92Q436 92 494 150Q552 208 572 309Z"  horiz-adv-x="719" vert-adv-y="1000"  />

      
      <glyph glyph-name="uni01FE" unicode="&#x01FE;" d="M487 940L643 940L488 789L365 789L487 940M-44 43L70 144Q55 176 47 215Q39 254 39 297Q39 379 63 456Q87 533 133.50 591.50Q180 650 249 686Q318 722 406 722Q475 722 531.50 700.50Q588 679 627 638L733 732L793 660L679 559Q693 527 700.50 488.50Q708 450 708 407Q708 330 684.50 254.50Q661 179 615.50 120Q570 61 501 24.50Q432-12 342-12Q275-12 220 8.50Q165 29 125 67L16-30L-44 43M163 291Q163 275 164.50 260Q166 245 169 232L539 560Q514 588 478 603Q442 618 396 618Q312 618 255 560Q198 502 177 403Q167 355 165 331Q163 307 163 291M572 309Q582 355 584 378Q586 401 586 417Q586 431 584.50 445Q583 459 581 472L213 145Q238 120 273.50 106Q309 92 353 92Q436 92 494 150Q552 208 572 309Z"  horiz-adv-x="719" vert-adv-y="1000"  />

      
      <glyph glyph-name="unid5" unicode="&#xd5;" d="M389 925Q408 925 424.50 918.50Q441 912 454 904Q466 897 477 890.50Q488 884 496 884Q514 884 520.50 901Q527 918 528 935L614 935Q611 869 583 832Q555 795 508 795Q485 795 468 801.50Q451 808 438 817Q425 826 414.50 831.50Q404 837 397 837Q381 837 373.50 822.50Q366 808 364 787L278 787Q281 853 312.50 889Q344 925 389 925M39 297Q39 379 63 456Q87 533 133.50 591.50Q180 650 249 686Q318 722 406 722Q544 722 626 639Q708 556 708 407Q708 330 684.50 254.50Q661 179 615.50 120Q570 61 501 24.50Q432-12 342-12Q274-12 217.50 9Q161 30 121.50 70Q82 110 60.50 167.50Q39 225 39 297M572 309Q582 355 584 378Q586 401 586 417Q586 510 535 564Q484 618 396 618Q312 618 255 560Q198 502 177 403Q167 355 165 331Q163 307 163 291Q163 198 213.50 145Q264 92 353 92Q436 92 494 150Q552 208 572 309Z"  horiz-adv-x="719" vert-adv-y="1000"  />

      
      <glyph glyph-name="uni50" unicode="&#x50;" d="M133 710L420 710Q520 710 580 656.50Q640 603 640 505Q640 442 617.50 394Q595 346 556.50 314Q518 282 464.50 266Q411 250 350 250L176 250L132 0L8 0L133 710M387 609L239 609L194 351L347 351Q428 351 471 389Q514 427 514 502Q514 557 480.50 583Q447 609 387 609Z"  horiz-adv-x="615" vert-adv-y="1000"  />

      
      <glyph glyph-name="uni51" unicode="&#x51;" d="M39 297Q39 379 63 456Q87 533 133.50 591.50Q180 650 249 686Q318 722 406 722Q544 722 626 639Q708 556 708 407Q708 314 674.50 224.50Q641 135 575 75L645-44L546-109L475 12Q446 1 412.50-5.50Q379-12 342-12Q274-12 217.50 9Q161 30 121.50 70Q82 110 60.50 167.50Q39 225 39 297M572 309Q582 355 584 378Q586 401 586 417Q586 510 535 564Q484 618 396 618Q312 618 255 560Q198 502 177 403Q167 355 165 331Q163 307 163 291Q163 198 213.50 145Q264 92 353 92Q436 92 494 150Q552 208 572 309Z"  horiz-adv-x="719" vert-adv-y="1000"  />

      
      <glyph glyph-name="uni52" unicode="&#x52;" d="M450 171Q451 181 452 190Q453 199 453 206Q453 248 429.50 268.50Q406 289 359 289L183 289L132 0L8 0L133 710L452 710Q543 710 596 658Q649 606 649 525Q649 450 611.50 401Q574 352 509 329Q546 315 562.50 287.50Q579 260 579 219Q579 208 578 196Q577 184 575 171L545 0L421 0L450 171M418 608L239 608L201 391L387 391Q441 391 481.50 419Q522 447 522 515Q522 562 493 585Q464 608 418 608Z"  horiz-adv-x="641" vert-adv-y="1000"  />

      
      <glyph glyph-name="uni0154" unicode="&#x0154;" d="M448 940L604 940L449 789L326 789L448 940M450 171Q451 181 452 190Q453 199 453 206Q453 248 429.50 268.50Q406 289 359 289L183 289L132 0L8 0L133 710L452 710Q543 710 596 658Q649 606 649 525Q649 450 611.50 401Q574 352 509 329Q546 315 562.50 287.50Q579 260 579 219Q579 208 578 196Q577 184 575 171L545 0L421 0L450 171M418 608L239 608L201 391L387 391Q441 391 481.50 419Q522 447 522 515Q522 562 493 585Q464 608 418 608Z"  horiz-adv-x="641" vert-adv-y="1000"  />

      
      <glyph glyph-name="uni0158" unicode="&#x0158;" d="M246 946L351 946L399 857L477 946L591 946L453 789L329 789L246 946M450 171Q451 181 452 190Q453 199 453 206Q453 248 429.50 268.50Q406 289 359 289L183 289L132 0L8 0L133 710L452 710Q543 710 596 658Q649 606 649 525Q649 450 611.50 401Q574 352 509 329Q546 315 562.50 287.50Q579 260 579 219Q579 208 578 196Q577 184 575 171L545 0L421 0L450 171M418 608L239 608L201 391L387 391Q441 391 481.50 419Q522 447 522 515Q522 562 493 585Q464 608 418 608Z"  horiz-adv-x="641" vert-adv-y="1000"  />

      
      <glyph glyph-name="uni0156" unicode="&#x0156;" d="M450 171Q451 181 452 190Q453 199 453 206Q453 248 429.50 268.50Q406 289 359 289L183 289L132 0L8 0L133 710L452 710Q543 710 596 658Q649 606 649 525Q649 450 611.50 401Q574 352 509 329Q546 315 562.50 287.50Q579 260 579 219Q579 208 578 196Q577 184 575 171L545 0L421 0L450 171M418 608L239 608L201 391L387 391Q441 391 481.50 419Q522 447 522 515Q522 562 493 585Q464 608 418 608M165-234Q201-233 228-219.50Q255-206 268-182Q264-183 259-184Q254-185 250-185Q222-185 207-169Q192-153 192-130Q192-102 213-80Q234-58 267-58Q299-58 318-77Q337-96 337-130Q337-190 286-233Q235-276 157-277L165-234Z"  horiz-adv-x="641" vert-adv-y="1000"  />

      
      <glyph glyph-name="uni1E5A" unicode="&#x1E5A;" d="M450 171Q451 181 452 190Q453 199 453 206Q453 248 429.50 268.50Q406 289 359 289L183 289L132 0L8 0L133 710L452 710Q543 710 596 658Q649 606 649 525Q649 450 611.50 401Q574 352 509 329Q546 315 562.50 287.50Q579 260 579 219Q579 208 578 196Q577 184 575 171L545 0L421 0L450 171M418 608L239 608L201 391L387 391Q441 391 481.50 419Q522 447 522 515Q522 562 493 585Q464 608 418 608M184-138Q184-106 206.50-84Q229-62 261-62Q292-62 315-84Q338-106 338-138Q338-170 315-192Q292-214 261-214Q229-214 206.50-192Q184-170 184-138Z"  horiz-adv-x="641" vert-adv-y="1000"  />

      
      <glyph glyph-name="uni53" unicode="&#x53;" d="M4 217L126 217Q128 164 165.50 126Q203 88 292 88Q369 88 409 119Q449 150 449 207Q449 246 424.50 267Q400 288 350 296L245 315Q162 329 116 372Q70 415 70 488Q70 532 87.50 574.50Q105 617 140 649.50Q175 682 228 702Q281 722 352 722Q416 722 464.50 704.50Q513 687 545 659.50Q577 632 593.50 595.50Q610 559 611 522L487 522Q482 570 445 596.50Q408 623 339 623Q278 623 235 593Q192 563 192 506Q192 471 216 450.50Q240 430 292 421L408 402Q493 388 534 340.50Q575 293 575 222Q575 118 499.50 53Q424-12 293-12Q219-12 164 6Q109 24 73.50 55Q38 86 20.50 128Q3 170 4 217Z"  horiz-adv-x="595" vert-adv-y="1000"  />

      
      <glyph glyph-name="uni015A" unicode="&#x015A;" d="M424 940L580 940L425 789L302 789L424 940M4 217L126 217Q128 164 165.50 126Q203 88 292 88Q369 88 409 119Q449 150 449 207Q449 246 424.50 267Q400 288 350 296L245 315Q162 329 116 372Q70 415 70 488Q70 532 87.50 574.50Q105 617 140 649.50Q175 682 228 702Q281 722 352 722Q416 722 464.50 704.50Q513 687 545 659.50Q577 632 593.50 595.50Q610 559 611 522L487 522Q482 570 445 596.50Q408 623 339 623Q278 623 235 593Q192 563 192 506Q192 471 216 450.50Q240 430 292 421L408 402Q493 388 534 340.50Q575 293 575 222Q575 118 499.50 53Q424-12 293-12Q219-12 164 6Q109 24 73.50 55Q38 86 20.50 128Q3 170 4 217Z"  horiz-adv-x="595" vert-adv-y="1000"  />

      
      <glyph glyph-name="uni0160" unicode="&#x0160;" d="M225 946L330 946L378 857L456 946L570 946L432 789L308 789L225 946M4 217L126 217Q128 164 165.50 126Q203 88 292 88Q369 88 409 119Q449 150 449 207Q449 246 424.50 267Q400 288 350 296L245 315Q162 329 116 372Q70 415 70 488Q70 532 87.50 574.50Q105 617 140 649.50Q175 682 228 702Q281 722 352 722Q416 722 464.50 704.50Q513 687 545 659.50Q577 632 593.50 595.50Q610 559 611 522L487 522Q482 570 445 596.50Q408 623 339 623Q278 623 235 593Q192 563 192 506Q192 471 216 450.50Q240 430 292 421L408 402Q493 388 534 340.50Q575 293 575 222Q575 118 499.50 53Q424-12 293-12Q219-12 164 6Q109 24 73.50 55Q38 86 20.50 128Q3 170 4 217Z"  horiz-adv-x="596" vert-adv-y="1000"  />

      
      <glyph glyph-name="uni015E" unicode="&#x015E;" d="M128-154L199-154Q200-165 211-174.50Q222-184 245-184Q266-184 278.50-172.50Q291-161 291-144Q291-128 280-118.50Q269-109 252-109Q241-109 231.50-113Q222-117 215-122L175-95L238-9Q178-3 133.50 17.50Q89 38 60 68Q31 98 17 136Q3 174 4 217L126 217Q128 164 165.50 126Q203 88 292 88Q369 88 409 119Q449 150 449 207Q449 246 424.50 267Q400 288 350 296L245 315Q162 329 116 372Q70 415 70 488Q70 532 87.50 574.50Q105 617 140 649.50Q175 682 228 702Q281 722 352 722Q416 722 464.50 704.50Q513 687 545 659.50Q577 632 593.50 595.50Q610 559 611 522L487 522Q482 570 445 596.50Q408 623 339 623Q278 623 235 593Q192 563 192 506Q192 471 216 450.50Q240 430 292 421L408 402Q493 388 534 340.50Q575 293 575 222Q575 118 500.50 53Q426-12 300-12L271-52Q273-52 274.50-52Q276-52 277-52Q315-52 339-75Q363-98 363-138Q363-181 330.50-211.50Q298-242 244-242Q181-242 154.50-213.50Q128-185 128-154Z"  horiz-adv-x="595" vert-adv-y="1000"  />

      
      <glyph glyph-name="uni018F" unicode="&#x018F;" d="M36 307Q36 328 38.50 352Q41 376 47 400L581 400Q582 406 582 411Q582 416 582 420Q582 506 534 562Q486 618 399 618Q333 618 282 585.50Q231 553 206 496L77 496Q93 541 122.50 582Q152 623 193 654Q234 685 286.50 703.50Q339 722 402 722Q477 722 533.50 698Q590 674 628 632Q666 590 685 533.50Q704 477 704 412Q704 312 676.50 233Q649 154 600 100Q551 46 483.50 17Q416-12 337-12Q266-12 209.50 11Q153 34 115 76Q77 118 56.50 177Q36 236 36 307M347 93Q433 93 492 151Q551 209 568 300L159 300Q158 257 169 219Q180 181 203 153Q226 125 262 109Q298 93 347 93Z"  horiz-adv-x="714" vert-adv-y="1000"  />

      
      <glyph glyph-name="uni015C" unicode="&#x015C;" d="M333 949L457 949L540 792L435 792L388 882L309 792L196 792L333 949M4 217L126 217Q128 164 165.50 126Q203 88 292 88Q369 88 409 119Q449 150 449 207Q449 246 424.50 267Q400 288 350 296L245 315Q162 329 116 372Q70 415 70 488Q70 532 87.50 574.50Q105 617 140 649.50Q175 682 228 702Q281 722 352 722Q416 722 464.50 704.50Q513 687 545 659.50Q577 632 593.50 595.50Q610 559 611 522L487 522Q482 570 445 596.50Q408 623 339 623Q278 623 235 593Q192 563 192 506Q192 471 216 450.50Q240 430 292 421L408 402Q493 388 534 340.50Q575 293 575 222Q575 118 499.50 53Q424-12 293-12Q219-12 164 6Q109 24 73.50 55Q38 86 20.50 128Q3 170 4 217Z"  horiz-adv-x="595" vert-adv-y="1000"  />

      
      <glyph glyph-name="uni54" unicode="&#x54;" d="M317 0L193 0L300 608L74 608L92 710L667 710L650 608L424 608L317 0Z"  horiz-adv-x="603" vert-adv-y="1000"  />

      
      <glyph glyph-name="uni0166" unicode="&#x0166;" d="M317 0L193 0L247 305L104 305L122 404L264 404L300 608L74 608L92 710L667 710L650 608L424 608L388 404L530 404L512 305L371 305L317 0Z"  horiz-adv-x="602" vert-adv-y="1000"  />

      
      <glyph glyph-name="uni0164" unicode="&#x0164;" d="M247 946L352 946L400 857L478 946L592 946L454 789L330 789L247 946M317 0L193 0L300 608L74 608L92 710L667 710L650 608L424 608L317 0Z"  horiz-adv-x="603" vert-adv-y="1000"  />

      
      <glyph glyph-name="uni1E6C" unicode="&#x1E6C;" d="M317 0L193 0L300 608L74 608L92 710L667 710L650 608L424 608L317 0M155-138Q155-106 177.50-84Q200-62 232-62Q263-62 286-84Q309-106 309-138Q309-170 286-192Q263-214 232-214Q200-214 177.50-192Q155-170 155-138Z"  horiz-adv-x="603" vert-adv-y="1000"  />

      
      <glyph glyph-name="unide" unicode="&#xde;" d="M133 710L257 710L235 586L405 586Q506 586 565.50 535.50Q625 485 625 394Q625 279 549.50 212.50Q474 146 342 146L158 146L132 0L8 0L133 710M369 485L217 485L176 248L334 248Q412 248 454.50 281.50Q497 315 497 385Q497 437 463.50 461Q430 485 369 485Z"  horiz-adv-x="609" vert-adv-y="1000"  />

      
      <glyph glyph-name="uni55" unicode="&#x55;" d="M54 282L130 710L253 710L178 281Q176 269 175 257Q174 245 174 235Q174 169 212.50 131Q251 93 328 93Q401 93 444 135.50Q487 178 500 256L580 710L705 710L622 243Q602 127 523.50 57.50Q445-12 320-12Q195-12 122 52.50Q49 117 49 225Q49 238 50.50 252.50Q52 267 54 282Z"  horiz-adv-x="677" vert-adv-y="1000"  />

      
      <glyph glyph-name="unida" unicode="&#xda;" d="M480 940L636 940L481 789L358 789L480 940M54 282L130 710L253 710L178 281Q176 269 175 257Q174 245 174 235Q174 169 212.50 131Q251 93 328 93Q401 93 444 135.50Q487 178 500 256L580 710L705 710L622 243Q602 127 523.50 57.50Q445-12 320-12Q195-12 122 52.50Q49 117 49 225Q49 238 50.50 252.50Q52 267 54 282Z"  horiz-adv-x="677" vert-adv-y="1000"  />

      
      <glyph glyph-name="uni016C" unicode="&#x016C;" d="M296 939L389 939Q385 902 398.50 883.50Q412 865 443 865Q467 865 486.50 883Q506 901 510 939L607 939Q597 866 550.50 824Q504 782 438 782Q363 782 325.50 825Q288 868 296 939M54 282L130 710L253 710L178 281Q176 269 175 257Q174 245 174 235Q174 169 212.50 131Q251 93 328 93Q401 93 444 135.50Q487 178 500 256L580 710L705 710L622 243Q602 127 523.50 57.50Q445-12 320-12Q195-12 122 52.50Q49 117 49 225Q49 238 50.50 252.50Q52 267 54 282Z"  horiz-adv-x="677" vert-adv-y="1000"  />

      
      <glyph glyph-name="unidb" unicode="&#xdb;" d="M391 949L515 949L598 792L493 792L446 882L367 792L254 792L391 949M54 282L130 710L253 710L178 281Q176 269 175 257Q174 245 174 235Q174 169 212.50 131Q251 93 328 93Q401 93 444 135.50Q487 178 500 256L580 710L705 710L622 243Q602 127 523.50 57.50Q445-12 320-12Q195-12 122 52.50Q49 117 49 225Q49 238 50.50 252.50Q52 267 54 282Z"  horiz-adv-x="677" vert-adv-y="1000"  />

      
      <glyph glyph-name="unidc" unicode="&#xdc;" d="M269 856Q269 886 289 906.50Q309 927 339 927Q370 927 390.50 906.50Q411 886 411 856Q411 825 390.50 805Q370 785 339 785Q309 785 289 805Q269 825 269 856M469 856Q469 886 489.50 906.50Q510 927 541 927Q571 927 591 906.50Q611 886 611 856Q611 825 591 805Q571 785 541 785Q510 785 489.50 805Q469 825 469 856M54 282L130 710L253 710L178 281Q176 269 175 257Q174 245 174 235Q174 169 212.50 131Q251 93 328 93Q401 93 444 135.50Q487 178 500 256L580 710L705 710L622 243Q602 127 523.50 57.50Q445-12 320-12Q195-12 122 52.50Q49 117 49 225Q49 238 50.50 252.50Q52 267 54 282Z"  horiz-adv-x="677" vert-adv-y="1000"  />

      
      <glyph glyph-name="uni1EE4" unicode="&#x1EE4;" d="M54 282L130 710L253 710L178 281Q176 269 175 257Q174 245 174 235Q174 169 212.50 131Q251 93 328 93Q401 93 444 135.50Q487 178 500 256L580 710L705 710L622 243Q602 127 523.50 57.50Q445-12 320-12Q195-12 122 52.50Q49 117 49 225Q49 238 50.50 252.50Q52 267 54 282M195-138Q195-106 217.50-84Q240-62 272-62Q303-62 326-84Q349-106 349-138Q349-170 326-192Q303-214 272-214Q240-214 217.50-192Q195-170 195-138Z"  horiz-adv-x="677" vert-adv-y="1000"  />

      
      <glyph glyph-name="unid9" unicode="&#xd9;" d="M274 940L417 940L487 789L379 789L274 940M54 282L130 710L253 710L178 281Q176 269 175 257Q174 245 174 235Q174 169 212.50 131Q251 93 328 93Q401 93 444 135.50Q487 178 500 256L580 710L705 710L622 243Q602 127 523.50 57.50Q445-12 320-12Q195-12 122 52.50Q49 117 49 225Q49 238 50.50 252.50Q52 267 54 282Z"  horiz-adv-x="677" vert-adv-y="1000"  />

      
      <glyph glyph-name="uni0170" unicode="&#x0170;" d="M368 939L498 939L383 791L277 791L368 939M549 939L679 939L565 791L459 791L549 939M54 282L130 710L253 710L178 281Q176 269 175 257Q174 245 174 235Q174 169 212.50 131Q251 93 328 93Q401 93 444 135.50Q487 178 500 256L580 710L705 710L622 243Q602 127 523.50 57.50Q445-12 320-12Q195-12 122 52.50Q49 117 49 225Q49 238 50.50 252.50Q52 267 54 282Z"  horiz-adv-x="677" vert-adv-y="1000"  />

      
      <glyph glyph-name="uni016A" unicode="&#x016A;" d="M303 897L588 897L571 803L286 803L303 897M54 282L130 710L253 710L178 281Q176 269 175 257Q174 245 174 235Q174 169 212.50 131Q251 93 328 93Q401 93 444 135.50Q487 178 500 256L580 710L705 710L622 243Q602 127 523.50 57.50Q445-12 320-12Q195-12 122 52.50Q49 117 49 225Q49 238 50.50 252.50Q52 267 54 282Z"  horiz-adv-x="677" vert-adv-y="1000"  />

      
      <glyph glyph-name="uni0172" unicode="&#x0172;" d="M356-202Q344-205 329.50-207Q315-209 300-209Q250-209 219-186Q188-163 188-123Q188-91 212.50-60Q237-29 280-10L280-7Q226-4 182.50 14.50Q139 33 109.50 63.50Q80 94 64.50 135.50Q49 177 49 225Q49 238 50.50 252.50Q52 267 54 282L130 710L253 710L178 281Q176 269 175 257Q174 245 174 235Q174 169 212.50 131Q251 93 328 93Q401 93 444 135.50Q487 178 500 256L580 710L705 710L622 243Q604 141 547.50 79.50Q491 18 393-7Q339-20 309.50-48Q280-76 280-98Q280-114 291-125Q302-136 331-136Q341-136 351-133.50Q361-131 369-127L356-202Z"  horiz-adv-x="677" vert-adv-y="1000"  />

      
      <glyph glyph-name="uni016E" unicode="&#x016E;" d="M321 876Q321 926 354.50 957.50Q388 989 439 989Q490 989 523.50 957.50Q557 926 557 876Q557 827 523.50 795Q490 763 439 763Q388 763 354.50 795Q321 827 321 876M488 876Q488 899 473.50 913.50Q459 928 439 928Q418 928 403.50 913.50Q389 899 389 876Q389 855 403.50 840Q418 825 439 825Q459 825 473.50 840Q488 855 488 876M54 282L130 710L253 710L178 281Q176 269 175 257Q174 245 174 235Q174 169 212.50 131Q251 93 328 93Q401 93 444 135.50Q487 178 500 256L580 710L705 710L622 243Q602 127 523.50 57.50Q445-12 320-12Q195-12 122 52.50Q49 117 49 225Q49 238 50.50 252.50Q52 267 54 282Z"  horiz-adv-x="677" vert-adv-y="1000"  />

      
      <glyph glyph-name="uni0168" unicode="&#x0168;" d="M382 925Q401 925 417.50 918.50Q434 912 447 904Q459 897 470 890.50Q481 884 489 884Q507 884 513.50 901Q520 918 521 935L607 935Q604 869 576 832Q548 795 501 795Q478 795 461 801.50Q444 808 431 817Q418 826 407.50 831.50Q397 837 390 837Q374 837 366.50 822.50Q359 808 357 787L271 787Q274 853 305.50 889Q337 925 382 925M54 282L130 710L253 710L178 281Q176 269 175 257Q174 245 174 235Q174 169 212.50 131Q251 93 328 93Q401 93 444 135.50Q487 178 500 256L580 710L705 710L622 243Q602 127 523.50 57.50Q445-12 320-12Q195-12 122 52.50Q49 117 49 225Q49 238 50.50 252.50Q52 267 54 282Z"  horiz-adv-x="677" vert-adv-y="1000"  />

      
      <glyph glyph-name="uni56" unicode="&#x56;" d="M76 710L197 710L289 139L580 710L706 710L341 0L190 0L76 710Z"  horiz-adv-x="627" vert-adv-y="1000"  />

      
      <glyph glyph-name="uni57" unicode="&#x57;" d="M75 710L196 710L225 149L472 710L595 710L646 153L874 710L999 710L699 0L553 0L504 525L273 0L121 0L75 710Z"  horiz-adv-x="916" vert-adv-y="1000"  />

      
      <glyph glyph-name="uni1E82" unicode="&#x1E82;" d="M601 940L757 940L602 789L479 789L601 940M75 710L196 710L225 149L472 710L595 710L646 153L874 710L999 710L699 0L553 0L504 525L273 0L121 0L75 710Z"  horiz-adv-x="916" vert-adv-y="1000"  />

      
      <glyph glyph-name="uni0174" unicode="&#x0174;" d="M512 949L636 949L719 792L614 792L567 882L488 792L375 792L512 949M75 710L196 710L225 149L472 710L595 710L646 153L874 710L999 710L699 0L553 0L504 525L273 0L121 0L75 710Z"  horiz-adv-x="916" vert-adv-y="1000"  />

      
      <glyph glyph-name="uni1E84" unicode="&#x1E84;" d="M390 856Q390 886 410 906.50Q430 927 460 927Q491 927 511.50 906.50Q532 886 532 856Q532 825 511.50 805Q491 785 460 785Q430 785 410 805Q390 825 390 856M590 856Q590 886 610.50 906.50Q631 927 662 927Q692 927 712 906.50Q732 886 732 856Q732 825 712 805Q692 785 662 785Q631 785 610.50 805Q590 825 590 856M75 710L196 710L225 149L472 710L595 710L646 153L874 710L999 710L699 0L553 0L504 525L273 0L121 0L75 710Z"  horiz-adv-x="916" vert-adv-y="1000"  />

      
      <glyph glyph-name="uni1E80" unicode="&#x1E80;" d="M398 940L541 940L611 789L503 789L398 940M75 710L196 710L225 149L472 710L595 710L646 153L874 710L999 710L699 0L553 0L504 525L273 0L121 0L75 710Z"  horiz-adv-x="916" vert-adv-y="1000"  />

      
      <glyph glyph-name="uni58" unicode="&#x58;" d="M472 0L332 273L101 0L-43 0L274 369L96 710L230 710L360 450L574 710L719 710L422 355L606 0L472 0Z"  horiz-adv-x="653" vert-adv-y="1000"  />

      
      <glyph glyph-name="uni59" unicode="&#x59;" d="M244 281L69 710L193 710L320 394L559 710L693 710L369 281L319 0L194 0L244 281Z"  horiz-adv-x="605" vert-adv-y="1000"  />

      
      <glyph glyph-name="unidd" unicode="&#xdd;" d="M434 940L590 940L435 789L312 789L434 940M244 281L69 710L193 710L320 394L559 710L693 710L369 281L319 0L194 0L244 281Z"  horiz-adv-x="605" vert-adv-y="1000"  />

      
      <glyph glyph-name="uni0176" unicode="&#x0176;" d="M343 949L467 949L550 792L445 792L398 882L319 792L206 792L343 949M244 281L69 710L193 710L320 394L559 710L693 710L369 281L319 0L194 0L244 281Z"  horiz-adv-x="605" vert-adv-y="1000"  />

      
      <glyph glyph-name="uni0178" unicode="&#x0178;" d="M220 856Q220 886 240 906.50Q260 927 290 927Q321 927 341.50 906.50Q362 886 362 856Q362 825 341.50 805Q321 785 290 785Q260 785 240 805Q220 825 220 856M420 856Q420 886 440.50 906.50Q461 927 492 927Q522 927 542 906.50Q562 886 562 856Q562 825 542 805Q522 785 492 785Q461 785 440.50 805Q420 825 420 856M244 281L69 710L193 710L320 394L559 710L693 710L369 281L319 0L194 0L244 281Z"  horiz-adv-x="605" vert-adv-y="1000"  />

      
      <glyph glyph-name="uni1EF2" unicode="&#x1EF2;" d="M230 940L373 940L443 789L335 789L230 940M244 281L69 710L193 710L320 394L559 710L693 710L369 281L319 0L194 0L244 281Z"  horiz-adv-x="605" vert-adv-y="1000"  />

      
      <glyph glyph-name="uni0232" unicode="&#x0232;" d="M257 897L542 897L525 803L240 803L257 897M244 281L69 710L193 710L320 394L559 710L693 710L369 281L319 0L194 0L244 281Z"  horiz-adv-x="605" vert-adv-y="1000"  />

      
      <glyph glyph-name="uni1EF8" unicode="&#x1EF8;" d="M336 925Q355 925 371.50 918.50Q388 912 401 904Q413 897 424 890.50Q435 884 443 884Q461 884 467.50 901Q474 918 475 935L561 935Q558 869 530 832Q502 795 455 795Q432 795 415 801.50Q398 808 385 817Q372 826 361.50 831.50Q351 837 344 837Q328 837 320.50 822.50Q313 808 311 787L225 787Q228 853 259.50 889Q291 925 336 925M244 281L69 710L193 710L320 394L559 710L693 710L369 281L319 0L194 0L244 281Z"  horiz-adv-x="605" vert-adv-y="1000"  />

      
      <glyph glyph-name="uni5a" unicode="&#x5a;" d="M17 100L483 608L89 608L107 710L660 710L646 624L166 102L563 102L545 0L0 0L17 100Z"  horiz-adv-x="623" vert-adv-y="1000"  />

      
      <glyph glyph-name="uni0179" unicode="&#x0179;" d="M430 940L586 940L431 789L308 789L430 940M17 100L483 608L89 608L107 710L660 710L646 624L166 102L563 102L545 0L0 0L17 100Z"  horiz-adv-x="623" vert-adv-y="1000"  />

      
      <glyph glyph-name="uni017D" unicode="&#x017D;" d="M231 946L336 946L384 857L462 946L576 946L438 789L314 789L231 946M17 100L483 608L89 608L107 710L660 710L646 624L166 102L563 102L545 0L0 0L17 100Z"  horiz-adv-x="623" vert-adv-y="1000"  />

      
      <glyph glyph-name="uni017B" unicode="&#x017B;" d="M389 938Q421 938 443.50 916Q466 894 466 862Q466 829 443.50 807Q421 785 389 785Q358 785 335.50 807Q313 829 313 862Q313 894 335.50 916Q358 938 389 938M17 100L483 608L89 608L107 710L660 710L646 624L166 102L563 102L545 0L0 0L17 100Z"  horiz-adv-x="623" vert-adv-y="1000"  />

      
      <glyph glyph-name="uni61" unicode="&#x61;" d="M-2 126Q-2 198 44.50 242.50Q91 287 186 297L298 308Q338 312 350 331Q362 350 362 375Q362 406 340.50 425.50Q319 445 275 445Q229 445 201 421.50Q173 398 168 361L49 361Q53 393 70.50 424Q88 455 117.50 479Q147 503 188.50 517.50Q230 532 283 532Q378 532 427 487.50Q476 443 476 368Q476 357 475 346Q474 335 472 322L432 89Q428 72 427 54.50Q426 37 426 22L426 0L305 0Q306 15 307 31.50Q308 48 312 68L309 68Q284 34 245.50 11Q207-12 154-12Q83-12 40.50 27Q-2 66-2 126M333 197L344 265Q331 256 312 249Q293 242 271 239L216 230Q162 221 139 199.50Q116 178 116 142Q116 110 136 92Q156 74 196 74Q242 74 282.50 108Q323 142 333 197Z"  horiz-adv-x="506" vert-adv-y="1000"  />

      
      <glyph glyph-name="unie1" unicode="&#xe1;" d="M341 751L485 751L347 598L232 598L341 751M-2 126Q-2 198 44.50 242.50Q91 287 186 297L298 308Q338 312 350 331Q362 350 362 375Q362 406 340.50 425.50Q319 445 275 445Q229 445 201 421.50Q173 398 168 361L49 361Q53 393 70.50 424Q88 455 117.50 479Q147 503 188.50 517.50Q230 532 283 532Q378 532 427 487.50Q476 443 476 368Q476 357 475 346Q474 335 472 322L432 89Q428 72 427 54.50Q426 37 426 22L426 0L305 0Q306 15 307 31.50Q308 48 312 68L309 68Q284 34 245.50 11Q207-12 154-12Q83-12 40.50 27Q-2 66-2 126M333 197L344 265Q331 256 312 249Q293 242 271 239L216 230Q162 221 139 199.50Q116 178 116 142Q116 110 136 92Q156 74 196 74Q242 74 282.50 108Q323 142 333 197Z"  horiz-adv-x="506" vert-adv-y="1000"  />

      
      <glyph glyph-name="uni0103" unicode="&#x0103;" d="M173 755L263 755Q259 716 272 696Q285 676 316 676Q339 676 358 695.50Q377 715 381 755L476 755Q466 681 420.50 638.50Q375 596 311 596Q239 596 202 639.50Q165 683 173 755M-2 126Q-2 198 44.50 242.50Q91 287 186 297L298 308Q338 312 350 331Q362 350 362 375Q362 406 340.50 425.50Q319 445 275 445Q229 445 201 421.50Q173 398 168 361L49 361Q53 393 70.50 424Q88 455 117.50 479Q147 503 188.50 517.50Q230 532 283 532Q378 532 427 487.50Q476 443 476 368Q476 357 475 346Q474 335 472 322L432 89Q428 72 427 54.50Q426 37 426 22L426 0L305 0Q306 15 307 31.50Q308 48 312 68L309 68Q284 34 245.50 11Q207-12 154-12Q83-12 40.50 27Q-2 66-2 126M333 197L344 265Q331 256 312 249Q293 242 271 239L216 230Q162 221 139 199.50Q116 178 116 142Q116 110 136 92Q156 74 196 74Q242 74 282.50 108Q323 142 333 197Z"  horiz-adv-x="506" vert-adv-y="1000"  />

      
      <glyph glyph-name="unie2" unicode="&#xe2;" d="M265 758L384 758L458 599L358 599L317 689L244 599L135 599L265 758M-2 126Q-2 198 44.50 242.50Q91 287 186 297L298 308Q338 312 350 331Q362 350 362 375Q362 406 340.50 425.50Q319 445 275 445Q229 445 201 421.50Q173 398 168 361L49 361Q53 393 70.50 424Q88 455 117.50 479Q147 503 188.50 517.50Q230 532 283 532Q378 532 427 487.50Q476 443 476 368Q476 357 475 346Q474 335 472 322L432 89Q428 72 427 54.50Q426 37 426 22L426 0L305 0Q306 15 307 31.50Q308 48 312 68L309 68Q284 34 245.50 11Q207-12 154-12Q83-12 40.50 27Q-2 66-2 126M333 197L344 265Q331 256 312 249Q293 242 271 239L216 230Q162 221 139 199.50Q116 178 116 142Q116 110 136 92Q156 74 196 74Q242 74 282.50 108Q323 142 333 197Z"  horiz-adv-x="506" vert-adv-y="1000"  />

      
      <glyph glyph-name="unib4" unicode="&#xb4;" d="M309 751L453 751L315 598L200 598L309 751Z"  horiz-adv-x="500" vert-adv-y="1000"  />

      
      <glyph glyph-name="unie4" unicode="&#xe4;" d="M143 668Q143 698 163 718Q183 738 213 738Q244 738 264 718Q284 698 284 668Q284 637 264 617Q244 597 213 597Q183 597 163 617Q143 637 143 668M337 668Q337 698 357 718Q377 738 407 738Q438 738 458 718Q478 698 478 668Q478 637 458 617Q438 597 407 597Q377 597 357 617Q337 637 337 668M-2 126Q-2 198 44.50 242.50Q91 287 186 297L298 308Q338 312 350 331Q362 350 362 375Q362 406 340.50 425.50Q319 445 275 445Q229 445 201 421.50Q173 398 168 361L49 361Q53 393 70.50 424Q88 455 117.50 479Q147 503 188.50 517.50Q230 532 283 532Q378 532 427 487.50Q476 443 476 368Q476 357 475 346Q474 335 472 322L432 89Q428 72 427 54.50Q426 37 426 22L426 0L305 0Q306 15 307 31.50Q308 48 312 68L309 68Q284 34 245.50 11Q207-12 154-12Q83-12 40.50 27Q-2 66-2 126M333 197L344 265Q331 256 312 249Q293 242 271 239L216 230Q162 221 139 199.50Q116 178 116 142Q116 110 136 92Q156 74 196 74Q242 74 282.50 108Q323 142 333 197Z"  horiz-adv-x="506" vert-adv-y="1000"  />

      
      <glyph glyph-name="uni1EA1" unicode="&#x1EA1;" d="M-2 126Q-2 198 44.50 242.50Q91 287 186 297L298 308Q338 312 350 331Q362 350 362 375Q362 406 340.50 425.50Q319 445 275 445Q229 445 201 421.50Q173 398 168 361L49 361Q53 393 70.50 424Q88 455 117.50 479Q147 503 188.50 517.50Q230 532 283 532Q378 532 427 487.50Q476 443 476 368Q476 357 475 346Q474 335 472 322L432 89Q428 72 427 54.50Q426 37 426 22L426 0L305 0Q306 15 307 31.50Q308 48 312 68L309 68Q284 34 245.50 11Q207-12 154-12Q83-12 40.50 27Q-2 66-2 126M333 197L344 265Q331 256 312 249Q293 242 271 239L216 230Q162 221 139 199.50Q116 178 116 142Q116 110 136 92Q156 74 196 74Q242 74 282.50 108Q323 142 333 197M221-63Q252-63 273.50-84.50Q295-106 295-137Q295-168 273.50-190Q252-212 221-212Q190-212 168.50-190Q147-168 147-137Q147-106 168.50-84.50Q190-63 221-63Z"  horiz-adv-x="506" vert-adv-y="1000"  />

      
      <glyph glyph-name="unie6" unicode="&#xe6;" d="M-2 126Q-2 198 44.50 242.50Q91 287 186 297L298 308Q338 312 350 331Q362 350 362 375Q362 406 340.50 425.50Q319 445 275 445Q229 445 201 421.50Q173 398 168 361L49 361Q53 393 70.50 424Q88 455 117.50 479Q147 503 188.50 517.50Q230 532 283 532Q341 532 382 513.50Q423 495 445 461Q479 494 524 513Q569 532 623 532Q725 532 781.50 471.50Q838 411 838 315Q838 297 835.50 275Q833 253 828 232L459 232Q458 223 457.50 216.50Q457 210 457 204Q457 145 487 112.50Q517 80 574 80Q614 80 645.50 99.50Q677 119 691 154L810 154Q799 121 776.50 90.50Q754 60 722.50 37.50Q691 15 652 1.50Q613-12 569-12Q500-12 450 14.50Q400 41 373 88L368 88Q335 42 285 15Q235-12 167-12Q86-12 42 27Q-2 66-2 126M616 440Q565 440 527 406.50Q489 373 473 313L725 313L725 316Q725 372 699 406Q673 440 616 440M333 197L344 265Q331 256 312 249Q293 242 271 239L216 230Q162 221 139 199.50Q116 178 116 142Q116 110 136 92Q156 74 196 74Q242 74 282.50 108Q323 142 333 197Z"  horiz-adv-x="850" vert-adv-y="1000"  />

      
      <glyph glyph-name="uni01FD" unicode="&#x01FD;" d="M515 751L659 751L521 598L406 598L515 751M-2 126Q-2 198 44.50 242.50Q91 287 186 297L298 308Q338 312 350 331Q362 350 362 375Q362 406 340.50 425.50Q319 445 275 445Q229 445 201 421.50Q173 398 168 361L49 361Q53 393 70.50 424Q88 455 117.50 479Q147 503 188.50 517.50Q230 532 283 532Q341 532 382 513.50Q423 495 445 461Q479 494 524 513Q569 532 623 532Q725 532 781.50 471.50Q838 411 838 315Q838 297 835.50 275Q833 253 828 232L459 232Q458 223 457.50 216.50Q457 210 457 204Q457 145 487 112.50Q517 80 574 80Q614 80 645.50 99.50Q677 119 691 154L810 154Q799 121 776.50 90.50Q754 60 722.50 37.50Q691 15 652 1.50Q613-12 569-12Q500-12 450 14.50Q400 41 373 88L368 88Q335 42 285 15Q235-12 167-12Q86-12 42 27Q-2 66-2 126M616 440Q565 440 527 406.50Q489 373 473 313L725 313L725 316Q725 372 699 406Q673 440 616 440M333 197L344 265Q331 256 312 249Q293 242 271 239L216 230Q162 221 139 199.50Q116 178 116 142Q116 110 136 92Q156 74 196 74Q242 74 282.50 108Q323 142 333 197Z"  horiz-adv-x="850" vert-adv-y="1000"  />

      
      <glyph glyph-name="unie0" unicode="&#xe0;" d="M163 751L296 751L355 598L253 598L163 751M-2 126Q-2 198 44.50 242.50Q91 287 186 297L298 308Q338 312 350 331Q362 350 362 375Q362 406 340.50 425.50Q319 445 275 445Q229 445 201 421.50Q173 398 168 361L49 361Q53 393 70.50 424Q88 455 117.50 479Q147 503 188.50 517.50Q230 532 283 532Q378 532 427 487.50Q476 443 476 368Q476 357 475 346Q474 335 472 322L432 89Q428 72 427 54.50Q426 37 426 22L426 0L305 0Q306 15 307 31.50Q308 48 312 68L309 68Q284 34 245.50 11Q207-12 154-12Q83-12 40.50 27Q-2 66-2 126M333 197L344 265Q331 256 312 249Q293 242 271 239L216 230Q162 221 139 199.50Q116 178 116 142Q116 110 136 92Q156 74 196 74Q242 74 282.50 108Q323 142 333 197Z"  horiz-adv-x="506" vert-adv-y="1000"  />

      
      <glyph glyph-name="uni0101" unicode="&#x0101;" d="M178 708L455 708L439 617L162 617L178 708M-2 126Q-2 198 44.50 242.50Q91 287 186 297L298 308Q338 312 350 331Q362 350 362 375Q362 406 340.50 425.50Q319 445 275 445Q229 445 201 421.50Q173 398 168 361L49 361Q53 393 70.50 424Q88 455 117.50 479Q147 503 188.50 517.50Q230 532 283 532Q378 532 427 487.50Q476 443 476 368Q476 357 475 346Q474 335 472 322L432 89Q428 72 427 54.50Q426 37 426 22L426 0L305 0Q306 15 307 31.50Q308 48 312 68L309 68Q284 34 245.50 11Q207-12 154-12Q83-12 40.50 27Q-2 66-2 126M333 197L344 265Q331 256 312 249Q293 242 271 239L216 230Q162 221 139 199.50Q116 178 116 142Q116 110 136 92Q156 74 196 74Q242 74 282.50 108Q323 142 333 197Z"  horiz-adv-x="506" vert-adv-y="1000"  />

      
      <glyph glyph-name="uni26" unicode="&#x26;" d="M0 175Q0 255 46.50 315.50Q93 376 197 413Q177 441 165 472Q153 503 153 537Q153 569 165.50 602.50Q178 636 202.50 662.50Q227 689 264.50 705.50Q302 722 352 722Q429 722 477 678Q525 634 525 565Q525 537 518 511.50Q511 486 492.50 462.50Q474 439 440.50 417Q407 395 356 374L451 238L554 379L675 379L564 225Q551 206 537 188Q523 170 510 154L618 0L487 0L434 75Q385 32 332 10Q279-12 215-12Q117-12 58.50 39Q0 90 0 175M299 455L307 444Q379 472 400.50 500Q422 528 422 560Q422 593 402 615Q382 637 346 637Q307 637 284 611Q261 585 261 546Q261 524 270.50 503Q280 482 299 455M116 195Q116 144 148.50 114.50Q181 85 236 85Q274 85 309 101Q344 117 380 152L247 342Q176 317 146 280Q116 243 116 195Z"  horiz-adv-x="649" vert-adv-y="1000"  />

      
      <glyph glyph-name="uni0105" unicode="&#x0105;" d="M-2 126Q-2 198 44.50 242.50Q91 287 186 297L298 308Q338 312 350 331Q362 350 362 375Q362 406 340.50 425.50Q319 445 275 445Q229 445 201 421.50Q173 398 168 361L49 361Q53 393 70.50 424Q88 455 117.50 479Q147 503 188.50 517.50Q230 532 283 532Q378 532 427 487.50Q476 443 476 368Q476 357 475 346Q474 335 472 322L432 89Q428 72 427 54.50Q426 37 426 22L426 0Q372-28 346-51Q320-74 320-98Q320-113 330.50-123.50Q341-134 368-134Q378-134 388-132Q398-130 405-126L392-197Q382-200 367.50-202.50Q353-205 340-205Q294-205 264.50-182Q235-159 235-120Q235-93 257.50-59Q280-25 332-4L332 0L305 0Q306 15 307 31.50Q308 48 312 68L309 68Q284 34 245.50 11Q207-12 154-12Q83-12 40.50 27Q-2 66-2 126M333 197L344 265Q331 256 312 249Q293 242 271 239L216 230Q162 221 139 199.50Q116 178 116 142Q116 110 136 92Q156 74 196 74Q242 74 282.50 108Q323 142 333 197Z"  horiz-adv-x="506" vert-adv-y="1000"  />

      
      <glyph glyph-name="uni2248" unicode="&#x2248;" d="M240 546Q275 546 303.50 535.50Q332 525 357 515Q379 505 401.50 494.50Q424 484 444 484Q481 484 497 506Q513 528 515 548L618 548Q614 510 598 479.50Q582 449 558.50 428.50Q535 408 505 397.50Q475 387 443 387Q403 387 374 398.50Q345 410 320 421Q299 431 277.50 440.50Q256 450 237 450Q200 450 185.50 427Q171 404 170 385L61 385Q71 463 123.50 504.50Q176 546 240 546M197 303Q232 303 260.50 292Q289 281 314 271Q336 261 358.50 251Q381 241 401 241Q438 241 454 262.50Q470 284 472 304L575 304Q571 266 555 236Q539 206 515.50 185.50Q492 165 462 154.50Q432 144 400 144Q360 144 331 155Q302 166 277 178Q256 187 234.50 196.50Q213 206 194 206Q157 206 142.50 183Q128 160 127 141L18 141Q23 180 40 210Q57 240 81 261Q105 282 135 292.50Q165 303 197 303Z"  horiz-adv-x="608" vert-adv-y="1000"  />

      
      <glyph glyph-name="unie5" unicode="&#xe5;" d="M196 689Q196 738 228.50 768.50Q261 799 310 799Q359 799 391.50 768.50Q424 738 424 689Q424 643 391.50 611.50Q359 580 310 580Q261 580 228.50 611.50Q196 643 196 689M359 689Q359 713 345 727Q331 741 310 741Q290 741 275.50 727Q261 713 261 689Q261 667 275.50 652Q290 637 310 637Q331 637 345 652Q359 667 359 689M-2 126Q-2 198 44.50 242.50Q91 287 186 297L298 308Q338 312 350 331Q362 350 362 375Q362 406 340.50 425.50Q319 445 275 445Q229 445 201 421.50Q173 398 168 361L49 361Q53 393 70.50 424Q88 455 117.50 479Q147 503 188.50 517.50Q230 532 283 532Q378 532 427 487.50Q476 443 476 368Q476 357 475 346Q474 335 472 322L432 89Q428 72 427 54.50Q426 37 426 22L426 0L305 0Q306 15 307 31.50Q308 48 312 68L309 68Q284 34 245.50 11Q207-12 154-12Q83-12 40.50 27Q-2 66-2 126M333 197L344 265Q331 256 312 249Q293 242 271 239L216 230Q162 221 139 199.50Q116 178 116 142Q116 110 136 92Q156 74 196 74Q242 74 282.50 108Q323 142 333 197Z"  horiz-adv-x="506" vert-adv-y="1000"  />

      
      <glyph glyph-name="uni01FB" unicode="&#x01FB;" d="M383 985L527 985L389 832L274 832L383 985M202 679Q202 728 234.50 758.50Q267 789 316 789Q365 789 397.50 758.50Q430 728 430 679Q430 633 397.50 601.50Q365 570 316 570Q267 570 234.50 601.50Q202 633 202 679M365 679Q365 703 351 717Q337 731 316 731Q296 731 281.50 717Q267 703 267 679Q267 657 281.50 642Q296 627 316 627Q337 627 351 642Q365 657 365 679M-2 126Q-2 198 44.50 242.50Q91 287 186 297L298 308Q338 312 350 331Q362 350 362 375Q362 406 340.50 425.50Q319 445 275 445Q229 445 201 421.50Q173 398 168 361L49 361Q53 393 70.50 424Q88 455 117.50 479Q147 503 188.50 517.50Q230 532 283 532Q378 532 427 487.50Q476 443 476 368Q476 357 475 346Q474 335 472 322L432 89Q428 72 427 54.50Q426 37 426 22L426 0L305 0Q306 15 307 31.50Q308 48 312 68L309 68Q284 34 245.50 11Q207-12 154-12Q83-12 40.50 27Q-2 66-2 126M333 197L344 265Q331 256 312 249Q293 242 271 239L216 230Q162 221 139 199.50Q116 178 116 142Q116 110 136 92Q156 74 196 74Q242 74 282.50 108Q323 142 333 197Z"  horiz-adv-x="506" vert-adv-y="1000"  />

      
      <glyph glyph-name="uni2193" unicode="&#x2193;" d="M45 306L45 449L286 208L286 687L397 687L397 207L639 449L639 306L342 9L45 306Z"  horiz-adv-x="647" vert-adv-y="1000"  />

      
      <glyph glyph-name="uni2190" unicode="&#x2190;" d="M684 309L216 309L461 64L319 64L23 360L319 656L461 656L216 411L684 411L684 309Z"  horiz-adv-x="693" vert-adv-y="1000"  />

      
      <glyph glyph-name="uni2192" unicode="&#x2192;" d="M701 360L405 64L263 64L508 309L40 309L40 411L508 411L263 656L405 656L701 360Z"  horiz-adv-x="693" vert-adv-y="1000"  />

      
      <glyph glyph-name="uni2191" unicode="&#x2191;" d="M638 404L638 261L397 502L397 23L286 23L286 503L44 261L44 404L341 701L638 404Z"  horiz-adv-x="647" vert-adv-y="1000"  />

      
      <glyph glyph-name="uni5e" unicode="&#x5e;" d="M264 710L362 710L478 374L372 374L298 598L146 374L32 374L264 710Z"  horiz-adv-x="473" vert-adv-y="1000"  />

      
      <glyph glyph-name="uni7e" unicode="&#x7e;" d="M181 405Q209 405 227.50 397Q246 389 262 378Q277 369 290 362Q303 355 316 355Q344 355 354.50 377Q365 399 366 424L457 424Q451 349 413.50 302.50Q376 256 318 256Q292 256 272 264.50Q252 273 236 283Q221 293 208.50 299.50Q196 306 184 306Q156 306 145 283.50Q134 261 133 237L43 237Q49 313 88 359Q127 405 181 405Z"  horiz-adv-x="477" vert-adv-y="1000"  />

      
      <glyph glyph-name="uni2a" unicode="&#x2a;" d="M60 461L200 514Q200 515 200.50 516.50Q201 518 201 519L82 573L139 654L237 567Q238 568 239.50 568.50Q241 569 242 570L248 710L344 710L303 572Q304 571 305 571Q306 571 307 570L429 653L468 568L329 515L329 514Q329 513 328.50 511.50Q328 510 328 509L446 456L388 375L291 461Q290 460 288.50 459.50Q287 459 286 458L280 319L183 319L226 457Q225 458 224 458.50Q223 459 222 459L99 376L60 461Z"  horiz-adv-x="442" vert-adv-y="1000"  />

      
      <glyph glyph-name="uni40" unicode="&#x40;" d="M18 202Q18 297 53.50 383Q89 469 152 533Q215 597 302 635Q389 673 491 673Q575 673 641.50 648.50Q708 624 753.50 580.50Q799 537 823.50 477.50Q848 418 848 349Q848 286 828 230.50Q808 175 773.50 134.50Q739 94 690.50 70.50Q642 47 585 47Q540 47 513.50 65.50Q487 84 479 112Q450 81 418 64.50Q386 48 349 48Q287 48 247 88Q207 128 207 204Q207 254 226 302.50Q245 351 276.50 388Q308 425 351 448Q394 471 441 471Q481 471 508.50 453Q536 435 545 404L564 458L671 458L577 190Q573 180 571.50 171.50Q570 163 570 156Q570 137 583 127Q596 117 619 117Q650 117 679 133.50Q708 150 731 180Q754 210 768 254Q782 298 782 352Q782 471 703 544Q624 617 488 617Q390 617 314.50 580Q239 543 188.50 484.50Q138 426 112 351Q86 276 86 201Q86 135 107 80Q128 25 167-14.50Q206-54 262-76Q318-98 387-98Q462-98 511-78Q560-58 607-27L703-27Q632-87 555.50-120.50Q479-154 383-154Q301-154 233-128Q165-102 117.50-55.50Q70-9 44 57Q18 123 18 202M514 313Q514 351 495.50 373Q477 395 444 395Q418 395 394 378Q370 361 351.50 334Q333 307 322 273.50Q311 240 311 207Q311 169 329 147.50Q347 126 381 126Q412 126 437 145.50Q462 165 479 193.50Q496 222 505 254.50Q514 287 514 313Z"  horiz-adv-x="863" vert-adv-y="1000"  />

      
      <glyph glyph-name="unie3" unicode="&#xe3;" d="M254 737Q273 737 288.50 731Q304 725 317 717Q330 710 340.50 704Q351 698 358 698Q375 698 381.50 714.50Q388 731 389 748L473 748Q470 682 442.50 646.50Q415 611 369 611Q347 611 331 617Q315 623 302 632Q289 640 279 646Q269 652 262 652Q246 652 239 637.50Q232 623 230 602L147 602Q149 668 180 702.50Q211 737 254 737M-2 126Q-2 198 44.50 242.50Q91 287 186 297L298 308Q338 312 350 331Q362 350 362 375Q362 406 340.50 425.50Q319 445 275 445Q229 445 201 421.50Q173 398 168 361L49 361Q53 393 70.50 424Q88 455 117.50 479Q147 503 188.50 517.50Q230 532 283 532Q378 532 427 487.50Q476 443 476 368Q476 357 475 346Q474 335 472 322L432 89Q428 72 427 54.50Q426 37 426 22L426 0L305 0Q306 15 307 31.50Q308 48 312 68L309 68Q284 34 245.50 11Q207-12 154-12Q83-12 40.50 27Q-2 66-2 126M333 197L344 265Q331 256 312 249Q293 242 271 239L216 230Q162 221 139 199.50Q116 178 116 142Q116 110 136 92Q156 74 196 74Q242 74 282.50 108Q323 142 333 197Z"  horiz-adv-x="506" vert-adv-y="1000"  />

      
      <glyph glyph-name="uni62" unicode="&#x62;" d="M138 74L133 74L120 0L2 0L132 740L250 740L200 455L206 455Q231 491 271 511.50Q311 532 357 532Q440 532 490 470Q540 408 540 303Q540 225 518.50 165.50Q497 106 463 67Q429 28 385 8Q341-12 296-12Q236-12 194.50 13Q153 38 138 74M158 202Q158 147 188.50 114.50Q219 82 272 82Q329 82 364.50 120Q400 158 413 226Q420 258 422.50 281.50Q425 305 425 316Q425 376 394.50 407Q364 438 313 438Q259 438 222.50 400.50Q186 363 174 304L159 223Q158 218 158 212.50Q158 207 158 202Z"  horiz-adv-x="561" vert-adv-y="1000"  />

      
      <glyph glyph-name="uni5c" unicode="&#x5c;" d="M81 748L190 748L432-142L323-142L81 748Z"  horiz-adv-x="458" vert-adv-y="1000"  />

      
      <glyph glyph-name="uni0E3F" unicode="&#x0E3F;" d="M155 710L343 710L363 826L435 826L414 710Q501 707 548 659.50Q595 612 595 539Q595 472 561.50 428Q528 384 472 365Q516 350 541.50 312.50Q567 275 567 221Q567 120 496 60Q425 0 289 0L265-133L193-133L217 0L30 0L155 710M245 623L207 408L289 408L327 623L245 623M483 537Q483 580 461 601Q439 622 399 623L361 408Q421 409 452 442Q483 475 483 537M192 321L150 84L232 84L274 321L192 321M454 227Q454 275 425.50 298Q397 321 346 321L304 84Q382 85 418 122.50Q454 160 454 227Z"  horiz-adv-x="615" vert-adv-y="1000"  />

      
      <glyph glyph-name="uni7c" unicode="&#x7c;" d="M150 748L260 748L104-142L-6-142L150 748Z"  horiz-adv-x="239" vert-adv-y="1000"  />

      
      <glyph glyph-name="uni7b" unicode="&#x7b;" d="M84 59L100 130Q103 143 105 156Q107 169 107 179Q107 214 87 234Q67 254 21 254L-3 254L14 352L38 352Q99 352 126.50 383Q154 414 161 471L172 567Q181 633 209.50 674Q238 715 304 735Q329 742 361 745Q393 748 436 748L419 656Q348 655 322.50 632Q297 609 290 557L277 462Q267 390 237 352.50Q207 315 139 302Q186 290 205.50 262.50Q225 235 225 194Q225 180 223 164Q221 148 218 132L202 55Q199 43 197.50 32.50Q196 22 196 12Q196-19 218-34Q240-49 295-50L279-142Q172-141 124-104.50Q76-68 76-2Q76 12 78 27.50Q80 43 84 59Z"  horiz-adv-x="369" vert-adv-y="1000"  />

      
      <glyph glyph-name="uni7d" unicode="&#x7d;" d="M295 547L280 476Q278 463 276 450Q274 437 274 427Q274 392 293.50 372Q313 352 360 352L384 352L367 254L342 254Q281 254 254.50 223Q228 192 221 135L208 39Q199-28 169.50-70Q140-112 72-131Q47-138 16-140Q-15-142-55-142L-39-49Q33-48 58-24.50Q83-1 91 51L104 144Q114 216 144 254.50Q174 293 241 306Q195 317 175 344Q155 371 155 412Q155 426 157 442Q159 458 163 474L177 548Q179 560 180.50 570.50Q182 581 182 590Q182 622 161 639Q140 656 86 658L102 748Q212 748 256.50 710.50Q301 673 301 607Q301 594 299.50 578.50Q298 563 295 547Z"  horiz-adv-x="369" vert-adv-y="1000"  />

      
      <glyph glyph-name="uni5b" unicode="&#x5b;" d="M155 748L398 748L381 656L259 656L136-50L257-50L241-142L-2-142L155 748Z"  horiz-adv-x="327" vert-adv-y="1000"  />

      
      <glyph glyph-name="uni5d" unicode="&#x5d;" d="M187-141L-56-141L-40-49L82-49L206 656L84 656L101 749L344 749L187-141Z"  horiz-adv-x="327" vert-adv-y="1000"  />

      
      <glyph glyph-name="uni02D8" unicode="&#x02D8;" d="M185 755L275 755Q271 716 284 696Q297 676 328 676Q351 676 370 695.50Q389 715 393 755L488 755Q478 681 432.50 638.50Q387 596 323 596Q251 596 214 639.50Q177 683 185 755Z"  horiz-adv-x="500" vert-adv-y="1000"  />

      
      <glyph glyph-name="uni2022" unicode="&#x2022;" d="M45 288Q45 345 86 386Q127 427 184 427Q241 427 281.50 386Q322 345 322 288Q322 231 281.50 190Q241 149 184 149Q127 149 86 190Q45 231 45 288Z"  horiz-adv-x="360" vert-adv-y="1000"  />

      
      <glyph glyph-name="uni63" unicode="&#x63;" d="M19 218Q19 284 39 342Q59 400 95 442Q131 484 183.50 508Q236 532 300 532Q397 532 451 479Q505 426 507 344L390 344Q385 390 360 414.50Q335 439 287 439Q233 439 196.50 401.50Q160 364 149 299Q143 267 140 245Q137 223 137 208Q137 148 167 114.50Q197 81 248 81Q294 81 321 105.50Q348 130 360 168L480 168Q470 132 450 99.50Q430 67 400.50 42Q371 17 332 2.50Q293-12 246-12Q142-12 80.50 50Q19 112 19 218Z"  horiz-adv-x="509" vert-adv-y="1000"  />

      
      <glyph glyph-name="uni0107" unicode="&#x0107;" d="M345 751L489 751L351 598L236 598L345 751M19 218Q19 284 39 342Q59 400 95 442Q131 484 183.50 508Q236 532 300 532Q397 532 451 479Q505 426 507 344L390 344Q385 390 360 414.50Q335 439 287 439Q233 439 196.50 401.50Q160 364 149 299Q143 267 140 245Q137 223 137 208Q137 148 167 114.50Q197 81 248 81Q294 81 321 105.50Q348 130 360 168L480 168Q470 132 450 99.50Q430 67 400.50 42Q371 17 332 2.50Q293-12 246-12Q142-12 80.50 50Q19 112 19 218Z"  horiz-adv-x="509" vert-adv-y="1000"  />

      
      <glyph glyph-name="uni02C7" unicode="&#x02C7;" d="M176 757L277 757L318 666L390 757L499 757L369 598L250 598L176 757Z"  horiz-adv-x="500" vert-adv-y="1000"  />

      
      <glyph glyph-name="uni010D" unicode="&#x010D;" d="M169 757L270 757L311 666L383 757L492 757L362 598L243 598L169 757M19 218Q19 284 39 342Q59 400 95 442Q131 484 183.50 508Q236 532 300 532Q397 532 451 479Q505 426 507 344L390 344Q385 390 360 414.50Q335 439 287 439Q233 439 196.50 401.50Q160 364 149 299Q143 267 140 245Q137 223 137 208Q137 148 167 114.50Q197 81 248 81Q294 81 321 105.50Q348 130 360 168L480 168Q470 132 450 99.50Q430 67 400.50 42Q371 17 332 2.50Q293-12 246-12Q142-12 80.50 50Q19 112 19 218Z"  horiz-adv-x="509" vert-adv-y="1000"  />

      
      <glyph glyph-name="unie7" unicode="&#xe7;" d="M102-153L167-153Q169-165 179.50-174.50Q190-184 212-184Q231-184 243.50-172.50Q256-161 256-143Q256-127 246-118Q236-109 219-109Q209-109 199.50-112.50Q190-116 185-121L147-94L206-9Q119 2 69 62Q19 122 19 218Q19 284 39 342Q59 400 95 442Q131 484 183.50 508Q236 532 300 532Q397 532 451 479Q505 426 507 344L390 344Q385 390 360 414.50Q335 439 287 439Q233 439 196.50 401.50Q160 364 149 299Q143 267 140 245Q137 223 137 208Q137 148 167 114.50Q197 81 248 81Q294 81 321 105.50Q348 130 360 168L480 168Q471 134 452.50 103Q434 72 407.50 47.50Q381 23 345.50 7.50Q310-8 267-11L238-53Q239-53 240.50-53Q242-53 243-53Q280-53 302.50-75.50Q325-98 325-138Q325-181 295-211.50Q265-242 211-242Q153-242 127.50-213Q102-184 102-153Z"  horiz-adv-x="509" vert-adv-y="1000"  />

      
      <glyph glyph-name="uni0109" unicode="&#x0109;" d="M266 758L385 758L459 599L359 599L318 689L245 599L136 599L266 758M19 218Q19 284 39 342Q59 400 95 442Q131 484 183.50 508Q236 532 300 532Q397 532 451 479Q505 426 507 344L390 344Q385 390 360 414.50Q335 439 287 439Q233 439 196.50 401.50Q160 364 149 299Q143 267 140 245Q137 223 137 208Q137 148 167 114.50Q197 81 248 81Q294 81 321 105.50Q348 130 360 168L480 168Q470 132 450 99.50Q430 67 400.50 42Q371 17 332 2.50Q293-12 246-12Q142-12 80.50 50Q19 112 19 218Z"  horiz-adv-x="509" vert-adv-y="1000"  />

      
      <glyph glyph-name="uni010B" unicode="&#x010B;" d="M313 743Q344 743 365.50 721.50Q387 700 387 669Q387 638 365.50 616.50Q344 595 313 595Q282 595 260.50 616.50Q239 638 239 669Q239 700 260.50 721.50Q282 743 313 743M19 218Q19 284 39 342Q59 400 95 442Q131 484 183.50 508Q236 532 300 532Q397 532 451 479Q505 426 507 344L390 344Q385 390 360 414.50Q335 439 287 439Q233 439 196.50 401.50Q160 364 149 299Q143 267 140 245Q137 223 137 208Q137 148 167 114.50Q197 81 248 81Q294 81 321 105.50Q348 130 360 168L480 168Q470 132 450 99.50Q430 67 400.50 42Q371 17 332 2.50Q293-12 246-12Q142-12 80.50 50Q19 112 19 218Z"  horiz-adv-x="509" vert-adv-y="1000"  />

      
      <glyph glyph-name="unib8" unicode="&#xb8;" d="M69-153L134-153Q136-165 146.50-174.50Q157-184 179-184Q198-184 210.50-172.50Q223-161 223-143Q223-127 213-118Q203-109 186-109Q176-109 166.50-112.50Q157-116 152-121L114-94L185 8L247 8L205-53Q206-53 207.50-53Q209-53 210-53Q247-53 269.50-75.50Q292-98 292-138Q292-181 262-211.50Q232-242 178-242Q120-242 94.50-213Q69-184 69-153Z"  horiz-adv-x="500" vert-adv-y="1000"  />

      
      <glyph glyph-name="unia2" unicode="&#xa2;" d="M39 216Q39 279 57 334Q75 389 108 429.50Q141 470 189 495.50Q237 521 296 526L314 630L385 630L366 524Q445 513 488.50 462Q532 411 534 339L422 339Q418 376 400 400Q382 424 350 432L287 79Q329 83 355 107.50Q381 132 393 168L509 168Q499 132 478 99.50Q457 67 427 42Q397 17 357.50 2.50Q318-12 271-12L251-125L180-125L201-5Q126 13 82.50 70.50Q39 128 39 216M152 207Q152 162 169.50 131.50Q187 101 218 88L279 434Q235 425 205 389.50Q175 354 164 298Q157 261 154.50 240.50Q152 220 152 207Z"  horiz-adv-x="558" vert-adv-y="1000"  />

      
      <glyph glyph-name="uni25CB" unicode="&#x25CB;" d="M77 355Q77 430 103.50 496.50Q130 563 177 612Q224 661 290.50 689.50Q357 718 435 718Q513 718 579.50 689.50Q646 661 693.50 612Q741 563 767.50 496.50Q794 430 794 355Q794 280 767.50 213.50Q741 147 693.50 98Q646 49 579.50 20.50Q513-8 435-8Q357-8 290.50 20.50Q224 49 177 98Q130 147 103.50 213.50Q77 280 77 355M687 355Q687 411 668 460Q649 509 615.50 545.50Q582 582 535.50 603Q489 624 435 624Q380 624 333.50 603Q287 582 254 545.50Q221 509 202 460Q183 411 183 355Q183 299 202 250Q221 201 254 164.50Q287 128 333.50 107Q380 86 435 86Q489 86 535.50 107Q582 128 615.50 164.50Q649 201 668 250Q687 299 687 355Z"  horiz-adv-x="837" vert-adv-y="1000"  />

      
      <glyph glyph-name="uni02C6" unicode="&#x02C6;" d="M278 758L397 758L471 599L371 599L330 689L257 599L148 599L278 758Z"  horiz-adv-x="500" vert-adv-y="1000"  />

      
      <glyph glyph-name="uni3a" unicode="&#x3a;" d="M143 364Q110 364 86.50 388Q63 412 63 445Q63 479 86.50 502.50Q110 526 143 526Q177 526 201 502.50Q225 479 225 445Q225 412 201 388Q177 364 143 364M78-12Q45-12 21.50 12Q-2 36-2 69Q-2 103 21.50 126.50Q45 150 78 150Q112 150 136 126.50Q160 103 160 69Q160 36 136 12Q112-12 78-12Z"  horiz-adv-x="225" vert-adv-y="1000"  />

      
      <glyph glyph-name="uni20A1" unicode="&#x20A1;" d="M55 285Q55 370 76.50 446Q98 522 138 580Q178 638 235.50 675.50Q293 713 364 720L397 810L469 810L436 720Q450 719 463 716Q476 713 488 709L525 810L597 810L549 679Q589 651 612.50 607Q636 563 642 509L536 509Q533 527 527 544Q521 561 511 575L331 80Q387 83 422 115.50Q457 148 476 194L591 194Q557 104 490 46Q423-12 321-12Q315-12 309-12Q303-12 297-11L264-102L192-102L230 1Q217 5 204.50 10Q192 15 181 22L136-102L64-102L126 67Q92 105 73.50 160Q55 215 55 285M216 117Q226 108 237.50 101Q249 94 262 90L456 621Q445 625 432 628Q419 631 404 632L216 117M161 274Q161 252 164 231Q167 210 172 193L327 619Q272 597 231 539Q190 481 176 401Q167 353 164 324.50Q161 296 161 274Z"  horiz-adv-x="635" vert-adv-y="1000"  />

      
      <glyph glyph-name="uni2c" unicode="&#x2c;" d="M-42-115Q12-110 51-73.50Q90-37 96 10Q88 5 78.50 2.50Q69 0 61 0Q30 0 14 19Q-2 38-2 65Q-2 100 21.50 125.50Q45 151 80 151Q118 151 140.50 123.50Q163 96 163 48Q163 19 151-16Q139-51 113.50-82Q88-113 47.50-135Q7-157-49-160L-42-115Z"  horiz-adv-x="225" vert-adv-y="1000"  />

      
      <glyph glyph-name="uniF6C3" unicode="&#xF6C3;" d="M88-236Q126-234 154-219Q182-204 194-178Q189-180 183.50-181Q178-182 174-182Q147-182 132.50-166.50Q118-151 118-129Q118-101 138.50-79.50Q159-58 190-58Q221-58 239.50-76.50Q258-95 258-129Q258-189 208.50-232.50Q159-276 81-277L88-236Z"  horiz-adv-x="500" vert-adv-y="1000"  />

      
      <glyph glyph-name="unia9" unicode="&#xa9;" d="M43 355Q43 430 69.50 497Q96 564 143.50 613Q191 662 257.50 690.50Q324 719 402 719Q480 719 546.50 690.50Q613 662 660.50 613Q708 564 734.50 497Q761 430 761 355Q761 280 734.50 213Q708 146 660.50 97Q613 48 546.50 19.50Q480-9 402-9Q324-9 257.50 19.50Q191 48 143.50 97Q96 146 69.50 213Q43 280 43 355M708 355Q708 421 686 479.50Q664 538 624.50 581Q585 624 528 649Q471 674 402 674Q333 674 276.50 649Q220 624 180 581Q140 538 118 479.50Q96 421 96 355Q96 289 118 230.50Q140 172 180 129Q220 86 276.50 61Q333 36 402 36Q471 36 528 61Q585 86 624.50 129Q664 172 686 230.50Q708 289 708 355M221 355Q221 444 272.50 498Q324 552 407 552Q481 552 524.50 513Q568 474 578 414L488 414Q483 444 463.50 462.50Q444 481 408 481Q362 481 336 449.50Q310 418 310 366L310 343Q310 291 336 260Q362 229 408 229Q444 229 463.50 248Q483 267 488 295L578 295Q568 237 524.50 197.50Q481 158 407 158Q324 158 272.50 211.50Q221 265 221 355Z"  horiz-adv-x="772" vert-adv-y="1000"  />

      
      <glyph glyph-name="uni20A2" unicode="&#x20A2;" d="M57 285Q57 375 80.50 454.50Q104 534 146.50 593.50Q189 653 250.50 687.50Q312 722 387 722Q493 722 551.50 662.50Q610 603 620 509L505 509Q498 558 469 592Q440 626 379 626Q308 626 254 563.50Q200 501 184 400Q177 353 173.50 325Q170 297 170 276Q170 217 186 174Q202 131 232 108L285 405L385 405L372 333L376 333Q401 373 434 390Q467 407 500 407L543 407L526 310L488 310Q432 310 397.50 283.50Q363 257 349 200L328 84Q375 88 403.50 119.50Q432 151 448 194L569 194Q537 104 472.50 46Q408-12 311-12Q195-12 126 66Q57 144 57 285Z"  horiz-adv-x="615" vert-adv-y="1000"  />

      
      <glyph glyph-name="uni64" unicode="&#x64;" d="M354 64Q328 27 288.50 8.50Q249-10 206-10Q120-10 69 48.50Q18 107 18 209Q18 280 38 339.50Q58 399 92.50 441.50Q127 484 174 508Q221 532 274 532Q328 532 367.50 507Q407 482 422 446L426 446L478 740L596 740L466 0L348 0L359 64L354 64M133 204Q133 145 163.50 113Q194 81 248 81Q297 81 333.50 114Q370 147 385 210L399 287Q400 294 400.50 301.50Q401 309 401 315Q401 370 369 403.50Q337 437 282 437Q231 437 195 400Q159 363 146 294Q139 251 136 233Q133 215 133 204Z"  horiz-adv-x="561" vert-adv-y="1000"  />

      
      <glyph glyph-name="uni2020" unicode="&#x2020;" d="M83 579L211 579L234 710L327 710L304 579L431 579L418 498L290 498L231 161L137 161L197 498L69 498L83 579Z"  horiz-adv-x="404" vert-adv-y="1000"  />

      
      <glyph glyph-name="uni2021" unicode="&#x2021;" d="M33 293L47 373L175 373L197 499L69 499L83 578L211 578L234 710L327 710L304 578L432 578L418 499L290 499L268 373L396 373L382 293L253 293L230 161L138 161L161 293L33 293Z"  horiz-adv-x="404" vert-adv-y="1000"  />

      
      <glyph glyph-name="uni010F" unicode="&#x010F;" d="M354 64Q328 27 288.50 8.50Q249-10 206-10Q120-10 69 48.50Q18 107 18 209Q18 280 38 339.50Q58 399 92.50 441.50Q127 484 174 508Q221 532 274 532Q328 532 367.50 507Q407 482 422 446L426 446L478 740L596 740L466 0L348 0L359 64L354 64M673 740L801 740L732 572L629 572L673 740M133 204Q133 145 163.50 113Q194 81 248 81Q297 81 333.50 114Q370 147 385 210L399 287Q400 294 400.50 301.50Q401 309 401 315Q401 370 369 403.50Q337 437 282 437Q231 437 195 400Q159 363 146 294Q139 251 136 233Q133 215 133 204Z"  horiz-adv-x="561" vert-adv-y="1000"  />

      
      <glyph glyph-name="uni0111" unicode="&#x0111;" d="M354 64Q328 27 288.50 8.50Q249-10 206-10Q120-10 69 48.50Q18 107 18 209Q18 280 38 339.50Q58 399 92.50 441.50Q127 484 174 508Q221 532 274 532Q328 532 367.50 507Q407 482 422 446L426 446L451 587L312 587L324 658L464 658L478 740L596 740L582 658L652 658L640 587L569 587L466 0L348 0L359 64L354 64M133 204Q133 145 163.50 113Q194 81 248 81Q297 81 333.50 114Q370 147 385 210L399 287Q400 294 400.50 301.50Q401 309 401 315Q401 370 369 403.50Q337 437 282 437Q231 437 195 400Q159 363 146 294Q139 251 136 233Q133 215 133 204Z"  horiz-adv-x="560" vert-adv-y="1000"  />

      
      <glyph glyph-name="uni1E0D" unicode="&#x1E0D;" d="M354 64Q328 27 288.50 8.50Q249-10 206-10Q120-10 69 48.50Q18 107 18 209Q18 280 38 339.50Q58 399 92.50 441.50Q127 484 174 508Q221 532 274 532Q328 532 367.50 507Q407 482 422 446L426 446L478 740L596 740L466 0L348 0L359 64L354 64M133 204Q133 145 163.50 113Q194 81 248 81Q297 81 333.50 114Q370 147 385 210L399 287Q400 294 400.50 301.50Q401 309 401 315Q401 370 369 403.50Q337 437 282 437Q231 437 195 400Q159 363 146 294Q139 251 136 233Q133 215 133 204M234-63Q265-63 286.50-84.50Q308-106 308-137Q308-168 286.50-190Q265-212 234-212Q203-212 181.50-190Q160-168 160-137Q160-106 181.50-84.50Q203-63 234-63Z"  horiz-adv-x="561" vert-adv-y="1000"  />

      
      <glyph glyph-name="unib0" unicode="&#xb0;" d="M228 722Q294 722 334.50 680.50Q375 639 375 579Q375 519 334.50 477.50Q294 436 228 436Q162 436 121.50 477.50Q81 519 81 579Q81 639 121.50 680.50Q162 722 228 722M228 651Q195 651 177 629.50Q159 608 159 579Q159 549 177 527.50Q195 506 228 506Q261 506 279 527.50Q297 549 297 579Q297 608 279 629.50Q261 651 228 651Z"  horiz-adv-x="350" vert-adv-y="1000"  />

      
      <glyph glyph-name="unia8" unicode="&#xa8;" d="M154 668Q154 698 174 718Q194 738 224 738Q255 738 275 718Q295 698 295 668Q295 637 275 617Q255 597 224 597Q194 597 174 617Q154 637 154 668M348 668Q348 698 368 718Q388 738 418 738Q449 738 469 718Q489 698 489 668Q489 637 469 617Q449 597 418 597Q388 597 368 617Q348 637 348 668Z"  horiz-adv-x="500" vert-adv-y="1000"  />

      
      <glyph glyph-name="unif7" unicode="&#xf7;" d="M344 470Q311 470 287.50 494Q264 518 264 551Q264 585 287.50 608.50Q311 632 344 632Q378 632 402 608.50Q426 585 426 551Q426 518 402 494Q378 470 344 470M47 393L590 393L573 297L30 297L47 393M272 57Q239 57 215.50 81Q192 105 192 138Q192 172 215.50 195.50Q239 219 272 219Q306 219 330 195.50Q354 172 354 138Q354 105 330 81Q306 57 272 57Z"  horiz-adv-x="591" vert-adv-y="1000"  />

      
      <glyph glyph-name="uni24" unicode="&#x24;" d="M16 202L129 202Q133 161 154 131Q175 101 219 88L259 318L245 322Q170 342 127.50 384Q85 426 85 498Q85 537 101 576.50Q117 616 148.50 647.50Q180 679 226 699.50Q272 720 332 721L347 806L419 806L403 715Q445 707 477 689Q509 671 530 647Q551 623 563 594.50Q575 566 577 537L462 537Q456 569 438 591Q420 613 387 623L347 403L376 395Q457 372 495.50 326.50Q534 281 534 209Q534 163 516.50 122.50Q499 82 466.50 52.50Q434 23 386 6Q338-11 278-11Q277-11 275.50-11Q274-11 273-11L254-119L182-119L202-4Q154 5 119 25.50Q84 46 61.50 73.50Q39 101 28 134Q17 167 16 202M196 507Q196 470 216.50 452Q237 434 279 423L316 630Q265 626 230.50 595Q196 564 196 507M331 298L329 299L290 81Q353 83 387 113.50Q421 144 421 196Q421 242 400 263.50Q379 285 331 298Z"  horiz-adv-x="577" vert-adv-y="1000"  />

      
      <glyph glyph-name="uni20AB" unicode="&#x20AB;" d="M20 193Q20 259 40.50 314.50Q61 370 95.50 409.50Q130 449 177 471Q224 493 277 493Q334 493 371.50 469Q409 445 425 408L429 408L453 547L292 547L304 618L466 618L482 710L597 710L581 618L671 618L658 547L568 547L472 0L357 0L368 60L363 60Q337 26 296.50 8Q256-10 211-10Q124-10 72 43.50Q20 97 20 193M136 190Q136 139 167 109.50Q198 80 253 80Q306 80 344 113.50Q382 147 394 212L402 253L401 253Q403 263 404.50 271.50Q406 280 406 287Q406 338 374 368.50Q342 399 288 399Q234 399 197.50 366.50Q161 334 147 271Q141 239 138.50 220.50Q136 202 136 190M56-71L423-71L411-142L43-142L56-71Z"  horiz-adv-x="634" vert-adv-y="1000"  />

      
      <glyph glyph-name="uni02D9" unicode="&#x02D9;" d="M322 743Q353 743 374.50 721.50Q396 700 396 669Q396 638 374.50 616.50Q353 595 322 595Q291 595 269.50 616.50Q248 638 248 669Q248 700 269.50 721.50Q291 743 322 743Z"  horiz-adv-x="500" vert-adv-y="1000"  />

      
      <glyph glyph-name="uni0131" unicode="&#x0131;" d="M121 0L3 0L95 520L213 520L121 0Z"  horiz-adv-x="216" vert-adv-y="1000"  />

      
      <glyph glyph-name="uni0237" unicode="&#x0237;" d="M-91-79L-69-79Q-38-79-21.50-64Q-5-49 0-19L95 520L213 520L116-27Q105-95 58.50-132.50Q12-170-62-170L-107-170L-91-79Z"  horiz-adv-x="216" vert-adv-y="1000"  />

      
      <glyph glyph-name="uni65" unicode="&#x65;" d="M18 213Q18 275 37 333Q56 391 92 435Q128 479 180.50 505.50Q233 532 300 532Q403 532 459.50 471.50Q516 411 516 315Q516 297 513.50 275Q511 253 506 232L136 232Q135 223 134.50 216.50Q134 210 134 204Q134 145 164.50 112.50Q195 80 252 80Q292 80 323.50 99.50Q355 119 368 154L488 154Q477 121 454.50 90.50Q432 60 400.50 37.50Q369 15 330 1.50Q291-12 247-12Q140-12 79 48.50Q18 109 18 213M293 440Q242 440 204.50 406.50Q167 373 151 313L402 313L402 316Q402 372 376 406Q350 440 293 440Z"  horiz-adv-x="528" vert-adv-y="1000"  />

      
      <glyph glyph-name="unie9" unicode="&#xe9;" d="M352 751L496 751L358 598L243 598L352 751M18 213Q18 275 37 333Q56 391 92 435Q128 479 180.50 505.50Q233 532 300 532Q403 532 459.50 471.50Q516 411 516 315Q516 297 513.50 275Q511 253 506 232L136 232Q135 223 134.50 216.50Q134 210 134 204Q134 145 164.50 112.50Q195 80 252 80Q292 80 323.50 99.50Q355 119 368 154L488 154Q477 121 454.50 90.50Q432 60 400.50 37.50Q369 15 330 1.50Q291-12 247-12Q140-12 79 48.50Q18 109 18 213M293 440Q242 440 204.50 406.50Q167 373 151 313L402 313L402 316Q402 372 376 406Q350 440 293 440Z"  horiz-adv-x="528" vert-adv-y="1000"  />

      
      <glyph glyph-name="uni0115" unicode="&#x0115;" d="M184 755L274 755Q270 716 283 696Q296 676 327 676Q350 676 369 695.50Q388 715 392 755L487 755Q477 681 431.50 638.50Q386 596 322 596Q250 596 213 639.50Q176 683 184 755M18 213Q18 275 37 333Q56 391 92 435Q128 479 180.50 505.50Q233 532 300 532Q403 532 459.50 471.50Q516 411 516 315Q516 297 513.50 275Q511 253 506 232L136 232Q135 223 134.50 216.50Q134 210 134 204Q134 145 164.50 112.50Q195 80 252 80Q292 80 323.50 99.50Q355 119 368 154L488 154Q477 121 454.50 90.50Q432 60 400.50 37.50Q369 15 330 1.50Q291-12 247-12Q140-12 79 48.50Q18 109 18 213M293 440Q242 440 204.50 406.50Q167 373 151 313L402 313L402 316Q402 372 376 406Q350 440 293 440Z"  horiz-adv-x="528" vert-adv-y="1000"  />

      
      <glyph glyph-name="uni011B" unicode="&#x011B;" d="M176 757L277 757L318 666L390 757L499 757L369 598L250 598L176 757M18 213Q18 275 37 333Q56 391 92 435Q128 479 180.50 505.50Q233 532 300 532Q403 532 459.50 471.50Q516 411 516 315Q516 297 513.50 275Q511 253 506 232L136 232Q135 223 134.50 216.50Q134 210 134 204Q134 145 164.50 112.50Q195 80 252 80Q292 80 323.50 99.50Q355 119 368 154L488 154Q477 121 454.50 90.50Q432 60 400.50 37.50Q369 15 330 1.50Q291-12 247-12Q140-12 79 48.50Q18 109 18 213M293 440Q242 440 204.50 406.50Q167 373 151 313L402 313L402 316Q402 372 376 406Q350 440 293 440Z"  horiz-adv-x="528" vert-adv-y="1000"  />

      
      </font>
</defs>
</svg>
