<?xml version="1.0" encoding="utf-8"?>
<!-- Generator: Adobe Illustrator 22.1.0, SVG Export Plug-In . SVG Version: 6.00 Build 0)  -->
<svg version="1.1" id="svg4408" xmlns="http://www.w3.org/2000/svg" xmlns:xlink="http://www.w3.org/1999/xlink" x="0px" y="0px"
	 viewBox="0 0 19 32" style="enable-background:new 0 0 19 32;" xml:space="preserve">
<style type="text/css">
	.st0{fill:#ff5227;}
	.st1{fill:#FFFFFF;}
	.st2{opacity:0.15;fill:#ff5227;enable-background:new    ;}
</style>
<title>Artboard 1</title>
<g id="layer1">
	<path id="path3032-5" class="st0" d="M19,9.5C19,14.7,9.5,32,9.5,32S0,14.7,0,9.5S4.3,0,9.5,0S19,4.2,19,9.5z"/>
	<g id="g3828">
		<path id="path3035" class="st1" d="M16.8,9.3c0,4-3.3,7.3-7.3,7.3s-7.3-3.3-7.3-7.3S5.5,2,9.5,2S16.8,5.3,16.8,9.3z"/>
		<path id="path3058" class="st0" d="M15.3,9.3c0,3.2-2.6,5.8-5.8,5.8s-5.8-2.6-5.8-5.8s2.6-5.8,5.8-5.8S15.3,6.1,15.3,9.3z"/>
	</g>
	<path id="path3286" class="st2" d="M9.5,0v32c0,0,9.5-17.3,9.5-22.5S14.7,0,9.5,0z"/>
</g>
</svg>
