<?xml version="1.0" encoding="utf-8"?>
<!-- Generator: Adobe Illustrator 22.1.0, SVG Export Plug-In . SVG Version: 6.00 Build 0)  -->
<svg version="1.1" id="svg4408" xmlns="http://www.w3.org/2000/svg" xmlns:xlink="http://www.w3.org/1999/xlink" x="0px" y="0px"
	 viewBox="0 0 14 24" style="enable-background:new 0 0 14 24;" xml:space="preserve">
<style type="text/css">
	.st0{fill:#ff5227;}
	.st1{fill:#FFFFFF;}
	.st2{opacity:0.15;fill:#ff5227;enable-background:new    ;}
</style>
<title>Artboard 1</title>
<g id="layer1">
	<path id="path3032-5" class="st0" d="M14,7.1C14,11,7,24,7,24S0,11,0,7.1S3.1,0,7,0S14,3.2,14,7.1z"/>
	<g id="g3828">
		<path id="path3035" class="st1" d="M12.4,7c0,3-2.4,5.5-5.4,5.5S1.6,10,1.6,7S4,1.5,7,1.5S12.4,4,12.4,7z"/>
		<path id="path3058" class="st0" d="M11.3,7c0,2.4-1.9,4.3-4.3,4.3S2.7,9.4,2.7,7S4.6,2.6,7,2.6S11.3,4.6,11.3,7z"/>
	</g>
	<path id="path3286" class="st2" d="M7,0v24c0,0,7-13,7-16.9S10.9,0,7,0z"/>
</g>
</svg>
