<svg width="191" height="137" viewBox="0 0 191 137" xmlns="http://www.w3.org/2000/svg"><title>add-idea</title><g fill="none" fill-rule="evenodd"><path d="M121 62c0 13.254-10.97 24-24.5 24C82.968 86 72 75.254 72 62c0-13.256 10.968-24 24.5-24 13.53 0 24.5 10.744 24.5 24" fill="#FFF"/><path d="M113 100.88c0 .066-.628.12-1.4.12H79.4c-.774 0-1.4-.054-1.4-.12v-2.76c0-.066.626-.12 1.4-.12h32.2c.772 0 1.4.054 1.4.12v2.76" fill="#CCC2BF"/><path d="M96.5 33c-.83 0-1.5-.736-1.5-1.644v-5.71c0-.907.67-1.646 1.5-1.646.828 0 1.5.74 1.5 1.647v5.71c0 .907-.672 1.643-1.5 1.643M96.5 99c-.83 0-1.5-.737-1.5-1.646v-5.708c0-.91.67-1.646 1.5-1.646.828 0 1.5.737 1.5 1.646v5.708c0 .91-.672 1.646-1.5 1.646M125 61.5c0-.83.736-1.5 1.646-1.5h5.708c.91 0 1.646.67 1.646 1.5 0 .828-.737 1.5-1.646 1.5h-5.708c-.91 0-1.646-.672-1.646-1.5M58 61.5c0-.83.737-1.5 1.646-1.5h5.708c.91 0 1.646.67 1.646 1.5 0 .828-.737 1.5-1.646 1.5h-5.708c-.91 0-1.646-.672-1.646-1.5M117.46 40.54c-.614-.615-.614-1.61 0-2.224l3.856-3.855c.614-.614 1.61-.614 2.223 0 .614.615.614 1.61 0 2.224l-3.856 3.855c-.614.614-1.61.614-2.223 0M68.46 88.54c-.614-.615-.614-1.61 0-2.224l3.856-3.855c.615-.614 1.61-.614 2.224 0 .613.615.613 1.61 0 2.224l-3.855 3.855c-.616.614-1.612.614-2.224 0M117.46 82.46c.615-.614 1.61-.614 2.224 0l3.855 3.856c.614.614.614 1.61 0 2.223-.615.614-1.61.614-2.224 0l-3.855-3.856c-.614-.614-.614-1.61 0-2.223M68.46 34.46c.613-.614 1.61-.614 2.225 0l3.855 3.856c.613.614.613 1.61 0 2.223-.614.614-1.61.614-2.224 0l-3.855-3.857c-.614-.613-.614-1.608 0-2.222" fill="#FFF"/><path d="M98 87.27V67.73c0-.954-.672-1.73-1.5-1.73s-1.5.776-1.5 1.73v19.54c0 .954.672 1.73 1.5 1.73s1.5-.776 1.5-1.73" fill="#736D6C"/><path d="M103.18 60.454L97 66.258l-6.18-5.804c-.646-.605-1.69-.605-2.336 0-.645.606-.645 1.586 0 2.192l7.35 6.9c.306.29.73.454 1.165.454.435 0 .86-.165 1.167-.455l7.35-6.9c.644-.605.644-1.585 0-2.19-.646-.606-1.69-.606-2.336 0M111 111.76c0 .686-.537 1.24-1.2 1.24H82.2c-.662 0-1.2-.554-1.2-1.24V83.24c0-.684.538-1.24 1.2-1.24h27.6c.663 0 1.2.556 1.2 1.24v28.52" fill="#736D6C"/><path d="M65 60h-5.218c-.984 0-1.782.672-1.782 1.5 0 .83.798 1.5 1.782 1.5H65v-3" fill="#FFF"/></g></svg>