<svg width="191" height="137" viewBox="0 0 191 137" xmlns="http://www.w3.org/2000/svg"><title>latest-ideas</title><g fill="none" fill-rule="evenodd"><path d="M127.06 115.073V102.51s6.554-9.093 9.106-12.722c1.297-1.845 1.047-3.827-.51-4.77-1.574-.953-3.62-.435-5.03 1.3l-3.565 4.472V69.787c0-1.513-1.228-2.74-2.744-2.74-1.516 0-2.745 1.227-2.745 2.74v13.538c0 .527-.428.954-.956.954s-.956-.428-.956-.955v-16.58c0-1.518-1.23-2.745-2.746-2.745-1.515 0-2.744 1.227-2.744 2.74v16.585c-.017.527-.445.954-.973.954-.5 0-.898-.39-.94-.878V68.188c0-1.517-1.23-2.743-2.746-2.743-1.517 0-2.746 1.226-2.746 2.738v15.142c-.007.527-.435.954-.963.954-.516 0-.93-.412-.948-.923V73.123c0-1.518-1.23-2.744-2.746-2.744s-2.746 1.225-2.746 2.738v41.955h27.7z" fill="#FADAC1"/><path fill="#AFB1A2" d="M128.314 108.327h-29.92V117h29.92"/><path d="M63.94 116.036V102.51s-6.554-9.093-9.106-12.722c-1.297-1.845-1.047-3.827.51-4.77 1.574-.953 3.62-.435 5.03 1.3l3.565 4.472V69.787c0-1.513 1.228-2.74 2.744-2.74 1.516 0 2.745 1.227 2.745 2.74v13.538c0 .527.427.954.956.954.528 0 .956-.428.956-.955v-16.58c0-1.518 1.23-2.745 2.746-2.745 1.515 0 2.744 1.227 2.744 2.74v16.585c.017.527.445.954.973.954.5 0 .898-.39.94-.878V68.188c0-1.517 1.23-2.743 2.746-2.743 1.517 0 2.746 1.226 2.746 2.738v15.142c.007.527.435.954.963.954.516 0 .93-.412.948-.923V73.123c0-1.518 1.23-2.744 2.746-2.744s2.746 1.225 2.746 2.738v42.918h-27.7z" fill="#FADAC1"/><path fill="#AFB1A2" d="M91.64 108.327H61.72V117h29.92"/><g><path d="M112.985 34.01c.295.365.587.772.882 1.225 1.79 2.753 1.79 7.744-2.437 12.05l-1.503 1.314c-4.59 3.446-12.51 4.896-26.765 1.354-.872-15.234 1.875-23.107 5.932-27.218l1.503-1.315c4.804-3.59 9.52-2.72 11.815-.408.374.38.71.754 1.004 1.118 2.357 2.927 2.203 5.457 1.552 8.766 3.243-.09 5.658.185 8.017 3.113" fill="#E46759"/><path d="M113.862 35.048c-.297-.457-.59-.868-.888-1.24-2.368-2.956-4.795-3.238-8.05-3.147L83 49.933c14.324 3.58 22.285 2.115 26.9-1.37l1.51-1.33c4.253-4.353 4.248-9.4 2.452-12.184" fill="#D70826"/></g></g></svg>