<svg width="44" height="44" viewBox="0 0 44 44" fill="none" xmlns="http://www.w3.org/2000/svg">
<path fill-rule="evenodd" clip-rule="evenodd" d="M22 44C34.1503 44 44 34.1503 44 22C44 9.84974 34.1503 0 22 0C9.84974 0 0 9.84974 0 22C0 34.1503 9.84974 44 22 44Z" fill="#F5F5F5"/>
<path fill-rule="evenodd" clip-rule="evenodd" d="M17.179 16.708C16.249 16.708 15.5 15.9508 15.5 15.029C15.5 14.0989 16.249 13.35 17.179 13.35C18.1091 13.35 18.858 14.1072 18.858 15.029C18.8663 15.9508 18.1091 16.708 17.179 16.708ZM18.6358 27.3088H15.7305V17.9837H18.6358V27.3088ZM26.5946 27.3088H29.4917H29.5V22.1977C29.5 19.6874 28.9568 17.7533 26.0185 17.7533C24.6111 17.7533 23.6646 18.5269 23.2778 19.2594H23.2366V17.9837H20.4547V27.3088H23.3518V22.6915C23.3518 21.4734 23.5823 20.2965 25.0885 20.2965C26.5782 20.2965 26.5946 21.6957 26.5946 22.7738V27.3088Z" fill="#212129"/>
</svg>
