<svg width="44" height="44" viewBox="0 0 44 44" fill="none" xmlns="http://www.w3.org/2000/svg">
<path fill-rule="evenodd" clip-rule="evenodd" d="M22 44C34.1503 44 44 34.1503 44 22C44 9.84974 34.1503 0 22 0C9.84974 0 0 9.84974 0 22C0 34.1503 9.84974 44 22 44Z" fill="#F5F5F5"/>
<path d="M18.88 30.2037C25.94 30.2037 29.8 24.3537 29.8 19.2837C29.8 19.1137 29.8 18.9537 29.79 18.7837C30.54 18.2437 31.19 17.5637 31.7 16.7937C31.01 17.1037 30.27 17.3037 29.5 17.3937C30.2981 16.9112 30.8975 16.1593 31.19 15.2737C30.45 15.7237 29.63 16.0437 28.75 16.2137C27.5598 14.9445 25.665 14.6339 24.1318 15.4568C22.5987 16.2796 21.8102 18.0303 22.21 19.7237C19.1239 19.5611 16.2505 18.1008 14.3 15.7037C13.2833 17.4602 13.8038 19.7042 15.49 20.8337C14.86 20.8137 14.27 20.6437 13.75 20.3537V20.4037C13.75 22.2637 15.07 23.8137 16.83 24.1637C16.2668 24.3223 15.6742 24.3463 15.1 24.2337C15.6058 25.7976 17.0468 26.8693 18.69 26.9037C17.3295 27.9709 15.6491 28.5486 13.92 28.5437C13.61 28.5437 13.3 28.5237 13 28.4937C14.7561 29.6144 16.7968 30.2079 18.88 30.2037Z" fill="#212129"/>
</svg>
