<svg width="44" height="44" viewBox="0 0 44 44" fill="none" xmlns="http://www.w3.org/2000/svg">
<path fill-rule="evenodd" clip-rule="evenodd" d="M22 44C34.1503 44 44 34.1503 44 22C44 9.84974 34.1503 0 22 0C9.84974 0 0 9.84974 0 22C0 34.1503 9.84974 44 22 44Z" fill="#F5F5F5"/>
<path fill-rule="evenodd" clip-rule="evenodd" d="M19.5715 18.4822L26 22.5001L19.5715 26.5179V18.4822ZM31.6776 29.5821C31.6251 29.8286 31.4086 30 31.1515 30H12.2761C12.0201 30 11.8047 29.8307 11.7522 29.5875C11.2486 27.2389 10.9958 24.8325 11.0001 22.4346C11.0043 20.0818 11.2572 17.7204 11.7511 15.4179C11.8036 15.1714 12.0201 15 12.2772 15H31.1526C31.4086 15 31.624 15.1693 31.6765 15.4125C32.1801 17.7611 32.4329 20.1675 32.4286 22.5654C32.4243 24.9182 32.1715 27.2796 31.6776 29.5821Z" fill="#212129"/>
</svg>
