<svg width="30" height="30" viewBox="0 0 30 30" fill="none" xmlns="http://www.w3.org/2000/svg">
    <path fill-rule="evenodd" clip-rule="evenodd" d="M29.9962 28.7998C29.9962 29.462 29.4571 29.9999 28.7957 29.9999H1.20049C0.539106 29.9999 0 29.462 0 28.7998V1.20016C0 0.537958 0.535336 0 1.20049 0H28.7994C29.4608 0 29.9999 0.537958 29.9999 1.20016V28.7998H29.9962ZM15.0001 5.24833C14.7368 5.24833 14.4697 5.25948 14.21 5.27849V5.96315H14.259C17.9157 5.98938 20.8578 8.82242 20.8314 12.2913C20.8088 15.7449 17.8444 18.5252 14.21 18.5216V24.7178C14.4697 24.7404 14.7329 24.7479 15.0001 24.7479C20.2972 24.7479 24.5937 20.3838 24.5937 14.9963C24.5937 9.61248 20.2972 5.24833 15.0001 5.24833ZM11.6027 24.1233C7.9798 22.7278 5.40656 19.1723 5.40656 15C5.40656 10.8278 7.9798 7.27252 11.6027 5.87665V24.1233Z" fill="#DC192D"/>
</svg>
