<svg viewBox="0 0 56 56" fill="none" xmlns="http://www.w3.org/2000/svg">
    <path d="M55 28C55 42.9117 42.9117 55 28 55C13.0883 55 1 42.9117 1 28C1 13.0883 13.0883 1 28 1C42.9117 1 55 13.0883 55 28Z" stroke="#1064A3" stroke-width="2"/>
        <mask id="mask0" mask-type="alpha" maskUnits="userSpaceOnUse" x="0" y="0" width="56" height="56">
            <path d="M55 28C55 42.9117 42.9117 55 28 55C13.0883 55 1 42.9117 1 28C1 13.0883 13.0883 1 28 1C42.9117 1 55 13.0883 55 28Z" stroke="white" stroke-width="2"/>
        </mask>
        <g mask="url(#mask0)"></g>
        <path fill-rule="evenodd" clip-rule="evenodd" d="M38 31.244C38 31.655 37.666 31.99 37.254 31.99H36V26.99H37.264C37.67 26.99 38 27.32 38 27.726V31.244ZM28.786 24.374C27.313 23.557 26.988 21.837 26.986 21.826C26.91 21.369 26.531 21.024 26.069 20.992C26.045 20.991 26.022 20.99 26 20.99C25.565 20.99 25.177 21.272 25.045 21.692C24.361 23.883 22.186 23.985 22.009 23.99C22.178 20.656 24.801 18 28 18C31.239 18 33.886 20.723 33.997 24.114C31.782 24.976 30.029 25.065 28.786 24.374ZM20 31.99H18.746C18.334 31.99 18 31.66 18 31.254V27.726C18 27.32 18.334 26.99 18.746 26.99H20V31.99ZM37.264 24.99H36V24.334C36 19.738 32.411 16 28 16C23.589 16 20 19.738 20 24.334V24.99H18.746C17.231 24.99 16 26.218 16 27.726V31.254C16 32.763 17.231 33.99 18.746 33.99H20.397C21.032 35.98 22.676 37.287 25.101 37.723C25.43 39.024 26.598 39.99 28 39.99C29.519 39.99 30.761 38.857 30.959 37.393C30.986 37.263 31 37.128 31 36.99C31 36.852 30.986 36.718 30.959 36.587C30.761 35.123 29.519 33.99 28 33.99C26.721 33.99 25.637 34.794 25.206 35.922C23.705 35.612 22 34.805 22 32.994V32.99V25.99C22.952 25.99 24.647 25.584 25.855 24.244C26.274 24.909 26.89 25.602 27.787 26.106C28.646 26.591 29.629 26.832 30.73 26.832C31.724 26.832 32.82 26.623 34 26.229V31.99C34 33.21 33.63 34.42 32.66 35.181C32.83 35.61 32.94 36.06 32.97 36.53C32.99 36.681 33 36.83 33 36.99C33 37.15 32.99 37.31 32.97 37.471C34.467 36.877 35.401 35.71 35.786 33.99H37.254C38.769 33.99 40 32.759 40 31.244V27.726C40 26.218 38.773 24.99 37.264 24.99Z" fill="#1064A3"/>
</svg>