<svg xmlns="http://www.w3.org/2000/svg" id="app-access-management" viewBox="0 0 56 56" fill="none">
  <path
    d="M55 28C55 42.9117 42.9117 55 28 55C13.0883 55 1 42.9117 1 28C1 13.0883 13.0883 1 28 1C42.9117 1 55 13.0883 55 28Z"
    stroke="#1064A3" stroke-width="2"></path>

  <g id="surface1" transform="translate(8,9) scale(0.9)">
    <path fill="transparent" stroke="#1064A3" stroke-width="170"
      d="M 3510 3110 L 3512 1570 L 3384.8 1443.2 C 3315.2 1372 3254 1315.2 3251.2 1315.2 C 3247.2 1315.2 3194 1362 3132.8 1420 C 3072 1478 3019.2 1524.8 3014 1524.8 C 3008.8 1524.8 2955.2 1478 2892.8 1420 C 2831.2 1362 2779.2 1315.2 2776 1315.2 C 2772.8 1315.2 2719.2 1363.2 2656 1423.2 C 2592 1482 2536 1532 2530 1534 C 2524.8 1536 2488 1506 2448 1468.8 C 2408.8 1431.2 2356 1380 2330 1356 L 2283.2 1312 L 2164 1423.2 L 2044.8 1534 L 1928 1423.2 L 1811.2 1312 L 1784 1336 C 1768.8 1348.8 1712.8 1402 1658 1454 L 1559.2 1547.2 L 1472.8 1463.2 C 1426 1416.8 1370 1364 1350 1346 L 1312.8 1312 L 1183.2 1436 L 1052 1559.2 L 1052 4644.8 L 1670 4648 C 2008.8 4648.8 2562 4650 2896.8 4650 L 3507.2 4650 Z M 3510 3110 "
      transform="matrix(0.00976562,0,0,-0.00976562,0,50)" />
    <path fill="#1064A3" stroke="none"
      d="M 15.429688 10.839844 L 15.429688 12.109375 L 28.515625 12.109375 L 28.515625 9.570312 L 15.429688 9.570312 Z M 15.429688 10.839844 " />
    <path fill="#1064A3" stroke="none"
      d="M 15.507812 15.546875 C 15.476562 16.132812 15.46875 16.152344 15.148438 16.257812 C 14.6875 16.414062 14.09375 16.933594 13.859375 17.402344 C 13.742188 17.625 13.625 18.066406 13.601562 18.378906 C 13.507812 19.414062 13.945312 20.097656 15.046875 20.65625 L 15.527344 20.90625 L 15.507812 22.636719 L 15.476562 24.367188 L 15.234375 24.335938 C 15.097656 24.316406 14.707031 24.148438 14.367188 23.953125 L 13.730469 23.613281 L 13.5625 23.835938 C 13.476562 23.953125 13.328125 24.179688 13.242188 24.328125 L 13.085938 24.589844 L 13.640625 24.941406 C 14.121094 25.242188 14.539062 25.410156 15.410156 25.644531 C 15.488281 25.664062 15.527344 25.878906 15.527344 26.269531 L 15.527344 26.855469 L 16.699219 26.855469 L 16.699219 26.21875 C 16.699219 25.617188 16.710938 25.578125 16.972656 25.488281 C 17.5 25.292969 17.734375 25.136719 18.183594 24.695312 C 18.554688 24.328125 18.679688 24.101562 18.859375 23.535156 C 19.289062 22.101562 18.671875 20.839844 17.265625 20.292969 L 16.699219 20.070312 L 16.699219 18.730469 C 16.699219 17.1875 16.710938 17.179688 17.414062 17.714844 L 17.851562 18.046875 L 18.25 17.636719 C 18.46875 17.414062 18.652344 17.195312 18.652344 17.167969 C 18.652344 17.023438 17.546875 16.328125 17.140625 16.210938 L 16.699219 16.085938 L 16.699219 14.941406 L 15.539062 14.941406 Z M 15.527344 18.457031 C 15.527344 19.199219 15.5 19.433594 15.398438 19.433594 C 15.214844 19.433594 14.875 19.042969 14.796875 18.742188 C 14.6875 18.320312 15.125 17.480469 15.449219 17.480469 C 15.488281 17.480469 15.527344 17.921875 15.527344 18.457031 Z M 17.101562 21.53125 C 17.695312 21.84375 17.9375 22.65625 17.636719 23.367188 C 17.507812 23.679688 16.972656 24.21875 16.789062 24.21875 C 16.738281 24.21875 16.699219 23.601562 16.699219 22.804688 C 16.699219 22.023438 16.71875 21.386719 16.75 21.386719 C 16.789062 21.386719 16.933594 21.453125 17.101562 21.53125 Z M 17.101562 21.53125 " />
    <path fill="#1064A3" stroke="none"
      d="M 21.972656 18.796875 L 21.972656 20.019531 L 30.859375 20.019531 L 30.859375 17.578125 L 21.972656 17.578125 Z M 21.972656 18.796875 " />
    <path fill="#1064A3" stroke="none"
      d="M 21.972656 24.023438 L 21.972656 25.292969 L 30.859375 25.292969 L 30.859375 22.753906 L 21.972656 22.753906 Z M 21.972656 24.023438 " />
  </g>
</svg>