<svg viewBox="0 0 95 95" fill="none" xmlns="http://www.w3.org/2000/svg">
    <mask id="mask0" mask-type="alpha" maskUnits="userSpaceOnUse" x="0" y="0" width="95" height="95">
            <path d="M92 0H3C1.34315 0 0 1.34315 0 3V92C0 93.6569 1.34315 95 3 95H92C93.6569 95 95 93.6569 95 92V3C95 1.34315 93.6569 0 92 0Z" fill="white"/>
        </mask>
        <g mask="url(#mask0)">
            <path d="M92 0H3C1.34315 0 0 1.34315 0 3V92C0 93.6569 1.34315 95 3 95H92C93.6569 95 95 93.6569 95 92V3C95 1.34315 93.6569 0 92 0Z" fill="#1064A3"/>
            <path fill-rule="evenodd" clip-rule="evenodd" d="M7.125 42.0947H87.875L59.1172 94.9999H24.9515L7.125 42.0947Z" fill="#807370"/>
            <path fill-rule="evenodd" clip-rule="evenodd" d="M52.1992 15.7913C49.2538 13.5289 45.3888 13.928 42.8398 15.8801C41.0827 17.226 7.125 42.0948 7.125 42.0948H87.875C87.875 42.0948 54.49 17.5505 52.1992 15.7913Z" fill="#807370"/>
            <path fill-rule="evenodd" clip-rule="evenodd" d="M15.4785 23.3433C15.4785 21.4052 16.9988 19.8193 18.8567 19.8193H76.1434C78.0013 19.8193 79.5216 21.4052 79.5216 23.3433V74.7695C79.5216 76.7076 78.0013 78.2935 76.1434 78.2935H18.8567C16.9988 78.2935 15.4785 76.7076 15.4785 74.7695V23.3433Z" fill="#F9F8F7"/>
            <path fill-rule="evenodd" clip-rule="evenodd" d="M49.7629 38.5838C49.3687 38.5119 48.8789 38.4408 48.242 38.4408C45.0045 38.4408 42.4535 40.7694 42.4535 43.529C42.4535 44.8903 43.2861 45.7502 44.9053 45.7502C46.7211 45.7502 48.6344 44.066 49.0747 41.9878L49.7629 38.5838ZM52.8956 55.198C50.3006 56.3319 48.053 56.7111 44.9824 56.7111C37.8024 56.7111 31.4893 51.7114 31.4893 43.4791C31.4893 34.9109 37.8883 27.4766 47.6641 27.4766C55.2744 27.4766 60.7238 32.559 60.7238 39.6148C60.7238 45.7469 57.1768 49.612 52.5067 49.612C50.4747 49.612 49.005 48.6032 48.7871 46.3772H48.7004C47.3603 48.5191 45.4142 49.612 43.1222 49.612C40.3108 49.612 38.2788 47.5953 38.2788 44.1511C38.2788 39.027 42.1718 34.3648 48.3982 34.3648C50.3006 34.3648 52.4638 34.8267 53.5454 35.4153L52.2475 43.1849C51.8156 45.6635 52.1178 46.7974 53.3291 46.8398C55.1885 46.8816 57.5243 44.5713 57.5243 39.7407C57.5243 34.2806 53.8906 30.0386 47.187 30.0386C40.57 30.0386 34.7755 35.0785 34.7755 43.1014C34.7755 50.1156 39.4033 54.1058 45.8461 54.1058C48.053 54.1058 50.3888 53.6439 52.1178 52.7618L52.8956 55.198Z" fill="#009ED9"/>
            <path fill-rule="evenodd" clip-rule="evenodd" d="M7.95593 94.9999L43.3233 71.0971L7.125 42.0947V93.1679C7.12714 93.9058 7.45449 94.5601 7.95593 94.9999Z" fill="#CDC4C2"/>
            <path fill-rule="evenodd" clip-rule="evenodd" d="M51.6768 70.9796L87.1167 94.9999C87.5781 94.5583 87.875 93.9264 87.875 93.2193V42.0947L51.6768 70.9796Z" fill="#CDC4C2"/>
            <path fill-rule="evenodd" clip-rule="evenodd" d="M87.875 94.3548C82.7727 90.242 54.4016 67.3814 52.2774 65.8474C49.2749 63.6804 45.3351 64.0627 42.7374 65.9325C41.1071 67.1062 12.296 90.2142 7.125 94.3628C7.5536 94.7536 8.11805 94.9987 8.74049 95.0004L86.3584 94.9891C86.9422 94.9613 87.4708 94.7275 87.875 94.3548Z" fill="#DCD2CC"/>
        </g>
</svg>