<svg width="56" height="56" viewBox="0 0 56 56" id="app-voi" fill="none" xmlns="http://www.w3.org/2000/svg">
<path d="M55 28C55 42.9117 42.9117 55 28 55C13.0883 55 1 42.9117 1 28C1 13.0883 13.0883 1 28 1C42.9117 1 55 13.0883 55 28Z" stroke="#1064A3" stroke-width="2"/>
<mask id="mask0_3999_180490" style="mask-type:alpha" maskUnits="userSpaceOnUse" x="0" y="0" width="56" height="56">
<path d="M55 28C55 42.9117 42.9117 55 28 55C13.0883 55 1 42.9117 1 28C1 13.0883 13.0883 1 28 1C42.9117 1 55 13.0883 55 28Z" stroke="white" stroke-width="2"/>
</mask>
<g mask="url(#mask0_3999_180490)">
</g>
<path fill-rule="evenodd" clip-rule="evenodd" d="M37.0556 27.415L38.576 28.9261L39.9998 27.5121L28.7113 16.2932C28.3178 15.9023 27.6809 15.9023 27.2885 16.2932L16 27.5121L17.4228 28.9261L18.9441 27.4141V37.5C18.9441 38.878 20.0721 40 21.4596 40H24.9813H31.0185H34.5401C35.9277 40 37.0556 38.878 37.0556 37.5V27.415ZM35.0432 25.4148L27.9999 18.4142L20.9565 25.4142V37.5C20.9565 37.776 21.1819 38 21.4596 38H24.9813V32.0001H31.0185V38H34.5401C34.8168 38 35.0432 37.776 35.0432 37.5V25.4148ZM26.9937 34.0001V38H29.0061V34.0001H26.9937Z" fill="#1064A3"/>
</svg>
