<svg width="56" height="56" viewBox="0 0 56 56" fill="none" xmlns="http://www.w3.org/2000/svg">
	<circle cx="28" cy="28" r="27" stroke="#1064A3" stroke-width="2"/>
	<path fill-rule="evenodd" clip-rule="evenodd" d="M16.726 17.2832L17.7184 20.8919L20.729 33.3497C20.9699 34.3465 21.8621 35.0487 22.8876 35.0487H34.1591C35.1781 35.0487 36.0663 34.3552 36.3135 33.3666L39.7791 19.5039H19.6398L18.8672 16.6944C18.6021 15.7305 17.7257 15.0625 16.726 15.0625H13.1309V17.2832H16.726ZM22.8876 32.828L20.2043 21.7246H36.9349L34.1591 32.828H22.8876ZM24.2343 41.7108C25.4608 41.7108 26.455 40.7165 26.455 39.4901C26.455 38.2636 25.4608 37.2694 24.2343 37.2694C23.0079 37.2694 22.0136 38.2636 22.0136 39.4901C22.0136 40.7165 23.0079 41.7108 24.2343 41.7108ZM35.3378 39.4901C35.3378 40.7165 34.3435 41.7108 33.1171 41.7108C31.8906 41.7108 30.8964 40.7165 30.8964 39.4901C30.8964 38.2636 31.8906 37.2694 33.1171 37.2694C34.3435 37.2694 35.3378 38.2636 35.3378 39.4901Z" fill="#1064A3"/>
</svg>
