<svg viewBox="0 0 56 56" fill="none" xmlns="http://www.w3.org/2000/svg">
    <path d="M55 28C55 42.9117 42.9117 55 28 55C13.0883 55 1 42.9117 1 28C1 13.0883 13.0883 1 28 1C42.9117 1 55 13.0883 55 28Z" stroke="#1064A3" stroke-width="2"/>
        <mask id="mask0" mask-type="alpha" maskUnits="userSpaceOnUse" x="0" y="0" width="56" height="56">
            <path d="M55.5 28C55.5 43.1878 43.1878 55.5 28 55.5C12.8122 55.5 0.5 43.1878 0.5 28C0.5 12.8122 12.8122 0.5 28 0.5C43.1878 0.5 55.5 12.8122 55.5 28Z" stroke="white"/>
        </mask>
        <g mask="url(#mask0)"></g>
        <path fill-rule="evenodd" clip-rule="evenodd" d="M22 20.9999C22 23.4888 23.3914 26 26.5 26C28.7399 26 31 24.4539 31 20.9999C31 18.5112 29.6086 16 26.5 16C24.2601 16 22 17.5461 22 20.9999ZM34 40C30.1341 40 27 36.8668 27 33C27 29.1332 30.1341 26 34 26C37.8659 26 41 29.1332 41 33C41 36.8668 37.8659 40 34 40ZM34 38C36.7573 38 39 35.7573 39 33C39 30.2427 36.7573 28 34 28C31.2427 28 29 30.2427 29 33C29 35.7573 31.2427 38 34 38ZM33 33.5858L36.2929 30.2929L37.7071 31.7071L33.7071 35.7071C33.3166 36.0976 32.6834 36.0976 32.2929 35.7071L30.2929 33.7071L31.7071 32.2929L33 33.5858ZM17 35.939H24.6416C24.3995 35.3159 24.2213 34.6609 24.1149 33.982H19.142C19.33 32.631 19.906 31.479 20.817 30.635C21.5312 29.9742 22.8232 29.5428 24.5267 29.3728C24.7884 28.622 25.1415 27.9141 25.5729 27.2625C23.74 27.3305 21.0152 27.7104 19.364 29.238C17.839 30.648 17 32.68 17 34.961V35.939ZM26.5 18C24.9814 18 24 19.1775 24 20.9999C24 22.8225 24.9814 24 26.5 24C28.0187 24 29 22.8225 29 20.9999C29 19.1775 28.0187 18 26.5 18Z" fill="#1064A3"/>
</svg>