<svg width="56" height="56" viewBox="0 0 56 56" fill="none" xmlns="http://www.w3.org/2000/svg">
<path fill-rule="evenodd" clip-rule="evenodd" d="M2 28C2 13.6406 13.6406 2 28 2C42.3594 2 54 13.6406 54 28C54 42.3594 42.3594 54 28 54C13.6406 54 2 42.3594 2 28ZM28 0C12.536 0 0 12.536 0 28C0 43.464 12.536 56 28 56C43.464 56 56 43.464 56 28C56 12.536 43.464 0 28 0ZM15 14C14.4477 14 14 14.4477 14 15V19C14 19.5523 14.4477 20 15 20C15.5523 20 16 19.5523 16 19V16H19C19.5523 16 20 15.5523 20 15C20 14.4477 19.5523 14 19 14H15ZM16 36C16 35.4477 15.5523 35 15 35C14.4477 35 14 35.4477 14 36V40C14 40.5523 14.4477 41 15 41H19C19.5523 41 20 40.5523 20 40C20 39.4477 19.5523 39 19 39H16V36ZM35 15C35 14.4477 35.4477 14 36 14H40C40.5523 14 41 14.4477 41 15V19C41 19.5523 40.5523 20 40 20C39.4477 20 39 19.5523 39 19V16H36C35.4477 16 35 15.5523 35 15ZM23 21.9999C23 24.4888 24.3914 27 27.5 27C29.7399 27 32 25.4539 32 21.9999C32 19.5112 30.6086 17 27.5 17C25.2601 17 23 18.5461 23 21.9999ZM35 41C31.1341 41 28 37.8668 28 34C28 30.1332 31.1341 27 35 27C38.8659 27 42 30.1332 42 34C42 35.9511 41.202 37.7155 39.9148 38.9847L44.0328 44.2572L42.4566 45.4882L38.3047 40.1725C37.3204 40.7005 36.1952 41 35 41ZM35 39C37.7573 39 40 36.7573 40 34C40 31.2427 37.7573 29 35 29C32.2427 29 30 31.2427 30 34C30 36.7573 32.2427 39 35 39ZM34 34.5858L37.2929 31.2929L38.7071 32.7071L34.7071 36.7071C34.3166 37.0976 33.6834 37.0976 33.2929 36.7071L31.2929 34.7071L32.7071 33.2929L34 34.5858ZM18 36.939H25.6416C25.3995 36.3159 25.2213 35.6609 25.1149 34.982H20.142C20.33 33.631 20.906 32.479 21.817 31.635C22.5312 30.9742 23.8232 30.5428 25.5267 30.3728C25.7884 29.622 26.1415 28.9141 26.5729 28.2625C24.74 28.3305 22.0152 28.7104 20.364 30.238C18.839 31.648 18 33.68 18 35.961V36.939ZM27.5 19C25.9814 19 25 20.1775 25 21.9999C25 23.8225 25.9814 25 27.5 25C29.0187 25 30 23.8225 30 21.9999C30 20.1775 29.0187 19 27.5 19Z" fill="#1064A3"/>
</svg>
