<svg width="56" height="56" viewBox="0 0 56 56" fill="none" xmlns="http://www.w3.org/2000/svg">
<circle cx="28" cy="28" r="27" stroke="#1064A3" stroke-width="2"/>
<path fill-rule="evenodd" clip-rule="evenodd" d="M18.5644 16H33.5492L38 20.58V40H18.5644V38.24L20.5079 36.24V38H36.0564V22H32.1693V18H20.5079V19.94C19.7985 20.3 19.1474 20.76 18.5644 21.3V16ZM31.1976 28C31.1976 31.859 28.1462 35 24.3952 35C22.8695 35 21.4643 34.475 20.3292 33.599L15.3741 38.697L14 37.283L18.9551 32.185C18.1038 31.016 17.5927 29.569 17.5927 28C17.5927 24.141 20.6441 21 24.3952 21C28.1462 21 31.1976 24.141 31.1976 28ZM24.3952 23C27.0744 23 29.2541 25.243 29.2541 28C29.2541 30.757 27.0744 33 24.3952 33C21.7159 33 19.5362 30.757 19.5362 28C19.5362 25.243 21.7159 23 24.3952 23ZM24.4748 30.707C24.2853 30.902 24.0366 31 23.7878 31C23.539 31 23.2902 30.902 23.1007 30.707L20.9871 28.532L22.3612 27.118L23.7878 28.586L26.6234 25.668L27.9975 27.082L24.4748 30.707Z" fill="#1064A3"/>
</svg>
