<svg viewBox="0 0 10 6" fill="none" xmlns="http://www.w3.org/2000/svg">
    <path d="M5.59749 5.76004C5.43266 5.92111 5.21654 6.00082 4.99958 5.99999C4.78346 6.00082 4.5665 5.92111 4.40167 5.76004L4.10482 5.46914C4.09894 5.46421 4.09725 5.456 4.09137 5.45024L0.246605 1.69321C-0.0822016 1.37191 -0.0822016 0.851742 0.246605 0.53126L0.542614 0.240361C0.871421 -0.0801204 1.40457 -0.0801204 1.73254 0.240361L4.99958 3.43285L8.26746 0.240361C8.59543 -0.0801204 9.12774 -0.0801204 9.45654 0.240361L9.7534 0.53126C10.0822 0.851742 10.0822 1.37191 9.7534 1.69321L5.90779 5.45024C5.9019 5.45682 5.90022 5.46421 5.89518 5.46914L5.59749 5.76004Z" fill="#8A939D"/>
</svg>