<svg viewBox="0 0 16 16" fill="none" xmlns="http://www.w3.org/2000/svg">
    <path opacity="0.8" fill-rule="evenodd" clip-rule="evenodd" d="M8 16C3.58172 16 0 12.4183 0 8C0 3.58172 3.58172 0 8 0C12.4183 0 16 3.58172 16 8C16 12.4183 12.4183 16 8 16ZM8 12.6667C8.55229 12.6667 9 12.219 9 11.6667C9 11.1144 8.55229 10.6667 8 10.6667C7.44772 10.6667 7 11.1144 7 11.6667C7 12.219 7.44772 12.6667 8 12.6667ZM5.33333 6.66667H6.66667C6.66667 5.93094 7.30001 5.33333 8 5.33333C8.77316 5.33333 9.33333 5.83127 9.33333 6.66667C9.33333 7.15215 8.98896 7.55255 8.15596 7.89797C7.65799 8.10443 7.33333 8.5905 7.33333 9.12961V10H8.66667L8.66664 9.12963C9.95192 8.59666 10.6667 7.76564 10.6667 6.66667C10.6667 5.05762 9.47684 4 8 4C6.58039 4 5.33333 5.17669 5.33333 6.66667Z" fill="#535F67"/>
</svg>