<svg viewBox="0 0 109 112" fill="none" xmlns="http://www.w3.org/2000/svg">
    <path fill-rule="evenodd" clip-rule="evenodd" d="M65.6012 9.10623L73.2177 3C73.2177 3 80.8355 6.53463 86.23 20.0355L86.2458 20.1387C86.7855 21.6693 90.6674 32.1078 94.7995 28.0718C94.7995 28.0718 98.2918 24.5359 95.7526 18.1068C95.7526 18.1068 102.417 27.1075 99.8794 35.1424C99.8794 35.1424 105.591 35.4638 105.91 25.5002C105.91 25.5002 118.277 54.5882 93.5305 70.1778V70.1792C93.5305 70.1792 73.344 83.6338 57.0303 72.7494L51 44.7859L65.6012 9.10623Z" fill="#FC622E"/>
	<path fill-rule="evenodd" clip-rule="evenodd" d="M48 35L32 36.0009L37.6222 48.3127L46.2697 53L48 35Z" fill="#F3C8AA"/>
	<path fill-rule="evenodd" clip-rule="evenodd" d="M82.6082 18.5684L89 45.6334L84.2065 45.6534L85.1639 66.0968H66.6282C66.6282 66.0968 62.537 66.0968 62.4102 71.1143V76H44V20.4177C44 20.4177 49.6253 0.74447 63.688 2.06348C63.688 2.06348 78.9016 4.04599 82.6082 18.5684Z" fill="#F3C8AA"/>
	<path fill-rule="evenodd" clip-rule="evenodd" d="M80.3082 33C79.9257 33 79.6164 33.3702 79.6164 33.8238C79.6164 35.2168 78.6683 36.3524 77.4981 36.3524C76.3342 36.3524 75.3798 35.2168 75.3798 33.8238C75.3798 33.3702 75.0743 33 74.6931 33C74.3068 33 74 33.3702 74 33.8238C74 36.1269 75.5717 38 77.4981 38C79.4296 38 81 36.1269 81 33.8238C81 33.3702 80.6894 33 80.3082 33Z" fill="#190B12"/>
	<path fill-rule="evenodd" clip-rule="evenodd" d="M84.8344 53H78C79.6178 55.4149 82.1181 57 84.9576 57L85 56.9926L84.8344 53Z" fill="white"/>
	<path fill-rule="evenodd" clip-rule="evenodd" d="M74.8348 13.0272C74.8348 13.0272 73.7988 35.2923 51.0299 45.225C51.0299 45.225 47.5797 33.2365 39.6461 39.4026C39.6461 39.4026 33.243 45.5688 43.9384 49.3367L43.8876 74C43.8876 74 9.97408 39.745 38.2652 9.25932C38.2652 9.25932 57.2404 -7.86683 74.8348 4.46415C74.8348 4.46415 75.2065 11.038 74.8348 13.0272Z" fill="#FC622E"/>
	<path fill-rule="evenodd" clip-rule="evenodd" d="M15 103.128V84.161C15 76 21.4986 76 21.4986 76L43.9821 76.0747L55.8535 85.0832L62.2015 76.0747L84.5014 76C84.5014 76 91 76 91 84.161V110H21.8884C18.1608 110 15.1004 106.87 15 103.128Z" fill="#5044DE"/>
	<path fill-rule="evenodd" clip-rule="evenodd" d="M62 76H44V110H62V76Z" fill="white"/>
	<path fill-rule="evenodd" clip-rule="evenodd" d="M33.7746 98C47.5817 98 58.7746 86.8071 58.7746 73C58.7746 59.1929 47.5817 48 33.7746 48C19.9675 48 8.7746 59.1929 8.7746 73C8.7746 79.521 11.2713 85.459 15.361 89.9099L0.891689 106.082C-0.397223 107.522 -0.274298 109.735 1.16625 111.024C2.6068 112.313 4.81947 112.19 6.10838 110.749L20.774 94.358C24.562 96.6687 29.0128 98 33.7746 98Z" fill="#429DD4"/>
	<ellipse cx="33.7747" cy="73" rx="17.25" ry="17.5" fill="white"/>
</svg>