<svg xmlns="http://www.w3.org/2000/svg">
    <symbol id="ap-logo" viewBox="0 0 30 30" fill="none">
        <path fill-rule="evenodd" clip-rule="evenodd" d="M29.9962 28.7998C29.9962 29.462 29.4571 29.9999 28.7957 29.9999H1.20049C0.539106 29.9999 0 29.462 0 28.7998V1.20016C0 0.537958 0.535336 0 1.20049 0H28.7994C29.4608 0 29.9999 0.537958 29.9999 1.20016V28.7998H29.9962ZM15.0001 5.24833C14.7368 5.24833 14.4697 5.25948 14.21 5.27849V5.96315H14.259C17.9157 5.98938 20.8578 8.82242 20.8314 12.2913C20.8088 15.7449 17.8444 18.5252 14.21 18.5216V24.7178C14.4697 24.7404 14.7329 24.7479 15.0001 24.7479C20.2972 24.7479 24.5937 20.3838 24.5937 14.9963C24.5937 9.61248 20.2972 5.24833 15.0001 5.24833ZM11.6027 24.1233C7.9798 22.7278 5.40656 19.1723 5.40656 15C5.40656 10.8278 7.9798 7.27252 11.6027 5.87665V24.1233Z" fill="#DC192D"/>
    </symbol>

    <symbol id="chevron-down" viewBox="0 0 10 6" fill="none">
        <path d="M5.59749 5.76004C5.43266 5.92111 5.21654 6.00082 4.99958 5.99999C4.78346 6.00082 4.5665 5.92111 4.40167 5.76004L4.10482 5.46914C4.09894 5.46421 4.09725 5.456 4.09137 5.45024L0.246605 1.69321C-0.0822016 1.37191 -0.0822016 0.851742 0.246605 0.53126L0.542614 0.240361C0.871421 -0.0801204 1.40457 -0.0801204 1.73254 0.240361L4.99958 3.43285L8.26746 0.240361C8.59543 -0.0801204 9.12774 -0.0801204 9.45654 0.240361L9.7534 0.53126C10.0822 0.851742 10.0822 1.37191 9.7534 1.69321L5.90779 5.45024C5.9019 5.45682 5.90022 5.46421 5.89518 5.46914L5.59749 5.76004Z" fill="#8A939D"/>
    </symbol>

    <symbol id="help-circle" viewBox="0 0 16 16" fill="none" xmlns="http://www.w3.org/2000/svg">
        <path opacity="0.8" fill-rule="evenodd" clip-rule="evenodd" d="M8 16C3.58172 16 0 12.4183 0 8C0 3.58172 3.58172 0 8 0C12.4183 0 16 3.58172 16 8C16 12.4183 12.4183 16 8 16ZM8 12.6667C8.55229 12.6667 9 12.219 9 11.6667C9 11.1144 8.55229 10.6667 8 10.6667C7.44772 10.6667 7 11.1144 7 11.6667C7 12.219 7.44772 12.6667 8 12.6667ZM5.33333 6.66667H6.66667C6.66667 5.93094 7.30001 5.33333 8 5.33333C8.77316 5.33333 9.33333 5.83127 9.33333 6.66667C9.33333 7.15215 8.98896 7.55255 8.15596 7.89797C7.65799 8.10443 7.33333 8.5905 7.33333 9.12961V10H8.66667L8.66664 9.12963C9.95192 8.59666 10.6667 7.76564 10.6667 6.66667C10.6667 5.05762 9.47684 4 8 4C6.58039 4 5.33333 5.17669 5.33333 6.66667Z" fill="#535F67"/>
    </symbol>

    <symbol id="app-access-management" viewBox="0 0 56 56" fill="none">
        <path d="M55 28C55 42.9117 42.9117 55 28 55C13.0883 55 1 42.9117 1 28C1 13.0883 13.0883 1 28 1C42.9117 1 55 13.0883 55 28Z" stroke="#1064A3" stroke-width="2"/>
        <mask id="mask0" mask-type="alpha" maskUnits="userSpaceOnUse" x="0" y="0" width="56" height="56">
            <path d="M55.5 28C55.5 43.1878 43.1878 55.5 28 55.5C12.8122 55.5 0.5 43.1878 0.5 28C0.5 12.8122 12.8122 0.5 28 0.5C43.1878 0.5 55.5 12.8122 55.5 28Z" stroke="white"/>
        </mask>
        <g mask="url(#mask0)"></g>
        <path fill-rule="evenodd" clip-rule="evenodd" d="M22 20.9999C22 23.4888 23.3914 26 26.5 26C28.7399 26 31 24.4539 31 20.9999C31 18.5112 29.6086 16 26.5 16C24.2601 16 22 17.5461 22 20.9999ZM34 40C30.1341 40 27 36.8668 27 33C27 29.1332 30.1341 26 34 26C37.8659 26 41 29.1332 41 33C41 36.8668 37.8659 40 34 40ZM34 38C36.7573 38 39 35.7573 39 33C39 30.2427 36.7573 28 34 28C31.2427 28 29 30.2427 29 33C29 35.7573 31.2427 38 34 38ZM33 33.5858L36.2929 30.2929L37.7071 31.7071L33.7071 35.7071C33.3166 36.0976 32.6834 36.0976 32.2929 35.7071L30.2929 33.7071L31.7071 32.2929L33 33.5858ZM17 35.939H24.6416C24.3995 35.3159 24.2213 34.6609 24.1149 33.982H19.142C19.33 32.631 19.906 31.479 20.817 30.635C21.5312 29.9742 22.8232 29.5428 24.5267 29.3728C24.7884 28.622 25.1415 27.9141 25.5729 27.2625C23.74 27.3305 21.0152 27.7104 19.364 29.238C17.839 30.648 17 32.68 17 34.961V35.939ZM26.5 18C24.9814 18 24 19.1775 24 20.9999C24 22.8225 24.9814 24 26.5 24C28.0187 24 29 22.8225 29 20.9999C29 19.1775 28.0187 18 26.5 18Z" fill="#1064A3"/>
    </symbol>

    <symbol id="app-parcel-send" viewBox="0 0 56 56" fill="none">
        <path d="M55 28C55 42.9117 42.9117 55 28 55C13.0883 55 1 42.9117 1 28C1 13.0883 13.0883 1 28 1C42.9117 1 55 13.0883 55 28Z" stroke="#1064A3" stroke-width="2"/>
        <mask id="mask0" mask-type="alpha" maskUnits="userSpaceOnUse" x="0" y="0" width="56" height="56">
            <path d="M55 28C55 42.9117 42.9117 55 28 55C13.0883 55 1 42.9117 1 28C1 13.0883 13.0883 1 28 1C42.9117 1 55 13.0883 55 28Z" stroke="white" stroke-width="2"/>
        </mask>
        <g mask="url(#mask0)"></g>
        <path fill-rule="evenodd" clip-rule="evenodd" d="M39.9963 17H31.9975H23.9988H16V39H39.9963V17ZM23.9988 23.875V18.925H17.8664V37.075H38.1299V18.925H31.9975V23.875H23.9988ZM30.1311 21.95H25.8651V18.925H30.1311V21.95ZM19.9961 35H25.9902V33H19.9961V35ZM27.9883 32H19.9961V30H27.9883V32Z" fill="#1064A3"/>
    </symbol>

    <symbol id="app-bsp" viewBox="0 0 56 56" fill="none">
        <path d="M55 28C55 42.9117 42.9117 55 28 55C13.0883 55 1 42.9117 1 28C1 13.0883 13.0883 1 28 1C42.9117 1 55 13.0883 55 28Z" stroke="#1064A3" stroke-width="2"/>
        <mask id="mask0" mask-type="alpha" maskUnits="userSpaceOnUse" x="0" y="0" width="56" height="56">
            <path d="M55 28C55 42.9117 42.9117 55 28 55C13.0883 55 1 42.9117 1 28C1 13.0883 13.0883 1 28 1C42.9117 1 55 13.0883 55 28Z" stroke="white" stroke-width="2"/>
        </mask>
        <g mask="url(#mask0)"></g>
        <path fill-rule="evenodd" clip-rule="evenodd" d="M38 31.244C38 31.655 37.666 31.99 37.254 31.99H36V26.99H37.264C37.67 26.99 38 27.32 38 27.726V31.244ZM28.786 24.374C27.313 23.557 26.988 21.837 26.986 21.826C26.91 21.369 26.531 21.024 26.069 20.992C26.045 20.991 26.022 20.99 26 20.99C25.565 20.99 25.177 21.272 25.045 21.692C24.361 23.883 22.186 23.985 22.009 23.99C22.178 20.656 24.801 18 28 18C31.239 18 33.886 20.723 33.997 24.114C31.782 24.976 30.029 25.065 28.786 24.374ZM20 31.99H18.746C18.334 31.99 18 31.66 18 31.254V27.726C18 27.32 18.334 26.99 18.746 26.99H20V31.99ZM37.264 24.99H36V24.334C36 19.738 32.411 16 28 16C23.589 16 20 19.738 20 24.334V24.99H18.746C17.231 24.99 16 26.218 16 27.726V31.254C16 32.763 17.231 33.99 18.746 33.99H20.397C21.032 35.98 22.676 37.287 25.101 37.723C25.43 39.024 26.598 39.99 28 39.99C29.519 39.99 30.761 38.857 30.959 37.393C30.986 37.263 31 37.128 31 36.99C31 36.852 30.986 36.718 30.959 36.587C30.761 35.123 29.519 33.99 28 33.99C26.721 33.99 25.637 34.794 25.206 35.922C23.705 35.612 22 34.805 22 32.994V32.99V25.99C22.952 25.99 24.647 25.584 25.855 24.244C26.274 24.909 26.89 25.602 27.787 26.106C28.646 26.591 29.629 26.832 30.73 26.832C31.724 26.832 32.82 26.623 34 26.229V31.99C34 33.21 33.63 34.42 32.66 35.181C32.83 35.61 32.94 36.06 32.97 36.53C32.99 36.681 33 36.83 33 36.99C33 37.15 32.99 37.31 32.97 37.471C34.467 36.877 35.401 35.71 35.786 33.99H37.254C38.769 33.99 40 32.759 40 31.244V27.726C40 26.218 38.773 24.99 37.264 24.99Z" fill="#1064A3"/>
    </symbol>

    <symbol width="56" height="56" viewBox="0 0 56 56" id="app-voi" fill="none" xmlns="http://www.w3.org/2000/svg">
        <path d="M55 28C55 42.9117 42.9117 55 28 55C13.0883 55 1 42.9117 1 28C1 13.0883 13.0883 1 28 1C42.9117 1 55 13.0883 55 28Z" stroke="#1064A3" stroke-width="2"/>
        <mask id="mask0_3999_180490" style="mask-type:alpha" maskUnits="userSpaceOnUse" x="0" y="0" width="56" height="56">
            <path d="M55 28C55 42.9117 42.9117 55 28 55C13.0883 55 1 42.9117 1 28C1 13.0883 13.0883 1 28 1C42.9117 1 55 13.0883 55 28Z" stroke="white" stroke-width="2"/>
        </mask>
        <g mask="url(#mask0_3999_180490)">
        </g>
        <path fill-rule="evenodd" clip-rule="evenodd" d="M37.0556 27.415L38.576 28.9261L39.9998 27.5121L28.7113 16.2932C28.3178 15.9023 27.6809 15.9023 27.2885 16.2932L16 27.5121L17.4228 28.9261L18.9441 27.4141V37.5C18.9441 38.878 20.0721 40 21.4596 40H24.9813H31.0185H34.5401C35.9277 40 37.0556 38.878 37.0556 37.5V27.415ZM35.0432 25.4148L27.9999 18.4142L20.9565 25.4142V37.5C20.9565 37.776 21.1819 38 21.4596 38H24.9813V32.0001H31.0185V38H34.5401C34.8168 38 35.0432 37.776 35.0432 37.5V25.4148ZM26.9937 34.0001V38H29.0061V34.0001H26.9937Z" fill="#1064A3"/>
    </symbol>


    <symbol id="app-registration-success" viewBox="0 0 95 95" fill="none">

        <mask id="mask0" mask-type="alpha" maskUnits="userSpaceOnUse" x="0" y="0" width="95" height="95">
            <path d="M92 0H3C1.34315 0 0 1.34315 0 3V92C0 93.6569 1.34315 95 3 95H92C93.6569 95 95 93.6569 95 92V3C95 1.34315 93.6569 0 92 0Z" fill="white"/>
        </mask>
        <g mask="url(#mask0)">
            <path d="M92 0H3C1.34315 0 0 1.34315 0 3V92C0 93.6569 1.34315 95 3 95H92C93.6569 95 95 93.6569 95 92V3C95 1.34315 93.6569 0 92 0Z" fill="#1064A3"/>
            <path fill-rule="evenodd" clip-rule="evenodd" d="M7.125 42.0947H87.875L59.1172 94.9999H24.9515L7.125 42.0947Z" fill="#807370"/>
            <path fill-rule="evenodd" clip-rule="evenodd" d="M52.1992 15.7913C49.2538 13.5289 45.3888 13.928 42.8398 15.8801C41.0827 17.226 7.125 42.0948 7.125 42.0948H87.875C87.875 42.0948 54.49 17.5505 52.1992 15.7913Z" fill="#807370"/>
            <path fill-rule="evenodd" clip-rule="evenodd" d="M15.4785 23.3433C15.4785 21.4052 16.9988 19.8193 18.8567 19.8193H76.1434C78.0013 19.8193 79.5216 21.4052 79.5216 23.3433V74.7695C79.5216 76.7076 78.0013 78.2935 76.1434 78.2935H18.8567C16.9988 78.2935 15.4785 76.7076 15.4785 74.7695V23.3433Z" fill="#F9F8F7"/>
            <path fill-rule="evenodd" clip-rule="evenodd" d="M49.7629 38.5838C49.3687 38.5119 48.8789 38.4408 48.242 38.4408C45.0045 38.4408 42.4535 40.7694 42.4535 43.529C42.4535 44.8903 43.2861 45.7502 44.9053 45.7502C46.7211 45.7502 48.6344 44.066 49.0747 41.9878L49.7629 38.5838ZM52.8956 55.198C50.3006 56.3319 48.053 56.7111 44.9824 56.7111C37.8024 56.7111 31.4893 51.7114 31.4893 43.4791C31.4893 34.9109 37.8883 27.4766 47.6641 27.4766C55.2744 27.4766 60.7238 32.559 60.7238 39.6148C60.7238 45.7469 57.1768 49.612 52.5067 49.612C50.4747 49.612 49.005 48.6032 48.7871 46.3772H48.7004C47.3603 48.5191 45.4142 49.612 43.1222 49.612C40.3108 49.612 38.2788 47.5953 38.2788 44.1511C38.2788 39.027 42.1718 34.3648 48.3982 34.3648C50.3006 34.3648 52.4638 34.8267 53.5454 35.4153L52.2475 43.1849C51.8156 45.6635 52.1178 46.7974 53.3291 46.8398C55.1885 46.8816 57.5243 44.5713 57.5243 39.7407C57.5243 34.2806 53.8906 30.0386 47.187 30.0386C40.57 30.0386 34.7755 35.0785 34.7755 43.1014C34.7755 50.1156 39.4033 54.1058 45.8461 54.1058C48.053 54.1058 50.3888 53.6439 52.1178 52.7618L52.8956 55.198Z" fill="#009ED9"/>
            <path fill-rule="evenodd" clip-rule="evenodd" d="M7.95593 94.9999L43.3233 71.0971L7.125 42.0947V93.1679C7.12714 93.9058 7.45449 94.5601 7.95593 94.9999Z" fill="#CDC4C2"/>
            <path fill-rule="evenodd" clip-rule="evenodd" d="M51.6768 70.9796L87.1167 94.9999C87.5781 94.5583 87.875 93.9264 87.875 93.2193V42.0947L51.6768 70.9796Z" fill="#CDC4C2"/>
            <path fill-rule="evenodd" clip-rule="evenodd" d="M87.875 94.3548C82.7727 90.242 54.4016 67.3814 52.2774 65.8474C49.2749 63.6804 45.3351 64.0627 42.7374 65.9325C41.1071 67.1062 12.296 90.2142 7.125 94.3628C7.5536 94.7536 8.11805 94.9987 8.74049 95.0004L86.3584 94.9891C86.9422 94.9613 87.4708 94.7275 87.875 94.3548Z" fill="#DCD2CC"/>
        </g>

    </symbol>

    <symbol id="no-search-result" viewBox="0 0 109 112" fill="none">
        <path fill-rule="evenodd" clip-rule="evenodd" d="M65.6012 9.10623L73.2177 3C73.2177 3 80.8355 6.53463 86.23 20.0355L86.2458 20.1387C86.7855 21.6693 90.6674 32.1078 94.7995 28.0718C94.7995 28.0718 98.2918 24.5359 95.7526 18.1068C95.7526 18.1068 102.417 27.1075 99.8794 35.1424C99.8794 35.1424 105.591 35.4638 105.91 25.5002C105.91 25.5002 118.277 54.5882 93.5305 70.1778V70.1792C93.5305 70.1792 73.344 83.6338 57.0303 72.7494L51 44.7859L65.6012 9.10623Z" fill="#FC622E"/>
        <path fill-rule="evenodd" clip-rule="evenodd" d="M48 35L32 36.0009L37.6222 48.3127L46.2697 53L48 35Z" fill="#F3C8AA"/>
        <path fill-rule="evenodd" clip-rule="evenodd" d="M82.6082 18.5684L89 45.6334L84.2065 45.6534L85.1639 66.0968H66.6282C66.6282 66.0968 62.537 66.0968 62.4102 71.1143V76H44V20.4177C44 20.4177 49.6253 0.74447 63.688 2.06348C63.688 2.06348 78.9016 4.04599 82.6082 18.5684Z" fill="#F3C8AA"/>
        <path fill-rule="evenodd" clip-rule="evenodd" d="M80.3082 33C79.9257 33 79.6164 33.3702 79.6164 33.8238C79.6164 35.2168 78.6683 36.3524 77.4981 36.3524C76.3342 36.3524 75.3798 35.2168 75.3798 33.8238C75.3798 33.3702 75.0743 33 74.6931 33C74.3068 33 74 33.3702 74 33.8238C74 36.1269 75.5717 38 77.4981 38C79.4296 38 81 36.1269 81 33.8238C81 33.3702 80.6894 33 80.3082 33Z" fill="#190B12"/>
        <path fill-rule="evenodd" clip-rule="evenodd" d="M84.8344 53H78C79.6178 55.4149 82.1181 57 84.9576 57L85 56.9926L84.8344 53Z" fill="white"/>
        <path fill-rule="evenodd" clip-rule="evenodd" d="M74.8348 13.0272C74.8348 13.0272 73.7988 35.2923 51.0299 45.225C51.0299 45.225 47.5797 33.2365 39.6461 39.4026C39.6461 39.4026 33.243 45.5688 43.9384 49.3367L43.8876 74C43.8876 74 9.97408 39.745 38.2652 9.25932C38.2652 9.25932 57.2404 -7.86683 74.8348 4.46415C74.8348 4.46415 75.2065 11.038 74.8348 13.0272Z" fill="#FC622E"/>
        <path fill-rule="evenodd" clip-rule="evenodd" d="M15 103.128V84.161C15 76 21.4986 76 21.4986 76L43.9821 76.0747L55.8535 85.0832L62.2015 76.0747L84.5014 76C84.5014 76 91 76 91 84.161V110H21.8884C18.1608 110 15.1004 106.87 15 103.128Z" fill="#5044DE"/>
        <path fill-rule="evenodd" clip-rule="evenodd" d="M62 76H44V110H62V76Z" fill="white"/>
        <path fill-rule="evenodd" clip-rule="evenodd" d="M33.7746 98C47.5817 98 58.7746 86.8071 58.7746 73C58.7746 59.1929 47.5817 48 33.7746 48C19.9675 48 8.7746 59.1929 8.7746 73C8.7746 79.521 11.2713 85.459 15.361 89.9099L0.891689 106.082C-0.397223 107.522 -0.274298 109.735 1.16625 111.024C2.6068 112.313 4.81947 112.19 6.10838 110.749L20.774 94.358C24.562 96.6687 29.0128 98 33.7746 98Z" fill="#429DD4"/>
        <ellipse cx="33.7747" cy="73" rx="17.25" ry="17.5" fill="white"/>
    </symbol>

    <symbol id="app-mba" viewBox="0 0 56 56" fill="none">
        <path d="M55 28C55 42.9117 42.9117 55 28 55C13.0883 55 1 42.9117 1 28C1 13.0883 13.0883 1 28 1C42.9117 1 55 13.0883 55 28Z" stroke="#1064A3" stroke-width="2"></path>
        <g id="surface1" transform="translate(8,9) scale(0.9)">
            <path fill="transparent" stroke="#1064A3" stroke-width="170" d="M 3510 3110 L 3512 1570 L 3384.8 1443.2 C 3315.2 1372 3254 1315.2 3251.2 1315.2 C 3247.2 1315.2 3194 1362 3132.8 1420 C 3072 1478 3019.2 1524.8 3014 1524.8 C 3008.8 1524.8 2955.2 1478 2892.8 1420 C 2831.2 1362 2779.2 1315.2 2776 1315.2 C 2772.8 1315.2 2719.2 1363.2 2656 1423.2 C 2592 1482 2536 1532 2530 1534 C 2524.8 1536 2488 1506 2448 1468.8 C 2408.8 1431.2 2356 1380 2330 1356 L 2283.2 1312 L 2164 1423.2 L 2044.8 1534 L 1928 1423.2 L 1811.2 1312 L 1784 1336 C 1768.8 1348.8 1712.8 1402 1658 1454 L 1559.2 1547.2 L 1472.8 1463.2 C 1426 1416.8 1370 1364 1350 1346 L 1312.8 1312 L 1183.2 1436 L 1052 1559.2 L 1052 4644.8 L 1670 4648 C 2008.8 4648.8 2562 4650 2896.8 4650 L 3507.2 4650 Z M 3510 3110 " transform="matrix(0.00976562,0,0,-0.00976562,0,50)" />
            <path fill="#1064A3" stroke="none" d="M 15.429688 10.839844 L 15.429688 12.109375 L 28.515625 12.109375 L 28.515625 9.570312 L 15.429688 9.570312 Z M 15.429688 10.839844 " />
            <path fill="#1064A3" stroke="none" d="M 15.507812 15.546875 C 15.476562 16.132812 15.46875 16.152344 15.148438 16.257812 C 14.6875 16.414062 14.09375 16.933594 13.859375 17.402344 C 13.742188 17.625 13.625 18.066406 13.601562 18.378906 C 13.507812 19.414062 13.945312 20.097656 15.046875 20.65625 L 15.527344 20.90625 L 15.507812 22.636719 L 15.476562 24.367188 L 15.234375 24.335938 C 15.097656 24.316406 14.707031 24.148438 14.367188 23.953125 L 13.730469 23.613281 L 13.5625 23.835938 C 13.476562 23.953125 13.328125 24.179688 13.242188 24.328125 L 13.085938 24.589844 L 13.640625 24.941406 C 14.121094 25.242188 14.539062 25.410156 15.410156 25.644531 C 15.488281 25.664062 15.527344 25.878906 15.527344 26.269531 L 15.527344 26.855469 L 16.699219 26.855469 L 16.699219 26.21875 C 16.699219 25.617188 16.710938 25.578125 16.972656 25.488281 C 17.5 25.292969 17.734375 25.136719 18.183594 24.695312 C 18.554688 24.328125 18.679688 24.101562 18.859375 23.535156 C 19.289062 22.101562 18.671875 20.839844 17.265625 20.292969 L 16.699219 20.070312 L 16.699219 18.730469 C 16.699219 17.1875 16.710938 17.179688 17.414062 17.714844 L 17.851562 18.046875 L 18.25 17.636719 C 18.46875 17.414062 18.652344 17.195312 18.652344 17.167969 C 18.652344 17.023438 17.546875 16.328125 17.140625 16.210938 L 16.699219 16.085938 L 16.699219 14.941406 L 15.539062 14.941406 Z M 15.527344 18.457031 C 15.527344 19.199219 15.5 19.433594 15.398438 19.433594 C 15.214844 19.433594 14.875 19.042969 14.796875 18.742188 C 14.6875 18.320312 15.125 17.480469 15.449219 17.480469 C 15.488281 17.480469 15.527344 17.921875 15.527344 18.457031 Z M 17.101562 21.53125 C 17.695312 21.84375 17.9375 22.65625 17.636719 23.367188 C 17.507812 23.679688 16.972656 24.21875 16.789062 24.21875 C 16.738281 24.21875 16.699219 23.601562 16.699219 22.804688 C 16.699219 22.023438 16.71875 21.386719 16.75 21.386719 C 16.789062 21.386719 16.933594 21.453125 17.101562 21.53125 Z M 17.101562 21.53125 " />
            <path fill="#1064A3" stroke="none" d="M 21.972656 18.796875 L 21.972656 20.019531 L 30.859375 20.019531 L 30.859375 17.578125 L 21.972656 17.578125 Z M 21.972656 18.796875 " />
            <path fill="#1064A3" stroke="none" d="M 21.972656 24.023438 L 21.972656 25.292969 L 30.859375 25.292969 L 30.859375 22.753906 L 21.972656 22.753906 Z M 21.972656 24.023438 " />
        </g>
    </symbol>
        
</svg>
