<svg width="135" height="29" viewBox="0 0 135 29" fill="none" xmlns="http://www.w3.org/2000/svg">
<path d="M0 14.4978C0 20.7021 3.84597 25.9914 9.2593 28.0677V0.930878C3.84597 3.00717 0 8.29506 0 14.4978Z" fill="#DC1928"/>
<path d="M14.3388 0C13.9416 0 13.5486 0.0144993 13.16 0.0434978V1.0628H13.2332C18.6981 1.10339 23.0976 5.31688 23.0589 10.4757C23.0231 15.6114 18.5949 19.7466 13.1615 19.7408V28.9536C13.5486 28.987 13.943 29 14.3402 29C22.2559 29 28.6802 22.5072 28.6802 14.4978C28.6802 6.49132 22.2559 0 14.3388 0Z" fill="#DC1928"/>
<path d="M41.8667 17.882H37.2464L36.4376 20.299H34.4014L38.3592 8.69958H40.7984L44.7247 20.299H42.6726L41.8667 17.882ZM41.2845 16.1334L39.5551 10.9876L37.8257 16.1334H41.2845Z" fill="#DC1928"/>
<path d="M50.8003 11.8372H52.772V20.299H50.8003V19.3189H50.7358C50.2023 20.054 49.4753 20.5122 48.3611 20.5122C46.6647 20.5122 45.5662 19.271 45.5662 17.376V11.8372H47.538V17.1628C47.538 18.1111 47.9897 18.7969 49.0723 18.7969C50.2038 18.7969 50.8017 17.9965 50.8017 17.0323V11.8372H50.8003Z" fill="#DC1928"/>
<path d="M56.0847 17.8486C56.2138 18.5997 56.7143 19.0579 57.7654 19.0579C58.7348 19.0579 59.284 18.649 59.284 17.9472C59.284 17.376 59.0746 17.0323 58.1698 16.9178L56.6669 16.738C54.9548 16.5423 54.2435 15.7245 54.2435 14.4022C54.2435 12.7855 55.6001 11.6255 57.7009 11.6255C59.8977 11.6255 60.9646 12.916 61.0621 14.1905H59.1234C59.0259 13.5047 58.5412 13.0798 57.6693 13.0798C56.7645 13.0798 56.1823 13.5047 56.1823 14.1586C56.1823 14.6979 56.4734 15.0082 57.4427 15.1228L58.9298 15.3026C60.5775 15.4983 61.2242 16.2668 61.2242 17.6717C61.2242 19.4204 59.7214 20.5136 57.751 20.5136C55.4724 20.5136 54.2607 19.387 54.1001 17.8501H56.0847V17.8486Z" fill="#DC1928"/>
<path d="M63.3708 13.3075H61.7719V11.8372H63.388V8.69958H65.3426V11.8358H67.2655V13.306H65.3426V17.6514C65.3426 18.4199 65.7297 18.7302 66.474 18.7302H67.2813V20.299H66.1341C64.2757 20.299 63.3708 19.4493 63.3708 17.7834V13.3075Z" fill="#DC1928"/>
<path d="M70.9169 20.299H68.9451V11.8372H70.9169V13.1117H70.9814C71.3858 12.1809 72.0641 11.8372 72.7753 11.8372H73.7289V13.6018H72.8571C71.5478 13.6018 70.9183 14.2383 70.9183 15.7912V20.299H70.9169Z" fill="#DC1928"/>
<path d="M76.8934 20.5122C75.2945 20.5122 74.2119 19.5639 74.2119 17.9806C74.2119 16.3146 75.4723 15.6766 76.8461 15.4969L78.6228 15.2678C79.3011 15.2025 79.4631 14.8922 79.4631 14.4022C79.4631 13.683 78.9942 13.1277 78.0091 13.1277C77.0067 13.1277 76.4747 13.683 76.393 14.4674H74.3897C74.4384 13.0291 75.6344 11.6255 77.9603 11.6255C80.1572 11.6255 81.4507 12.9319 81.4507 14.8603V18.8462C81.4507 19.3696 81.531 19.8916 81.6285 20.3005H79.5922C79.5434 19.9742 79.5119 19.6147 79.5119 19.2058H79.4631C79.0272 19.9394 78.1051 20.5122 76.8934 20.5122ZM78.412 16.4118L77.5401 16.6075C76.7156 16.7873 76.1994 17.1309 76.1994 17.8979C76.1994 18.6664 76.6511 19.0579 77.5244 19.0579C78.5425 19.0579 79.4789 18.388 79.4789 17.2774V15.9536C79.2366 16.1986 78.8494 16.3132 78.412 16.4118Z" fill="#DC1928"/>
<path d="M83.1784 18.0125V8.1124H85.1502V17.882C85.1502 18.4054 85.3767 18.7317 85.9575 18.7317H86.6042V20.299H85.5703C84.0345 20.299 83.1784 19.4175 83.1784 18.0125Z" fill="#DC1928"/>
<path d="M90.1263 9.18968C90.1263 9.87549 89.5928 10.3989 88.9145 10.3989C88.2363 10.3989 87.7028 9.87549 87.7028 9.18968C87.7028 8.50386 88.2363 7.98044 88.9145 7.98044C89.5928 7.98044 90.1263 8.50386 90.1263 9.18968ZM89.8997 11.8372V20.299H87.928V11.8372H89.8997Z" fill="#DC1928"/>
<path d="M93.9554 20.5122C92.3565 20.5122 91.2738 19.5639 91.2738 17.9806C91.2738 16.3146 92.5343 15.6766 93.9081 15.4969L95.6848 15.2678C96.3631 15.2025 96.5251 14.8922 96.5251 14.4022C96.5251 13.683 96.0562 13.1277 95.071 13.1277C94.0687 13.1277 93.5367 13.683 93.4549 14.4674H91.4516C91.5004 13.0291 92.6963 11.6255 95.0223 11.6255C97.2191 11.6255 98.5126 12.9319 98.5126 14.8603V18.8462C98.5126 19.3696 98.5929 19.8916 98.6904 20.3005H96.6542C96.6054 19.9742 96.5739 19.6147 96.5739 19.2058H96.5251C96.0877 19.9394 95.1671 20.5122 93.9554 20.5122ZM95.474 16.4118L94.6021 16.6075C93.7776 16.7873 93.2613 17.1309 93.2613 17.8979C93.2613 18.6664 93.7145 19.0579 94.5863 19.0579C95.6045 19.0579 96.5409 18.388 96.5409 17.2774V15.9536C96.2985 16.1986 95.9099 16.3132 95.474 16.4118Z" fill="#DC1928"/>
<path d="M108.398 8.69958C110.87 8.69958 112.438 10.1205 112.438 12.4563C112.438 14.8415 110.855 16.2465 108.398 16.2465H105.506V20.299H103.422V8.69958H108.398ZM110.321 12.4578C110.321 11.0195 109.449 10.4163 108.011 10.4163H105.507V14.5326H108.011C109.449 14.5326 110.321 13.9599 110.321 12.4578Z" fill="#DC1928"/>
<path d="M116.882 11.6401C119.305 11.6401 120.922 13.3887 120.922 16.0841C120.922 18.7795 119.305 20.5107 116.882 20.5107C114.459 20.5107 112.842 18.7795 112.842 16.0841C112.842 13.3887 114.459 11.6401 116.882 11.6401ZM118.917 15.7419C118.917 14.1571 118.141 13.2263 116.881 13.2263C115.62 13.2263 114.844 14.1571 114.844 15.7419V16.4277C114.844 18.0125 115.62 18.9274 116.881 18.9274C118.141 18.9274 118.917 18.0125 118.917 16.4277V15.7419Z" fill="#DC1928"/>
<path d="M123.781 17.8486C123.91 18.5997 124.41 19.0579 125.461 19.0579C126.431 19.0579 126.98 18.649 126.98 17.9472C126.98 17.376 126.77 17.0323 125.866 16.9178L124.363 16.738C122.651 16.5423 121.939 15.7245 121.939 14.4022C121.939 12.7855 123.296 11.6255 125.397 11.6255C127.594 11.6255 128.66 12.916 128.758 14.1905H126.819C126.722 13.5047 126.237 13.0798 125.365 13.0798C124.46 13.0798 123.878 13.5047 123.878 14.1586C123.878 14.6979 124.169 15.0082 125.139 15.1228L126.626 15.3026C128.273 15.4983 128.92 16.2668 128.92 17.6717C128.92 19.4204 127.417 20.5136 125.447 20.5136C123.168 20.5136 121.957 19.387 121.796 17.8501H123.781V17.8486Z" fill="#DC1928"/>
<path d="M131.067 13.3075H129.468V11.8372H131.084V8.69958H133.039V11.8358H134.962V13.306H133.039V17.6514C133.039 18.4199 133.426 18.7302 134.17 18.7302H134.977V20.299H133.83C131.972 20.299 131.067 19.4493 131.067 17.7834V13.3075Z" fill="#DC1928"/>
</svg>
