<svg version="1.1" xmlns="http://www.w3.org/2000/svg" xmlns:xlink="http://www.w3.org/1999/xlink" x="0px" y="0px" style="enable-background:new 0 0 24 24;" xml:space="preserve">
	<symbol id="test" viewBox="0 0 191 137">
		<g>
			<defs>
				<path id="SVGID_1_" d="M7.6,21.5c-0.1,0-0.2,0-0.2,0C7.2,21.4,7,21.1,7,20.9v-3.2H3.2c-0.7,0-1.2-0.6-1.2-1.3V3.8
					c0-0.7,0.6-1.3,1.2-1.3h17.5c0.7,0,1.2,0.6,1.2,1.3v12.7c0,0.7-0.6,1.3-1.2,1.3h-7.5l-5.2,3.6C7.9,21.4,7.8,21.5,7.6,21.5"/>
			</defs>
			<clipPath id="SVGID_2_">
				<use xlink:href="#SVGID_1_" style="overflow:visible;"/>
			</clipPath>
			<g class="st0">
				<defs>
					<rect id="SVGID_3_" y="0.5" width="24" height="24"/>
				</defs>
				<clipPath id="SVGID_4_">
					<use xlink:href="#SVGID_3_" style="overflow:visible;"/>
				</clipPath>
				<rect x="-3" y="-2.5" class="st1" width="30" height="29"/>
			</g>
		</g>
	</symbol>
</svg>
