<svg xmlns="http://www.w3.org/2000/svg" xmlns:xlink="http://www.w3.org/1999/xlink" width="191" height="137" style="position:absolute">

    <symbol id="about" viewBox="0 0 191 137">
        <title>about-community</title>
        <g fill="none" fill-rule="evenodd"><path d="M124.733 106.457c0 1.317-1.07 2.394-2.38 2.394H57.895c-1.31 0-2.38-1.076-2.38-2.393v-74.99c0-1.318 1.07-2.395 2.38-2.395h64.458c1.31 0 2.38 1.077 2.38 2.394v74.99" fill="#F05B7D"/><path
            d="M63.636 58.378c-.854-2.547-1.22-5.12-.443-7.765.402-1.37.408-1.372 1.664-.695 1.12.603 2.033 1.47 3.05 2.392.49-1.283.785-2.553 1.496-3.63 1.852-2.802 1.69-2.754 3.513-.015.717 1.078 1.072 2.33 1.455 3.693 1.145-1.066 2.203-1.964 3.438-2.646.794-.44 1.072-.203 1.29.58.663 2.37.668 4.72-.096 7.065-.108.332-.194.672-.29 1.008l-.102.125c.03.113.113.113.2.05.89-.177 1.782-.358 2.675-.53.84-.163 1.17.083 1.103 1.04-.33 4.635-3.83 8.884-8.514 10.022-1.12.272-1.315.746-1.313 1.777.03 16.962.023 16.568.02 33.53 0 1.882.12 1.625-1.636 1.65-.28.004-.563-.02-.84.003-.58.046-.85-.184-.805-.787.025-.35 0-.704 0-1.057 0-16.93-.007-16.5.02-33.427.002-1-.232-1.425-1.28-1.692-4.75-1.206-8.12-5.35-8.497-10.156-.064-.81.203-1.035.916-.91.962.166 1.923.352 2.884.53l.162-.01-.07-.146"
            fill="#00C1AA"/><path d="M134.843 106.457c0 1.317-1.07 2.394-2.38 2.394h-26.62c-1.308 0-2.38-1.076-2.38-2.393v-74.99c0-1.318 1.072-2.395 2.38-2.395h26.62c1.31 0 2.38 1.077 2.38 2.394v74.99" fill="#009FDA"/><path fill="#FFF" d="M116.725 34.858h4.857v4.884h-4.857M116.725 42.874h4.857v4.884h-4.857M116.725 50.89h4.857v4.885h-4.857M116.725 58.907h4.857v4.884h-4.857"/><path fill="#FFDB76" d="M116.725 66.923h4.857v4.884h-4.857"/><path fill="#FFF" d="M116.725 74.94h4.857v4.883h-4.857M124.234 34.858h4.857v4.884h-4.856"/><path fill="#FFDB76" d="M124.234 42.874h4.857v4.884h-4.856"/><path fill="#FFF" d="M124.234 50.89h4.857v4.885h-4.856M124.234 58.907h4.857v4.884h-4.856M124.234 66.923h4.857v4.884h-4.856M124.234 74.94h4.857v4.883h-4.856"/><path fill="#FFDB76" d="M109.216 34.858h4.857v4.884h-4.857"/><path fill="#FFF" d="M109.216 42.874h4.857v4.884h-4.857"/><path fill="#FFDB76" d="M109.216 50.89h4.857v4.885h-4.857"/><path fill="#FFF" d="M109.216 58.907h4.857v4.884h-4.857M109.216 66.923h4.857v4.884h-4.857M109.216 74.94h4.857v4.883h-4.857"/><path
            d="M135.562 16.457c-3.776 0-7.024 2.267-8.474 5.522-1.52-.864-3.273-1.356-5.14-1.356-5.104 0-9.355 3.605-10.284 8.448h20.8c1.308 0 2.38 1.077 2.38 2.394V41.95h12.166c5.374 0 7.872-4.036 7.872-8.028 0-4.242-4.07-7.594-8.286-7.594-.613 0-1.21.073-1.78.21.018-.245.028-.495.028-.747 0-5.153-4.156-9.333-9.282-9.333"
            fill="#988A89"/><path
            d="M116.725 34.858h4.857v4.884h-4.857v-4.884zm7.51 0h4.856v4.884h-4.856v-4.884zm8.228-5.786h-20.8c-.123.646-.188 1.314-.188 1.998 0 1.318.24 2.597.68 3.788h1.918v3.307c1.92 2.294 4.736 3.786 7.875 3.786h12.895V31.467c0-1.317-1.07-2.394-2.38-2.394z"
            fill="#005675"/><path fill="#988A89" d="M116.725 34.858h4.857v4.884h-4.857M124.234 34.858h4.857v4.884h-4.856"/><path d="M114.073 34.858h-1.917c.447 1.212 1.1 2.332 1.917 3.307v-3.307" fill="#98773F"/><path
            d="M145.214 24.94c-.613 0-1.21.072-1.78.21.018-.247.028-.496.028-.748 0-5.154-4.155-9.334-9.28-9.334-3.777 0-7.026 2.267-8.475 5.52-1.52-.86-3.273-1.353-5.14-1.353-5.785 0-10.473 4.63-10.473 10.446 0 5.818 4.688 10.88 10.473 10.88h25.062c5.373 0 7.87-4.036 7.87-8.028 0-4.24-4.068-7.593-8.286-7.593"
            fill="#FFF"/><path d="M107.295 69.646L89.66 51.856l-17.635 17.79h-.02v37.802c0 .775.625 1.403 1.396 1.403h32.52c.77 0 1.395-.627 1.395-1.402V69.646h-.02" fill="#5044DE"/><path fill="#FFF" d="M91.84 80.424h11.116v28.427H91.84M76.364 80.424H87.48v6.48H76.365"/><path d="M87.32 100.592L104.37 99l22.166-11.874c1.71-.915 3.823-.246 4.722 1.49l.61 1.18c.9 1.74.245 3.892-1.466 4.807l-23.01 12.325c-.372.2-.784.33-1.18.382l-18.893-6.718" fill="#C77F5D"/><path
            d="M53.948 86.155v22.696h56.05c.4-.015.82-.105 1.21-.27l24.022-10.127c1.785-.753 2.633-2.834 1.894-4.65l-.502-1.232c-.74-1.814-2.785-2.676-4.57-1.924l-23.14 9.755-17.123-.002c-1.327 0-2.4-1.094-2.4-2.443v-.914c0-1.346 1.073-2.44 2.4-2.44l14.68.003c1.933 0 3.497-1.592 3.497-3.556v-1.334c0-1.964-1.564-3.558-3.496-3.558l-25.994-.005-26.528.005"
            fill="#FAAE7A"/><path d="M103.346 87.362v6.05s4.873.757 5.02-3.024c0 0 0-3.63-5.02-3.026M135.845 93.89c1.168 3.595-3.656 4.63-3.656 4.63l-1.055-2.857" fill="#FFF"/><path fill="#8177E7" d="M46.068 73.323h17.514v35.528H46.068"/><path d="M53.388 98.92c-2 0-3.623 1.648-3.623 3.686 0 2.036 1.623 3.687 3.623 3.687s3.624-1.65 3.624-3.687c0-2.038-1.623-3.687-3.624-3.687" fill="#4D407C"/><path d="M52.45 106.293c2 0 3.624-1.65 3.624-3.687 0-2.038-1.623-3.687-3.623-3.687s-3.623 1.648-3.623 3.686c0 2.036 1.623 3.687 3.624 3.687" fill="#FFF"/>
        </g>
    </symbol>

    <symbol id="idea" viewBox="0 0 191 137">
        <title>add-idea</title>
        <g fill="none" fill-rule="evenodd">
            <path d="M121 62c0 13.254-10.97 24-24.5 24C82.968 86 72 75.254 72 62c0-13.256 10.968-24 24.5-24 13.53 0 24.5 10.744 24.5 24" fill="#FFF"/>
            <path d="M113 100.88c0 .066-.628.12-1.4.12H79.4c-.774 0-1.4-.054-1.4-.12v-2.76c0-.066.626-.12 1.4-.12h32.2c.772 0 1.4.054 1.4.12v2.76" fill="#CCC2BF"/>
            <path
                d="M96.5 33c-.83 0-1.5-.736-1.5-1.644v-5.71c0-.907.67-1.646 1.5-1.646.828 0 1.5.74 1.5 1.647v5.71c0 .907-.672 1.643-1.5 1.643M96.5 99c-.83 0-1.5-.737-1.5-1.646v-5.708c0-.91.67-1.646 1.5-1.646.828 0 1.5.737 1.5 1.646v5.708c0 .91-.672 1.646-1.5 1.646M125 61.5c0-.83.736-1.5 1.646-1.5h5.708c.91 0 1.646.67 1.646 1.5 0 .828-.737 1.5-1.646 1.5h-5.708c-.91 0-1.646-.672-1.646-1.5M58 61.5c0-.83.737-1.5 1.646-1.5h5.708c.91 0 1.646.67 1.646 1.5 0 .828-.737 1.5-1.646 1.5h-5.708c-.91 0-1.646-.672-1.646-1.5M117.46 40.54c-.614-.615-.614-1.61 0-2.224l3.856-3.855c.614-.614 1.61-.614 2.223 0 .614.615.614 1.61 0 2.224l-3.856 3.855c-.614.614-1.61.614-2.223 0M68.46 88.54c-.614-.615-.614-1.61 0-2.224l3.856-3.855c.615-.614 1.61-.614 2.224 0 .613.615.613 1.61 0 2.224l-3.855 3.855c-.616.614-1.612.614-2.224 0M117.46 82.46c.615-.614 1.61-.614 2.224 0l3.855 3.856c.614.614.614 1.61 0 2.223-.615.614-1.61.614-2.224 0l-3.855-3.856c-.614-.614-.614-1.61 0-2.223M68.46 34.46c.613-.614 1.61-.614 2.225 0l3.855 3.856c.613.614.613 1.61 0 2.223-.614.614-1.61.614-2.224 0l-3.855-3.857c-.614-.613-.614-1.608 0-2.222"
                fill="#FFF"/>
            <path d="M98 87.27V67.73c0-.954-.672-1.73-1.5-1.73s-1.5.776-1.5 1.73v19.54c0 .954.672 1.73 1.5 1.73s1.5-.776 1.5-1.73" fill="#736D6C"/>
            <path
                d="M103.18 60.454L97 66.258l-6.18-5.804c-.646-.605-1.69-.605-2.336 0-.645.606-.645 1.586 0 2.192l7.35 6.9c.306.29.73.454 1.165.454.435 0 .86-.165 1.167-.455l7.35-6.9c.644-.605.644-1.585 0-2.19-.646-.606-1.69-.606-2.336 0M111 111.76c0 .686-.537 1.24-1.2 1.24H82.2c-.662 0-1.2-.554-1.2-1.24V83.24c0-.684.538-1.24 1.2-1.24h27.6c.663 0 1.2.556 1.2 1.24v28.52"
                fill="#736D6C"/>
            <path d="M65 60h-5.218c-.984 0-1.782.672-1.782 1.5 0 .83.798 1.5 1.782 1.5H65v-3" fill="#FFF"/>
        </g>
    </symbol>
    <symbol id="conversation" viewBox="0 0 191 137">
        <title>join-conversation</title>
        <g fill="none" fill-rule="evenodd">
            <g fill="#AB768D">
                <path d="M105.39 33.5c-9.288 0-16.89 7.604-16.89 16.89v54.902c0 1.16.672 1.44 1.495.616l19.62-19.62H143.4c9.29 0 16.894-7.6 16.894-16.89V35.613c0-1.16-.95-2.113-2.114-2.113h-52.79z"/>
                <path d="M70.336 30.5c6.74 0 12.256 5.517 12.256 12.256V82.59c0 .843-.487 1.045-1.085.448L67.272 68.803H42.757c-6.74 0-12.257-5.515-12.257-12.256V32.033c0-.842.69-1.533 1.534-1.533h38.302z" opacity=".5"/>
            </g>
            <g transform="translate(109 53)" fill="#FFF">
                <circle cx="3.76" cy="3.76" r="3.76"/>
                <ellipse cx="15.757" cy="3.76" rx="3.76" ry="3.76"/>
                <circle cx="27.755" cy="3.76" r="3.76"/>
            </g>
            <g transform="translate(44 45)" fill="#FFF">
                <circle cx="2.5" cy="2.5" r="2.5"/>
                <circle cx="9.5" cy="2.5" r="2.5"/>
                <circle cx="17.5" cy="2.5" r="2.5"/>
            </g>
        </g>
    </symbol>
    <symbol id="question" viewBox="0 0 191 137">
        <title>ask-question</title>
        <g fill="none" fill-rule="evenodd">
            <path d="M76.39 31.5c-9.288 0-16.89 7.604-16.89 16.89v54.902c0 1.16.672 1.44 1.495.616l19.62-19.62H114.4c9.29 0 16.894-7.6 16.894-16.89V33.613c0-1.16-.95-2.113-2.114-2.113H76.39z" fill="#76B1DE"/>
            <g transform="translate(80.357 51.354)" fill="#FFF">
                <circle cx="3.76" cy="3.76" r="3.76"/>
                <ellipse cx="15.757" cy="3.76" rx="3.76" ry="3.76"/>
                <circle cx="27.755" cy="3.76" r="3.76"/>
            </g>
        </g>
    </symbol>

    <symbol id="idea2" viewBox="0 0 191 137">
        <title>latest-ideas</title>
        <g fill="none" fill-rule="evenodd">
            <path
                d="M127.06 115.073V102.51s6.554-9.093 9.106-12.722c1.297-1.845 1.047-3.827-.51-4.77-1.574-.953-3.62-.435-5.03 1.3l-3.565 4.472V69.787c0-1.513-1.228-2.74-2.744-2.74-1.516 0-2.745 1.227-2.745 2.74v13.538c0 .527-.428.954-.956.954s-.956-.428-.956-.955v-16.58c0-1.518-1.23-2.745-2.746-2.745-1.515 0-2.744 1.227-2.744 2.74v16.585c-.017.527-.445.954-.973.954-.5 0-.898-.39-.94-.878V68.188c0-1.517-1.23-2.743-2.746-2.743-1.517 0-2.746 1.226-2.746 2.738v15.142c-.007.527-.435.954-.963.954-.516 0-.93-.412-.948-.923V73.123c0-1.518-1.23-2.744-2.746-2.744s-2.746 1.225-2.746 2.738v41.955h27.7z"
                fill="#FADAC1"/>
            <path fill="#AFB1A2" d="M128.314 108.327h-29.92V117h29.92"/>
            <path
                d="M63.94 116.036V102.51s-6.554-9.093-9.106-12.722c-1.297-1.845-1.047-3.827.51-4.77 1.574-.953 3.62-.435 5.03 1.3l3.565 4.472V69.787c0-1.513 1.228-2.74 2.744-2.74 1.516 0 2.745 1.227 2.745 2.74v13.538c0 .527.427.954.956.954.528 0 .956-.428.956-.955v-16.58c0-1.518 1.23-2.745 2.746-2.745 1.515 0 2.744 1.227 2.744 2.74v16.585c.017.527.445.954.973.954.5 0 .898-.39.94-.878V68.188c0-1.517 1.23-2.743 2.746-2.743 1.517 0 2.746 1.226 2.746 2.738v15.142c.007.527.435.954.963.954.516 0 .93-.412.948-.923V73.123c0-1.518 1.23-2.744 2.746-2.744s2.746 1.225 2.746 2.738v42.918h-27.7z"
                fill="#FADAC1"/>
            <path fill="#AFB1A2" d="M91.64 108.327H61.72V117h29.92"/>
            <g>
                <path
                    d="M112.985 34.01c.295.365.587.772.882 1.225 1.79 2.753 1.79 7.744-2.437 12.05l-1.503 1.314c-4.59 3.446-12.51 4.896-26.765 1.354-.872-15.234 1.875-23.107 5.932-27.218l1.503-1.315c4.804-3.59 9.52-2.72 11.815-.408.374.38.71.754 1.004 1.118 2.357 2.927 2.203 5.457 1.552 8.766 3.243-.09 5.658.185 8.017 3.113"
                    fill="#E46759"/>
                <path d="M113.862 35.048c-.297-.457-.59-.868-.888-1.24-2.368-2.956-4.795-3.238-8.05-3.147L83 49.933c14.324 3.58 22.285 2.115 26.9-1.37l1.51-1.33c4.253-4.353 4.248-9.4 2.452-12.184" fill="#D70826"/>
            </g>
        </g>
    </symbol>

    <symbol id="APLogo" viewBox="0 0 55 55">
        <path fill="#DC1928" d="M55 52.9c0 1.1-1 2.1-2.1 2.1H2.1C1 55 0 54.1 0 52.9V2.1C0 .9 1 0 2.1 0h50.7C54 0 54.9.9 55 2.1v50.8z"></path>
        <path fill="#FFF" d="M9.8 27.4c0 7.4 4.8 13.7 11.5 16.2V11.2c-6.8 2.5-11.5 8.9-11.5 16.2m17.8-17.3c-.5 0-1 0-1.4.1v1.2h.1c6.8.1 12.2 5.1 12.2 11.2-.1 6.1-5.6 11.1-12.3 11.1v11h1.4c9.8 0 17.8-7.7 17.8-17.3-.1-9.5-8.1-17.3-17.8-17.3"></path>
    </symbol>

    <symbol id="icon-facebook" viewBox="0 0 24 24" enable-background="new 0 0 24 24" xml:space="preserve" version="1.1">
        <path fill="#DC1928" d="M55 52.9c0 1.1-1 2.1-2.1 2.1H2.1C1 55 0 54.1 0 52.9V2.1C0 .9 1 0 2.1 0h50.7C54 0 54.9.9 55 2.1v50.8z"></path>
        <path id="f" d="M13.76,22v-9.12h3.06l0.46-3.56h-3.52V7.05c0-1.03,0.29-1.73,1.76-1.73l1.88,0V2.14C17.08,2.1,15.96,2,14.66,2
    c-2.71,0-4.57,1.66-4.57,4.7v2.62H7.02v3.56h3.07V22H13.76z"/>
    </symbol>

    <symbol id="icon-facebook" viewBox="0 0 24 24" enable-background="new 0 0 24 24" xml:space="preserve" version="1.1">
        <path fill="#DC1928" d="M55 52.9c0 1.1-1 2.1-2.1 2.1H2.1C1 55 0 54.1 0 52.9V2.1C0 .9 1 0 2.1 0h50.7C54 0 54.9.9 55 2.1v50.8z"></path>
        <path id="f" d="M13.76,22v-9.12h3.06l0.46-3.56h-3.52V7.05c0-1.03,0.29-1.73,1.76-1.73l1.88,0V2.14C17.08,2.1,15.96,2,14.66,2
    c-2.71,0-4.57,1.66-4.57,4.7v2.62H7.02v3.56h3.07V22H13.76z"/>
    </symbol>

    <symbol id="icon-google" viewBox="0 0 24 24" enable-background="new 0 0 24 24" xml:space="preserve" version="1.1">
        <g>
            <path fill="#DC1928" d="M55 52.9c0 1.1-1 2.1-2.1 2.1H2.1C1 55 0 54.1 0 52.9V2.1C0 .9 1 0 2.1 0h50.7C54 0 54.9.9 55 2.1v50.8z"></path>
            <path
                d="M8.08,10.93v0.01v2.55h4.24c-0.4,1.98-2.2,3.34-4.21,3.2c-2.59,0-4.69-2.1-4.69-4.69s2.1-4.69,4.69-4.69
        c1.08-0.01,2.13,0.4,2.92,1.15l2.01-1.95C11.7,5.25,9.91,4.55,8.06,4.57c-4.1-0.15-7.55,3.05-7.7,7.16
        c-0.15,4.1,3.06,7.55,7.16,7.7c0.18,0,0.36,0,0.54,0c4.29,0,7.13-3.01,7.13-7.26c0-0.41-0.04-0.83-0.12-1.24H8.08z"/>
            <polygon points="21.88,10.94 21.88,8.81 19.76,8.81 19.76,10.94 17.63,10.94 17.63,13.06 19.76,13.06 19.76,15.19 21.88,15.19
        21.88,13.06 24,13.06 24,10.94   "/>
        </g>
    </symbol>

    <symbol id="chat-small" viewBox="0 0 24 24">
        <path
            d="M7.625,21 C7.544375,21 7.46328125,20.9844833 7.38578125,20.9517083 C7.15203125,20.8540167 7,20.6226917 7,20.3666667 L7,17.2 L3.25,17.2 C2.5609375,17.2 2,16.6315833 2,15.9333333 L2,3.26666667 C2,2.56841667 2.5609375,2 3.25,2 L20.75,2 C21.4390625,2 22,2.56841667 22,3.26666667 L22,15.9333333 C22,16.6315833 21.4390625,17.2 20.75,17.2 L13.25,17.2 L8.066875,20.8144333 C7.94734375,20.9357167 7.78734375,21 7.625,21"
            id="Page-1"></path>
    </symbol>

    <symbol id="articles" viewBox="0 0 191 137">
        <g fill="none" fill-rule="evenodd"><path d="M123.715 94.244c.143 1.16-.69 2.227-1.85 2.37l-66.118 8.117c-1.16.144-2.227-.69-2.37-1.85L45.26 36.763c-.143-1.16.69-2.227 1.85-2.37l66.118-8.118c1.16-.142 2.226.69 2.37 1.85l8.117 66.12" fill="#F1F1F1"/><path fill="#B3ACA8" d="M59.28 44.893l44.675-5.485.998 8.125-44.675 5.485M60.86 57.754l44.678-5.486.998 8.125-44.68 5.486M62.44 70.614l44.678-5.486.997 8.125-44.68 5.486M64.018 83.474l44.68-5.485.996 8.124-44.68 5.485"/>
            <g><path d="M143.676 110.862h-68.49c-1.203 0-2.186-.983-2.186-2.186v-68.49c0-1.203.983-2.186 2.186-2.186h53.68l16.996 17.194v53.482c0 1.203-.983 2.186-2.186 2.186z" fill="#FFF"/><path fill="#B3ACA8" d="M86.29 50.24h23.397v8.416H86.29M86.29 63.562h46.283v8.416H86.29M86.29 76.884h46.283V85.3H86.29M86.29 90.206h46.283v8.416H86.29"/><path d="M131.182 54.866h14.68L128.996 38v14.68c0 1.202.984 2.186 2.186 2.186" fill="#F8ABCC"/></g>
        </g>
    </symbol>

    <symbol id="how-to" viewBox="0 0 191 137">
        <g fill="none" fill-rule="evenodd"><path d="M137.95 53.026c0-1.516 1.21-2.747 2.738-2.747h7.57c1.532 0 2.786 1.23 2.786 2.746v4.35c0 1.515-1.254 2.745-2.785 2.745h-7.572c-1.53 0-2.74-1.23-2.74-2.744v-4.35" fill="#EAC399"/><path
            d="M148.716 49.99c0-.82.674-1.49 1.503-1.49.832 0 1.49.67 1.49 1.49v3.638c0 .825-.658 1.49-1.49 1.49-.83 0-1.504-.665-1.504-1.49V49.99M145.127 48.215c0-.82.668-1.49 1.5-1.49s1.5.67 1.5 1.49v5.08c0 .823-.668 1.488-1.5 1.488s-1.5-.665-1.5-1.488v-5.08M141.538 48.215c0-.82.673-1.49 1.502-1.49.83 0 1.503.67 1.503 1.49v5.08c0 .823-.674 1.488-1.503 1.488-.83 0-1.502-.665-1.502-1.488v-5.08"
            fill="#F9D2AC"/><path d="M137.95 38.437c0-.82.702-1.49 1.537-1.49.83 0 1.497.67 1.497 1.49v14.376c0 .823-.668 1.488-1.497 1.488-.835 0-1.538-.664-1.538-1.487V38.437" fill="#EAC399"/><path d="M134.6 53.487c-.457-.685-.236-1.625.458-2.077.694-.45 1.625-.257 2.08.43l3.958 5.972c.454.69.263 1.612-.43 2.062-.695.45-1.655.278-2.11-.41l-3.957-5.977" fill="#F9D2AC"/><path d="M139.744 60.067c.436.292.962.466 1.535.466h4.762c-.793-2.75-3.294-4.782-6.298-4.922v4.457" fill="#F9D2AC"/><path d="M138.986 60.054c0 19.598-16.1 35.546-35.885 35.546-3.545 0-6.422 2.848-6.422 6.364 0 3.514 2.877 6.363 6.423 6.363 26.87 0 48.734-21.656 48.734-48.273h-12.848" fill="#FFF"/><path fill="#FFF" d="M65.276 95.603h40.98v29.105h-40.98"/><path d="M63.063 96.298C51.52 102.125 42.957 112.06 38.96 124.27c-.11.333-.218.396-.32.73 14.73-.27 8.484 0 13.596 0 3.293-7.495 9.19-13.66 16.637-17.42 3.145-1.59 4.396-5.4 2.79-8.518-1.603-3.116-5.456-4.358-8.6-2.764z" fill="#FFF"/><path fill="#F9D2AC" d="M76.042 95.603l9.55 23.402 9.55-23.402h-19.1"/><path
            d="M93.03 94.256c0 3.91-3.2 7.078-7.147 7.078-3.948 0-7.15-3.168-7.15-7.078v-5.793c0-3.91 3.202-7.08 7.15-7.08 3.946 0 7.146 3.17 7.146 7.08v5.793M106.602 59.944c0 11.305-9.253 20.47-20.666 20.47-11.41 0-20.66-9.165-20.66-20.47v-16.75c0-11.3 9.25-20.466 20.66-20.466 11.413 0 20.666 9.166 20.666 20.466v16.75"
            fill="#F9D2AC"/><path
            d="M109.468 56.613c0 2.516-2.06 4.556-4.6 4.556-2.542 0-4.6-2.04-4.6-4.557 0-2.517 2.058-4.557 4.6-4.557 2.54 0 4.6 2.04 4.6 4.557M70.89 57.502c0 2.516-2.06 4.556-4.604 4.556-2.54 0-4.6-2.04-4.6-4.556 0-2.518 2.06-4.557 4.6-4.557 2.545 0 4.603 2.04 4.603 4.557"
            fill="#F9D2AC"/><path
            d="M78.136 53.132c-.346 0-.62-.28-.62-.616 0-1.043-.858-1.892-1.906-1.892-1.054 0-1.91.85-1.91 1.892 0 .336-.278.616-.62.616-.344 0-.627-.28-.627-.616 0-1.72 1.413-3.126 3.157-3.126 1.737 0 3.15 1.406 3.15 3.126 0 .336-.276.616-.624.616M98.772 53.132c-.346 0-.624-.278-.624-.616 0-1.043-.853-1.892-1.908-1.892-1.048 0-1.905.85-1.905 1.892 0 .338-.277.616-.62.616-.35 0-.626-.278-.626-.616 0-1.72 1.417-3.126 3.15-3.126 1.74 0 3.154 1.406 3.154 3.126 0 .338-.28.616-.622.616"
            fill="#1A1918"/><path
            d="M94.535 63.806c2.284 0 4.138-1.835 4.138-4.1 0-2.263-1.854-4.095-4.138-4.095-2.285 0-4.138 1.833-4.138 4.097 0 2.264 1.853 4.1 4.138 4.1M77.488 63.806c2.284 0 4.138-1.835 4.138-4.1 0-2.263-1.854-4.095-4.138-4.095-2.285 0-4.137 1.833-4.137 4.097 0 2.264 1.853 4.1 4.138 4.1"
            fill="#F7C89A"/><path d="M88.197 63.24H83.99V51.993c0-.455-.375-.825-.832-.825-.462 0-.835.37-.835.825v12.075c0 .217.088.427.243.583.156.155.37.24.592.24h5.04c.46 0 .834-.367.834-.823 0-.457-.375-.826-.835-.826" fill="#1A1918"/><path fill="#F9D2AC" d="M78.734 77.83h14.893v18.073H78.734"/><path d="M106.602 59.448v-6.503h-2.768v10.5c0 1.16-1.172 1.16-1.172 1.16h-33.5c-1.173 0-1.173-1.16-1.173-1.16v-10.5h-2.714v6.503c0 11.305 9.25 20.47 20.66 20.47 11.413 0 20.666-9.165 20.666-20.47" fill="#C28C76"/><path d="M85.405 73.565c-1.01 0-2.02-.38-2.787-1.142-.394-.39-.394-1.02 0-1.41.392-.392 1.03-.392 1.423 0 .755.747 1.977.743 2.728 0 .394-.392 1.03-.392 1.425 0 .396.39.396 1.02 0 1.41-.77.762-1.778 1.142-2.788 1.142" fill="#1A1918"/><path d="M66.056 56.277c1.002-1.003 1-8.88 4.02-11.926-.653-3.31.394-5.792 2.328-7.515 3.222-2.87 8.896-3.643 13.232-2.66V27.17c-12.94.53-18.097 3.14-19.767 10.474-.987 4.338-.617 10.35.186 18.63" fill="#432119"/><path d="M105.104 55.657c-1-1.002-1-8.88-4.02-11.926.388-1.955.18-3.62-.452-5.014-5.518 2.257-13.63 1.663-15.108 1.73-25.307 1.12-23.894-24.784 0-27.493 2.922 9.152 16.866 8.398 19.98 16.7 2.734 7.297.312 18.66-.4 26.004" fill="#432119"/><path
            d="M109.127 46.146s-2.77-1.015-10.183-1.015C92.1 44.507 86.97 46.54 86.97 46.54h-3.75s-5.038-1.656-11.485-1.59c-6.45.068-10.77 1.316-10.77 1.316s-.343 2.303-.07 4.08c1.647-.2 1.853 1.644 1.853 1.644s-.068 1.316.96 4.275c1.892 5.443 7.784 5.118 7.784 5.118.65.158 3.583.39 7.412-2.187 4.316-3.75 5.378-8.515 5.378-8.515s.733-.782 1.872-.078c1.628 6.796 4.724 9.14 9.042 10.312 4.318 1.17 7.576 0 9.694-2.265 2.12-2.265 2.2-4.766 2.364-6.407.163-1.64 1.71-1.874 1.71-1.874l.163-4.22zm-31.344 10.84c-2.608 2.107-5.97 2.433-8.644 1.383-2.677-1.054-3.773-3.685-3.5-7.24.277-3.55 3.774-3.68 3.774-3.68s3.487-.396 5.348-.22c.837.08 3.655.017 5.56 2.455.89 1.578.067 5.197-2.54 7.3zm22.707 1.383c-2.673 1.05-6.036.723-8.642-1.384-2.606-2.104-3.43-5.723-2.538-7.3 1.902-2.44 4.72-2.375 5.557-2.456 1.86-.176 5.35.22 5.35.22s3.495.13 3.773 3.68c.272 3.555-.826 6.186-3.5 7.24z"
            fill="#1A1918"/></g>
    </symbol>

</svg>
