<svg width="0" height="0" class="hidden">
	<symbol id="enterprise" fill="none" xmlns="http://www.w3.org/2000/svg" viewBox="0 0 413 243">
	  <path d="M178.447 186.969C179.455 187.842 179.455 187.842 180.484 188.732C181.518 189.518 182.552 190.303 183.617 191.113C195.07 201.57 204.045 216.444 206.555 231.847C206.555 235.487 206.555 239.127 206.555 242.877C138.391 242.877 70.2283 242.877 0 242.877C0 222.878 7.48449 206.635 21.4521 192.28C37.2529 177.243 56.1493 168.566 77.2071 163.664C78.2501 163.416 79.2932 163.168 80.3678 162.913C113.872 156.436 152.272 164.72 178.447 186.969Z" fill="#01B9F3"></path>
	  <path d="M102.211 155.846C131.833 155.846 155.846 131.833 155.846 102.211C155.846 72.5887 131.833 48.5754 102.211 48.5754C72.5887 48.5754 48.5754 72.5887 48.5754 102.211C48.5754 131.833 72.5887 155.846 102.211 155.846Z" fill="#01B9F3"></path>
	  <path d="M384.893 186.969C385.901 187.842 385.901 187.842 386.929 188.732C387.963 189.518 388.997 190.303 390.063 191.113C401.516 201.57 410.49 216.444 413 231.847C413 235.487 413 239.127 413 242.877C344.836 242.877 276.674 242.877 206.445 242.877C206.445 222.878 213.93 206.635 227.897 192.28C243.698 177.243 262.595 168.566 283.652 163.664C284.695 163.416 285.739 163.168 286.813 162.913C320.318 156.436 358.717 164.72 384.893 186.969Z" fill="#01B9F3"></path>
	  <path d="M308.656 155.846C338.278 155.846 362.291 131.833 362.291 102.211C362.291 72.5887 338.278 48.5754 308.656 48.5754C279.034 48.5754 255.021 72.5887 255.021 102.211C255.021 131.833 279.034 155.846 308.656 155.846Z" fill="#01B9F3"></path>
	  <path d="M247.351 129.554C247.912 130.043 247.912 130.043 248.485 130.541C249.061 130.982 249.636 131.422 250.23 131.875C256.606 137.734 261.603 146.067 263 154.697C263 156.737 263 158.776 263 160.877C225.05 160.877 187.1 160.877 148 160.877C148 149.672 152.167 140.572 159.944 132.529C168.741 124.104 179.261 119.243 190.985 116.497C191.566 116.358 192.147 116.219 192.745 116.076C211.399 112.447 232.778 117.088 247.351 129.554Z" fill="#01B9F3"></path>
	  <path d="M205.433 107.271C235.055 107.271 259.069 83.2573 259.069 53.6353C259.069 24.0133 235.055 0 205.433 0C175.811 0 151.798 24.0133 151.798 53.6353C151.798 83.2573 175.811 107.271 205.433 107.271Z" fill="#01B9F3"></path>
	</symbol>
	<symbol id="consumer-smb" fill="none" xmlns="http://www.w3.org/2000/svg" viewBox="0 0 205 96">
	  <path d="M88.1668 68.3772C88.6649 68.8083 88.6649 68.8083 89.1731 69.2481C89.684 69.6364 90.1948 70.0246 90.7212 70.4247C96.3798 75.5912 100.814 82.9401 102.054 90.5505C102.054 92.3489 102.054 94.1472 102.054 96C68.3759 96 34.6982 96 0 96C0 86.1188 3.69792 78.0938 10.599 71.0013C18.4058 63.5717 27.7421 59.2845 38.1463 56.8629C38.6616 56.7403 39.177 56.6177 39.7079 56.4914C56.2618 53.2917 75.2342 57.3846 88.1668 68.3772Z" fill="#F30000"></path>
	  <path d="M50.5 53C65.1355 53 77 41.1355 77 26.5C77 11.8645 65.1355 0 50.5 0C35.8645 0 24 11.8645 24 26.5C24 41.1355 35.8645 53 50.5 53Z" fill="#F30000"></path>
	  <path d="M190.167 68.3772C190.665 68.8083 190.665 68.8083 191.173 69.2481C191.684 69.6364 192.195 70.0246 192.721 70.4247C198.38 75.5912 202.814 82.9401 204.054 90.5505C204.054 92.3489 204.054 94.1472 204.054 96C170.376 96 136.698 96 102 96C102 86.1188 105.698 78.0938 112.599 71.0013C120.406 63.5717 129.742 59.2845 140.146 56.8629C140.662 56.7403 141.177 56.6177 141.708 56.4914C158.262 53.2917 177.234 57.3846 190.167 68.3772Z" fill="#F30000"></path>
	  <path d="M152.5 53C167.136 53 179 41.1355 179 26.5C179 11.8645 167.136 0 152.5 0C137.864 0 126 11.8645 126 26.5C126 41.1355 137.864 53 152.5 53Z" fill="#F30000"></path>
	</symbol>
	<symbol id="consumer" fill="none" xmlns="http://www.w3.org/2000/svg" viewBox="0 0 103 96">
	  <path d="M88.1668 68.3772C88.6649 68.8083 88.6649 68.8083 89.1731 69.2481C89.684 69.6364 90.1948 70.0246 90.7212 70.4247C96.3798 75.5912 100.814 82.9401 102.054 90.5505C102.054 92.3489 102.054 94.1472 102.054 96C68.3759 96 34.6982 96 0 96C0 86.1188 3.69792 78.0938 10.599 71.0013C18.4058 63.5717 27.7421 59.2845 38.1463 56.8629C38.6616 56.7403 39.177 56.6177 39.7079 56.4914C56.2618 53.2917 75.2342 57.3846 88.1668 68.3772Z" fill="#F30000"></path>
	  <path d="M50.5 53C65.1355 53 77 41.1355 77 26.5C77 11.8645 65.1355 0 50.5 0C35.8645 0 24 11.8645 24 26.5C24 41.1355 35.8645 53 50.5 53Z" fill="#F30000"></path>
	</symbol>
	<symbol id="smb" fill="none" xmlns="http://www.w3.org/2000/svg" viewBox="0 0 205 96">
	  <path d="M88.1668 68.3772C88.6649 68.8083 88.6649 68.8083 89.1731 69.2481C89.684 69.6364 90.1948 70.0246 90.7212 70.4247C96.3798 75.5912 100.814 82.9401 102.054 90.5505C102.054 92.3489 102.054 94.1472 102.054 96C68.3759 96 34.6982 96 0 96C0 86.1188 3.69792 78.0938 10.599 71.0013C18.4058 63.5717 27.7421 59.2845 38.1463 56.8629C38.6616 56.7403 39.177 56.6177 39.7079 56.4914C56.2618 53.2917 75.2342 57.3846 88.1668 68.3772Z" fill="#01B9F3"></path>
	  <path d="M50.5 53C65.1355 53 77 41.1355 77 26.5C77 11.8645 65.1355 0 50.5 0C35.8645 0 24 11.8645 24 26.5C24 41.1355 35.8645 53 50.5 53Z" fill="#01B9F3"></path>
	  <path d="M190.167 68.3772C190.665 68.8083 190.665 68.8083 191.173 69.2481C191.684 69.6364 192.195 70.0246 192.721 70.4247C198.38 75.5912 202.814 82.9401 204.054 90.5505C204.054 92.3489 204.054 94.1472 204.054 96C170.376 96 136.698 96 102 96C102 86.1188 105.698 78.0938 112.599 71.0013C120.406 63.5717 129.742 59.2845 140.146 56.8629C140.662 56.7403 141.177 56.6177 141.708 56.4914C158.262 53.2917 177.234 57.3846 190.167 68.3772Z" fill="#01B9F3"></path>
	  <path d="M152.5 53C167.136 53 179 41.1355 179 26.5C179 11.8645 167.136 0 152.5 0C137.864 0 126 11.8645 126 26.5C126 41.1355 137.864 53 152.5 53Z" fill="#01B9F3"></path>
	</symbol>
  </svg>