<svg width="20" height="16" viewBox="0 0 20 16" fill="none" xmlns="http://www.w3.org/2000/svg">
<path fill-rule="evenodd" clip-rule="evenodd" d="M17.9167 13.8333H2.08333C1.85417 13.8333 1.66667 13.6458 1.66667 13.4167V3.925L9.4725 10.3117C9.62583 10.4375 9.8125 10.5 10 10.5C10.1875 10.5 10.3742 10.4375 10.5275 10.3117L18.3333 3.925V13.4167C18.3333 13.6458 18.1458 13.8333 17.9167 13.8333ZM17.8508 2.16667L10 8.59L2.14917 2.16667H17.8508ZM17.9167 0.5H2.08333C0.934167 0.5 0 1.43417 0 2.58333V13.4167C0 14.5658 0.934167 15.5 2.08333 15.5H17.9167C19.0658 15.5 20 14.5658 20 13.4167V2.58333C20 1.43417 19.0658 0.5 17.9167 0.5Z" fill="#31313D"/>
</svg>
