<svg width="24" height="24" viewBox="0 0 24 24" fill="none" xmlns="http://www.w3.org/2000/svg">
<path fill-rule="evenodd" clip-rule="evenodd" d="M20.559 3.37292V0H22.4562V5.53846C22.4562 6.04892 22.0322 6.46154 21.5076 6.46154H15.8159V4.61538H19.1731C17.309 2.90308 14.7886 1.84615 12.0215 1.84615C8.35984 1.84615 5.14404 3.68308 3.27528 6.46154H1.08398C3.14247 2.62154 7.26894 0 12.0215 0C15.3435 0 18.344 1.29323 20.559 3.37292ZM3.48397 20.6271V24H1.58675V18.4615C1.58675 17.9511 2.01078 17.5385 2.53536 17.5385H8.22704V19.3846H4.86895C6.73392 21.2308 9.25438 22.1538 12.0215 22.1538C15.6831 22.1538 18.8989 20.3169 20.7677 17.5385H22.959C20.9005 21.3785 16.774 24 12.0215 24C8.69945 24 5.69898 22.7068 3.48397 20.6271ZM16.4422 8.47357L14.9159 9.39849C14.3907 8.76562 13.6672 8.36016 12.843 8.18314V11.0114C14.9105 11.444 16.65 12.0909 16.65 14.0591C16.65 15.8112 15.2211 17.0978 12.843 17.3203V19.3846H11.2V17.3073C9.34699 17.1054 7.9306 16.2681 7.16478 15.0311L8.79355 14.169C9.37505 15.0328 10.2437 15.5141 11.2 15.7039V12.542C9.31895 12.1387 7.71972 11.4538 7.71972 9.57111C7.71972 7.84931 9.13536 6.7629 11.2 6.56167V4.61538H12.843V6.58473C14.2724 6.76447 15.5699 7.37354 16.4422 8.47357ZM11.2 8.12545C10.3642 8.25067 9.74785 8.6451 9.74785 9.41511C9.74785 10.123 10.3448 10.4364 11.2 10.6615V8.12545ZM12.843 12.8617V15.7601C13.9274 15.6158 14.6209 15.0854 14.6209 14.2622C14.6209 13.4188 13.9055 13.0974 12.843 12.8617Z" fill="#31313D"/>
</svg>
