<svg width="20" height="20" viewBox="0 0 20 20" fill="none" xmlns="http://www.w3.org/2000/svg">
<path fill-rule="evenodd" clip-rule="evenodd" d="M8.75 11.25C8.75 11.9412 9.30875 12.5 10 12.5C10.6912 12.5 11.25 11.9412 11.25 11.25V5C11.25 4.30875 10.6912 3.75 10 3.75C9.30875 3.75 8.75 4.30875 8.75 5V11.25ZM10.0225 16.2725C10.725 16.2725 11.295 15.7037 11.295 15C11.295 14.2975 10.725 13.7275 10.0225 13.7275C9.32 13.7275 8.75 14.2975 8.75 15C8.75 15.7037 9.32 16.2725 10.0225 16.2725ZM10 0C15.5225 0 20 4.4775 20 10C20 15.5237 15.5225 20 10 20C4.4775 20 0 15.5237 0 10C0 4.4775 4.4775 0 10 0Z" fill="#EDA51F"/>
</svg>
