<svg width="20" height="17" viewBox="0 0 20 17" fill="none" xmlns="http://www.w3.org/2000/svg">
<path fill-rule="evenodd" clip-rule="evenodd" d="M13.3333 12.1667C13.3333 10.7883 14.455 9.66667 15.8333 9.66667C17.2117 9.66667 18.3333 10.7883 18.3333 12.1667C18.3333 13.545 17.2117 14.6667 15.8333 14.6667C14.455 14.6667 13.3333 13.545 13.3333 12.1667ZM8.33333 9.335V6.33333C8.33333 5.5 9.08083 4.66667 10 4.66667C10.9192 4.66667 11.6667 5.5 11.6667 6.33333V9.335C11.1742 9.02917 10.61 8.83333 10 8.83333C9.39 8.83333 8.82583 9.02917 8.33333 9.335ZM1.66667 12.1667C1.66667 10.7883 2.78833 9.66667 4.16667 9.66667C5.545 9.66667 6.66667 10.7883 6.66667 12.1667C6.66667 13.545 5.545 14.6667 4.16667 14.6667C2.78833 14.6667 1.66667 13.545 1.66667 12.1667ZM3.32 4.805C3.44083 4.12833 3.82 2.99167 5 2.99167C5.91917 2.99167 6.66667 3.74 6.66667 4.65833V8.855C5.96833 8.32583 5.10833 8 4.16667 8C3.58833 8 3.03833 8.11917 2.5375 8.3325L3.32 4.805ZM13.3333 4.65833C13.3333 3.74 14.0808 2.99167 15 2.99167C15.5775 2.99167 16.2917 3.20333 16.6867 4.83917L17.4625 8.3325C16.9617 8.11917 16.4108 8 15.8333 8C14.8917 8 14.0317 8.32583 13.3333 8.855V4.65833ZM18.31 4.46333C17.8983 2.75583 17.0983 1.94 16.2683 1.57917L16.1917 1.1775C16.1167 0.784167 15.7733 0.5 15.3733 0.5H14.1667C13.7067 0.5 13.3333 0.873333 13.3333 1.33333V1.78917C12.6392 2.19333 12.1108 2.83583 11.8525 3.60917C11.3217 3.2325 10.685 3 10 3C9.315 3 8.67833 3.2325 8.1475 3.60917C7.88917 2.83583 7.36083 2.19333 6.66667 1.78917V1.33333C6.66667 0.873333 6.29333 0.5 5.83333 0.5H4.62667C4.22667 0.5 3.88333 0.784167 3.80833 1.1775L3.73 1.59C2.68583 2.045 1.9375 3.06917 1.68667 4.4775L0.3475 10.5108C0.125833 11.0192 0 11.5775 0 12.1667C0 14.4642 1.86917 16.3333 4.16667 16.3333C6.46417 16.3333 8.33333 14.4642 8.33333 12.1667C8.33333 11.3333 9.08083 10.5 10 10.5C10.9192 10.5 11.6667 11.3333 11.6667 12.1667C11.6667 14.4642 13.5358 16.3333 15.8333 16.3333C18.1308 16.3333 20 14.4642 20 12.1667C20 11.5775 19.8742 11.0192 19.6525 10.5108L18.31 4.46333Z" fill="#31313D"/>
</svg>
