<svg width="24" height="24" viewBox="0 0 24 24" fill="none" xmlns="http://www.w3.org/2000/svg">
<path fill-rule="evenodd" clip-rule="evenodd" d="M19.82 2.91667H3.77531V13.4583H1.8877V1H21.7076V12.4521C21.2074 12.2987 20.6788 12.2221 20.1503 12.2221C20.0371 12.2221 19.9332 12.2221 19.82 12.2413V2.91667ZM14.1572 8.66637H17.9324V4.83304H14.1572V8.66637ZM22.6334 15.0846C21.1771 13.7899 19.0054 13.8235 17.5812 15.1584L15.3179 17.2917H15.049C15.0829 17.1307 15.1009 16.9639 15.1009 16.7933V13.4583H8.27056L4.50572 15.375H0V22.0833H4.49628L8.2715 24H17.0366L24 16.2998L22.6334 15.0846ZM8.71698 22.0833H16.207L21.2998 16.4502C20.5749 15.88 19.5462 15.9232 18.8638 16.5653L16.0569 19.2083H12.7414H12.2695H10.3818V17.2917H12.2695H12.7414C12.9971 17.2917 13.2133 17.0636 13.2133 16.7933V15.375H8.71792L5.66283 16.9294V20.5327L8.71698 22.0833ZM1.88761 20.1667H3.77522V17.2917H1.88761V20.1667ZM11.3257 9.62471H5.66292V7.70805H11.3257V9.62471ZM5.66292 12.4997H9.43814V10.583H5.66292V12.4997Z" fill="#31313D"/>
</svg>
