<svg width="48" height="43" viewBox="0 0 48 43" fill="none" xmlns="http://www.w3.org/2000/svg">
<path fill-rule="evenodd" clip-rule="evenodd" d="M47.293 35.3322L27.8991 2.52356C27.0552 1.09676 25.5973 0.246094 23.9995 0.246094C22.4017 0.246094 20.9458 1.09676 20.1019 2.52356L0.705975 35.3322C-0.243924 36.9388 -0.233925 38.9321 0.727973 40.5348C1.56988 41.9384 3.01973 42.7794 4.60556 42.7794H43.3955C44.9793 42.7794 46.4291 41.9384 47.273 40.5348C48.2349 38.9321 48.2429 36.9388 47.293 35.3322ZM21.9995 25.3773H25.9991V13.7773H21.9995V25.3773ZM21 31.8992C21 30.2964 22.3419 28.9992 23.9997 28.9992C25.6575 28.9992 26.9994 30.2964 26.9994 31.8992C26.9994 33.5019 25.6575 34.7992 23.9997 34.7992C22.3419 34.7992 21 33.5019 21 31.8992Z" fill="#EDA51F"/>
</svg>
