<svg width="20" height="20" viewBox="0 0 20 20" fill="none" xmlns="http://www.w3.org/2000/svg">
<path fill-rule="evenodd" clip-rule="evenodd" d="M10 20C15.5225 20 20 15.5225 20 10C20 4.47625 15.5225 0 10 0C4.4775 0 0 4.47625 0 10C0 15.5225 4.4775 20 10 20ZM10 7.5C10.6908 7.5 11.25 6.94083 11.25 6.25C11.25 5.55917 10.6908 5 10 5C9.30917 5 8.75 5.55917 8.75 6.25C8.75 6.94083 9.30917 7.5 10 7.5ZM10 8.33333C10.46 8.33333 10.8333 8.70667 10.8333 9.16667V12.5H11.6667V14.1667H8.33333V12.5H9.16667V10H8.33333V8.33333H10Z" fill="#3587DA"/>
</svg>
