<svg width="24" height="25" viewBox="0 0 24 25" fill="none" xmlns="http://www.w3.org/2000/svg">
<path fill-rule="evenodd" clip-rule="evenodd" d="M12 2.25C8.44154 2.25 5.49785 5.00446 5.08431 8.54631C2.21169 8.98108 0 11.5288 0 14.5962C0 17.9682 2.67231 20.7115 5.95754 20.7115H18.0415C21.3268 20.7115 24 17.9682 24 14.5962C24 11.5288 21.7883 8.98108 18.9148 8.54631C18.5012 5.00446 15.5575 2.25 12 2.25ZM5.95758 18.8654C3.6905 18.8654 1.84619 17.0654 1.84619 14.7115C1.84619 12.3577 3.6905 10.5577 5.95758 10.5577H6.46158V9.40382C6.46158 6.47767 9.17727 4.09613 12 4.09613C14.8219 4.09613 17.5385 6.47767 17.5385 9.40382V10.5577H18.0416C20.3087 10.5577 22.1539 12.3577 22.1539 14.7115C22.1539 17.0654 20.3087 18.8654 18.0416 18.8654H5.95758ZM12.9228 7.78839V13.8678L15.0394 11.7512L16.3446 13.0564L12.6523 16.7487C12.4723 16.9287 12.236 17.0192 11.9997 17.0192C11.7634 17.0192 11.5271 16.9287 11.3471 16.7487L7.65479 13.0564L8.96002 11.7512L11.0766 13.8678V7.78839H12.9228Z" fill="#212129"/>
</svg>
