<svg width="16" height="16" viewBox="0 0 16 16" fill="none" xmlns="http://www.w3.org/2000/svg">
    <path fill-rule="evenodd" clip-rule="evenodd" d="M13.5894 13.4238C13.1712 13.5616 12.9783 13.4335 12.5545 13.3792C12.3803 13.3557 12.2028 13.3606 12.0982 13.4108C11.9921 13.4667 11.9572 13.5632 12.0682 13.7342C12.3154 14.1045 12.4799 14.3736 12.5748 14.8072C12.6574 15.1792 13.1364 15.4628 13.5448 15.2327C13.6243 15.1921 13.903 15.0179 13.9428 14.9717C14.2418 14.6192 14.6154 13.8752 14.3885 13.5064C14.1988 13.1993 13.8803 13.3338 13.5894 13.4238ZM15.1589 5.25584C14.9378 4.90809 14.7469 4.82304 14.5069 4.48473C14.2335 4.10044 14.1365 3.63677 13.4435 3.32808C12.8494 3.06474 12.8985 2.06936 12.5564 1.51875C12.3391 1.16722 12.0915 0.174986 11.6707 0.010559C11.3645 -0.107879 11.3003 0.804974 11.299 1.00216C11.2965 1.45575 11.2127 1.80854 11.0564 2.23631C10.8895 2.69179 10.5279 2.7151 10.1329 2.55634C9.71331 2.3875 8.98694 1.94651 9.14065 1.45701C9.22948 1.17982 9.36241 0.547309 9.24082 0.396112C8.96237 0.0407984 7.88635 -0.0366901 7.42646 0.0181188C6.87459 0.0886775 6.69504 1.14139 6.25279 1.41732C5.76392 1.72035 5.68076 0.695356 5.1648 0.961841C4.29605 1.40724 3.64401 3.0786 2.76706 3.51203C2.09739 3.84467 0.662274 3.82766 0.259082 4.52379C-0.580063 5.97718 0.88529 7.7424 0.913639 9.10696C0.926239 9.73569 0.623215 10.1905 1.39117 10.3789C2.09991 10.5515 2.53019 10.0022 3.22381 9.83774C4.06358 9.63426 5.33742 8.94316 6.18979 8.79763C7.99974 8.4902 7.6564 9.62355 8.6543 10.0305C9.15199 10.2327 9.49912 9.23925 9.82734 9.80183C9.99996 10.0973 9.81285 10.561 10.136 10.7802C10.3937 10.9522 10.429 11.2319 10.6029 11.4644C10.8227 11.7592 11.1245 12.078 11.4785 12.2071C11.7406 12.3048 12.0077 12.1523 12.2748 12.1435C12.8853 12.1252 13.5594 12.2739 14.1031 11.9205C14.5831 11.6105 14.689 11.0448 14.8735 10.544C15.0644 10.0267 15.3939 9.58008 15.576 9.06349C15.821 8.36609 15.9426 7.61074 15.9968 6.87554C16.0472 6.20586 15.4878 5.77684 15.1589 5.25584Z" fill="#919194"/>
</svg>
