<svg width="23" height="23" viewBox="0 0 23 23" fill="none" xmlns="http://www.w3.org/2000/svg">
    <path fill-rule="evenodd" clip-rule="evenodd" d="M20.9866 14.432C20.9866 14.8102 20.6793 15.1185 20.3002 15.1185H19.1464V10.5177H20.3094C20.683 10.5177 20.9866 10.8214 20.9866 11.195V14.432ZM12.5084 8.11063C11.153 7.35888 10.854 5.77622 10.8522 5.7661C10.7822 5.3456 10.4335 5.02815 10.0084 4.9987C9.9863 4.99778 9.96514 4.99686 9.94489 4.99686C9.54463 4.99686 9.18761 5.25634 9.06616 5.6428C8.43678 7.65884 6.43546 7.7527 6.27259 7.7573C6.4281 4.68953 8.84164 2.24563 11.7852 2.24563C14.7655 2.24563 17.2012 4.75118 17.3033 7.8714C15.2652 8.66456 13.6522 8.74646 12.5084 8.11063ZM4.42402 15.1185H3.27016C2.89106 15.1185 2.58373 14.8148 2.58373 14.4412V11.195C2.58373 10.8214 2.89106 10.5177 3.27016 10.5177H4.42402V15.1185ZM20.3094 8.67744H19.1464V8.07383C19.1464 3.84484 15.8439 0.405334 11.7852 0.405334C7.72642 0.405334 4.42402 3.84484 4.42402 8.07383V8.67744H3.27016C1.87614 8.67744 0.743439 9.80738 0.743439 11.195V14.4412C0.743439 15.8297 1.87614 16.9588 3.27016 16.9588H4.78932C5.37361 18.7898 6.88633 19.9925 9.11768 20.3937C9.42041 21.5908 10.4951 22.4796 11.7852 22.4796C13.1829 22.4796 14.3257 21.4371 14.5079 20.09C14.5327 19.9704 14.5456 19.8462 14.5456 19.7192C14.5456 19.5922 14.5327 19.4689 14.5079 19.3484C14.3257 18.0013 13.1829 16.9588 11.7852 16.9588C10.6083 16.9588 9.61088 17.6985 9.2143 18.7365C7.83316 18.4512 6.26431 17.7087 6.26431 16.0423V16.0386V9.59759C7.14029 9.59759 8.69994 9.22401 9.81147 7.99101C10.197 8.60291 10.7638 9.24057 11.5892 9.70432C12.3796 10.1506 13.2841 10.3724 14.2972 10.3724C15.2118 10.3724 16.2203 10.18 17.3061 9.8175V15.1185C17.3061 16.241 16.9656 17.3544 16.0731 18.0546C16.2295 18.4494 16.3307 18.8635 16.3583 19.2959C16.3767 19.4349 16.3859 19.572 16.3859 19.7192C16.3859 19.8664 16.3767 20.0136 16.3583 20.1618C17.7358 19.6152 18.5952 18.5414 18.9494 16.9588H20.3002C21.6942 16.9588 22.8269 15.8261 22.8269 14.432V11.195C22.8269 9.80738 21.6979 8.67744 20.3094 8.67744Z" fill="#31313D"/>
</svg>
