<svg width="16" height="16" viewBox="0 0 16 16" fill="none" xmlns="http://www.w3.org/2000/svg">
	<path fill-rule="evenodd" clip-rule="evenodd" d="M6.58771 11.6191C6.59628 11.041 7.04912 10.5899 7.63123 10.5794C8.2522 10.5683 8.72046 11.0277 8.71474 11.6421C8.70917 12.2316 8.27248 12.6716 7.68123 12.6834C7.07097 12.6959 6.57886 12.2167 6.58771 11.6191ZM8.98871 5.40186C8.76257 4.87743 8.34143 4.63514 7.78443 4.72086C7.01214 4.83971 6.84271 5.42857 6.82686 6.14286H5.22471C4.94629 4.85714 5.66 3.58686 7.00957 3.43657C7.84657 3.34329 8.79871 3.40629 9.56329 3.72429C11.1663 4.39129 11.3597 6.40057 10.0397 7.53743C9.89571 7.66143 9.746 7.74486 9.59443 7.85971C8.70229 8.53543 8.70186 8.57143 8.48914 9.57143H6.91357C6.78871 8.85714 6.97214 8.199 7.52 7.67271C7.77529 7.42743 8.076 7.24571 8.36257 7.03471C9.00986 6.55814 9.24243 5.99043 8.98871 5.40186ZM10.366 15.6344C13.3047 14.6431 15.1141 12.6177 15.842 9.61214C15.8916 9.40743 15.9473 9.204 16 9V7C15.8956 6.589 15.8146 6.17014 15.6827 5.76814C14.6819 2.71557 12.6221 0.824857 9.473 0.137429C9.313 0.102571 9.15757 0.0462857 9 0H7C6.54314 0.119714 6.07729 0.212571 5.63086 0.363286C2.68986 1.35629 0.878143 3.382 0.155714 6.39343C0.107 6.59643 0.0521429 6.79786 0 7V9C0.119143 9.45486 0.209857 9.91928 0.361714 10.3627C1.39471 13.3789 3.46929 15.2234 6.599 15.8704C6.73586 15.8987 6.86657 15.9561 7 16H9C9.45586 15.8796 9.92029 15.7849 10.366 15.6344Z" fill="#919194"/>
</svg>
