<?xml version="1.0" encoding="UTF-8"?>
<svg width="24px" height="24px" viewBox="0 0 24 24" version="1.1" xmlns="http://www.w3.org/2000/svg" xmlns:xlink="http://www.w3.org/1999/xlink">
    <!-- Generator: Sketch 49.2 (51160) - http://www.bohemiancoding.com/sketch -->
    <title>icons/ic_chevron</title>
    <desc>Created with Sketch.</desc>
    <defs></defs>
    <g id="icons/ic_chevron" stroke="none" stroke-width="1" fill="none" fill-rule="evenodd">
        <path d="M19.6593106,10.5641481 L18.918973,9.84981574 C18.9064249,9.83770841 18.8876028,9.83367264 18.870872,9.81954742 L9.30922454,0.591745652 C8.49150709,-0.197248551 7.1676832,-0.197248551 6.3520571,0.591745652 L5.61171957,1.30406011 C4.79609348,2.09305432 4.79609348,3.37037741 5.61171957,4.15735373 L13.7366103,11.9988664 L5.61171957,19.8383613 C4.79609348,20.6253376 4.79609348,21.9046786 5.61171957,22.6936728 L6.3520571,23.4039694 C7.1676832,24.1929636 8.49150709,24.1929636 9.30922454,23.4039694 L18.870872,14.1781855 C18.8855114,14.1640603 18.9064249,14.1600245 18.918973,14.1458993 L19.6593106,13.4335848 C20.069215,13.0380788 20.2720758,12.5174637 20.2699845,11.9988664 C20.2720758,11.4782513 20.069215,10.9596541 19.6593106,10.5641481" id="Fill-1-Copy-15" fill="#807370" transform="translate(12.635000, 11.997858) rotate(-360.000000) translate(-12.635000, -11.997858) "></path>
    </g>
</svg>