<?xml version="1.0" encoding="UTF-8"?>
<svg width="80px" height="80px" viewBox="0 0 80 80" version="1.1" xmlns="http://www.w3.org/2000/svg" xmlns:xlink="http://www.w3.org/1999/xlink">
    <!-- Generator: Sketch 49.2 (51160) - http://www.bohemiancoding.com/sketch -->
    <title>icons/ic_complete</title>
    <desc>Created with Sketch.</desc>
    <defs></defs>
    <g id="icons/ic_complete" stroke="none" stroke-width="1" fill="none" fill-rule="evenodd">
        <path d="M67.6947382,11.1378657 C75.4046653,18.5347617 79.7679574,28.4950704 79.9912886,39.1754014 C80.2112866,49.8590658 76.2579906,59.9860464 68.8580606,67.6962853 C61.4614638,75.4065243 51.5048913,79.7733263 40.8216589,79.9933331 C40.5383283,79.9966666 40.2583309,80 39.9750003,80 C29.6050983,80 19.8085242,76.0632113 12.3019285,68.8596547 C4.59533472,61.4627588 0.228709335,51.5024501 0.0087114147,40.8221191 C-0.211286506,30.1384546 3.74200946,20.0114741 11.1386062,12.3012351 C18.5385362,4.59099617 28.4917755,0.227527597 39.1783411,0.00418734204 C49.8415737,-0.145817307 59.9848111,3.73763639 67.6947382,11.1378657 Z M64.048106,63.0794756 C70.2147144,56.6559432 73.5080166,48.2156816 73.324685,39.3120723 C72.9513552,21.1681766 58.0714959,6.66439376 40.0116666,6.66439376 C39.7783355,6.66439376 39.5450043,6.6677272 39.3150065,6.67106064 C30.4117573,6.85439965 22.1118358,10.4945125 15.9485607,16.9180449 C9.78528566,23.3415773 6.48865016,31.7818389 6.67531506,40.6854482 C7.05197817,59.0626844 22.3718333,73.7764738 40.6849936,73.3264598 C49.5849094,73.1431208 57.884831,69.503008 64.048106,63.0794756 Z M33.3323964,45.2762571 L25.6891353,37.6326869 L20.9758465,42.3461663 L30.975752,52.3464763 C31.6257459,52.9964964 32.4790711,53.3231732 33.3323964,53.3231732 C34.1857217,53.3231732 35.0390469,52.9964964 35.6890408,52.3464763 L59.0221535,29.0124197 L54.3088648,24.2989403 L33.3323964,45.2762571 Z" id="Mask" fill="#00AC3E" fill-rule="nonzero"></path>
    </g>
</svg>