<svg width="44" height="44" viewBox="0 0 44 44" fill="none" xmlns="http://www.w3.org/2000/svg">
    <circle cx="22" cy="22" r="22" fill="white"/>
    <path fill-rule="evenodd" clip-rule="evenodd" d="M22.5 20C18.7006 20 17 16.9866 17 13.9998C17 9.8553 19.7623 8 22.5 8C26.2994 8 28 11.0134 28 13.9998C28 18.1447 25.2377 20 22.5 20ZM22.5 10C20.3739 10 19 11.57 19 13.9998C19 16.43 20.3739 18 22.5 18C24.6262 18 26 16.43 26 13.9998C26 11.57 24.6262 10 22.5 10Z" fill="#535F67"/>
    <path fill-rule="evenodd" clip-rule="evenodd" d="M30.707 27.4141L29.293 26.0001L25.293 30.0001C24.902 30.3911 24.902 31.0231 25.293 31.4141L29.293 35.4141L30.707 34.0001L28.419 31.7121L35 31.7121L35 29.7121L28.409 29.7121L30.707 27.4141Z" fill="#535F67"/>
    <path fill-rule="evenodd" clip-rule="evenodd" d="M27 23.6504C25.631 23.2231 23.9215 23 22 23C18.6219 23 15.8989 23.6896 14.5295 24.9658C13.1757 26.2281 12.2001 28.0055 12 30.0423H23V32H10V31.0211C10 28.0541 11.0811 25.412 13.0447 23.5817C15.4548 21.3354 19.6898 21 22 21C23.2858 21 25.1681 21.1039 27 21.5834V23.6504Z" fill="#535F67"/>
</svg>
