<svg width="24" height="24" viewBox="0 0 24 24" fill="none" xmlns="http://www.w3.org/2000/svg">
<path fill-rule="evenodd" clip-rule="evenodd" d="M20.3084 3.34136C17.9954 1.12129 14.9525 -0.0437452 11.7535 0.0012562C8.54753 0.0682583 5.56156 1.3773 3.34158 3.69037C1.1226 6.00344 -0.0633859 9.04154 0.00261342 12.2466C0.0686128 15.4507 1.3786 18.4388 3.69058 20.6579C5.94256 22.819 8.88153 24 11.9925 24C12.0764 24 12.1593 23.999 12.2431 23.998L12.2465 23.998C15.4515 23.932 18.4384 22.622 20.6574 20.3089C22.8774 17.9958 24.0634 14.9577 23.9974 11.7526C23.9304 8.54852 22.6214 5.56043 20.3084 3.34136ZM19.2144 18.9238C17.3654 20.8509 14.8755 21.9429 12.2055 21.9979C6.71155 22.1329 2.11559 17.7188 2.00259 12.2056C1.9466 9.53455 2.93559 7.00247 4.78457 5.07541C6.63355 3.14835 9.12353 2.05632 11.7945 2.00132C11.8635 2.00032 11.9335 1.99932 12.0035 1.99932C17.4214 1.99932 21.8854 6.35045 21.9974 11.7936C22.0524 14.4647 21.0644 16.9968 19.2144 18.9238ZM7.70674 11.2898L9.99972 13.5829L16.2927 7.28968L17.7066 8.70373L10.7067 15.7039C10.5117 15.8989 10.2557 15.997 9.99972 15.997C9.74372 15.997 9.48772 15.8989 9.29273 15.7039L6.29275 12.7038L7.70674 11.2898Z" fill="#1D964F"/>
</svg>
