<?xml version='1.0' encoding='utf-8'?>
<svg version="1.1" xmlns="http://www.w3.org/2000/svg" viewBox="0 0 512 512" xmlns:xlink="http://www.w3.org/1999/xlink">
  <g>
    <g fill="#bc111e">

      <path d="
      	M497.6
      	,469.1
      	L274.2
      	,22.4
      	c-11.1
      	-19.3
      	-32.3
      	-10.4
      	-36.5
      	,0
      	L13
      	,471.4
      	c-7.7
      	,18
      	,8
      	,30.1
      	,18.3
      	,29.5
      	h449.2
      	c0.1
      	,0
      	,0.1
      	,0
      	,0.2
      	,0

      	C496.8
      	,501.8
      	,506.5
      	,482.7
      	,497.6
      	,469.1
      	z

      	M64.3
      	,460.2
      	l191.6
      	-383
      	l191.6
      	,383
      	H64.3
      	 z"/>

      <path d="m235.5,203.3v125.9c0,11.3 9.1,20.4 20.4,20.4 11.3,0 20.4-9.1 20.4-20.4v-125.9c0-11.3-9.1-20.4-20.4-20.4-11.3,0-20.4,9.1-20.4,20.4z"/>
      <ellipse cx="255.9" cy="401" rx="20.5" ry="20.5"/>
    </g>
  </g>
</svg>
