<svg width="20" height="20" viewBox="0 0 20 20" fill="none" xmlns="http://www.w3.org/2000/svg">
<path fill-rule="evenodd" clip-rule="evenodd" d="M8.75 8.75C8.75 8.05875 9.30875 7.5 10 7.5C10.6912 7.5 11.25 8.05875 11.25 8.75V15C11.25 15.6912 10.6912 16.25 10 16.25C9.30875 16.25 8.75 15.6912 8.75 15V8.75ZM10.0225 3.7275C10.725 3.7275 11.295 4.29625 11.295 5C11.295 5.7025 10.725 6.2725 10.0225 6.2725C9.32 6.2725 8.75 5.7025 8.75 5C8.75 4.29625 9.32 3.7275 10.0225 3.7275ZM10 20C15.5225 20 20 15.5225 20 10C20 4.47625 15.5225 0 10 0C4.4775 0 0 4.47625 0 10C0 15.5225 4.4775 20 10 20Z" fill="#3587DA"/>
</svg>
