<svg class="icon-ui" focusable="false" xmlns="http://www.w3.org/2000/svg" xmlns:xlink="http://www.w3.org/1999/xlink" viewBox="0 0 24 24">
	<symbol id="user" viewBox="0 0 24 24">
		<path id="a" d="M23.63 23.63H0v-.956c0-2.9 1.064-5.482 2.998-7.271 2.373-2.196 6.543-2.524 8.817-2.524 2.275 0 6.445.328 8.818 2.524 1.933 1.789 2.998 4.371 2.998 7.271v.957zM11.816 0c3.974 0 5.753 3.067 5.753 6.107 0 4.22-2.89 6.108-5.753 6.108-3.973 0-5.752-3.067-5.752-6.108C6.063 1.89 8.953 0 11.815 0z"></path>
	</symbol>
	<symbol id="info" viewBox="0 0 24 24">
		<path d="M12 0C5.37 0 0 5.37 0 12s5.37 12 12 12 12-5.37 12-12S18.63 0 12 0zm1.5 18.94h-3v-9.2h3v9.2zM12.05 7.87c-.92.02-1.65-.7-1.64-1.6.01-.87.69-1.54 1.57-1.56.92-.01 1.62.68 1.62 1.6-.01.88-.67 1.54-1.55 1.56z"></path>
	</symbol>
	<symbol id="help" viewBox="0 0 24 24">
		<path d="M12 0C5.37 0 0 5.37 0 12s5.37 12 12 12 12-5.37 12-12S18.63 0 12 0zm-.48 19.05c-.92.02-1.65-.7-1.64-1.6.01-.87.69-1.54 1.57-1.56.93-.02 1.63.67 1.63 1.59-.02.9-.67 1.56-1.56 1.57zm3.54-7.72c-.22.19-.44.31-.67.48-1.34 1.01-1.34 1.07-1.66 2.57h-2.36c-.19-1.07.09-2.06.91-2.85.38-.37.83-.64 1.26-.96.97-.72 1.32-1.57.94-2.45-.34-.79-.97-1.15-1.81-1.02-1.16.18-1.41 1.06-1.44 2.13h-2.4c-.42-1.93.65-3.83 2.68-4.06 1.26-.14 2.68-.05 3.83.43 2.41 1.02 2.7 4.03.72 5.73z"></path>
	</symbol>
	<symbol id="australia" viewBox="0 0 24 24">
		<path d="M22.83 8.61l-.95-1.16c-.41-.54-.54-1.22-1.63-1.7-.88-.41-.88-1.91-1.36-2.72-.27-.54-.68-1.97-1.36-2.25-.48-.2-.54 1.22-.54 1.5 0 .68-.07 1.22-.41 1.91-.27.68-.75.75-1.43.48-.68-.27-1.7-.95-1.5-1.63.07-.41.41-1.36.2-1.63-.41-.54-1.97-.68-2.72-.54-.88.07-1.16 1.7-1.77 2.11-.75.46-.89-1.04-1.64-.7-1.36.69-2.24 3.2-3.6 3.82C3.1 6.5.99 6.5.37 7.59c-1.22 2.18.95 4.83.95 6.94 0 .95-.48 1.63.75 1.91 1.02.27 1.7-.54 2.72-.88l4.42-1.63c2.72-.48 2.18 1.22 3.67 1.91.75.27 1.22-1.22 1.77-.41.27.48 0 1.16.48 1.5.41.27.48.68.68 1.02.27.48.75.95 1.36 1.16.41.2.75-.07 1.22-.07.95 0 1.91.2 2.72-.41.75-.48.88-1.36 1.16-2.11l1.02-2.18c.41-1.02.54-2.18.68-3.33.15-.97-.67-1.51-1.14-2.4zm-2.45 12.11c-.54.2-.88 0-1.43-.07h-.68c-.2.07-.2.2 0 .48.41.48.54.88.68 1.43.07.48.75.88 1.36.54l.54-.41c.41-.48.95-1.5.54-1.97-.19-.27-.67-.06-1.01 0z"></path>
	</symbol>
	<symbol id="chevron" viewBox="0 0 24 24">
        <path d="M19.6593106,10.5641481 L18.918973,9.84981574 C18.9064249,9.83770841 18.8876028,9.83367264 18.870872,9.81954742 L9.30922454,0.591745652 C8.49150709,-0.197248551 7.1676832,-0.197248551 6.3520571,0.591745652 L5.61171957,1.30406011 C4.79609348,2.09305432 4.79609348,3.37037741 5.61171957,4.15735373 L13.7366103,11.9988664 L5.61171957,19.8383613 C4.79609348,20.6253376 4.79609348,21.9046786 5.61171957,22.6936728 L6.3520571,23.4039694 C7.1676832,24.1929636 8.49150709,24.1929636 9.30922454,23.4039694 L18.870872,14.1781855 C18.8855114,14.1640603 18.9064249,14.1600245 18.918973,14.1458993 L19.6593106,13.4335848 C20.069215,13.0380788 20.2720758,12.5174637 20.2699845,11.9988664 C20.2720758,11.4782513 20.069215,10.9596541 19.6593106,10.5641481" transform="translate(12.635000, 11.997858) rotate(-360.000000) translate(-12.635000, -11.997858) "></path>
	</symbol>
	<symbol id="close" viewBox="0 0 24 24">
		<path d="M12 7.9L4.35.59C3.52-.2 2.19-.2 1.36.59l-.74.71c-.82.79-.82 2.07 0 2.85l7.97 7.61-.02.24.01.23-7.97 7.61a1.97 1.97 0 0 0 0 2.86l.75.71c.82.79 2.16.79 2.99 0L12 16.1l7.65 7.3c.83.79 2.16.79 2.99 0l.75-.71c.82-.79.82-2.07 0-2.86l-7.97-7.61.01-.22-.01-.23 7.97-7.61c.82-.79.82-2.06 0-2.85L22.64.6c-.82-.79-2.16-.79-2.99 0L12 7.9z"></path>
	</symbol>
	<symbol id="warning-outline" viewBox="0 0 512 512">
	    <g fill="#bc111e">
			<path d="M497.6,469.1L274.2,22.4c-11.1-19.3-32.3-10.4-36.5,0L13,471.4c-7.7,18,8,30.1,18.3,29.5h449.2c0.1,0,0.1,0,0.2,0    C496.8,501.8,506.5,482.7,497.6,469.1z M64.3,460.2l191.6-383l191.6,383H64.3z"/>
			<path d="m235.5,203.3v125.9c0,11.3 9.1,20.4 20.4,20.4 11.3,0 20.4-9.1 20.4-20.4v-125.9c0-11.3-9.1-20.4-20.4-20.4-11.3,0-20.4,9.1-20.4,20.4z"/>
			<ellipse cx="255.9" cy="401" rx="20.5" ry="20.5"/>
	    </g>
	</symbol>
</svg>