<?xml version="1.0" encoding="UTF-8"?>
<svg width="103px" height="100px" viewBox="0 0 103 100" version="1.1" xmlns="http://www.w3.org/2000/svg" xmlns:xlink="http://www.w3.org/1999/xlink">
    <!-- Generator: Sketch 49.2 (51160) - http://www.bohemiancoding.com/sketch -->
    <title>illu-FAQ-error-no-loading Copy</title>
    <desc>Created with Sketch.</desc>
    <defs></defs>
    <g id="Forms" stroke="none" stroke-width="1" fill="none" fill-rule="evenodd">
        <g id="13---11---Form---Missing-Late-Item---500-/-503-error-Copy" transform="translate(-109.000000, -139.000000)" fill-rule="nonzero">
            <g id="Group-6" transform="translate(0.000000, 60.000000)">
                <g id="Group-5" transform="translate(30.000000, 79.000000)">
                    <g id="illu-FAQ-error-no-loading-Copy" transform="translate(79.000000, 0.000000)">
                        <path d="M4.09686251,99.8321368 L98.4051845,99.8883009 C100.671207,99.8901726 102.507796,98.1041795 102.509714,95.900706 C102.509714,95.900706 102.542555,43.4523687 102.558976,17.2281999 C102.561726,12.8358824 102.567227,4.05124742 102.567227,4.05124742 C102.567227,1.847774 100.734471,0.0580368776 98.4684486,0.0561647677 L4.16012709,1.46890216e-06 C1.89793898,-0.00187064106 0.059431865,1.78599437 0.0575147565,3.98946779 L1.49950315e-06,95.8389265 C-0.00191560907,98.0424 1.8346744,99.8321368 4.09686251,99.8321368 Z" id="Fill-1-Copy" fill="#EDEDED"></path>
                        <path d="M4.09686251,99.8302145 L98.4051845,99.8883 C100.671207,99.8902368 102.507796,98.0431162 102.509714,95.7642256 L102.558976,14.3990534 L1.49950315e-06,95.7003316 C-0.00191560907,97.9792214 1.8346744,99.8302145 4.09686251,99.8302145 Z" id="Fill-1-Copy-3" fill="#FFFFFF"></path>
                        <path d="M102.561473,12.6409538 L102.567227,4.20199627 C102.567227,1.91547393 100.733545,0.0582816194 98.4663792,0.0582816194 L4.1104381,1.52586076e-06 C1.84710774,-0.00194114392 0.00767230631,1.85136583 0.00575422973,4.13983084 L0,12.6409538 L102.561473,12.6409538" id="Fill-2" fill="#262521"></path>
                        <path d="M7.1407563,8.71789915 C8.45511065,8.71789915 9.52100836,7.64431248 9.52100836,6.32047691 C9.52100836,4.99664134 8.45511065,3.92305463 7.1407563,3.92305463 C5.82640195,3.92305463 4.7605042,4.99664134 4.7605042,6.32047691 C4.7605042,7.64431248 5.82640195,8.71789915 7.1407563,8.71789915" id="Fill-7" fill="#CDC4C2"></path>
                        <path d="M14.4978992,8.71789915 C15.8122535,8.71789915 16.8781513,7.64431248 16.8781513,6.32047691 C16.8781513,4.99664134 15.8122535,3.92305463 14.4978992,3.92305463 C13.1835448,3.92305463 12.117647,4.99664134 12.117647,6.32047691 C12.117647,7.64431248 13.1835448,8.71789915 14.4978992,8.71789915" id="Fill-8" fill="#C2BFBA"></path>
                        <path d="M21.855042,8.71789915 C23.1693964,8.71789915 24.2352941,7.64431248 24.2352941,6.32047691 C24.2352941,4.99664134 23.1693964,3.92305463 21.855042,3.92305463 C20.5406877,3.92305463 19.4747899,4.99664134 19.4747899,6.32047691 C19.4747899,7.64431248 20.5406877,8.71789915 21.855042,8.71789915" id="Fill-9" fill="#DA0612"></path>
                        <g id="Fill-1-+-Fill-1-Copy-2" transform="translate(15.843698, 26.348364)">
                            <path d="M55.3278371,49.5104474 C51.6067958,49.5104474 48.582079,46.4787657 48.582079,42.749724 C48.582079,39.0023307 51.6077096,35.9578029 55.3278371,35.9578029 C59.050706,35.9578029 62.0790781,39.0023307 62.0790781,42.749724 C62.0790781,46.4787657 59.050706,49.5104474 55.3278371,49.5104474 Z M67.6624678,46.8586436 C69.7815971,46.8586436 71.5041322,45.1290068 71.5041322,43.0029758 C71.5023046,40.8769449 69.7806833,39.1482257 67.661554,39.1482257 L66.870193,39.1482257 C66.6993102,38.6215353 66.4918749,38.1049382 66.2478872,37.6030224 L66.5805147,37.2736115 C67.2996845,36.5514767 67.7136412,35.5577385 67.7136412,34.5529892 C67.7136412,33.5500752 67.3179607,32.5847819 66.5805147,31.8130978 C65.1238988,30.3523118 62.6008646,30.3559821 61.1442487,31.8130978 L60.8426908,32.1149814 C60.3071972,31.83879 59.7552549,31.6130656 59.1932607,31.4313849 L59.1932607,30.3523118 C59.1932607,28.2244456 57.4679841,26.4957265 55.35251,26.4957265 C53.2342944,26.4957265 51.5099317,28.2244456 51.5099317,30.3523118 L51.5099317,31.4277145 C51.0119043,31.5901261 50.5303255,31.7846528 50.067023,32.0122125 L49.3323184,31.2772315 C47.8354948,29.8292916 45.3654616,29.839385 43.9051906,31.3020062 C42.4403503,32.800413 42.4385227,35.2402561 43.9134148,36.7524265 L44.5512554,37.3938144 C44.2551804,37.9627134 44.0121065,38.5499641 43.820206,39.1482257 L42.9986893,39.1482257 C40.8823014,39.1482257 39.1570248,40.8769449 39.1570248,43.0066462 C39.1570248,45.1326771 40.8823014,46.8623138 42.9986893,46.8623138 L43.8256889,46.8623138 C44.004796,47.426625 44.2341628,47.9799253 44.5028234,48.521297 L43.7059795,49.3223436 C42.9831545,50.0444785 42.5746806,51.0382167 42.5746806,52.0429659 C42.5746806,53.0467975 42.9685335,54.0157611 43.7059795,54.7819397 C45.1607678,56.2436433 47.688371,56.2436433 49.144987,54.7819397 L49.9655898,53.9579536 C50.4654449,54.2075351 50.9817485,54.4176608 51.5090179,54.5837426 L51.5090179,55.1159385 C51.5090179,57.2456398 53.2333806,58.974359 55.35251,58.974359 C57.4670703,58.974359 59.1923469,57.2456398 59.1923469,55.1159385 L59.1923469,54.582825 C59.7908936,54.3901334 60.3766468,54.1442222 60.948693,53.8432562 L61.3717878,54.2598372 C62.8055584,55.7031892 65.3422997,55.7077771 66.7879499,54.2598372 C68.2856873,52.7504194 68.2856873,50.3032358 66.7879499,48.8002411 L66.2990607,48.3065835 C66.525686,47.8404532 66.7221555,47.3559715 66.8811587,46.8586436 L67.6624678,46.8586436 Z" id="Fill-1" fill="#BBB4B2"></path>
                            <path d="M22.9795754,33.3107802 C17.6917798,33.3107802 13.393498,28.92282 13.393498,23.5255227 C13.393498,18.1016639 17.6930783,13.6951107 22.9795754,13.6951107 C28.2699681,13.6951107 32.5734441,18.1016639 32.5734441,23.5255227 C32.5734441,28.92282 28.2699681,33.3107802 22.9795754,33.3107802 Z M40.5077347,29.4726431 C43.5191291,29.4726431 45.9669421,26.9692215 45.9669421,23.8920715 C45.9660243,22.8045491 45.6598494,21.7888541 45.1313654,20.9300529 C44.164501,19.3588716 42.4535475,18.3128279 40.5064361,18.3128279 L39.3818706,18.3128279 C39.1390372,17.5505127 38.8442607,16.8028064 38.4975413,16.0763493 L38.9702225,15.5995703 C39.9922006,14.5543753 40.5804549,13.1160699 40.5804549,11.6618276 C40.5804549,10.2102415 40.0181721,8.8131065 38.9702225,7.69619533 C36.9002946,5.58189974 33.3149303,5.58721203 31.2450024,7.69619533 L30.8164728,8.13313204 C30.0555081,7.73338144 29.2711691,7.40667496 28.4725457,7.14371608 L28.4725457,5.58189974 C28.4725457,2.50209353 26.020837,0 23.0146368,0 C20.0045411,0 17.5541308,2.50209353 17.5541308,5.58189974 L17.5541308,7.13840378 C16.8464077,7.37347308 16.1620589,7.655025 15.5036816,7.98438763 L14.4596277,6.92059946 C12.3325626,4.82489691 8.82251556,4.83950574 6.74739339,6.95645749 C4.66577838,9.12520419 4.66318123,12.6565559 6.75908056,14.8452237 L7.6654856,15.7735482 C7.24474745,16.5969548 6.89932662,17.4469229 6.62662596,18.3128279 L5.45920744,18.3128279 C2.45170876,18.3128279 0,20.8149214 0,23.8973838 C0,26.9745338 2.45170876,29.4779554 5.45920744,29.4779554 L6.63441741,29.4779554 C6.88893802,30.2947216 7.21488023,31.0955509 7.59666116,31.8791152 L6.46430414,33.0385248 C5.43713167,34.0837199 4.85666885,35.5220253 4.85666885,36.9762675 C4.85666885,38.4291817 5.41635448,39.8316291 6.46430414,40.9405718 C8.5316348,43.0561955 12.1234921,43.0561955 14.1934199,40.9405718 L15.3595399,39.7479603 C16.0698601,40.1091968 16.8035548,40.413326 17.5528323,40.6537075 L17.5528323,41.4239911 C17.5528323,42.0195773 17.6443136,42.5934965 17.8136471,43.1318866 C18.5207005,45.3799399 20.585097,47.008547 23.0146368,47.008547 C26.0195384,47.008547 28.4712471,44.5064535 28.4712471,41.4239911 L28.4712471,40.6523795 C29.3218135,40.3734837 30.1541998,40.0175596 30.9671075,39.5819509 L31.5683475,40.184897 C33.6058109,42.2739592 37.2106539,42.2805996 39.2649988,40.184897 C41.3933626,38.0002134 41.3933626,34.4582371 39.2649988,32.2828501 L38.5702615,31.5683456 C38.892308,30.8936835 39.1715015,30.1924598 39.3974534,29.4726431 L40.5077347,29.4726431 Z" id="Fill-1-Copy-2" fill="#ACA5A2"></path>
                            <path d="M22.9795754,33.3107802 C17.6917798,33.3107802 13.393498,28.92282 13.393498,23.5255227 C13.393498,18.1016639 17.6930783,13.6951107 22.9795754,13.6951107 C28.2699681,13.6951107 32.5734441,18.1016639 32.5734441,23.5255227 C32.5734441,28.92282 28.2699681,33.3107802 22.9795754,33.3107802 Z M45.1313654,20.9300529 C44.164501,19.3588716 42.4535475,18.3128279 40.5064361,18.3128279 L39.3818706,18.3128279 C39.1390372,17.5505127 38.8442607,16.8028064 38.4975413,16.0763493 L38.9702225,15.5995703 C39.9922006,14.5543753 40.5804549,13.1160699 40.5804549,11.6618276 C40.5804549,10.2102415 40.0181721,8.8131065 38.9702225,7.69619533 C36.9002946,5.58189974 33.3149303,5.58721203 31.2450024,7.69619533 L30.8164728,8.13313204 C30.0555081,7.73338144 29.2711691,7.40667496 28.4725457,7.14371608 L28.4725457,5.58189974 C28.4725457,2.50209353 26.020837,0 23.0146368,0 C20.0045411,0 17.5541308,2.50209353 17.5541308,5.58189974 L17.5541308,7.13840378 C16.8464077,7.37347308 16.1620589,7.655025 15.5036816,7.98438763 L14.4596277,6.92059946 C12.3325626,4.82489691 8.82251556,4.83950574 6.74739339,6.95645749 C4.66577838,9.12520419 4.66318123,12.6565559 6.75908056,14.8452237 L7.6654856,15.7735482 C7.24474745,16.5969548 6.89932662,17.4469229 6.62662596,18.3128279 L5.45920744,18.3128279 C2.45170876,18.3128279 0,20.8149214 0,23.8973838 C0,26.9745338 2.45170876,29.4779554 5.45920744,29.4779554 L6.63441741,29.4779554 C6.88893802,30.2947216 7.21488023,31.0955509 7.59666116,31.8791152 L6.46430414,33.0385248 C5.43713167,34.0837199 4.85666885,35.5220253 4.85666885,36.9762675 C4.85666885,38.4291817 5.41635448,39.8316291 6.46430414,40.9405718 C8.5316348,43.0561955 12.1234921,43.0561955 14.1934199,40.9405718 L15.3595399,39.7479603 C16.0698601,40.1091968 16.8035548,40.413326 17.5528323,40.6537075 L17.5528323,41.4239911 C17.5528323,42.0195773 17.6360823,42.203581 17.8054157,42.7419711 C25.0701296,36.8714117 41.6070827,24.2498838 45.1313654,20.9300529 Z" id="Fill-1-Copy-5" fill="#A59F9C"></path>
                        </g>
                    </g>
                </g>
            </g>
        </g>
    </g>
</svg>