<?xml version="1.0" encoding="UTF-8"?>
<svg width="138px" height="80px" viewBox="0 0 138 80" version="1.1" xmlns="http://www.w3.org/2000/svg" xmlns:xlink="http://www.w3.org/1999/xlink">
    <!-- Generator: Sketch 49.2 (51160) - http://www.bohemiancoding.com/sketch -->
    <title>Group 6</title>
    <desc>Created with Sketch.</desc>
    <defs>
        <polygon id="path-1" points="0.000123180424 0.388888889 48.8842744 0.388888889 48.8842744 49.3826543 0.000123180424 49.3826543"></polygon>
        <polygon id="path-3" points="0 50 72.6415094 50 72.6415094 0.943396226 0 0.943396226"></polygon>
        <polygon id="path-5" points="0 69.8678873 75.3091549 69.8678873 75.3091549 0 0 0"></polygon>
    </defs>
    <g id="Forms" stroke="none" stroke-width="1" fill="none" fill-rule="evenodd">
        <g id="13---11---Form---Missing-Late-Item---Within-EDD---Unauth-Copy" transform="translate(-91.000000, -519.000000)">
            <g id="Group-7" transform="translate(30.000000, 519.000000)">
                <g id="Group-6" transform="translate(62.000000, 0.000000)">
                    <g id="Page-1" transform="translate(64.000000, 0.000000)">
                        <g id="Group-3">
                            <mask id="mask-2" fill="white">
                                <use xlink:href="#path-1"></use>
                            </mask>
                            <g id="Clip-2"></g>
                            <path d="M48.8842744,46.757963 C48.8842744,48.2017901 47.7054377,49.3826543 46.2654586,49.3826543 L2.61893899,49.3826543 C1.17834393,49.3826543 0.000123180424,48.2017901 0.000123180424,46.757963 L0.000123180424,3.01351852 C0.000123180424,1.56969136 1.17834393,0.38882716 2.61893899,0.38882716 L46.2654586,0.38882716 C47.7054377,0.38882716 48.8842744,1.56969136 48.8842744,3.01351852 L48.8842744,46.757963 Z" id="Fill-1" fill="#8177E7" mask="url(#mask-2)"></path>
                        </g>
                        <mask id="mask-4" fill="white">
                            <use xlink:href="#path-3"></use>
                        </mask>
                        <g id="Clip-5"></g>
                        <polygon id="Fill-4" fill="#FFFFFF" mask="url(#mask-4)" points="6.60377358 12.2641509 8.49056604 12.2641509 8.49056604 7.54716981 6.60377358 7.54716981"></polygon>
                        <polygon id="Fill-6" fill="#5044DE" mask="url(#mask-4)" points="10.3773585 12.2641509 12.2641509 12.2641509 12.2641509 7.54716981 10.3773585 7.54716981"></polygon>
                        <polygon id="Fill-7" fill="#FFFFFF" mask="url(#mask-4)" points="14.1509434 12.2641509 16.0377358 12.2641509 16.0377358 7.54716981 14.1509434 7.54716981"></polygon>
                        <polygon id="Fill-8" fill="#FFFFFF" mask="url(#mask-4)" points="17.9245283 12.2641509 19.8113208 12.2641509 19.8113208 7.54716981 17.9245283 7.54716981"></polygon>
                        <polygon id="Fill-9" fill="#FFFFFF" mask="url(#mask-4)" points="21.6981132 12.2641509 23.5849057 12.2641509 23.5849057 7.54716981 21.6981132 7.54716981"></polygon>
                        <polygon id="Fill-10" fill="#5044DE" mask="url(#mask-4)" points="25.4716981 12.2641509 27.3584906 12.2641509 27.3584906 7.54716981 25.4716981 7.54716981"></polygon>
                        <polygon id="Fill-11" fill="#5044DE" mask="url(#mask-4)" points="29.245283 12.2641509 31.1320755 12.2641509 31.1320755 7.54716981 29.245283 7.54716981"></polygon>
                        <polygon id="Fill-12" fill="#5044DE" mask="url(#mask-4)" points="33.0188679 12.2641509 34.9056604 12.2641509 34.9056604 7.54716981 33.0188679 7.54716981"></polygon>
                        <polygon id="Fill-13" fill="#FFFFFF" mask="url(#mask-4)" points="36.7924528 12.2641509 38.6792453 12.2641509 38.6792453 7.54716981 36.7924528 7.54716981"></polygon>
                        <polygon id="Fill-14" fill="#FFFFFF" mask="url(#mask-4)" points="40.5660377 12.2641509 42.4528302 12.2641509 42.4528302 7.54716981 40.5660377 7.54716981"></polygon>
                        <polygon id="Fill-15" fill="#FFFFFF" mask="url(#mask-4)" points="6.60377358 17.9245283 8.49056604 17.9245283 8.49056604 13.2075472 6.60377358 13.2075472"></polygon>
                        <polygon id="Fill-16" fill="#FFFFFF" mask="url(#mask-4)" points="10.3773585 17.9245283 12.2641509 17.9245283 12.2641509 13.2075472 10.3773585 13.2075472"></polygon>
                        <polygon id="Fill-17" fill="#5044DE" mask="url(#mask-4)" points="14.1509434 17.9245283 16.0377358 17.9245283 16.0377358 13.2075472 14.1509434 13.2075472"></polygon>
                        <polygon id="Fill-18" fill="#5044DE" mask="url(#mask-4)" points="17.9245283 17.9245283 19.8113208 17.9245283 19.8113208 13.2075472 17.9245283 13.2075472"></polygon>
                        <polygon id="Fill-19" fill="#FFFFFF" mask="url(#mask-4)" points="21.6981132 17.9245283 23.5849057 17.9245283 23.5849057 13.2075472 21.6981132 13.2075472"></polygon>
                        <polygon id="Fill-20" fill="#5044DE" mask="url(#mask-4)" points="25.4716981 17.9245283 27.3584906 17.9245283 27.3584906 13.2075472 25.4716981 13.2075472"></polygon>
                        <polygon id="Fill-21" fill="#5044DE" mask="url(#mask-4)" points="29.245283 17.9245283 31.1320755 17.9245283 31.1320755 13.2075472 29.245283 13.2075472"></polygon>
                        <polygon id="Fill-22" fill="#FFFFFF" mask="url(#mask-4)" points="33.0188679 17.9245283 34.9056604 17.9245283 34.9056604 13.2075472 33.0188679 13.2075472"></polygon>
                        <polygon id="Fill-23" fill="#FFFFFF" mask="url(#mask-4)" points="36.7924528 17.9245283 38.6792453 17.9245283 38.6792453 13.2075472 36.7924528 13.2075472"></polygon>
                        <polygon id="Fill-24" fill="#5044DE" mask="url(#mask-4)" points="40.5660377 17.9245283 42.4528302 17.9245283 42.4528302 13.2075472 40.5660377 13.2075472"></polygon>
                        <polygon id="Fill-25" fill="#FFFFFF" mask="url(#mask-4)" points="6.60377358 24.5283019 8.49056604 24.5283019 8.49056604 19.8113208 6.60377358 19.8113208"></polygon>
                        <polygon id="Fill-26" fill="#5044DE" mask="url(#mask-4)" points="10.3773585 24.5283019 12.2641509 24.5283019 12.2641509 19.8113208 10.3773585 19.8113208"></polygon>
                        <polygon id="Fill-27" fill="#5044DE" mask="url(#mask-4)" points="14.1509434 24.5283019 16.0377358 24.5283019 16.0377358 19.8113208 14.1509434 19.8113208"></polygon>
                        <polygon id="Fill-28" fill="#FFFFFF" mask="url(#mask-4)" points="17.9245283 24.5283019 19.8113208 24.5283019 19.8113208 19.8113208 17.9245283 19.8113208"></polygon>
                        <polygon id="Fill-29" fill="#5044DE" mask="url(#mask-4)" points="21.6981132 24.5283019 23.5849057 24.5283019 23.5849057 19.8113208 21.6981132 19.8113208"></polygon>
                        <polygon id="Fill-30" fill="#5044DE" mask="url(#mask-4)" points="25.4716981 24.5283019 27.3584906 24.5283019 27.3584906 19.8113208 25.4716981 19.8113208"></polygon>
                        <polygon id="Fill-31" fill="#5044DE" mask="url(#mask-4)" points="29.245283 24.5283019 31.1320755 24.5283019 31.1320755 19.8113208 29.245283 19.8113208"></polygon>
                        <polygon id="Fill-32" fill="#FFFFFF" mask="url(#mask-4)" points="33.0188679 24.5283019 34.9056604 24.5283019 34.9056604 19.8113208 33.0188679 19.8113208"></polygon>
                        <polygon id="Fill-33" fill="#FFFFFF" mask="url(#mask-4)" points="36.7924528 24.5283019 38.6792453 24.5283019 38.6792453 19.8113208 36.7924528 19.8113208"></polygon>
                        <polygon id="Fill-34" fill="#5044DE" mask="url(#mask-4)" points="40.5660377 24.5283019 42.4528302 24.5283019 42.4528302 19.8113208 40.5660377 19.8113208"></polygon>
                        <polygon id="Fill-35" fill="#5044DE" mask="url(#mask-4)" points="6.60377358 30.1886792 8.49056604 30.1886792 8.49056604 25.4716981 6.60377358 25.4716981"></polygon>
                        <polygon id="Fill-36" fill="#5044DE" mask="url(#mask-4)" points="10.3773585 30.1886792 12.2641509 30.1886792 12.2641509 25.4716981 10.3773585 25.4716981"></polygon>
                        <polygon id="Fill-37" fill="#5044DE" mask="url(#mask-4)" points="14.1509434 30.1886792 16.0377358 30.1886792 16.0377358 25.4716981 14.1509434 25.4716981"></polygon>
                        <polygon id="Fill-38" fill="#FFFFFF" mask="url(#mask-4)" points="17.9245283 30.1886792 19.8113208 30.1886792 19.8113208 25.4716981 17.9245283 25.4716981"></polygon>
                        <polygon id="Fill-39" fill="#FFFFFF" mask="url(#mask-4)" points="21.6981132 30.1886792 23.5849057 30.1886792 23.5849057 25.4716981 21.6981132 25.4716981"></polygon>
                        <polygon id="Fill-40" fill="#FFFFFF" mask="url(#mask-4)" points="25.4716981 30.1886792 27.3584906 30.1886792 27.3584906 25.4716981 25.4716981 25.4716981"></polygon>
                        <polygon id="Fill-41" fill="#FFFFFF" mask="url(#mask-4)" points="29.245283 30.1886792 31.1320755 30.1886792 31.1320755 25.4716981 29.245283 25.4716981"></polygon>
                        <polygon id="Fill-42" fill="#5044DE" mask="url(#mask-4)" points="33.0188679 30.1886792 34.9056604 30.1886792 34.9056604 25.4716981 33.0188679 25.4716981"></polygon>
                        <polygon id="Fill-43" fill="#5044DE" mask="url(#mask-4)" points="36.7924528 30.1886792 38.6792453 30.1886792 38.6792453 25.4716981 36.7924528 25.4716981"></polygon>
                        <polygon id="Fill-44" fill="#5044DE" mask="url(#mask-4)" points="40.5660377 30.1886792 42.4528302 30.1886792 42.4528302 25.4716981 40.5660377 25.4716981"></polygon>
                        <polygon id="Fill-45" fill="#FFFFFF" mask="url(#mask-4)" points="6.60377358 36.7924528 8.49056604 36.7924528 8.49056604 32.0754717 6.60377358 32.0754717"></polygon>
                        <polygon id="Fill-46" fill="#FFFFFF" mask="url(#mask-4)" points="10.3773585 36.7924528 12.2641509 36.7924528 12.2641509 32.0754717 10.3773585 32.0754717"></polygon>
                        <polygon id="Fill-47" fill="#FFFFFF" mask="url(#mask-4)" points="14.1509434 36.7924528 16.0377358 36.7924528 16.0377358 32.0754717 14.1509434 32.0754717"></polygon>
                        <polygon id="Fill-48" fill="#5044DE" mask="url(#mask-4)" points="17.9245283 36.7924528 19.8113208 36.7924528 19.8113208 32.0754717 17.9245283 32.0754717"></polygon>
                        <polygon id="Fill-49" fill="#5044DE" mask="url(#mask-4)" points="21.6981132 36.7924528 23.5849057 36.7924528 23.5849057 32.0754717 21.6981132 32.0754717"></polygon>
                        <polygon id="Fill-50" fill="#FFFFFF" mask="url(#mask-4)" points="25.4716981 36.7924528 27.3584906 36.7924528 27.3584906 32.0754717 25.4716981 32.0754717"></polygon>
                        <polygon id="Fill-51" fill="#5044DE" mask="url(#mask-4)" points="29.245283 36.7924528 31.1320755 36.7924528 31.1320755 32.0754717 29.245283 32.0754717"></polygon>
                        <polygon id="Fill-52" fill="#5044DE" mask="url(#mask-4)" points="33.0188679 36.7924528 34.9056604 36.7924528 34.9056604 32.0754717 33.0188679 32.0754717"></polygon>
                        <polygon id="Fill-53" fill="#FFFFFF" mask="url(#mask-4)" points="36.7924528 36.7924528 38.6792453 36.7924528 38.6792453 32.0754717 36.7924528 32.0754717"></polygon>
                        <polygon id="Fill-54" fill="#5044DE" mask="url(#mask-4)" points="40.5660377 36.7924528 42.4528302 36.7924528 42.4528302 32.0754717 40.5660377 32.0754717"></polygon>
                        <polygon id="Fill-55" fill="#5044DE" mask="url(#mask-4)" points="6.60377358 43.3962264 8.49056604 43.3962264 8.49056604 38.6792453 6.60377358 38.6792453"></polygon>
                        <polygon id="Fill-56" fill="#FFFFFF" mask="url(#mask-4)" points="10.3773585 43.3962264 12.2641509 43.3962264 12.2641509 38.6792453 10.3773585 38.6792453"></polygon>
                        <polygon id="Fill-57" fill="#5044DE" mask="url(#mask-4)" points="14.1509434 43.3962264 16.0377358 43.3962264 16.0377358 38.6792453 14.1509434 38.6792453"></polygon>
                        <polygon id="Fill-58" fill="#FFFFFF" mask="url(#mask-4)" points="17.9245283 43.3962264 19.8113208 43.3962264 19.8113208 38.6792453 17.9245283 38.6792453"></polygon>
                        <polygon id="Fill-59" fill="#5044DE" mask="url(#mask-4)" points="21.6981132 43.3962264 23.5849057 43.3962264 23.5849057 38.6792453 21.6981132 38.6792453"></polygon>
                        <polygon id="Fill-60" fill="#5044DE" mask="url(#mask-4)" points="25.4716981 43.3962264 27.3584906 43.3962264 27.3584906 38.6792453 25.4716981 38.6792453"></polygon>
                        <polygon id="Fill-61" fill="#FFFFFF" mask="url(#mask-4)" points="29.245283 43.3962264 31.1320755 43.3962264 31.1320755 38.6792453 29.245283 38.6792453"></polygon>
                        <polygon id="Fill-62" fill="#5044DE" mask="url(#mask-4)" points="33.0188679 43.3962264 34.9056604 43.3962264 34.9056604 38.6792453 33.0188679 38.6792453"></polygon>
                        <polygon id="Fill-63" fill="#5044DE" mask="url(#mask-4)" points="36.7924528 43.3962264 38.6792453 43.3962264 38.6792453 38.6792453 36.7924528 38.6792453"></polygon>
                        <polygon id="Fill-64" fill="#5044DE" mask="url(#mask-4)" points="40.5660377 43.3962264 42.4528302 43.3962264 42.4528302 38.6792453 40.5660377 38.6792453"></polygon>
                        <path d="M44.9546666,47.3963492 L44.9540314,21.3811918 L57.5471698,9.21172237 L55.8245535,7.54716981 L41.509434,21.3811918 L41.5100691,47.3963492 C41.5100691,48.3093664 42.2830869,49.0566038 43.2282392,49.0566038 L46.6728367,49.0566038 C45.7276843,49.0566038 44.9546666,48.3093664 44.9546666,47.3963492" id="Fill-65" fill="#8A939D" mask="url(#mask-4)"></path>
                        <path d="M48.7050645,39.8545938 L57.7235674,39.8545938 L57.7235674,34.7418202 L48.7050645,34.7418202 L48.7050645,39.8545938 Z M59.4339623,7.54716981 L45.2830189,21.3811918 L45.2836468,47.3963492 C45.2836468,48.3093664 46.0484269,49.0566038 46.9821116,49.0566038 L61.1449851,49.0566038 L61.1449851,34.7412062 L70.163488,34.7412062 L70.163488,49.0566038 L71.8864408,49.0566038 C72.8207535,49.0566038 73.5849057,48.3093664 73.5849057,47.3963492 L73.5849057,44.188816 L73.5849057,21.3811918 L59.4339623,7.54716981 Z" id="Fill-66" fill="#E56B5C" mask="url(#mask-4)"></path>
                        <polygon id="Fill-67" fill="#FFFFFF" mask="url(#mask-4)" points="68.8679245 49.0566038 68.8679245 34.9056604 60.3773585 34.9056604 60.3773585 49.0566038"></polygon>
                        <polygon id="Fill-68" fill="#FFFFFF" mask="url(#mask-4)" points="48.1132075 39.6226415 56.6037736 39.6226415 56.6037736 34.9056604 48.1132075 34.9056604"></polygon>
                    </g>
                    <g id="Group-5" transform="translate(0.000000, 10.000000)">
                        <g id="Page-1" transform="translate(27.000000, 0.000000)">
                            <path d="M44.5015141,36.9805563 C44.4344718,37.9837254 43.7916549,52.6265423 43.7896831,52.6625282 L43.7536972,53.6854155 C43.9602465,53.5621761 44.1485563,53.4187254 44.3117254,53.2550634 L44.7770775,53.504993 L44.8736972,53.3980211 C44.8963732,53.3733732 44.9407394,53.3768239 44.9727817,53.4059085 C45.0048239,53.4345 45.0127113,53.4778803 44.9900352,53.5030211 L44.9190493,53.5814014 L45.1201761,53.6893592 L45.2069366,53.5937254 C45.2291197,53.5690775 45.272993,53.5725282 45.3050352,53.6016127 C45.3375704,53.6302042 45.3449648,53.6740775 45.3232746,53.6987254 L45.2621479,53.7657676 L45.3444718,53.8096408 C45.4110211,53.7283028 45.4603169,53.6321761 45.4667254,53.5197817 L46.1060915,35.4198521 L46.1060915,35.4193592 C46.2041901,34.0262606 46.2426408,32.2930211 43.3963028,32.0642887 L28.7741901,30.9319648 L28.8910211,32.633162 L41.8725704,33.659007 C44.6355986,33.8665423 44.5685563,35.9759085 44.5015141,36.9805563" id="Fill-1" fill="#221718"></path>
                            <path d="M45.6354648,53.9023662 C45.6576479,53.8777183 45.6497606,53.8338451 45.6177183,53.8052535 C45.5856761,53.776169 45.5418028,53.7727183 45.5191268,53.7973662 L45.4545493,53.8688451 L45.3446197,53.8096901 L45.2622958,53.7658169 L45.3229296,53.6982817 C45.3451127,53.6741268 45.3377183,53.6302535 45.3051831,53.601662 C45.2731408,53.5725775 45.2292676,53.5691268 45.2065915,53.5937746 L45.1203239,53.6894085 L44.9191972,53.5814507 L44.9901831,53.5025775 C45.0123662,53.4779296 45.0049718,53.4345493 44.9724366,53.4059577 C44.9403944,53.3768732 44.8960282,53.3734225 44.8738451,53.3980704 L44.7772254,53.5050423 L44.3113803,53.2551127 C44.1487042,53.4187746 43.9603944,53.5622254 43.7538451,53.6854648 L43.7045493,55.0652535 C43.6986338,55.1776479 43.649338,55.2737746 43.5827887,55.3551127 L43.6932113,55.4142676 L43.7572958,55.3427887 C43.7799718,55.3181408 43.824338,55.3215915 43.8563803,55.3506761 C43.8884225,55.3797606 43.8963099,55.4231408 43.8736338,55.4477887 L43.8351831,55.4906761 L44.1664507,55.6686338 C45.1035634,55.3886338 45.9489859,55.0026479 46.7081408,54.5417324 L45.5965211,53.9452535 L45.6354648,53.9023662 Z" id="Fill-3" fill="#221718"></path>
                            <path d="M36.5489718,55.2055493 C36.5435493,55.3056197 36.5750986,55.395338 36.6204507,55.477169 C36.7032676,55.6275211 36.8516479,55.7384366 37.0345352,55.7487887 L43.162,55.5511127 C43.3325634,55.5604789 43.4819296,55.4791408 43.5829859,55.3554085 C43.6495352,55.2740704 43.698338,55.1774507 43.7047465,55.0655493 L43.7535493,53.6857606 L43.7895352,52.6623803 C43.791507,52.6263944 44.4348169,37.9835775 44.5013662,36.9804085 C44.5684085,35.9757606 44.6354507,33.8663944 41.8724225,33.6588592 L28.8908732,32.6330141 L29.2724225,38.1896338 C30.3135493,38.3695634 31.2472113,38.6032254 32.0157324,38.8950563 C32.4943944,39.074 33.3550986,39.295338 33.8012254,39.913507 L37.3840423,40.1925211 L36.5489718,55.2055493 Z" id="Fill-5" fill="#5B534F"></path>
                            <path d="M26.5210775,53.8710634 C26.4781901,53.9183873 26.4293873,53.9602887 26.3766408,53.9962746 C26.2440352,54.0864859 26.0848099,54.1387394 25.9127676,54.1387394 L23.4090352,54.1387394 L21.1088944,54.1387394 C20.9013592,54.1387394 20.7140352,54.0593732 20.5686127,53.9331761 C20.3926268,53.7808521 20.2787535,53.5590211 20.2787535,53.3085986 C20.2787535,53.2514155 20.284669,53.1952183 20.296007,53.1414859 C20.3019225,53.1119085 20.3132606,53.0852887 20.3221338,53.0571901 C20.3295282,53.0335282 20.3344577,53.0083873 20.3443169,52.9857113 C20.3467817,52.9797958 20.3502324,52.9753592 20.3531901,52.9694437 C20.482838,52.6805704 20.7717113,52.4789507 21.1088944,52.4789507 L25.9127676,52.4789507 C26.3707254,52.4789507 26.7424155,52.8506408 26.7424155,53.3085986 C26.7424155,53.5255 26.6581197,53.7226831 26.5210775,53.8710634 Z M15.9880493,51.1050775 L15.9875563,51.1050775 C15.9737535,51.1050775 15.9599507,51.1016268 15.9456549,51.1006408 C15.5631197,51.0814155 15.2491056,50.8078239 15.174669,50.4435282 C15.1638239,50.3897958 15.1579085,50.3335986 15.1579085,50.2764155 C15.1579085,49.8169789 15.5286127,49.4467676 15.9875563,49.4467676 L15.9880493,49.4467676 L20.5952324,49.4467676 L24.7671338,49.4467676 C25.2265704,49.4467676 25.5967817,49.8169789 25.5967817,50.2764155 C25.5967817,50.515993 25.4937535,50.7304296 25.3310775,50.8817676 C25.3286127,50.8837394 25.3256549,50.8857113 25.3231901,50.8881761 C25.2891761,50.9192324 25.2531901,50.9478239 25.2142465,50.9734577 C25.2034014,50.9798662 25.1915704,50.9852887 25.1802324,50.9912042 C25.1476972,51.0104296 25.115162,51.029162 25.079669,51.0434577 C25.0565,51.0528239 25.0313592,51.0582465 25.0072042,51.0661338 C24.9810775,51.0735282 24.9564296,51.0833873 24.9298099,51.0888099 C24.8780493,51.099162 24.8248099,51.1045845 24.7700915,51.1045845 C24.7691056,51.1045845 24.7681197,51.1050775 24.7671338,51.1050775 L21.941993,51.1050775 L15.9880493,51.1050775 Z M13.9117113,47.8643732 C13.7771338,47.8643732 13.6514296,47.8288803 13.5380493,47.7716972 C13.2688944,47.6351479 13.0810775,47.3590915 13.0810775,47.0342324 L13.0810775,47.0337394 L13.0810775,47.0332465 C13.0810775,46.8390211 13.1510775,46.6630352 13.2639648,46.5225423 C13.4167817,46.3317676 13.6494577,46.2070493 13.9122042,46.2070493 L24.8041056,46.2070493 C25.0826268,46.2070493 25.3261479,46.3435986 25.4765,46.5521197 C25.5745986,46.6876831 25.6337535,46.8533169 25.6337535,47.0332465 L25.6337535,47.0337394 L25.6337535,47.0342324 C25.6337535,47.0652887 25.6238944,47.0928944 25.6204437,47.1229648 C25.6219225,47.120007 25.6243873,47.1180352 25.6253732,47.1150775 C25.6238944,47.1298662 25.6174859,47.1431761 25.6155141,47.1574718 C25.6071338,47.2126831 25.5972746,47.2659225 25.5785423,47.3166972 C25.5721338,47.3354296 25.5617817,47.3521901 25.5538944,47.3704296 C25.5322042,47.4182465 25.511007,47.4650775 25.4809366,47.5074718 C25.4636831,47.5321197 25.441993,47.552331 25.4222746,47.5755 C25.394669,47.6060634 25.3700211,47.6390915 25.3384718,47.6657113 C25.2832606,47.7125423 25.2221338,47.7529648 25.1550915,47.7845141 C25.0481197,47.8343028 24.9298099,47.8643732 24.8036127,47.8643732 L18.7165704,47.8643732 L13.9117113,47.8643732 Z M16.0427676,40.8175423 L16.0427676,44.0819085 C15.3841761,43.8319789 14.9163592,43.1960634 14.9163592,42.4497254 C14.9163592,41.7033873 15.3841761,41.0674718 16.0427676,40.8175423 Z M16.516993,43.0802183 C17.1780493,43.0807113 17.7163592,42.5838099 17.7207958,41.9661338 C17.7257254,41.3455 17.1903732,40.8382465 16.5258662,40.8338099 L16.516993,40.8338099 L16.516993,40.7110634 C16.5643169,40.7076127 16.6121338,40.7056408 16.6604437,40.7056408 C17.6231901,40.7056408 18.4045282,41.4864859 18.4045282,42.4497254 C18.4045282,43.4129648 17.6231901,44.1938099 16.6604437,44.1938099 C16.6121338,44.1938099 16.5643169,44.192331 16.516993,44.1883873 L16.516993,43.0802183 Z M56.4258662,52.6174718 C56.6043169,52.2142324 56.8320634,51.8405704 57.0854437,51.4895845 C59.4639648,50.9502887 61.8804437,50.6717676 64.3353732,50.6717676 C66.6029789,50.6717676 68.9036127,50.9078944 71.2431901,51.4062746 C71.5172746,51.4634577 71.7898803,51.5245845 72.0654437,51.5916268 C72.3291761,51.6537394 72.5929085,51.7183169 72.8556549,51.786838 C72.9803732,51.8193732 73.1050915,51.8528944 73.2298099,51.8864155 C73.2707254,51.8977535 73.3106549,51.9076127 73.3520634,51.9189507 C72.8354437,51.2830352 72.2926972,50.6781761 71.7124859,50.1058521 C70.462838,48.5934577 68.8222746,47.4147958 66.9455845,46.7256408 C64.9855845,45.778669 62.716993,45.1388099 60.0693169,44.8750775 C58.6634014,41.1044437 55.9043169,35.0050775 53.4311479,30.4575423 C54.2400915,30.7143732 55.1436831,30.8519085 56.0807958,30.8519085 C56.323331,30.8519085 56.5629085,30.8415563 56.7975563,30.8228239 C56.9306549,30.8139507 57.0474859,30.7335986 57.1036831,30.6157817 C57.6134014,29.5081056 57.8722042,28.3851479 57.8771338,27.2799366 C57.8810775,26.1584577 57.6207958,25.0226831 57.1036831,23.9076127 C57.0474859,23.7883169 56.9306549,23.705993 56.7975563,23.6981056 C56.5604437,23.6803592 56.323331,23.6729648 56.0807958,23.6729648 C54.5659366,23.6729648 53.1358662,24.0278944 52.0557958,24.6702183 C51.5155141,24.9935986 51.0876268,25.374162 50.7834718,25.8005704 C50.7465,25.8528239 50.7188944,25.9065563 50.6863592,25.9593028 C49.9981901,24.976838 48.8042465,23.2766268 47.4905141,23.6788803 C47.0034718,23.8277535 46.6416408,24.0357817 46.3764296,24.2842324 L43.6917817,22.8250775 C42.7640352,22.3212746 41.6943169,22.5016972 41.2989648,23.2283169 C41.2294577,23.355993 41.1949507,23.4925423 41.1747394,23.6325423 C41.2476972,23.6340211 41.3206549,23.6488099 41.3906549,23.6803592 C41.6553732,23.8040915 41.7717113,24.1200775 41.6484718,24.3857817 L41.4769225,24.7555 C41.482838,24.7633873 41.4897394,24.7707817 41.495162,24.7781761 L43.5276268,23.5137394 C43.7760775,23.3589507 44.1103028,23.4447254 44.2650915,23.694162 C44.4203732,23.9431056 44.3434718,24.2704296 44.0945282,24.4252183 L42.7467817,25.2637394 L42.8123451,25.3692324 L44.1600915,24.5302183 C44.4090352,24.3759225 44.7368521,24.452331 44.8921338,24.7012746 C45.0469225,24.9502183 44.9705141,25.2775423 44.7210775,25.4328239 L43.5591761,26.155007 L43.6853732,26.2235282 L44.7871338,25.5378239 C45.0360775,25.3830352 45.3634014,25.4589507 45.5186831,25.7083873 C45.6734718,25.957331 45.5970634,26.2846549 45.3476268,26.4394437 L44.7580493,26.8062042 L44.8837535,26.8747254 L44.9764296,26.8170493 C45.2248803,26.6622606 45.5526972,26.7376831 45.7079789,26.9876127 C45.7804437,27.1034577 45.7972042,27.2345845 45.7745282,27.3583169 L45.8588239,27.4046549 C45.8627676,27.4347254 45.8676972,27.4667676 45.8716408,27.4958521 C46.5859366,31.8324014 51.247838,41.2247254 51.7654437,45.3024718 C52.1085423,48.0078239 50.5093873,52.2354296 46.7081901,54.5419789 C45.9490352,55.0028944 45.1036127,55.3883873 44.166007,55.6683873 L47.4850915,57.4504296 L47.3791056,58.6069085 L47.1222746,58.6695141 C47.2282606,58.6981056 47.3026972,58.7893028 47.3071338,58.8997254 L47.3332606,58.9021901 L47.3268521,58.9726831 L47.2987535,58.9702183 C47.2681901,59.0870493 47.1612183,59.1703592 47.0365,59.1590211 L39.1545986,58.4353592 L39.1541056,58.4353592 L36.6626972,58.2066268 C36.4921338,58.1913451 36.361993,58.0878239 36.3723451,57.9759225 L36.4349507,57.2921901 C36.4379085,57.2601479 36.4541761,57.2320493 36.4773451,57.2069085 L36.5917113,55.8256408 C30.6239648,54.6371197 28.7211479,50.6742324 28.3908662,47.5661338 C28.0684718,44.5260634 30.8522042,43.5909225 32.2112887,42.9717676 C32.9241056,42.6459225 34.0879789,41.998669 34.0879789,40.8362746 C34.0879789,40.4532465 33.9750915,40.1545141 33.8015704,39.9139507 C33.3554437,39.2952887 32.4942465,39.0739507 32.0155845,38.895007 C31.2470634,38.6031761 30.3134014,38.3695141 29.2722746,38.1895845 L29.3003732,38.5977535 L18.3581901,38.0062042 C15.8234014,38.2862042 13.5203028,38.7816268 11.9453028,39.4747254 C4.88910563,42.5808521 0.745302817,52.8762746 0.745302817,52.8762746 C0.745302817,52.8762746 0.859176056,52.871838 1.05783803,52.8644437 C2.07875352,52.8255 5.4693169,52.6983169 8.66417606,52.6026831 C10.7912887,52.5390915 12.8291761,52.4893028 14.0172042,52.4893028 C14.4179789,52.4893028 14.9567817,52.5869085 15.5404437,52.7628944 C16.7491761,53.128669 18.1521338,53.8375423 18.9379085,54.7554296 C20.0889648,56.0972606 22.8150211,60.1045141 23.5026972,61.120993 C23.6047394,61.272331 23.6629085,61.3585986 23.6629085,61.3585986 L52.8524155,61.3585986 L53.0594577,61.3585986 C53.0594577,61.3585986 55.4808662,54.7608521 56.4258662,52.6174718 Z" id="Fill-7" fill="#D70926"></path>
                            <path d="M63.8936831,64.2397887 C60.6973451,64.2397887 58.1048803,61.6488028 58.1048803,58.4514789 C58.1048803,55.2551408 60.6973451,52.6641549 63.8936831,52.6641549 C67.0895282,52.6641549 69.681993,55.2551408 69.681993,58.4514789 C69.681993,61.6488028 67.0895282,64.2397887 63.8936831,64.2397887 M73.2298099,51.8862676 C73.1050915,51.8527465 72.9803732,51.8197183 72.8556549,51.7871831 C72.5929085,51.718662 72.3291761,51.6535915 72.0654437,51.5914789 C71.7898803,51.5244366 71.5172746,51.4638028 71.2431901,51.4066197 C68.9036127,50.9077465 66.6029789,50.6716197 64.3353732,50.6716197 C61.8804437,50.6716197 59.4639648,50.9506338 57.0854437,51.4899296 C56.8320634,51.8409155 56.6043169,52.2140845 56.4258662,52.6173239 C55.4808662,54.7607042 53.0594577,61.3584507 53.0594577,61.3584507 L52.8524155,61.3584507 C54.1380493,66.255493 58.5934014,69.8678873 63.8936831,69.8678873 C70.1986127,69.8678873 75.3091056,64.7569014 75.3091056,58.4519718 C75.3091056,56.0073944 74.5381197,53.7442254 73.2298099,51.8862676" id="Fill-9" fill="#221718"></path>
                            <path d="M63.8936831,52.6642042 C60.6973451,52.6642042 58.1048803,55.2551901 58.1048803,58.4515282 C58.1048803,61.6488521 60.6973451,64.239838 63.8936831,64.239838 C67.0895282,64.239838 69.681993,61.6488521 69.681993,58.4515282 C69.681993,55.2551901 67.0895282,52.6642042 63.8936831,52.6642042" id="Fill-11" fill="#FFFFFF"></path>
                            <path d="M15.9879507,49.4467183 C15.5285141,49.4467183 15.1578099,49.8169296 15.1578099,50.2763662 C15.1578099,50.3335493 15.1637254,50.3897465 15.1750634,50.4434789 C15.1642183,50.3897465 15.1578099,50.3335493 15.1578099,50.2763662 C15.1578099,49.8169296 15.5285141,49.4467183 15.9879507,49.4467183" id="Fill-15" fill="#221718"></path>
                            <path d="M15.540493,52.7631408 C17.068169,53.8673662 18.0659155,55.6592676 18.0659155,57.6887746 C18.0659155,61.044831 15.3452817,63.7664507 11.9877465,63.7664507 C8.63070423,63.7664507 5.91007042,61.044831 5.91007042,57.6887746 C5.91007042,55.5591972 7.00690141,53.6884225 8.66422535,52.6024366 C5.4693662,52.6985634 2.07880282,52.8252535 1.05788732,52.8646901 C0.380070423,54.3667324 0,56.0314507 0,57.7863803 C0,64.4077887 5.36732394,69.7746197 11.9877465,69.7746197 C17.4511972,69.7746197 22.0578873,66.1188451 23.5027465,61.1207465 C22.8150704,60.1047606 20.0890141,56.097507 18.9379577,54.7556761 C18.1521831,53.8372958 16.7492254,53.1284225 15.540493,52.7631408" id="Fill-17" fill="#221718"></path>
                            <path d="M5.91026761,57.6888732 C5.91026761,61.0449296 8.63090141,63.7665493 11.9879437,63.7665493 C15.3454789,63.7665493 18.0656197,61.0449296 18.0656197,57.6888732 C18.0656197,55.6593662 17.0683662,53.8674648 15.5406901,52.7632394 C14.9570282,52.5867606 14.4182254,52.4896479 14.0174507,52.4896479 C12.8294225,52.4896479 10.7910423,52.5389437 8.66392958,52.6025352 C7.00709859,53.6885211 5.91026761,55.5592958 5.91026761,57.6888732" id="Fill-27" fill="#FFFFFF"></path>
                            <path d="M16.0426197,44.0817113 L16.0426197,40.8173451 C15.3845211,41.0672746 14.9162113,41.7036831 14.9162113,42.4495282 C14.9162113,43.1958662 15.3845211,43.8322746 16.0426197,44.0817113" id="Fill-29" fill="#FFFFFF"></path>
                            <path d="M18.4046268,42.4497746 C18.4046268,41.4865352 17.6232887,40.7056901 16.6605423,40.7056901 C16.6122324,40.7056901 16.5644155,40.707662 16.5170915,40.7111127 L16.5170915,40.8338592 L16.5259648,40.8338592 C17.1904718,40.8382958 17.7258239,41.3455493 17.7208944,41.9661831 C17.7164577,42.5833662 17.1781479,43.0807606 16.5170915,43.0802676 L16.5170915,44.1884366 C16.5644155,44.1923803 16.6122324,44.1938592 16.6605423,44.1938592 C17.6232887,44.1938592 18.4046268,43.4130141 18.4046268,42.4497746" id="Fill-31" fill="#FFFFFF"></path>
                            <path d="M25.9703451,53.8650493 L23.3162606,53.8650493 C23.3478099,53.9562465 23.3798521,54.0469507 23.4089366,54.1386408 L25.912669,54.1386408 C26.0842183,54.1386408 26.2439366,54.0858944 26.3765423,53.996669 C26.4297817,53.9606831 26.4775986,53.9177958 26.5209789,53.8709648 C26.6496408,53.7299789 26.729993,53.5441338 26.7378803,53.3400493 C26.6171056,53.646669 26.3198521,53.8650493 25.9703451,53.8650493" id="Fill-33" fill="#D5CFCD"></path>
                            <path d="M23.4090352,54.138493 C23.3794577,54.0468028 23.3479085,53.9560986 23.3163592,53.8649014 C23.1517113,53.3887042 22.9584718,52.9263099 22.7376268,52.4791972 L21.1088944,52.4791972 C20.7717113,52.4791972 20.482838,52.6813099 20.3531901,52.9696901 C20.3502324,52.9751127 20.3467817,52.9800423 20.3443169,52.9854648 C20.3344577,53.0086338 20.3295282,53.0332817 20.3221338,53.0574366 C20.3132606,53.0850423 20.3019225,53.1121549 20.296007,53.1412394 C20.285162,53.1949718 20.2787535,53.2506761 20.2787535,53.3078592 C20.2787535,53.5582817 20.3926268,53.7806056 20.5686127,53.9334225 C20.7140352,54.0591268 20.9013592,54.138493 21.1084014,54.138493 L23.4090352,54.138493 Z" id="Fill-35" fill="#221718"></path>
                            <path d="M23.4090352,54.138493 C23.3794577,54.0468028 23.3479085,53.9560986 23.3163592,53.8649014 C23.1517113,53.3887042 22.9584718,52.9263099 22.7376268,52.4791972 L21.1088944,52.4791972 C20.7717113,52.4791972 20.482838,52.6813099 20.3531901,52.9696901 C20.3502324,52.9751127 20.3467817,52.9800423 20.3443169,52.9854648 C20.3344577,53.0086338 20.3295282,53.0332817 20.3221338,53.0574366 C20.3132606,53.0850423 20.3019225,53.1121549 20.296007,53.1412394 C20.285162,53.1949718 20.2787535,53.2506761 20.2787535,53.3078592 C20.2787535,53.5582817 20.3926268,53.7806056 20.5686127,53.9334225 C20.7140352,54.0591268 20.9013592,54.138493 21.1084014,54.138493 L23.4090352,54.138493 Z" id="Fill-37" fill="#D5CFCD"></path>
                            <path d="M25.9125704,52.4790986 L21.1086972,52.4790986 C20.772007,52.4790986 20.4826408,52.6807183 20.352993,52.9695915 C20.4826408,52.6812113 20.772007,52.4790986 21.1086972,52.4790986 L22.7374296,52.4790986 C22.9587676,52.9262113 23.1515141,53.3890986 23.316162,53.8652958 L25.9702465,53.8652958 C26.3197535,53.8652958 26.617007,53.6464225 26.7377817,53.3398028 C26.7298944,53.5438873 26.6500352,53.7302254 26.5208803,53.8712113 C26.6579225,53.722831 26.7422183,53.5256479 26.7422183,53.3087465 C26.7422183,52.8507887 26.3705282,52.4790986 25.9125704,52.4790986" id="Fill-39" fill="#D70926"></path>
                            <path d="M25.9125704,52.4790986 L21.1086972,52.4790986 C20.772007,52.4790986 20.4826408,52.6807183 20.352993,52.9695915 C20.4826408,52.6812113 20.772007,52.4790986 21.1086972,52.4790986 L22.7374296,52.4790986 C22.9587676,52.9262113 23.1515141,53.3890986 23.316162,53.8652958 L25.9702465,53.8652958 C26.3197535,53.8652958 26.617007,53.6464225 26.7377817,53.3398028 C26.7298944,53.5438873 26.6500352,53.7302254 26.5208803,53.8712113 C26.6579225,53.722831 26.7422183,53.5256479 26.7422183,53.3087465 C26.7422183,52.8507887 26.3705282,52.4790986 25.9125704,52.4790986" id="Fill-41" fill="#D5CFCD"></path>
                            <path d="M24.8291972,50.8430704 L21.7575775,50.8430704 C21.8196901,50.9303239 21.8822958,51.0165915 21.9424366,51.1053239 L24.7670845,51.1053239 C24.7680704,51.1053239 24.7690563,51.104831 24.7700423,51.104831 C24.8247606,51.104831 24.878,51.0989155 24.9297606,51.0890563 C24.9563803,51.0831408 24.9815211,51.0737746 25.0071549,51.0658873 C25.0313099,51.058493 25.0564507,51.0525775 25.0796197,51.0432113 C25.1151127,51.0289155 25.1476479,51.0101831 25.1801831,50.9914507 C25.1915211,50.9850423 25.2033521,50.9801127 25.2141972,50.9732113 C25.2531408,50.9480704 25.2896197,50.9194789 25.3231408,50.8879296 C25.3256056,50.8854648 25.3285634,50.8839859 25.3315211,50.8815211 C25.4774366,50.7439859 25.5735634,50.5532113 25.5903239,50.3402535 C25.4646197,50.6360282 25.1718028,50.8430704 24.8291972,50.8430704" id="Fill-55" fill="#D5CFCD"></path>
                            <path d="M24.8291972,50.8430704 C25.1718028,50.8430704 25.4646197,50.6360282 25.5903239,50.3402535 C25.5735634,50.5532113 25.4774366,50.7439859 25.3315211,50.8815211 C25.4937042,50.7301831 25.5972254,50.5162394 25.5972254,50.276662 C25.5972254,49.8172254 25.2265211,49.4465211 24.7670845,49.4465211 L20.5951831,49.4465211 C21.0171549,49.8818028 21.4051127,50.3486338 21.7575775,50.8430704 L24.8291972,50.8430704 Z" id="Fill-57" fill="#D70926"></path>
                            <path d="M24.8291972,50.8430704 C25.1718028,50.8430704 25.4646197,50.6360282 25.5903239,50.3402535 C25.5735634,50.5532113 25.4774366,50.7439859 25.3315211,50.8815211 C25.4937042,50.7301831 25.5972254,50.5162394 25.5972254,50.276662 C25.5972254,49.8172254 25.2265211,49.4465211 24.7670845,49.4465211 L20.5951831,49.4465211 C21.0171549,49.8818028 21.4051127,50.3486338 21.7575775,50.8430704 L24.8291972,50.8430704 Z" id="Fill-59" fill="#D5CFCD"></path>
                            <path d="M21.757331,50.8430704 C21.4053592,50.3486338 21.0169085,49.8818028 20.5954296,49.4465211 L15.9877535,49.4465211 C15.5288099,49.4465211 15.1581056,49.8172254 15.1581056,50.276662 C15.1581056,50.3338451 15.1640211,50.3895493 15.1748662,50.4432817 C15.2493028,50.8070845 15.5633169,51.081169 15.9458521,51.1008873 C15.9601479,51.1013803 15.9734577,51.1053239 15.9877535,51.1053239 L21.9421901,51.1053239 C21.8825423,51.0165915 21.8194437,50.9303239 21.757331,50.8430704" id="Fill-93" fill="#221718"></path>
                            <path d="M21.757331,50.8430704 C21.4053592,50.3486338 21.0169085,49.8818028 20.5954296,49.4465211 L15.9877535,49.4465211 C15.5288099,49.4465211 15.1581056,49.8172254 15.1581056,50.276662 C15.1581056,50.3338451 15.1640211,50.3895493 15.1748662,50.4432817 C15.2493028,50.8070845 15.5633169,51.081169 15.9458521,51.1008873 C15.9601479,51.1013803 15.9734577,51.1053239 15.9877535,51.1053239 L21.9421901,51.1053239 C21.8825423,51.0165915 21.8194437,50.9303239 21.757331,50.8430704" id="Fill-95" fill="#D5CFCD"></path>
                            <path d="M15.1748662,50.4434789 C15.2493028,50.8077746 15.5633169,51.0813662 15.9458521,51.1005915 C15.5633169,51.0813662 15.2493028,50.8067887 15.1748662,50.4434789" id="Fill-97" fill="#D70926"></path>
                            <path d="M15.1748662,50.4434789 C15.2493028,50.8077746 15.5633169,51.0813662 15.9458521,51.1005915 C15.5633169,51.0813662 15.2493028,50.8067887 15.1748662,50.4434789" id="Fill-99" fill="#D5CFCD"></path>
                            <path d="M24.8657746,47.6147394 L18.3301408,47.6147394 C18.4602817,47.6960775 18.5899296,47.7784014 18.7161268,47.8641761 L24.8041549,47.8641761 C24.9298592,47.8641761 25.048169,47.8341056 25.1551408,47.7843169 C25.2216901,47.7532606 25.2828169,47.7123451 25.3385211,47.6655141 C25.3695775,47.6388944 25.3952113,47.6063592 25.421831,47.5753028 C25.4415493,47.5526268 25.4637324,47.5324155 25.4809859,47.5072746 C25.5105634,47.4653732 25.5327465,47.4185423 25.5539437,47.3707254 C25.561831,47.3524859 25.5721831,47.3357254 25.5785915,47.316993 C25.596831,47.2662183 25.6071831,47.2124859 25.6155634,47.1577676 C25.6175352,47.1459366 25.619507,47.1345986 25.620493,47.1227676 C25.4923239,47.4131197 25.2049296,47.6147394 24.8657746,47.6147394" id="Fill-101" fill="#D5CFCD"></path>
                            <path d="M18.7163239,47.8641268 C18.5896338,47.7783521 18.4599859,47.6960282 18.3298451,47.6146901 C17.339,46.9955352 16.2515352,46.5168732 15.0940704,46.2072958 L13.9119577,46.2072958 C13.6492113,46.2072958 13.4170282,46.3320141 13.2642113,46.5222958 C13.1513239,46.6632817 13.080831,46.8392676 13.080831,47.0339859 C13.0813239,47.3583521 13.2686479,47.6349014 13.5382958,47.7719437 C13.6511831,47.8291268 13.7768873,47.8641268 13.9119577,47.8641268 L18.7163239,47.8641268 Z" id="Fill-103" fill="#221718"></path>
                            <path d="M18.7163239,47.8641268 C18.5896338,47.7783521 18.4599859,47.6960282 18.3298451,47.6146901 C17.339,46.9955352 16.2515352,46.5168732 15.0940704,46.2072958 L13.9119577,46.2072958 C13.6492113,46.2072958 13.4170282,46.3320141 13.2642113,46.5222958 C13.1513239,46.6632817 13.080831,46.8392676 13.080831,47.0339859 C13.0813239,47.3583521 13.2686479,47.6349014 13.5382958,47.7719437 C13.6511831,47.8291268 13.7768873,47.8641268 13.9119577,47.8641268 L18.7163239,47.8641268 Z" id="Fill-105" fill="#D5CFCD"></path>
                            <path d="M13.9119085,46.2073944 L15.0940211,46.2073944 C16.2514859,46.5169718 17.3389507,46.9956338 18.3297958,47.6147887 L24.8659225,47.6147887 C25.2050775,47.6147887 25.4924718,47.413169 25.6206408,47.1228169 C25.6240915,47.0927465 25.6334577,47.0651408 25.6334577,47.0345775 L25.6334577,47.0340845 C25.6334577,46.853169 25.5743028,46.6880282 25.4762042,46.5519718 C25.3263451,46.3434507 25.0828239,46.2073944 24.8038099,46.2073944 L13.9119085,46.2073944 C13.649162,46.2073944 13.4169789,46.3316197 13.264162,46.5223944 C13.4169789,46.3316197 13.649162,46.2073944 13.9119085,46.2073944" id="Fill-115" fill="#D70926"></path>
                            <path d="M13.9119085,46.2073944 L15.0940211,46.2073944 C16.2514859,46.5169718 17.3389507,46.9956338 18.3297958,47.6147887 L24.8659225,47.6147887 C25.2050775,47.6147887 25.4924718,47.413169 25.6206408,47.1228169 C25.6240915,47.0927465 25.6334577,47.0651408 25.6334577,47.0345775 L25.6334577,47.0340845 C25.6334577,46.853169 25.5743028,46.6880282 25.4762042,46.5519718 C25.3263451,46.3434507 25.0828239,46.2073944 24.8038099,46.2073944 L13.9119085,46.2073944 C13.649162,46.2073944 13.4169789,46.3316197 13.264162,46.5223944 C13.4169789,46.3316197 13.649162,46.2073944 13.9119085,46.2073944" id="Fill-117" fill="#D5CFCD"></path>
                            <mask id="mask-6" fill="white">
                                <use xlink:href="#path-5"></use>
                            </mask>
                            <g id="Clip-144"></g>
                            <path d="M3.55373239,36.3492254 L10.2510563,36.3492254 L10.2510563,31.6380282 L3.55373239,31.6380282 L3.55373239,36.3492254 Z M1.92795775,16.8793662 L1.91612676,37.0600704 C1.91612676,37.5441549 2.30852113,37.9380282 2.79211268,37.9380282 L17.7223239,37.9469014 L18.8901408,16.0097887 L2.80591549,16.0028873 C2.32183099,16.0019014 1.92795775,16.3952817 1.92795775,16.8793662 Z" id="Fill-143" fill="#CB7D54" mask="url(#mask-6)"></path>
                            <path d="M26.3662887,8.19162676 C26.3667817,8.1911338 26.3687535,8.18965493 26.3687535,8.19162676 C26.4215,8.26507746 26.5200915,8.40162676 26.7162887,8.40162676 C26.9129789,8.40162676 27.0115704,8.26507746 27.0648099,8.19162676 C27.0648099,8.19162676 27.0648099,8.19064085 27.0653028,8.19014789 C27.0657958,8.19064085 27.0662887,8.19162676 27.0667817,8.19162676 C27.1200211,8.26507746 27.2186127,8.40162676 27.4148099,8.40162676 C27.611993,8.40162676 27.7110775,8.26507746 27.7638239,8.19211972 C27.7648099,8.1911338 27.7653028,8.19014789 27.7662887,8.18866901 C27.7672746,8.19014789 27.7682606,8.1911338 27.7687535,8.19211972 C27.8215,8.26507746 27.9200915,8.40162676 28.1177676,8.40162676 C28.3144577,8.40162676 28.4130493,8.26507746 28.4667817,8.19211972 C28.4776268,8.17733099 28.4938944,8.15416197 28.5012887,8.14824648 C28.6195986,8.14824648 28.6989648,8.05803521 28.6989648,7.93972535 C28.6989648,7.82190845 28.5875563,7.73219014 28.4697394,7.73219014 C28.2730493,7.73219014 28.1739648,7.86824648 28.1207254,7.94120423 C28.1197394,7.9426831 28.1187535,7.94416197 28.1177676,7.94564085 C28.1167817,7.94416197 28.1157958,7.9426831 28.1148099,7.94120423 C28.0615704,7.86824648 27.9629789,7.73219014 27.7662887,7.73219014 C27.5691056,7.73219014 27.4705141,7.86824648 27.4172746,7.94169718 C27.4167817,7.9426831 27.4157958,7.94366901 27.4148099,7.94465493 C27.4148099,7.94366901 27.4143169,7.9426831 27.413331,7.94169718 C27.3600915,7.86873944 27.261993,7.73219014 27.0648099,7.73219014 C26.8686127,7.73219014 26.7705141,7.86873944 26.7172746,7.94219014 C26.7172746,7.94219014 26.7167817,7.9426831 26.7162887,7.94317606 L26.7157958,7.94219014 C26.6630493,7.86873944 26.5644577,7.73219014 26.3677676,7.73219014 C26.1710775,7.73219014 26.0724859,7.86873944 26.0202324,7.94169718 C26.0093873,7.95697887 25.9926268,7.97965493 25.9857254,7.98606338 C25.8674155,7.98606338 25.7885423,8.07627465 25.7885423,8.19359859 C25.7885423,8.31190845 25.9004437,8.40162676 26.0182606,8.40162676 C26.2149507,8.40162676 26.3140352,8.26507746 26.3662887,8.19162676" id="Fill-146" fill="#221718" mask="url(#mask-6)"></path>
                            <path d="M28.1039155,12.6985423 C27.9865915,12.8158662 27.9865915,13.0061479 28.1039155,13.1229789 C28.3222958,13.3408662 28.6052535,13.4517817 28.891662,13.4621338 C28.9059577,13.4626268 28.9202535,13.4660775 28.9345493,13.4660775 L28.9350423,13.4660775 L28.9350423,12.8671338 C28.9202535,12.8671338 28.9064507,12.8597394 28.891662,12.8587535 C28.7595493,12.8488944 28.6294085,12.8000915 28.5283521,12.6985423 C28.4110282,12.5817113 28.2212394,12.5817113 28.1039155,12.6985423" id="Fill-147" fill="#221718" mask="url(#mask-6)"></path>
                            <path d="M27.3373169,9.04271831 C27.138162,9.04271831 26.9823873,9.2295493 27.0361197,9.43757746 C27.0627394,9.54307042 27.149007,9.62884507 27.254007,9.65595775 C27.4620352,9.7101831 27.6493592,9.55440845 27.6493592,9.35476056 C27.6493592,9.18222535 27.5098521,9.04271831 27.3373169,9.04271831" id="Fill-148" fill="#221718" mask="url(#mask-6)"></path>
                            <path d="M25.7883944,8.19379577 C25.7883944,8.07597887 25.8672676,7.98626056 25.9855775,7.98626056 C25.9929718,7.97985211 26.0092394,7.95717606 26.0200845,7.94189437 C26.072831,7.86844366 26.1709296,7.73189437 26.3676197,7.73189437 C26.5648028,7.73189437 26.6629014,7.86893662 26.7161408,7.94238732 L26.7166338,7.94337324 C26.7171268,7.94288028 26.7176197,7.94189437 26.7176197,7.94189437 C26.7703662,7.86844366 26.8684648,7.73189437 27.0651549,7.73189437 C27.2618451,7.73189437 27.3599437,7.86844366 27.4131831,7.94189437 C27.414169,7.94288028 27.414662,7.9438662 27.4151549,7.94485211 C27.4161408,7.94337324 27.4171268,7.94238732 27.4176197,7.94140141 C27.4703662,7.86844366 27.5694507,7.73189437 27.7661408,7.73189437 C27.962831,7.73189437 28.0619155,7.8679507 28.114662,7.94140141 C28.1156479,7.94238732 28.1166338,7.9438662 28.1176197,7.94583803 C28.1186056,7.9438662 28.1195915,7.94288028 28.1205775,7.94140141 C28.1738169,7.86844366 28.2729014,7.73189437 28.4695915,7.73189437 C28.5874085,7.73189437 28.6988169,7.82210563 28.6988169,7.93992254 C28.6988169,8.05823239 28.6194507,8.1479507 28.5011408,8.1479507 C28.4942394,8.15435915 28.4779718,8.17703521 28.4666338,8.1923169 C28.4133944,8.26527465 28.3148028,8.40133099 28.1176197,8.40133099 C27.9204366,8.40133099 27.8218451,8.26527465 27.7686056,8.1923169 C27.7681127,8.19133099 27.7671268,8.18985211 27.7661408,8.1888662 C27.7651549,8.18985211 27.764662,8.19133099 27.7636761,8.1923169 C27.7109296,8.26527465 27.6118451,8.40133099 27.4151549,8.40133099 C27.2184648,8.40133099 27.1198732,8.26527465 27.0671268,8.19182394 C27.0666338,8.19133099 27.0661408,8.19083803 27.0656479,8.18985211 C27.0651549,8.19034507 27.064662,8.19133099 27.064662,8.19133099 C27.0114225,8.26527465 26.9133239,8.40133099 26.7166338,8.40133099 C26.5199437,8.40133099 26.4218451,8.26527465 26.3686056,8.19182394 C26.3686056,8.18985211 26.3666338,8.19133099 26.3661408,8.19182394 C26.3138873,8.26527465 26.2148028,8.40133099 26.0181127,8.40133099 C25.9007887,8.40133099 25.7883944,8.31161268 25.7883944,8.19379577 M27.2539577,9.65590845 C27.1489577,9.62879577 27.0626901,9.54302113 27.0360704,9.43752817 C26.982338,9.2295 27.1381127,9.04266901 27.3372676,9.04266901 C27.5098028,9.04266901 27.6493099,9.18217606 27.6493099,9.35471127 C27.6493099,9.55435915 27.4624789,9.7101338 27.2539577,9.65590845 M24.7029014,15.7828803 L26.1132535,15.7828803 L26.1684648,15.7828803 L26.4686761,15.7828803 L26.469662,15.7675986 C28.8856479,15.5886549 28.8915634,13.6439366 28.8915634,13.6439366 L28.8915634,13.4620352 C28.6051549,13.4516831 28.3221972,13.3407676 28.1038169,13.1233732 C27.986493,13.0060493 27.986493,12.8157676 28.1038169,12.6984437 C28.2211408,12.5816127 28.4109296,12.5816127 28.5287465,12.6984437 C28.6298028,12.799993 28.7594507,12.8487958 28.8915634,12.8586549 L28.8915634,11.5054859 L29.4377606,11.329993 C29.7833239,11.2309085 29.957831,10.9587958 29.8395211,10.6679507 L28.8915634,8.67738732 L28.8915634,5.75858451 C28.8915634,5.70337324 28.8900845,5.64964085 28.8890986,5.59541549 C28.3576901,5.63978169 27.8967746,5.66097887 27.4999437,5.65900704 C27.3101549,5.65999296 27.1302254,5.65752817 26.9675493,5.64816197 L26.5490282,5.85076761 C26.5490282,5.85076761 25.1258592,6.80069718 24.9350845,8.78485211 C24.9336056,8.80210563 24.9350845,8.82034507 24.9340986,8.83809155 C24.8088873,10.5777394 26.6895211,12.8561901 25.6380423,14.0999225 C25.3363521,14.4573169 24.9350845,14.6756972 24.4736761,14.7915423 C23.0263521,15.1548521 20.9800845,14.5006972 19.4760704,13.8642887 L19.4760704,13.8889366 C21.0781831,14.490838 22.9243099,15.1533732 24.4736761,15.7015423 C24.5505775,15.7286549 24.6279718,15.7562606 24.7029014,15.7828803" id="Fill-149" fill="#F6D0B2" mask="url(#mask-6)"></path>
                            <path d="M24.4734296,14.7916901 C24.935331,14.6758451 25.3361056,14.4569718 25.6382887,14.1000704 C26.6892746,12.8558451 24.8086408,10.5778873 24.9338521,8.83823944 C24.935331,8.82049296 24.9333592,8.80225352 24.935331,8.785 C25.1256127,6.80084507 26.5492746,5.85091549 26.5492746,5.85091549 L26.9677958,5.64830986 L26.9830775,5.64042254 C25.5525141,5.5393662 25.1699789,5.01978873 25.2488521,4.01514085 C25.343993,2.8034507 26.7139225,2.21830986 27.268993,2.02950704 C26.6118803,1.20725352 25.3617394,0.271126761 22.9935704,0.033028169 C19.0942746,-0.359859155 15.9161761,2.82661972 15.5745563,6.38133803 C15.2329366,9.9365493 17.4936408,12.9026761 17.4936408,12.9026761 C17.4936408,12.9026761 18.3262465,13.3778873 19.4758239,13.8644366 C20.979838,14.5008451 23.0265986,15.155 24.4734296,14.7916901" id="Fill-150" fill="#F7A600" mask="url(#mask-6)"></path>
                            <path d="M25.2487535,4.01494366 C25.1698803,5.01959155 25.5529085,5.53966197 26.9834718,5.64022535 C27.1426972,5.65156338 27.3137535,5.65846479 27.4995986,5.65895775 C27.8969225,5.66092958 28.357838,5.63973239 28.8892465,5.5953662 C29.2589648,5.56480282 29.6567817,5.52487324 30.0984718,5.47261972 C30.0984718,5.47261972 29.9540352,4.27571831 28.1468521,3.43769014 L27.5020634,1.95783099 C27.5020634,1.95783099 27.4108662,1.98149296 27.2688944,2.02980282 C26.7143169,2.21811268 25.3438944,2.80325352 25.2487535,4.01494366" id="Fill-151" fill="#F9BB7A" mask="url(#mask-6)"></path>
                            <path d="M43.8737817,55.4476901 C43.8959648,55.4230423 43.8880775,55.379662 43.8560352,55.3505775 C43.823993,55.3219859 43.7801197,55.3180423 43.7574437,55.3431831 L43.6928662,55.414169 L43.5829366,55.355507 C43.4823732,55.4787465 43.3325141,55.5605775 43.1619507,55.5512113 L37.0344859,55.7483944 C36.8515986,55.7380423 36.7037113,55.6276197 36.6204014,55.4772676 L36.5918099,55.8257887 L36.4774437,57.2070563 C36.4542746,57.2321972 36.438007,57.2602958 36.4350493,57.292338 L36.3724437,57.9755775 C36.3620915,58.0874789 36.4917394,58.191 36.6627958,58.2067746 L39.1542042,58.435507 L39.1546972,58.435507 L47.0365986,59.159169 C47.1608239,59.170507 47.2682887,59.0871972 47.2988521,58.9703662 L47.3269507,58.972338 L47.3333592,58.9018451 L47.3067394,58.8993803 C47.3027958,58.7889577 47.2283592,58.6977606 47.1218803,58.669662 L47.3792042,58.6070563 L47.4851901,57.4505775 L44.1661056,55.6685352 L43.834838,55.4905775 L43.8737817,55.4476901 Z" id="Fill-152" fill="#221718" mask="url(#mask-6)"></path>
                            <path d="M29.2723239,38.1895845 L28.8907746,32.6334577 L28.7739437,30.9322606 L28.618662,28.6690915 C24.6626761,26.5981761 21.7310563,23.1262746 20.3557042,18.8715563 C19.973662,17.6978239 20.6199296,16.4378239 21.7941549,16.0577535 C22.9688732,15.6776831 24.2278873,16.3214859 24.6089437,17.4962042 C25.3079577,19.6612746 26.565,21.5414155 28.2297183,23.0064859 L27.8082394,16.8671901 C27.8082394,16.8671901 26.4792254,16.4097254 24.7030986,15.7826831 C24.6276761,15.7560634 24.5502817,15.7289507 24.4733803,15.7013451 C23.6180986,15.398669 22.0421127,14.8243732 20.8028169,14.3708521 C19.9125352,14.045007 18.9616197,14.6730352 18.9108451,15.6195141 L17.7223239,37.9470493 L17.7208451,37.9716972 L18.3582394,38.0062042 L29.3004225,38.5977535 L29.2723239,38.1895845 Z" id="Fill-153" fill="#F7A600" mask="url(#mask-6)"></path>
                            <path d="M41.3473732,24.8701127 C41.3513169,24.8676479 41.3552606,24.866662 41.3592042,24.8641972 C41.3601901,24.8632113 41.3611761,24.8617324 41.3626549,24.8607465 L41.455331,24.8035634 L41.4770211,24.7557465 L41.6485704,24.3860282 C41.7718099,24.1203239 41.6554718,23.804338 41.3902606,23.6806056 C41.3207535,23.6485634 41.2477958,23.6342676 41.174838,23.6322958 C40.9677958,23.6273662 40.7651901,23.7377887 40.6744859,23.9349718 L39.8704718,25.6701831 C39.9922324,25.6356761 40.1144859,25.6001831 40.2357535,25.5617324 L41.3473732,24.8701127 Z" id="Fill-154" fill="#F6D0B2" mask="url(#mask-6)"></path>
                            <path d="M41.362507,24.8609437 C41.3610282,24.8619296 41.3605352,24.8634085 41.3590563,24.8643944 C41.3551127,24.8668592 41.351169,24.8678451 41.3472254,24.8703099 L40.2356056,25.5619296 C40.2671549,25.5520704 40.2987042,25.5436901 40.3297606,25.533831 L41.6863803,29.7239718 C41.9437042,29.7984085 42.2296197,29.7717887 42.4741268,29.6199577 L43.7922958,28.7991831 C43.7952535,28.7972113 43.7977183,28.7947465 43.8006761,28.7927746 C43.8026479,28.7917887 43.8056056,28.7917887 43.8075775,28.7903099 L45.5349014,27.715169 C45.668,27.6323521 45.7478592,27.5007324 45.7744789,27.3582676 C45.7971549,27.2345352 45.7803944,27.1034085 45.7079296,26.9875634 C45.5526479,26.7381268 45.224831,26.6622113 44.9763803,26.817 L44.8837042,26.8746761 L44.0653944,27.3834085 L43.999831,27.2779155 L44.758,26.8061549 L45.3475775,26.4393944 C45.5970141,26.2846056 45.6734225,25.9572817 45.5186338,25.708338 C45.3633521,25.4589014 45.0360282,25.3834789 44.7870845,25.5377746 L43.6853239,26.2234789 L43.4388451,26.3767887 L43.3732817,26.2708028 L43.5596197,26.1549577 L44.7210282,25.4327746 C44.9704648,25.277493 45.0468732,24.950169 44.8920845,24.7012254 C44.7368028,24.4522817 44.4089859,24.3758732 44.1600423,24.530662 L42.8122958,25.3691831 L42.7467324,25.2636901 L44.0944789,24.425169 C44.3434225,24.2703803 44.4203239,23.9430563 44.2650423,23.6941127 C44.1102535,23.4446761 43.7760282,23.3589014 43.5275775,23.5136901 L41.4951127,24.7786197 L41.4551831,24.8032676 L41.362507,24.8609437 Z" id="Fill-155" fill="#F6D0B2" mask="url(#mask-6)"></path>
                            <path d="M24.6086972,17.4962042 C24.2281338,16.3214859 22.9691197,15.6776831 21.7944014,16.0577535 C20.6196831,16.4378239 19.9739085,17.6978239 20.3554577,18.8715563 C21.7308099,23.1262746 24.6629225,26.5981761 28.6184155,28.6690915 C28.6696831,28.6957113 28.7184859,28.7247958 28.7697535,28.7514155 C32.8026408,30.8134577 37.3960211,31.1802183 41.7064437,29.7856408 L41.6862324,29.7240211 L40.3301056,25.5338803 C40.2985563,25.5437394 40.267007,25.5521197 40.2354577,25.5619789 C40.1141901,25.5999366 39.9924296,25.6359225 39.8701761,25.6704296 C36.8320775,26.5281761 33.6308099,26.2166268 30.8046831,24.7717676 C29.861162,24.289162 29.0048944,23.6887394 28.2299648,23.0064859 C26.5647535,21.5414155 25.3077113,19.6612746 24.6086972,17.4962042" id="Fill-156" fill="#F9BB7A" mask="url(#mask-6)"></path>
                            <path d="M4.06443662,35.7951408 L9.74084507,35.7951408 L9.74084507,35.0438732 L4.06443662,35.0438732 L4.06443662,35.7951408 Z M4.06443662,34.4109155 L9.74084507,34.4109155 L9.74084507,33.6596479 L4.06443662,33.6596479 L4.06443662,34.4109155 Z M4.06443662,33.0266901 L9.74084507,33.0266901 L9.74084507,32.2754225 L4.06443662,32.2754225 L4.06443662,33.0266901 Z M3.55373239,36.3492254 L10.2510563,36.3492254 L10.2510563,31.6380282 L3.55373239,31.6380282 L3.55373239,36.3492254 Z" id="Fill-157" fill="#FFFFFF" mask="url(#mask-6)"></path>
                            <polygon id="Fill-158" fill="#CBCFD4" mask="url(#mask-6)" points="4.06443662 33.0266901 9.74084507 33.0266901 9.74084507 32.2754225 4.06443662 32.2754225"></polygon>
                            <polygon id="Fill-159" fill="#CBCFD4" mask="url(#mask-6)" points="4.06443662 34.4109155 9.74084507 34.4109155 9.74084507 33.6596479 4.06443662 33.6596479"></polygon>
                            <polygon id="Fill-160" fill="#CBCFD4" mask="url(#mask-6)" points="4.06443662 35.7951408 9.74084507 35.7951408 9.74084507 35.0438732 4.06443662 35.0438732"></polygon>
                        </g>
                        <path d="M15,47 L21,47" id="Line" stroke="#736D6C" stroke-width="2" stroke-linecap="square"></path>
                        <path d="M0,41 L21,41" id="Line" stroke="#736D6C" stroke-width="2" stroke-linecap="square"></path>
                    </g>
                </g>
            </g>
        </g>
    </g>
</svg>