<svg width="24" height="24" viewBox="0 0 24 24" fill="none" xmlns="http://www.w3.org/2000/svg">
<path opacity="0.03" d="M11.7432 24C16.9899 24 21.2432 23.3284 21.2432 22.5C21.2432 21.6716 16.9899 21 11.7432 21C6.49646 21 2.24316 21.6716 2.24316 22.5C2.24316 23.3284 6.49646 24 11.7432 24Z" fill="black"/>
<path fill-rule="evenodd" clip-rule="evenodd" d="M12.0541 0C7.22103 0.00182676 3.45605 3.93229 3.2973 9.08108C3.08086 15.8416 9.01987 17.6388 11.3805 22.0541C11.8721 22.8793 12.236 22.8793 12.7276 22.0541C15.0882 17.6388 21.0272 15.8416 20.8108 9.08108C20.6521 3.93229 16.8871 0.00182676 12.0541 0Z" fill="#DC1928"/>
<path fill-rule="evenodd" clip-rule="evenodd" d="M9.01859 8.69231C8.79592 8.69231 8.61542 8.8774 8.61542 9.08984V12.6025C8.61542 12.822 8.80366 13 9.01429 13H9.57039C9.79068 13 9.96926 12.8261 9.96926 12.6089V10.7403C9.96926 10.5242 10.1567 10.3491 10.3608 10.3491H11.6085C11.8247 10.3491 12 10.523 12 10.7403V12.6089C12 12.8249 12.182 13 12.4016 13H14.9831C15.2049 13 15.3846 12.8149 15.3846 12.6025V9.08984C15.3846 8.87029 15.2036 8.69231 14.9815 8.69231H9.01859Z" fill="white"/>
<path fill-rule="evenodd" clip-rule="evenodd" d="M14.6994 5.20346C14.6097 5.07538 14.469 5 14.3196 5H9.68043C9.5311 5 9.39038 5.07538 9.30064 5.20346L8.07656 7.42808C7.88918 7.69538 8.06723 8.07692 8.37953 8.07692H15.6205C15.9328 8.07692 16.1109 7.69538 15.9235 7.42808L14.6994 5.20346Z" fill="white"/>
</svg>
