<svg width="20" height="20" viewBox="0 0 20 20" fill="none" xmlns="http://www.w3.org/2000/svg">
    <path fill-rule="evenodd" clip-rule="evenodd" d="M13.6727 0H19.1646C19.381 0 19.5856 0.0877852 19.7396 0.236975C19.9061 0.378429 20 0.583737 20 0.818299V6.32732C20 6.77839 19.6335 7.14562 19.1817 7.14562C18.7299 7.14562 18.3634 6.77839 18.3634 6.32635L18.38 2.79985L11.9859 9.19572L10.8284 8.04145L17.2326 1.6366H13.6727C13.2208 1.6366 12.8544 1.26937 12.8544 0.818299C12.8544 0.367224 13.2208 0 13.6727 0ZM1.6366 13.6737C1.6366 13.2216 1.27013 12.8544 0.818299 12.8544C0.366465 12.8544 0 13.2216 0 13.6727V19.1817C0 19.4195 0.0965866 19.6273 0.267409 19.7689C0.408696 19.9098 0.61603 20 0.835438 20H6.32732C6.77915 20 7.14562 19.6328 7.14562 19.1817C7.14562 18.7306 6.77915 18.3634 6.32732 18.3634H2.76736L9.17162 11.9585L8.01408 10.8043L1.61998 17.2002L1.6366 13.6737Z" fill="white"/>
</svg>