<svg width="20" height="20" viewBox="0 0 18 16" fill="none" xmlns="http://www.w3.org/2000/svg">
    <path fill-rule="evenodd" clip-rule="evenodd" d="M10.4202 1.60949H5.44975V5.86984H12.5503V3.73966H10.4202V1.60949ZM13.9704 5.86983H15.7456C16.724 5.86983 17.5207 6.66652 17.5207 7.64498V15.8107H0.479309V7.64498C0.479309 6.66652 1.276 5.86983 2.25446 5.86983H4.0296V0.189362H11.4242L11.6322 0.397409L13.7624 2.52759L13.9704 2.73563V5.86983ZM13.9704 8.71007C13.9704 8.31811 14.2885 8.00001 14.6805 8.00001C15.0724 8.00001 15.3905 8.31811 15.3905 8.71007C15.3905 9.10202 15.0724 9.42013 14.6805 9.42013C14.2885 9.42013 13.9704 9.10202 13.9704 8.71007ZM12.5503 9.42013C12.9423 9.42013 13.2604 9.10202 13.2604 8.71007C13.2604 8.31811 12.9423 8.00001 12.5503 8.00001C12.1583 8.00001 11.8402 8.31811 11.8402 8.71007C11.8402 9.10202 12.1583 9.42013 12.5503 9.42013ZM4.73964 11.5503H13.2604C13.6523 11.5503 13.9704 11.8684 13.9704 12.2604C13.9704 12.6523 13.6523 12.9704 13.2604 12.9704H4.73964C4.34769 12.9704 4.02958 12.6523 4.02958 12.2604C4.02958 11.8684 4.34769 11.5503 4.73964 11.5503Z" fill="white"/>
</svg>